<svg xmlns="http://www.w3.org/2000/svg" width="472.059" height="68.378" viewBox="0 0 472.059 68.378">
  <path id="Trazado_911694" data-name="Trazado 911694" d="M10.477-11.689,9.949-9.308H9.105a2.718,2.718,0,0,0-.47-1.56,1.587,1.587,0,0,0-1.288-.479,2.977,2.977,0,0,0-2.254,1.213,8.791,8.791,0,0,0-1.648,3.2,12.738,12.738,0,0,0-.606,3.7,3.291,3.291,0,0,0,.475,1.969,1.706,1.706,0,0,0,1.459.633,3.076,3.076,0,0,0,1.151-.2A2.553,2.553,0,0,0,6.847-1.5,5.793,5.793,0,0,0,7.7-2.812h.844l-.536,2.5A12.8,12.8,0,0,1,4.562.141,3.222,3.222,0,0,1,2.048-.809a4,4,0,0,1-.861-2.777,11.476,11.476,0,0,1,.461-2.979A10.2,10.2,0,0,1,2.953-9.527a6.046,6.046,0,0,1,2-1.942,4.954,4.954,0,0,1,2.531-.668,10.567,10.567,0,0,1,1.481.1A10.125,10.125,0,0,1,10.477-11.689ZM18.29-7.972l.809-.58.563.141L18.369-2.839a6.189,6.189,0,0,0-.193,1.3.886.886,0,0,0,.114.51.414.414,0,0,0,.36.158.978.978,0,0,0,.563-.215,6.176,6.176,0,0,0,.844-.822l.5.492a7.649,7.649,0,0,1-1.349,1.2A2.205,2.205,0,0,1,18,.141a1.114,1.114,0,0,1-.87-.36,1.376,1.376,0,0,1-.325-.958,2.962,2.962,0,0,1,.2-1.028l-.114-.035a7.75,7.75,0,0,1-1.6,1.8,2.61,2.61,0,0,1-1.6.571,1.746,1.746,0,0,1-1.5-.729,3.426,3.426,0,0,1-.532-2.048,7.34,7.34,0,0,1,.593-2.9,5.373,5.373,0,0,1,1.63-2.2,3.68,3.68,0,0,1,2.312-.8,4.285,4.285,0,0,1,1.068.127A3.733,3.733,0,0,1,18.29-7.972Zm-.773,2.619a5.547,5.547,0,0,0,.105-.624q.026-.264.026-.571a1.437,1.437,0,0,0-.29-.993,1.289,1.289,0,0,0-.984-.316,2.233,2.233,0,0,0-1.626.729,4.924,4.924,0,0,0-1.125,1.956,7.777,7.777,0,0,0-.4,2.448,2.909,2.909,0,0,0,.25,1.367.882.882,0,0,0,.839.453,1.7,1.7,0,0,0,1.138-.5A6.972,6.972,0,0,0,16.6-2.834a6.229,6.229,0,0,0,.839-2.14Zm7.154-.932A7.324,7.324,0,0,1,26.328-8a2.829,2.829,0,0,1,1.613-.545,5,5,0,0,1,1.072.1l-.422,1.969h-.905a2.034,2.034,0,0,0-.149-.571.633.633,0,0,0-.229-.281.641.641,0,0,0-.334-.079,1.2,1.2,0,0,0-.69.272,4.722,4.722,0,0,0-.839.853A6.756,6.756,0,0,0,24.7-5.168a5.713,5.713,0,0,0-.461,1.362L23.405,0H21.885l1.274-5.572a8.229,8.229,0,0,0,.158-.817,4.147,4.147,0,0,0,.035-.483.886.886,0,0,0-.114-.51.414.414,0,0,0-.36-.158.983.983,0,0,0-.576.224,6.308,6.308,0,0,0-.831.813L20.971-7a8.449,8.449,0,0,1,1.354-1.2,2.156,2.156,0,0,1,1.2-.356,1.1,1.1,0,0,1,.875.365,1.391,1.391,0,0,1,.321.954,2.675,2.675,0,0,1-.167.905ZM31.482.756a2.945,2.945,0,0,0-.281.4,1.559,1.559,0,0,0-.163.382,1.751,1.751,0,0,0-.048.439,1.058,1.058,0,0,0,.475.962,2.7,2.7,0,0,0,1.433.3,2.836,2.836,0,0,0,1.736-.488,3.756,3.756,0,0,0,1.121-1.569,17.536,17.536,0,0,0,.905-3.27l-.123-.026A7.885,7.885,0,0,1,34.954-.4a2.6,2.6,0,0,1-1.573.536,1.745,1.745,0,0,1-1.49-.721,3.419,3.419,0,0,1-.532-2.057,7.3,7.3,0,0,1,.589-2.887,5.416,5.416,0,0,1,1.635-2.2,3.691,3.691,0,0,1,2.329-.817,4.028,4.028,0,0,1,1.046.132,3.622,3.622,0,0,1,.993.448l.809-.58.563.141-.905,4.1q-.1.431-.439,2.171Q37.617-.3,37.393.466a7.39,7.39,0,0,1-.558,1.393,3.872,3.872,0,0,1-.861,1.094,3.7,3.7,0,0,1-1.279.721,5.556,5.556,0,0,1-1.78.255q-3.322,0-3.322-1.934a1.473,1.473,0,0,1,.3-.9A3.95,3.95,0,0,1,30.85.246ZM34-.905a1.556,1.556,0,0,0,.892-.308,4.443,4.443,0,0,0,.949-.976,7.077,7.077,0,0,0,.787-1.274,7.374,7.374,0,0,0,.479-1.512,7.515,7.515,0,0,0,.2-1.573,1.434,1.434,0,0,0-.29-1,1.273,1.273,0,0,0-.967-.312,2.2,2.2,0,0,0-1.608.725,4.983,4.983,0,0,0-1.121,1.956,7.741,7.741,0,0,0-.409,2.452,2.784,2.784,0,0,0,.264,1.367A.888.888,0,0,0,34-.905ZM47.892-7.972l.809-.58.563.141L47.971-2.839a6.189,6.189,0,0,0-.193,1.3.886.886,0,0,0,.114.51.414.414,0,0,0,.36.158.978.978,0,0,0,.563-.215,6.176,6.176,0,0,0,.844-.822l.5.492a7.649,7.649,0,0,1-1.349,1.2A2.205,2.205,0,0,1,47.6.141a1.114,1.114,0,0,1-.87-.36,1.376,1.376,0,0,1-.325-.958,2.962,2.962,0,0,1,.2-1.028l-.114-.035a7.75,7.75,0,0,1-1.6,1.8,2.61,2.61,0,0,1-1.6.571A1.746,1.746,0,0,1,41.8-.6a3.426,3.426,0,0,1-.532-2.048,7.34,7.34,0,0,1,.593-2.9,5.373,5.373,0,0,1,1.63-2.2,3.68,3.68,0,0,1,2.312-.8,4.285,4.285,0,0,1,1.068.127A3.733,3.733,0,0,1,47.892-7.972Zm-.773,2.619a5.547,5.547,0,0,0,.105-.624q.026-.264.026-.571a1.437,1.437,0,0,0-.29-.993,1.289,1.289,0,0,0-.984-.316,2.233,2.233,0,0,0-1.626.729,4.924,4.924,0,0,0-1.125,1.956,7.777,7.777,0,0,0-.4,2.448,2.909,2.909,0,0,0,.25,1.367.882.882,0,0,0,.839.453,1.7,1.7,0,0,0,1.138-.5A6.972,6.972,0,0,0,46.2-2.834a6.229,6.229,0,0,0,.839-2.14ZM57.19-5.546a6.217,6.217,0,0,0,.185-1.327.886.886,0,0,0-.114-.51.414.414,0,0,0-.36-.158.983.983,0,0,0-.576.224,6.308,6.308,0,0,0-.831.813L54.993-7a8.58,8.58,0,0,1,1.34-1.191,2.154,2.154,0,0,1,1.217-.365,1.1,1.1,0,0,1,.866.36,1.387,1.387,0,0,1,.321.958,2.982,2.982,0,0,1-.2,1.037l.105.035q1.626-2.382,3.234-2.382a1.738,1.738,0,0,1,1.49.729A3.443,3.443,0,0,1,63.9-5.757,7.35,7.35,0,0,1,63.312-2.9,5.434,5.434,0,0,1,61.69-.681a3.643,3.643,0,0,1-2.32.822,3.459,3.459,0,0,1-1.942-.51l-.4,1.925a5.173,5.173,0,0,0-.132,1.028.674.674,0,0,0,.2.549,1.506,1.506,0,0,0,.769.215l-.07.431H55.072Zm.888,2.487q-.088.466-.11.712t-.022.483a1.419,1.419,0,0,0,.294,1,1.357,1.357,0,0,0,1.015.312,1.935,1.935,0,0,0,.826-.176,2.562,2.562,0,0,0,.716-.51,3.751,3.751,0,0,0,.611-.809,6.354,6.354,0,0,0,.488-1.1,8.019,8.019,0,0,0,.325-1.292,7.636,7.636,0,0,0,.11-1.244,2.847,2.847,0,0,0-.259-1.375.878.878,0,0,0-.822-.453,1.532,1.532,0,0,0-.883.3,4.687,4.687,0,0,0-.954.971,6.455,6.455,0,0,0-.809,1.318,7.012,7.012,0,0,0-.457,1.494ZM68.722-6.284A7.324,7.324,0,0,1,70.378-8a2.829,2.829,0,0,1,1.613-.545,5,5,0,0,1,1.072.1l-.422,1.969h-.905a2.034,2.034,0,0,0-.149-.571.633.633,0,0,0-.229-.281.641.641,0,0,0-.334-.079,1.2,1.2,0,0,0-.69.272,4.722,4.722,0,0,0-.839.853,6.756,6.756,0,0,0-.743,1.116,5.713,5.713,0,0,0-.461,1.362L67.456,0H65.936L67.21-5.572a8.229,8.229,0,0,0,.158-.817,4.147,4.147,0,0,0,.035-.483.886.886,0,0,0-.114-.51.414.414,0,0,0-.36-.158.983.983,0,0,0-.576.224,6.308,6.308,0,0,0-.831.813L65.021-7a8.449,8.449,0,0,1,1.354-1.2,2.156,2.156,0,0,1,1.2-.356,1.1,1.1,0,0,1,.875.365,1.391,1.391,0,0,1,.321.954,2.675,2.675,0,0,1-.167.905ZM80.736-1.749A6.681,6.681,0,0,1,79.009-.334a4.2,4.2,0,0,1-2.035.475A2.515,2.515,0,0,1,75-.637,3.127,3.127,0,0,1,74.3-2.8a6.746,6.746,0,0,1,.338-2.017,5.894,5.894,0,0,1,1.024-1.934,4.786,4.786,0,0,1,1.644-1.327,4.567,4.567,0,0,1,2.039-.47,2.5,2.5,0,0,1,1.6.431,1.629,1.629,0,0,1,.532,1.345,2.4,2.4,0,0,1-1.4,2.241,9.106,9.106,0,0,1-4.162.747,5.828,5.828,0,0,0-.105,1.143,2.032,2.032,0,0,0,.36,1.34,1.48,1.48,0,0,0,1.178.417,3.044,3.044,0,0,0,1.463-.352A6.114,6.114,0,0,0,80.191-2.32ZM76.061-4.535a9.416,9.416,0,0,0,2.127-.224,2.846,2.846,0,0,0,1.362-.686,1.707,1.707,0,0,0,.475-1.27,1.281,1.281,0,0,0-.25-.839.908.908,0,0,0-.743-.3,2.345,2.345,0,0,0-1.709.9A5.972,5.972,0,0,0,76.061-4.535ZM88.937-6.267a1.923,1.923,0,0,0-.514-1.187,1.833,1.833,0,0,0-1.314-.4,1.708,1.708,0,0,0-1.125.356,1.155,1.155,0,0,0-.431.936,1.336,1.336,0,0,0,.11.558,1.69,1.69,0,0,0,.444.532,7.729,7.729,0,0,0,1.037.712,7.428,7.428,0,0,1,.888.611,2.946,2.946,0,0,1,.527.549,1.909,1.909,0,0,1,.281.576,2.664,2.664,0,0,1,.088.734,2.174,2.174,0,0,1-.417,1.34,2.476,2.476,0,0,1-1.134.831,4.562,4.562,0,0,1-1.63.272A9.266,9.266,0,0,1,84.313.04a11.435,11.435,0,0,1-1.564-.374l.422-1.916h.686a1.82,1.82,0,0,0,.475,1.274,1.937,1.937,0,0,0,1.4.431,2.047,2.047,0,0,0,1.305-.374,1.274,1.274,0,0,0,.47-1.059,1.614,1.614,0,0,0-.132-.681,1.692,1.692,0,0,0-.431-.549,7.072,7.072,0,0,0-.949-.659,7.706,7.706,0,0,1-1.068-.747,2.355,2.355,0,0,1-.576-.725,2.008,2.008,0,0,1-.193-.9,2.04,2.04,0,0,1,.374-1.217,2.359,2.359,0,0,1,1.068-.8,4.287,4.287,0,0,1,1.617-.281,10.517,10.517,0,0,1,1.49.1,6.954,6.954,0,0,1,1.34.334l-.4,1.846Zm7.8,4.605A6.352,6.352,0,0,1,95.26-.3a2.765,2.765,0,0,1-1.481.439,1.631,1.631,0,0,1-1.837-1.854,5.538,5.538,0,0,1,.149-1.239l1.037-4.562H91.652l.132-.606a3.548,3.548,0,0,0,.787-.079,1.437,1.437,0,0,0,.448-.193,1.235,1.235,0,0,0,.33-.352,3.284,3.284,0,0,0,.29-.584q.141-.356.422-1.244h1.213L94.79-8.4h2.672l-.193.888H94.6L93.814-4.1q-.229.993-.29,1.428a5.241,5.241,0,0,0-.062.7q0,1.09.905,1.09a1.483,1.483,0,0,0,.822-.294,5.516,5.516,0,0,0,1.033-1.006Zm8.543-6.311.809-.58.563.141-1.292,5.572a6.189,6.189,0,0,0-.193,1.3.886.886,0,0,0,.114.51.414.414,0,0,0,.36.158.978.978,0,0,0,.563-.215,6.176,6.176,0,0,0,.844-.822l.5.492a7.649,7.649,0,0,1-1.349,1.2,2.205,2.205,0,0,1-1.208.356,1.114,1.114,0,0,1-.87-.36,1.376,1.376,0,0,1-.325-.958,2.962,2.962,0,0,1,.2-1.028l-.114-.035a7.75,7.75,0,0,1-1.6,1.8,2.61,2.61,0,0,1-1.6.571A1.746,1.746,0,0,1,99.18-.6a3.426,3.426,0,0,1-.532-2.048,7.34,7.34,0,0,1,.593-2.9,5.373,5.373,0,0,1,1.63-2.2,3.68,3.68,0,0,1,2.312-.8,4.285,4.285,0,0,1,1.068.127A3.733,3.733,0,0,1,105.275-7.972ZM104.5-5.353a5.547,5.547,0,0,0,.105-.624q.026-.264.026-.571a1.437,1.437,0,0,0-.29-.993,1.289,1.289,0,0,0-.984-.316,2.233,2.233,0,0,0-1.626.729,4.924,4.924,0,0,0-1.125,1.956,7.777,7.777,0,0,0-.4,2.448,2.909,2.909,0,0,0,.25,1.367.882.882,0,0,0,.839.453,1.7,1.7,0,0,0,1.138-.5,6.972,6.972,0,0,0,1.151-1.428,6.229,6.229,0,0,0,.839-2.14Zm9.87-.94a3.961,3.961,0,0,0-.11-.967.835.835,0,0,0-.3-.448.985.985,0,0,0-.584-.149,2.2,2.2,0,0,0-1.6.708,5.188,5.188,0,0,0-1.156,2,7.615,7.615,0,0,0-.448,2.492,2.1,2.1,0,0,0,.352,1.332,1.275,1.275,0,0,0,1.055.435,2.969,2.969,0,0,0,1.384-.3,5.183,5.183,0,0,0,1.235-.954l.536.536a5.833,5.833,0,0,1-1.666,1.336,3.966,3.966,0,0,1-1.806.422,2.428,2.428,0,0,1-1.934-.756,3.249,3.249,0,0,1-.659-2.2,6.971,6.971,0,0,1,.352-2.065,6.046,6.046,0,0,1,1.028-1.978,4.368,4.368,0,0,1,1.582-1.274,4.522,4.522,0,0,1,1.934-.422,8.307,8.307,0,0,1,2.153.264l-.431,1.986ZM121-11.848l-.4,1.705h-1.556l.4-1.705Zm-2.83,5.924a6.492,6.492,0,0,0,.2-1.318.634.634,0,0,0-.189-.536,1.426,1.426,0,0,0-.743-.158l.1-.466,2.145-.079h.519l-1.266,5.643a6.516,6.516,0,0,0-.193,1.3.886.886,0,0,0,.114.51.414.414,0,0,0,.36.158.978.978,0,0,0,.563-.215,6.176,6.176,0,0,0,.844-.822l.5.492a7.669,7.669,0,0,1-1.4,1.23,2.276,2.276,0,0,1-1.2.325,1.123,1.123,0,0,1-.914-.417,1.628,1.628,0,0,1-.343-1.068,7.7,7.7,0,0,1,.246-1.705Zm7.4,6.073a2.829,2.829,0,0,1-2.114-.765,3.005,3.005,0,0,1-.751-2.2,7.411,7.411,0,0,1,.211-1.626,6.088,6.088,0,0,1,.914-2.18,4.406,4.406,0,0,1,1.582-1.428,4.355,4.355,0,0,1,2.065-.5,2.836,2.836,0,0,1,2.145.769,3.054,3.054,0,0,1,.738,2.2A7.448,7.448,0,0,1,130-3.393a5.971,5.971,0,0,1-.976,1.951A4.014,4.014,0,0,1,127.547-.25,4.647,4.647,0,0,1,125.569.149Zm-1.327-2.584a2.142,2.142,0,0,0,.4,1.428,1.513,1.513,0,0,0,1.208.461,1.981,1.981,0,0,0,1.529-.773,5.561,5.561,0,0,0,1.055-2.167,9.31,9.31,0,0,0,.387-2.448,2.317,2.317,0,0,0-.369-1.428A1.362,1.362,0,0,0,127.3-7.84a2.077,2.077,0,0,0-1.6.765,5.416,5.416,0,0,0-1.072,2.188A9.48,9.48,0,0,0,124.242-2.435Zm9.483-3.138a6.3,6.3,0,0,0,.193-1.3.886.886,0,0,0-.114-.51.414.414,0,0,0-.36-.158.983.983,0,0,0-.576.224,6.308,6.308,0,0,0-.831.813l-.5-.492a8.725,8.725,0,0,1,1.345-1.2,2.143,2.143,0,0,1,1.213-.356,1.1,1.1,0,0,1,.875.365,1.391,1.391,0,0,1,.321.954,3.025,3.025,0,0,1-.211,1.037l.105.035a8.131,8.131,0,0,1,1.639-1.8,2.642,2.642,0,0,1,1.6-.584,1.636,1.636,0,0,1,1.257.47,1.837,1.837,0,0,1,.439,1.305,7.017,7.017,0,0,1-.255,1.573l-.571,2.3a6.607,6.607,0,0,0-.237,1.354.886.886,0,0,0,.114.51.414.414,0,0,0,.36.158.978.978,0,0,0,.563-.215,6.176,6.176,0,0,0,.844-.822l.5.492a7.951,7.951,0,0,1-1.318,1.182,2.266,2.266,0,0,1-1.283.374,1.133,1.133,0,0,1-.914-.409,1.565,1.565,0,0,1-.343-1.042,7.271,7.271,0,0,1,.29-1.679l.387-1.521q.211-.826.277-1.222a4.081,4.081,0,0,0,.066-.642,1.474,1.474,0,0,0-.2-.875.772.772,0,0,0-.659-.268,1.424,1.424,0,0,0-.8.294,4.535,4.535,0,0,0-.905.888,6.967,6.967,0,0,0-.769,1.151,5.738,5.738,0,0,0-.475,1.375L133.963,0h-1.521Zm15.478-2.4.809-.58.563.141-1.292,5.572a6.189,6.189,0,0,0-.193,1.3.886.886,0,0,0,.114.51.414.414,0,0,0,.36.158.978.978,0,0,0,.563-.215,6.176,6.176,0,0,0,.844-.822l.5.492a7.649,7.649,0,0,1-1.349,1.2,2.205,2.205,0,0,1-1.208.356,1.114,1.114,0,0,1-.87-.36,1.376,1.376,0,0,1-.325-.958,2.962,2.962,0,0,1,.2-1.028l-.114-.035a7.75,7.75,0,0,1-1.6,1.8,2.61,2.61,0,0,1-1.6.571,1.746,1.746,0,0,1-1.5-.729,3.426,3.426,0,0,1-.532-2.048,7.34,7.34,0,0,1,.593-2.9,5.373,5.373,0,0,1,1.63-2.2,3.68,3.68,0,0,1,2.312-.8,4.285,4.285,0,0,1,1.068.127A3.733,3.733,0,0,1,149.2-7.972Zm-.773,2.619a5.547,5.547,0,0,0,.105-.624q.026-.264.026-.571a1.437,1.437,0,0,0-.29-.993,1.289,1.289,0,0,0-.984-.316,2.233,2.233,0,0,0-1.626.729,4.924,4.924,0,0,0-1.125,1.956,7.777,7.777,0,0,0-.4,2.448,2.909,2.909,0,0,0,.25,1.367.882.882,0,0,0,.839.453,1.7,1.7,0,0,0,1.138-.5,6.972,6.972,0,0,0,1.151-1.428,6.229,6.229,0,0,0,.839-2.14Zm6.284-4.737q.105-.466.149-.743a3.294,3.294,0,0,0,.044-.514.689.689,0,0,0-.1-.4.542.542,0,0,0-.277-.2,2.776,2.776,0,0,0-.646-.088l.105-.457,2.215-.079h.519l-2.162,9.729a6.633,6.633,0,0,0-.193,1.3.886.886,0,0,0,.114.51.414.414,0,0,0,.36.158.978.978,0,0,0,.563-.215,6.176,6.176,0,0,0,.844-.822l.5.492A7.666,7.666,0,0,1,155.36-.189a2.275,2.275,0,0,1-1.208.33,1.123,1.123,0,0,1-.914-.417,1.628,1.628,0,0,1-.343-1.068,8.612,8.612,0,0,1,.246-1.705Zm15.8,2.936H163.4l.246-1.415h7.128Zm-.633,3.647h-7.119l.246-1.406h7.128Zm7.1-1.652a16.624,16.624,0,0,1,.356-1.771,17.177,17.177,0,0,1,.571-1.806,14.809,14.809,0,0,1,.791-1.745,11.406,11.406,0,0,1,1.028-1.6,9.314,9.314,0,0,1,1.274-1.354,7.2,7.2,0,0,1,1.534-1.02l.237,1.09A8.312,8.312,0,0,0,181.1-11.7a11.346,11.346,0,0,0-1.208,2,13.617,13.617,0,0,0-.817,2.206,19.972,19.972,0,0,0-.492,2.3l-.018.132q-.1.633-.154,1.354t-.053,1.477a13.092,13.092,0,0,0,.1,1.512,8.764,8.764,0,0,0,.3,1.459,6.543,6.543,0,0,0,.558,1.323,4.271,4.271,0,0,0,.875,1.094l-.4.984a5.359,5.359,0,0,1-1.2-1.143,7.44,7.44,0,0,1-.857-1.424,8.652,8.652,0,0,1-.554-1.613,12.629,12.629,0,0,1-.286-1.705,13.814,13.814,0,0,1-.062-1.7,14.55,14.55,0,0,1,.127-1.608ZM193.966-12h2.769l-.1.431a1.635,1.635,0,0,0-.479.158.868.868,0,0,0-.264.264,2.241,2.241,0,0,0-.237.549q-.119.374-.3,1.217l-1.5,6.82q-.114.519-.149.822a4.809,4.809,0,0,0-.035.549.686.686,0,0,0,.2.558,1.2,1.2,0,0,0,.664.2l-.1.431h-3.516l.1-.431a1.2,1.2,0,0,0,.5-.171.949.949,0,0,0,.281-.33,3,3,0,0,0,.211-.514q.1-.3.29-1.173l1.169-5.3q.246-1.1.563-2.188H193.9q-.272.519-1.23,2.109l-4,6.6h-.958l-.729-5.651q-.158-1.2-.352-3.217h-.176q-.3,1.969-.668,3.647l-.9,4.061a6.618,6.618,0,0,0-.185,1.371.686.686,0,0,0,.2.558,1.2,1.2,0,0,0,.664.2l-.1.431H182.4l.1-.431A1.2,1.2,0,0,0,183-.6a.949.949,0,0,0,.281-.33,3,3,0,0,0,.211-.514q.1-.3.29-1.173l1.494-6.768q.088-.378.141-.721a4.56,4.56,0,0,0,.053-.694.694.694,0,0,0-.207-.576,1.175,1.175,0,0,0-.655-.189l.1-.431h3.138l1,8.525ZM197.7-.826a1,1,0,0,1,.272-.716.987.987,0,0,1,.7-.3.952.952,0,0,1,.712.264.908.908,0,0,1,.272.7.95.95,0,0,1-.29.7,1.046,1.046,0,0,1-.7.286,1.006,1.006,0,0,1-.391-.057.863.863,0,0,1-.308-.189.846.846,0,0,1-.2-.3A1.032,1.032,0,0,1,197.7-.826Zm11.672-11.312a3.4,3.4,0,0,1,2.615.984,4.025,4.025,0,0,1,.918,2.848,11.718,11.718,0,0,1-.466,3.063A9.261,9.261,0,0,1,211.091-2.3a5.886,5.886,0,0,1-2.017,1.846,4.993,4.993,0,0,1-2.373.6,3.48,3.48,0,0,1-2.681-.984,3.983,3.983,0,0,1-.914-2.812,11.675,11.675,0,0,1,.444-2.979,9.916,9.916,0,0,1,1.283-2.931,5.847,5.847,0,0,1,2-1.925A5.087,5.087,0,0,1,209.373-12.138Zm1.863,3.463q0-2.689-1.96-2.689a2.734,2.734,0,0,0-1.771.677,5.751,5.751,0,0,0-1.441,1.934,12.508,12.508,0,0,0-.962,2.76,12.115,12.115,0,0,0-.343,2.654q0,2.716,1.978,2.716a2.957,2.957,0,0,0,2.21-1.107,8.384,8.384,0,0,0,1.648-3.107A12.545,12.545,0,0,0,211.236-8.675Zm3.322,7.849a1,1,0,0,1,.272-.716.987.987,0,0,1,.7-.3.952.952,0,0,1,.712.264.908.908,0,0,1,.272.7.95.95,0,0,1-.29.7,1.046,1.046,0,0,1-.7.286,1.006,1.006,0,0,1-.391-.057.863.863,0,0,1-.308-.189.846.846,0,0,1-.2-.3A1.032,1.032,0,0,1,214.559-.826ZM224.912-12a9.343,9.343,0,0,1,2.153.2,4.312,4.312,0,0,1,1.542.729,3.225,3.225,0,0,1,1.077,1.4,5.414,5.414,0,0,1,.36,2.07,9.246,9.246,0,0,1-.272,2.268,8.1,8.1,0,0,1-.782,1.991,6.585,6.585,0,0,1-1.222,1.582,6.647,6.647,0,0,1-1.38,1.033,5.678,5.678,0,0,1-1.494.541A9.111,9.111,0,0,1,222.97,0h-3.691l.1-.431a1.2,1.2,0,0,0,.5-.171.949.949,0,0,0,.281-.33,3,3,0,0,0,.211-.514q.1-.3.29-1.173l1.494-6.768a6.929,6.929,0,0,0,.193-1.415.694.694,0,0,0-.207-.576,1.175,1.175,0,0,0-.655-.189l.1-.431ZM221.827-.809q.255.026.976.026a5.362,5.362,0,0,0,2.417-.5,4.536,4.536,0,0,0,1.714-1.556A7.88,7.88,0,0,0,228-5.067a8.78,8.78,0,0,0,.343-2.474,3.945,3.945,0,0,0-.857-2.764,3.3,3.3,0,0,0-2.544-.927q-.387,0-.835.026Zm9.879-.018a1,1,0,0,1,.272-.716.987.987,0,0,1,.7-.3.952.952,0,0,1,.712.264.908.908,0,0,1,.272.7.95.95,0,0,1-.29.7,1.046,1.046,0,0,1-.7.286,1.006,1.006,0,0,1-.391-.057.863.863,0,0,1-.308-.189.846.846,0,0,1-.2-.3A1.032,1.032,0,0,1,231.706-.826Zm14.625-6.038h3.463l-.272,1.538h-3.454l-.7,4.043h-1.6l.7-4.043H241l.272-1.538h3.454l.65-3.735h1.6ZM266.783-12h2.769l-.1.431a1.635,1.635,0,0,0-.479.158.868.868,0,0,0-.264.264,2.241,2.241,0,0,0-.237.549q-.119.374-.3,1.217l-1.5,6.82q-.114.519-.149.822a4.809,4.809,0,0,0-.035.549.686.686,0,0,0,.2.558,1.2,1.2,0,0,0,.664.2l-.1.431h-3.516l.1-.431a1.2,1.2,0,0,0,.5-.171.949.949,0,0,0,.281-.33,3,3,0,0,0,.211-.514q.1-.3.29-1.173l1.169-5.3q.246-1.1.563-2.188h-.123q-.272.519-1.23,2.109l-4,6.6h-.958L259.8-7.049q-.158-1.2-.352-3.217h-.176q-.3,1.969-.668,3.647l-.9,4.061a6.618,6.618,0,0,0-.185,1.371.686.686,0,0,0,.2.558,1.2,1.2,0,0,0,.664.2l-.1.431h-3.076l.1-.431a1.2,1.2,0,0,0,.5-.171.949.949,0,0,0,.281-.33,3,3,0,0,0,.211-.514q.1-.3.29-1.173l1.494-6.768q.088-.378.141-.721a4.56,4.56,0,0,0,.053-.694.694.694,0,0,0-.207-.576,1.175,1.175,0,0,0-.655-.189l.1-.431h3.138l1,8.525ZM270.519-.826a1,1,0,0,1,.272-.716.987.987,0,0,1,.7-.3.952.952,0,0,1,.712.264.908.908,0,0,1,.272.7.95.95,0,0,1-.29.7,1.046,1.046,0,0,1-.7.286,1.006,1.006,0,0,1-.391-.057.863.863,0,0,1-.308-.189.846.846,0,0,1-.2-.3A1.032,1.032,0,0,1,270.519-.826ZM282.19-12.138a3.4,3.4,0,0,1,2.615.984,4.025,4.025,0,0,1,.918,2.848,11.718,11.718,0,0,1-.466,3.063A9.261,9.261,0,0,1,283.909-2.3a5.886,5.886,0,0,1-2.017,1.846,4.993,4.993,0,0,1-2.373.6,3.48,3.48,0,0,1-2.681-.984,3.983,3.983,0,0,1-.914-2.812,11.675,11.675,0,0,1,.444-2.979,9.916,9.916,0,0,1,1.283-2.931,5.847,5.847,0,0,1,2-1.925A5.087,5.087,0,0,1,282.19-12.138Zm1.863,3.463q0-2.689-1.96-2.689a2.734,2.734,0,0,0-1.771.677,5.751,5.751,0,0,0-1.441,1.934,12.508,12.508,0,0,0-.962,2.76,12.115,12.115,0,0,0-.343,2.654q0,2.716,1.978,2.716a2.957,2.957,0,0,0,2.21-1.107,8.384,8.384,0,0,0,1.648-3.107A12.545,12.545,0,0,0,284.054-8.675Zm3.322,7.849a1,1,0,0,1,.272-.716.987.987,0,0,1,.7-.3.952.952,0,0,1,.712.264.908.908,0,0,1,.272.7.95.95,0,0,1-.29.7,1.046,1.046,0,0,1-.7.286,1.006,1.006,0,0,1-.391-.057.863.863,0,0,1-.308-.189.846.846,0,0,1-.2-.3A1.032,1.032,0,0,1,287.376-.826Zm7.655-1.731q-.114.519-.149.822a4.809,4.809,0,0,0-.035.549.686.686,0,0,0,.2.558,1.2,1.2,0,0,0,.664.2l-.1.431H292.1l.1-.431a1.2,1.2,0,0,0,.5-.171.949.949,0,0,0,.281-.33,3,3,0,0,0,.211-.514q.1-.3.29-1.173l1.494-6.768a6.929,6.929,0,0,0,.193-1.415.694.694,0,0,0-.207-.576,1.175,1.175,0,0,0-.655-.189l.1-.431h3.516l-.1.431a1.635,1.635,0,0,0-.479.158.826.826,0,0,0-.259.264,2.493,2.493,0,0,0-.237.549q-.123.374-.308,1.217Zm8.191-2.584a17.339,17.339,0,0,1-.352,1.771,15.653,15.653,0,0,1-.571,1.8,15.5,15.5,0,0,1-.8,1.74,11.191,11.191,0,0,1-1.028,1.591A9.487,9.487,0,0,1,299.2,3.116a7.3,7.3,0,0,1-1.529,1.024l-.246-1.011a8.407,8.407,0,0,0,1.67-1.666A11.27,11.27,0,0,0,300.3-.554a13.909,13.909,0,0,0,.817-2.232,20.594,20.594,0,0,0,.492-2.312l.018-.132q.088-.624.149-1.345t.053-1.477a14.045,14.045,0,0,0-.1-1.521,8.858,8.858,0,0,0-.3-1.472,6.405,6.405,0,0,0-.558-1.323,4.4,4.4,0,0,0-.866-1.09l.413-.984a5.407,5.407,0,0,1,1.2,1.138,7.107,7.107,0,0,1,.853,1.424,8.981,8.981,0,0,1,.549,1.617,12.615,12.615,0,0,1,.286,1.709,13.956,13.956,0,0,1,.062,1.709,14.3,14.3,0,0,1-.127,1.6ZM317.2-5.625l-2.408.492L316.459-3l-.967.668-1.371-2.329-1.389,2.329L311.766-3l1.67-2.136-2.426-.492.4-1.1,2.3.87-.2-2.672h1.213l-.2,2.672,2.312-.87Zm8.376-.817,1.74-6.354h6.381l-.272,1.5h-5l-1.055,3.5a3.927,3.927,0,0,1,1.011-.422,4.024,4.024,0,0,1,1.09-.132,2.994,2.994,0,0,1,1.5.369,2.9,2.9,0,0,1,1,.949,3.721,3.721,0,0,1,.519,1.34,5.415,5.415,0,0,1,.062,1.542,5.622,5.622,0,0,1-.439,1.736,4.477,4.477,0,0,1-.936,1.389,4.148,4.148,0,0,1-1.38.91,4.325,4.325,0,0,1-1.771.3A3.792,3.792,0,0,1,326.593-.1a3.076,3.076,0,0,1-1.059-.738,3.3,3.3,0,0,1-.672-1.116,4.381,4.381,0,0,1-.255-1.419h1.485a3.27,3.27,0,0,0,.145.875,2.124,2.124,0,0,0,.369.7,1.728,1.728,0,0,0,.611.475,2.114,2.114,0,0,0,.879.185,2.4,2.4,0,0,0,1.143-.229,2.667,2.667,0,0,0,.861-.668,3.306,3.306,0,0,0,.571-.971,4.446,4.446,0,0,0,.272-1.129,3.547,3.547,0,0,0-.018-1,2.44,2.44,0,0,0-.308-.87,1.817,1.817,0,0,0-.624-.624,1.956,1.956,0,0,0-.976-.259,2.679,2.679,0,0,0-1.143.2,4.657,4.657,0,0,0-.993.593Zm16.831.976q-.105.694-.272,1.384a9.734,9.734,0,0,1-.422,1.327,6.4,6.4,0,0,1-.615,1.178,4.166,4.166,0,0,1-.857.94,3.637,3.637,0,0,1-1.143.615,4.319,4.319,0,0,1-1.463.2A3.416,3.416,0,0,1,336.3-.092a2.694,2.694,0,0,1-.923-.668,3.017,3.017,0,0,1-.571-.967,5.327,5.327,0,0,1-.281-1.169,7.947,7.947,0,0,1-.057-1.274q.022-.655.1-1.288l.29-1.951a13.964,13.964,0,0,1,.264-1.38,9.064,9.064,0,0,1,.426-1.314,6.273,6.273,0,0,1,.624-1.16,4.082,4.082,0,0,1,.861-.918,3.742,3.742,0,0,1,1.134-.6,4.322,4.322,0,0,1,1.455-.193,3.567,3.567,0,0,1,1.34.259,2.644,2.644,0,0,1,.927.65,2.934,2.934,0,0,1,.571.949,5.172,5.172,0,0,1,.281,1.151A7.806,7.806,0,0,1,342.8-8.7q-.022.655-.1,1.288ZM341.156-7.7q.044-.369.083-.8a7.592,7.592,0,0,0,.031-.857,4.582,4.582,0,0,0-.092-.835,2.29,2.29,0,0,0-.277-.725,1.5,1.5,0,0,0-.523-.519,1.73,1.73,0,0,0-.839-.215,2.452,2.452,0,0,0-.967.145,2.27,2.27,0,0,0-.738.457,2.952,2.952,0,0,0-.545.69,5.025,5.025,0,0,0-.387.844,7.479,7.479,0,0,0-.259.918q-.1.47-.163.91l-.369,2.487q-.044.352-.083.787a7.96,7.96,0,0,0-.031.879,4.876,4.876,0,0,0,.092.861,2.445,2.445,0,0,0,.277.751,1.591,1.591,0,0,0,.519.545,1.614,1.614,0,0,0,.835.229,2.238,2.238,0,0,0,.976-.149,2.377,2.377,0,0,0,.738-.479,2.984,2.984,0,0,0,.545-.716,5.462,5.462,0,0,0,.387-.875,7.5,7.5,0,0,0,.255-.936q.1-.475.158-.905Zm8.42-2.628a3.352,3.352,0,0,1,.29-1.055,2.824,2.824,0,0,1,.6-.853,2.726,2.726,0,0,1,.866-.562,2.71,2.71,0,0,1,1.081-.193,2.373,2.373,0,0,1,.989.233,2.174,2.174,0,0,1,.729.576,2.31,2.31,0,0,1,.431.835,2.941,2.941,0,0,1,.1,1.011l-.053.677a3.3,3.3,0,0,1-.29,1.042,2.881,2.881,0,0,1-.6.848,2.674,2.674,0,0,1-.861.563,2.585,2.585,0,0,1-1.072.185,2.313,2.313,0,0,1-.993-.224,2.186,2.186,0,0,1-.734-.571,2.376,2.376,0,0,1-.439-.831,2.8,2.8,0,0,1-.11-1.011Zm1.125.686a2.43,2.43,0,0,0,.031.567,1.391,1.391,0,0,0,.18.492,1.088,1.088,0,0,0,.356.356,1.087,1.087,0,0,0,.558.149,1.315,1.315,0,0,0,.615-.123,1.565,1.565,0,0,0,.475-.352,1.78,1.78,0,0,0,.325-.505,2.322,2.322,0,0,0,.167-.6l.079-.686a2.15,2.15,0,0,0-.022-.567,1.541,1.541,0,0,0-.176-.5,1.022,1.022,0,0,0-.352-.365,1.087,1.087,0,0,0-.558-.149,1.341,1.341,0,0,0-.62.123,1.549,1.549,0,0,0-.479.352,1.838,1.838,0,0,0-.33.51,2.28,2.28,0,0,0-.171.606Zm3.674,6.513a3.128,3.128,0,0,1,.286-1.055,2.93,2.93,0,0,1,.6-.853,2.6,2.6,0,0,1,.866-.558,2.768,2.768,0,0,1,1.077-.189,2.45,2.45,0,0,1,.993.229,2.115,2.115,0,0,1,.734.571,2.366,2.366,0,0,1,.435.835,2.871,2.871,0,0,1,.105,1.011l-.062.686a3.3,3.3,0,0,1-.29,1.05,2.881,2.881,0,0,1-.6.848,2.674,2.674,0,0,1-.861.563,2.585,2.585,0,0,1-1.072.185,2.3,2.3,0,0,1-1-.224,2.22,2.22,0,0,1-.734-.576,2.328,2.328,0,0,1-.439-.835,2.871,2.871,0,0,1-.105-1.011Zm1.125.694a2.477,2.477,0,0,0,.031.571,1.437,1.437,0,0,0,.18.5,1.035,1.035,0,0,0,.356.356,1.116,1.116,0,0,0,.558.145,1.351,1.351,0,0,0,.615-.119,1.474,1.474,0,0,0,.475-.352,1.825,1.825,0,0,0,.325-.514,2.386,2.386,0,0,0,.167-.606l.079-.694a2.15,2.15,0,0,0-.022-.567,1.481,1.481,0,0,0-.18-.5,1.023,1.023,0,0,0-.356-.36,1.1,1.1,0,0,0-.549-.145,1.378,1.378,0,0,0-.62.119,1.491,1.491,0,0,0-.479.347,1.838,1.838,0,0,0-.33.51,2.28,2.28,0,0,0-.171.606Zm-4.535,1.45-.87-.633,7.743-9.914.87.624ZM10.477,13.311l-.527,2.382H9.105a2.718,2.718,0,0,0-.47-1.56,1.587,1.587,0,0,0-1.288-.479,2.977,2.977,0,0,0-2.254,1.213,8.791,8.791,0,0,0-1.648,3.2,12.738,12.738,0,0,0-.606,3.7,3.291,3.291,0,0,0,.475,1.969,1.706,1.706,0,0,0,1.459.633,3.076,3.076,0,0,0,1.151-.2,2.553,2.553,0,0,0,.923-.668A5.793,5.793,0,0,0,7.7,22.188h.844l-.536,2.5a12.8,12.8,0,0,1-3.445.457,3.222,3.222,0,0,1-2.514-.949,4,4,0,0,1-.861-2.777,11.476,11.476,0,0,1,.461-2.979,10.2,10.2,0,0,1,1.305-2.962,6.046,6.046,0,0,1,2-1.942,4.954,4.954,0,0,1,2.531-.668,10.567,10.567,0,0,1,1.481.1A10.125,10.125,0,0,1,10.477,13.311Zm7.813,3.718.809-.58.563.141-1.292,5.572a6.189,6.189,0,0,0-.193,1.3.886.886,0,0,0,.114.51.414.414,0,0,0,.36.158.978.978,0,0,0,.563-.215,6.176,6.176,0,0,0,.844-.822l.5.492a7.649,7.649,0,0,1-1.349,1.2A2.205,2.205,0,0,1,18,25.141a1.114,1.114,0,0,1-.87-.36,1.376,1.376,0,0,1-.325-.958,2.962,2.962,0,0,1,.2-1.028l-.114-.035a7.75,7.75,0,0,1-1.6,1.8,2.61,2.61,0,0,1-1.6.571,1.746,1.746,0,0,1-1.5-.729,3.426,3.426,0,0,1-.532-2.048,7.34,7.34,0,0,1,.593-2.9,5.373,5.373,0,0,1,1.63-2.2,3.68,3.68,0,0,1,2.312-.8,4.285,4.285,0,0,1,1.068.127A3.733,3.733,0,0,1,18.29,17.028Zm-.773,2.619a5.547,5.547,0,0,0,.105-.624q.026-.264.026-.571a1.437,1.437,0,0,0-.29-.993,1.289,1.289,0,0,0-.984-.316,2.233,2.233,0,0,0-1.626.729,4.924,4.924,0,0,0-1.125,1.956,7.777,7.777,0,0,0-.4,2.448,2.909,2.909,0,0,0,.25,1.367.882.882,0,0,0,.839.453,1.7,1.7,0,0,0,1.138-.5A6.972,6.972,0,0,0,16.6,22.166a6.229,6.229,0,0,0,.839-2.14Zm7.154-.932A7.324,7.324,0,0,1,26.328,17a2.829,2.829,0,0,1,1.613-.545,5,5,0,0,1,1.072.1l-.422,1.969h-.905a2.034,2.034,0,0,0-.149-.571.633.633,0,0,0-.229-.281.641.641,0,0,0-.334-.079,1.2,1.2,0,0,0-.69.272,4.722,4.722,0,0,0-.839.853,6.756,6.756,0,0,0-.743,1.116,5.713,5.713,0,0,0-.461,1.362L23.405,25H21.885l1.274-5.572a8.229,8.229,0,0,0,.158-.817,4.147,4.147,0,0,0,.035-.483.886.886,0,0,0-.114-.51.414.414,0,0,0-.36-.158.983.983,0,0,0-.576.224,6.308,6.308,0,0,0-.831.813l-.5-.492a8.449,8.449,0,0,1,1.354-1.2,2.156,2.156,0,0,1,1.2-.356,1.1,1.1,0,0,1,.875.365,1.391,1.391,0,0,1,.321.954,2.675,2.675,0,0,1-.167.905Zm6.812,7.04a2.945,2.945,0,0,0-.281.4,1.559,1.559,0,0,0-.163.382,1.751,1.751,0,0,0-.048.439,1.058,1.058,0,0,0,.475.962,2.7,2.7,0,0,0,1.433.3,2.836,2.836,0,0,0,1.736-.488,3.756,3.756,0,0,0,1.121-1.569,17.536,17.536,0,0,0,.905-3.27l-.123-.026A7.885,7.885,0,0,1,34.954,24.6a2.6,2.6,0,0,1-1.573.536,1.745,1.745,0,0,1-1.49-.721,3.419,3.419,0,0,1-.532-2.057,7.3,7.3,0,0,1,.589-2.887,5.416,5.416,0,0,1,1.635-2.2,3.691,3.691,0,0,1,2.329-.817,4.028,4.028,0,0,1,1.046.132,3.622,3.622,0,0,1,.993.448l.809-.58.563.141-.905,4.1q-.1.431-.439,2.171-.36,1.846-.584,2.61a7.39,7.39,0,0,1-.558,1.393,3.872,3.872,0,0,1-.861,1.094,3.7,3.7,0,0,1-1.279.721,5.556,5.556,0,0,1-1.78.255q-3.322,0-3.322-1.934a1.473,1.473,0,0,1,.3-.9,3.95,3.95,0,0,1,.958-.853ZM34,24.095a1.556,1.556,0,0,0,.892-.308,4.443,4.443,0,0,0,.949-.976,7.077,7.077,0,0,0,.787-1.274,7.374,7.374,0,0,0,.479-1.512,7.515,7.515,0,0,0,.2-1.573,1.434,1.434,0,0,0-.29-1,1.273,1.273,0,0,0-.967-.312,2.2,2.2,0,0,0-1.608.725,4.983,4.983,0,0,0-1.121,1.956,7.741,7.741,0,0,0-.409,2.452,2.784,2.784,0,0,0,.264,1.367A.888.888,0,0,0,34,24.095Zm13.887-7.066.809-.58.563.141-1.292,5.572a6.189,6.189,0,0,0-.193,1.3.886.886,0,0,0,.114.51.414.414,0,0,0,.36.158.978.978,0,0,0,.563-.215,6.176,6.176,0,0,0,.844-.822l.5.492a7.649,7.649,0,0,1-1.349,1.2,2.205,2.205,0,0,1-1.208.356,1.114,1.114,0,0,1-.87-.36,1.376,1.376,0,0,1-.325-.958,2.962,2.962,0,0,1,.2-1.028l-.114-.035a7.75,7.75,0,0,1-1.6,1.8,2.61,2.61,0,0,1-1.6.571,1.746,1.746,0,0,1-1.5-.729,3.426,3.426,0,0,1-.532-2.048,7.34,7.34,0,0,1,.593-2.9,5.373,5.373,0,0,1,1.63-2.2,3.68,3.68,0,0,1,2.312-.8,4.285,4.285,0,0,1,1.068.127A3.733,3.733,0,0,1,47.892,17.028Zm-.773,2.619a5.547,5.547,0,0,0,.105-.624q.026-.264.026-.571a1.437,1.437,0,0,0-.29-.993,1.289,1.289,0,0,0-.984-.316,2.233,2.233,0,0,0-1.626.729,4.924,4.924,0,0,0-1.125,1.956,7.777,7.777,0,0,0-.4,2.448,2.909,2.909,0,0,0,.25,1.367.882.882,0,0,0,.839.453,1.7,1.7,0,0,0,1.138-.5A6.972,6.972,0,0,0,46.2,22.166a6.229,6.229,0,0,0,.839-2.14Zm10.072-.193a6.217,6.217,0,0,0,.185-1.327.886.886,0,0,0-.114-.51.414.414,0,0,0-.36-.158.983.983,0,0,0-.576.224,6.308,6.308,0,0,0-.831.813l-.5-.492a8.58,8.58,0,0,1,1.34-1.191,2.154,2.154,0,0,1,1.217-.365,1.1,1.1,0,0,1,.866.36,1.387,1.387,0,0,1,.321.958,2.982,2.982,0,0,1-.2,1.037l.105.035q1.626-2.382,3.234-2.382a1.738,1.738,0,0,1,1.49.729,3.443,3.443,0,0,1,.532,2.057,7.35,7.35,0,0,1-.584,2.852,5.434,5.434,0,0,1-1.622,2.224,3.643,3.643,0,0,1-2.32.822,3.459,3.459,0,0,1-1.942-.51l-.4,1.925a5.173,5.173,0,0,0-.132,1.028.674.674,0,0,0,.2.549,1.506,1.506,0,0,0,.769.215l-.07.431H55.072Zm.888,2.487q-.088.466-.11.712t-.022.483a1.419,1.419,0,0,0,.294,1,1.357,1.357,0,0,0,1.015.312,1.935,1.935,0,0,0,.826-.176,2.562,2.562,0,0,0,.716-.51,3.751,3.751,0,0,0,.611-.809,6.354,6.354,0,0,0,.488-1.1,8.019,8.019,0,0,0,.325-1.292,7.636,7.636,0,0,0,.11-1.244,2.847,2.847,0,0,0-.259-1.375.878.878,0,0,0-.822-.453,1.532,1.532,0,0,0-.883.3,4.687,4.687,0,0,0-.954.971,6.455,6.455,0,0,0-.809,1.318,7.012,7.012,0,0,0-.457,1.494Zm10.644-3.226A7.324,7.324,0,0,1,70.378,17a2.829,2.829,0,0,1,1.613-.545,5,5,0,0,1,1.072.1l-.422,1.969h-.905a2.034,2.034,0,0,0-.149-.571.633.633,0,0,0-.229-.281.641.641,0,0,0-.334-.079,1.2,1.2,0,0,0-.69.272,4.722,4.722,0,0,0-.839.853,6.756,6.756,0,0,0-.743,1.116,5.713,5.713,0,0,0-.461,1.362L67.456,25H65.936l1.274-5.572a8.229,8.229,0,0,0,.158-.817,4.147,4.147,0,0,0,.035-.483.886.886,0,0,0-.114-.51.414.414,0,0,0-.36-.158.983.983,0,0,0-.576.224,6.308,6.308,0,0,0-.831.813l-.5-.492a8.449,8.449,0,0,1,1.354-1.2,2.156,2.156,0,0,1,1.2-.356,1.1,1.1,0,0,1,.875.365,1.391,1.391,0,0,1,.321.954,2.675,2.675,0,0,1-.167.905Zm12.015,4.535a6.681,6.681,0,0,1-1.727,1.415,4.2,4.2,0,0,1-2.035.475A2.515,2.515,0,0,1,75,24.363a3.127,3.127,0,0,1-.7-2.167,6.746,6.746,0,0,1,.338-2.017,5.894,5.894,0,0,1,1.024-1.934,4.786,4.786,0,0,1,1.644-1.327,4.567,4.567,0,0,1,2.039-.47,2.5,2.5,0,0,1,1.6.431,1.629,1.629,0,0,1,.532,1.345,2.4,2.4,0,0,1-1.4,2.241,9.106,9.106,0,0,1-4.162.747,5.828,5.828,0,0,0-.105,1.143,2.032,2.032,0,0,0,.36,1.34,1.48,1.48,0,0,0,1.178.417,3.044,3.044,0,0,0,1.463-.352,6.114,6.114,0,0,0,1.384-1.081Zm-4.676-2.786a9.416,9.416,0,0,0,2.127-.224,2.846,2.846,0,0,0,1.362-.686,1.707,1.707,0,0,0,.475-1.27,1.281,1.281,0,0,0-.25-.839.908.908,0,0,0-.743-.3,2.345,2.345,0,0,0-1.709.9A5.972,5.972,0,0,0,76.061,20.465Zm12.876-1.731a1.923,1.923,0,0,0-.514-1.187,1.833,1.833,0,0,0-1.314-.4,1.708,1.708,0,0,0-1.125.356,1.155,1.155,0,0,0-.431.936,1.336,1.336,0,0,0,.11.558,1.69,1.69,0,0,0,.444.532,7.729,7.729,0,0,0,1.037.712,7.428,7.428,0,0,1,.888.611,2.946,2.946,0,0,1,.527.549,1.909,1.909,0,0,1,.281.576,2.664,2.664,0,0,1,.088.734,2.174,2.174,0,0,1-.417,1.34,2.476,2.476,0,0,1-1.134.831,4.562,4.562,0,0,1-1.63.272,9.266,9.266,0,0,1-1.433-.11,11.435,11.435,0,0,1-1.564-.374l.422-1.916h.686a1.82,1.82,0,0,0,.475,1.274,1.937,1.937,0,0,0,1.4.431,2.047,2.047,0,0,0,1.305-.374,1.274,1.274,0,0,0,.47-1.059,1.614,1.614,0,0,0-.132-.681,1.692,1.692,0,0,0-.431-.549,7.072,7.072,0,0,0-.949-.659,7.706,7.706,0,0,1-1.068-.747,2.355,2.355,0,0,1-.576-.725,2.008,2.008,0,0,1-.193-.9,2.04,2.04,0,0,1,.374-1.217,2.359,2.359,0,0,1,1.068-.8,4.287,4.287,0,0,1,1.617-.281,10.516,10.516,0,0,1,1.49.1,6.954,6.954,0,0,1,1.34.334l-.4,1.846Zm7.8,4.605A6.352,6.352,0,0,1,95.26,24.7a2.765,2.765,0,0,1-1.481.439,1.631,1.631,0,0,1-1.837-1.854,5.538,5.538,0,0,1,.149-1.239l1.037-4.562H91.652l.132-.606a3.548,3.548,0,0,0,.787-.079,1.437,1.437,0,0,0,.448-.193,1.235,1.235,0,0,0,.33-.352,3.284,3.284,0,0,0,.29-.584q.141-.356.422-1.244h1.213L94.79,16.6h2.672l-.193.888H94.6l-.782,3.41q-.229.993-.29,1.428a5.241,5.241,0,0,0-.062.7q0,1.09.905,1.09a1.483,1.483,0,0,0,.822-.294,5.516,5.516,0,0,0,1.033-1.006Zm8.543-6.311.809-.58.563.141-1.292,5.572a6.189,6.189,0,0,0-.193,1.3.886.886,0,0,0,.114.51.414.414,0,0,0,.36.158.978.978,0,0,0,.563-.215,6.176,6.176,0,0,0,.844-.822l.5.492a7.649,7.649,0,0,1-1.349,1.2,2.205,2.205,0,0,1-1.208.356,1.114,1.114,0,0,1-.87-.36,1.376,1.376,0,0,1-.325-.958,2.962,2.962,0,0,1,.2-1.028l-.114-.035a7.75,7.75,0,0,1-1.6,1.8,2.61,2.61,0,0,1-1.6.571,1.746,1.746,0,0,1-1.5-.729,3.426,3.426,0,0,1-.532-2.048,7.34,7.34,0,0,1,.593-2.9,5.373,5.373,0,0,1,1.63-2.2,3.68,3.68,0,0,1,2.312-.8,4.285,4.285,0,0,1,1.068.127A3.733,3.733,0,0,1,105.275,17.028Zm-.773,2.619a5.547,5.547,0,0,0,.105-.624q.026-.264.026-.571a1.437,1.437,0,0,0-.29-.993,1.289,1.289,0,0,0-.984-.316,2.233,2.233,0,0,0-1.626.729,4.924,4.924,0,0,0-1.125,1.956,7.777,7.777,0,0,0-.4,2.448,2.909,2.909,0,0,0,.25,1.367.882.882,0,0,0,.839.453,1.7,1.7,0,0,0,1.138-.5,6.972,6.972,0,0,0,1.151-1.428,6.229,6.229,0,0,0,.839-2.14Zm9.87-.94a3.961,3.961,0,0,0-.11-.967.835.835,0,0,0-.3-.448.985.985,0,0,0-.584-.149,2.2,2.2,0,0,0-1.6.708,5.188,5.188,0,0,0-1.156,2,7.615,7.615,0,0,0-.448,2.492,2.1,2.1,0,0,0,.352,1.332,1.275,1.275,0,0,0,1.055.435,2.969,2.969,0,0,0,1.384-.3,5.183,5.183,0,0,0,1.235-.954l.536.536a5.833,5.833,0,0,1-1.666,1.336,3.966,3.966,0,0,1-1.806.422,2.428,2.428,0,0,1-1.934-.756,3.249,3.249,0,0,1-.659-2.2,6.971,6.971,0,0,1,.352-2.065,6.046,6.046,0,0,1,1.028-1.978,4.368,4.368,0,0,1,1.582-1.274,4.522,4.522,0,0,1,1.934-.422,8.307,8.307,0,0,1,2.153.264l-.431,1.986ZM121,13.152l-.4,1.705h-1.556l.4-1.705Zm-2.83,5.924a6.492,6.492,0,0,0,.2-1.318.634.634,0,0,0-.189-.536,1.426,1.426,0,0,0-.743-.158l.1-.466,2.145-.079h.519l-1.266,5.643a6.516,6.516,0,0,0-.193,1.3.886.886,0,0,0,.114.51.414.414,0,0,0,.36.158.978.978,0,0,0,.563-.215,6.176,6.176,0,0,0,.844-.822l.5.492a7.669,7.669,0,0,1-1.4,1.23,2.276,2.276,0,0,1-1.2.325,1.123,1.123,0,0,1-.914-.417,1.628,1.628,0,0,1-.343-1.068,7.7,7.7,0,0,1,.246-1.705Zm7.4,6.073a2.829,2.829,0,0,1-2.114-.765,3.005,3.005,0,0,1-.751-2.2,7.411,7.411,0,0,1,.211-1.626,6.088,6.088,0,0,1,.914-2.18,4.406,4.406,0,0,1,1.582-1.428,4.355,4.355,0,0,1,2.065-.5,2.836,2.836,0,0,1,2.145.769,3.054,3.054,0,0,1,.738,2.2,7.448,7.448,0,0,1-.356,2.18,5.971,5.971,0,0,1-.976,1.951,4.014,4.014,0,0,1-1.481,1.191A4.647,4.647,0,0,1,125.569,25.149Zm-1.327-2.584a2.142,2.142,0,0,0,.4,1.428,1.513,1.513,0,0,0,1.208.461,1.981,1.981,0,0,0,1.529-.773,5.561,5.561,0,0,0,1.055-2.167,9.31,9.31,0,0,0,.387-2.448,2.317,2.317,0,0,0-.369-1.428,1.362,1.362,0,0,0-1.151-.479,2.077,2.077,0,0,0-1.6.765,5.416,5.416,0,0,0-1.072,2.188A9.48,9.48,0,0,0,124.242,22.565Zm9.483-3.138a6.3,6.3,0,0,0,.193-1.3.886.886,0,0,0-.114-.51.414.414,0,0,0-.36-.158.983.983,0,0,0-.576.224,6.308,6.308,0,0,0-.831.813l-.5-.492a8.725,8.725,0,0,1,1.345-1.2,2.143,2.143,0,0,1,1.213-.356,1.1,1.1,0,0,1,.875.365,1.391,1.391,0,0,1,.321.954,3.025,3.025,0,0,1-.211,1.037l.105.035a8.131,8.131,0,0,1,1.639-1.8,2.642,2.642,0,0,1,1.6-.584,1.636,1.636,0,0,1,1.257.47,1.837,1.837,0,0,1,.439,1.305,7.017,7.017,0,0,1-.255,1.573l-.571,2.3a6.607,6.607,0,0,0-.237,1.354.886.886,0,0,0,.114.51.414.414,0,0,0,.36.158.978.978,0,0,0,.563-.215,6.176,6.176,0,0,0,.844-.822l.5.492a7.951,7.951,0,0,1-1.318,1.182,2.266,2.266,0,0,1-1.283.374,1.133,1.133,0,0,1-.914-.409,1.565,1.565,0,0,1-.343-1.042,7.271,7.271,0,0,1,.29-1.679l.387-1.521q.211-.826.277-1.222a4.081,4.081,0,0,0,.066-.642,1.474,1.474,0,0,0-.2-.875.772.772,0,0,0-.659-.268,1.424,1.424,0,0,0-.8.294,4.535,4.535,0,0,0-.905.888,6.967,6.967,0,0,0-.769,1.151,5.738,5.738,0,0,0-.475,1.375L133.963,25h-1.521Zm15.478-2.4.809-.58.563.141-1.292,5.572a6.189,6.189,0,0,0-.193,1.3.886.886,0,0,0,.114.51.414.414,0,0,0,.36.158.978.978,0,0,0,.563-.215,6.176,6.176,0,0,0,.844-.822l.5.492a7.649,7.649,0,0,1-1.349,1.2,2.205,2.205,0,0,1-1.208.356,1.114,1.114,0,0,1-.87-.36,1.376,1.376,0,0,1-.325-.958,2.962,2.962,0,0,1,.2-1.028l-.114-.035a7.75,7.75,0,0,1-1.6,1.8,2.61,2.61,0,0,1-1.6.571,1.746,1.746,0,0,1-1.5-.729,3.426,3.426,0,0,1-.532-2.048,7.34,7.34,0,0,1,.593-2.9,5.373,5.373,0,0,1,1.63-2.2,3.68,3.68,0,0,1,2.312-.8,4.285,4.285,0,0,1,1.068.127A3.733,3.733,0,0,1,149.2,17.028Zm-.773,2.619a5.547,5.547,0,0,0,.105-.624q.026-.264.026-.571a1.437,1.437,0,0,0-.29-.993,1.289,1.289,0,0,0-.984-.316,2.233,2.233,0,0,0-1.626.729,4.924,4.924,0,0,0-1.125,1.956,7.777,7.777,0,0,0-.4,2.448,2.909,2.909,0,0,0,.25,1.367.882.882,0,0,0,.839.453,1.7,1.7,0,0,0,1.138-.5,6.972,6.972,0,0,0,1.151-1.428,6.229,6.229,0,0,0,.839-2.14Zm6.284-4.737q.105-.466.149-.743a3.294,3.294,0,0,0,.044-.514.689.689,0,0,0-.1-.4.542.542,0,0,0-.277-.2,2.776,2.776,0,0,0-.646-.088l.105-.457,2.215-.079h.519l-2.162,9.729a6.633,6.633,0,0,0-.193,1.3.886.886,0,0,0,.114.51.414.414,0,0,0,.36.158.978.978,0,0,0,.563-.215,6.176,6.176,0,0,0,.844-.822l.5.492a7.666,7.666,0,0,1-1.393,1.226,2.275,2.275,0,0,1-1.208.33,1.123,1.123,0,0,1-.914-.417,1.628,1.628,0,0,1-.343-1.068,8.612,8.612,0,0,1,.246-1.705Zm15.8,2.936H163.4l.246-1.415h7.128Zm-.633,3.647h-7.119l.246-1.406h7.128Zm7.1-1.652a16.624,16.624,0,0,1,.356-1.771,17.177,17.177,0,0,1,.571-1.806,14.809,14.809,0,0,1,.791-1.745,11.406,11.406,0,0,1,1.028-1.6,9.314,9.314,0,0,1,1.274-1.354,7.2,7.2,0,0,1,1.534-1.02l.237,1.09A8.312,8.312,0,0,0,181.1,13.3a11.346,11.346,0,0,0-1.208,2,13.617,13.617,0,0,0-.817,2.206,19.972,19.972,0,0,0-.492,2.3l-.018.132q-.1.633-.154,1.354t-.053,1.477a13.092,13.092,0,0,0,.1,1.512,8.764,8.764,0,0,0,.3,1.459,6.543,6.543,0,0,0,.558,1.323,4.271,4.271,0,0,0,.875,1.094l-.4.984a5.359,5.359,0,0,1-1.2-1.143,7.44,7.44,0,0,1-.857-1.424,8.652,8.652,0,0,1-.554-1.613,12.629,12.629,0,0,1-.286-1.705,13.814,13.814,0,0,1-.062-1.7,14.55,14.55,0,0,1,.127-1.608ZM187.225,25h-1.6l1.881-10.793-3.4,1.2.272-1.547,4.746-1.714h.281Zm5.054-.826a.983.983,0,0,1,.976-1.02.952.952,0,0,1,.712.264.908.908,0,0,1,.272.7.95.95,0,0,1-.29.7,1.046,1.046,0,0,1-.7.286,1.006,1.006,0,0,1-.391-.057.863.863,0,0,1-.308-.189.846.846,0,0,1-.2-.3A1.032,1.032,0,0,1,192.278,24.174ZM204.847,25H196.7l.193-1.239,4.729-4.6q.36-.36.769-.76a9.607,9.607,0,0,0,.769-.848,6.087,6.087,0,0,0,.624-.94,2.99,2.99,0,0,0,.334-1.037,2.545,2.545,0,0,0-.035-.848,1.753,1.753,0,0,0-.316-.7,1.676,1.676,0,0,0-.584-.479,1.982,1.982,0,0,0-.831-.2,2.84,2.84,0,0,0-1.107.171,2.558,2.558,0,0,0-.857.536,2.748,2.748,0,0,0-.593.835,3.671,3.671,0,0,0-.308,1.068l-1.573.009a4.576,4.576,0,0,1,.461-1.635,4.085,4.085,0,0,1,.971-1.257,4.233,4.233,0,0,1,1.384-.8,4.749,4.749,0,0,1,1.683-.259,4.3,4.3,0,0,1,1.384.25,3.151,3.151,0,0,1,1.094.664,2.749,2.749,0,0,1,.69,1.05,3.146,3.146,0,0,1,.163,1.4,3.957,3.957,0,0,1-.352,1.314,6.845,6.845,0,0,1-.712,1.2,10.409,10.409,0,0,1-.918,1.081q-.5.51-.962.958l-3.92,3.727h6.179Zm11.619-11.795L209.514,25h-1.74l6.917-11.461h-6.68l.211-1.336h8.4ZM224.64,25h-8.147l.193-1.239,4.729-4.6q.36-.36.769-.76a9.607,9.607,0,0,0,.769-.848,6.087,6.087,0,0,0,.624-.94,2.99,2.99,0,0,0,.334-1.037,2.545,2.545,0,0,0-.035-.848,1.753,1.753,0,0,0-.316-.7,1.676,1.676,0,0,0-.584-.479,1.982,1.982,0,0,0-.831-.2,2.84,2.84,0,0,0-1.107.171,2.558,2.558,0,0,0-.857.536,2.748,2.748,0,0,0-.593.835,3.671,3.671,0,0,0-.308,1.068l-1.573.009a4.576,4.576,0,0,1,.461-1.635,4.085,4.085,0,0,1,.971-1.257,4.233,4.233,0,0,1,1.384-.8,4.749,4.749,0,0,1,1.683-.259,4.3,4.3,0,0,1,1.384.25,3.151,3.151,0,0,1,1.094.664,2.749,2.749,0,0,1,.69,1.05,3.146,3.146,0,0,1,.163,1.4,3.957,3.957,0,0,1-.352,1.314,6.845,6.845,0,0,1-.712,1.2,10.409,10.409,0,0,1-.918,1.081q-.5.51-.962.958l-3.92,3.727h6.179Zm2.013-.826a.983.983,0,0,1,.976-1.02.952.952,0,0,1,.712.264.908.908,0,0,1,.272.7.95.95,0,0,1-.29.7,1.046,1.046,0,0,1-.7.286,1.006,1.006,0,0,1-.391-.057.863.863,0,0,1-.308-.189.846.846,0,0,1-.2-.3A1.032,1.032,0,0,1,226.652,24.174Zm14.291-10.969L233.991,25h-1.74l6.917-11.461h-6.68L232.7,12.2h8.4Zm9.114,2.259a3.081,3.081,0,0,1-.242.989,3.406,3.406,0,0,1-.505.822,4.072,4.072,0,0,1-.712.668,5.334,5.334,0,0,1-.861.519,3.008,3.008,0,0,1,1.226,1.27,3.252,3.252,0,0,1,.33,1.736,3.917,3.917,0,0,1-.448,1.582,3.807,3.807,0,0,1-.98,1.173,4.271,4.271,0,0,1-1.371.725,4.949,4.949,0,0,1-1.622.229,4.342,4.342,0,0,1-1.446-.268,3.218,3.218,0,0,1-1.134-.712,3,3,0,0,1-.712-1.112,3.351,3.351,0,0,1-.171-1.468,3.508,3.508,0,0,1,.268-1.094,3.465,3.465,0,0,1,.567-.9,4.277,4.277,0,0,1,.8-.716,5.748,5.748,0,0,1,.98-.541,2.909,2.909,0,0,1-1.015-1.2,3.038,3.038,0,0,1-.259-1.547,3.939,3.939,0,0,1,.4-1.5,3.678,3.678,0,0,1,.892-1.147,3.839,3.839,0,0,1,1.27-.716,4.429,4.429,0,0,1,1.538-.229,3.8,3.8,0,0,1,1.367.272,2.992,2.992,0,0,1,1.046.7,2.863,2.863,0,0,1,.637,1.072A3.442,3.442,0,0,1,250.058,15.464Zm-2.338,5.968a2.524,2.524,0,0,0-.057-.91,1.974,1.974,0,0,0-.36-.743,1.763,1.763,0,0,0-.642-.5,2.256,2.256,0,0,0-.892-.2,2.725,2.725,0,0,0-1.033.176,2.6,2.6,0,0,0-.844.523,2.718,2.718,0,0,0-.593.8,3.054,3.054,0,0,0-.29,1.011,2.558,2.558,0,0,0,.053.91,1.775,1.775,0,0,0,.356.708,1.732,1.732,0,0,0,.637.47,2.272,2.272,0,0,0,.888.18,2.81,2.81,0,0,0,1.037-.154,2.57,2.57,0,0,0,.848-.492,2.606,2.606,0,0,0,.6-.773A2.873,2.873,0,0,0,247.72,21.432Zm.738-5.941a2.409,2.409,0,0,0-.044-.8,1.826,1.826,0,0,0-.3-.672,1.583,1.583,0,0,0-.549-.47,1.813,1.813,0,0,0-.782-.193,2.382,2.382,0,0,0-.932.163A2.268,2.268,0,0,0,245.1,14a2.467,2.467,0,0,0-.519.738,2.891,2.891,0,0,0-.25.91,2.453,2.453,0,0,0,.044.809,1.744,1.744,0,0,0,.3.664,1.569,1.569,0,0,0,.554.457,1.819,1.819,0,0,0,.8.18,2.3,2.3,0,0,0,1.666-.642,2.443,2.443,0,0,0,.519-.725A2.8,2.8,0,0,0,248.458,15.49Zm11.083,4.043q-.105.694-.272,1.384a9.734,9.734,0,0,1-.422,1.327,6.4,6.4,0,0,1-.615,1.178,4.166,4.166,0,0,1-.857.94,3.637,3.637,0,0,1-1.143.615,4.319,4.319,0,0,1-1.463.2,3.416,3.416,0,0,1-1.336-.268,2.694,2.694,0,0,1-.923-.668,3.017,3.017,0,0,1-.571-.967,5.327,5.327,0,0,1-.281-1.169,7.947,7.947,0,0,1-.057-1.274q.022-.655.1-1.288l.29-1.951a13.964,13.964,0,0,1,.264-1.38,9.064,9.064,0,0,1,.426-1.314,6.273,6.273,0,0,1,.624-1.16,4.082,4.082,0,0,1,.861-.918,3.742,3.742,0,0,1,1.134-.6,4.322,4.322,0,0,1,1.455-.193,3.567,3.567,0,0,1,1.34.259,2.644,2.644,0,0,1,.927.65,2.934,2.934,0,0,1,.571.949,5.172,5.172,0,0,1,.281,1.151,7.806,7.806,0,0,1,.057,1.266q-.022.655-.1,1.288ZM258.293,17.3q.044-.369.083-.8a7.592,7.592,0,0,0,.031-.857,4.582,4.582,0,0,0-.092-.835,2.29,2.29,0,0,0-.277-.725,1.5,1.5,0,0,0-.523-.519,1.73,1.73,0,0,0-.839-.215,2.452,2.452,0,0,0-.967.145,2.27,2.27,0,0,0-.738.457,2.952,2.952,0,0,0-.545.69,5.025,5.025,0,0,0-.387.844,7.479,7.479,0,0,0-.259.918q-.1.47-.163.91l-.369,2.487q-.044.352-.083.787a7.96,7.96,0,0,0-.031.879,4.876,4.876,0,0,0,.092.861,2.445,2.445,0,0,0,.277.751,1.591,1.591,0,0,0,.519.545,1.614,1.614,0,0,0,.835.229,2.238,2.238,0,0,0,.976-.149,2.377,2.377,0,0,0,.738-.479,2.984,2.984,0,0,0,.545-.716,5.462,5.462,0,0,0,.387-.875,7.5,7.5,0,0,0,.255-.936q.1-.475.158-.905Zm2.733,6.873a.983.983,0,0,1,.976-1.02.952.952,0,0,1,.712.264.908.908,0,0,1,.272.7.95.95,0,0,1-.29.7,1.046,1.046,0,0,1-.7.286,1.006,1.006,0,0,1-.391-.057.863.863,0,0,1-.308-.189.846.846,0,0,1-.2-.3A1.032,1.032,0,0,1,261.026,24.174Zm13.1-4.641q-.105.694-.272,1.384a9.734,9.734,0,0,1-.422,1.327,6.4,6.4,0,0,1-.615,1.178,4.166,4.166,0,0,1-.857.94,3.637,3.637,0,0,1-1.143.615,4.319,4.319,0,0,1-1.463.2,3.416,3.416,0,0,1-1.336-.268,2.694,2.694,0,0,1-.923-.668,3.017,3.017,0,0,1-.571-.967,5.327,5.327,0,0,1-.281-1.169,7.947,7.947,0,0,1-.057-1.274q.022-.655.1-1.288l.29-1.951a13.964,13.964,0,0,1,.264-1.38,9.064,9.064,0,0,1,.426-1.314,6.273,6.273,0,0,1,.624-1.16,4.082,4.082,0,0,1,.861-.918,3.742,3.742,0,0,1,1.134-.6,4.322,4.322,0,0,1,1.455-.193,3.567,3.567,0,0,1,1.34.259,2.644,2.644,0,0,1,.927.65,2.934,2.934,0,0,1,.571.949,5.172,5.172,0,0,1,.281,1.151,7.806,7.806,0,0,1,.057,1.266q-.022.655-.1,1.288ZM272.874,17.3q.044-.369.083-.8a7.592,7.592,0,0,0,.031-.857,4.582,4.582,0,0,0-.092-.835,2.29,2.29,0,0,0-.277-.725,1.5,1.5,0,0,0-.523-.519,1.73,1.73,0,0,0-.839-.215,2.452,2.452,0,0,0-.967.145,2.27,2.27,0,0,0-.738.457,2.952,2.952,0,0,0-.545.69,5.025,5.025,0,0,0-.387.844,7.479,7.479,0,0,0-.259.918q-.1.47-.163.91l-.369,2.487q-.044.352-.083.787a7.96,7.96,0,0,0-.031.879,4.876,4.876,0,0,0,.092.861,2.445,2.445,0,0,0,.277.751,1.591,1.591,0,0,0,.519.545,1.614,1.614,0,0,0,.835.229,2.238,2.238,0,0,0,.976-.149,2.377,2.377,0,0,0,.738-.479,2.984,2.984,0,0,0,.545-.716,5.462,5.462,0,0,0,.387-.875,7.5,7.5,0,0,0,.255-.936q.1-.475.158-.905Zm11.145,2.232q-.105.694-.272,1.384a9.734,9.734,0,0,1-.422,1.327,6.4,6.4,0,0,1-.615,1.178,4.166,4.166,0,0,1-.857.94,3.637,3.637,0,0,1-1.143.615,4.319,4.319,0,0,1-1.463.2,3.416,3.416,0,0,1-1.336-.268,2.694,2.694,0,0,1-.923-.668,3.017,3.017,0,0,1-.571-.967,5.327,5.327,0,0,1-.281-1.169,7.947,7.947,0,0,1-.057-1.274q.022-.655.1-1.288l.29-1.951a13.964,13.964,0,0,1,.264-1.38,9.064,9.064,0,0,1,.426-1.314,6.273,6.273,0,0,1,.624-1.16,4.082,4.082,0,0,1,.861-.918,3.742,3.742,0,0,1,1.134-.6,4.322,4.322,0,0,1,1.455-.193,3.567,3.567,0,0,1,1.34.259,2.644,2.644,0,0,1,.927.65,2.934,2.934,0,0,1,.571.949,5.172,5.172,0,0,1,.281,1.151,7.806,7.806,0,0,1,.057,1.266q-.022.655-.1,1.288ZM282.771,17.3q.044-.369.083-.8a7.592,7.592,0,0,0,.031-.857,4.582,4.582,0,0,0-.092-.835,2.29,2.29,0,0,0-.277-.725,1.5,1.5,0,0,0-.523-.519,1.73,1.73,0,0,0-.839-.215,2.452,2.452,0,0,0-.967.145,2.27,2.27,0,0,0-.738.457,2.952,2.952,0,0,0-.545.69,5.025,5.025,0,0,0-.387.844,7.479,7.479,0,0,0-.259.918q-.1.47-.163.91l-.369,2.487q-.044.352-.083.787a7.96,7.96,0,0,0-.031.879,4.876,4.876,0,0,0,.092.861,2.445,2.445,0,0,0,.277.751,1.591,1.591,0,0,0,.519.545,1.614,1.614,0,0,0,.835.229,2.238,2.238,0,0,0,.976-.149,2.377,2.377,0,0,0,.738-.479,2.984,2.984,0,0,0,.545-.716,5.462,5.462,0,0,0,.387-.875,7.5,7.5,0,0,0,.255-.936q.1-.475.158-.905Zm11.145,2.232q-.105.694-.272,1.384a9.734,9.734,0,0,1-.422,1.327,6.4,6.4,0,0,1-.615,1.178,4.166,4.166,0,0,1-.857.94,3.637,3.637,0,0,1-1.143.615,4.319,4.319,0,0,1-1.463.2,3.416,3.416,0,0,1-1.336-.268,2.694,2.694,0,0,1-.923-.668,3.017,3.017,0,0,1-.571-.967,5.327,5.327,0,0,1-.281-1.169,7.947,7.947,0,0,1-.057-1.274q.022-.655.1-1.288l.29-1.951a13.964,13.964,0,0,1,.264-1.38,9.064,9.064,0,0,1,.426-1.314,6.273,6.273,0,0,1,.624-1.16,4.082,4.082,0,0,1,.861-.918,3.742,3.742,0,0,1,1.134-.6,4.322,4.322,0,0,1,1.455-.193,3.567,3.567,0,0,1,1.34.259,2.644,2.644,0,0,1,.927.65,2.934,2.934,0,0,1,.571.949,5.172,5.172,0,0,1,.281,1.151,7.806,7.806,0,0,1,.057,1.266q-.022.655-.1,1.288ZM292.667,17.3q.044-.369.083-.8a7.592,7.592,0,0,0,.031-.857,4.582,4.582,0,0,0-.092-.835,2.29,2.29,0,0,0-.277-.725,1.5,1.5,0,0,0-.523-.519,1.73,1.73,0,0,0-.839-.215,2.452,2.452,0,0,0-.967.145,2.27,2.27,0,0,0-.738.457,2.952,2.952,0,0,0-.545.69,5.025,5.025,0,0,0-.387.844,7.479,7.479,0,0,0-.259.918q-.1.47-.163.91l-.369,2.487q-.044.352-.083.787a7.96,7.96,0,0,0-.031.879,4.876,4.876,0,0,0,.092.861,2.445,2.445,0,0,0,.277.751,1.591,1.591,0,0,0,.519.545,1.614,1.614,0,0,0,.835.229,2.238,2.238,0,0,0,.976-.149,2.377,2.377,0,0,0,.738-.479,2.984,2.984,0,0,0,.545-.716,5.462,5.462,0,0,0,.387-.875,7.5,7.5,0,0,0,.255-.936q.1-.475.158-.905Zm12.674.835H308.8l-.272,1.538h-3.454l-.7,4.043h-1.6l.7-4.043h-3.463l.272-1.538h3.454l.65-3.735h1.6Zm12.059-.325,1.046.009a3.772,3.772,0,0,0,1.033-.141,2.823,2.823,0,0,0,.892-.426,2.418,2.418,0,0,0,.655-.712,2.478,2.478,0,0,0,.33-1,2.919,2.919,0,0,0-.026-.883,1.657,1.657,0,0,0-.3-.69,1.47,1.47,0,0,0-.58-.453,2.177,2.177,0,0,0-.861-.171,2.739,2.739,0,0,0-.958.145,2.36,2.36,0,0,0-.778.448,2.478,2.478,0,0,0-.558.7,3,3,0,0,0-.308.91l-1.573.009a3.78,3.78,0,0,1,.461-1.477,3.915,3.915,0,0,1,.949-1.125,4.1,4.1,0,0,1,1.31-.708,4.7,4.7,0,0,1,1.534-.233,4.063,4.063,0,0,1,1.428.272,2.961,2.961,0,0,1,1.072.716,2.85,2.85,0,0,1,.642,1.116,3.721,3.721,0,0,1,.136,1.455,2.667,2.667,0,0,1-.264.971,3.548,3.548,0,0,1-.549.809,3.867,3.867,0,0,1-.751.642,6.088,6.088,0,0,1-.879.479,2.526,2.526,0,0,1,.769.483,2.582,2.582,0,0,1,.8,1.485,3.774,3.774,0,0,1,.04.914,4.211,4.211,0,0,1-.453,1.6,4,4,0,0,1-.967,1.213,4.129,4.129,0,0,1-1.367.76,4.826,4.826,0,0,1-1.644.242,4.216,4.216,0,0,1-1.446-.272,3.287,3.287,0,0,1-1.125-.716,3,3,0,0,1-.712-1.112,3.594,3.594,0,0,1-.2-1.459l1.591.009a2.529,2.529,0,0,0,.083.9,1.838,1.838,0,0,0,.369.694,1.7,1.7,0,0,0,.633.453,2.466,2.466,0,0,0,.883.18,2.864,2.864,0,0,0,1.059-.154,2.529,2.529,0,0,0,.839-.492,2.49,2.49,0,0,0,.584-.782,3.1,3.1,0,0,0,.286-1.024,2.355,2.355,0,0,0-.07-.971,1.653,1.653,0,0,0-.413-.694,1.835,1.835,0,0,0-.7-.422,3.245,3.245,0,0,0-.949-.163l-1.23-.009Zm15.117,1.723q-.105.694-.272,1.384a9.734,9.734,0,0,1-.422,1.327,6.4,6.4,0,0,1-.615,1.178,4.166,4.166,0,0,1-.857.94,3.637,3.637,0,0,1-1.143.615,4.319,4.319,0,0,1-1.463.2,3.416,3.416,0,0,1-1.336-.268,2.694,2.694,0,0,1-.923-.668,3.017,3.017,0,0,1-.571-.967,5.327,5.327,0,0,1-.281-1.169,7.947,7.947,0,0,1-.057-1.274q.022-.655.1-1.288l.29-1.951a13.964,13.964,0,0,1,.264-1.38,9.064,9.064,0,0,1,.426-1.314,6.273,6.273,0,0,1,.624-1.16,4.082,4.082,0,0,1,.861-.918,3.742,3.742,0,0,1,1.134-.6,4.322,4.322,0,0,1,1.455-.193,3.567,3.567,0,0,1,1.34.259,2.644,2.644,0,0,1,.927.65,2.934,2.934,0,0,1,.571.949,5.172,5.172,0,0,1,.281,1.151,7.806,7.806,0,0,1,.057,1.266q-.022.655-.1,1.288ZM331.269,17.3q.044-.369.083-.8a7.592,7.592,0,0,0,.031-.857,4.582,4.582,0,0,0-.092-.835,2.29,2.29,0,0,0-.277-.725,1.5,1.5,0,0,0-.523-.519,1.73,1.73,0,0,0-.839-.215,2.452,2.452,0,0,0-.967.145,2.27,2.27,0,0,0-.738.457,2.952,2.952,0,0,0-.545.69,5.025,5.025,0,0,0-.387.844,7.479,7.479,0,0,0-.259.918q-.1.47-.163.91l-.369,2.487q-.044.352-.083.787a7.96,7.96,0,0,0-.031.879,4.876,4.876,0,0,0,.092.861,2.445,2.445,0,0,0,.277.751,1.591,1.591,0,0,0,.519.545,1.614,1.614,0,0,0,.835.229,2.238,2.238,0,0,0,.976-.149,2.377,2.377,0,0,0,.738-.479,2.984,2.984,0,0,0,.545-.716,5.462,5.462,0,0,0,.387-.875,7.5,7.5,0,0,0,.255-.936q.1-.475.158-.905Zm11.145,2.232q-.105.694-.272,1.384a9.734,9.734,0,0,1-.422,1.327,6.4,6.4,0,0,1-.615,1.178,4.166,4.166,0,0,1-.857.94,3.637,3.637,0,0,1-1.143.615,4.319,4.319,0,0,1-1.463.2,3.416,3.416,0,0,1-1.336-.268,2.694,2.694,0,0,1-.923-.668,3.017,3.017,0,0,1-.571-.967,5.327,5.327,0,0,1-.281-1.169,7.947,7.947,0,0,1-.057-1.274q.022-.655.1-1.288l.29-1.951a13.964,13.964,0,0,1,.264-1.38,9.064,9.064,0,0,1,.426-1.314,6.273,6.273,0,0,1,.624-1.16,4.082,4.082,0,0,1,.861-.918,3.742,3.742,0,0,1,1.134-.6,4.322,4.322,0,0,1,1.455-.193,3.567,3.567,0,0,1,1.34.259,2.644,2.644,0,0,1,.927.65,2.934,2.934,0,0,1,.571.949,5.172,5.172,0,0,1,.281,1.151A7.806,7.806,0,0,1,342.8,16.3q-.022.655-.1,1.288ZM341.165,17.3q.044-.369.083-.8a7.592,7.592,0,0,0,.031-.857,4.582,4.582,0,0,0-.092-.835,2.29,2.29,0,0,0-.277-.725,1.5,1.5,0,0,0-.523-.519,1.73,1.73,0,0,0-.839-.215,2.452,2.452,0,0,0-.967.145,2.27,2.27,0,0,0-.738.457,2.952,2.952,0,0,0-.545.69,5.025,5.025,0,0,0-.387.844,7.479,7.479,0,0,0-.259.918q-.1.47-.163.91l-.369,2.487q-.044.352-.083.787a7.96,7.96,0,0,0-.031.879,4.876,4.876,0,0,0,.092.861,2.445,2.445,0,0,0,.277.751,1.591,1.591,0,0,0,.519.545,1.614,1.614,0,0,0,.835.229,2.238,2.238,0,0,0,.976-.149,2.377,2.377,0,0,0,.738-.479,2.984,2.984,0,0,0,.545-.716,5.462,5.462,0,0,0,.387-.875,7.5,7.5,0,0,0,.255-.936q.1-.475.158-.905Zm2.733,6.873a.983.983,0,0,1,.976-1.02.952.952,0,0,1,.712.264.908.908,0,0,1,.272.7.95.95,0,0,1-.29.7,1.046,1.046,0,0,1-.7.286,1.006,1.006,0,0,1-.391-.057.863.863,0,0,1-.308-.189.846.846,0,0,1-.2-.3A1.032,1.032,0,0,1,343.9,24.174Zm13.1-4.641q-.105.694-.272,1.384a9.734,9.734,0,0,1-.422,1.327,6.4,6.4,0,0,1-.615,1.178,4.166,4.166,0,0,1-.857.94,3.637,3.637,0,0,1-1.143.615,4.319,4.319,0,0,1-1.463.2,3.416,3.416,0,0,1-1.336-.268,2.694,2.694,0,0,1-.923-.668,3.017,3.017,0,0,1-.571-.967,5.327,5.327,0,0,1-.281-1.169,7.947,7.947,0,0,1-.057-1.274q.022-.655.1-1.288l.29-1.951a13.964,13.964,0,0,1,.264-1.38,9.064,9.064,0,0,1,.426-1.314,6.273,6.273,0,0,1,.624-1.16,4.082,4.082,0,0,1,.861-.918,3.742,3.742,0,0,1,1.134-.6,4.322,4.322,0,0,1,1.455-.193,3.567,3.567,0,0,1,1.34.259,2.644,2.644,0,0,1,.927.65,2.934,2.934,0,0,1,.571.949,5.172,5.172,0,0,1,.281,1.151,7.806,7.806,0,0,1,.057,1.266q-.022.655-.1,1.288ZM355.746,17.3q.044-.369.083-.8a7.592,7.592,0,0,0,.031-.857,4.582,4.582,0,0,0-.092-.835,2.29,2.29,0,0,0-.277-.725,1.5,1.5,0,0,0-.523-.519,1.73,1.73,0,0,0-.839-.215,2.452,2.452,0,0,0-.967.145,2.27,2.27,0,0,0-.738.457,2.952,2.952,0,0,0-.545.69,5.025,5.025,0,0,0-.387.844,7.479,7.479,0,0,0-.259.918q-.1.47-.163.91l-.369,2.487q-.044.352-.083.787a7.96,7.96,0,0,0-.031.879,4.876,4.876,0,0,0,.092.861,2.445,2.445,0,0,0,.277.751,1.591,1.591,0,0,0,.519.545,1.614,1.614,0,0,0,.835.229,2.238,2.238,0,0,0,.976-.149,2.377,2.377,0,0,0,.738-.479,2.984,2.984,0,0,0,.545-.716,5.462,5.462,0,0,0,.387-.875,7.5,7.5,0,0,0,.255-.936q.1-.475.158-.905Zm11.145,2.232q-.105.694-.272,1.384a9.734,9.734,0,0,1-.422,1.327,6.4,6.4,0,0,1-.615,1.178,4.166,4.166,0,0,1-.857.94,3.637,3.637,0,0,1-1.143.615,4.319,4.319,0,0,1-1.463.2,3.416,3.416,0,0,1-1.336-.268,2.694,2.694,0,0,1-.923-.668,3.017,3.017,0,0,1-.571-.967,5.327,5.327,0,0,1-.281-1.169,7.947,7.947,0,0,1-.057-1.274q.022-.655.1-1.288l.29-1.951a13.964,13.964,0,0,1,.264-1.38,9.064,9.064,0,0,1,.426-1.314,6.273,6.273,0,0,1,.624-1.16,4.082,4.082,0,0,1,.861-.918,3.742,3.742,0,0,1,1.134-.6,4.322,4.322,0,0,1,1.455-.193,3.567,3.567,0,0,1,1.34.259,2.644,2.644,0,0,1,.927.65,2.934,2.934,0,0,1,.571.949,5.172,5.172,0,0,1,.281,1.151,7.806,7.806,0,0,1,.057,1.266q-.022.655-.1,1.288ZM365.643,17.3q.044-.369.083-.8a7.592,7.592,0,0,0,.031-.857,4.582,4.582,0,0,0-.092-.835,2.29,2.29,0,0,0-.277-.725,1.5,1.5,0,0,0-.523-.519,1.73,1.73,0,0,0-.839-.215,2.452,2.452,0,0,0-.967.145,2.27,2.27,0,0,0-.738.457,2.952,2.952,0,0,0-.545.69,5.025,5.025,0,0,0-.387.844,7.479,7.479,0,0,0-.259.918q-.1.47-.163.91l-.369,2.487q-.044.352-.083.787a7.96,7.96,0,0,0-.031.879,4.876,4.876,0,0,0,.092.861,2.445,2.445,0,0,0,.277.751,1.591,1.591,0,0,0,.519.545,1.614,1.614,0,0,0,.835.229,2.238,2.238,0,0,0,.976-.149,2.377,2.377,0,0,0,.738-.479,2.984,2.984,0,0,0,.545-.716,5.462,5.462,0,0,0,.387-.875,7.5,7.5,0,0,0,.255-.936q.1-.475.158-.905Zm11.145,2.232q-.105.694-.272,1.384a9.734,9.734,0,0,1-.422,1.327,6.4,6.4,0,0,1-.615,1.178,4.166,4.166,0,0,1-.857.94,3.637,3.637,0,0,1-1.143.615,4.319,4.319,0,0,1-1.463.2,3.416,3.416,0,0,1-1.336-.268,2.694,2.694,0,0,1-.923-.668,3.017,3.017,0,0,1-.571-.967A5.327,5.327,0,0,1,368.9,22.1a7.947,7.947,0,0,1-.057-1.274q.022-.655.1-1.288l.29-1.951a13.964,13.964,0,0,1,.264-1.38,9.064,9.064,0,0,1,.426-1.314,6.273,6.273,0,0,1,.624-1.16,4.082,4.082,0,0,1,.861-.918,3.742,3.742,0,0,1,1.134-.6A4.322,4.322,0,0,1,374,12.027a3.567,3.567,0,0,1,1.34.259,2.644,2.644,0,0,1,.927.65,2.934,2.934,0,0,1,.571.949,5.172,5.172,0,0,1,.281,1.151,7.806,7.806,0,0,1,.057,1.266q-.022.655-.1,1.288ZM375.539,17.3q.044-.369.083-.8a7.592,7.592,0,0,0,.031-.857,4.582,4.582,0,0,0-.092-.835,2.29,2.29,0,0,0-.277-.725,1.5,1.5,0,0,0-.523-.519,1.73,1.73,0,0,0-.839-.215,2.452,2.452,0,0,0-.967.145,2.27,2.27,0,0,0-.738.457,2.952,2.952,0,0,0-.545.69,5.025,5.025,0,0,0-.387.844,7.479,7.479,0,0,0-.259.918q-.1.47-.163.91l-.369,2.487q-.044.352-.083.787a7.96,7.96,0,0,0-.031.879,4.876,4.876,0,0,0,.092.861,2.445,2.445,0,0,0,.277.751,1.591,1.591,0,0,0,.519.545,1.614,1.614,0,0,0,.835.229,2.238,2.238,0,0,0,.976-.149,2.377,2.377,0,0,0,.738-.479,2.984,2.984,0,0,0,.545-.716,5.462,5.462,0,0,0,.387-.875A7.5,7.5,0,0,0,375,20.7q.1-.475.158-.905Zm2.733,6.873a.983.983,0,0,1,.976-1.02.952.952,0,0,1,.712.264.908.908,0,0,1,.272.7.95.95,0,0,1-.29.7,1.046,1.046,0,0,1-.7.286,1.006,1.006,0,0,1-.391-.057.863.863,0,0,1-.308-.189.846.846,0,0,1-.2-.3A1.032,1.032,0,0,1,378.272,24.174Zm13.1-4.641q-.105.694-.272,1.384a9.734,9.734,0,0,1-.422,1.327,6.4,6.4,0,0,1-.615,1.178,4.166,4.166,0,0,1-.857.94,3.637,3.637,0,0,1-1.143.615,4.319,4.319,0,0,1-1.463.2,3.416,3.416,0,0,1-1.336-.268,2.694,2.694,0,0,1-.923-.668,3.017,3.017,0,0,1-.571-.967,5.327,5.327,0,0,1-.281-1.169,7.947,7.947,0,0,1-.057-1.274q.022-.655.1-1.288l.29-1.951a13.964,13.964,0,0,1,.264-1.38,9.064,9.064,0,0,1,.426-1.314,6.273,6.273,0,0,1,.624-1.16,4.082,4.082,0,0,1,.861-.918,3.742,3.742,0,0,1,1.134-.6,4.322,4.322,0,0,1,1.455-.193,3.567,3.567,0,0,1,1.34.259,2.644,2.644,0,0,1,.927.65,2.934,2.934,0,0,1,.571.949,5.172,5.172,0,0,1,.281,1.151,7.806,7.806,0,0,1,.057,1.266q-.022.655-.1,1.288ZM390.12,17.3q.044-.369.083-.8a7.592,7.592,0,0,0,.031-.857,4.582,4.582,0,0,0-.092-.835,2.29,2.29,0,0,0-.277-.725,1.5,1.5,0,0,0-.523-.519,1.73,1.73,0,0,0-.839-.215,2.452,2.452,0,0,0-.967.145,2.27,2.27,0,0,0-.738.457,2.952,2.952,0,0,0-.545.69,5.025,5.025,0,0,0-.387.844,7.479,7.479,0,0,0-.259.918q-.1.47-.163.91l-.369,2.487q-.044.352-.083.787a7.96,7.96,0,0,0-.031.879,4.876,4.876,0,0,0,.092.861,2.445,2.445,0,0,0,.277.751,1.591,1.591,0,0,0,.519.545,1.614,1.614,0,0,0,.835.229,2.238,2.238,0,0,0,.976-.149,2.377,2.377,0,0,0,.738-.479,2.984,2.984,0,0,0,.545-.716,5.462,5.462,0,0,0,.387-.875,7.5,7.5,0,0,0,.255-.936q.1-.475.158-.905Zm11.145,2.232q-.105.694-.272,1.384a9.734,9.734,0,0,1-.422,1.327,6.4,6.4,0,0,1-.615,1.178,4.166,4.166,0,0,1-.857.94,3.637,3.637,0,0,1-1.143.615,4.319,4.319,0,0,1-1.463.2,3.416,3.416,0,0,1-1.336-.268,2.694,2.694,0,0,1-.923-.668,3.017,3.017,0,0,1-.571-.967,5.327,5.327,0,0,1-.281-1.169,7.947,7.947,0,0,1-.057-1.274q.022-.655.1-1.288l.29-1.951a13.964,13.964,0,0,1,.264-1.38A9.064,9.064,0,0,1,394.4,14.9a6.273,6.273,0,0,1,.624-1.16,4.082,4.082,0,0,1,.861-.918,3.742,3.742,0,0,1,1.134-.6,4.322,4.322,0,0,1,1.455-.193,3.567,3.567,0,0,1,1.34.259,2.644,2.644,0,0,1,.927.65,2.934,2.934,0,0,1,.571.949,5.172,5.172,0,0,1,.281,1.151,7.806,7.806,0,0,1,.057,1.266q-.022.655-.1,1.288ZM400.017,17.3q.044-.369.083-.8a7.592,7.592,0,0,0,.031-.857,4.582,4.582,0,0,0-.092-.835,2.29,2.29,0,0,0-.277-.725,1.5,1.5,0,0,0-.523-.519,1.73,1.73,0,0,0-.839-.215,2.452,2.452,0,0,0-.967.145,2.27,2.27,0,0,0-.738.457,2.952,2.952,0,0,0-.545.69,5.025,5.025,0,0,0-.387.844,7.479,7.479,0,0,0-.259.918q-.1.47-.163.91l-.369,2.487q-.044.352-.083.787a7.96,7.96,0,0,0-.031.879,4.876,4.876,0,0,0,.092.861,2.445,2.445,0,0,0,.277.751,1.591,1.591,0,0,0,.519.545,1.614,1.614,0,0,0,.835.229,2.238,2.238,0,0,0,.976-.149,2.377,2.377,0,0,0,.738-.479,2.984,2.984,0,0,0,.545-.716,5.462,5.462,0,0,0,.387-.875,7.5,7.5,0,0,0,.255-.936q.1-.475.158-.905Zm11.145,2.232q-.105.694-.272,1.384a9.734,9.734,0,0,1-.422,1.327,6.4,6.4,0,0,1-.615,1.178,4.166,4.166,0,0,1-.857.94,3.637,3.637,0,0,1-1.143.615,4.319,4.319,0,0,1-1.463.2,3.416,3.416,0,0,1-1.336-.268,2.694,2.694,0,0,1-.923-.668,3.017,3.017,0,0,1-.571-.967,5.327,5.327,0,0,1-.281-1.169,7.947,7.947,0,0,1-.057-1.274q.022-.655.1-1.288l.29-1.951a13.964,13.964,0,0,1,.264-1.38A9.064,9.064,0,0,1,404.3,14.9a6.273,6.273,0,0,1,.624-1.16,4.082,4.082,0,0,1,.861-.918,3.742,3.742,0,0,1,1.134-.6,4.322,4.322,0,0,1,1.455-.193,3.567,3.567,0,0,1,1.34.259,2.644,2.644,0,0,1,.927.65,2.934,2.934,0,0,1,.571.949,5.172,5.172,0,0,1,.281,1.151,7.806,7.806,0,0,1,.057,1.266q-.022.655-.1,1.288ZM409.913,17.3q.044-.369.083-.8a7.592,7.592,0,0,0,.031-.857,4.582,4.582,0,0,0-.092-.835,2.29,2.29,0,0,0-.277-.725,1.5,1.5,0,0,0-.523-.519,1.73,1.73,0,0,0-.839-.215,2.452,2.452,0,0,0-.967.145,2.27,2.27,0,0,0-.738.457,2.952,2.952,0,0,0-.545.69,5.025,5.025,0,0,0-.387.844,7.479,7.479,0,0,0-.259.918q-.1.47-.163.91l-.369,2.487q-.044.352-.083.787a7.96,7.96,0,0,0-.031.879,4.876,4.876,0,0,0,.092.861,2.445,2.445,0,0,0,.277.751,1.591,1.591,0,0,0,.519.545,1.614,1.614,0,0,0,.835.229,2.238,2.238,0,0,0,.976-.149,2.377,2.377,0,0,0,.738-.479,2.984,2.984,0,0,0,.545-.716,5.462,5.462,0,0,0,.387-.875,7.5,7.5,0,0,0,.255-.936q.1-.475.158-.905Zm7.075,2.558a17.339,17.339,0,0,1-.352,1.771,15.64,15.64,0,0,1-1.367,3.542,11.191,11.191,0,0,1-1.028,1.591,9.487,9.487,0,0,1-1.279,1.354,7.3,7.3,0,0,1-1.529,1.024l-.246-1.011a8.407,8.407,0,0,0,1.67-1.666,11.27,11.27,0,0,0,1.213-2.017,13.909,13.909,0,0,0,.817-2.232,20.594,20.594,0,0,0,.492-2.312l.018-.132q.088-.624.149-1.345t.053-1.477a14.045,14.045,0,0,0-.1-1.521,8.858,8.858,0,0,0-.3-1.472,6.405,6.405,0,0,0-.558-1.323,4.4,4.4,0,0,0-.866-1.09l.413-.984a5.407,5.407,0,0,1,1.2,1.138,7.107,7.107,0,0,1,.853,1.424,8.981,8.981,0,0,1,.549,1.617,12.615,12.615,0,0,1,.286,1.709,13.956,13.956,0,0,1,.062,1.709,14.3,14.3,0,0,1-.127,1.6Zm13.975-.483-2.408.492L430.225,22l-.967.668-1.371-2.329L426.5,22.671,425.531,22l1.67-2.136-2.426-.492.4-1.1,2.3.87-.2-2.672h1.213l-.2,2.672,2.312-.87Zm8.376-.817,1.74-6.354h6.381l-.272,1.5h-5l-1.055,3.5a3.927,3.927,0,0,1,1.011-.422,4.024,4.024,0,0,1,1.09-.132,2.994,2.994,0,0,1,1.5.369,2.9,2.9,0,0,1,1,.949,3.721,3.721,0,0,1,.519,1.34,5.415,5.415,0,0,1,.062,1.542,5.622,5.622,0,0,1-.439,1.736,4.477,4.477,0,0,1-.936,1.389,4.148,4.148,0,0,1-1.38.91,4.325,4.325,0,0,1-1.771.3,3.792,3.792,0,0,1-1.424-.286,3.076,3.076,0,0,1-1.059-.738,3.3,3.3,0,0,1-.672-1.116,4.381,4.381,0,0,1-.255-1.419h1.485A3.27,3.27,0,0,0,440,22.5a2.124,2.124,0,0,0,.369.7,1.728,1.728,0,0,0,.611.475,2.114,2.114,0,0,0,.879.185A2.4,2.4,0,0,0,443,23.629a2.667,2.667,0,0,0,.861-.668,3.306,3.306,0,0,0,.571-.971,4.446,4.446,0,0,0,.272-1.129,3.547,3.547,0,0,0-.018-1,2.44,2.44,0,0,0-.308-.87,1.817,1.817,0,0,0-.624-.624,1.956,1.956,0,0,0-.976-.259,2.679,2.679,0,0,0-1.143.2,4.657,4.657,0,0,0-.993.593Zm16.831.976q-.105.694-.272,1.384a9.734,9.734,0,0,1-.422,1.327,6.4,6.4,0,0,1-.615,1.178,4.166,4.166,0,0,1-.857.94,3.637,3.637,0,0,1-1.143.615,4.319,4.319,0,0,1-1.463.2,3.416,3.416,0,0,1-1.336-.268,2.694,2.694,0,0,1-.923-.668,3.017,3.017,0,0,1-.571-.967,5.327,5.327,0,0,1-.281-1.169,7.947,7.947,0,0,1-.057-1.274q.022-.655.1-1.288l.29-1.951a13.964,13.964,0,0,1,.264-1.38,9.064,9.064,0,0,1,.426-1.314,6.273,6.273,0,0,1,.624-1.16,4.082,4.082,0,0,1,.861-.918,3.742,3.742,0,0,1,1.134-.6,4.322,4.322,0,0,1,1.455-.193,3.567,3.567,0,0,1,1.34.259,2.644,2.644,0,0,1,.927.65,2.934,2.934,0,0,1,.571.949,5.172,5.172,0,0,1,.281,1.151,7.806,7.806,0,0,1,.057,1.266q-.022.655-.1,1.288ZM454.922,17.3q.044-.369.083-.8a7.592,7.592,0,0,0,.031-.857,4.582,4.582,0,0,0-.092-.835,2.29,2.29,0,0,0-.277-.725,1.5,1.5,0,0,0-.523-.519,1.73,1.73,0,0,0-.839-.215,2.452,2.452,0,0,0-.967.145,2.27,2.27,0,0,0-.738.457,2.952,2.952,0,0,0-.545.69,5.025,5.025,0,0,0-.387.844,7.479,7.479,0,0,0-.259.918q-.1.47-.163.91l-.369,2.487q-.044.352-.083.787a7.96,7.96,0,0,0-.031.879,4.876,4.876,0,0,0,.092.861,2.445,2.445,0,0,0,.277.751,1.591,1.591,0,0,0,.519.545,1.614,1.614,0,0,0,.835.229,2.238,2.238,0,0,0,.976-.149,2.377,2.377,0,0,0,.738-.479,2.984,2.984,0,0,0,.545-.716,5.462,5.462,0,0,0,.387-.875,7.5,7.5,0,0,0,.255-.936q.1-.475.158-.905Zm8.42-2.628a3.352,3.352,0,0,1,.29-1.055,2.824,2.824,0,0,1,.6-.853,2.686,2.686,0,0,1,1.947-.756,2.373,2.373,0,0,1,.989.233,2.174,2.174,0,0,1,.729.576,2.31,2.31,0,0,1,.431.835,2.941,2.941,0,0,1,.1,1.011l-.053.677a3.3,3.3,0,0,1-.29,1.042,2.881,2.881,0,0,1-.6.848,2.674,2.674,0,0,1-.861.563,2.585,2.585,0,0,1-1.072.185,2.313,2.313,0,0,1-.993-.224,2.186,2.186,0,0,1-.734-.571,2.376,2.376,0,0,1-.439-.831,2.8,2.8,0,0,1-.11-1.011Zm1.125.686a2.43,2.43,0,0,0,.031.567,1.391,1.391,0,0,0,.18.492,1.044,1.044,0,0,0,.914.505,1.315,1.315,0,0,0,.615-.123,1.565,1.565,0,0,0,.475-.352,1.78,1.78,0,0,0,.325-.505,2.322,2.322,0,0,0,.167-.6l.079-.686a2.15,2.15,0,0,0-.022-.567,1.541,1.541,0,0,0-.176-.5,1.022,1.022,0,0,0-.352-.365,1.087,1.087,0,0,0-.558-.149,1.341,1.341,0,0,0-.62.123,1.549,1.549,0,0,0-.479.352,1.838,1.838,0,0,0-.33.51,2.28,2.28,0,0,0-.171.606Zm3.674,6.513a3.128,3.128,0,0,1,.286-1.055,2.93,2.93,0,0,1,.6-.853,2.6,2.6,0,0,1,.866-.558,2.768,2.768,0,0,1,1.077-.189,2.45,2.45,0,0,1,.993.229,2.115,2.115,0,0,1,.734.571,2.366,2.366,0,0,1,.435.835,2.871,2.871,0,0,1,.105,1.011l-.062.686a3.3,3.3,0,0,1-.29,1.05,2.881,2.881,0,0,1-.6.848,2.674,2.674,0,0,1-.861.563,2.585,2.585,0,0,1-1.072.185,2.3,2.3,0,0,1-1-.224,2.22,2.22,0,0,1-.734-.576,2.328,2.328,0,0,1-.439-.835,2.871,2.871,0,0,1-.105-1.011Zm1.125.694a2.477,2.477,0,0,0,.031.571,1.437,1.437,0,0,0,.18.5,1.035,1.035,0,0,0,.356.356,1.116,1.116,0,0,0,.558.145,1.351,1.351,0,0,0,.615-.119,1.474,1.474,0,0,0,.475-.352,1.825,1.825,0,0,0,.325-.514,2.386,2.386,0,0,0,.167-.606l.079-.694a2.15,2.15,0,0,0-.022-.567,1.481,1.481,0,0,0-.18-.5,1.023,1.023,0,0,0-.356-.36,1.1,1.1,0,0,0-.549-.145,1.378,1.378,0,0,0-.62.119,1.491,1.491,0,0,0-.479.347,1.838,1.838,0,0,0-.33.51,2.28,2.28,0,0,0-.171.606Zm-4.535,1.45-.87-.633,7.743-9.914.87.624ZM10.477,38.311l-.527,2.382H9.105a2.718,2.718,0,0,0-.47-1.56,1.586,1.586,0,0,0-1.288-.479,2.977,2.977,0,0,0-2.254,1.213,8.791,8.791,0,0,0-1.648,3.2,12.738,12.738,0,0,0-.606,3.7,3.291,3.291,0,0,0,.475,1.969,1.706,1.706,0,0,0,1.459.633,3.076,3.076,0,0,0,1.151-.2,2.553,2.553,0,0,0,.923-.668A5.793,5.793,0,0,0,7.7,47.188h.844l-.536,2.5a12.8,12.8,0,0,1-3.445.457,3.222,3.222,0,0,1-2.514-.949,4,4,0,0,1-.861-2.777,11.476,11.476,0,0,1,.461-2.979,10.2,10.2,0,0,1,1.305-2.962,6.046,6.046,0,0,1,2-1.942,4.954,4.954,0,0,1,2.531-.668,10.567,10.567,0,0,1,1.481.1A10.125,10.125,0,0,1,10.477,38.311Zm7.813,3.718.809-.58.563.141-1.292,5.572a6.189,6.189,0,0,0-.193,1.3.886.886,0,0,0,.114.51.414.414,0,0,0,.36.158.978.978,0,0,0,.563-.215,6.176,6.176,0,0,0,.844-.822l.5.492a7.649,7.649,0,0,1-1.349,1.2A2.205,2.205,0,0,1,18,50.141a1.114,1.114,0,0,1-.87-.36,1.376,1.376,0,0,1-.325-.958,2.962,2.962,0,0,1,.2-1.028l-.114-.035a7.75,7.75,0,0,1-1.6,1.8,2.61,2.61,0,0,1-1.6.571,1.746,1.746,0,0,1-1.5-.729,3.426,3.426,0,0,1-.532-2.048,7.34,7.34,0,0,1,.593-2.9,5.373,5.373,0,0,1,1.63-2.2,3.68,3.68,0,0,1,2.312-.8,4.285,4.285,0,0,1,1.068.127A3.733,3.733,0,0,1,18.29,42.028Zm-.773,2.619a5.547,5.547,0,0,0,.105-.624q.026-.264.026-.571a1.437,1.437,0,0,0-.29-.993,1.289,1.289,0,0,0-.984-.316,2.233,2.233,0,0,0-1.626.729,4.924,4.924,0,0,0-1.125,1.956,7.777,7.777,0,0,0-.4,2.448,2.909,2.909,0,0,0,.25,1.367.882.882,0,0,0,.839.453,1.7,1.7,0,0,0,1.138-.5A6.972,6.972,0,0,0,16.6,47.166a6.229,6.229,0,0,0,.839-2.14Zm7.154-.932A7.324,7.324,0,0,1,26.328,42a2.829,2.829,0,0,1,1.613-.545,5,5,0,0,1,1.072.1l-.422,1.969h-.905a2.034,2.034,0,0,0-.149-.571.633.633,0,0,0-.229-.281.641.641,0,0,0-.334-.079,1.2,1.2,0,0,0-.69.272,4.722,4.722,0,0,0-.839.853,6.756,6.756,0,0,0-.743,1.116,5.713,5.713,0,0,0-.461,1.362L23.405,50H21.885l1.274-5.572a8.229,8.229,0,0,0,.158-.817,4.147,4.147,0,0,0,.035-.483.886.886,0,0,0-.114-.51.414.414,0,0,0-.36-.158.983.983,0,0,0-.576.224,6.308,6.308,0,0,0-.831.813l-.5-.492a8.449,8.449,0,0,1,1.354-1.2,2.156,2.156,0,0,1,1.2-.356,1.1,1.1,0,0,1,.875.365,1.391,1.391,0,0,1,.321.954,2.675,2.675,0,0,1-.167.905Zm6.812,7.04a2.945,2.945,0,0,0-.281.4,1.559,1.559,0,0,0-.163.382,1.751,1.751,0,0,0-.048.439,1.058,1.058,0,0,0,.475.962,2.7,2.7,0,0,0,1.433.3,2.836,2.836,0,0,0,1.736-.488,3.756,3.756,0,0,0,1.121-1.569,17.536,17.536,0,0,0,.905-3.27l-.123-.026A7.885,7.885,0,0,1,34.954,49.6a2.6,2.6,0,0,1-1.573.536,1.745,1.745,0,0,1-1.49-.721,3.419,3.419,0,0,1-.532-2.057,7.3,7.3,0,0,1,.589-2.887,5.416,5.416,0,0,1,1.635-2.2,3.691,3.691,0,0,1,2.329-.817,4.028,4.028,0,0,1,1.046.132,3.622,3.622,0,0,1,.993.448l.809-.58.563.141-.905,4.1q-.1.431-.439,2.171-.36,1.846-.584,2.61a7.39,7.39,0,0,1-.558,1.393,3.872,3.872,0,0,1-.861,1.094,3.7,3.7,0,0,1-1.279.721,5.556,5.556,0,0,1-1.78.255q-3.322,0-3.322-1.934a1.473,1.473,0,0,1,.3-.9,3.95,3.95,0,0,1,.958-.853ZM34,49.095a1.556,1.556,0,0,0,.892-.308,4.443,4.443,0,0,0,.949-.976,7.077,7.077,0,0,0,.787-1.274,7.374,7.374,0,0,0,.479-1.512,7.515,7.515,0,0,0,.2-1.573,1.434,1.434,0,0,0-.29-1,1.273,1.273,0,0,0-.967-.312,2.2,2.2,0,0,0-1.608.725,4.983,4.983,0,0,0-1.121,1.956,7.741,7.741,0,0,0-.409,2.452,2.784,2.784,0,0,0,.264,1.367A.888.888,0,0,0,34,49.095Zm13.887-7.066.809-.58.563.141-1.292,5.572a6.189,6.189,0,0,0-.193,1.3.886.886,0,0,0,.114.51.414.414,0,0,0,.36.158.978.978,0,0,0,.563-.215,6.176,6.176,0,0,0,.844-.822l.5.492a7.649,7.649,0,0,1-1.349,1.2,2.205,2.205,0,0,1-1.208.356,1.114,1.114,0,0,1-.87-.36,1.376,1.376,0,0,1-.325-.958,2.962,2.962,0,0,1,.2-1.028l-.114-.035a7.75,7.75,0,0,1-1.6,1.8,2.61,2.61,0,0,1-1.6.571,1.746,1.746,0,0,1-1.5-.729,3.426,3.426,0,0,1-.532-2.048,7.34,7.34,0,0,1,.593-2.9,5.373,5.373,0,0,1,1.63-2.2,3.68,3.68,0,0,1,2.312-.8,4.285,4.285,0,0,1,1.068.127A3.733,3.733,0,0,1,47.892,42.028Zm-.773,2.619a5.547,5.547,0,0,0,.105-.624q.026-.264.026-.571a1.437,1.437,0,0,0-.29-.993,1.289,1.289,0,0,0-.984-.316,2.233,2.233,0,0,0-1.626.729,4.924,4.924,0,0,0-1.125,1.956,7.777,7.777,0,0,0-.4,2.448,2.909,2.909,0,0,0,.25,1.367.882.882,0,0,0,.839.453,1.7,1.7,0,0,0,1.138-.5A6.972,6.972,0,0,0,46.2,47.166a6.229,6.229,0,0,0,.839-2.14Zm10.072-.193a6.217,6.217,0,0,0,.185-1.327.886.886,0,0,0-.114-.51.414.414,0,0,0-.36-.158.983.983,0,0,0-.576.224,6.308,6.308,0,0,0-.831.813l-.5-.492a8.58,8.58,0,0,1,1.34-1.191,2.154,2.154,0,0,1,1.217-.365,1.1,1.1,0,0,1,.866.36,1.387,1.387,0,0,1,.321.958,2.982,2.982,0,0,1-.2,1.037l.105.035q1.626-2.382,3.234-2.382a1.738,1.738,0,0,1,1.49.729,3.443,3.443,0,0,1,.532,2.057,7.35,7.35,0,0,1-.584,2.852,5.434,5.434,0,0,1-1.622,2.224,3.643,3.643,0,0,1-2.32.822,3.459,3.459,0,0,1-1.942-.51l-.4,1.925a5.173,5.173,0,0,0-.132,1.028.674.674,0,0,0,.2.549,1.506,1.506,0,0,0,.769.215l-.07.431H55.072Zm.888,2.487q-.088.466-.11.712t-.022.483a1.419,1.419,0,0,0,.294,1,1.357,1.357,0,0,0,1.015.312,1.935,1.935,0,0,0,.826-.176,2.562,2.562,0,0,0,.716-.51,3.751,3.751,0,0,0,.611-.809,6.354,6.354,0,0,0,.488-1.1,8.019,8.019,0,0,0,.325-1.292,7.636,7.636,0,0,0,.11-1.244,2.847,2.847,0,0,0-.259-1.375.878.878,0,0,0-.822-.453,1.532,1.532,0,0,0-.883.3,4.687,4.687,0,0,0-.954.971,6.455,6.455,0,0,0-.809,1.318,7.012,7.012,0,0,0-.457,1.494Zm10.644-3.226A7.324,7.324,0,0,1,70.378,42a2.829,2.829,0,0,1,1.613-.545,5,5,0,0,1,1.072.1l-.422,1.969h-.905a2.034,2.034,0,0,0-.149-.571.633.633,0,0,0-.229-.281.641.641,0,0,0-.334-.079,1.2,1.2,0,0,0-.69.272,4.722,4.722,0,0,0-.839.853,6.756,6.756,0,0,0-.743,1.116,5.713,5.713,0,0,0-.461,1.362L67.456,50H65.936l1.274-5.572a8.229,8.229,0,0,0,.158-.817,4.147,4.147,0,0,0,.035-.483.886.886,0,0,0-.114-.51.414.414,0,0,0-.36-.158.983.983,0,0,0-.576.224,6.308,6.308,0,0,0-.831.813l-.5-.492a8.449,8.449,0,0,1,1.354-1.2,2.156,2.156,0,0,1,1.2-.356,1.1,1.1,0,0,1,.875.365,1.391,1.391,0,0,1,.321.954,2.675,2.675,0,0,1-.167.905Zm12.015,4.535a6.681,6.681,0,0,1-1.727,1.415,4.2,4.2,0,0,1-2.035.475A2.515,2.515,0,0,1,75,49.363a3.127,3.127,0,0,1-.7-2.167,6.746,6.746,0,0,1,.338-2.017,5.894,5.894,0,0,1,1.024-1.934,4.786,4.786,0,0,1,1.644-1.327,4.567,4.567,0,0,1,2.039-.47,2.5,2.5,0,0,1,1.6.431,1.629,1.629,0,0,1,.532,1.345,2.4,2.4,0,0,1-1.4,2.241,9.106,9.106,0,0,1-4.162.747,5.828,5.828,0,0,0-.105,1.143,2.032,2.032,0,0,0,.36,1.34,1.48,1.48,0,0,0,1.178.417,3.044,3.044,0,0,0,1.463-.352,6.114,6.114,0,0,0,1.384-1.081Zm-4.676-2.786a9.416,9.416,0,0,0,2.127-.224,2.846,2.846,0,0,0,1.362-.686,1.707,1.707,0,0,0,.475-1.27,1.281,1.281,0,0,0-.25-.839.908.908,0,0,0-.743-.3,2.345,2.345,0,0,0-1.709.9A5.972,5.972,0,0,0,76.061,45.465Zm12.876-1.731a1.923,1.923,0,0,0-.514-1.187,1.833,1.833,0,0,0-1.314-.4,1.708,1.708,0,0,0-1.125.356,1.155,1.155,0,0,0-.431.936,1.336,1.336,0,0,0,.11.558,1.69,1.69,0,0,0,.444.532,7.729,7.729,0,0,0,1.037.712,7.428,7.428,0,0,1,.888.611,2.946,2.946,0,0,1,.527.549,1.909,1.909,0,0,1,.281.576,2.664,2.664,0,0,1,.088.734,2.174,2.174,0,0,1-.417,1.34,2.476,2.476,0,0,1-1.134.831,4.562,4.562,0,0,1-1.63.272,9.266,9.266,0,0,1-1.433-.11,11.435,11.435,0,0,1-1.564-.374l.422-1.916h.686a1.82,1.82,0,0,0,.475,1.274,1.937,1.937,0,0,0,1.4.431,2.047,2.047,0,0,0,1.305-.374,1.274,1.274,0,0,0,.47-1.059,1.614,1.614,0,0,0-.132-.681,1.692,1.692,0,0,0-.431-.549,7.072,7.072,0,0,0-.949-.659,7.706,7.706,0,0,1-1.068-.747,2.355,2.355,0,0,1-.576-.725,2.008,2.008,0,0,1-.193-.9,2.04,2.04,0,0,1,.374-1.217,2.359,2.359,0,0,1,1.068-.8,4.287,4.287,0,0,1,1.617-.281,10.516,10.516,0,0,1,1.49.1,6.954,6.954,0,0,1,1.34.334l-.4,1.846Zm7.8,4.605A6.352,6.352,0,0,1,95.26,49.7a2.765,2.765,0,0,1-1.481.439,1.631,1.631,0,0,1-1.837-1.854,5.538,5.538,0,0,1,.149-1.239l1.037-4.562H91.652l.132-.606a3.548,3.548,0,0,0,.787-.079,1.437,1.437,0,0,0,.448-.193,1.235,1.235,0,0,0,.33-.352,3.284,3.284,0,0,0,.29-.584q.141-.356.422-1.244h1.213L94.79,41.6h2.672l-.193.888H94.6l-.782,3.41q-.229.993-.29,1.428a5.241,5.241,0,0,0-.062.7q0,1.09.905,1.09a1.483,1.483,0,0,0,.822-.294,5.516,5.516,0,0,0,1.033-1.006Zm8.543-6.311.809-.58.563.141-1.292,5.572a6.189,6.189,0,0,0-.193,1.3.886.886,0,0,0,.114.51.414.414,0,0,0,.36.158.978.978,0,0,0,.563-.215,6.176,6.176,0,0,0,.844-.822l.5.492a7.649,7.649,0,0,1-1.349,1.2,2.205,2.205,0,0,1-1.208.356,1.114,1.114,0,0,1-.87-.36,1.376,1.376,0,0,1-.325-.958,2.962,2.962,0,0,1,.2-1.028l-.114-.035a7.75,7.75,0,0,1-1.6,1.8,2.61,2.61,0,0,1-1.6.571,1.746,1.746,0,0,1-1.5-.729,3.426,3.426,0,0,1-.532-2.048,7.34,7.34,0,0,1,.593-2.9,5.373,5.373,0,0,1,1.63-2.2,3.68,3.68,0,0,1,2.312-.8,4.285,4.285,0,0,1,1.068.127A3.733,3.733,0,0,1,105.275,42.028Zm-.773,2.619a5.547,5.547,0,0,0,.105-.624q.026-.264.026-.571a1.437,1.437,0,0,0-.29-.993,1.289,1.289,0,0,0-.984-.316,2.233,2.233,0,0,0-1.626.729,4.924,4.924,0,0,0-1.125,1.956,7.777,7.777,0,0,0-.4,2.448,2.909,2.909,0,0,0,.25,1.367.882.882,0,0,0,.839.453,1.7,1.7,0,0,0,1.138-.5,6.972,6.972,0,0,0,1.151-1.428,6.229,6.229,0,0,0,.839-2.14Zm9.87-.94a3.961,3.961,0,0,0-.11-.967.835.835,0,0,0-.3-.448.985.985,0,0,0-.584-.149,2.2,2.2,0,0,0-1.6.708,5.188,5.188,0,0,0-1.156,2,7.615,7.615,0,0,0-.448,2.492,2.1,2.1,0,0,0,.352,1.332,1.275,1.275,0,0,0,1.055.435,2.969,2.969,0,0,0,1.384-.3,5.183,5.183,0,0,0,1.235-.954l.536.536a5.833,5.833,0,0,1-1.666,1.336,3.966,3.966,0,0,1-1.806.422,2.428,2.428,0,0,1-1.934-.756,3.249,3.249,0,0,1-.659-2.2,6.971,6.971,0,0,1,.352-2.065,6.046,6.046,0,0,1,1.028-1.978,4.368,4.368,0,0,1,1.582-1.274,4.522,4.522,0,0,1,1.934-.422,8.307,8.307,0,0,1,2.153.264l-.431,1.986ZM121,38.152l-.4,1.705h-1.556l.4-1.705Zm-2.83,5.924a6.492,6.492,0,0,0,.2-1.318.634.634,0,0,0-.189-.536,1.426,1.426,0,0,0-.743-.158l.1-.466,2.145-.079h.519l-1.266,5.643a6.516,6.516,0,0,0-.193,1.3.886.886,0,0,0,.114.51.414.414,0,0,0,.36.158.978.978,0,0,0,.563-.215,6.176,6.176,0,0,0,.844-.822l.5.492a7.669,7.669,0,0,1-1.4,1.23,2.276,2.276,0,0,1-1.2.325,1.123,1.123,0,0,1-.914-.417,1.628,1.628,0,0,1-.343-1.068,7.7,7.7,0,0,1,.246-1.705Zm7.4,6.073a2.829,2.829,0,0,1-2.114-.765,3.005,3.005,0,0,1-.751-2.2,7.411,7.411,0,0,1,.211-1.626,6.088,6.088,0,0,1,.914-2.18,4.406,4.406,0,0,1,1.582-1.428,4.355,4.355,0,0,1,2.065-.5,2.836,2.836,0,0,1,2.145.769,3.054,3.054,0,0,1,.738,2.2,7.448,7.448,0,0,1-.356,2.18,5.971,5.971,0,0,1-.976,1.951,4.014,4.014,0,0,1-1.481,1.191A4.647,4.647,0,0,1,125.569,50.149Zm-1.327-2.584a2.142,2.142,0,0,0,.4,1.428,1.513,1.513,0,0,0,1.208.461,1.981,1.981,0,0,0,1.529-.773,5.561,5.561,0,0,0,1.055-2.167,9.31,9.31,0,0,0,.387-2.448,2.317,2.317,0,0,0-.369-1.428,1.362,1.362,0,0,0-1.151-.479,2.077,2.077,0,0,0-1.6.765,5.416,5.416,0,0,0-1.072,2.188A9.48,9.48,0,0,0,124.242,47.565Zm9.483-3.138a6.3,6.3,0,0,0,.193-1.3.886.886,0,0,0-.114-.51.414.414,0,0,0-.36-.158.983.983,0,0,0-.576.224,6.308,6.308,0,0,0-.831.813l-.5-.492a8.725,8.725,0,0,1,1.345-1.2,2.143,2.143,0,0,1,1.213-.356,1.1,1.1,0,0,1,.875.365,1.391,1.391,0,0,1,.321.954,3.025,3.025,0,0,1-.211,1.037l.105.035a8.131,8.131,0,0,1,1.639-1.8,2.642,2.642,0,0,1,1.6-.584,1.636,1.636,0,0,1,1.257.47,1.837,1.837,0,0,1,.439,1.305,7.017,7.017,0,0,1-.255,1.573l-.571,2.3a6.607,6.607,0,0,0-.237,1.354.886.886,0,0,0,.114.51.414.414,0,0,0,.36.158.978.978,0,0,0,.563-.215,6.176,6.176,0,0,0,.844-.822l.5.492a7.951,7.951,0,0,1-1.318,1.182,2.266,2.266,0,0,1-1.283.374,1.133,1.133,0,0,1-.914-.409,1.565,1.565,0,0,1-.343-1.042,7.271,7.271,0,0,1,.29-1.679l.387-1.521q.211-.826.277-1.222a4.081,4.081,0,0,0,.066-.642,1.474,1.474,0,0,0-.2-.875.772.772,0,0,0-.659-.268,1.424,1.424,0,0,0-.8.294,4.535,4.535,0,0,0-.905.888,6.967,6.967,0,0,0-.769,1.151,5.738,5.738,0,0,0-.475,1.375L133.963,50h-1.521Zm15.478-2.4.809-.58.563.141-1.292,5.572a6.189,6.189,0,0,0-.193,1.3.886.886,0,0,0,.114.51.414.414,0,0,0,.36.158.978.978,0,0,0,.563-.215,6.176,6.176,0,0,0,.844-.822l.5.492a7.649,7.649,0,0,1-1.349,1.2,2.205,2.205,0,0,1-1.208.356,1.114,1.114,0,0,1-.87-.36,1.376,1.376,0,0,1-.325-.958,2.962,2.962,0,0,1,.2-1.028l-.114-.035a7.75,7.75,0,0,1-1.6,1.8,2.61,2.61,0,0,1-1.6.571,1.746,1.746,0,0,1-1.5-.729,3.426,3.426,0,0,1-.532-2.048,7.34,7.34,0,0,1,.593-2.9,5.373,5.373,0,0,1,1.63-2.2,3.68,3.68,0,0,1,2.312-.8,4.285,4.285,0,0,1,1.068.127A3.733,3.733,0,0,1,149.2,42.028Zm-.773,2.619a5.547,5.547,0,0,0,.105-.624q.026-.264.026-.571a1.437,1.437,0,0,0-.29-.993,1.289,1.289,0,0,0-.984-.316,2.233,2.233,0,0,0-1.626.729,4.924,4.924,0,0,0-1.125,1.956,7.777,7.777,0,0,0-.4,2.448,2.909,2.909,0,0,0,.25,1.367.882.882,0,0,0,.839.453,1.7,1.7,0,0,0,1.138-.5,6.972,6.972,0,0,0,1.151-1.428,6.229,6.229,0,0,0,.839-2.14Zm6.284-4.737q.105-.466.149-.743a3.294,3.294,0,0,0,.044-.514.689.689,0,0,0-.1-.4.542.542,0,0,0-.277-.2,2.776,2.776,0,0,0-.646-.088l.105-.457,2.215-.079h.519l-2.162,9.729a6.633,6.633,0,0,0-.193,1.3.886.886,0,0,0,.114.51.414.414,0,0,0,.36.158.978.978,0,0,0,.563-.215,6.176,6.176,0,0,0,.844-.822l.5.492a7.666,7.666,0,0,1-1.393,1.226,2.275,2.275,0,0,1-1.208.33,1.123,1.123,0,0,1-.914-.417,1.628,1.628,0,0,1-.343-1.068,8.612,8.612,0,0,1,.246-1.705Zm15.8,2.936H163.4l.246-1.415h7.128Zm-.633,3.647h-7.119l.246-1.406h7.128Zm16.049-8.288L178.98,50h-1.74l6.917-11.461h-6.68l.211-1.336h8.4Zm9.114,2.259a3.081,3.081,0,0,1-.242.989,3.406,3.406,0,0,1-.505.822,4.072,4.072,0,0,1-.712.668,5.334,5.334,0,0,1-.861.519,3.008,3.008,0,0,1,1.226,1.27,3.252,3.252,0,0,1,.33,1.736,3.917,3.917,0,0,1-.448,1.582,3.807,3.807,0,0,1-.98,1.173,4.271,4.271,0,0,1-1.371.725,4.949,4.949,0,0,1-1.622.229,4.342,4.342,0,0,1-1.446-.268,3.218,3.218,0,0,1-1.134-.712,3,3,0,0,1-.712-1.112,3.351,3.351,0,0,1-.171-1.468,3.508,3.508,0,0,1,.268-1.094,3.465,3.465,0,0,1,.567-.9,4.277,4.277,0,0,1,.8-.716,5.748,5.748,0,0,1,.98-.541,2.909,2.909,0,0,1-1.015-1.2,3.038,3.038,0,0,1-.259-1.547,3.939,3.939,0,0,1,.4-1.5,3.678,3.678,0,0,1,.892-1.147,3.839,3.839,0,0,1,1.27-.716,4.429,4.429,0,0,1,1.538-.229,3.8,3.8,0,0,1,1.367.272,2.992,2.992,0,0,1,1.046.7,2.863,2.863,0,0,1,.637,1.072A3.442,3.442,0,0,1,195.047,40.464Zm-2.338,5.968a2.524,2.524,0,0,0-.057-.91,1.974,1.974,0,0,0-.36-.743,1.763,1.763,0,0,0-.642-.5,2.256,2.256,0,0,0-.892-.2,2.725,2.725,0,0,0-1.033.176,2.6,2.6,0,0,0-.844.523,2.718,2.718,0,0,0-.593.8A3.054,3.054,0,0,0,188,46.59a2.558,2.558,0,0,0,.053.91,1.775,1.775,0,0,0,.356.708,1.732,1.732,0,0,0,.637.47,2.272,2.272,0,0,0,.888.18,2.81,2.81,0,0,0,1.037-.154,2.57,2.57,0,0,0,.848-.492,2.606,2.606,0,0,0,.6-.773A2.873,2.873,0,0,0,192.709,46.432Zm.738-5.941a2.409,2.409,0,0,0-.044-.8,1.826,1.826,0,0,0-.3-.672,1.583,1.583,0,0,0-.549-.47,1.813,1.813,0,0,0-.782-.193,2.382,2.382,0,0,0-.932.163,2.268,2.268,0,0,0-.751.483,2.467,2.467,0,0,0-.519.738,2.891,2.891,0,0,0-.25.91,2.453,2.453,0,0,0,.044.809,1.744,1.744,0,0,0,.3.664,1.569,1.569,0,0,0,.554.457,1.819,1.819,0,0,0,.8.18,2.3,2.3,0,0,0,1.666-.642,2.443,2.443,0,0,0,.519-.725A2.8,2.8,0,0,0,193.447,40.49Zm10.564-3.3-.141,1.38h-.123a5.015,5.015,0,0,0-1.85.3,4.614,4.614,0,0,0-1.437.87,5.489,5.489,0,0,0-1.077,1.332,8.952,8.952,0,0,0-.76,1.7,4.078,4.078,0,0,1,1.274-.879,3.608,3.608,0,0,1,1.521-.281,2.98,2.98,0,0,1,1.468.391,2.924,2.924,0,0,1,.976.945,3.729,3.729,0,0,1,.51,1.318,5.367,5.367,0,0,1,.07,1.5,5.683,5.683,0,0,1-.417,1.705,4.823,4.823,0,0,1-.9,1.419,4.1,4.1,0,0,1-1.336.962,3.874,3.874,0,0,1-1.731.325,3.32,3.32,0,0,1-1.169-.229,3.159,3.159,0,0,1-.918-.567,3.34,3.34,0,0,1-.672-.826,4.42,4.42,0,0,1-.426-1.011,5.641,5.641,0,0,1-.2-1.121,5.81,5.81,0,0,1,.026-1.151l.1-.765a13.532,13.532,0,0,1,.413-1.92,10.147,10.147,0,0,1,.686-1.74,7.718,7.718,0,0,1,.98-1.485,6.035,6.035,0,0,1,1.3-1.156,6.117,6.117,0,0,1,1.639-.751,7.041,7.041,0,0,1,2-.268Zm-2.927,5.766a2.538,2.538,0,0,0-.844.123,2.939,2.939,0,0,0-.751.369,3.3,3.3,0,0,0-.633.567,3.656,3.656,0,0,0-.479.7l-.079.615a6.607,6.607,0,0,0-.035.708,4.888,4.888,0,0,0,.062.769,4.228,4.228,0,0,0,.189.747,2.318,2.318,0,0,0,.338.637,1.679,1.679,0,0,0,.527.453,1.657,1.657,0,0,0,.747.193,2.112,2.112,0,0,0,1.107-.233,2.667,2.667,0,0,0,.826-.686,3.453,3.453,0,0,0,.545-.971,4.615,4.615,0,0,0,.264-1.1,4.389,4.389,0,0,0,0-.98,2.809,2.809,0,0,0-.264-.927,1.872,1.872,0,0,0-.576-.694A1.63,1.63,0,0,0,201.085,42.951Zm4.922,6.223a.983.983,0,0,1,.976-1.02.952.952,0,0,1,.712.264.908.908,0,0,1,.272.7.95.95,0,0,1-.29.7,1.046,1.046,0,0,1-.7.286,1.006,1.006,0,0,1-.391-.057.863.863,0,0,1-.308-.189.846.846,0,0,1-.2-.3A1.032,1.032,0,0,1,206.007,49.174Zm7.875-6.363,1.046.009a3.772,3.772,0,0,0,1.033-.141,2.823,2.823,0,0,0,.892-.426,2.418,2.418,0,0,0,.655-.712,2.478,2.478,0,0,0,.33-1,2.919,2.919,0,0,0-.026-.883,1.657,1.657,0,0,0-.3-.69,1.47,1.47,0,0,0-.58-.453,2.177,2.177,0,0,0-.861-.171,2.739,2.739,0,0,0-.958.145,2.36,2.36,0,0,0-.778.448,2.478,2.478,0,0,0-.558.7,3,3,0,0,0-.308.91l-1.573.009a3.78,3.78,0,0,1,.461-1.477,3.915,3.915,0,0,1,.949-1.125,4.1,4.1,0,0,1,1.31-.708,4.7,4.7,0,0,1,1.534-.233,4.063,4.063,0,0,1,1.428.272,2.961,2.961,0,0,1,1.072.716,2.85,2.85,0,0,1,.642,1.116,3.721,3.721,0,0,1,.136,1.455,2.667,2.667,0,0,1-.264.971,3.548,3.548,0,0,1-.549.809,3.867,3.867,0,0,1-.751.642,6.088,6.088,0,0,1-.879.479,2.526,2.526,0,0,1,.769.483,2.582,2.582,0,0,1,.8,1.485,3.774,3.774,0,0,1,.04.914,4.211,4.211,0,0,1-.453,1.6,4,4,0,0,1-.967,1.213,4.129,4.129,0,0,1-1.367.76,4.826,4.826,0,0,1-1.644.242,4.216,4.216,0,0,1-1.446-.272,3.287,3.287,0,0,1-1.125-.716,3,3,0,0,1-.712-1.112,3.594,3.594,0,0,1-.2-1.459l1.591.009a2.529,2.529,0,0,0,.083.9,1.838,1.838,0,0,0,.369.694,1.7,1.7,0,0,0,.633.453,2.466,2.466,0,0,0,.883.18,2.864,2.864,0,0,0,1.059-.154,2.529,2.529,0,0,0,.839-.492,2.49,2.49,0,0,0,.584-.782,3.1,3.1,0,0,0,.286-1.024,2.355,2.355,0,0,0-.07-.971,1.653,1.653,0,0,0-.413-.694,1.835,1.835,0,0,0-.7-.422,3.245,3.245,0,0,0-.949-.163l-1.23-.009Zm8.314,5.836a5.668,5.668,0,0,0,1.934-.286,4.256,4.256,0,0,0,1.45-.848,4.852,4.852,0,0,0,1.037-1.349,9.1,9.1,0,0,0,.7-1.789,5.333,5.333,0,0,1-.6.549,3.886,3.886,0,0,1-1.419.7,2.941,2.941,0,0,1-.809.092,2.836,2.836,0,0,1-1.463-.391,2.933,2.933,0,0,1-.967-.967,3.853,3.853,0,0,1-.5-1.34,5.5,5.5,0,0,1-.066-1.5,5.833,5.833,0,0,1,.417-1.718,5.009,5.009,0,0,1,.9-1.446,4.115,4.115,0,0,1,1.336-.989,3.809,3.809,0,0,1,1.745-.338,3.418,3.418,0,0,1,1.239.242,2.91,2.91,0,0,1,.923.6,3.228,3.228,0,0,1,.637.883,4.892,4.892,0,0,1,.382,1.077,6.229,6.229,0,0,1,.154,1.178,7.712,7.712,0,0,1-.048,1.2l-.079.589a13.423,13.423,0,0,1-.7,2.834,7.5,7.5,0,0,1-1.323,2.29,5.944,5.944,0,0,1-2.052,1.538,6.832,6.832,0,0,1-2.887.563h-.2l.141-1.371Zm2.628-4.271a2.358,2.358,0,0,0,.853-.119,2.96,2.96,0,0,0,.756-.382,3.7,3.7,0,0,0,.642-.571,4.09,4.09,0,0,0,.5-.694l.07-.642q.026-.325.022-.712a5.939,5.939,0,0,0-.062-.782,4.4,4.4,0,0,0-.18-.765,2.4,2.4,0,0,0-.334-.659,1.675,1.675,0,0,0-.523-.47,1.611,1.611,0,0,0-.751-.2,2.1,2.1,0,0,0-1.121.242,2.679,2.679,0,0,0-.831.708,3.621,3.621,0,0,0-.545.993,4.452,4.452,0,0,0-.255,1.107,4.39,4.39,0,0,0,0,.98,3.058,3.058,0,0,0,.255.945,1.905,1.905,0,0,0,.563.716A1.554,1.554,0,0,0,224.824,44.375Zm14.071.158q-.105.694-.272,1.384a9.734,9.734,0,0,1-.422,1.327,6.4,6.4,0,0,1-.615,1.178,4.166,4.166,0,0,1-.857.94,3.637,3.637,0,0,1-1.143.615,4.319,4.319,0,0,1-1.463.2,3.416,3.416,0,0,1-1.336-.268,2.694,2.694,0,0,1-.923-.668,3.017,3.017,0,0,1-.571-.967,5.327,5.327,0,0,1-.281-1.169,7.947,7.947,0,0,1-.057-1.274q.022-.655.1-1.288l.29-1.951a13.964,13.964,0,0,1,.264-1.38,9.064,9.064,0,0,1,.426-1.314,6.273,6.273,0,0,1,.624-1.16,4.082,4.082,0,0,1,.861-.918,3.742,3.742,0,0,1,1.134-.6,4.322,4.322,0,0,1,1.455-.193,3.567,3.567,0,0,1,1.34.259,2.644,2.644,0,0,1,.927.65,2.934,2.934,0,0,1,.571.949,5.172,5.172,0,0,1,.281,1.151,7.806,7.806,0,0,1,.057,1.266q-.022.655-.1,1.288ZM237.647,42.3q.044-.369.083-.8a7.592,7.592,0,0,0,.031-.857,4.582,4.582,0,0,0-.092-.835,2.29,2.29,0,0,0-.277-.725,1.5,1.5,0,0,0-.523-.519,1.73,1.73,0,0,0-.839-.215,2.452,2.452,0,0,0-.967.145,2.27,2.27,0,0,0-.738.457,2.952,2.952,0,0,0-.545.69,5.025,5.025,0,0,0-.387.844,7.479,7.479,0,0,0-.259.918q-.1.47-.163.91l-.369,2.487q-.044.352-.083.787a7.96,7.96,0,0,0-.031.879,4.876,4.876,0,0,0,.092.861,2.445,2.445,0,0,0,.277.751,1.591,1.591,0,0,0,.519.545,1.614,1.614,0,0,0,.835.229,2.238,2.238,0,0,0,.976-.149,2.377,2.377,0,0,0,.738-.479,2.984,2.984,0,0,0,.545-.716,5.462,5.462,0,0,0,.387-.875,7.5,7.5,0,0,0,.255-.936q.1-.475.158-.905Zm2.733,6.873a.983.983,0,0,1,.976-1.02.952.952,0,0,1,.712.264.908.908,0,0,1,.272.7.95.95,0,0,1-.29.7,1.046,1.046,0,0,1-.7.286,1.006,1.006,0,0,1-.391-.057.863.863,0,0,1-.308-.189.846.846,0,0,1-.2-.3A1.032,1.032,0,0,1,240.381,49.174Zm13.1-4.641q-.105.694-.272,1.384a9.734,9.734,0,0,1-.422,1.327,6.4,6.4,0,0,1-.615,1.178,4.166,4.166,0,0,1-.857.94,3.637,3.637,0,0,1-1.143.615,4.319,4.319,0,0,1-1.463.2,3.416,3.416,0,0,1-1.336-.268,2.694,2.694,0,0,1-.923-.668,3.017,3.017,0,0,1-.571-.967,5.327,5.327,0,0,1-.281-1.169,7.947,7.947,0,0,1-.057-1.274q.022-.655.1-1.288l.29-1.951a13.964,13.964,0,0,1,.264-1.38,9.064,9.064,0,0,1,.426-1.314,6.273,6.273,0,0,1,.624-1.16,4.082,4.082,0,0,1,.861-.918,3.742,3.742,0,0,1,1.134-.6,4.322,4.322,0,0,1,1.455-.193,3.567,3.567,0,0,1,1.34.259,2.644,2.644,0,0,1,.927.65,2.934,2.934,0,0,1,.571.949,5.172,5.172,0,0,1,.281,1.151,7.806,7.806,0,0,1,.057,1.266q-.022.655-.1,1.288ZM252.229,42.3q.044-.369.083-.8a7.592,7.592,0,0,0,.031-.857,4.582,4.582,0,0,0-.092-.835,2.29,2.29,0,0,0-.277-.725,1.5,1.5,0,0,0-.523-.519,1.73,1.73,0,0,0-.839-.215,2.452,2.452,0,0,0-.967.145,2.27,2.27,0,0,0-.738.457,2.952,2.952,0,0,0-.545.69,5.025,5.025,0,0,0-.387.844,7.479,7.479,0,0,0-.259.918q-.1.47-.163.91l-.369,2.487q-.044.352-.083.787a7.96,7.96,0,0,0-.031.879,4.876,4.876,0,0,0,.092.861,2.445,2.445,0,0,0,.277.751,1.591,1.591,0,0,0,.519.545,1.614,1.614,0,0,0,.835.229,2.238,2.238,0,0,0,.976-.149,2.377,2.377,0,0,0,.738-.479,2.984,2.984,0,0,0,.545-.716,5.462,5.462,0,0,0,.387-.875,7.5,7.5,0,0,0,.255-.936q.1-.475.158-.905Zm11.145,2.232q-.105.694-.272,1.384a9.734,9.734,0,0,1-.422,1.327,6.4,6.4,0,0,1-.615,1.178,4.166,4.166,0,0,1-.857.94,3.637,3.637,0,0,1-1.143.615,4.319,4.319,0,0,1-1.463.2,3.416,3.416,0,0,1-1.336-.268,2.694,2.694,0,0,1-.923-.668,3.017,3.017,0,0,1-.571-.967,5.327,5.327,0,0,1-.281-1.169,7.947,7.947,0,0,1-.057-1.274q.022-.655.1-1.288l.29-1.951a13.964,13.964,0,0,1,.264-1.38,9.064,9.064,0,0,1,.426-1.314,6.273,6.273,0,0,1,.624-1.16,4.082,4.082,0,0,1,.861-.918,3.742,3.742,0,0,1,1.134-.6,4.322,4.322,0,0,1,1.455-.193,3.567,3.567,0,0,1,1.34.259,2.644,2.644,0,0,1,.927.65,2.934,2.934,0,0,1,.571.949,5.172,5.172,0,0,1,.281,1.151,7.806,7.806,0,0,1,.057,1.266q-.022.655-.1,1.288ZM262.125,42.3q.044-.369.083-.8a7.592,7.592,0,0,0,.031-.857,4.582,4.582,0,0,0-.092-.835,2.29,2.29,0,0,0-.277-.725,1.5,1.5,0,0,0-.523-.519,1.73,1.73,0,0,0-.839-.215,2.452,2.452,0,0,0-.967.145,2.27,2.27,0,0,0-.738.457,2.952,2.952,0,0,0-.545.69,5.025,5.025,0,0,0-.387.844,7.479,7.479,0,0,0-.259.918q-.1.47-.163.91l-.369,2.487q-.044.352-.083.787a7.96,7.96,0,0,0-.031.879,4.876,4.876,0,0,0,.092.861,2.445,2.445,0,0,0,.277.751,1.591,1.591,0,0,0,.519.545,1.614,1.614,0,0,0,.835.229,2.238,2.238,0,0,0,.976-.149,2.377,2.377,0,0,0,.738-.479,2.984,2.984,0,0,0,.545-.716,5.462,5.462,0,0,0,.387-.875,7.5,7.5,0,0,0,.255-.936q.1-.475.158-.905Zm11.145,2.232q-.105.694-.272,1.384a9.734,9.734,0,0,1-.422,1.327,6.4,6.4,0,0,1-.615,1.178,4.166,4.166,0,0,1-.857.94,3.637,3.637,0,0,1-1.143.615,4.319,4.319,0,0,1-1.463.2,3.416,3.416,0,0,1-1.336-.268,2.694,2.694,0,0,1-.923-.668,3.017,3.017,0,0,1-.571-.967,5.327,5.327,0,0,1-.281-1.169,7.947,7.947,0,0,1-.057-1.274q.022-.655.1-1.288l.29-1.951a13.964,13.964,0,0,1,.264-1.38,9.064,9.064,0,0,1,.426-1.314,6.273,6.273,0,0,1,.624-1.16,4.082,4.082,0,0,1,.861-.918,3.742,3.742,0,0,1,1.134-.6,4.322,4.322,0,0,1,1.455-.193,3.567,3.567,0,0,1,1.34.259,2.644,2.644,0,0,1,.927.65,2.934,2.934,0,0,1,.571.949,5.172,5.172,0,0,1,.281,1.151,7.806,7.806,0,0,1,.057,1.266q-.022.655-.1,1.288ZM272.021,42.3q.044-.369.083-.8a7.592,7.592,0,0,0,.031-.857,4.582,4.582,0,0,0-.092-.835,2.29,2.29,0,0,0-.277-.725,1.5,1.5,0,0,0-.523-.519,1.73,1.73,0,0,0-.839-.215,2.452,2.452,0,0,0-.967.145,2.27,2.27,0,0,0-.738.457,2.952,2.952,0,0,0-.545.69,5.025,5.025,0,0,0-.387.844,7.479,7.479,0,0,0-.259.918q-.1.47-.163.91l-.369,2.487q-.044.352-.083.787a7.96,7.96,0,0,0-.031.879,4.876,4.876,0,0,0,.092.861,2.445,2.445,0,0,0,.277.751,1.591,1.591,0,0,0,.519.545,1.614,1.614,0,0,0,.835.229,2.238,2.238,0,0,0,.976-.149,2.377,2.377,0,0,0,.738-.479,2.984,2.984,0,0,0,.545-.716,5.462,5.462,0,0,0,.387-.875,7.5,7.5,0,0,0,.255-.936q.1-.475.158-.905Z" transform="translate(-1.187 14.449)" fill="#12263f"/>
</svg>
