<svg xmlns="http://www.w3.org/2000/svg" width="400.706" height="393.544" viewBox="0 0 400.706 393.544">
  <g id="Revenue-bro" transform="translate(-34.414 -43.43)">
    <g id="freepik--background-simple--inject-92" transform="translate(39.216 51.827)">
      <path id="Trazado_112663" data-name="Trazado 112663" d="M313.323,63.083c-20.391,11.663-34.773,31.278-52.2,47.025a167.933,167.933,0,0,1-76.556,39.25c-23.363,5.056-47.773,5.131-70.285,13.083-43.922,15.41-74,61.146-74.761,107.647s25.7,91.583,64.585,117.076a154.79,154.79,0,0,0,42.988,19.578c28.6,8.046,58.921,7.691,88.471,4.617,51.043-5.317,104.554-34.306,136.729-75.173a293.2,293.2,0,0,0,36.11-59.3,295.73,295.73,0,0,0,26.652-110.413c1.355-32.708,0-68.967-25.952-92.807S343.742,45.672,313.323,63.083Z" transform="translate(-39.503 -52.415)" fill="#eaccb2"/>
      <path id="Trazado_112664" data-name="Trazado 112664" d="M313.323,63.083c-20.391,11.663-34.773,31.278-52.2,47.025a167.933,167.933,0,0,1-76.556,39.25c-23.363,5.056-47.773,5.131-70.285,13.083-43.922,15.41-74,61.146-74.761,107.647s25.7,91.583,64.585,117.076a154.79,154.79,0,0,0,42.988,19.578c28.6,8.046,58.921,7.691,88.471,4.617,51.043-5.317,104.554-34.306,136.729-75.173a293.2,293.2,0,0,0,36.11-59.3,295.73,295.73,0,0,0,26.652-110.413c1.355-32.708,0-68.967-25.952-92.807S343.742,45.672,313.323,63.083Z" transform="translate(-39.503 -52.415)" fill="#fff" opacity="0.7"/>
    </g>
    <g id="freepik--Shadow--inject-92" transform="translate(91.799 346.7)">
      <ellipse id="Elipse_4392" data-name="Elipse 4392" cx="167.587" cy="45.137" rx="167.587" ry="45.137" fill="#eaccb2"/>
      <ellipse id="Elipse_4393" data-name="Elipse 4393" cx="167.587" cy="45.137" rx="167.587" ry="45.137" fill="#fff" opacity="0.5"/>
    </g>
    <g id="freepik--Window--inject-92" transform="translate(74.426 43.43)">
      <rect id="Rectángulo_28747" data-name="Rectángulo 28747" width="213.752" height="127.179" rx="8.95" transform="translate(0 23.241)" fill="#fff"/>
      <path id="Trazado_112665" data-name="Trazado 112665" d="M290.932,76.661v3.308H77.18V76.661a8.411,8.411,0,0,1,8.364-8.411H282.606a8.355,8.355,0,0,1,8.327,8.411Z" transform="translate(-77.18 -45.055)" fill="#eaccb2"/>
      <rect id="Rectángulo_28748" data-name="Rectángulo 28748" width="213.752" height="127.179" rx="8.95" transform="translate(0 23.241)" fill="none" stroke="#263238" stroke-linecap="round" stroke-linejoin="round" stroke-width="1"/>
      <path id="Trazado_112666" data-name="Trazado 112666" d="M290.932,76.661v3.308H77.18V76.661a8.411,8.411,0,0,1,8.364-8.411H282.606a8.355,8.355,0,0,1,8.327,8.411Z" transform="translate(-77.18 -45.055)" fill="none" stroke="#263238" stroke-linecap="round" stroke-linejoin="round" stroke-width="1"/>
      <path id="Trazado_112667" data-name="Trazado 112667" d="M102.57,74.391a2.14,2.14,0,1,1-2.14-2.131,2.14,2.14,0,0,1,2.14,2.131Z" transform="translate(-78.562 -45.318)" fill="#263238"/>
      <path id="Trazado_112668" data-name="Trazado 112668" d="M114.52,74.391a2.14,2.14,0,1,1-2.14-2.131,2.14,2.14,0,0,1,2.14,2.131Z" transform="translate(-79.345 -45.318)" fill="#263238"/>
      <circle id="Elipse_4394" data-name="Elipse 4394" cx="2.14" cy="2.14" r="2.14" transform="translate(42.063 26.933)" fill="#263238"/>
      <rect id="Rectángulo_28749" data-name="Rectángulo 28749" width="67.332" height="35.97" rx="3.69" transform="translate(12.672 44.175)" fill="none" stroke="#263238" stroke-linecap="round" stroke-linejoin="round" stroke-width="1"/>
      <line id="Línea_790" data-name="Línea 790" x2="58.379" transform="translate(16.634 75.621)" fill="none" stroke="#263238" stroke-linecap="round" stroke-linejoin="round" stroke-width="1"/>
      <rect id="Rectángulo_28750" data-name="Rectángulo 28750" width="6.775" height="6.775" transform="translate(20.971 68.753)" fill="#aed3f2" stroke="#263238" stroke-miterlimit="10" stroke-width="1"/>
      <rect id="Rectángulo_28751" data-name="Rectángulo 28751" width="6.775" height="15.775" transform="translate(30.886 59.847)" fill="#aed3f2" stroke="#263238" stroke-miterlimit="10" stroke-width="1"/>
      <rect id="Rectángulo_28752" data-name="Rectángulo 28752" width="6.775" height="13.223" transform="translate(42.053 62.557)" fill="#aed3f2" stroke="#263238" stroke-miterlimit="10" stroke-width="1"/>
      <rect id="Rectángulo_28753" data-name="Rectángulo 28753" width="6.775" height="25.933" transform="translate(53.791 49.389)" fill="#aed3f2" stroke="#263238" stroke-miterlimit="10" stroke-width="1"/>
      <rect id="Rectángulo_28754" data-name="Rectángulo 28754" width="6.775" height="25.933" transform="translate(65.519 49.595)" fill="#aed3f2" stroke="#263238" stroke-miterlimit="10" stroke-width="1"/>
      <circle id="Elipse_4395" data-name="Elipse 4395" cx="18.943" cy="18.943" r="18.943" transform="translate(144.542 44.119)" fill="#eaccb2" stroke="#263238" stroke-miterlimit="10" stroke-width="1"/>
      <path id="Trazado_112669" data-name="Trazado 112669" d="M253.248,121.758V123.7H250.07v-1.944a5.775,5.775,0,0,1-4.411-5.887v-.878l3.6-.393v.935c0,1.8.935,2.9,2.4,2.9a2.215,2.215,0,0,0,2.392-2.364c0-1.729-1.617-3.215-3.523-4.794-2.262-1.869-4.514-4.093-4.514-7.233s1.477-5.261,4.056-5.9V96.19h3.177v1.934c2.607.607,4.121,2.8,4.121,5.934v.635l-3.6.383v-.654c0-1.869-.738-2.9-2.047-2.9s-2.047.813-2.047,2.364c0,1.729,1.663,3.177,3.532,4.794,2.224,1.869,4.514,4.093,4.514,7.233a5.747,5.747,0,0,1-4.476,5.841Z" transform="translate(-88.212 -46.885)" fill="#263238"/>
      <line id="Línea_791" data-name="Línea 791" x2="5.532" transform="translate(11.102 98.517)" fill="none" stroke="#263238" stroke-linecap="round" stroke-linejoin="round" stroke-width="1"/>
      <line id="Línea_792" data-name="Línea 792" x2="5.532" transform="translate(11.102 109.208)" fill="none" stroke="#263238" stroke-linecap="round" stroke-linejoin="round" stroke-width="1"/>
      <line id="Línea_793" data-name="Línea 793" x2="5.532" transform="translate(11.102 119.908)" fill="none" stroke="#263238" stroke-linecap="round" stroke-linejoin="round" stroke-width="1"/>
      <line id="Línea_794" data-name="Línea 794" x2="5.532" transform="translate(11.102 130.599)" fill="none" stroke="#263238" stroke-linecap="round" stroke-linejoin="round" stroke-width="1"/>
      <line id="Línea_795" data-name="Línea 795" y1="4.299" transform="translate(28.83 134.374)" fill="none" stroke="#263238" stroke-linecap="round" stroke-linejoin="round" stroke-width="1"/>
      <line id="Línea_796" data-name="Línea 796" y1="4.299" transform="translate(37.596 134.374)" fill="none" stroke="#263238" stroke-linecap="round" stroke-linejoin="round" stroke-width="1"/>
      <line id="Línea_797" data-name="Línea 797" y1="4.299" transform="translate(46.361 134.374)" fill="none" stroke="#263238" stroke-linecap="round" stroke-linejoin="round" stroke-width="1"/>
      <line id="Línea_798" data-name="Línea 798" y1="4.299" transform="translate(55.137 134.374)" fill="none" stroke="#263238" stroke-linecap="round" stroke-linejoin="round" stroke-width="1"/>
      <line id="Línea_799" data-name="Línea 799" y1="4.299" transform="translate(63.902 134.374)" fill="none" stroke="#263238" stroke-linecap="round" stroke-linejoin="round" stroke-width="1"/>
      <line id="Línea_800" data-name="Línea 800" y1="4.299" transform="translate(72.668 134.374)" fill="none" stroke="#263238" stroke-linecap="round" stroke-linejoin="round" stroke-width="1"/>
      <line id="Línea_801" data-name="Línea 801" y1="4.299" transform="translate(81.434 134.374)" fill="none" stroke="#263238" stroke-linecap="round" stroke-linejoin="round" stroke-width="1"/>
      <line id="Línea_802" data-name="Línea 802" y1="4.299" transform="translate(90.209 134.374)" fill="none" stroke="#263238" stroke-linecap="round" stroke-linejoin="round" stroke-width="1"/>
      <line id="Línea_803" data-name="Línea 803" y1="4.299" transform="translate(98.975 134.374)" fill="none" stroke="#263238" stroke-linecap="round" stroke-linejoin="round" stroke-width="1"/>
      <line id="Línea_804" data-name="Línea 804" y1="4.299" transform="translate(107.741 134.374)" fill="none" stroke="#263238" stroke-linecap="round" stroke-linejoin="round" stroke-width="1"/>
      <line id="Línea_805" data-name="Línea 805" y1="4.299" transform="translate(116.506 134.374)" fill="none" stroke="#263238" stroke-linecap="round" stroke-linejoin="round" stroke-width="1"/>
      <line id="Línea_806" data-name="Línea 806" y1="4.299" transform="translate(125.282 134.374)" fill="none" stroke="#263238" stroke-linecap="round" stroke-linejoin="round" stroke-width="1"/>
      <line id="Línea_807" data-name="Línea 807" y1="4.299" transform="translate(134.047 134.374)" fill="none" stroke="#263238" stroke-linecap="round" stroke-linejoin="round" stroke-width="1"/>
      <line id="Línea_808" data-name="Línea 808" y1="4.299" transform="translate(142.813 134.374)" fill="none" stroke="#263238" stroke-linecap="round" stroke-linejoin="round" stroke-width="1"/>
      <line id="Línea_809" data-name="Línea 809" y1="4.299" transform="translate(151.579 134.374)" fill="none" stroke="#263238" stroke-linecap="round" stroke-linejoin="round" stroke-width="1"/>
      <line id="Línea_810" data-name="Línea 810" y1="4.299" transform="translate(160.018 134.374)" fill="none" stroke="#263238" stroke-linecap="round" stroke-linejoin="round" stroke-width="1"/>
      <line id="Línea_811" data-name="Línea 811" y1="4.299" transform="translate(168.456 134.374)" fill="none" stroke="#263238" stroke-linecap="round" stroke-linejoin="round" stroke-width="1"/>
      <line id="Línea_812" data-name="Línea 812" y1="4.299" transform="translate(176.886 134.374)" fill="none" stroke="#263238" stroke-linecap="round" stroke-linejoin="round" stroke-width="1"/>
      <path id="Trazado_112670" data-name="Trazado 112670" d="M277.156,141.489v41.549c0,2.85-2.9,5.149-6.467,5.149H95.542a6.934,6.934,0,0,1-5.607-2.533A4.42,4.42,0,0,1,89,183.038V141.489c0-2.8,2.9-5.149,6.467-5.149H270.689C274.259,136.34,277.156,138.639,277.156,141.489Z" transform="translate(-77.954 -49.514)" fill="none" stroke="#eaccb2" stroke-linecap="round" stroke-linejoin="round" stroke-width="1"/>
      <path id="Trazado_112671" data-name="Trazado 112671" d="M223.9,55.521l-55.912,75.322-21.382,28.8-23.363-14.878L94.66,182.69h-.411a5.149,5.149,0,0,1-4.439-2.533l32.119-42.623,23.363,14.849,15.99-21.494,58.3-78.5Z" transform="translate(-78.007 -44.017)" fill="#263238"/>
      <path id="Trazado_112672" data-name="Trazado 112672" d="M218.12,55.887,238.67,43.43l-5.682,21.55-3.626-9.971Z" transform="translate(-86.409 -43.43)" fill="#263238"/>
    </g>
    <g id="freepik--Floor--inject-92" transform="translate(35.12 120.388)">
      <path id="Trazado_112673" data-name="Trazado 112673" d="M400.619,310.52H71.959L35.12,343.275" transform="translate(-35.12 -137.877)" fill="none" stroke="#263238" stroke-linecap="round" stroke-linejoin="round" stroke-width="1"/>
      <line id="Línea_813" data-name="Línea 813" y1="63.687" transform="translate(37.044 86.022)" fill="none" stroke="#263238" stroke-linecap="round" stroke-linejoin="round" stroke-width="1"/>
      <line id="Línea_814" data-name="Línea 814" y1="12.317" transform="translate(37.044 156.625)" fill="none" stroke="#263238" stroke-linecap="round" stroke-linejoin="round" stroke-width="1"/>
      <g id="freepik--freepik--Plants--inject-120--inject-92" transform="translate(299.55 0)">
        <path id="Trazado_112674" data-name="Trazado 112674" d="M404.011,143.48s0-3.85-5.392-9.233-8.85-8.467-8.85-8.467-2.7,8.85,2.308,14.242a94.383,94.383,0,0,0,11.934,10.411Z" transform="translate(-357.846 -125.78)" fill="#aed3f2"/>
        <path id="Trazado_112675" data-name="Trazado 112675" d="M395.641,169.209s0-3.85-5.392-9.242-8.85-8.467-8.85-8.467-2.691,8.85,2.308,14.242a95.917,95.917,0,0,0,11.934,10.42Z" transform="translate(-357.298 -127.464)" fill="#aed3f2"/>
        <path id="Trazado_112676" data-name="Trazado 112676" d="M404.639,150.612s.411-3.832,6.336-8.626,9.7-7.476,9.7-7.476,1.738,9.112-3.8,13.915A94.862,94.862,0,0,1,403.91,157.5Z" transform="translate(-358.819 -126.352)" fill="#aed3f2"/>
        <path id="Trazado_112677" data-name="Trazado 112677" d="M394.48,181.116s.813-3.738,7.205-7.906,10.42-6.429,10.42-6.429.776,9.224-5.215,13.448a94.186,94.186,0,0,1-13.84,7.654Z" transform="translate(-358.108 -128.465)" fill="#aed3f2"/>
        <path id="Trazado_112678" data-name="Trazado 112678" d="M396.49,213.99s0-3.85,5.383-9.233,8.85-8.467,8.85-8.467,2.7,8.859-2.308,14.242a93.657,93.657,0,0,1-11.924,10.42Z" transform="translate(-358.333 -130.397)" fill="#aed3f2"/>
        <path id="Trazado_112679" data-name="Trazado 112679" d="M395.462,221.95s.542-3.813-4.028-9.906-7.551-9.644-7.551-9.644-3.906,8.411.271,14.429a94.79,94.79,0,0,0,10.336,11.981Z" transform="translate(-357.399 -130.797)" fill="#aed3f2"/>
        <path id="Trazado_112680" data-name="Trazado 112680" d="M390.7,246.034s0-3.841,5.392-9.233,8.85-8.411,8.85-8.411,2.7,8.85-2.308,14.233a94.384,94.384,0,0,1-11.934,10.42Z" transform="translate(-357.954 -132.499)" fill="#aed3f2"/>
        <path id="Trazado_112681" data-name="Trazado 112681" d="M394.543,267.55s-.935-3.738,2.888-10.28,6.42-10.42,6.42-10.42,4.841,7.887,1.374,14.364a94.58,94.58,0,0,1-8.915,13.083Z" transform="translate(-358.199 -133.708)" fill="#aed3f2"/>
        <path id="Trazado_112682" data-name="Trazado 112682" d="M404.587,143.7a109.117,109.117,0,0,1-1.477,11.943c-2.131,11.009-7.476,18.111-9.588,28.036s3.99,22.756,2.355,35.512-6.616,19.868-5.215,28.391,8.878,31.587,8.878,31.587" transform="translate(-357.936 -126.953)" fill="none" stroke="#263238" stroke-linecap="round" stroke-linejoin="round" stroke-width="1.177"/>
        <line id="Línea_815" data-name="Línea 815" y1="4.467" x2="5.803" transform="translate(45.773 22.354)" fill="none" stroke="#263238" stroke-linecap="round" stroke-linejoin="round" stroke-width="1.177"/>
        <line id="Línea_816" data-name="Línea 816" x1="2.42" y1="4.327" transform="translate(43.614 17.363)" fill="none" stroke="#263238" stroke-linecap="round" stroke-linejoin="round" stroke-width="1.177"/>
        <path id="Trazado_112683" data-name="Trazado 112683" d="M394.09,185.489s4.859-3.654,9.859-7.3" transform="translate(-358.176 -129.212)" fill="none" stroke="#263238" stroke-linecap="round" stroke-linejoin="round" stroke-width="1.177"/>
        <path id="Trazado_112684" data-name="Trazado 112684" d="M396.084,176.914A77.885,77.885,0,0,0,387.44,163.7" transform="translate(-357.741 -128.263)" fill="none" stroke="#263238" stroke-linecap="round" stroke-linejoin="round" stroke-width="1.177"/>
        <path id="Trazado_112685" data-name="Trazado 112685" d="M396.69,220.116a60.352,60.352,0,0,1,10.42-13.906" transform="translate(-358.346 -131.047)" fill="none" stroke="#263238" stroke-linecap="round" stroke-linejoin="round" stroke-width="1.177"/>
        <path id="Trazado_112686" data-name="Trazado 112686" d="M395.08,225.837a68.594,68.594,0,0,0-5.308-10.009c-2.8-4.187-3.252-4.729-3.252-4.729" transform="translate(-357.68 -131.367)" fill="none" stroke="#263238" stroke-linecap="round" stroke-linejoin="round" stroke-width="1.177"/>
        <path id="Trazado_112687" data-name="Trazado 112687" d="M390.7,253.705a65.024,65.024,0,0,1,4.383-8.859,57.525,57.525,0,0,1,5.663-7.476" transform="translate(-357.954 -133.087)" fill="none" stroke="#263238" stroke-linecap="round" stroke-linejoin="round" stroke-width="1.177"/>
        <path id="Trazado_112688" data-name="Trazado 112688" d="M396.425,274.8a16.466,16.466,0,0,1,1.458-8.523c2.028-3.916,4.317-9.056,5.271-11.074" transform="translate(-358.324 -134.255)" fill="none" stroke="#263238" stroke-linecap="round" stroke-linejoin="round" stroke-width="1.177"/>
        <path id="Trazado_112689" data-name="Trazado 112689" d="M367.3,198.853s-.421-2.4,2.374-6.373,4.673-6.28,4.673-6.28,2.645,5.252.093,9.177a59.957,59.957,0,0,1-6.355,7.813Z" transform="translate(-356.42 -129.736)" fill="#aed3f2"/>
        <path id="Trazado_112690" data-name="Trazado 112690" d="M375.338,214.113s-.421-2.42,2.374-6.383,4.673-6.271,4.673-6.271,2.645,5.261.093,9.177a59.339,59.339,0,0,1-6.355,7.813Z" transform="translate(-356.947 -130.736)" fill="#aed3f2"/>
        <path id="Trazado_112691" data-name="Trazado 112691" d="M367.463,203.517s-.654-2.355-4.906-4.673-6.9-3.645-6.9-3.645-.1,5.859,3.906,8.317a59.941,59.941,0,0,0,9.112,4.28Z" transform="translate(-355.66 -130.326)" fill="#aed3f2"/>
        <path id="Trazado_112692" data-name="Trazado 112692" d="M377.045,221.555s-.935-2.271-5.383-4.168-7.243-2.9-7.243-2.9.514,5.859,4.747,7.859a60.293,60.293,0,0,0,9.513,3.3Z" transform="translate(-356.233 -131.589)" fill="#aed3f2"/>
        <path id="Trazado_112693" data-name="Trazado 112693" d="M379.565,242.33s-.421-2.411-4.383-5.205-6.476-4.355-6.476-4.355-.729,5.859,3,8.682a59.716,59.716,0,0,0,8.607,5.205Z" transform="translate(-356.51 -132.786)" fill="#aed3f2"/>
        <path id="Trazado_112694" data-name="Trazado 112694" d="M381.251,247.143s-.757-2.327,1.448-6.644,3.738-6.869,3.738-6.869,3.364,4.822,1.4,9.074a60.935,60.935,0,0,1-5.215,8.635Z" transform="translate(-357.327 -132.842)" fill="#aed3f2"/>
        <path id="Trazado_112695" data-name="Trazado 112695" d="M388.465,268.211s.28-2.43,4.074-5.448,6.215-4.673,6.215-4.673,1.065,5.794-2.5,8.841a60.633,60.633,0,0,1-8.289,5.7Z" transform="translate(-357.775 -134.444)" fill="#aed3f2"/>
        <path id="Trazado_112696" data-name="Trazado 112696" d="M386.666,261.83s-.421-2.42-4.383-5.215-6.467-4.346-6.467-4.346-.729,5.859,2.99,8.682a60.146,60.146,0,0,0,8.616,5.205Z" transform="translate(-356.976 -134.063)" fill="#aed3f2"/>
        <path id="Trazado_112697" data-name="Trazado 112697" d="M386.749,275.7s.215-2.448-2.916-6.149-5.159-5.859-5.159-5.859-2.187,5.467.7,9.158a61.085,61.085,0,0,0,7.009,7.242Z" transform="translate(-357.115 -134.811)" fill="#aed3f2"/>
        <path id="Trazado_112698" data-name="Trazado 112698" d="M366.85,199.14a69.149,69.149,0,0,0,2.234,7.336c2.523,6.663,6.635,10.541,9.046,16.541s0,14.7,2.383,22.522,6.308,11.719,6.336,17.242-2.1,20.784-2.1,20.784" transform="translate(-356.393 -130.584)" fill="none" stroke="#263238" stroke-linecap="round" stroke-linejoin="round" stroke-width="1.177"/>
        <line id="Línea_817" data-name="Línea 817" x1="4.121" y1="2.159" transform="translate(7.99 72.631)" fill="none" stroke="#263238" stroke-linecap="round" stroke-linejoin="round" stroke-width="1.177"/>
        <line id="Línea_818" data-name="Línea 818" y1="2.972" x2="1.056" transform="translate(11.383 68.631)" fill="none" stroke="#263238" stroke-linecap="round" stroke-linejoin="round" stroke-width="1.177"/>
        <path id="Trazado_112699" data-name="Trazado 112699" d="M378.171,224.174s-3.448-1.757-6.971-3.5" transform="translate(-356.677 -131.994)" fill="none" stroke="#263238" stroke-linecap="round" stroke-linejoin="round" stroke-width="1.177"/>
        <path id="Trazado_112700" data-name="Trazado 112700" d="M376.14,218.994a49.387,49.387,0,0,1,3.99-9.214" transform="translate(-357.001 -131.28)" fill="none" stroke="#263238" stroke-linecap="round" stroke-linejoin="round" stroke-width="1.177"/>
        <path id="Trazado_112701" data-name="Trazado 112701" d="M380.277,246.188a38.454,38.454,0,0,0-8.037-7.588" transform="translate(-356.745 -133.168)" fill="none" stroke="#263238" stroke-linecap="round" stroke-linejoin="round" stroke-width="1.177"/>
        <path id="Trazado_112702" data-name="Trazado 112702" d="M382.1,249.528a42.846,42.846,0,0,1,2.215-6.831c1.3-2.944,1.523-3.327,1.523-3.327" transform="translate(-357.391 -133.218)" fill="none" stroke="#263238" stroke-linecap="round" stroke-linejoin="round" stroke-width="1.177"/>
        <path id="Trazado_112703" data-name="Trazado 112703" d="M388.06,271.2a35.948,35.948,0,0,1,4.43-4.6,23.806,23.806,0,0,0,2.878-2.514" transform="translate(-357.781 -134.837)" fill="none" stroke="#263238" stroke-linecap="round" stroke-linejoin="round" stroke-width="1.177"/>
        <path id="Trazado_112704" data-name="Trazado 112704" d="M387.682,266.6a41.933,41.933,0,0,0-3.738-5.074,36.444,36.444,0,0,0-4.364-4.046" transform="translate(-357.226 -134.404)" fill="none" stroke="#263238" stroke-linecap="round" stroke-linejoin="round" stroke-width="1.177"/>
        <path id="Trazado_112705" data-name="Trazado 112705" d="M386.553,280.428a10.542,10.542,0,0,0-1.869-5.205c-1.7-2.243-3.738-5.215-4.5-6.383" transform="translate(-357.265 -135.148)" fill="none" stroke="#263238" stroke-linecap="round" stroke-linejoin="round" stroke-width="1.177"/>
        <path id="Trazado_112706" data-name="Trazado 112706" d="M404.083,315.609h-24.54a1.869,1.869,0,0,1-1.869-1.822L374.15,286.63H409.4l-3.523,27.157A1.869,1.869,0,0,1,404.083,315.609Z" transform="translate(-356.871 -136.313)" fill="#263238"/>
        <path id="Trazado_112707" data-name="Trazado 112707" d="M408.929,291.156H374a2.747,2.747,0,0,1-2.757-2.729h0a2.8,2.8,0,0,1,2.748-2.757h34.942a2.747,2.747,0,0,1,2.757,2.747h0a2.747,2.747,0,0,1-2.757,2.738Z" transform="translate(-356.68 -136.25)" fill="#263238"/>
      </g>
    </g>
    <g id="freepik--Coins--inject-92" transform="translate(239.671 81.271)">
      <path id="Trazado_112708" data-name="Trazado 112708" d="M322.5,172.932a33.929,33.929,0,0,1-26.277,33.051h-.114c-.888.2-1.776.374-2.691.5a34.648,34.648,0,0,1-4.85.346,33.929,33.929,0,1,1-1.252-67.846c.308.008.635.008.935.008a1.608,1.608,0,0,1,.3,0,2.146,2.146,0,0,1,.346,0,33.41,33.41,0,0,1,13.289,2.85A33.932,33.932,0,0,1,322.5,172.929Z" transform="translate(-254.004 -87.529)" fill="#eaccb2"/>
      <path id="Trazado_112709" data-name="Trazado 112709" d="M302.694,141.862c-39.184-2.037-39.371,41.465-39.371,41.465s-5.981-14.2,3.785-29.9c5.458-8.794,14.952-12.672,22.3-14.392a33.409,33.409,0,0,1,13.289,2.832Z" transform="translate(-254.495 -87.531)" fill="#fff" opacity="0.4"/>
      <path id="Trazado_112710" data-name="Trazado 112710" d="M322.5,172.932a33.931,33.931,0,0,1-26.388,33.082,33.369,33.369,0,0,1-7.544.851A33.938,33.938,0,1,1,287.316,139h1.252A33.942,33.942,0,0,1,322.5,172.932Z" transform="translate(-254.004 -87.529)" fill="none" stroke="#263238" stroke-linecap="round" stroke-linejoin="round" stroke-width="1"/>
      <path id="Trazado_112711" data-name="Trazado 112711" d="M322.991,172.932A33.931,33.931,0,0,1,296.6,206.014h-1.255A33.942,33.942,0,0,1,287.806,139h1.252a33.942,33.942,0,0,1,33.932,33.932Z" transform="translate(-254.494 -87.529)" fill="none" stroke="#263238" stroke-linecap="round" stroke-linejoin="round" stroke-width="1"/>
      <path id="Trazado_112712" data-name="Trazado 112712" d="M301.968,194.69l.878,3.589-5.869,1.43-.878-3.579c-5.252,0-9.467-3.411-10.812-8.887l-.4-1.626,6.476-2.346.411,1.691c.813,3.327,3.009,4.925,5.747,4.252a4.205,4.205,0,0,0,3.355-5.448c-.785-3.2-4.448-5.2-8.691-7.261-5.018-2.43-10.2-5.514-11.616-11.317-1.383-5.663.355-10.382,4.831-12.719l-.878-3.589,5.859-1.43.878,3.579c5.093-.075,8.887,3.28,10.28,9.074l.29,1.177-6.467,2.346-.327-1.3c-.86-3.523-2.673-5.009-5.084-4.42s-3.411,2.43-2.71,5.289c.785,3.2,4.5,5.121,8.691,7.271,4.962,2.514,10.2,5.514,11.616,11.308C308.977,187.354,306.7,192.326,301.968,194.69Z" transform="translate(-255.713 -88.083)" fill="none" stroke="#263238" stroke-miterlimit="10" stroke-width="1"/>
      <path id="Trazado_112713" data-name="Trazado 112713" d="M301.968,194.69l.878,3.589-5.869,1.43-.878-3.579c-5.252,0-9.467-3.411-10.812-8.887l-.4-1.626,6.476-2.346.411,1.691c.813,3.327,3.009,4.925,5.747,4.252a4.205,4.205,0,0,0,3.355-5.448c-.785-3.2-4.448-5.2-8.691-7.261-5.018-2.43-10.2-5.514-11.616-11.317-1.383-5.663.355-10.382,4.831-12.719l-.878-3.589,5.859-1.43.878,3.579c5.093-.075,8.887,3.28,10.28,9.074l.29,1.177-6.467,2.346-.327-1.3c-.86-3.523-2.673-5.009-5.084-4.42s-3.411,2.43-2.71,5.289c.785,3.2,4.5,5.121,8.691,7.271,4.962,2.514,10.2,5.514,11.616,11.308C308.977,187.354,306.7,192.326,301.968,194.69Z" transform="translate(-255.713 -88.083)" opacity="0.3"/>
      <line id="Línea_819" data-name="Línea 819" y1="0.327" x2="7.168" transform="translate(17.22 114.252)" fill="none" stroke="#263238" stroke-linecap="round" stroke-linejoin="round" stroke-width="1"/>
      <line id="Línea_820" data-name="Línea 820" y1="0.533" x2="6.252" transform="translate(13.771 111.663)" fill="none" stroke="#263238" stroke-linecap="round" stroke-linejoin="round" stroke-width="1"/>
      <line id="Línea_821" data-name="Línea 821" y1="0.533" x2="6.252" transform="translate(10.968 109.149)" fill="none" stroke="#263238" stroke-linecap="round" stroke-linejoin="round" stroke-width="1"/>
      <line id="Línea_822" data-name="Línea 822" x2="5.355" transform="translate(10.108 61.872)" fill="none" stroke="#263238" stroke-linecap="round" stroke-linejoin="round" stroke-width="1"/>
      <line id="Línea_823" data-name="Línea 823" y1="0.243" x2="5.336" transform="translate(12.753 59.162)" fill="none" stroke="#263238" stroke-linecap="round" stroke-linejoin="round" stroke-width="1"/>
      <line id="Línea_824" data-name="Línea 824" y1="0.533" x2="5.626" transform="translate(16.098 56.395)" fill="none" stroke="#263238" stroke-linecap="round" stroke-linejoin="round" stroke-width="1"/>
      <path id="Trazado_112714" data-name="Trazado 112714" d="M296.213,205.986h-.1a33.372,33.372,0,0,1-7.542.85,33.929,33.929,0,1,1-1.252-67.846c.308.008.635.008.935.008-8.271,2.607-22.148,9.27-25.858,23.167C257.15,181.912,268.953,204.332,296.213,205.986Z" transform="translate(-254.004 -87.529)" opacity="0.3"/>
      <path id="Trazado_112715" data-name="Trazado 112715" d="M325.262,173.131a33.929,33.929,0,0,1-26.277,33.051h-.114c-.888.2-1.776.374-2.691.5l8.784-64.659a33.932,33.932,0,0,1,20.3,31.1Z" transform="translate(-256.765 -87.728)" opacity="0.1"/>
      <path id="Trazado_112716" data-name="Trazado 112716" d="M345.333,115.909a20.559,20.559,0,0,1-24.587,7.14l-.122-.056q-.957-.421-1.869-.935a18.346,18.346,0,0,1-1.981-1.234A20.559,20.559,0,0,1,339.38,86.593l.458.29c.215.121.421.271.635.421s.626.458.935.7a20.559,20.559,0,0,1,3.925,27.9Z" transform="translate(-257.585 -83.923)" fill="#eaccb2"/>
      <path id="Trazado_112717" data-name="Trazado 112717" d="M314.578,116.312s-3.355-9.878,1.1-17.148c5.607-9.112,14.2-13.27,25.886-11.027,0,0-6.336-4.28-16.943-1.243S308.326,104.528,314.578,116.312Z" transform="translate(-257.8 -84.046)" fill="#fff" opacity="0.4"/>
      <path id="Trazado_112718" data-name="Trazado 112718" d="M345.332,115.921a20.559,20.559,0,0,1-24.587,7.121,20.136,20.136,0,0,1-4.018-2.205,20.559,20.559,0,0,1,23.092-33.942c.206.121.421.262.626.411a20.559,20.559,0,0,1,4.888,28.615Z" transform="translate(-257.584 -83.925)" fill="none" stroke="#263238" stroke-linecap="round" stroke-linejoin="round" stroke-width="1"/>
      <path id="Trazado_112719" data-name="Trazado 112719" d="M345.538,116.023a20.559,20.559,0,0,1-24.587,7.121l-.626-.411A20.559,20.559,0,0,1,340.024,87c.206.121.421.262.626.411a20.559,20.559,0,0,1,4.888,28.615Z" transform="translate(-257.79 -84.028)" fill="none" stroke="#263238" stroke-linecap="round" stroke-linejoin="round" stroke-width="1"/>
      <path id="Trazado_112720" data-name="Trazado 112720" d="M327.774,119.068l-.813,2.075-3.4-1.336.813-2.084a6.654,6.654,0,0,1-2.243-8.158l.374-.935,4.018,1.093-.383.991c-.757,1.925-.243,3.476,1.346,4.1a2.542,2.542,0,0,0,3.56-1.523c.729-1.869-.383-4.121-1.757-6.616-1.626-2.953-3.1-6.28-1.785-9.644s3.8-5.009,6.822-4.6l.822-2.075,3.392,1.336-.813,2.065c2.542,1.738,3.243,4.673,1.925,8.084l-.271.673-4.018-1.093.3-.757c.8-2.037.43-3.411-.935-3.962s-2.533,0-3.187,1.673c-.729,1.869.439,4.093,1.757,6.616,1.579,2.981,3.112,6.289,1.794,9.644a6.626,6.626,0,0,1-7.317,4.43Z" transform="translate(-258.427 -84.344)" fill="none" stroke="#263238" stroke-miterlimit="10" stroke-width="1"/>
      <path id="Trazado_112721" data-name="Trazado 112721" d="M327.774,119.068l-.813,2.075-3.4-1.336.813-2.084a6.654,6.654,0,0,1-2.243-8.158l.374-.935,4.018,1.093-.383.991c-.757,1.925-.243,3.476,1.346,4.1a2.542,2.542,0,0,0,3.56-1.523c.729-1.869-.383-4.121-1.757-6.616-1.626-2.953-3.1-6.28-1.785-9.644s3.8-5.009,6.822-4.6l.822-2.075,3.392,1.336-.813,2.065c2.542,1.738,3.243,4.673,1.925,8.084l-.271.673-4.018-1.093.3-.757c.8-2.037.43-3.411-.935-3.962s-2.533,0-3.187,1.673c-.729,1.869.439,4.093,1.757,6.616,1.579,2.981,3.112,6.289,1.794,9.644a6.626,6.626,0,0,1-7.317,4.43Z" transform="translate(-258.427 -84.344)" opacity="0.3"/>
      <path id="Trazado_112722" data-name="Trazado 112722" d="M339.33,86.6c-5.607-1-12.709-1.551-16.541.935-7.037,4.514-11.42,10.2-11.354,19.429s8.682,15.691,8.682,15.691l.5.364a20.242,20.242,0,0,1-3.9-2.159A20.559,20.559,0,0,1,339.33,86.633Z" transform="translate(-257.581 -83.926)" opacity="0.3"/>
      <path id="Trazado_112723" data-name="Trazado 112723" d="M346.038,116.2a20.559,20.559,0,0,1-24.587,7.14l-.122-.056q-.957-.421-1.869-.935l22.6-34.045a20.559,20.559,0,0,1,3.981,27.9Z" transform="translate(-258.29 -84.209)" opacity="0.1"/>
    </g>
    <g id="freepik--Character--inject-92" transform="translate(93.346 134.661)">
      <path id="Trazado_112724" data-name="Trazado 112724" d="M320.924,387.253a123.356,123.356,0,0,1-30.69,26.494,108.476,108.476,0,0,1-11.214,5.85c-26.55,11.934-56.809,12.71-85.107,5.85-59.5-14.42-91.069-66.94-95.078-125.244-1.075-15.756-3.486-32.774,2.9-47.763s19.288-24.3,33.886-30.764c10.6-4.719,22.045-7.887,32.446-10.476a83.462,83.462,0,0,1,56.155,5.794c12.233,5.8,20.943,15.887,31.232,24.382q1.635,1.346,3.289,2.682a308.306,308.306,0,0,0,32.708,23c17.3,10.551,35.007,20.5,46.062,38.222C355.146,333.518,340.268,364.264,320.924,387.253Z" transform="translate(-97.43 -145.487)" fill="#eaccb2"/>
      <path id="Trazado_112725" data-name="Trazado 112725" d="M320.924,387.253a123.356,123.356,0,0,1-30.69,26.494,108.476,108.476,0,0,1-11.214,5.85c-26.55,11.934-56.809,12.71-85.107,5.85-59.5-14.42-91.069-66.94-95.078-125.244-1.075-15.756-3.486-32.774,2.9-47.763s19.288-24.3,33.886-30.764c10.6-4.719,22.045-7.887,32.446-10.476a83.462,83.462,0,0,1,56.155,5.794c12.233,5.8,20.943,15.887,31.232,24.382q1.635,1.346,3.289,2.682a308.306,308.306,0,0,0,32.708,23c17.3,10.551,35.007,20.5,46.062,38.222C355.146,333.518,340.268,364.264,320.924,387.253Z" transform="translate(-97.43 -145.487)" fill="#fff" opacity="0.4"/>
      <path id="Trazado_112726" data-name="Trazado 112726" d="M258.7,244.057q-1.654-1.327-3.289-2.691c-10.28-8.513-19.008-18.569-31.232-24.372a83.518,83.518,0,0,0-56.155-5.794c-24.737,6.14-55.417,15.6-66.351,41.25-6.383,14.952-3.972,32-2.888,47.754,4.056,58.3,35.624,110.825,95.125,125.244,32.372,7.85,67.285,5.7,96.321-11.7a123.356,123.356,0,0,0,30.69-26.494c19.345-22.989,34.222-53.735,16.606-81.976-11.046-17.756-28.755-27.671-46.062-38.222a308.3,308.3,0,0,1-32.764-23Z" transform="translate(-97.426 -145.487)" fill="none" stroke="#263238" stroke-miterlimit="10" stroke-width="1"/>
      <path id="Trazado_112727" data-name="Trazado 112727" d="M172.544,357.78a85.582,85.582,0,0,0-14.364,5.813" transform="translate(-101.404 -155.245)" fill="none" stroke="#263238" stroke-linecap="round" stroke-linejoin="round" stroke-width="1"/>
      <path id="Trazado_112728" data-name="Trazado 112728" d="M204.494,351.6A153.253,153.253,0,0,0,183,355.011" transform="translate(-103.029 -154.84)" fill="none" stroke="#263238" stroke-linecap="round" stroke-linejoin="round" stroke-width="1"/>
      <path id="Trazado_112729" data-name="Trazado 112729" d="M194.932,349.42s-27.923-16.242-61.622-3.224" transform="translate(-99.775 -154.156)" fill="none" stroke="#263238" stroke-linecap="round" stroke-linejoin="round" stroke-width="1"/>
      <path id="Trazado_112730" data-name="Trazado 112730" d="M321.934,387.253a123.356,123.356,0,0,1-30.69,26.494,108.476,108.476,0,0,1-11.214,5.85,87.573,87.573,0,0,1-8.943-3.28c-17.438-7.476-32.073-20.12-46.371-32.587-8.626-7.476-17.391-15.139-27.718-20.064a63.753,63.753,0,0,0-44.707-3.682,50.212,50.212,0,0,1,29.568-16.27c-7.383-6.719-17.653-9.541-27.634-9.719s-15.476,1.047-25.232,3.233c3.261-6,11.915-11.429,18.746-11.27a169.771,169.771,0,0,1-19.419-1.374c-8.813-1.42-12.756-11.794-14.074-20.615-3.645-24.3.047-50.174,13.308-70.827a72.1,72.1,0,0,1,9.065-11.467c10.6-4.719,22.045-7.887,32.446-10.476a83.462,83.462,0,0,1,56.155,5.794c12.233,5.8,20.943,15.887,31.232,24.382q1.635,1.346,3.29,2.682a308.3,308.3,0,0,0,32.708,23c17.3,10.551,35.007,20.5,46.062,38.222C356.157,333.518,341.279,364.264,321.934,387.253Z" transform="translate(-98.44 -145.487)" opacity="0.1"/>
      <path id="Trazado_112731" data-name="Trazado 112731" d="M346,399a180.683,180.683,0,0,0,16.419,12.149c11.111.748,6.13,14.177,6.13,14.177l-9.513,6.121s-16.289-12.943-25.185-17.139S346,399,346,399Z" transform="translate(-112.763 -157.944)" fill="#fff"/>
      <path id="Trazado_112732" data-name="Trazado 112732" d="M254.046,244.976s-1.523-15.074-3.953-19.307L213.2,218.155V215.3s.85-4.972-7.373-8.084-25.363.935-29.783,4.28-2.8,9.1-2.8,9.1-14.859,7.5-21.531,10.364a170.49,170.49,0,0,0-15.952,8.411s-3.028,34.652-2.43,42.7-.486,15.616.206,20.073,1.234,6.99,5.906,10.784,8.925,9.345,21.176,3.841l-1.71-1.355,80.649-27.167Z" transform="translate(-99.771 -145.313)" opacity="0.3"/>
      <path id="Trazado_112733" data-name="Trazado 112733" d="M254.046,244.976s-1.523-15.074-3.953-19.307L213.2,218.155V215.3s.85-4.972-7.373-8.084-25.363.935-29.783,4.28-2.8,9.1-2.8,9.1-14.859,7.5-21.531,10.364a170.49,170.49,0,0,0-15.952,8.411s-3.028,34.652-2.43,42.7-.486,15.616.206,20.073,1.234,6.99,5.906,10.784,8.925,9.345,21.176,3.841l-1.71-1.355,80.649-27.167Z" transform="translate(-99.771 -145.313)" fill="#6595bf"/>
      <path id="Trazado_112735" data-name="Trazado 112735" d="M250.859,229H235.421a6.14,6.14,0,0,0-6.046,5.131l-7.607,45.791s-10.476.869-17.9,6.28-25.671-33.194-54.51-33.213c0,0,8.3,18.971,10.14,34.11,0,0-18.027-1.962-21.017,5.093s1.355,20.279,8.981,15.158,14.8-13.663,19.9-8.261,27.849,8.308,27.849,8.308l35.016-17.653,13.579-6.383Z" transform="translate(-100.052 -146.812)" opacity="0.1"/>
      <path id="Trazado_112736" data-name="Trazado 112736" d="M204.329,204.71s8.766,2.43,10.186,5.373,1.271,10.392,1.271,10.392a35.979,35.979,0,0,1-9.429,12.971l-6.542-12.971.589,14.709s-12.41-2.065-17.681-6.028l-5.261-3.972s-2.271-7.476-1.944-10.009,9.794-7.672,9.794-7.672Z" transform="translate(-102.537 -145.222)" fill="#fff" opacity="0.4"/>
      <path id="Trazado_112737" data-name="Trazado 112737" d="M359.466,444.828c-.243-.533,3.6-7.317.589-14.223s-7.8-4.243-7.8-4.243-13.653-8.691-19.391-11.439a97.848,97.848,0,0,1-11.915-7.084l-6.065,8.168,5.607,17.345Z" transform="translate(-111.665 -158.523)" fill="#6595bf"/>
      <path id="Trazado_112738" data-name="Trazado 112738" d="M354.34,424.777l17.532,10.71s12.326-7.906,18.2-13.364,19.083-17.083,19.083-17.083l8.411-11.317s-5.831-7.215-15.55-1.42c-12.56,7.476-27.877,18.335-38.091,18.232,0,0,2.009,12.551-9.523,14.242" transform="translate(-114.249 -157.358)" fill="#6595bf"/>
      <path id="Trazado_112739" data-name="Trazado 112739" d="M201.039,156.23s7.953,12.037,9.4,15.934,2.617,9.663,2.327,12.438-3.205,17.644-4.673,18.074l-1.411,1.6.935,6.3s-6.224,10.756-24.522,2.869c0,0-.71-12.56-2.934-16.5s-5.551.748-8.887-10.644,7.289-23.363,7.289-23.363Z" transform="translate(-102.219 -142.047)" fill="#fff"/>
      <path id="Trazado_112740" data-name="Trazado 112740" d="M411.016,390.22s-9.018,1.57-11.943,6.906-8.542,15.251-10.457,20.045-17.756,16.373-17.756,16.373l2.1,1.953s12.9-7.971,20.681-15.55S418.6,393.3,418.6,393.3,417.362,392.08,411.016,390.22Z" transform="translate(-115.331 -157.369)" fill="#fff" opacity="0.5"/>
      <path id="Trazado_112741" data-name="Trazado 112741" d="M317.113,413.37l-2.234,3,6.859,14.223,37.727,13.56,1.748-5.523s.579-5.607-12.663-9.868-21.316-7.074-25.082-10S317.113,413.37,317.113,413.37Z" transform="translate(-111.665 -158.885)" fill="#fff" opacity="0.5"/>
      <path id="Trazado_112742" data-name="Trazado 112742" d="M182.473,299.471s-11.551-1.738-16.943,7.71-4.841,13.541-4.841,13.541,7.635,6.934,18.13,6.542,25.774-12.41,30.755-16.326,17.541-15.121,26.11-12.8l.935-8.1s-.841-3.635-8.168-2.654-10.2,5.159-12.569,5.159-4.6-2.271-9.345,5.841C206.527,298.378,189.865,301.331,182.473,299.471Z" transform="translate(-101.567 -150.624)" fill="#fff"/>
      <path id="Trazado_112743" data-name="Trazado 112743" d="M200.06,174.75a33.457,33.457,0,0,0,1.047,4.476,5.215,5.215,0,0,0,.935,1.972,6.042,6.042,0,0,0,3.6,1.374.981.981,0,0,1,.579.243.934.934,0,0,1,.14.561,7.476,7.476,0,0,1-1.271,4.131" transform="translate(-104.146 -143.26)" fill="none" stroke="#263238" stroke-linecap="round" stroke-linejoin="round" stroke-width="1"/>
      <path id="Trazado_112746" data-name="Trazado 112746" d="M194.24,190.67s6.065,4.757,12.364,2.972C206.6,193.642,200.66,205.417,194.24,190.67Z" transform="translate(-103.765 -144.302)" fill="#fff" stroke="#263238" stroke-linecap="round" stroke-linejoin="round" stroke-width="1"/>
      <path id="Trazado_112747" data-name="Trazado 112747" d="M193.829,179.514c.178,1.308-.224,2.439-.878,2.533s-1.336-.935-1.514-2.215.215-2.439.878-2.533S193.689,178.206,193.829,179.514Z" transform="translate(-103.579 -143.426)" fill="#263238"/>
      <path id="Trazado_112748" data-name="Trazado 112748" d="M207.96,176.965c.168,1.318-.224,2.448-.878,2.533s-1.346-.935-1.514-2.205.215-2.448.878-2.533S207.782,175.657,207.96,176.965Z" transform="translate(-104.504 -143.26)" fill="#263238"/>
      <path id="Trazado_112749" data-name="Trazado 112749" d="M192.576,173.7s-3.532-1.822-6.046,2.084" transform="translate(-103.26 -143.163)" fill="none" stroke="#263238" stroke-linecap="round" stroke-linejoin="round" stroke-width="1"/>
      <path id="Trazado_112750" data-name="Trazado 112750" d="M202.69,171.03s3.738-3.205,5.9,0" transform="translate(-104.319 -142.923)" fill="none" stroke="#263238" stroke-linecap="round" stroke-linejoin="round" stroke-width="1"/>
      <path id="Trazado_112751" data-name="Trazado 112751" d="M179.636,186.372s-2.271-3.355-4.673-3.252-3.355,3.467-2.5,6.719,4.439,7.794,7.149,7.364a6.018,6.018,0,0,0,3.9-2.168" transform="translate(-102.319 -143.808)" fill="none" stroke="#263238" stroke-linecap="round" stroke-linejoin="round" stroke-width="1"/>
      <path id="Trazado_112752" data-name="Trazado 112752" d="M202.616,159.13c2.551,2.121,5.252,4.43,6.542,7.551,1.14,2.654,1.392,5.607,2.439,8.289,1.112,2.869,2.327,5.869,2.42,9a38.121,38.121,0,0,1-1.131,8.588,47.333,47.333,0,0,1-1.729,7.186,12.717,12.717,0,0,1-6.71,7.009c-2.271,1.159-6.056,2.8-8.513,1.252-1.43-.935-3.579-3.607-5.364-6.065" transform="translate(-103.525 -142.237)" fill="none" stroke="#263238" stroke-linecap="round" stroke-linejoin="round" stroke-width="1"/>
      <path id="Trazado_112753" data-name="Trazado 112753" d="M180.16,198.19s4.018,9.85,3.047,16.775" transform="translate(-102.843 -144.795)" fill="none" stroke="#263238" stroke-linecap="round" stroke-linejoin="round" stroke-width="1"/>
      <path id="Trazado_112754" data-name="Trazado 112754" d="M177.861,181.963a3.869,3.869,0,0,0,1.551-3.467c-.15-1.514-1.2-2.916-.991-4.43a8.157,8.157,0,0,1,.8-2.075,8.7,8.7,0,0,0-.486-7.869s12.766.6,18.746-3.205,10.541-13.532,6.925-18.176-10.663,1.691-15.887,2.392-23.8,3.663-26.765,10.822,1.551,9.728,1.691,16.56.14,19.774,10.354,18.588c0,0-3.822-4.944-1.168-10.037C174.441,178.926,177.861,181.963,177.861,181.963Z" transform="translate(-101.573 -141.053)" fill="#263238"/>
      <path id="Trazado_112755" data-name="Trazado 112755" d="M205.413,151.5a16.018,16.018,0,0,1,6.112,11.214c.57,5.121,9.654,15.074,3.1,20.746,0,0-1.523-6.028-2.42-9s-2.047-8.411-3.551-10.28-9.485-8.411-9.485-8.411Z" transform="translate(-104.088 -141.737)" fill="#263238"/>
      <path id="Trazado_112756" data-name="Trazado 112756" d="M181.025,215.49s6.3,4.149,18,4.317L200.4,235.5s-13.158-1-22.942-10c0,0-2.645-7-1.944-10.009s6.99-5.99,6.99-5.99" transform="translate(-102.531 -145.535)" fill="none" stroke="#263238" stroke-linecap="round" stroke-linejoin="round" stroke-width="1"/>
      <path id="Trazado_112757" data-name="Trazado 112757" d="M209.147,208.321l.374,5.607a23.2,23.2,0,0,1-8.841,5.747l7.327,13.952s8.738-6.8,9.607-13.952c0,0,.075-7.317-1.449-9.411s-7.074-3.075-7.074-3.075" transform="translate(-104.187 -145.384)" fill="none" stroke="#263238" stroke-linecap="round" stroke-linejoin="round" stroke-width="1"/>
      <path id="Trazado_112758" data-name="Trazado 112758" d="M171.8,160.929c.935-2.346,3.5-3.738,5.99-4.112a62.059,62.059,0,0,1,7.579-.178,19.457,19.457,0,0,0,9.906-2.8,13.242,13.242,0,0,0,5.981-8.186" transform="translate(-102.296 -141.354)" fill="none" stroke="#fff" stroke-linecap="round" stroke-linejoin="round" stroke-width="1" opacity="0.8"/>
      <path id="Trazado_112759" data-name="Trazado 112759" d="M165.35,160.68c1.579-4.794,6.7-7.757,11.738-8.177,2.5-.215,5.018.075,7.476-.215s5.074-1.318,6.373-3.458" transform="translate(-101.873 -141.563)" fill="none" stroke="#fff" stroke-linecap="round" stroke-linejoin="round" stroke-width="1" opacity="0.8"/>
      <path id="Trazado_112760" data-name="Trazado 112760" d="M160.6,317.779c-12.149,6.3-16.466-.187-23.232-5.551s-2.327-14.952-3.738-30.325,2.1-41.521,2.1-41.521,3.028-.692,11.429-5.831,26.082-12.971,26.082-12.971" transform="translate(-99.774 -146.326)" fill="none" stroke="#263238" stroke-linecap="round" stroke-linejoin="round" stroke-width="1"/>
      <path id="Trazado_112761" data-name="Trazado 112761" d="M173.464,299.181s-1.925-6.1-7.364-6.261-14.018,2.29-20.13,13.85" transform="translate(-100.604 -150.997)" fill="none" stroke="#263238" stroke-linecap="round" stroke-linejoin="round" stroke-width="1"/>
      <path id="Trazado_112762" data-name="Trazado 112762" d="M165.133,292.416a3.009,3.009,0,0,1-.981-.234,23.653,23.653,0,0,0-13.962-.635" transform="translate(-100.881 -150.858)" fill="none" stroke="#263238" stroke-linecap="round" stroke-linejoin="round" stroke-width="1"/>
      <path id="Trazado_112763" data-name="Trazado 112763" d="M146.84,250.63c9.9,10.934,14.719,25.4,19.288,39.418" transform="translate(-100.661 -148.229)" fill="none" stroke="#263238" stroke-linecap="round" stroke-linejoin="round" stroke-width="1"/>
      <path id="Trazado_112764" data-name="Trazado 112764" d="M218.8,219s17.943,4.28,26.709,5.3,10.186,2.243,10.186,2.243l1.635,6.112" transform="translate(-105.373 -146.157)" fill="none" stroke="#263238" stroke-linecap="round" stroke-linejoin="round" stroke-width="1"/>
      <path id="Trazado_112765" data-name="Trazado 112765" d="M303.638,230.38l-61.108,2.346-4.99,62.846h10.467l53.062-11.878,6.672-51.81Z" transform="translate(-106.601 -146.903)" fill="#fff"/>
      <path id="Trazado_112766" data-name="Trazado 112766" d="M240.94,297.641l66.837-64.061L301.291,283.9Z" transform="translate(-106.823 -147.112)" fill="#eaccb2"/>
      <path id="Trazado_112767" data-name="Trazado 112767" d="M240.94,297.641l66.837-64.061L301.291,283.9Z" transform="translate(-106.823 -147.112)" fill="#fff" opacity="0.7"/>
      <path id="Trazado_112768" data-name="Trazado 112768" d="M240.94,295.855l5.345-60.622,61.678-3.243-6.672,51.81Z" transform="translate(-106.823 -147.008)" fill="none" stroke="#263238" stroke-linecap="round" stroke-linejoin="round" stroke-width="1"/>
      <path id="Trazado_112769" data-name="Trazado 112769" d="M284.323,262.921c-.411,3.691-2.383,6.495-4.4,6.271s-3.308-3.411-2.9-7.1,2.392-6.495,4.411-6.271S284.744,259.23,284.323,262.921Z" transform="translate(-109.181 -148.568)" fill="#263238"/>
      <path id="Trazado_112770" data-name="Trazado 112770" d="M301.966,287.427s28.241-.8,37.072,5.028,14.018,35.072,12.794,50.6-11.878,51.174-11.878,51.174l-20.41-23.1s-10.055-36.558-4.57-50.875c0,0-27.1,1.523-37.773-1.822,0,0-9.56-15.653-25.952-20.83Z" transform="translate(-107.498 -150.636)" fill="#263238"/>
      <path id="Trazado_112771" data-name="Trazado 112771" d="M339.859,395.444a140.008,140.008,0,0,1-19.419-22.428c-9.878-15.261-23.531-29.9-37.577-41.334-11.317-9.177-13.878-24.129-27.839-31.633-23.129-12.4-43.128,12.242-50.6,17.233S184,327.925,184,327.925s4.729,17.756,18.616,19.859,27.933-7.476,34.577-2.85,11.56,25.279,33.5,37.381c17.933,9.887,42.371,19.531,54.978,26.036,2.8,1.458,4.9,2.99,6.486,3.86,4.355,2.374,9.009,5.168,13.4,7.934l15.13,9.214s15.186-8.981,21.017-17.261c.776-1.112,2.392-4.074,3.906-6.934,3.3-6.252,7.476-11.859,13.261-14.952,4-2.159,7.56-2.8,7.476-3.028-.383-.71-7.635-4.42-12.56-2.392-10.429,4.308-31.278,20.858-41.119,19.625a73.664,73.664,0,0,1-12.812-8.971Z" transform="translate(-103.74 -150.743)" fill="none" stroke="#263238" stroke-miterlimit="10" stroke-width="1"/>
      <path id="Trazado_112772" data-name="Trazado 112772" d="M339.859,395.446c-9.093,3.673-12.756,9.345-14.158,12.915-12.607-6.542-37.044-16.148-54.978-26.036-21.942-12.149-26.821-32.764-33.5-37.381s-20.737,4.99-34.577,2.85S184,327.918,184,327.918s12.952-5.607,20.429-10.6,24.718-29.643,50.595-17.233c14.289,6.85,16.522,22.428,27.839,31.633a184.65,184.65,0,0,1,37.577,41.334A137.375,137.375,0,0,0,339.859,395.446Z" transform="translate(-103.095 -151.241)" fill="#263238"/>
      <path id="Trazado_112773" data-name="Trazado 112773" d="M276.383,316.4s-7-14.223-18.223-16.98" transform="translate(-107.951 -151.423)" fill="none" stroke="#fff" stroke-linecap="round" stroke-linejoin="round" stroke-width="1"/>
      <path id="Trazado_112774" data-name="Trazado 112774" d="M233.311,287.275c-7.719-1.682-16.2,6.85-19.765,5.252-2.654-1.187-7.018,5.841-7.018,5.841a116.914,116.914,0,0,1-21.7,1.093c-10.4-.663-15.326,1.364-19.008,6.925L160.68,320s13.56,12.149,28.036,5.074,33.708-28.419,46.96-28.344" transform="translate(-101.568 -150.614)" fill="none" stroke="#263238" stroke-linecap="round" stroke-linejoin="round" stroke-width="1"/>
      <path id="Trazado_112775" data-name="Trazado 112775" d="M353.71,425.832s12.672,1.037,9.7-14.1" transform="translate(-114.208 -158.778)" fill="none" stroke="#263238" stroke-miterlimit="10" stroke-width="1"/>
      <path id="Trazado_112776" data-name="Trazado 112776" d="M416.029,401.183c-.935,1.869-12.551,11.756-22.559,20.4,0-.131,2.8-5.411,3.962-7.663,2.663-4.972,9.541-18.606,22.634-20.4C421.926,394.641,416.029,401.183,416.029,401.183Z" transform="translate(-116.811 -157.585)" fill="#263238"/>
      <path id="Trazado_112777" data-name="Trazado 112777" d="M409.568,390.33c-13.242,2.635-16.251,19.625-20.952,26.849s-17.756,17.046-17.756,17.046" transform="translate(-115.331 -157.376)" fill="none" stroke="#263238" stroke-miterlimit="10" stroke-width="1"/>
      <path id="Trazado_112778" data-name="Trazado 112778" d="M360.055,430.92c2.159,3.944,1.14,8.523,0,11.392a23.774,23.774,0,0,1-2.075,4.084c-18.746-3.084-37.493-13.158-37.493-13.158l-4.831-14.952-.776-2.392,7.28-9.8" transform="translate(-111.665 -158.408)" fill="none" stroke="#263238" stroke-miterlimit="10" stroke-width="1"/>
      <path id="Trazado_112779" data-name="Trazado 112779" d="M360.109,443.166a23.773,23.773,0,0,1-2.075,4.084c-18.746-3.084-37.493-13.158-37.493-13.158L315.71,419.14a26.728,26.728,0,0,0,13.635,9.682C338.475,431.41,355.324,434.438,360.109,443.166Z" transform="translate(-111.719 -159.263)" fill="#263238"/>
      <path id="Trazado_112780" data-name="Trazado 112780" d="M237.54,293.385l4.99-60.66,61.108-2.346,4.1,1.5" transform="translate(-106.601 -146.903)" fill="none" stroke="#263238" stroke-linecap="round" stroke-linejoin="round" stroke-width="1"/>
      <path id="Trazado_112781" data-name="Trazado 112781" d="M364,417.6s8.355,1.5,14.775-3.738S395.54,396.79,395.54,396.79" transform="translate(-114.881 -157.799)" fill="none" stroke="#263238" stroke-miterlimit="10" stroke-width="1"/>
      <path id="Trazado_112782" data-name="Trazado 112782" d="M373.037,411s-2.019,3.037,0,9.13" transform="translate(-115.414 -158.73)" fill="none" stroke="#263238" stroke-linecap="round" stroke-linejoin="round" stroke-width="1"/>
      <path id="Trazado_112783" data-name="Trazado 112783" d="M379.4,407.89a12.438,12.438,0,0,0,.757,9.13" transform="translate(-115.855 -158.526)" fill="none" stroke="#263238" stroke-linecap="round" stroke-linejoin="round" stroke-width="1"/>
      <path id="Trazado_112784" data-name="Trazado 112784" d="M386.947,403.51s-1.691,5.074,0,9.551" transform="translate(-116.335 -158.239)" fill="none" stroke="#263238" stroke-linecap="round" stroke-linejoin="round" stroke-width="1"/>
      <path id="Trazado_112785" data-name="Trazado 112785" d="M323.971,404.74l-6.7,8.065s6.747,7.373,16.27,10.439,26.531,8.27,27.942,13.812" transform="translate(-111.821 -158.32)" fill="none" stroke="#263238" stroke-miterlimit="10" stroke-width="1"/>
    </g>
  </g>
</svg>
