<svg xmlns="http://www.w3.org/2000/svg" width="334" height="84" viewBox="0 0 334 84">
  <g id="Grupo_1118396" data-name="Grupo 1118396" transform="translate(-633 -15901)">
    <rect id="Rectángulo_406818" data-name="Rectángulo 406818" width="334" height="84" rx="12" transform="translate(633 15901)" fill="#feead4"/>
    <path id="Trazado_911705" data-name="Trazado 911705" d="M8.289-10.562,3.578,0H2.063l4.7-10.187H.6v-1.187H8.289Zm1.82,9.8a.905.905,0,0,1,.223-.625A.848.848,0,0,1,11-1.633a.874.874,0,0,1,.676.25.887.887,0,0,1,.23.625.839.839,0,0,1-.23.6A.89.89,0,0,1,11,.086a.863.863,0,0,1-.668-.242A.855.855,0,0,1,10.109-.758Zm10.93-7.648a2.641,2.641,0,0,1-.449,1.516,3.057,3.057,0,0,1-1.215,1.039,3.26,3.26,0,0,1,1.41,1.117A2.811,2.811,0,0,1,21.3-3.07a2.972,2.972,0,0,1-1,2.352,3.827,3.827,0,0,1-2.621.875,3.81,3.81,0,0,1-2.629-.879A2.986,2.986,0,0,1,14.07-3.07a2.9,2.9,0,0,1,.5-1.664,3.136,3.136,0,0,1,1.395-1.125,2.981,2.981,0,0,1-1.2-1.039,2.679,2.679,0,0,1-.437-1.508,2.94,2.94,0,0,1,.922-2.281,3.458,3.458,0,0,1,2.43-.844,3.461,3.461,0,0,1,2.426.844A2.934,2.934,0,0,1,21.039-8.406Zm-1.18,5.3a2.1,2.1,0,0,0-.605-1.555,2.147,2.147,0,0,0-1.582-.6,2.11,2.11,0,0,0-1.566.594,2.12,2.12,0,0,0-.59,1.563,2.019,2.019,0,0,0,.574,1.523,2.2,2.2,0,0,0,1.6.555,2.2,2.2,0,0,0,1.594-.559A2.014,2.014,0,0,0,19.859-3.1Zm-2.172-7.242a1.865,1.865,0,0,0-1.379.527,1.937,1.937,0,0,0-.527,1.434,1.928,1.928,0,0,0,.52,1.4,1.844,1.844,0,0,0,1.387.535,1.844,1.844,0,0,0,1.387-.535,1.928,1.928,0,0,0,.52-1.4A1.929,1.929,0,0,0,19.055-9.8,1.839,1.839,0,0,0,17.688-10.344Zm7.539,3.953h1.086a2.387,2.387,0,0,0,1.609-.539,1.8,1.8,0,0,0,.586-1.414,1.764,1.764,0,0,0-1.992-2,2.072,2.072,0,0,0-1.5.535,1.873,1.873,0,0,0-.559,1.418H23.016A2.9,2.9,0,0,1,24-10.637a3.6,3.6,0,0,1,2.512-.895,3.558,3.558,0,0,1,2.523.852,3.076,3.076,0,0,1,.914,2.367,2.5,2.5,0,0,1-.48,1.438,2.9,2.9,0,0,1-1.309,1.039,2.8,2.8,0,0,1,1.449.984,2.734,2.734,0,0,1,.512,1.68,3.1,3.1,0,0,1-1,2.43,3.745,3.745,0,0,1-2.6.9,3.844,3.844,0,0,1-2.605-.867,2.877,2.877,0,0,1-1-2.289h1.453a1.859,1.859,0,0,0,.586,1.438,2.229,2.229,0,0,0,1.57.539,2.187,2.187,0,0,0,1.6-.547,2.108,2.108,0,0,0,.555-1.57,1.912,1.912,0,0,0-.609-1.523,2.655,2.655,0,0,0-1.758-.547H25.227ZM39.242-4.852a6.61,6.61,0,0,1-.867,3.773A3.084,3.084,0,0,1,35.664.156a3.107,3.107,0,0,1-2.7-1.207,6.274,6.274,0,0,1-.906-3.605v-1.93a6.463,6.463,0,0,1,.867-3.727,3.108,3.108,0,0,1,2.719-1.219,3.136,3.136,0,0,1,2.7,1.176,6.237,6.237,0,0,1,.891,3.629ZM37.8-6.828A5.3,5.3,0,0,0,37.281-9.5a1.775,1.775,0,0,0-1.633-.84,1.751,1.751,0,0,0-1.617.836,5.171,5.171,0,0,0-.523,2.57v2.313A5.381,5.381,0,0,0,34.043-1.9a1.771,1.771,0,0,0,1.621.879,1.747,1.747,0,0,0,1.59-.828A5.186,5.186,0,0,0,37.8-4.461Zm3.477,6.07a.905.905,0,0,1,.223-.625.848.848,0,0,1,.668-.25.874.874,0,0,1,.676.25.887.887,0,0,1,.23.625.839.839,0,0,1-.23.6.89.89,0,0,1-.676.242A.863.863,0,0,1,41.5-.156.855.855,0,0,1,41.273-.758ZM52.438-4.852a6.61,6.61,0,0,1-.867,3.773A3.084,3.084,0,0,1,48.859.156a3.107,3.107,0,0,1-2.7-1.207,6.274,6.274,0,0,1-.906-3.605v-1.93a6.463,6.463,0,0,1,.867-3.727,3.108,3.108,0,0,1,2.719-1.219,3.136,3.136,0,0,1,2.7,1.176,6.237,6.237,0,0,1,.891,3.629ZM50.992-6.828A5.3,5.3,0,0,0,50.477-9.5a1.775,1.775,0,0,0-1.633-.84,1.751,1.751,0,0,0-1.617.836,5.171,5.171,0,0,0-.523,2.57v2.313A5.381,5.381,0,0,0,47.238-1.9a1.771,1.771,0,0,0,1.621.879,1.747,1.747,0,0,0,1.59-.828,5.186,5.186,0,0,0,.543-2.609Zm10.43,1.977a6.61,6.61,0,0,1-.867,3.773A3.084,3.084,0,0,1,57.844.156a3.107,3.107,0,0,1-2.7-1.207,6.274,6.274,0,0,1-.906-3.605v-1.93a6.463,6.463,0,0,1,.867-3.727,3.108,3.108,0,0,1,2.719-1.219,3.136,3.136,0,0,1,2.7,1.176,6.237,6.237,0,0,1,.891,3.629ZM59.977-6.828A5.3,5.3,0,0,0,59.461-9.5a1.775,1.775,0,0,0-1.633-.84,1.751,1.751,0,0,0-1.617.836,5.171,5.171,0,0,0-.523,2.57v2.313A5.381,5.381,0,0,0,56.223-1.9a1.771,1.771,0,0,0,1.621.879,1.747,1.747,0,0,0,1.59-.828,5.186,5.186,0,0,0,.543-2.609Zm10.43,1.977a6.61,6.61,0,0,1-.867,3.773A3.084,3.084,0,0,1,66.828.156a3.107,3.107,0,0,1-2.7-1.207,6.274,6.274,0,0,1-.906-3.605v-1.93a6.463,6.463,0,0,1,.867-3.727,3.108,3.108,0,0,1,2.719-1.219,3.136,3.136,0,0,1,2.7,1.176,6.237,6.237,0,0,1,.891,3.629ZM68.961-6.828A5.3,5.3,0,0,0,68.445-9.5a1.775,1.775,0,0,0-1.633-.84,1.751,1.751,0,0,0-1.617.836,5.171,5.171,0,0,0-.523,2.57v2.313A5.381,5.381,0,0,0,65.207-1.9a1.771,1.771,0,0,0,1.621.879,1.747,1.747,0,0,0,1.59-.828,5.186,5.186,0,0,0,.543-2.609Zm3.477,6.07a.905.905,0,0,1,.223-.625.848.848,0,0,1,.668-.25.874.874,0,0,1,.676.25.887.887,0,0,1,.23.625.839.839,0,0,1-.23.6.89.89,0,0,1-.676.242.863.863,0,0,1-.668-.242A.855.855,0,0,1,72.438-.758ZM83.6-4.852a6.61,6.61,0,0,1-.867,3.773A3.084,3.084,0,0,1,80.023.156a3.107,3.107,0,0,1-2.7-1.207,6.274,6.274,0,0,1-.906-3.605v-1.93a6.463,6.463,0,0,1,.867-3.727,3.108,3.108,0,0,1,2.719-1.219,3.136,3.136,0,0,1,2.7,1.176A6.237,6.237,0,0,1,83.6-6.727ZM82.156-6.828A5.3,5.3,0,0,0,81.641-9.5a1.775,1.775,0,0,0-1.633-.84,1.751,1.751,0,0,0-1.617.836,5.171,5.171,0,0,0-.523,2.57v2.313A5.381,5.381,0,0,0,78.4-1.9a1.771,1.771,0,0,0,1.621.879,1.747,1.747,0,0,0,1.59-.828,5.186,5.186,0,0,0,.543-2.609Zm10.43,1.977a6.61,6.61,0,0,1-.867,3.773A3.084,3.084,0,0,1,89.008.156a3.107,3.107,0,0,1-2.7-1.207,6.274,6.274,0,0,1-.906-3.605v-1.93a6.463,6.463,0,0,1,.867-3.727,3.108,3.108,0,0,1,2.719-1.219,3.136,3.136,0,0,1,2.7,1.176,6.237,6.237,0,0,1,.891,3.629ZM91.141-6.828A5.3,5.3,0,0,0,90.625-9.5a1.775,1.775,0,0,0-1.633-.84,1.751,1.751,0,0,0-1.617.836,5.171,5.171,0,0,0-.523,2.57v2.313A5.381,5.381,0,0,0,87.387-1.9a1.771,1.771,0,0,0,1.621.879,1.747,1.747,0,0,0,1.59-.828,5.186,5.186,0,0,0,.543-2.609Zm10.43,1.977a6.61,6.61,0,0,1-.867,3.773A3.084,3.084,0,0,1,97.992.156a3.107,3.107,0,0,1-2.7-1.207,6.274,6.274,0,0,1-.906-3.605v-1.93a6.463,6.463,0,0,1,.867-3.727,3.108,3.108,0,0,1,2.719-1.219,3.136,3.136,0,0,1,2.7,1.176,6.237,6.237,0,0,1,.891,3.629Zm-1.445-1.977A5.3,5.3,0,0,0,99.609-9.5a1.775,1.775,0,0,0-1.633-.84,1.751,1.751,0,0,0-1.617.836,5.171,5.171,0,0,0-.523,2.57v2.313A5.381,5.381,0,0,0,96.371-1.9a1.771,1.771,0,0,0,1.621.879,1.747,1.747,0,0,0,1.59-.828,5.186,5.186,0,0,0,.543-2.609Z" transform="translate(705 15939)" fill="#12263f"/>
    <path id="Trazado_911706" data-name="Trazado 911706" d="M7.844-8.406a2.641,2.641,0,0,1-.449,1.516A3.057,3.057,0,0,1,6.18-5.852,3.26,3.26,0,0,1,7.59-4.734a2.811,2.811,0,0,1,.52,1.664,2.972,2.972,0,0,1-1,2.352A3.827,3.827,0,0,1,4.492.156,3.81,3.81,0,0,1,1.863-.723,2.986,2.986,0,0,1,.875-3.07a2.9,2.9,0,0,1,.5-1.664A3.136,3.136,0,0,1,2.773-5.859,2.981,2.981,0,0,1,1.578-6.9a2.679,2.679,0,0,1-.437-1.508,2.94,2.94,0,0,1,.922-2.281,3.458,3.458,0,0,1,2.43-.844,3.461,3.461,0,0,1,2.426.844A2.934,2.934,0,0,1,7.844-8.406ZM6.664-3.1a2.1,2.1,0,0,0-.605-1.555,2.147,2.147,0,0,0-1.582-.6,2.11,2.11,0,0,0-1.566.594A2.12,2.12,0,0,0,2.32-3.1a2.019,2.019,0,0,0,.574,1.523,2.2,2.2,0,0,0,1.6.555,2.2,2.2,0,0,0,1.594-.559A2.014,2.014,0,0,0,6.664-3.1ZM4.492-10.344a1.865,1.865,0,0,0-1.379.527,1.937,1.937,0,0,0-.527,1.434,1.928,1.928,0,0,0,.52,1.4,1.844,1.844,0,0,0,1.387.535A1.844,1.844,0,0,0,5.879-6.98a1.928,1.928,0,0,0,.52-1.4A1.929,1.929,0,0,0,5.859-9.8,1.839,1.839,0,0,0,4.492-10.344Z" transform="translate(738 15964)" fill="#12263f"/>
    <path id="Trazado_911707" data-name="Trazado 911707" d="M6.484-5A3.536,3.536,0,0,1,5.4-4.133,2.936,2.936,0,0,1,4.023-3.8a3.031,3.031,0,0,1-1.715-.484A3.149,3.149,0,0,1,1.18-5.652a4.648,4.648,0,0,1-.4-1.941,4.735,4.735,0,0,1,.434-2.055,3.185,3.185,0,0,1,1.23-1.4A3.509,3.509,0,0,1,4.3-11.531a3.177,3.177,0,0,1,2.66,1.262,5.5,5.5,0,0,1,.973,3.441v.422q0,3.32-1.312,4.848A5.043,5.043,0,0,1,2.664.008H2.383V-1.219h.3a3.979,3.979,0,0,0,2.75-.932A4,4,0,0,0,6.484-5ZM4.258-5A2.232,2.232,0,0,0,5.6-5.445a2.625,2.625,0,0,0,.895-1.1v-.578a3.977,3.977,0,0,0-.617-2.312,1.842,1.842,0,0,0-1.562-.891,1.856,1.856,0,0,0-1.531.73A3.013,3.013,0,0,0,2.2-7.672a3.136,3.136,0,0,0,.559,1.918A1.769,1.769,0,0,0,4.258-5Zm13.016-5.562L12.563,0H11.047l4.7-10.187H9.586v-1.187h7.688Zm8.539,2.156a2.641,2.641,0,0,1-.449,1.516,3.057,3.057,0,0,1-1.215,1.039,3.26,3.26,0,0,1,1.41,1.117,2.811,2.811,0,0,1,.52,1.664,2.972,2.972,0,0,1-1,2.352,3.827,3.827,0,0,1-2.621.875,3.81,3.81,0,0,1-2.629-.879,2.986,2.986,0,0,1-.988-2.348,2.9,2.9,0,0,1,.5-1.664,3.136,3.136,0,0,1,1.395-1.125,2.981,2.981,0,0,1-1.2-1.039,2.679,2.679,0,0,1-.437-1.508,2.94,2.94,0,0,1,.922-2.281,3.458,3.458,0,0,1,2.43-.844,3.461,3.461,0,0,1,2.426.844A2.934,2.934,0,0,1,25.813-8.406Zm-1.18,5.3a2.1,2.1,0,0,0-.605-1.555,2.147,2.147,0,0,0-1.582-.6,2.11,2.11,0,0,0-1.566.594,2.12,2.12,0,0,0-.59,1.563,2.019,2.019,0,0,0,.574,1.523,2.2,2.2,0,0,0,1.6.555,2.2,2.2,0,0,0,1.594-.559A2.014,2.014,0,0,0,24.633-3.1Zm-2.172-7.242a1.865,1.865,0,0,0-1.379.527,1.937,1.937,0,0,0-.527,1.434,1.928,1.928,0,0,0,.52,1.4,1.844,1.844,0,0,0,1.387.535,1.844,1.844,0,0,0,1.387-.535,1.928,1.928,0,0,0,.52-1.4A1.929,1.929,0,0,0,23.828-9.8,1.839,1.839,0,0,0,22.461-10.344ZM28.078-.758a.905.905,0,0,1,.223-.625.848.848,0,0,1,.668-.25.874.874,0,0,1,.676.25.887.887,0,0,1,.23.625.839.839,0,0,1-.23.6.89.89,0,0,1-.676.242A.863.863,0,0,1,28.3-.156.855.855,0,0,1,28.078-.758Zm11.375-9.8L34.742,0H33.227l4.7-10.187H31.766v-1.187h7.688Zm2.3,4.859.578-5.672h5.828v1.336h-4.6l-.344,3.1a3.671,3.671,0,0,1,1.9-.492A3.138,3.138,0,0,1,47.586-6.4,4.026,4.026,0,0,1,48.5-3.625a3.886,3.886,0,0,1-.949,2.77A3.46,3.46,0,0,1,44.9.156,3.6,3.6,0,0,1,42.438-.68a3.337,3.337,0,0,1-1.086-2.312h1.367a2.3,2.3,0,0,0,.7,1.473,2.162,2.162,0,0,0,1.484.5,1.95,1.95,0,0,0,1.582-.687,2.874,2.874,0,0,0,.574-1.9,2.638,2.638,0,0,0-.621-1.832,2.113,2.113,0,0,0-1.652-.691,2.383,2.383,0,0,0-1.484.414l-.383.313Zm15.453.852a6.61,6.61,0,0,1-.867,3.773A3.084,3.084,0,0,1,53.633.156a3.107,3.107,0,0,1-2.7-1.207,6.274,6.274,0,0,1-.906-3.605v-1.93a6.463,6.463,0,0,1,.867-3.727,3.108,3.108,0,0,1,2.719-1.219,3.136,3.136,0,0,1,2.7,1.176,6.237,6.237,0,0,1,.891,3.629ZM55.766-6.828A5.3,5.3,0,0,0,55.25-9.5a1.775,1.775,0,0,0-1.633-.84A1.751,1.751,0,0,0,52-9.508a5.171,5.171,0,0,0-.523,2.57v2.313A5.381,5.381,0,0,0,52.012-1.9a1.771,1.771,0,0,0,1.621.879,1.747,1.747,0,0,0,1.59-.828,5.186,5.186,0,0,0,.543-2.609Zm3.477,6.07a.905.905,0,0,1,.223-.625.848.848,0,0,1,.668-.25.874.874,0,0,1,.676.25.887.887,0,0,1,.23.625.839.839,0,0,1-.23.6.89.89,0,0,1-.676.242.863.863,0,0,1-.668-.242A.855.855,0,0,1,59.242-.758ZM70.406-4.852a6.61,6.61,0,0,1-.867,3.773A3.084,3.084,0,0,1,66.828.156a3.107,3.107,0,0,1-2.7-1.207,6.274,6.274,0,0,1-.906-3.605v-1.93a6.463,6.463,0,0,1,.867-3.727,3.108,3.108,0,0,1,2.719-1.219,3.136,3.136,0,0,1,2.7,1.176,6.237,6.237,0,0,1,.891,3.629ZM68.961-6.828A5.3,5.3,0,0,0,68.445-9.5a1.775,1.775,0,0,0-1.633-.84,1.751,1.751,0,0,0-1.617.836,5.171,5.171,0,0,0-.523,2.57v2.313A5.381,5.381,0,0,0,65.207-1.9a1.771,1.771,0,0,0,1.621.879,1.747,1.747,0,0,0,1.59-.828,5.186,5.186,0,0,0,.543-2.609Zm10.43,1.977a6.61,6.61,0,0,1-.867,3.773A3.084,3.084,0,0,1,75.813.156a3.107,3.107,0,0,1-2.7-1.207,6.274,6.274,0,0,1-.906-3.605v-1.93a6.463,6.463,0,0,1,.867-3.727A3.108,3.108,0,0,1,75.8-11.531a3.136,3.136,0,0,1,2.7,1.176,6.237,6.237,0,0,1,.891,3.629ZM77.945-6.828A5.3,5.3,0,0,0,77.43-9.5a1.775,1.775,0,0,0-1.633-.84,1.751,1.751,0,0,0-1.617.836,5.171,5.171,0,0,0-.523,2.57v2.313A5.381,5.381,0,0,0,74.191-1.9a1.771,1.771,0,0,0,1.621.879,1.747,1.747,0,0,0,1.59-.828,5.186,5.186,0,0,0,.543-2.609Zm10.43,1.977a6.61,6.61,0,0,1-.867,3.773A3.084,3.084,0,0,1,84.8.156a3.107,3.107,0,0,1-2.7-1.207A6.274,6.274,0,0,1,81.2-4.656v-1.93a6.463,6.463,0,0,1,.867-3.727,3.108,3.108,0,0,1,2.719-1.219,3.136,3.136,0,0,1,2.7,1.176,6.237,6.237,0,0,1,.891,3.629ZM86.93-6.828A5.3,5.3,0,0,0,86.414-9.5a1.775,1.775,0,0,0-1.633-.84,1.751,1.751,0,0,0-1.617.836,5.171,5.171,0,0,0-.523,2.57v2.313A5.381,5.381,0,0,0,83.176-1.9a1.771,1.771,0,0,0,1.621.879,1.747,1.747,0,0,0,1.59-.828,5.186,5.186,0,0,0,.543-2.609Z" transform="translate(850 15949)" fill="#12263f"/>
    <path id="Trazado_911499" data-name="Trazado 911499" d="M-3935.607,175h111.622" transform="translate(4638 15772)" fill="none" stroke="#707070" stroke-width="1"/>
    <path id="Trazado_911708" data-name="Trazado 911708" d="M7.7-6.359H1.188V-7.617H7.7Zm0,3.242H1.188v-1.25H7.7Z" transform="translate(828 15950)" fill="#12263f"/>
  </g>
</svg>
