<svg xmlns="http://www.w3.org/2000/svg" xmlns:xlink="http://www.w3.org/1999/xlink" width="113" height="113" viewBox="0 0 113 113">
  <defs>
    <filter id="Trazado_896985" x="0" y="0" width="113" height="113" filterUnits="userSpaceOnUse">
      <feOffset dy="3" input="SourceAlpha"/>
      <feGaussianBlur stdDeviation="3" result="blur"/>
      <feFlood flood-opacity="0.161"/>
      <feComposite operator="in" in2="blur"/>
      <feComposite in="SourceGraphic"/>
    </filter>
  </defs>
  <g id="Grupo_1118479" data-name="Grupo 1118479" transform="translate(-896 -19809)">
    <g id="Grupo_1118453" data-name="Grupo 1118453" transform="translate(305 16963)">
      <g id="Grupo_1118440" data-name="Grupo 1118440" transform="translate(351.5 683)">
        <g id="Grupo_1111318" data-name="Grupo 1111318" transform="translate(-92.281 -1683)">
          <g id="Grupo_1109826" data-name="Grupo 1109826" transform="translate(340.781 3852)">
            <g id="Grupo_1098742" data-name="Grupo 1098742">
              <g transform="matrix(1, 0, 0, 1, -9, -6)" filter="url(#Trazado_896985)">
                <g id="Trazado_896985-2" data-name="Trazado 896985" transform="translate(9 6)" fill="#e2dacc" opacity="0.859">
                  <path d="M 47.49993515014648 93.5 C 41.28932189941406 93.5 35.26528167724609 92.28397369384766 29.59514808654785 89.88571929931641 C 24.1176815032959 87.56894683837891 19.1981086730957 84.25197601318359 14.97306823730469 80.02693176269531 C 10.74802875518799 75.80189514160156 7.431055068969727 70.88231658935547 5.11428165435791 65.40485382080078 C 2.716028451919556 59.73471832275391 1.500001788139343 53.71067810058594 1.500001788139343 47.50006484985352 C 1.500001788139343 41.28932189941406 2.716028451919556 35.26528167724609 5.11428165435791 29.59514617919922 C 7.431055068969727 24.11767959594727 10.74802875518799 19.19810676574707 14.97306823730469 14.97306632995605 C 19.1981086730957 10.74802684783936 24.1176815032959 7.431053161621094 29.59514808654785 5.114280223846436 C 35.26528167724609 2.716026782989502 41.28932189941406 1.5 47.49993515014648 1.5 C 53.71054840087891 1.5 59.73458862304688 2.716026782989502 65.40472412109375 5.114280223846436 C 70.88218688964844 7.431053161621094 75.80176544189453 10.74802684783936 80.02680206298828 14.97306632995605 C 84.25183868408203 19.19810676574707 87.56881713867188 24.11767959594727 89.88558959960938 29.59514617919922 C 92.28384399414062 35.26528167724609 93.49987030029297 41.28932189941406 93.49987030029297 47.49993515014648 C 93.49987030029297 53.71067810058594 92.28384399414062 59.73471832275391 89.88558959960938 65.40485382080078 C 87.56881713867188 70.88231658935547 84.25183868408203 75.80189514160156 80.02680206298828 80.02693176269531 C 75.80176544189453 84.25197601318359 70.88218688964844 87.56894683837891 65.40472412109375 89.88571929931641 C 59.73458862304688 92.28397369384766 53.71054840087891 93.5 47.49993515014648 93.5 Z" stroke="none"/>
                  <path d="M 47.49993515014648 3 C 41.49116516113281 3 35.66371917724609 4.176155090332031 30.17947387695312 6.495796203613281 C 24.88081359863281 8.7369384765625 20.12149047851562 11.94596862792969 16.03372192382812 16.03372192382812 C 11.94596862792969 20.12149047851562 8.7369384765625 24.88081359863281 6.495796203613281 30.17947387695312 C 4.1761474609375 35.66372299194336 3 41.49116897583008 3 47.50006103515625 C 3 53.50883102416992 4.1761474609375 59.33627700805664 6.495796203613281 64.82052612304688 C 8.7369384765625 70.11918640136719 11.94596862792969 74.87850952148438 16.03372192382812 78.96627807617188 C 20.12149047851562 83.05403137207031 24.88081359863281 86.2630615234375 30.17947387695312 88.50419616699219 C 35.66371917724609 90.82384490966797 41.49116516113281 92 47.49993515014648 92 C 53.50870513916016 92 59.33615112304688 90.82384490966797 64.82039642333984 88.50419616699219 C 70.11905670166016 86.2630615234375 74.87837982177734 83.05403137207031 78.96614837646484 78.96627807617188 C 83.05390167236328 74.87850952148438 86.26293182373047 70.11918640136719 88.50407409667969 64.82052612304688 C 90.82372283935547 59.33627700805664 91.99987030029297 53.50883102416992 91.99987030029297 47.49993896484375 C 91.99987030029297 41.49116897583008 90.82372283935547 35.66372299194336 88.50407409667969 30.17947387695312 C 86.26293182373047 24.88081359863281 83.05390167236328 20.12149047851562 78.96614837646484 16.03372192382812 C 74.87837982177734 11.94596862792969 70.11905670166016 8.7369384765625 64.82039642333984 6.495796203613281 C 59.33615112304688 4.176155090332031 53.50870513916016 3 47.49993515014648 3 M 47.49993515014648 0 C 73.73342895507812 0 94.99987030029297 21.26644897460938 94.99987030029297 47.49993896484375 L 94.99987030029297 47.50006103515625 C 94.99987030029297 73.73355102539062 73.73342895507812 95 47.49993515014648 95 C 21.26644134521484 95 0 73.73355102539062 0 47.50006103515625 L 0 47.49993896484375 C 0 21.26644897460938 21.26644134521484 0 47.49993515014648 0 Z" stroke="none" fill="#fff"/>
                </g>
              </g>
              <g id="Rectángulo_400907" data-name="Rectángulo 400907" transform="translate(0 0)" fill="none" stroke="#fff" stroke-width="3">
                <rect width="95" height="95" rx="47.5" stroke="none"/>
                <rect x="1.5" y="1.5" width="92" height="92" rx="46" fill="none"/>
              </g>
            </g>
          </g>
        </g>
      </g>
    </g>
    <g id="Fill_Outline" data-name="Fill Outline" transform="translate(926.452 19834.865)">
      <g id="Color" transform="translate(1.814 2.821)">
        <path id="Trazado_911579" data-name="Trazado 911579" d="M9,19h4.927V30.5H9Z" transform="translate(-3.245 -5.862)" fill="#48cae4"/>
        <path id="Trazado_911580" data-name="Trazado 911580" d="M9,19h4.927v4.106H9Z" transform="translate(-3.245 -5.862)" fill="#ffea00"/>
        <path id="Trazado_911581" data-name="Trazado 911581" d="M13.927,25.569V30.5H9V19h2.463v4.106a2.463,2.463,0,0,0,2.463,2.463Z" transform="translate(-3.245 -5.862)" fill="#00b4d8"/>
        <path id="Trazado_911582" data-name="Trazado 911582" d="M19,10h4.927V23.138H19Z" transform="translate(-5.034 -4.252)" fill="#48cae4"/>
        <path id="Trazado_911583" data-name="Trazado 911583" d="M19,10h4.927v3.284H19Z" transform="translate(-5.034 -4.252)" fill="#ffea00"/>
        <path id="Trazado_911584" data-name="Trazado 911584" d="M23.927,17.39v5.748H19V10h2.463v4.927a2.463,2.463,0,0,0,2.463,2.463Z" transform="translate(-5.034 -4.252)" fill="#00b4d8"/>
        <path id="Trazado_911585" data-name="Trazado 911585" d="M19,10h2.463v3.284H19Z" transform="translate(-5.034 -4.252)" fill="#ffd000"/>
        <path id="Trazado_911586" data-name="Trazado 911586" d="M29,13h4.927V24.5H29Z" transform="translate(-6.823 -4.789)" fill="#48cae4"/>
        <path id="Trazado_911587" data-name="Trazado 911587" d="M29,13h4.927v4.106H29Z" transform="translate(-6.823 -4.789)" fill="#ffea00"/>
        <path id="Trazado_911588" data-name="Trazado 911588" d="M33.927,21.211V24.5H29V13h2.463v5.748A2.463,2.463,0,0,0,33.927,21.211Z" transform="translate(-6.823 -4.789)" fill="#00b4d8"/>
        <path id="Trazado_911589" data-name="Trazado 911589" d="M43.927,3H39V19.422l4.927-2.463Z" transform="translate(-8.612 -3)" fill="#48cae4"/>
        <path id="Trazado_911590" data-name="Trazado 911590" d="M39,3h4.927V6.284H39Z" transform="translate(-8.612 -3)" fill="#ffea00"/>
        <path id="Trazado_911591" data-name="Trazado 911591" d="M43.927,12.032v4.927L39,19.422V3h2.463V9.569a2.463,2.463,0,0,0,2.463,2.463Z" transform="translate(-8.612 -3)" fill="#00b4d8"/>
        <path id="Trazado_911592" data-name="Trazado 911592" d="M49.667,5H43.1l2.123,2.123L28.729,23.615,22.743,17.63,6.829,29.123l1.923,2.664L22.4,21.931l6.331,6.331L47.544,9.446l2.123,2.123Z" transform="translate(-2.857 -3.358)" fill="#ef5350"/>
        <path id="Trazado_911593" data-name="Trazado 911593" d="M49.667,5v6.569L47.541,9.442,28.729,28.262,22.4,21.931,8.751,31.785,6.83,29.124,8,28.279l.164.222a1.012,1.012,0,0,0,1.412.23L20.7,20.691a2.463,2.463,0,0,1,3.186.263L27,24.058a2.453,2.453,0,0,0,3.473.008L49.643,5Z" transform="translate(-2.857 -3.358)" fill="#e53935"/>
        <circle id="Elipse_13525" data-name="Elipse 13525" cx="4.106" cy="4.106" r="4.106" transform="translate(0.828 0)" fill="#48cae4"/>
        <path id="Trazado_911594" data-name="Trazado 911594" d="M49,57h3.284v3.284H49Z" transform="translate(-10.401 -12.66)" fill="#ade8f4"/>
        <path id="Trazado_911595" data-name="Trazado 911595" d="M53,57h3.284v3.284H53Z" transform="translate(-11.117 -12.66)" fill="#48cae4"/>
        <path id="Trazado_911596" data-name="Trazado 911596" d="M57,57h3.284v3.284H57Z" transform="translate(-11.832 -12.66)" fill="#00b4d8"/>
        <path id="Trazado_911597" data-name="Trazado 911597" d="M41.071,36.658,33.106,46.8l-7.39-3.284,12.143-10a2.243,2.243,0,0,1,3.22.386l.022.03a2.242,2.242,0,0,1-.031,2.731Z" transform="translate(-6.236 -8.367)" fill="#ffa200"/>
        <path id="Trazado_911598" data-name="Trazado 911598" d="M47.533,35.858,39.565,46l-9.853-.821L44.318,32.764a2.243,2.243,0,0,1,3.215,3.095Z" transform="translate(-6.951 -8.229)" fill="#ffd000"/>
        <path id="Trazado_911599" data-name="Trazado 911599" d="M48.013,34.581a2.222,2.222,0,0,1-.476,1.388L39.563,46.109l-9.853-.821,7.825-6.651.361.14a3.272,3.272,0,0,0,3.424-.616l5.855-5.321a1.957,1.957,0,0,1,.386.394,2.234,2.234,0,0,1,.452,1.347Z" transform="translate(-6.95 -8.338)" fill="#ffa200"/>
        <path id="Trazado_911600" data-name="Trazado 911600" d="M56.533,33.858,48.565,44l-9.853-.821L53.318,30.764a2.243,2.243,0,0,1,3.215,3.095Z" transform="translate(-8.561 -7.871)" fill="#ffea00"/>
        <path id="Trazado_911601" data-name="Trazado 911601" d="M57.013,32.584a2.222,2.222,0,0,1-.476,1.388L48.563,44.113l-9.853-.821,3.235-2.751h.008a8.219,8.219,0,0,0,5.469-2.028L56.2,30.86a1.98,1.98,0,0,1,.361.378A2.234,2.234,0,0,1,57.013,32.584Z" transform="translate(-8.56 -7.984)" fill="#ffd000"/>
        <path id="Trazado_911602" data-name="Trazado 911602" d="M49.821,36.708a2.207,2.207,0,0,0-2.883.008l-8.046,6.705H30.271a2.053,2.053,0,0,0,2.043-2.265,2.135,2.135,0,0,0-2.16-1.841H24.635a13.77,13.77,0,0,0-6.69,1.526l-1.72.911A28.566,28.566,0,0,0,3,56.559H19.186l.39-.976a5.748,5.748,0,0,1,4.594-3.565l11.943-1.56A10.674,10.674,0,0,0,42.28,47.42L49.9,39.809a2.141,2.141,0,0,0-.076-3.1Z" transform="translate(-2.172 -8.935)" fill="#ffea00"/>
        <path id="Trazado_911603" data-name="Trazado 911603" d="M49.894,39.884,42.282,47.5a10.674,10.674,0,0,1-6.167,3.038l-11.947,1.56a5.752,5.752,0,0,0-4.59,3.564l-.394.977H3a28.4,28.4,0,0,1,7.645-10.929,11.47,11.47,0,0,0,9.6,5.181h.213a5.721,5.721,0,0,1,2.89-1.256l11.947-1.56a10.674,10.674,0,0,0,6.167-3.038l7.612-7.612a2.175,2.175,0,0,0,.517-.821,2.475,2.475,0,0,1,.23.181,2.135,2.135,0,0,1,.074,3.1Z" transform="translate(-2.172 -9.011)" fill="#ffd000"/>
        <path id="Trazado_911604" data-name="Trazado 911604" d="M35.365,40.12a1.921,1.921,0,0,1,.025.312,2.046,2.046,0,0,1-2.053,2.053H29.4v.024A1.642,1.642,0,0,0,28,44.127h6.741a2.053,2.053,0,0,0,.624-4.007Z" transform="translate(-6.644 -9.64)" fill="#ffd000"/>
        <circle id="Elipse_13526" data-name="Elipse 13526" cx="7.39" cy="7.39" r="7.39" transform="translate(0.007 21.349)" fill="#ffea00"/>
        <path id="Trazado_911605" data-name="Trazado 911605" d="M16.122,39.571A7.39,7.39,0,1,1,6.35,29.8a7.383,7.383,0,0,0,9.771,9.771Z" transform="translate(-1.992 -7.794)" fill="#ffd000"/>
        <circle id="Elipse_13527" data-name="Elipse 13527" cx="5.748" cy="5.748" r="5.748" transform="translate(1.649 22.991)" fill="#ffd000"/>
        <path id="Trazado_911606" data-name="Trazado 911606" d="M9.748,31a5.744,5.744,0,1,0,4.066,1.682A5.748,5.748,0,0,0,9.748,31Zm3.72,9.443h-.025a7.39,7.39,0,0,1-7.39-7.39v-.025a5.733,5.733,0,0,1,7.415,7.415Z" transform="translate(-2.351 -8.009)" fill="#ffb700"/>
        <path id="Trazado_911607" data-name="Trazado 911607" d="M11.113,8.163A4.106,4.106,0,1,1,4.741,3.91a4.041,4.041,0,0,0-.1.9,4.106,4.106,0,0,0,6.47,3.358Z" transform="translate(-2.172 -3.163)" fill="#00b4d8"/>
        <path id="Trazado_911608" data-name="Trazado 911608" d="M12.106,7.784a4.119,4.119,0,0,1-2.488,3.777L8,7.784l3.982-.994A3.968,3.968,0,0,1,12.106,7.784Z" transform="translate(-3.067 -3.678)" fill="#ffea00"/>
        <g id="Grupo_1118478" data-name="Grupo 1118478" transform="translate(5.582 0)">
          <path id="Trazado_911609" data-name="Trazado 911609" d="M12.148,9.09a4.12,4.12,0,0,1-2.389,2.882L8.79,9.714a3.968,3.968,0,0,0,.994.123,4.129,4.129,0,0,0,2.365-.747Z" transform="translate(-8.79 -4.089)" fill="#ffd000"/>
          <path id="Trazado_911610" data-name="Trazado 911610" d="M39,3h2.463V6.284H39Z" transform="translate(-14.194 -3)" fill="#ffd000"/>
          <path id="Trazado_911611" data-name="Trazado 911611" d="M29,13h2.463v4.106H29Z" transform="translate(-12.405 -4.789)" fill="#ffd000"/>
          <path id="Trazado_911612" data-name="Trazado 911612" d="M9,19h2.463v4.106H9Z" transform="translate(-8.828 -5.862)" fill="#ffd000"/>
        </g>
      </g>
      <g id="Outline_copy" data-name="Outline copy" transform="translate(1 2)">
        <path id="Trazado_911613" data-name="Trazado 911613" d="M49.836,29.959l-2.8,2.381c-.049-.082-.1-.164-.155-.241a3.064,3.064,0,0,0-4.434-.493l-1.333,1.129a3.063,3.063,0,0,0-4.4-.527l-6.136,5.043H28.072a15.581,15.581,0,0,0-5.312.843.821.821,0,1,0,.553,1.547,13.959,13.959,0,0,1,4.758-.748h5.519A1.314,1.314,0,0,1,34.93,40a1.232,1.232,0,0,1-1.222,1.361H26.729a.821.821,0,1,0,0,1.642h15.6a.821.821,0,0,0,.526-.19L50.9,36.1a1.4,1.4,0,0,1,1.806-.034,1.32,1.32,0,0,1,.436.952,1.3,1.3,0,0,1-.386.961l-3.567,3.567a.821.821,0,1,0,1.162,1.161l3.566-3.566a2.956,2.956,0,0,0-.1-4.285c-.022-.021-.048-.034-.071-.054l.486-.619a3.063,3.063,0,0,0-4.392-4.227Zm-6.327,2.893a1.422,1.422,0,0,1,2.058.23,1.345,1.345,0,0,1,.187.347l-9.327,7.929H36.3a2.887,2.887,0,0,0,.264-1.526,2.668,2.668,0,0,0-.246-.866Zm-9.917,4.4h-.427l4.592-3.777a1.416,1.416,0,0,1,1.067-.314,1.434,1.434,0,0,1,.99.588c.014.018.017.045.03.064l-4.619,3.926a3.06,3.06,0,0,0-1.635-.486ZM52.956,31.44a1.425,1.425,0,0,1-.019,1.732l-.764.968a3.114,3.114,0,0,0-2.327.7l-7.814,6.515H38.961L50.9,31.21a1.422,1.422,0,0,1,2.058.23Z" transform="translate(-4.795 -6.871)" fill="#323232"/>
        <path id="Trazado_911614" data-name="Trazado 911614" d="M47.935,48.172a.821.821,0,1,0-1.161-1.161L45.05,48.735a9.9,9.9,0,0,1-5.694,2.806L27.412,53.1a6.575,6.575,0,0,0-5.249,4.074l-.391.977a.821.821,0,1,0,1.526.609l.39-.976a4.927,4.927,0,0,1,3.936-3.055l11.944-1.56A11.55,11.55,0,0,0,46.21,49.9Z" transform="translate(-4.705 -10.009)" fill="#323232"/>
        <path id="Trazado_911615" data-name="Trazado 911615" d="M21.27,22.469l5.836,5.836a.821.821,0,0,0,1.161,0l7.8-7.8a.821.821,0,1,0-1.161-1.161l-7.22,7.22-5.748-5.748a.821.821,0,0,0-1.062-.082l-6.348,4.585a8.251,8.251,0,0,0-1.438-.985l8.526-6.158,5.492,5.492a.821.821,0,0,0,1.161,0l16.49-16.5a.821.821,0,0,0,0-1.161l-.722-.722H47.8V9.05l-.722-.722a.821.821,0,0,0-1.161,0l-8.692,8.692a.821.821,0,1,0,1.161,1.161L46.5,10.07l1.543,1.543a.821.821,0,0,0,1.4-.581V4.463a.821.821,0,0,0-.821-.821H42.056a.821.821,0,0,0-.581,1.4l1.543,1.543L37.95,11.655V2.821A.821.821,0,0,0,37.129,2H32.2a.821.821,0,0,0-.821.821V8.569a.821.821,0,1,0,1.642,0V6.927h3.284V13.3l-3.284,3.284V11.853a.821.821,0,1,0-1.642,0v6.369l-1.642,1.642V11.032a.821.821,0,0,0-.821-.821H23.991a.821.821,0,0,0-.821.821V17.4l-.889-.889a.821.821,0,0,0-.753-.215V8.569a.821.821,0,0,0-.821-.821H15.78a.821.821,0,0,0-.821.821v6.569a.821.821,0,1,0,1.642,0V12.674h3.284v4.716L16.6,19.762v-1.34a.821.821,0,1,0-1.642,0v2.527l-1.642,1.186V15.959a.821.821,0,0,0-.821-.821H7.569a.821.821,0,0,0-.821.821v7.783a8.234,8.234,0,0,0-1.9.872A.821.821,0,1,0,5.72,26,6.585,6.585,0,1,1,3.654,28.07a.821.821,0,1,0-1.389-.876A8.192,8.192,0,0,0,8.834,39.752,29.414,29.414,0,0,0,1.878,50.146a.821.821,0,1,0,1.529.6,27.8,27.8,0,0,1,8.239-11.311c.016-.013.022-.031.036-.045a8.193,8.193,0,0,0,3.991-12.878ZM33.023,5.284V3.642h3.284V5.284Zm-8.211,6.569H28.1v2.463H24.812Zm0,4.106H28.1v5.548l-.411.411-2.874-2.874ZM16.6,11.032V9.39h3.284v1.642ZM8.39,16.78h3.284v2.463H8.39Zm0,6.627V20.886h3.284v2.435l-.382.275c-.009.007-.013.017-.022.025a8.158,8.158,0,0,0-2.059-.272A8.046,8.046,0,0,0,8.39,23.407Z" transform="translate(-1 -2)" fill="#323232"/>
        <path id="Trazado_911616" data-name="Trazado 911616" d="M45.4,27.434,54.434,18.4a.821.821,0,1,0-1.161-1.161l-9.032,9.032A.821.821,0,1,0,45.4,27.434Z" transform="translate(-8.692 -4.683)" fill="#323232"/>
        <path id="Trazado_911617" data-name="Trazado 911617" d="M22.277,33.146l1.9-1.269,2.808,2.808a.821.821,0,1,0,1.161-1.161l-3.285-3.284a.821.821,0,0,0-1.036-.1L21.365,31.78a.821.821,0,0,0,.911,1.366Z" transform="translate(-4.577 -7.009)" fill="#323232"/>
        <path id="Trazado_911618" data-name="Trazado 911618" d="M6.927,11.853A4.927,4.927,0,1,0,2,6.927a4.927,4.927,0,0,0,4.927,4.927ZM8.061,7.49l2.15-.535A3.269,3.269,0,0,1,8.929,9.513ZM6.927,3.642A3.272,3.272,0,0,1,9.8,5.367L6.728,6.13a.821.821,0,0,0-.556,1.12l1.247,2.911a3.241,3.241,0,0,1-.493.05,3.284,3.284,0,1,1,0-6.569Z" transform="translate(-1.178 -2)" fill="#323232"/>
        <path id="Trazado_911619" data-name="Trazado 911619" d="M58.674,56H48.821a.821.821,0,0,0-.821.821v3.284a.821.821,0,0,0,.821.821h9.853a.821.821,0,0,0,.821-.821V56.821A.821.821,0,0,0,58.674,56Zm-9.032,1.642h1.642v1.642H49.642Zm3.284,0h1.642v1.642H52.927Zm4.927,1.642H56.211V57.642h1.642Z" transform="translate(-9.407 -11.66)" fill="#323232"/>
        <path id="Trazado_911620" data-name="Trazado 911620" d="M10.463,39.211a.821.821,0,0,1-.821-.821A.821.821,0,1,0,8,38.39,2.463,2.463,0,0,0,9.642,40.7v.972a.821.821,0,1,0,1.642,0V40.7a2.458,2.458,0,0,0-.821-4.776.821.821,0,1,1,.821-.821.821.821,0,1,0,1.642,0,2.463,2.463,0,0,0-1.642-2.312v-.972a.821.821,0,0,0-1.642,0v.972a2.458,2.458,0,0,0,.821,4.776.821.821,0,0,1,0,1.642Z" transform="translate(-2.252 -7.188)" fill="#323232"/>
      </g>
    </g>
  </g>
</svg>
