<svg xmlns="http://www.w3.org/2000/svg" width="1002.076" height="556.816" viewBox="0 0 1002.076 556.816">
  <g id="Grupo_60197" data-name="Grupo 60197" transform="translate(-256 -8411)">
    <g id="Grupo_60146" data-name="Grupo 60146" transform="translate(256 8411)">
      <path id="Trazado_113277" data-name="Trazado 113277" d="M0,0V578.827" transform="translate(889.051 101.602) rotate(90)" fill="none" stroke="#eaccb2" stroke-linecap="round" stroke-miterlimit="10" stroke-width="5"/>
      <path id="Trazado_113278" data-name="Trazado 113278" d="M0,0V341.512" transform="translate(889.05 443.39) rotate(180)" fill="none" stroke="#eaccb2" stroke-linecap="round" stroke-miterlimit="10" stroke-width="5"/>
      <path id="Trazado_113280" data-name="Trazado 113280" d="M0,0V341.512" transform="translate(310.189 443.39) rotate(180)" fill="none" stroke="#eaccb2" stroke-linecap="round" stroke-miterlimit="10" stroke-width="5"/>
      <path id="Trazado_113283" data-name="Trazado 113283" d="M0,0V95.847" transform="translate(668.772 101.877) rotate(180)" fill="none" stroke="#eaccb2" stroke-linecap="round" stroke-miterlimit="10" stroke-width="5"/>
      <path id="Trazado_113281" data-name="Trazado 113281" d="M0,0V287.626" transform="translate(97.251 523.609) rotate(180)" fill="none" stroke="#eaccb2" stroke-linecap="round" stroke-miterlimit="10" stroke-width="5"/>
      <path id="Trazado_113282" data-name="Trazado 113282" d="M0,0V287.626" transform="translate(562.303 523.609) rotate(180)" fill="none" stroke="#eaccb2" stroke-linecap="round" stroke-miterlimit="10" stroke-width="5"/>
      <path id="Trazado_113279" data-name="Trazado 113279" d="M0,0V465.053" transform="translate(562.303 235.983) rotate(90)" fill="none" stroke="#eaccb2" stroke-linecap="round" stroke-miterlimit="10" stroke-width="5"/>
      <rect id="Rectángulo_28887" data-name="Rectángulo 28887" width="194.065" height="80.938" rx="12" transform="translate(571.521)" fill="#6595bf"/>
      <path id="Trazado_113476" data-name="Trazado 113476" d="M34.375,16.074v5.542H31.134V5.888H37.27a7.1,7.1,0,0,1,3.117.645,4.776,4.776,0,0,1,2.069,1.844,5.135,5.135,0,0,1,.724,2.717A4.517,4.517,0,0,1,41.6,14.739a6.591,6.591,0,0,1-4.38,1.334Zm0-2.625H37.27a2.847,2.847,0,0,0,1.961-.6,2.2,2.2,0,0,0,.675-1.728,2.594,2.594,0,0,0-.68-1.869,2.542,2.542,0,0,0-1.88-.737h-2.97Zm17.478,8.167a3.467,3.467,0,0,1-.313-1.048,3.779,3.779,0,0,1-2.95,1.264,4.148,4.148,0,0,1-2.847-.994,3.2,3.2,0,0,1-1.129-2.506,3.3,3.3,0,0,1,1.377-2.852,6.8,6.8,0,0,1,3.98-1H51.41V13.8a1.926,1.926,0,0,0-.416-1.3,1.636,1.636,0,0,0-1.313-.486,1.86,1.86,0,0,0-1.237.378A1.284,1.284,0,0,0,48,13.437H44.874a3.134,3.134,0,0,1,.627-1.88A4.142,4.142,0,0,1,47.273,10.2a6.453,6.453,0,0,1,2.571-.491,5.1,5.1,0,0,1,3.43,1.086,3.8,3.8,0,0,1,1.269,3.052v5.07A5.588,5.588,0,0,0,55,21.435v.181Zm-2.581-2.171a2.689,2.689,0,0,0,1.275-.308,2.023,2.023,0,0,0,.865-.83V16.3H50.244q-2.344,0-2.5,1.621l-.011.184a1.25,1.25,0,0,0,.41.961,1.6,1.6,0,0,0,1.124.381Zm14-1.055a1.006,1.006,0,0,0-.567-.9,6.442,6.442,0,0,0-1.821-.589q-4.169-.875-4.169-3.543a3.212,3.212,0,0,1,1.291-2.6,5.207,5.207,0,0,1,3.376-1.043,5.6,5.6,0,0,1,3.559,1.048,3.3,3.3,0,0,1,1.334,2.722H63.152a1.511,1.511,0,0,0-.432-1.106,1.829,1.829,0,0,0-1.35-.438,1.869,1.869,0,0,0-1.22.357,1.126,1.126,0,0,0-.432.907.962.962,0,0,0,.491.837,5.056,5.056,0,0,0,1.659.553,13.544,13.544,0,0,1,1.966.524,3.23,3.23,0,0,1,2.474,3.143,3.048,3.048,0,0,1-1.374,2.582,5.918,5.918,0,0,1-3.543.988,6.182,6.182,0,0,1-2.609-.524,4.377,4.377,0,0,1-1.787-1.437,3.338,3.338,0,0,1-.645-1.972H59.31a1.63,1.63,0,0,0,.616,1.275,2.442,2.442,0,0,0,1.534.442,2.26,2.26,0,0,0,1.356-.34,1.059,1.059,0,0,0,.458-.887Zm8.337,3.226H68.476V9.927h3.134ZM68.292,6.9a1.538,1.538,0,0,1,.47-1.156,2.028,2.028,0,0,1,2.554,0A1.528,1.528,0,0,1,71.792,6.9a1.533,1.533,0,0,1-.478,1.162,2,2,0,0,1-2.539,0,1.533,1.533,0,0,1-.48-1.162ZM78.556,17.8l2.171-7.875H83.99L80.051,21.616H77.066L73.123,9.927h3.262Zm6.158-2.139a6.932,6.932,0,0,1,.67-3.1,4.9,4.9,0,0,1,1.928-2.106,5.623,5.623,0,0,1,2.922-.746A5.323,5.323,0,0,1,94.1,11.159a5.807,5.807,0,0,1,1.669,3.932l.021.8a6.109,6.109,0,0,1-1.5,4.316,5.819,5.819,0,0,1-8.064.006,6.217,6.217,0,0,1-1.507-4.4Zm3.122.221a4.369,4.369,0,0,0,.627,2.548,2.251,2.251,0,0,0,3.565.011,4.78,4.78,0,0,0,.637-2.786,4.325,4.325,0,0,0-.637-2.531,2.072,2.072,0,0,0-1.793-.9,2.038,2.038,0,0,0-1.772.892A4.862,4.862,0,0,0,87.836,15.885Zm16.2,2.5a1.006,1.006,0,0,0-.567-.9,6.442,6.442,0,0,0-1.821-.589q-4.169-.875-4.169-3.543a3.212,3.212,0,0,1,1.291-2.6,5.207,5.207,0,0,1,3.376-1.043,5.6,5.6,0,0,1,3.559,1.048,3.3,3.3,0,0,1,1.334,2.722H103.92a1.511,1.511,0,0,0-.432-1.106,1.829,1.829,0,0,0-1.35-.438,1.868,1.868,0,0,0-1.22.357,1.125,1.125,0,0,0-.432.907.962.962,0,0,0,.491.837,5.056,5.056,0,0,0,1.659.553,13.544,13.544,0,0,1,1.966.524,3.23,3.23,0,0,1,2.474,3.143,3.048,3.048,0,0,1-1.372,2.588,5.918,5.918,0,0,1-3.543.988,6.182,6.182,0,0,1-2.609-.524,4.377,4.377,0,0,1-1.787-1.437,3.338,3.338,0,0,1-.645-1.972h2.96a1.63,1.63,0,0,0,.616,1.275,2.442,2.442,0,0,0,1.534.442,2.26,2.26,0,0,0,1.356-.34,1.059,1.059,0,0,0,.455-.892Z" transform="translate(599.507 27.24)" fill="#fff"/>
      <rect id="Rectángulo_28893" data-name="Rectángulo 28893" width="236.975" height="56.433" rx="12" transform="translate(765.101 150.974)" fill="#e6dcfb"/>
      <rect id="Rectángulo_28896" data-name="Rectángulo 28896" width="236.975" height="56.433" rx="12" transform="translate(191.736 150.974)" fill="#e6dcfb"/>
      <rect id="Rectángulo_28897" data-name="Rectángulo 28897" width="193.58" height="56.433" rx="12" transform="translate(0 280.433)" fill="#aed3f2"/>
      <rect id="Rectángulo_28900" data-name="Rectángulo 28900" width="193.58" height="129.638" rx="12" transform="translate(0 426.797)" fill="#ddeffd"/>
      <rect id="Rectángulo_28898" data-name="Rectángulo 28898" width="193.58" height="56.433" rx="12" transform="translate(212.938 280.433)" fill="#aed3f2"/>
      <rect id="Rectángulo_28901" data-name="Rectángulo 28901" width="193.58" height="129.638" rx="12" transform="translate(212.938 426.797)" fill="#ddeffd"/>
      <rect id="Rectángulo_28899" data-name="Rectángulo 28899" width="193.58" height="56.433" rx="12" transform="translate(463.67 280.433)" fill="#aed3f2"/>
      <rect id="Rectángulo_28902" data-name="Rectángulo 28902" width="268.246" height="129.638" rx="12" transform="translate(425.876 426.797)" fill="#ddeffd"/>
      <rect id="Rectángulo_28894" data-name="Rectángulo 28894" width="236.975" height="56.433" rx="12" transform="translate(765.101 291.111)" fill="#aed3f2"/>
      <rect id="Rectángulo_28895" data-name="Rectángulo 28895" width="236.975" height="125.569" rx="12" transform="translate(765.101 431.247)" fill="#ddeffd"/>
      <path id="Trazado_113477" data-name="Trazado 113477" d="M57.865,12.085h-5.5v5.788H50.636V4.766h8.12V6.179H52.364v4.492h5.5Zm4.509,5.788H60.71V8.133h1.665Zm-1.8-12.324a.994.994,0,0,1,.248-.684.929.929,0,0,1,.737-.277.944.944,0,0,1,.737.277.984.984,0,0,1,.252.684.951.951,0,0,1-.252.675.961.961,0,0,1-.737.27.946.946,0,0,1-.737-.27A.961.961,0,0,1,60.574,5.549ZM66.615,8.13l.054,1.224a3.549,3.549,0,0,1,2.917-1.4q3.088,0,3.115,3.484v6.439H71.035V11.428a2.242,2.242,0,0,0-.481-1.557,1.93,1.93,0,0,0-1.475-.5,2.4,2.4,0,0,0-1.422.432,2.934,2.934,0,0,0-.954,1.134v6.94H65.039V8.133Zm14.61,9.743a3.5,3.5,0,0,1-.234-1.026,3.716,3.716,0,0,1-2.772,1.21,3.438,3.438,0,0,1-2.363-.815,2.635,2.635,0,0,1-.922-2.066,2.753,2.753,0,0,1,1.157-2.363,5.453,5.453,0,0,1,3.254-.842h1.621v-.765a1.87,1.87,0,0,0-.522-1.391A2.1,2.1,0,0,0,78.9,9.3a2.428,2.428,0,0,0-1.494.45,1.326,1.326,0,0,0-.6,1.09H75.13a2.3,2.3,0,0,1,.518-1.409,3.532,3.532,0,0,1,1.4-1.076A4.724,4.724,0,0,1,79,7.957a3.85,3.85,0,0,1,2.637.842,3.036,3.036,0,0,1,.99,2.318V15.6a5.481,5.481,0,0,0,.342,2.133v.14ZM78.459,16.6a2.927,2.927,0,0,0,1.485-.4,2.45,2.45,0,0,0,1.014-1.054v-2h-1.3q-3.06,0-3.06,1.791a1.516,1.516,0,0,0,.522,1.224,2.007,2.007,0,0,0,1.341.442Zm8.354-8.471.054,1.224a3.549,3.549,0,0,1,2.917-1.4q3.088,0,3.115,3.484v6.436H91.235V11.428a2.242,2.242,0,0,0-.481-1.557,1.93,1.93,0,0,0-1.475-.5,2.4,2.4,0,0,0-1.422.432,2.934,2.934,0,0,0-.954,1.134v6.94H85.24V8.133Zm12.5,8.561a2.4,2.4,0,0,0,1.557-.54,1.9,1.9,0,0,0,.737-1.35h1.575a3.02,3.02,0,0,1-.576,1.594,3.794,3.794,0,0,1-1.418,1.207,4.091,4.091,0,0,1-1.877.45,4.013,4.013,0,0,1-3.165-1.327,5.288,5.288,0,0,1-1.174-3.632v-.277a5.863,5.863,0,0,1,.522-2.529A3.977,3.977,0,0,1,97,8.563a4.258,4.258,0,0,1,2.3-.612,3.907,3.907,0,0,1,2.728.981,3.5,3.5,0,0,1,1.157,2.548h-1.575a2.3,2.3,0,0,0-.715-1.553,2.226,2.226,0,0,0-1.589-.607,2.331,2.331,0,0,0-1.967.914,4.291,4.291,0,0,0-.7,2.642v.315a4.205,4.205,0,0,0,.693,2.593,2.342,2.342,0,0,0,1.98.912Zm7.555,1.179h-1.666V8.133h1.666Zm-1.8-12.324a.994.994,0,0,1,.248-.684.929.929,0,0,1,.737-.277.944.944,0,0,1,.737.277.984.984,0,0,1,.252.684.951.951,0,0,1-.252.675.961.961,0,0,1-.737.27.946.946,0,0,1-.737-.27.961.961,0,0,1-.248-.675Zm8.506,12.508a4.256,4.256,0,0,1-3.226-1.3,4.828,4.828,0,0,1-1.243-3.479v-.306a5.845,5.845,0,0,1,.553-2.588A4.319,4.319,0,0,1,111.211,8.6a3.893,3.893,0,0,1,2.156-.645,3.648,3.648,0,0,1,2.961,1.253,5.417,5.417,0,0,1,1.054,3.583v.693h-6.6a3.462,3.462,0,0,0,.842,2.327,2.646,2.646,0,0,0,2.048.887,2.9,2.9,0,0,0,1.494-.36,3.754,3.754,0,0,0,1.071-.954l1.014.792A4.09,4.09,0,0,1,113.578,18.057Zm-.207-8.732a2.222,2.222,0,0,0-1.692.737,3.567,3.567,0,0,0-.846,2.057h4.879v-.126a3.172,3.172,0,0,0-.684-1.967,2.092,2.092,0,0,0-1.656-.7Zm10.64.306a4.991,4.991,0,0,0-.819-.063,2.195,2.195,0,0,0-2.223,1.4v6.909H119.3V8.133h1.621l.027,1.126a2.593,2.593,0,0,1,2.323-1.305,1.7,1.7,0,0,1,.737.126Zm.909,3.285a5.753,5.753,0,0,1,.562-2.575,4.2,4.2,0,0,1,1.567-1.764,4.264,4.264,0,0,1,2.291-.621,4.108,4.108,0,0,1,3.218,1.377A5.3,5.3,0,0,1,133.787,13v.117a5.808,5.808,0,0,1-.545,2.552,4.135,4.135,0,0,1-1.557,1.76,4.313,4.313,0,0,1-2.327.631,4.1,4.1,0,0,1-3.209-1.377,5.272,5.272,0,0,1-1.229-3.646Zm1.674.2a4.167,4.167,0,0,0,.751,2.6,2.547,2.547,0,0,0,4.028-.014,4.556,4.556,0,0,0,.748-2.786,4.16,4.16,0,0,0-.76-2.6,2.418,2.418,0,0,0-2.021-.995,2.391,2.391,0,0,0-1.989.981,4.522,4.522,0,0,0-.756,2.805Zm14.954,2.177a1.226,1.226,0,0,0-.509-1.049,4.9,4.9,0,0,0-1.774-.645,8.389,8.389,0,0,1-2.008-.645,2.858,2.858,0,0,1-1.1-.9,2.153,2.153,0,0,1-.356-1.243,2.527,2.527,0,0,1,1.014-2.028,3.955,3.955,0,0,1,2.588-.83,4.07,4.07,0,0,1,2.687.855,2.717,2.717,0,0,1,1.031,2.187H141.45a1.5,1.5,0,0,0-.581-1.179,2.175,2.175,0,0,0-1.463-.5,2.277,2.277,0,0,0-1.422.4,1.247,1.247,0,0,0-.513,1.035,1.014,1.014,0,0,0,.477.909,5.87,5.87,0,0,0,1.724.585,8.982,8.982,0,0,1,2.021.666,2.95,2.95,0,0,1,1.148.932,2.291,2.291,0,0,1,.373,1.327,2.489,2.489,0,0,1-1.044,2.093,4.38,4.38,0,0,1-2.709.787,4.9,4.9,0,0,1-2.07-.414,3.367,3.367,0,0,1-1.409-1.157,2.788,2.788,0,0,1-.509-1.607h1.666a1.724,1.724,0,0,0,.671,1.327,2.6,2.6,0,0,0,1.652.49,2.685,2.685,0,0,0,1.517-.383,1.175,1.175,0,0,0,.57-1.019Z" transform="translate(786.953 167.208)" fill="#344154"/>
      <path id="Trazado_113475" data-name="Trazado 113475" d="M64.478,11.743a8.112,8.112,0,0,1-.645,3.362A4.91,4.91,0,0,1,62,17.3a5.07,5.07,0,0,1-7.374-2.174,7.779,7.779,0,0,1-.679-3.263v-.946a8.011,8.011,0,0,1,.657-3.34,4.86,4.86,0,0,1,4.609-2.989,5.081,5.081,0,0,1,2.777.76,4.9,4.9,0,0,1,1.844,2.2,8.147,8.147,0,0,1,.645,3.362ZM62.759,10.9a5.877,5.877,0,0,0-.937-3.578A3.088,3.088,0,0,0,59.2,6.074a3.055,3.055,0,0,0-2.581,1.247,5.757,5.757,0,0,0-.968,3.454v.968a5.885,5.885,0,0,0,.949,3.552,3.328,3.328,0,0,0,5.207.072,5.852,5.852,0,0,0,.945-3.5Zm12.278,2.212a5.832,5.832,0,0,1-1.014,3.583,3.26,3.26,0,0,1-2.758,1.365,3.572,3.572,0,0,1-2.79-1.126v4.69H66.809V8.133H68.33l.081,1.08a3.431,3.431,0,0,1,2.826-1.26,3.319,3.319,0,0,1,2.777,1.324,5.9,5.9,0,0,1,1.021,3.682Zm-1.666-.189a4.3,4.3,0,0,0-.7-2.6,2.262,2.262,0,0,0-1.927-.954,2.448,2.448,0,0,0-2.269,1.341V15.36a2.453,2.453,0,0,0,2.286,1.332,2.251,2.251,0,0,0,1.9-.949,4.7,4.7,0,0,0,.709-2.821ZM81.2,18.057a4.256,4.256,0,0,1-3.226-1.3,4.828,4.828,0,0,1-1.243-3.479v-.306a5.845,5.845,0,0,1,.553-2.588A4.319,4.319,0,0,1,78.828,8.6a3.893,3.893,0,0,1,2.156-.645,3.648,3.648,0,0,1,2.95,1.251,5.417,5.417,0,0,1,1.054,3.583v.693H78.4a3.462,3.462,0,0,0,.842,2.327,2.646,2.646,0,0,0,2.048.887,2.9,2.9,0,0,0,1.494-.36,3.755,3.755,0,0,0,1.071-.954l1.014.792A4.09,4.09,0,0,1,81.2,18.057Zm-.207-8.732a2.222,2.222,0,0,0-1.692.737,3.566,3.566,0,0,0-.846,2.057h4.879v-.126a3.172,3.172,0,0,0-.684-1.967,2.092,2.092,0,0,0-1.657-.7Zm10.64.306a4.991,4.991,0,0,0-.819-.063,2.195,2.195,0,0,0-2.222,1.391v6.914H86.921V8.133h1.621l.027,1.126a2.593,2.593,0,0,1,2.323-1.305,1.7,1.7,0,0,1,.737.126Zm7.184,8.242a3.5,3.5,0,0,1-.234-1.026,3.716,3.716,0,0,1-2.772,1.21,3.438,3.438,0,0,1-2.363-.815,2.635,2.635,0,0,1-.922-2.066,2.753,2.753,0,0,1,1.157-2.363,5.453,5.453,0,0,1,3.254-.842h1.621v-.765a1.87,1.87,0,0,0-.522-1.391A2.1,2.1,0,0,0,96.492,9.3,2.428,2.428,0,0,0,95,9.748a1.326,1.326,0,0,0-.6,1.09H92.718a2.3,2.3,0,0,1,.518-1.409,3.532,3.532,0,0,1,1.4-1.076,4.724,4.724,0,0,1,1.949-.4,3.85,3.85,0,0,1,2.637.842,3.036,3.036,0,0,1,.99,2.318V15.6a5.481,5.481,0,0,0,.342,2.133v.14ZM96.046,16.6a2.927,2.927,0,0,0,1.485-.4,2.45,2.45,0,0,0,1.014-1.054v-2H97.24q-3.06,0-3.06,1.791a1.516,1.516,0,0,0,.522,1.224,2.007,2.007,0,0,0,1.347.442ZM105.08,5.774V8.133h1.827V9.424h-1.819v6.048a1.352,1.352,0,0,0,.243.878,1.023,1.023,0,0,0,.83.293,4.032,4.032,0,0,0,.792-.108v1.338a4.856,4.856,0,0,1-1.279.179,2.074,2.074,0,0,1-1.683-.675,2.9,2.9,0,0,1-.567-1.917V9.42h-1.774V8.129h1.774V5.774Zm5.579,12.1h-1.666V8.133h1.666Zm-1.8-12.324a.994.994,0,0,1,.248-.684.929.929,0,0,1,.737-.277.944.944,0,0,1,.737.277.984.984,0,0,1,.252.684.951.951,0,0,1-.252.675.961.961,0,0,1-.737.27.946.946,0,0,1-.737-.27A.961.961,0,0,1,108.859,5.549Zm7.679,10.064,2.412-7.48h1.7l-3.493,9.74h-1.269l-3.529-9.74h1.7Zm5.14-2.7a5.753,5.753,0,0,1,.562-2.575,4.2,4.2,0,0,1,1.567-1.764,4.264,4.264,0,0,1,2.291-.621,4.108,4.108,0,0,1,3.218,1.377,5.3,5.3,0,0,1,1.229,3.664v.117A5.807,5.807,0,0,1,130,15.663a4.135,4.135,0,0,1-1.557,1.76,4.313,4.313,0,0,1-2.327.631,4.1,4.1,0,0,1-3.209-1.377,5.272,5.272,0,0,1-1.229-3.646Zm1.674.2a4.167,4.167,0,0,0,.751,2.6,2.547,2.547,0,0,0,4.028-.014,4.556,4.556,0,0,0,.748-2.786,4.16,4.16,0,0,0-.761-2.6,2.418,2.418,0,0,0-2.021-.995,2.391,2.391,0,0,0-1.989.981A4.522,4.522,0,0,0,123.351,13.111ZM138.3,15.292a1.226,1.226,0,0,0-.509-1.049,4.9,4.9,0,0,0-1.774-.645,8.388,8.388,0,0,1-2.008-.645,2.857,2.857,0,0,1-1.1-.9,2.153,2.153,0,0,1-.356-1.243,2.527,2.527,0,0,1,1.014-2.028,3.955,3.955,0,0,1,2.588-.83,4.07,4.07,0,0,1,2.687.855,2.716,2.716,0,0,1,1.031,2.187h-1.674a1.5,1.5,0,0,0-.581-1.179,2.175,2.175,0,0,0-1.463-.5,2.277,2.277,0,0,0-1.422.4,1.247,1.247,0,0,0-.513,1.035,1.014,1.014,0,0,0,.478.909,5.87,5.87,0,0,0,1.724.585,8.982,8.982,0,0,1,2.021.666,2.95,2.95,0,0,1,1.148.932,2.291,2.291,0,0,1,.373,1.327,2.489,2.489,0,0,1-1.044,2.093,4.381,4.381,0,0,1-2.709.787,4.9,4.9,0,0,1-2.07-.414,3.367,3.367,0,0,1-1.409-1.157,2.788,2.788,0,0,1-.509-1.607h1.666a1.724,1.724,0,0,0,.671,1.327,2.6,2.6,0,0,0,1.652.49,2.685,2.685,0,0,0,1.517-.383A1.175,1.175,0,0,0,138.3,15.292Z" transform="translate(213.329 167.208)" fill="#344154"/>
      <path id="Trazado_113474" data-name="Trazado 113474" d="M70.7,16.414h6.211v1.413H68.962V4.72H70.7Zm13.935,1.413A3.5,3.5,0,0,1,84.4,16.8a3.716,3.716,0,0,1-2.775,1.21,3.438,3.438,0,0,1-2.363-.815,2.635,2.635,0,0,1-.922-2.066A2.753,2.753,0,0,1,79.5,12.768a5.453,5.453,0,0,1,3.254-.842h1.621v-.765a1.87,1.87,0,0,0-.522-1.391,2.1,2.1,0,0,0-1.539-.518,2.428,2.428,0,0,0-1.494.45,1.326,1.326,0,0,0-.6,1.09H78.541a2.3,2.3,0,0,1,.518-1.409,3.532,3.532,0,0,1,1.4-1.076,4.724,4.724,0,0,1,1.949-.4,3.85,3.85,0,0,1,2.637.842,3.036,3.036,0,0,1,.99,2.318v4.483a5.481,5.481,0,0,0,.342,2.133v.14Zm-2.765-1.269a2.927,2.927,0,0,0,1.485-.4A2.45,2.45,0,0,0,84.368,15.1v-2h-1.3q-3.06,0-3.06,1.791a1.516,1.516,0,0,0,.522,1.224,2.007,2.007,0,0,0,1.341.442Zm15.025-3.493a5.792,5.792,0,0,1-1.026,3.588,3.279,3.279,0,0,1-2.754,1.355A3.4,3.4,0,0,1,90.257,16.7l-.077,1.125h-1.53V4h1.666V9.162A3.377,3.377,0,0,1,93.1,7.911a3.3,3.3,0,0,1,2.786,1.341A5.965,5.965,0,0,1,96.9,12.925Zm-1.666-.189a4.5,4.5,0,0,0-.657-2.629,2.175,2.175,0,0,0-1.891-.927,2.445,2.445,0,0,0-2.367,1.53v4.212a2.514,2.514,0,0,0,2.386,1.53,2.163,2.163,0,0,0,1.863-.927,4.786,4.786,0,0,0,.667-2.788Zm3.319-.009a5.753,5.753,0,0,1,.562-2.575,4.2,4.2,0,0,1,1.567-1.764,4.264,4.264,0,0,1,2.291-.621,4.108,4.108,0,0,1,3.218,1.377,5.3,5.3,0,0,1,1.229,3.664v.117a5.807,5.807,0,0,1-.545,2.552,4.135,4.135,0,0,1-1.557,1.76,4.313,4.313,0,0,1-2.327.631,4.1,4.1,0,0,1-3.209-1.377,5.272,5.272,0,0,1-1.229-3.646Zm1.674.2a4.167,4.167,0,0,0,.751,2.6A2.547,2.547,0,0,0,105,15.653a4.556,4.556,0,0,0,.748-2.786,4.16,4.16,0,0,0-.76-2.6,2.418,2.418,0,0,0-2.021-.995,2.391,2.391,0,0,0-1.989.981,4.522,4.522,0,0,0-.752,2.809Zm13.989-3.484a4.991,4.991,0,0,0-.819-.063,2.195,2.195,0,0,0-2.223,1.4v6.913H109.5V8.087h1.621l.027,1.126a2.593,2.593,0,0,1,2.323-1.305,1.7,1.7,0,0,1,.737.126Zm7.188,8.246a3.5,3.5,0,0,1-.234-1.026,3.716,3.716,0,0,1-2.773,1.207,3.438,3.438,0,0,1-2.363-.815,2.635,2.635,0,0,1-.922-2.066,2.753,2.753,0,0,1,1.157-2.363,5.453,5.453,0,0,1,3.254-.842h1.621v-.765a1.87,1.87,0,0,0-.521-1.392,2.1,2.1,0,0,0-1.539-.518,2.428,2.428,0,0,0-1.494.45,1.326,1.326,0,0,0-.6,1.09h-1.674a2.3,2.3,0,0,1,.518-1.409,3.532,3.532,0,0,1,1.4-1.076,4.724,4.724,0,0,1,1.949-.4,3.85,3.85,0,0,1,2.637.842,3.036,3.036,0,0,1,.99,2.318v4.483a5.481,5.481,0,0,0,.342,2.133v.145Zm-2.765-1.269a2.927,2.927,0,0,0,1.485-.4,2.45,2.45,0,0,0,1.014-1.054v-2h-1.305q-3.06,0-3.06,1.791a1.516,1.516,0,0,0,.522,1.224,2.007,2.007,0,0,0,1.347.442Zm8.589,1.269h-1.666V4h1.666Z" transform="translate(-0.783 296.713)" fill="#344154"/>
      <path id="Trazado_113481" data-name="Trazado 113481" d="M56.109,11.769H50.425v4.645h6.6v1.413H48.7V4.72h8.237V6.133H50.425v4.222H56.1Zm4.375-3.682.045,1.08a3.6,3.6,0,0,1,2.894-1.261A2.785,2.785,0,0,1,66.2,9.474,3.687,3.687,0,0,1,67.469,8.34a3.735,3.735,0,0,1,1.844-.432q3.205,0,3.259,3.394v6.525H70.9V11.4a2.236,2.236,0,0,0-.477-1.562,2.1,2.1,0,0,0-1.6-.518,2.212,2.212,0,0,0-1.539.553,2.246,2.246,0,0,0-.711,1.49v6.465H64.9V11.445a1.858,1.858,0,0,0-2.08-2.12,2.228,2.228,0,0,0-2.242,1.4v7.107h-1.67V8.087ZM83.3,13.065a5.832,5.832,0,0,1-1.014,3.583,3.26,3.26,0,0,1-2.758,1.363,3.572,3.572,0,0,1-2.79-1.126v4.69H75.076V8.087H76.6l.081,1.08A3.431,3.431,0,0,1,79.5,7.908a3.319,3.319,0,0,1,2.777,1.324A5.9,5.9,0,0,1,83.3,12.913Zm-1.666-.189a4.3,4.3,0,0,0-.7-2.6,2.262,2.262,0,0,0-1.927-.954,2.448,2.448,0,0,0-2.269,1.341v4.654a2.453,2.453,0,0,0,2.286,1.332,2.251,2.251,0,0,0,1.9-.949,4.7,4.7,0,0,0,.708-2.823Zm5.591,4.951H85.563V4h1.666Zm6.706.184a4.256,4.256,0,0,1-3.227-1.305,4.828,4.828,0,0,1-1.243-3.479v-.306a5.845,5.845,0,0,1,.553-2.588A4.319,4.319,0,0,1,91.567,8.55,3.893,3.893,0,0,1,93.723,7.9a3.648,3.648,0,0,1,2.95,1.251,5.417,5.417,0,0,1,1.054,3.583v.693H91.135a3.462,3.462,0,0,0,.842,2.327,2.646,2.646,0,0,0,2.048.887,2.9,2.9,0,0,0,1.494-.36,3.754,3.754,0,0,0,1.071-.954l1.014.792a4.09,4.09,0,0,1-3.671,1.889Zm-.207-8.732a2.222,2.222,0,0,0-1.692.737,3.567,3.567,0,0,0-.846,2.057h4.879v-.126a3.172,3.172,0,0,0-.684-1.967,2.092,2.092,0,0,0-1.657-.7Zm11.946,8.548a3.5,3.5,0,0,1-.234-1.026,3.716,3.716,0,0,1-2.773,1.207,3.438,3.438,0,0,1-2.363-.815,2.635,2.635,0,0,1-.922-2.066,2.753,2.753,0,0,1,1.157-2.363,5.453,5.453,0,0,1,3.254-.842h1.621v-.765a1.87,1.87,0,0,0-.522-1.391,2.1,2.1,0,0,0-1.539-.518,2.428,2.428,0,0,0-1.494.45,1.327,1.327,0,0,0-.6,1.09H99.581A2.3,2.3,0,0,1,100.1,9.38,3.532,3.532,0,0,1,101.5,8.3a4.724,4.724,0,0,1,1.949-.4,3.85,3.85,0,0,1,2.637.842,3.036,3.036,0,0,1,.99,2.318V15.55a5.481,5.481,0,0,0,.342,2.133v.144Zm-2.765-1.269a2.927,2.927,0,0,0,1.485-.4,2.45,2.45,0,0,0,1.014-1.054v-2H104.1q-3.06,0-3.06,1.791a1.516,1.516,0,0,0,.522,1.224,2.007,2.007,0,0,0,1.347.442Zm6.373-3.682a5.706,5.706,0,0,1,1.061-3.605,3.614,3.614,0,0,1,5.491-.194V4H117.5V17.827h-1.53l-.081-1.044a3.391,3.391,0,0,1-2.78,1.229,3.327,3.327,0,0,1-2.759-1.383,5.771,5.771,0,0,1-1.067-3.619Zm1.666.189a4.321,4.321,0,0,0,.684,2.593,2.212,2.212,0,0,0,1.891.937,2.43,2.43,0,0,0,2.314-1.422V10.7a2.448,2.448,0,0,0-2.3-1.377,2.222,2.222,0,0,0-1.907.948,4.757,4.757,0,0,0-.684,2.8Zm8.7-.2a5.753,5.753,0,0,1,.562-2.575,4.2,4.2,0,0,1,1.567-1.764,4.264,4.264,0,0,1,2.291-.621,4.108,4.108,0,0,1,3.218,1.377,5.3,5.3,0,0,1,1.229,3.664v.117a5.807,5.807,0,0,1-.545,2.552,4.135,4.135,0,0,1-1.557,1.76,4.313,4.313,0,0,1-2.327.631,4.1,4.1,0,0,1-3.209-1.377,5.272,5.272,0,0,1-1.229-3.646Zm1.674.2a4.167,4.167,0,0,0,.751,2.6,2.547,2.547,0,0,0,4.028-.014,4.556,4.556,0,0,0,.748-2.786,4.16,4.16,0,0,0-.76-2.6,2.418,2.418,0,0,0-2.021-.995,2.391,2.391,0,0,0-1.989.981,4.522,4.522,0,0,0-.755,2.809Zm14.955,2.181a1.226,1.226,0,0,0-.509-1.049,4.9,4.9,0,0,0-1.774-.645,8.388,8.388,0,0,1-2.008-.645,2.858,2.858,0,0,1-1.1-.9,2.153,2.153,0,0,1-.356-1.243,2.527,2.527,0,0,1,1.014-2.028,3.955,3.955,0,0,1,2.588-.83,4.07,4.07,0,0,1,2.687.855,2.717,2.717,0,0,1,1.031,2.187h-1.674a1.5,1.5,0,0,0-.581-1.179,2.176,2.176,0,0,0-1.463-.5,2.277,2.277,0,0,0-1.422.4,1.247,1.247,0,0,0-.519,1.035,1.014,1.014,0,0,0,.478.909,5.87,5.87,0,0,0,1.724.585,8.982,8.982,0,0,1,2.021.666,2.95,2.95,0,0,1,1.148.932,2.291,2.291,0,0,1,.373,1.327,2.489,2.489,0,0,1-1.044,2.093,4.38,4.38,0,0,1-2.709.787,4.9,4.9,0,0,1-2.07-.414,3.367,3.367,0,0,1-1.409-1.157,2.788,2.788,0,0,1-.509-1.607h1.666a1.724,1.724,0,0,0,.671,1.327,2.6,2.6,0,0,0,1.652.49,2.685,2.685,0,0,0,1.517-.383A1.175,1.175,0,0,0,136.272,15.246ZM65.293,34.111a8.127,8.127,0,0,1-3.236-1.567,3,3,0,0,1-1.014-2.3,3.17,3.17,0,0,1,1.238-2.561A4.92,4.92,0,0,1,65.5,26.665a5.369,5.369,0,0,1,2.408.522,3.964,3.964,0,0,1,1.638,1.441,3.687,3.687,0,0,1,.581,2.008H68.392a2.4,2.4,0,0,0-.756-1.875,3.075,3.075,0,0,0-2.133-.682,3.148,3.148,0,0,0-1.994.563,1.88,1.88,0,0,0-.715,1.567,1.691,1.691,0,0,0,.679,1.357,6.666,6.666,0,0,0,2.314,1.014,10.734,10.734,0,0,1,2.556,1.014,3.88,3.88,0,0,1,1.368,1.291,3.3,3.3,0,0,1,.445,1.738,3.062,3.062,0,0,1-1.243,2.552,5.3,5.3,0,0,1-3.319.959,6.16,6.16,0,0,1-2.52-.518A4.24,4.24,0,0,1,61.267,38.2a3.46,3.46,0,0,1-.634-2.044H62.37a2.258,2.258,0,0,0,.878,1.877,3.7,3.7,0,0,0,2.345.689,3.4,3.4,0,0,0,2.1-.558,1.813,1.813,0,0,0,.729-1.521,1.78,1.78,0,0,0-.675-1.49A7.784,7.784,0,0,0,65.3,34.108Zm12.831,5.84a3.5,3.5,0,0,1-.234-1.026,3.716,3.716,0,0,1-2.773,1.21,3.438,3.438,0,0,1-2.363-.815,2.635,2.635,0,0,1-.922-2.066,2.753,2.753,0,0,1,1.157-2.363,5.453,5.453,0,0,1,3.254-.842h1.621v-.765a1.87,1.87,0,0,0-.522-1.391,2.1,2.1,0,0,0-1.539-.518,2.428,2.428,0,0,0-1.494.45,1.326,1.326,0,0,0-.6,1.09H72.028a2.3,2.3,0,0,1,.518-1.409,3.532,3.532,0,0,1,1.4-1.076,4.724,4.724,0,0,1,1.949-.4,3.85,3.85,0,0,1,2.637.842,3.036,3.036,0,0,1,.99,2.318v4.483a5.481,5.481,0,0,0,.342,2.133v.14Zm-2.765-1.269a2.927,2.927,0,0,0,1.485-.4,2.45,2.45,0,0,0,1.014-1.054v-2h-1.3q-3.06,0-3.06,1.791a1.516,1.516,0,0,0,.522,1.224,2.007,2.007,0,0,0,1.342.442Zm8.589,1.269H82.281V26.123h1.666Zm8.678,0a3.5,3.5,0,0,1-.234-1.026,3.716,3.716,0,0,1-2.773,1.21,3.438,3.438,0,0,1-2.363-.815,2.635,2.635,0,0,1-.922-2.066,2.753,2.753,0,0,1,1.157-2.363,5.453,5.453,0,0,1,3.254-.842h1.622v-.765a1.87,1.87,0,0,0-.522-1.391,2.1,2.1,0,0,0-1.539-.518,2.428,2.428,0,0,0-1.494.45,1.326,1.326,0,0,0-.6,1.09H86.531a2.3,2.3,0,0,1,.518-1.409,3.532,3.532,0,0,1,1.4-1.076,4.724,4.724,0,0,1,1.949-.4,3.85,3.85,0,0,1,2.637.842,3.036,3.036,0,0,1,.99,2.318v4.483a5.481,5.481,0,0,0,.342,2.133v.14ZM89.86,38.681a2.927,2.927,0,0,0,1.485-.4,2.45,2.45,0,0,0,1.014-1.054v-2h-1.3q-3.06,0-3.06,1.791a1.516,1.516,0,0,0,.522,1.224,2.007,2.007,0,0,0,1.341.442ZM101.346,31.7a4.99,4.99,0,0,0-.819-.063,2.195,2.195,0,0,0-2.223,1.4v6.913H96.638v-9.74h1.621l.027,1.126a2.593,2.593,0,0,1,2.323-1.305,1.7,1.7,0,0,1,.737.126Zm3.342,8.246h-1.666v-9.74h1.666Zm-1.8-12.324a.994.994,0,0,1,.248-.684.929.929,0,0,1,.737-.277.944.944,0,0,1,.737.277.984.984,0,0,1,.252.684.951.951,0,0,1-.252.675.961.961,0,0,1-.737.27.946.946,0,0,1-.737-.27.961.961,0,0,1-.248-.675Zm4.024,7.363a5.753,5.753,0,0,1,.562-2.575,4.2,4.2,0,0,1,1.567-1.764,4.264,4.264,0,0,1,2.291-.621,4.108,4.108,0,0,1,3.218,1.377,5.3,5.3,0,0,1,1.229,3.664v.117a5.807,5.807,0,0,1-.545,2.552,4.135,4.135,0,0,1-1.557,1.76,4.313,4.313,0,0,1-2.327.631,4.1,4.1,0,0,1-3.209-1.377,5.272,5.272,0,0,1-1.229-3.646Zm1.674.2a4.167,4.167,0,0,0,.751,2.6,2.547,2.547,0,0,0,4.028-.014,4.556,4.556,0,0,0,.748-2.786,4.16,4.16,0,0,0-.76-2.6,2.418,2.418,0,0,0-2.021-.995,2.391,2.391,0,0,0-1.989.981,4.522,4.522,0,0,0-.756,2.809Zm14.953,2.181a1.226,1.226,0,0,0-.509-1.049,4.9,4.9,0,0,0-1.774-.645,8.389,8.389,0,0,1-2.008-.645,2.858,2.858,0,0,1-1.1-.9,2.153,2.153,0,0,1-.356-1.243,2.527,2.527,0,0,1,1.014-2.028,3.956,3.956,0,0,1,2.588-.83,4.07,4.07,0,0,1,2.687.855,2.717,2.717,0,0,1,1.031,2.187H123.44a1.5,1.5,0,0,0-.581-1.179,2.175,2.175,0,0,0-1.463-.5,2.277,2.277,0,0,0-1.422.4,1.247,1.247,0,0,0-.513,1.035,1.014,1.014,0,0,0,.477.909,5.87,5.87,0,0,0,1.724.585,8.982,8.982,0,0,1,2.021.666,2.95,2.95,0,0,1,1.148.932,2.291,2.291,0,0,1,.373,1.327,2.489,2.489,0,0,1-1.044,2.093,4.38,4.38,0,0,1-2.709.787,4.9,4.9,0,0,1-2.07-.414,3.367,3.367,0,0,1-1.409-1.157,2.788,2.788,0,0,1-.509-1.607h1.666a1.724,1.724,0,0,0,.671,1.327,2.6,2.6,0,0,0,1.652.49,2.685,2.685,0,0,0,1.52-.382,1.175,1.175,0,0,0,.567-1.02ZM6.468,56.945v5.129H4.738V48.967H9.572a4.857,4.857,0,0,1,3.371,1.1,3.723,3.723,0,0,1,1.22,2.907,3.674,3.674,0,0,1-1.193,2.939,5.07,5.07,0,0,1-3.416,1.031Zm0-1.413h3.1a3.106,3.106,0,0,0,2.12-.654,2.39,2.39,0,0,0,.737-1.89,2.47,2.47,0,0,0-.737-1.876,2.909,2.909,0,0,0-2.028-.73h-3.2Zm14.348-1.7A4.991,4.991,0,0,0,20,53.766a2.195,2.195,0,0,0-2.223,1.395v6.914H16.108v-9.74h1.621l.027,1.126a2.593,2.593,0,0,1,2.323-1.305,1.7,1.7,0,0,1,.737.126Zm5.4,8.43a4.256,4.256,0,0,1-3.226-1.3,4.828,4.828,0,0,1-1.234-3.484v-.306a5.845,5.845,0,0,1,.553-2.588A4.319,4.319,0,0,1,23.858,52.8a3.893,3.893,0,0,1,2.156-.645,3.648,3.648,0,0,1,2.95,1.251,5.417,5.417,0,0,1,1.054,3.583v.693h-6.6a3.462,3.462,0,0,0,.842,2.327,2.646,2.646,0,0,0,2.048.887,2.9,2.9,0,0,0,1.494-.36,3.755,3.755,0,0,0,1.071-.954l1.014.792a4.09,4.09,0,0,1-3.668,1.889Zm-.207-8.732a2.222,2.222,0,0,0-1.692.737,3.566,3.566,0,0,0-.846,2.057H28.35v-.126a3.172,3.172,0,0,0-.684-1.967,2.092,2.092,0,0,0-1.657-.7Zm11.6,5.967a1.226,1.226,0,0,0-.509-1.049,4.9,4.9,0,0,0-1.774-.645,8.389,8.389,0,0,1-2.008-.645,2.858,2.858,0,0,1-1.1-.9,2.153,2.153,0,0,1-.356-1.243,2.527,2.527,0,0,1,1.014-2.028,3.955,3.955,0,0,1,2.588-.83,4.07,4.07,0,0,1,2.687.855A2.717,2.717,0,0,1,39.188,55.2H37.515a1.5,1.5,0,0,0-.581-1.179,2.176,2.176,0,0,0-1.463-.5,2.277,2.277,0,0,0-1.422.4,1.247,1.247,0,0,0-.513,1.035,1.014,1.014,0,0,0,.477.909,5.87,5.87,0,0,0,1.724.585,8.982,8.982,0,0,1,2.021.666,2.95,2.95,0,0,1,1.145.932,2.291,2.291,0,0,1,.373,1.327,2.489,2.489,0,0,1-1.044,2.093,4.38,4.38,0,0,1-2.709.787,4.9,4.9,0,0,1-2.07-.414,3.367,3.367,0,0,1-1.409-1.157,2.788,2.788,0,0,1-.509-1.607H33.2a1.724,1.724,0,0,0,.671,1.327,2.6,2.6,0,0,0,1.652.49,2.685,2.685,0,0,0,1.517-.383,1.175,1.175,0,0,0,.572-1.019Zm6.094-9.515v2.359h1.819v1.291H43.708v6.048a1.352,1.352,0,0,0,.243.878,1.023,1.023,0,0,0,.83.293,4.032,4.032,0,0,0,.792-.108v1.335a4.856,4.856,0,0,1-1.279.179,2.074,2.074,0,0,1-1.683-.675,2.9,2.9,0,0,1-.567-1.917v-6.04H40.269V52.33h1.774V49.975Zm9.779,12.1a3.5,3.5,0,0,1-.234-1.026,3.716,3.716,0,0,1-2.773,1.21,3.438,3.438,0,0,1-2.363-.815,2.635,2.635,0,0,1-.922-2.066,2.753,2.753,0,0,1,1.157-2.363,5.453,5.453,0,0,1,3.254-.842h1.621v-.765a1.87,1.87,0,0,0-.522-1.391,2.1,2.1,0,0,0-1.539-.518,2.428,2.428,0,0,0-1.494.45,1.326,1.326,0,0,0-.6,1.09H47.39a2.3,2.3,0,0,1,.518-1.409,3.532,3.532,0,0,1,1.4-1.076,4.724,4.724,0,0,1,1.949-.4A3.85,3.85,0,0,1,53.9,53a3.036,3.036,0,0,1,.99,2.318V59.8a5.481,5.481,0,0,0,.342,2.133v.14ZM50.719,60.8a2.927,2.927,0,0,0,1.485-.4,2.45,2.45,0,0,0,1.014-1.054v-2h-1.3q-3.06,0-3.06,1.791a1.516,1.516,0,0,0,.522,1.224,2.007,2.007,0,0,0,1.341.442ZM61.4,60.9a2.4,2.4,0,0,0,1.557-.54,1.9,1.9,0,0,0,.737-1.35h1.575A3.02,3.02,0,0,1,64.7,60.6a3.794,3.794,0,0,1-1.418,1.207,4.091,4.091,0,0,1-1.877.45,4.013,4.013,0,0,1-3.165-1.327A5.288,5.288,0,0,1,57.064,57.3v-.277a5.864,5.864,0,0,1,.522-2.529,3.977,3.977,0,0,1,1.5-1.727,4.258,4.258,0,0,1,2.3-.612,3.907,3.907,0,0,1,2.726.981,3.5,3.5,0,0,1,1.157,2.548H63.7a2.3,2.3,0,0,0-.715-1.553,2.226,2.226,0,0,0-1.589-.607,2.331,2.331,0,0,0-1.967.914,4.291,4.291,0,0,0-.7,2.642v.315a4.205,4.205,0,0,0,.693,2.593,2.342,2.342,0,0,0,1.984.912Zm7.554,1.177H67.294v-9.74h1.666Zm-1.8-12.324a.994.994,0,0,1,.248-.684.929.929,0,0,1,.737-.277.944.944,0,0,1,.737.277.984.984,0,0,1,.252.684.951.951,0,0,1-.252.675.961.961,0,0,1-.737.27.946.946,0,0,1-.737-.27.961.961,0,0,1-.248-.675Zm4.024,7.363a5.753,5.753,0,0,1,.562-2.575,4.2,4.2,0,0,1,1.567-1.764,4.264,4.264,0,0,1,2.291-.621,4.108,4.108,0,0,1,3.214,1.377,5.3,5.3,0,0,1,1.229,3.664v.117a5.807,5.807,0,0,1-.545,2.552,4.135,4.135,0,0,1-1.557,1.76,4.313,4.313,0,0,1-2.327.631,4.1,4.1,0,0,1-3.206-1.379,5.272,5.272,0,0,1-1.229-3.646Zm1.674.2a4.167,4.167,0,0,0,.751,2.6,2.547,2.547,0,0,0,4.028-.014,4.556,4.556,0,0,0,.748-2.786,4.16,4.16,0,0,0-.76-2.6,2.418,2.418,0,0,0-2.021-.995,2.391,2.391,0,0,0-1.989.981,4.522,4.522,0,0,0-.756,2.809Zm10.856-4.978.054,1.224a3.549,3.549,0,0,1,2.917-1.4q3.088,0,3.115,3.484v6.436H88.133V55.629a2.242,2.242,0,0,0-.481-1.557,1.93,1.93,0,0,0-1.475-.5A2.4,2.4,0,0,0,84.755,54a2.934,2.934,0,0,0-.954,1.134v6.94H82.135v-9.74Zm12.64,9.924a4.256,4.256,0,0,1-3.226-1.3,4.828,4.828,0,0,1-1.243-3.479v-.306a5.845,5.845,0,0,1,.553-2.588A4.319,4.319,0,0,1,93.985,52.8a3.893,3.893,0,0,1,2.156-.645,3.648,3.648,0,0,1,2.95,1.251,5.417,5.417,0,0,1,1.054,3.583v.693h-6.6a3.462,3.462,0,0,0,.849,2.325,2.646,2.646,0,0,0,2.048.887,2.9,2.9,0,0,0,1.494-.36A3.754,3.754,0,0,0,99,59.58l1.014.792A4.09,4.09,0,0,1,96.352,62.258Zm-.207-8.732a2.222,2.222,0,0,0-1.692.737,3.566,3.566,0,0,0-.846,2.057h4.879v-.126a3.172,3.172,0,0,0-.684-1.967,2.092,2.092,0,0,0-1.655-.7Zm11.6,5.967a1.226,1.226,0,0,0-.509-1.049,4.9,4.9,0,0,0-1.774-.645,8.389,8.389,0,0,1-2.008-.645,2.858,2.858,0,0,1-1.1-.9A2.153,2.153,0,0,1,102,55.01a2.527,2.527,0,0,1,1.014-2.028,3.955,3.955,0,0,1,2.588-.83,4.07,4.07,0,0,1,2.687.855,2.717,2.717,0,0,1,1.031,2.187h-1.674a1.5,1.5,0,0,0-.581-1.179,2.175,2.175,0,0,0-1.463-.5,2.277,2.277,0,0,0-1.422.4,1.247,1.247,0,0,0-.513,1.035,1.014,1.014,0,0,0,.477.909,5.87,5.87,0,0,0,1.724.585,8.982,8.982,0,0,1,2.021.666,2.95,2.95,0,0,1,1.148.932,2.291,2.291,0,0,1,.373,1.327,2.489,2.489,0,0,1-1.044,2.093,4.38,4.38,0,0,1-2.709.787,4.905,4.905,0,0,1-2.07-.414,3.367,3.367,0,0,1-1.409-1.157,2.788,2.788,0,0,1-.509-1.607h1.664a1.724,1.724,0,0,0,.671,1.327,2.6,2.6,0,0,0,1.652.49,2.685,2.685,0,0,0,1.517-.383A1.175,1.175,0,0,0,107.748,59.493Zm14.07,0a1.226,1.226,0,0,0-.509-1.049,4.9,4.9,0,0,0-1.774-.645,8.389,8.389,0,0,1-2.008-.645,2.858,2.858,0,0,1-1.1-.9,2.153,2.153,0,0,1-.356-1.243,2.527,2.527,0,0,1,1.014-2.028,3.955,3.955,0,0,1,2.588-.83,4.07,4.07,0,0,1,2.687.855A2.717,2.717,0,0,1,123.4,55.2h-1.674a1.5,1.5,0,0,0-.581-1.179,2.176,2.176,0,0,0-1.463-.5,2.277,2.277,0,0,0-1.422.4,1.247,1.247,0,0,0-.513,1.035,1.014,1.014,0,0,0,.477.909,5.87,5.87,0,0,0,1.724.585,8.982,8.982,0,0,1,2.021.666,2.95,2.95,0,0,1,1.148.932,2.291,2.291,0,0,1,.373,1.327,2.489,2.489,0,0,1-1.044,2.093,4.38,4.38,0,0,1-2.709.787,4.905,4.905,0,0,1-2.07-.414,3.367,3.367,0,0,1-1.409-1.157,2.788,2.788,0,0,1-.509-1.607h1.666a1.724,1.724,0,0,0,.671,1.327,2.6,2.6,0,0,0,1.652.49,2.685,2.685,0,0,0,1.517-.383A1.175,1.175,0,0,0,121.819,59.493Zm3.394-2.376a5.753,5.753,0,0,1,.562-2.575,4.2,4.2,0,0,1,1.567-1.764,4.264,4.264,0,0,1,2.291-.621,4.108,4.108,0,0,1,3.218,1.377A5.3,5.3,0,0,1,134.08,57.2v.117a5.807,5.807,0,0,1-.545,2.552,4.135,4.135,0,0,1-1.557,1.76,4.313,4.313,0,0,1-2.327.631,4.1,4.1,0,0,1-3.209-1.377,5.272,5.272,0,0,1-1.229-3.646Zm1.674.2a4.167,4.167,0,0,0,.751,2.6,2.547,2.547,0,0,0,4.028-.014,4.556,4.556,0,0,0,.748-2.786,4.16,4.16,0,0,0-.76-2.6,2.418,2.418,0,0,0-2.021-.995,2.391,2.391,0,0,0-1.989.981,4.522,4.522,0,0,0-.757,2.806ZM140.075,60.9a2.4,2.4,0,0,0,1.557-.54,1.9,1.9,0,0,0,.737-1.35h1.575a3.02,3.02,0,0,1-.576,1.594,3.794,3.794,0,0,1-1.418,1.207,4.091,4.091,0,0,1-1.877.45,4.013,4.013,0,0,1-3.165-1.327,5.288,5.288,0,0,1-1.174-3.632v-.277a5.864,5.864,0,0,1,.522-2.529,3.977,3.977,0,0,1,1.5-1.728,4.258,4.258,0,0,1,2.3-.612,3.907,3.907,0,0,1,2.729.981,3.5,3.5,0,0,1,1.157,2.548h-1.575a2.3,2.3,0,0,0-.715-1.553,2.226,2.226,0,0,0-1.589-.607,2.331,2.331,0,0,0-1.967.914,4.291,4.291,0,0,0-.7,2.642v.315a4.205,4.205,0,0,0,.693,2.593,2.342,2.342,0,0,0,1.98.912Zm7.552,1.176h-1.666v-9.74h1.666Zm-1.8-12.324a.994.994,0,0,1,.248-.684.929.929,0,0,1,.737-.277.944.944,0,0,1,.737.277.984.984,0,0,1,.252.684.951.951,0,0,1-.252.675.961.961,0,0,1-.737.27.946.946,0,0,1-.737-.27.961.961,0,0,1-.248-.675Zm10.478,12.324a3.5,3.5,0,0,1-.234-1.026,3.716,3.716,0,0,1-2.773,1.21,3.438,3.438,0,0,1-2.363-.815,2.635,2.635,0,0,1-.922-2.066,2.753,2.753,0,0,1,1.157-2.363,5.453,5.453,0,0,1,3.254-.842h1.621v-.765a1.87,1.87,0,0,0-.522-1.391,2.1,2.1,0,0,0-1.539-.518,2.428,2.428,0,0,0-1.494.45,1.326,1.326,0,0,0-.6,1.09h-1.674a2.3,2.3,0,0,1,.518-1.409,3.532,3.532,0,0,1,1.4-1.076,4.724,4.724,0,0,1,1.949-.4,3.85,3.85,0,0,1,2.637.842,3.036,3.036,0,0,1,.99,2.318V59.8a5.481,5.481,0,0,0,.342,2.133v.14ZM153.54,60.8a2.927,2.927,0,0,0,1.485-.4,2.45,2.45,0,0,0,1.014-1.054v-2h-1.305q-3.06,0-3.06,1.791a1.516,1.516,0,0,0,.522,1.224,2.007,2.007,0,0,0,1.347.442Zm8.589,1.269h-1.666V48.247h1.666Zm6.706.184a4.256,4.256,0,0,1-3.226-1.3,4.828,4.828,0,0,1-1.243-3.479v-.306a5.845,5.845,0,0,1,.553-2.588,4.319,4.319,0,0,1,1.549-1.783,3.893,3.893,0,0,1,2.156-.645,3.648,3.648,0,0,1,2.95,1.251,5.418,5.418,0,0,1,1.054,3.583v.693h-6.6a3.462,3.462,0,0,0,.842,2.327,2.646,2.646,0,0,0,2.048.887,2.9,2.9,0,0,0,1.494-.36,3.755,3.755,0,0,0,1.071-.954l1.014.792a4.09,4.09,0,0,1-3.662,1.884Zm-.207-8.732a2.222,2.222,0,0,0-1.692.737,3.566,3.566,0,0,0-.846,2.057h4.879v-.126a3.172,3.172,0,0,0-.684-1.967,2.092,2.092,0,0,0-1.656-.7Zm11.6,5.967a1.226,1.226,0,0,0-.509-1.049,4.9,4.9,0,0,0-1.774-.645,8.389,8.389,0,0,1-2.008-.645,2.858,2.858,0,0,1-1.1-.9,2.153,2.153,0,0,1-.356-1.243,2.527,2.527,0,0,1,1.014-2.028,3.955,3.955,0,0,1,2.588-.83,4.07,4.07,0,0,1,2.687.855,2.717,2.717,0,0,1,1.031,2.187h-1.674a1.5,1.5,0,0,0-.581-1.179,2.176,2.176,0,0,0-1.463-.5,2.277,2.277,0,0,0-1.422.4,1.247,1.247,0,0,0-.513,1.035,1.014,1.014,0,0,0,.477.909,5.87,5.87,0,0,0,1.724.585,8.982,8.982,0,0,1,2.021.666,2.95,2.95,0,0,1,1.148.932,2.291,2.291,0,0,1,.373,1.327,2.489,2.489,0,0,1-1.044,2.093,4.38,4.38,0,0,1-2.709.787,4.9,4.9,0,0,1-2.07-.414,3.367,3.367,0,0,1-1.409-1.157,2.788,2.788,0,0,1-.509-1.607h1.666a1.724,1.724,0,0,0,.671,1.327,2.6,2.6,0,0,0,1.652.49,2.685,2.685,0,0,0,1.517-.383A1.175,1.175,0,0,0,180.233,59.493Z" transform="translate(4.239 457.826)" fill="#344154"/>
      <path id="Trazado_113473" data-name="Trazado 113473" d="M66.66,13.668a4.822,4.822,0,0,1-1.535,3.209,5.03,5.03,0,0,1-3.435,1.135,4.618,4.618,0,0,1-3.722-1.666,6.7,6.7,0,0,1-1.4-4.456V10.626a7.467,7.467,0,0,1,.653-3.215,4.875,4.875,0,0,1,1.85-2.129,5.151,5.151,0,0,1,2.773-.743A4.736,4.736,0,0,1,65.193,5.7,4.88,4.88,0,0,1,66.66,8.931H64.923a3.766,3.766,0,0,0-.977-2.275,2.955,2.955,0,0,0-2.1-.7,3.093,3.093,0,0,0-2.6,1.225,5.623,5.623,0,0,0-.941,3.486v1.27a5.782,5.782,0,0,0,.891,3.4,2.88,2.88,0,0,0,2.493,1.261,3.326,3.326,0,0,0,2.212-.653,3.622,3.622,0,0,0,1.021-2.273Zm1.659-.8a5.753,5.753,0,0,1,.562-2.575,4.2,4.2,0,0,1,1.567-1.764,4.264,4.264,0,0,1,2.291-.621,4.108,4.108,0,0,1,3.215,1.377,5.3,5.3,0,0,1,1.229,3.664v.117a5.807,5.807,0,0,1-.545,2.552,4.135,4.135,0,0,1-1.557,1.76,4.313,4.313,0,0,1-2.327.631,4.1,4.1,0,0,1-3.211-1.379,5.272,5.272,0,0,1-1.229-3.646Zm1.674.2a4.167,4.167,0,0,0,.751,2.6,2.547,2.547,0,0,0,4.028-.014,4.556,4.556,0,0,0,.748-2.786,4.16,4.16,0,0,0-.764-2.6,2.418,2.418,0,0,0-2.021-.995,2.391,2.391,0,0,0-1.989.981,4.522,4.522,0,0,0-.756,2.811ZM80.84,8.087l.045,1.08a3.6,3.6,0,0,1,2.89-1.26,2.785,2.785,0,0,1,2.782,1.567,3.687,3.687,0,0,1,1.265-1.134,3.735,3.735,0,0,1,1.844-.432q3.205,0,3.259,3.394v6.525H91.257V11.4a2.236,2.236,0,0,0-.477-1.562,2.1,2.1,0,0,0-1.6-.518,2.212,2.212,0,0,0-1.539.553,2.246,2.246,0,0,0-.711,1.49v6.465H85.249V11.445a1.858,1.858,0,0,0-2.08-2.12,2.228,2.228,0,0,0-2.237,1.391v7.112h-1.67V8.087Zm18.632,9.924a4.256,4.256,0,0,1-3.226-1.3A4.828,4.828,0,0,1,95,13.232v-.306a5.845,5.845,0,0,1,.553-2.588A4.319,4.319,0,0,1,97.1,8.555a3.893,3.893,0,0,1,2.156-.645,3.648,3.648,0,0,1,2.95,1.251,5.417,5.417,0,0,1,1.054,3.583v.693h-6.6a3.462,3.462,0,0,0,.842,2.327,2.646,2.646,0,0,0,2.048.887,2.9,2.9,0,0,0,1.494-.36,3.755,3.755,0,0,0,1.071-.954l1.014.792A4.09,4.09,0,0,1,99.472,18.011Zm-.207-8.732a2.222,2.222,0,0,0-1.692.737,3.566,3.566,0,0,0-.846,2.057h4.879v-.126a3.172,3.172,0,0,0-.684-1.967,2.092,2.092,0,0,0-1.656-.7Zm10.64.306a4.99,4.99,0,0,0-.819-.063,2.195,2.195,0,0,0-2.222,1.391v6.914H105.2V8.087h1.621l.027,1.126a2.593,2.593,0,0,1,2.323-1.305,1.7,1.7,0,0,1,.737.126Zm5.266,7.067a2.4,2.4,0,0,0,1.557-.54,1.9,1.9,0,0,0,.737-1.35h1.575a3.02,3.02,0,0,1-.576,1.594,3.794,3.794,0,0,1-1.418,1.207,4.091,4.091,0,0,1-1.877.45,4.013,4.013,0,0,1-3.165-1.327,5.288,5.288,0,0,1-1.174-3.632v-.277a5.864,5.864,0,0,1,.521-2.537,3.977,3.977,0,0,1,1.5-1.722,4.258,4.258,0,0,1,2.3-.612,3.907,3.907,0,0,1,2.728.981,3.5,3.5,0,0,1,1.157,2.548h-1.575a2.3,2.3,0,0,0-.715-1.553,2.226,2.226,0,0,0-1.589-.607,2.331,2.331,0,0,0-1.967.914,4.291,4.291,0,0,0-.7,2.642v.315a4.205,4.205,0,0,0,.7,2.595,2.342,2.342,0,0,0,1.976.91Zm7.553,1.175h-1.666V8.087h1.666ZM120.924,5.5a.994.994,0,0,1,.248-.684.929.929,0,0,1,.737-.277.944.944,0,0,1,.737.277.984.984,0,0,1,.252.684.951.951,0,0,1-.252.675.961.961,0,0,1-.737.27.946.946,0,0,1-.737-.27A.961.961,0,0,1,120.924,5.5ZM131.4,17.827a3.5,3.5,0,0,1-.234-1.026,3.716,3.716,0,0,1-2.773,1.207,3.438,3.438,0,0,1-2.363-.815,2.635,2.635,0,0,1-.922-2.066,2.753,2.753,0,0,1,1.157-2.363,5.453,5.453,0,0,1,3.254-.842h1.621v-.765a1.87,1.87,0,0,0-.522-1.391,2.1,2.1,0,0,0-1.539-.518,2.428,2.428,0,0,0-1.494.45,1.326,1.326,0,0,0-.6,1.09h-1.676a2.3,2.3,0,0,1,.518-1.409,3.532,3.532,0,0,1,1.4-1.076,4.724,4.724,0,0,1,1.949-.4,3.85,3.85,0,0,1,2.637.842,3.036,3.036,0,0,1,.99,2.318V15.55a5.481,5.481,0,0,0,.342,2.133v.144Zm-2.765-1.269a2.927,2.927,0,0,0,1.485-.4,2.45,2.45,0,0,0,1.014-1.054v-2h-1.305q-3.06,0-3.06,1.791a1.516,1.516,0,0,0,.522,1.224,2.007,2.007,0,0,0,1.347.442Zm8.589,1.269h-1.666V4h1.666Z" transform="translate(213.124 296.713)" fill="#344154"/>
      <path id="Trazado_113480" data-name="Trazado 113480" d="M48.19,12.7v5.131H46.462V4.72H51.3a4.857,4.857,0,0,1,3.371,1.1,3.723,3.723,0,0,1,1.22,2.907,3.674,3.674,0,0,1-1.193,2.939,5.07,5.07,0,0,1-3.416,1.031Zm0-1.413H51.3a3.106,3.106,0,0,0,2.12-.654,2.39,2.39,0,0,0,.737-1.89,2.47,2.47,0,0,0-.737-1.876,2.909,2.909,0,0,0-2.028-.73h-3.2Zm14.346-1.7a4.991,4.991,0,0,0-.819-.063,2.195,2.195,0,0,0-2.222,1.395v6.914H57.835V8.087h1.621l.027,1.126A2.593,2.593,0,0,1,61.8,7.907a1.7,1.7,0,0,1,.737.126Zm.909,3.285a5.753,5.753,0,0,1,.562-2.575,4.2,4.2,0,0,1,1.567-1.764,4.264,4.264,0,0,1,2.291-.621,4.108,4.108,0,0,1,3.218,1.377,5.3,5.3,0,0,1,1.229,3.664v.117a5.808,5.808,0,0,1-.545,2.552,4.135,4.135,0,0,1-1.557,1.76,4.313,4.313,0,0,1-2.328.634,4.1,4.1,0,0,1-3.205-1.383,5.272,5.272,0,0,1-1.229-3.646Zm1.674.2a4.167,4.167,0,0,0,.751,2.6,2.547,2.547,0,0,0,4.028-.014,4.557,4.557,0,0,0,.748-2.786,4.16,4.16,0,0,0-.76-2.6,2.418,2.418,0,0,0-2.021-.995,2.391,2.391,0,0,0-1.989.981,4.522,4.522,0,0,0-.753,2.809Zm12.36,2.5,2.412-7.48h1.7L78.1,17.827H76.835l-3.529-9.74h1.7Zm9.645,2.444a4.256,4.256,0,0,1-3.226-1.3,4.827,4.827,0,0,1-1.243-3.479v-.306a5.845,5.845,0,0,1,.553-2.588,4.319,4.319,0,0,1,1.549-1.783,3.893,3.893,0,0,1,2.156-.645,3.648,3.648,0,0,1,2.95,1.251,5.417,5.417,0,0,1,1.054,3.583v.693H84.324a3.462,3.462,0,0,0,.842,2.327,2.646,2.646,0,0,0,2.048.887,2.9,2.9,0,0,0,1.494-.36,3.754,3.754,0,0,0,1.071-.954l1.014.792a4.09,4.09,0,0,1-3.67,1.884Zm-.207-8.732a2.222,2.222,0,0,0-1.692.737,3.566,3.566,0,0,0-.846,2.057h4.879v-.126a3.172,3.172,0,0,0-.684-1.967,2.092,2.092,0,0,0-1.656-.7Zm9.974,8.732a4.256,4.256,0,0,1-3.226-1.3,4.828,4.828,0,0,1-1.243-3.479v-.306a5.845,5.845,0,0,1,.553-2.588,4.319,4.319,0,0,1,1.549-1.783,3.893,3.893,0,0,1,2.156-.645,3.648,3.648,0,0,1,2.95,1.251,5.417,5.417,0,0,1,1.054,3.583v.693H94.092a3.462,3.462,0,0,0,.842,2.327,2.646,2.646,0,0,0,2.048.887,2.9,2.9,0,0,0,1.494-.36,3.755,3.755,0,0,0,1.071-.954l1.014.792a4.09,4.09,0,0,1-3.67,1.884Zm-.207-8.732a2.222,2.222,0,0,0-1.692.737,3.567,3.567,0,0,0-.846,2.057h4.879v-.126A3.172,3.172,0,0,0,98.34,9.98a2.092,2.092,0,0,0-1.656-.7Zm5.531,3.6a5.706,5.706,0,0,1,1.062-3.605,3.614,3.614,0,0,1,5.491-.194V4h1.666V17.827H108.9l-.081-1.044a3.391,3.391,0,0,1-2.782,1.224,3.327,3.327,0,0,1-2.759-1.383,5.771,5.771,0,0,1-1.067-3.619Zm1.666.189a4.321,4.321,0,0,0,.684,2.593,2.212,2.212,0,0,0,1.891.937,2.43,2.43,0,0,0,2.314-1.422V10.7a2.448,2.448,0,0,0-2.3-1.377,2.222,2.222,0,0,0-1.908.945,4.756,4.756,0,0,0-.688,2.8Zm8.7-.2a5.753,5.753,0,0,1,.562-2.575,4.2,4.2,0,0,1,1.567-1.764A4.264,4.264,0,0,1,117,7.91a4.108,4.108,0,0,1,3.218,1.377,5.3,5.3,0,0,1,1.229,3.664v.117a5.807,5.807,0,0,1-.545,2.552,4.135,4.135,0,0,1-1.557,1.76,4.313,4.313,0,0,1-2.326.631,4.1,4.1,0,0,1-3.209-1.377,5.272,5.272,0,0,1-1.229-3.646Zm1.674.2a4.167,4.167,0,0,0,.751,2.6,2.547,2.547,0,0,0,4.028-.014,4.556,4.556,0,0,0,.748-2.786,4.16,4.16,0,0,0-.76-2.6A2.418,2.418,0,0,0,117,9.279a2.391,2.391,0,0,0-1.989.981,4.522,4.522,0,0,0-.757,2.805Zm13.989-3.484a4.991,4.991,0,0,0-.819-.063,2.195,2.195,0,0,0-2.223,1.4v6.909h-1.666V8.087h1.621l.027,1.126A2.593,2.593,0,0,1,127.5,7.908a1.7,1.7,0,0,1,.737.126Zm5.4,8.426a4.256,4.256,0,0,1-3.226-1.3,4.827,4.827,0,0,1-1.243-3.479v-.306a5.845,5.845,0,0,1,.553-2.588,4.319,4.319,0,0,1,1.549-1.783,3.893,3.893,0,0,1,2.156-.645,3.648,3.648,0,0,1,2.95,1.251,5.417,5.417,0,0,1,1.054,3.583v.693h-6.59a3.462,3.462,0,0,0,.842,2.327,2.646,2.646,0,0,0,2.048.887,2.9,2.9,0,0,0,1.494-.36,3.755,3.755,0,0,0,1.071-.954l1.014.792a4.09,4.09,0,0,1-3.674,1.884Zm-.207-8.732a2.222,2.222,0,0,0-1.692.737,3.565,3.565,0,0,0-.846,2.057h4.879v-.126a3.172,3.172,0,0,0-.684-1.967,2.092,2.092,0,0,0-1.659-.7Zm11.606,5.967a1.226,1.226,0,0,0-.509-1.049,4.9,4.9,0,0,0-1.774-.645,8.388,8.388,0,0,1-2.008-.645,2.858,2.858,0,0,1-1.1-.9,2.153,2.153,0,0,1-.356-1.243,2.527,2.527,0,0,1,1.014-2.028,3.956,3.956,0,0,1,2.588-.83,4.07,4.07,0,0,1,2.687.855,2.717,2.717,0,0,1,1.031,2.187h-1.674a1.5,1.5,0,0,0-.581-1.179,2.175,2.175,0,0,0-1.463-.5,2.277,2.277,0,0,0-1.422.4,1.247,1.247,0,0,0-.513,1.035,1.014,1.014,0,0,0,.477.909,5.87,5.87,0,0,0,1.724.585,8.982,8.982,0,0,1,2.021.666,2.95,2.95,0,0,1,1.146.932,2.291,2.291,0,0,1,.373,1.327,2.489,2.489,0,0,1-1.044,2.093,4.38,4.38,0,0,1-2.709.787,4.9,4.9,0,0,1-2.07-.414,3.367,3.367,0,0,1-1.409-1.157,2.788,2.788,0,0,1-.509-1.607h1.666a1.724,1.724,0,0,0,.671,1.327,2.6,2.6,0,0,0,1.652.49,2.685,2.685,0,0,0,1.517-.383,1.175,1.175,0,0,0,.571-1.019Z" transform="translate(213.914 479.95)" fill="#344154"/>
      <path id="Trazado_113472" data-name="Trazado 113472" d="M83.168,12.039h-5.5v5.788H75.939V4.72h8.12V6.133H77.667v4.492h5.5Zm4.51,5.788H86.013V8.087h1.666ZM85.878,5.5a.994.994,0,0,1,.248-.684.929.929,0,0,1,.737-.277.944.944,0,0,1,.737.277.984.984,0,0,1,.252.684.951.951,0,0,1-.252.675.961.961,0,0,1-.737.27.946.946,0,0,1-.737-.27.961.961,0,0,1-.248-.675Zm10.14,9.74a1.226,1.226,0,0,0-.509-1.049,4.9,4.9,0,0,0-1.774-.645,8.389,8.389,0,0,1-2.008-.645,2.858,2.858,0,0,1-1.1-.9,2.153,2.153,0,0,1-.356-1.243,2.527,2.527,0,0,1,1.014-2.028,3.955,3.955,0,0,1,2.588-.83,4.07,4.07,0,0,1,2.687.855,2.717,2.717,0,0,1,1.031,2.187h-1.68a1.5,1.5,0,0,0-.581-1.179,2.175,2.175,0,0,0-1.463-.5,2.277,2.277,0,0,0-1.422.4,1.247,1.247,0,0,0-.513,1.035,1.014,1.014,0,0,0,.478.909,5.87,5.87,0,0,0,1.724.585,8.982,8.982,0,0,1,2.021.666A2.95,2.95,0,0,1,97.3,13.8a2.291,2.291,0,0,1,.373,1.327,2.489,2.489,0,0,1-1.044,2.093A4.38,4.38,0,0,1,93.924,18a4.9,4.9,0,0,1-2.07-.414,3.367,3.367,0,0,1-1.409-1.157,2.789,2.789,0,0,1-.509-1.607H91.6a1.724,1.724,0,0,0,.671,1.327,2.6,2.6,0,0,0,1.652.49,2.685,2.685,0,0,0,1.517-.383,1.175,1.175,0,0,0,.572-1.016Zm7.743,1.4a2.4,2.4,0,0,0,1.557-.54,1.9,1.9,0,0,0,.737-1.35h1.575a3.02,3.02,0,0,1-.576,1.594,3.794,3.794,0,0,1-1.418,1.207,4.091,4.091,0,0,1-1.877.45,4.013,4.013,0,0,1-3.165-1.327,5.288,5.288,0,0,1-1.174-3.632v-.277a5.864,5.864,0,0,1,.522-2.529,3.977,3.977,0,0,1,1.494-1.725,4.258,4.258,0,0,1,2.3-.612,3.907,3.907,0,0,1,2.729.981,3.5,3.5,0,0,1,1.157,2.548h-1.575a2.3,2.3,0,0,0-.715-1.553,2.226,2.226,0,0,0-1.589-.607,2.331,2.331,0,0,0-1.967.914,4.291,4.291,0,0,0-.7,2.642v.315a4.205,4.205,0,0,0,.693,2.593,2.342,2.342,0,0,0,1.98.912Zm11.751,1.18a3.5,3.5,0,0,1-.234-1.026,3.716,3.716,0,0,1-2.773,1.207,3.438,3.438,0,0,1-2.363-.815,2.635,2.635,0,0,1-.922-2.066,2.753,2.753,0,0,1,1.157-2.363,5.453,5.453,0,0,1,3.254-.842h1.621v-.765a1.87,1.87,0,0,0-.522-1.391,2.1,2.1,0,0,0-1.539-.518,2.428,2.428,0,0,0-1.494.45,1.326,1.326,0,0,0-.6,1.09H109.42a2.3,2.3,0,0,1,.518-1.409,3.532,3.532,0,0,1,1.4-1.076,4.724,4.724,0,0,1,1.949-.4,3.85,3.85,0,0,1,2.637.842,3.036,3.036,0,0,1,.99,2.318V15.55a5.481,5.481,0,0,0,.342,2.133v.144Zm-2.765-1.269a2.927,2.927,0,0,0,1.485-.4,2.45,2.45,0,0,0,1.014-1.054v-2h-1.3q-3.06,0-3.06,1.791a1.516,1.516,0,0,0,.522,1.224,2.007,2.007,0,0,0,1.341.442Zm8.59,1.269h-1.666V4h1.666Z" transform="translate(461.419 296.713)" fill="#344154"/>
      <path id="Trazado_113479" data-name="Trazado 113479" d="M90.8,17.888H89.073V4.781H90.8Zm4.465-9.74.045,1.08A3.6,3.6,0,0,1,98.2,7.968a2.785,2.785,0,0,1,2.782,1.567A3.687,3.687,0,0,1,102.245,8.4a3.735,3.735,0,0,1,1.844-.432q3.205,0,3.259,3.394v6.525h-1.666V11.46A2.236,2.236,0,0,0,105.2,9.9a2.1,2.1,0,0,0-1.6-.518,2.212,2.212,0,0,0-1.539.553,2.245,2.245,0,0,0-.711,1.49v6.465H99.674V11.506a1.858,1.858,0,0,0-2.08-2.12,2.228,2.228,0,0,0-2.242,1.4v7.107H93.688V8.148Zm22.82,4.978a5.832,5.832,0,0,1-1.014,3.583,3.26,3.26,0,0,1-2.758,1.363,3.572,3.572,0,0,1-2.79-1.126v4.69h-1.666V8.148h1.521l.081,1.08a3.431,3.431,0,0,1,2.826-1.26,3.319,3.319,0,0,1,2.777,1.324,5.9,5.9,0,0,1,1.021,3.682Zm-1.666-.189a4.3,4.3,0,0,0-.7-2.6,2.262,2.262,0,0,0-1.927-.954,2.448,2.448,0,0,0-2.269,1.341v4.654a2.453,2.453,0,0,0,2.286,1.332,2.251,2.251,0,0,0,1.9-.949A4.7,4.7,0,0,0,116.418,12.937Zm9.794,3.988a3.537,3.537,0,0,1-2.858,1.143,3.028,3.028,0,0,1-2.372-.9,3.916,3.916,0,0,1-.824-2.678V8.148h1.666v6.292q0,2.212,1.8,2.212a2.489,2.489,0,0,0,2.539-1.422V8.148h1.666v9.74h-1.585Zm8.192,1.143a4.256,4.256,0,0,1-3.226-1.3,4.828,4.828,0,0,1-1.243-3.479v-.306a5.845,5.845,0,0,1,.553-2.588,4.319,4.319,0,0,1,1.549-1.783,3.893,3.893,0,0,1,2.156-.645,3.648,3.648,0,0,1,2.95,1.251,5.417,5.417,0,0,1,1.062,3.585v.693h-6.6a3.462,3.462,0,0,0,.842,2.327,2.646,2.646,0,0,0,2.048.887,2.9,2.9,0,0,0,1.494-.36,3.755,3.755,0,0,0,1.071-.954l1.014.792a4.09,4.09,0,0,1-3.67,1.887ZM134.2,9.336a2.222,2.222,0,0,0-1.692.737,3.565,3.565,0,0,0-.846,2.057h4.879V12a3.172,3.172,0,0,0-.684-1.967,2.092,2.092,0,0,0-1.657-.7Zm11.6,5.971a1.226,1.226,0,0,0-.509-1.049,4.9,4.9,0,0,0-1.774-.645,8.388,8.388,0,0,1-2.008-.645,2.858,2.858,0,0,1-1.1-.9,2.153,2.153,0,0,1-.356-1.243A2.527,2.527,0,0,1,141.071,8.8a3.956,3.956,0,0,1,2.588-.83,4.07,4.07,0,0,1,2.687.855,2.717,2.717,0,0,1,1.031,2.187H145.7a1.5,1.5,0,0,0-.581-1.179,2.175,2.175,0,0,0-1.463-.5,2.277,2.277,0,0,0-1.422.4,1.247,1.247,0,0,0-.513,1.035,1.014,1.014,0,0,0,.478.909,5.87,5.87,0,0,0,1.724.585,8.982,8.982,0,0,1,2.021.666,2.95,2.95,0,0,1,1.148.932,2.291,2.291,0,0,1,.373,1.327,2.489,2.489,0,0,1-1.044,2.093,4.38,4.38,0,0,1-2.709.787,4.9,4.9,0,0,1-2.07-.414,3.368,3.368,0,0,1-1.409-1.157,2.788,2.788,0,0,1-.509-1.607h1.666a1.724,1.724,0,0,0,.671,1.327,2.6,2.6,0,0,0,1.652.49,2.685,2.685,0,0,0,1.517-.383,1.175,1.175,0,0,0,.57-1.019ZM151.9,5.792V8.148h1.819V9.439H151.9v6.048a1.352,1.352,0,0,0,.243.878,1.023,1.023,0,0,0,.83.293,4.032,4.032,0,0,0,.792-.108v1.338a4.856,4.856,0,0,1-1.279.179,2.074,2.074,0,0,1-1.683-.675,2.9,2.9,0,0,1-.567-1.917V9.435h-1.774V8.145h1.774V5.789Zm3.142,7.138a5.753,5.753,0,0,1,.562-2.575,4.2,4.2,0,0,1,1.567-1.764,4.264,4.264,0,0,1,2.291-.621,4.108,4.108,0,0,1,3.218,1.377,5.3,5.3,0,0,1,1.229,3.664v.117a5.808,5.808,0,0,1-.545,2.552,4.135,4.135,0,0,1-1.557,1.76,4.313,4.313,0,0,1-2.327.631,4.1,4.1,0,0,1-3.209-1.377,5.272,5.272,0,0,1-1.229-3.646Zm1.674.2a4.167,4.167,0,0,0,.751,2.6,2.547,2.547,0,0,0,4.028-.014,4.557,4.557,0,0,0,.748-2.786,4.16,4.16,0,0,0-.76-2.6,2.418,2.418,0,0,0-2.021-.995,2.391,2.391,0,0,0-1.989.981,4.522,4.522,0,0,0-.756,2.806Zm14.956,2.178a1.226,1.226,0,0,0-.509-1.049,4.9,4.9,0,0,0-1.774-.645,8.388,8.388,0,0,1-2.008-.645,2.858,2.858,0,0,1-1.1-.9,2.153,2.153,0,0,1-.356-1.243A2.527,2.527,0,0,1,166.937,8.8a3.956,3.956,0,0,1,2.588-.83,4.07,4.07,0,0,1,2.687.855,2.717,2.717,0,0,1,1.031,2.187h-1.674a1.5,1.5,0,0,0-.581-1.179,2.175,2.175,0,0,0-1.463-.5,2.277,2.277,0,0,0-1.422.4,1.247,1.247,0,0,0-.513,1.035,1.014,1.014,0,0,0,.478.909,5.87,5.87,0,0,0,1.724.585,8.982,8.982,0,0,1,2.021.666,2.95,2.95,0,0,1,1.146.932,2.291,2.291,0,0,1,.373,1.327,2.489,2.489,0,0,1-1.044,2.093,4.38,4.38,0,0,1-2.709.787,4.9,4.9,0,0,1-2.07-.414A3.367,3.367,0,0,1,166.1,16.5a2.788,2.788,0,0,1-.509-1.607h1.666a1.724,1.724,0,0,0,.671,1.327,2.6,2.6,0,0,0,1.652.49,2.685,2.685,0,0,0,1.517-.383,1.175,1.175,0,0,0,.572-1.019Zm-54.785,13.01h-4.211V40.012h-1.719V28.318h-4.2V26.9h10.14Zm6.679,11.694a3.5,3.5,0,0,1-.234-1.026,3.716,3.716,0,0,1-2.773,1.207,3.438,3.438,0,0,1-2.363-.815,2.635,2.635,0,0,1-.922-2.066,2.753,2.753,0,0,1,1.157-2.363,5.453,5.453,0,0,1,3.254-.842H123.3v-.765a1.87,1.87,0,0,0-.522-1.391,2.1,2.1,0,0,0-1.539-.518,2.428,2.428,0,0,0-1.494.45,1.326,1.326,0,0,0-.6,1.09h-1.679a2.3,2.3,0,0,1,.518-1.409,3.533,3.533,0,0,1,1.4-1.076,4.724,4.724,0,0,1,1.949-.4,3.85,3.85,0,0,1,2.637.842,3.037,3.037,0,0,1,.99,2.318v4.483a5.481,5.481,0,0,0,.342,2.133v.144ZM120.8,38.742a2.927,2.927,0,0,0,1.485-.4,2.45,2.45,0,0,0,1.014-1.054v-2H121.99q-3.06,0-3.06,1.791a1.516,1.516,0,0,0,.522,1.224,2.007,2.007,0,0,0,1.347.442Zm12.452-1.312a1.226,1.226,0,0,0-.509-1.049,4.9,4.9,0,0,0-1.774-.645,8.389,8.389,0,0,1-2.008-.645,2.858,2.858,0,0,1-1.1-.9,2.153,2.153,0,0,1-.356-1.243,2.527,2.527,0,0,1,1.014-2.028,3.956,3.956,0,0,1,2.588-.83,4.07,4.07,0,0,1,2.687.855,2.717,2.717,0,0,1,1.031,2.187H133.15a1.5,1.5,0,0,0-.581-1.179,2.176,2.176,0,0,0-1.463-.5,2.277,2.277,0,0,0-1.422.4,1.247,1.247,0,0,0-.513,1.035,1.014,1.014,0,0,0,.477.909,5.87,5.87,0,0,0,1.724.585,8.982,8.982,0,0,1,2.021.666,2.95,2.95,0,0,1,1.148.932,2.291,2.291,0,0,1,.373,1.327,2.489,2.489,0,0,1-1.044,2.093,4.381,4.381,0,0,1-2.709.787,4.9,4.9,0,0,1-2.07-.414,3.367,3.367,0,0,1-1.409-1.157,2.788,2.788,0,0,1-.509-1.607h1.666a1.724,1.724,0,0,0,.671,1.327,2.6,2.6,0,0,0,1.652.49,2.685,2.685,0,0,0,1.514-.382A1.175,1.175,0,0,0,133.248,37.431Zm9.849,2.581a3.5,3.5,0,0,1-.234-1.026,3.716,3.716,0,0,1-2.773,1.207,3.438,3.438,0,0,1-2.363-.815,2.635,2.635,0,0,1-.922-2.066,2.753,2.753,0,0,1,1.157-2.363,5.454,5.454,0,0,1,3.254-.842h1.621v-.765a1.87,1.87,0,0,0-.522-1.391,2.1,2.1,0,0,0-1.539-.518,2.428,2.428,0,0,0-1.494.45,1.326,1.326,0,0,0-.6,1.09H137a2.3,2.3,0,0,1,.518-1.409,3.532,3.532,0,0,1,1.4-1.076,4.724,4.724,0,0,1,1.949-.4,3.85,3.85,0,0,1,2.637.842,3.036,3.036,0,0,1,.99,2.318v4.483a5.481,5.481,0,0,0,.342,2.133v.144Zm-2.765-1.269a2.927,2.927,0,0,0,1.485-.4,2.45,2.45,0,0,0,1.014-1.054v-2h-1.305q-3.06,0-3.06,1.791a1.516,1.516,0,0,0,.522,1.224,2.007,2.007,0,0,0,1.347.442Zm12.451-1.312a1.226,1.226,0,0,0-.509-1.049,4.9,4.9,0,0,0-1.774-.645,8.389,8.389,0,0,1-2.008-.645,2.857,2.857,0,0,1-1.1-.9,2.153,2.153,0,0,1-.356-1.243,2.527,2.527,0,0,1,1.014-2.028,3.956,3.956,0,0,1,2.588-.83,4.07,4.07,0,0,1,2.687.855,2.717,2.717,0,0,1,1.031,2.187h-1.674a1.5,1.5,0,0,0-.581-1.179,2.175,2.175,0,0,0-1.463-.5,2.277,2.277,0,0,0-1.422.4,1.247,1.247,0,0,0-.513,1.035,1.014,1.014,0,0,0,.477.909,5.87,5.87,0,0,0,1.724.585,8.982,8.982,0,0,1,2.021.666,2.95,2.95,0,0,1,1.148.932,2.291,2.291,0,0,1,.373,1.327A2.489,2.489,0,0,1,153.4,39.4a4.38,4.38,0,0,1-2.709.787,4.9,4.9,0,0,1-2.07-.414,3.368,3.368,0,0,1-1.409-1.157,2.788,2.788,0,0,1-.509-1.607h1.666a1.724,1.724,0,0,0,.671,1.327,2.6,2.6,0,0,0,1.652.49,2.685,2.685,0,0,0,1.517-.383,1.175,1.175,0,0,0,.57-1.019Zm-66.205,19.4H83.5v5.3H81.761V49.028H86.1a5.135,5.135,0,0,1,3.411,1.008A3.627,3.627,0,0,1,90.7,52.971a3.529,3.529,0,0,1-.662,2.133,3.95,3.95,0,0,1-1.844,1.36l3.079,5.563v.108H89.421ZM83.5,55.42h2.656a3,3,0,0,0,2.048-.667,2.257,2.257,0,0,0,.76-1.786,2.376,2.376,0,0,0-.725-1.867,3.069,3.069,0,0,0-2.093-.658H83.5Zm13.4,6.9a4.256,4.256,0,0,1-3.226-1.3,4.828,4.828,0,0,1-1.238-3.484v-.306a5.845,5.845,0,0,1,.553-2.588,4.319,4.319,0,0,1,1.549-1.783,3.893,3.893,0,0,1,2.156-.645,3.648,3.648,0,0,1,2.95,1.251,5.417,5.417,0,0,1,1.054,3.583v.693H94.1a3.462,3.462,0,0,0,.842,2.327,2.646,2.646,0,0,0,2.048.887,2.9,2.9,0,0,0,1.494-.36,3.755,3.755,0,0,0,1.071-.954l1.014.792A4.09,4.09,0,0,1,96.9,62.319Zm-.207-8.732A2.222,2.222,0,0,0,95,54.325a3.567,3.567,0,0,0-.846,2.057h4.879v-.126a3.172,3.172,0,0,0-.684-1.967,2.092,2.092,0,0,0-1.656-.7Zm8.192-3.547V52.4h1.819v1.291h-1.819v6.048a1.352,1.352,0,0,0,.243.878,1.023,1.023,0,0,0,.83.293,4.032,4.032,0,0,0,.792-.108v1.334a4.856,4.856,0,0,1-1.279.179,2.074,2.074,0,0,1-1.683-.675,2.9,2.9,0,0,1-.567-1.917v-6.04h-1.774V52.392h1.774V50.036Zm7.8,12.278a4.256,4.256,0,0,1-3.226-1.3,4.828,4.828,0,0,1-1.243-3.479v-.306a5.845,5.845,0,0,1,.553-2.588,4.319,4.319,0,0,1,1.549-1.783,3.893,3.893,0,0,1,2.156-.645,3.648,3.648,0,0,1,2.95,1.251,5.417,5.417,0,0,1,1.054,3.583v.693h-6.6a3.462,3.462,0,0,0,.842,2.327,2.646,2.646,0,0,0,2.048.887,2.9,2.9,0,0,0,1.494-.36,3.755,3.755,0,0,0,1.071-.954l1.014.792a4.09,4.09,0,0,1-3.663,1.885Zm-.207-8.732a2.222,2.222,0,0,0-1.692.737,3.566,3.566,0,0,0-.846,2.057h4.879v-.126a3.171,3.171,0,0,0-.684-1.967,2.092,2.092,0,0,0-1.654-.7Zm7.508-1.188.054,1.224a3.549,3.549,0,0,1,2.917-1.4q3.088,0,3.115,3.484v6.433h-1.666V55.69a2.243,2.243,0,0,0-.481-1.557,1.93,1.93,0,0,0-1.475-.5,2.4,2.4,0,0,0-1.422.432,2.934,2.934,0,0,0-.954,1.134v6.94h-1.666V52.4Zm12.5,8.561a2.4,2.4,0,0,0,1.557-.54,1.9,1.9,0,0,0,.737-1.35h1.575a3.02,3.02,0,0,1-.576,1.594,3.794,3.794,0,0,1-1.418,1.207,4.091,4.091,0,0,1-1.877.45,4.013,4.013,0,0,1-3.165-1.327,5.288,5.288,0,0,1-1.174-3.632v-.277a5.864,5.864,0,0,1,.522-2.529,3.977,3.977,0,0,1,1.5-1.719,4.258,4.258,0,0,1,2.3-.612,3.907,3.907,0,0,1,2.723.981,3.5,3.5,0,0,1,1.157,2.548h-1.566a2.3,2.3,0,0,0-.715-1.553,2.226,2.226,0,0,0-1.589-.607,2.331,2.331,0,0,0-1.967.914,4.291,4.291,0,0,0-.7,2.642v.315a4.205,4.205,0,0,0,.693,2.593,2.342,2.342,0,0,0,1.978.9Zm7.553,1.176h-1.666V52.4h1.666Zm-1.8-12.324a.994.994,0,0,1,.248-.684.929.929,0,0,1,.737-.277.944.944,0,0,1,.737.277.984.984,0,0,1,.252.684.951.951,0,0,1-.252.675.961.961,0,0,1-.737.27.946.946,0,0,1-.737-.27.961.961,0,0,1-.248-.675Zm4.024,7.363a5.753,5.753,0,0,1,.562-2.575,4.2,4.2,0,0,1,1.567-1.764,4.264,4.264,0,0,1,2.291-.621,4.108,4.108,0,0,1,3.218,1.377,5.3,5.3,0,0,1,1.229,3.664v.117a5.807,5.807,0,0,1-.545,2.552,4.135,4.135,0,0,1-1.557,1.76,4.313,4.313,0,0,1-2.327.631,4.1,4.1,0,0,1-3.209-1.377,5.272,5.272,0,0,1-1.229-3.646Zm1.674.2a4.167,4.167,0,0,0,.751,2.6,2.547,2.547,0,0,0,4.028-.014,4.556,4.556,0,0,0,.748-2.786,4.16,4.16,0,0,0-.76-2.6,2.418,2.418,0,0,0-2.021-.995,2.391,2.391,0,0,0-1.989.981,4.522,4.522,0,0,0-.757,2.811ZM154.8,52.4l.054,1.224a3.55,3.55,0,0,1,2.917-1.4q3.088,0,3.115,3.484v6.436h-1.666V55.69a2.243,2.243,0,0,0-.481-1.557,1.93,1.93,0,0,0-1.475-.5,2.4,2.4,0,0,0-1.422.432,2.934,2.934,0,0,0-.954,1.134v6.94h-1.659V52.4Zm12.64,9.924a4.256,4.256,0,0,1-3.226-1.3,4.828,4.828,0,0,1-1.243-3.479v-.306a5.845,5.845,0,0,1,.553-2.588,4.319,4.319,0,0,1,1.549-1.783,3.893,3.893,0,0,1,2.156-.645,3.648,3.648,0,0,1,2.95,1.251,5.418,5.418,0,0,1,1.054,3.583v.693h-6.592a3.462,3.462,0,0,0,.842,2.327,2.646,2.646,0,0,0,2.048.887,2.9,2.9,0,0,0,1.494-.36,3.755,3.755,0,0,0,1.071-.954l1.014.792a4.09,4.09,0,0,1-3.67,1.884Zm-.207-8.732a2.222,2.222,0,0,0-1.692.737,3.565,3.565,0,0,0-.846,2.057h4.879v-.126a3.172,3.172,0,0,0-.684-1.967,2.092,2.092,0,0,0-1.657-.7Zm11.6,5.967a1.226,1.226,0,0,0-.509-1.049,4.9,4.9,0,0,0-1.774-.645,8.388,8.388,0,0,1-2.008-.645,2.858,2.858,0,0,1-1.1-.9,2.153,2.153,0,0,1-.356-1.243,2.527,2.527,0,0,1,1.014-2.028,3.956,3.956,0,0,1,2.588-.83,4.07,4.07,0,0,1,2.687.855,2.717,2.717,0,0,1,1.031,2.187h-1.674a1.5,1.5,0,0,0-.581-1.179,2.175,2.175,0,0,0-1.463-.5,2.277,2.277,0,0,0-1.422.4,1.247,1.247,0,0,0-.513,1.035,1.014,1.014,0,0,0,.477.909,5.87,5.87,0,0,0,1.724.585,8.982,8.982,0,0,1,2.021.666,2.95,2.95,0,0,1,1.148.932,2.291,2.291,0,0,1,.373,1.327,2.489,2.489,0,0,1-1.044,2.093,4.381,4.381,0,0,1-2.709.787,4.9,4.9,0,0,1-2.07-.414,3.367,3.367,0,0,1-1.409-1.157,2.788,2.788,0,0,1-.509-1.607h1.666a1.724,1.724,0,0,0,.671,1.327,2.6,2.6,0,0,0,1.652.49,2.685,2.685,0,0,0,1.517-.383,1.175,1.175,0,0,0,.57-1.019ZM79.987,80.1a4.822,4.822,0,0,1-1.535,3.209,5.03,5.03,0,0,1-3.435,1.135A4.618,4.618,0,0,1,71.3,82.777a6.7,6.7,0,0,1-1.4-4.46v-1.26a7.466,7.466,0,0,1,.645-3.215,4.875,4.875,0,0,1,1.85-2.129,5.151,5.151,0,0,1,2.773-.743,4.736,4.736,0,0,1,3.349,1.166,4.88,4.88,0,0,1,1.468,3.226H78.25a3.766,3.766,0,0,0-.977-2.275,2.955,2.955,0,0,0-2.1-.7,3.093,3.093,0,0,0-2.6,1.227,5.623,5.623,0,0,0-.941,3.486v1.27a5.782,5.782,0,0,0,.891,3.4,2.88,2.88,0,0,0,2.493,1.261,3.326,3.326,0,0,0,2.212-.653A3.622,3.622,0,0,0,78.25,80.1Zm1.659-.8a5.753,5.753,0,0,1,.562-2.575,4.2,4.2,0,0,1,1.567-1.764,4.264,4.264,0,0,1,2.291-.621,4.108,4.108,0,0,1,3.218,1.377,5.3,5.3,0,0,1,1.229,3.664V79.5a5.807,5.807,0,0,1-.545,2.552,4.135,4.135,0,0,1-1.557,1.76,4.313,4.313,0,0,1-2.327.631,4.1,4.1,0,0,1-3.212-1.379,5.272,5.272,0,0,1-1.229-3.646Zm1.674.2a4.167,4.167,0,0,0,.751,2.6,2.547,2.547,0,0,0,4.028-.014,4.557,4.557,0,0,0,.748-2.786,4.16,4.16,0,0,0-.76-2.6,2.418,2.418,0,0,0-2.021-.995,2.391,2.391,0,0,0-1.989.981,4.522,4.522,0,0,0-.76,2.809Zm10.856-4.978.054,1.224a3.549,3.549,0,0,1,2.917-1.4q3.088,0,3.115,3.484v6.436H98.6V77.813a2.242,2.242,0,0,0-.481-1.557,1.93,1.93,0,0,0-1.475-.5,2.4,2.4,0,0,0-1.422.432,2.934,2.934,0,0,0-.954,1.134v6.94H92.6v-9.74Zm10.856-2.359v2.359h1.819v1.291h-1.819v6.048a1.352,1.352,0,0,0,.243.878,1.023,1.023,0,0,0,.83.293,4.033,4.033,0,0,0,.792-.108v1.338a4.856,4.856,0,0,1-1.279.179,2.074,2.074,0,0,1-1.683-.675,2.9,2.9,0,0,1-.567-1.917v-6.04H101.6V74.515h1.774V72.16Zm8.471,3.853a4.993,4.993,0,0,0-.819-.063,2.195,2.195,0,0,0-2.225,1.395v6.914h-1.666v-9.74h1.621l.027,1.126a2.593,2.593,0,0,1,2.323-1.305,1.7,1.7,0,0,1,.737.126Zm3.338,8.246h-1.666v-9.74h1.666Zm-1.8-12.324a.994.994,0,0,1,.248-.684.929.929,0,0,1,.737-.277.944.944,0,0,1,.737.277.984.984,0,0,1,.252.684.951.951,0,0,1-.252.675.961.961,0,0,1-.737.27.946.946,0,0,1-.737-.27.961.961,0,0,1-.248-.675Zm12.711,7.559a5.792,5.792,0,0,1-1.026,3.588,3.279,3.279,0,0,1-2.754,1.355,3.4,3.4,0,0,1-2.858-1.305l-.077,1.127h-1.53V70.431h1.666v5.162a3.377,3.377,0,0,1,2.782-1.251,3.3,3.3,0,0,1,2.786,1.341,5.965,5.965,0,0,1,1.014,3.672Zm-1.666-.189a4.5,4.5,0,0,0-.657-2.629,2.175,2.175,0,0,0-1.891-.927,2.445,2.445,0,0,0-2.367,1.53v4.215a2.514,2.514,0,0,0,2.386,1.53,2.163,2.163,0,0,0,1.863-.927,4.786,4.786,0,0,0,.667-2.788Zm9.776,3.988A3.537,3.537,0,0,1,133,84.435a3.028,3.028,0,0,1-2.372-.9,3.916,3.916,0,0,1-.824-2.678V74.519h1.668v6.292q0,2.212,1.8,2.212a2.489,2.489,0,0,0,2.539-1.422V74.519h1.666v9.74H135.9Zm8.057-.216a2.4,2.4,0,0,0,1.557-.54,1.9,1.9,0,0,0,.737-1.35h1.579a3.02,3.02,0,0,1-.576,1.594,3.794,3.794,0,0,1-1.418,1.207,4.091,4.091,0,0,1-1.877.45,4.013,4.013,0,0,1-3.165-1.327,5.288,5.288,0,0,1-1.174-3.632V79.2a5.863,5.863,0,0,1,.522-2.529,3.977,3.977,0,0,1,1.5-1.719,4.258,4.258,0,0,1,2.3-.612,3.907,3.907,0,0,1,2.723.981,3.5,3.5,0,0,1,1.157,2.548h-1.575a2.3,2.3,0,0,0-.715-1.553,2.226,2.226,0,0,0-1.589-.607,2.331,2.331,0,0,0-1.967.914,4.291,4.291,0,0,0-.7,2.642v.315a4.205,4.205,0,0,0,.693,2.593,2.342,2.342,0,0,0,1.985.908Zm7.554,1.182h-1.666v-9.74h1.666Zm-1.8-12.324a.994.994,0,0,1,.248-.684.929.929,0,0,1,.737-.277.944.944,0,0,1,.737.277.984.984,0,0,1,.252.684.951.951,0,0,1-.252.675.961.961,0,0,1-.737.27.946.946,0,0,1-.737-.27.961.961,0,0,1-.249-.675ZM153.7,79.3a5.753,5.753,0,0,1,.562-2.575,4.2,4.2,0,0,1,1.567-1.764,4.264,4.264,0,0,1,2.291-.621,4.108,4.108,0,0,1,3.218,1.377,5.3,5.3,0,0,1,1.229,3.664V79.5a5.807,5.807,0,0,1-.545,2.552,4.135,4.135,0,0,1-1.557,1.76,4.313,4.313,0,0,1-2.327.631,4.1,4.1,0,0,1-3.209-1.377,5.272,5.272,0,0,1-1.229-3.646Zm1.674.2a4.167,4.167,0,0,0,.751,2.6,2.547,2.547,0,0,0,4.028-.014A4.557,4.557,0,0,0,160.9,79.3a4.16,4.16,0,0,0-.76-2.6,2.418,2.418,0,0,0-2.021-.995,2.391,2.391,0,0,0-1.989.981A4.522,4.522,0,0,0,155.37,79.5Zm10.856-4.978.054,1.224a3.55,3.55,0,0,1,2.917-1.4q3.088,0,3.115,3.484v6.436h-1.666V77.813a2.243,2.243,0,0,0-.481-1.557,1.93,1.93,0,0,0-1.475-.5,2.4,2.4,0,0,0-1.422.432,2.934,2.934,0,0,0-.954,1.134v6.94h-1.666v-9.74Zm12.639,9.924a4.256,4.256,0,0,1-3.226-1.3,4.828,4.828,0,0,1-1.243-3.479v-.306a5.845,5.845,0,0,1,.553-2.588,4.318,4.318,0,0,1,1.549-1.783,3.893,3.893,0,0,1,2.156-.645,3.648,3.648,0,0,1,2.95,1.251,5.417,5.417,0,0,1,1.054,3.583v.693h-6.6a3.462,3.462,0,0,0,.842,2.327,2.646,2.646,0,0,0,2.048.887,2.9,2.9,0,0,0,1.494-.36,3.754,3.754,0,0,0,1.071-.954l1.014.792A4.09,4.09,0,0,1,178.865,84.443Zm-.207-8.732a2.222,2.222,0,0,0-1.692.737,3.565,3.565,0,0,0-.846,2.057H181v-.126a3.172,3.172,0,0,0-.684-1.967,2.092,2.092,0,0,0-1.656-.7Zm11.6,5.967a1.226,1.226,0,0,0-.509-1.049,4.9,4.9,0,0,0-1.774-.645,8.389,8.389,0,0,1-2.008-.645,2.857,2.857,0,0,1-1.1-.9,2.153,2.153,0,0,1-.356-1.243,2.527,2.527,0,0,1,1.014-2.028,3.955,3.955,0,0,1,2.588-.83,4.07,4.07,0,0,1,2.687.855,2.717,2.717,0,0,1,1.031,2.187h-1.674a1.5,1.5,0,0,0-.581-1.179,2.176,2.176,0,0,0-1.463-.5,2.277,2.277,0,0,0-1.422.4,1.247,1.247,0,0,0-.513,1.035,1.014,1.014,0,0,0,.478.909,5.87,5.87,0,0,0,1.724.585,8.982,8.982,0,0,1,2.021.666,2.95,2.95,0,0,1,1.148.932,2.291,2.291,0,0,1,.373,1.327,2.489,2.489,0,0,1-1.044,2.093,4.381,4.381,0,0,1-2.709.787,4.9,4.9,0,0,1-2.07-.414,3.367,3.367,0,0,1-1.409-1.157,2.788,2.788,0,0,1-.509-1.607h1.666a1.724,1.724,0,0,0,.671,1.327,2.6,2.6,0,0,0,1.652.49,2.685,2.685,0,0,0,1.517-.383A1.175,1.175,0,0,0,190.263,81.677Z" transform="translate(429.629 446.703)" fill="#344154"/>
      <path id="Trazado_113471" data-name="Trazado 113471" d="M54.488,11.7a8.112,8.112,0,0,1-.645,3.362,4.91,4.91,0,0,1-1.836,2.192,5.07,5.07,0,0,1-7.374-2.174,7.779,7.779,0,0,1-.679-3.263v-.946a8.011,8.011,0,0,1,.657-3.34A4.86,4.86,0,0,1,49.219,4.54,5.081,5.081,0,0,1,52,5.3,4.9,4.9,0,0,1,53.84,7.5a8.147,8.147,0,0,1,.645,3.362Zm-1.719-.846a5.876,5.876,0,0,0-.937-3.578,3.088,3.088,0,0,0-2.619-1.244,3.055,3.055,0,0,0-2.581,1.247,5.757,5.757,0,0,0-.968,3.461V11.7a5.885,5.885,0,0,0,.949,3.552,3.328,3.328,0,0,0,5.207.072,5.852,5.852,0,0,0,.945-3.5Zm12.3,2.212a5.792,5.792,0,0,1-1.026,3.588,3.279,3.279,0,0,1-2.754,1.355A3.4,3.4,0,0,1,58.428,16.7l-.078,1.126h-1.53V4h1.666V9.162a3.377,3.377,0,0,1,2.782-1.251,3.3,3.3,0,0,1,2.786,1.341,5.965,5.965,0,0,1,1.014,3.672ZM63.4,12.874a4.5,4.5,0,0,0-.657-2.629,2.175,2.175,0,0,0-1.891-.927,2.445,2.445,0,0,0-2.367,1.53v4.214a2.514,2.514,0,0,0,2.386,1.53,2.163,2.163,0,0,0,1.863-.927,4.786,4.786,0,0,0,.666-2.788Zm5.572,4.953H67.307V4h1.666Zm4.474,0H71.781V8.087h1.666ZM71.65,5.5a.994.994,0,0,1,.248-.684.929.929,0,0,1,.737-.277.944.944,0,0,1,.737.277.984.984,0,0,1,.252.684.951.951,0,0,1-.252.675.961.961,0,0,1-.737.27.946.946,0,0,1-.737-.27A.961.961,0,0,1,71.65,5.5Zm4.069,7.374a5.724,5.724,0,0,1,1.049-3.624,3.631,3.631,0,0,1,5.575-.088l.081-1.08h1.521v9.507a3.964,3.964,0,0,1-1.121,2.979,4.136,4.136,0,0,1-3.012,1.09,5.01,5.01,0,0,1-2.061-.45,3.549,3.549,0,0,1-1.539-1.233l.865-1A3.257,3.257,0,0,0,79.7,20.3a2.552,2.552,0,0,0,1.9-.684,2.615,2.615,0,0,0,.679-1.927v-.837a3.423,3.423,0,0,1-2.73,1.156,3.327,3.327,0,0,1-2.765-1.377,6.019,6.019,0,0,1-1.061-3.758Zm1.674.189a4.368,4.368,0,0,0,.675,2.588,2.194,2.194,0,0,0,1.891.941,2.439,2.439,0,0,0,2.314-1.432v-4.45a2.468,2.468,0,0,0-2.3-1.4,2.212,2.212,0,0,0-1.9.949,4.757,4.757,0,0,0-.684,2.8Zm15.074,4.76a3.5,3.5,0,0,1-.234-1.026,3.716,3.716,0,0,1-2.773,1.21A3.438,3.438,0,0,1,87.1,17.2a2.635,2.635,0,0,1-.922-2.066,2.753,2.753,0,0,1,1.157-2.363,5.453,5.453,0,0,1,3.254-.842h1.62v-.765a1.87,1.87,0,0,0-.522-1.391,2.1,2.1,0,0,0-1.539-.518,2.428,2.428,0,0,0-1.494.45,1.326,1.326,0,0,0-.6,1.09H86.374a2.3,2.3,0,0,1,.518-1.409,3.532,3.532,0,0,1,1.4-1.076,4.724,4.724,0,0,1,1.949-.4,3.85,3.85,0,0,1,2.637.842,3.036,3.036,0,0,1,.99,2.318v4.483a5.481,5.481,0,0,0,.342,2.133v.14ZM89.7,16.558a2.927,2.927,0,0,0,1.485-.4A2.45,2.45,0,0,0,92.2,15.1v-2H90.9q-3.06,0-3.06,1.791a1.516,1.516,0,0,0,.522,1.224,2.007,2.007,0,0,0,1.341.442Zm10.686.092a2.4,2.4,0,0,0,1.557-.54,1.9,1.9,0,0,0,.737-1.35h1.575a3.02,3.02,0,0,1-.576,1.594,3.794,3.794,0,0,1-1.418,1.207,4.091,4.091,0,0,1-1.877.45,4.013,4.013,0,0,1-3.165-1.327,5.288,5.288,0,0,1-1.174-3.632v-.277a5.864,5.864,0,0,1,.522-2.529,3.977,3.977,0,0,1,1.5-1.727,4.258,4.258,0,0,1,2.3-.612,3.907,3.907,0,0,1,2.728.981,3.5,3.5,0,0,1,1.157,2.548h-1.575a2.3,2.3,0,0,0-.715-1.553,2.226,2.226,0,0,0-1.589-.607,2.331,2.331,0,0,0-1.967.914,4.291,4.291,0,0,0-.7,2.642v.315a4.205,4.205,0,0,0,.693,2.593,2.342,2.342,0,0,0,1.981.912Zm7.554,1.177h-1.666V8.087h1.666ZM106.142,5.5a.994.994,0,0,1,.248-.684.929.929,0,0,1,.737-.277.944.944,0,0,1,.737.277.984.984,0,0,1,.252.684.951.951,0,0,1-.252.675.961.961,0,0,1-.737.27.946.946,0,0,1-.737-.27.961.961,0,0,1-.248-.675Zm4.024,7.363a5.753,5.753,0,0,1,.562-2.575,4.2,4.2,0,0,1,1.567-1.764,4.264,4.264,0,0,1,2.291-.621A4.108,4.108,0,0,1,117.8,9.284a5.3,5.3,0,0,1,1.229,3.664v.117a5.807,5.807,0,0,1-.545,2.552,4.135,4.135,0,0,1-1.557,1.76,4.313,4.313,0,0,1-2.327.631,4.1,4.1,0,0,1-3.209-1.377,5.272,5.272,0,0,1-1.229-3.646Zm1.674.2a4.167,4.167,0,0,0,.751,2.6,2.547,2.547,0,0,0,4.028-.014,4.556,4.556,0,0,0,.748-2.786,4.16,4.16,0,0,0-.76-2.6,2.418,2.418,0,0,0-2.021-.995,2.391,2.391,0,0,0-1.989.981,4.522,4.522,0,0,0-.755,2.809ZM122.7,8.087l.054,1.224a3.55,3.55,0,0,1,2.918-1.4q3.088,0,3.115,3.484v6.437h-1.666V11.382a2.243,2.243,0,0,0-.481-1.557,1.93,1.93,0,0,0-1.475-.5,2.4,2.4,0,0,0-1.422.432,2.934,2.934,0,0,0-.954,1.134v6.94h-1.666V8.087Zm12.64,9.924a4.256,4.256,0,0,1-3.226-1.3,4.828,4.828,0,0,1-1.243-3.479v-.306a5.845,5.845,0,0,1,.553-2.588,4.319,4.319,0,0,1,1.549-1.783,3.893,3.893,0,0,1,2.156-.645,3.648,3.648,0,0,1,2.95,1.251,5.418,5.418,0,0,1,1.054,3.583v.693h-6.592a3.462,3.462,0,0,0,.842,2.327,2.646,2.646,0,0,0,2.048.887,2.9,2.9,0,0,0,1.494-.36,3.755,3.755,0,0,0,1.071-.954l1.014.792a4.09,4.09,0,0,1-3.67,1.884Zm-.207-8.732a2.222,2.222,0,0,0-1.692.737,3.566,3.566,0,0,0-.846,2.057h4.878v-.126a3.172,3.172,0,0,0-.684-1.967,2.092,2.092,0,0,0-1.656-.7Zm11.6,5.967a1.226,1.226,0,0,0-.509-1.049,4.9,4.9,0,0,0-1.774-.645,8.388,8.388,0,0,1-2.008-.645,2.858,2.858,0,0,1-1.1-.9,2.153,2.153,0,0,1-.356-1.243A2.527,2.527,0,0,1,142,8.735a3.956,3.956,0,0,1,2.588-.83,4.07,4.07,0,0,1,2.687.855,2.717,2.717,0,0,1,1.031,2.187h-1.674a1.5,1.5,0,0,0-.581-1.179,2.175,2.175,0,0,0-1.463-.5,2.277,2.277,0,0,0-1.422.4,1.247,1.247,0,0,0-.513,1.035,1.014,1.014,0,0,0,.478.909,5.87,5.87,0,0,0,1.724.585,8.982,8.982,0,0,1,2.021.666,2.95,2.95,0,0,1,1.148.932,2.291,2.291,0,0,1,.373,1.327,2.489,2.489,0,0,1-1.044,2.093,4.38,4.38,0,0,1-2.709.787,4.905,4.905,0,0,1-2.07-.414,3.367,3.367,0,0,1-1.409-1.157,2.788,2.788,0,0,1-.509-1.607h1.666a1.724,1.724,0,0,0,.671,1.327,2.6,2.6,0,0,0,1.652.49,2.685,2.685,0,0,0,1.517-.383,1.175,1.175,0,0,0,.57-1.019Z" transform="translate(787.475 307.39)" fill="#344154"/>
      <path id="Trazado_113478" data-name="Trazado 113478" d="M17.238,11.68a8.112,8.112,0,0,1-.648,3.365,4.91,4.91,0,0,1-1.836,2.192,5.052,5.052,0,0,1-2.773.756,4.886,4.886,0,0,1-4.609-2.93A7.779,7.779,0,0,1,6.693,11.8v-.948a8.011,8.011,0,0,1,.661-3.34,4.86,4.86,0,0,1,4.609-2.989,5.081,5.081,0,0,1,2.777.76,4.9,4.9,0,0,1,1.85,2.2,8.147,8.147,0,0,1,.645,3.362Zm-1.719-.846a5.877,5.877,0,0,0-.937-3.578,3.088,3.088,0,0,0-2.62-1.244A3.055,3.055,0,0,0,9.382,7.258a5.757,5.757,0,0,0-.965,3.454v.968a5.885,5.885,0,0,0,.949,3.549,3.068,3.068,0,0,0,2.615,1.291,3.055,3.055,0,0,0,2.593-1.22,5.852,5.852,0,0,0,.945-3.5Zm12.3,2.212a5.792,5.792,0,0,1-1.026,3.588,3.279,3.279,0,0,1-2.754,1.355,3.4,3.4,0,0,1-2.858-1.305L21.1,17.81H19.57V3.983h1.666V9.145a3.377,3.377,0,0,1,2.782-1.251A3.3,3.3,0,0,1,26.8,9.235a5.965,5.965,0,0,1,1.014,3.672Zm-1.667-.187a4.5,4.5,0,0,0-.657-2.629A2.175,2.175,0,0,0,23.6,9.3a2.445,2.445,0,0,0-2.367,1.53v4.212a2.514,2.514,0,0,0,2.386,1.53,2.163,2.163,0,0,0,1.863-.927A4.786,4.786,0,0,0,26.149,12.859Zm5.573,4.951H30.057V3.983h1.666Zm4.474,0H34.532V8.07H36.2ZM34.4,5.486a.994.994,0,0,1,.248-.684.929.929,0,0,1,.737-.277.944.944,0,0,1,.737.277.984.984,0,0,1,.252.684.951.951,0,0,1-.252.675.961.961,0,0,1-.737.27.946.946,0,0,1-.737-.27A.961.961,0,0,1,34.4,5.486Zm4.069,7.374a5.724,5.724,0,0,1,1.051-3.624,3.631,3.631,0,0,1,5.572-.086l.081-1.08H46.69v9.5a3.964,3.964,0,0,1-1.121,2.979,4.136,4.136,0,0,1-3.012,1.09,5.01,5.01,0,0,1-2.061-.45,3.549,3.549,0,0,1-1.539-1.233l.865-1a3.257,3.257,0,0,0,2.62,1.324,2.552,2.552,0,0,0,1.9-.684,2.615,2.615,0,0,0,.679-1.927v-.837a3.423,3.423,0,0,1-2.728,1.152,3.327,3.327,0,0,1-2.765-1.377,6.019,6.019,0,0,1-1.058-3.755Zm1.674.189a4.368,4.368,0,0,0,.675,2.588,2.194,2.194,0,0,0,1.891.941,2.439,2.439,0,0,0,2.314-1.432V10.7a2.468,2.468,0,0,0-2.3-1.4,2.212,2.212,0,0,0-1.9.949,4.757,4.757,0,0,0-.684,2.8Zm15.079,4.76a3.5,3.5,0,0,1-.234-1.026,3.716,3.716,0,0,1-2.773,1.21,3.438,3.438,0,0,1-2.363-.815,2.635,2.635,0,0,1-.922-2.066,2.753,2.753,0,0,1,1.157-2.363,5.453,5.453,0,0,1,3.254-.842h1.621v-.765a1.87,1.87,0,0,0-.522-1.391A2.1,2.1,0,0,0,52.9,9.235a2.428,2.428,0,0,0-1.494.45,1.326,1.326,0,0,0-.6,1.09H49.124a2.3,2.3,0,0,1,.518-1.409,3.532,3.532,0,0,1,1.4-1.076,4.724,4.724,0,0,1,1.949-.4,3.85,3.85,0,0,1,2.637.842,3.036,3.036,0,0,1,.99,2.318v4.483a5.481,5.481,0,0,0,.342,2.133v.14Zm-2.765-1.269a2.927,2.927,0,0,0,1.485-.4,2.45,2.45,0,0,0,1.014-1.054v-2h-1.3q-3.06,0-3.06,1.791a1.516,1.516,0,0,0,.522,1.224,2.007,2.007,0,0,0,1.341.442Zm10.686.092a2.4,2.4,0,0,0,1.557-.54,1.9,1.9,0,0,0,.737-1.35h1.575a3.02,3.02,0,0,1-.575,1.593,3.794,3.794,0,0,1-1.418,1.207,4.091,4.091,0,0,1-1.877.45,4.013,4.013,0,0,1-3.165-1.327A5.288,5.288,0,0,1,58.8,13.032v-.277a5.864,5.864,0,0,1,.522-2.529,3.977,3.977,0,0,1,1.5-1.727,4.258,4.258,0,0,1,2.3-.612,3.907,3.907,0,0,1,2.728.981,3.5,3.5,0,0,1,1.157,2.548H65.435a2.3,2.3,0,0,0-.715-1.553,2.226,2.226,0,0,0-1.589-.607,2.331,2.331,0,0,0-1.967.914,4.291,4.291,0,0,0-.7,2.642v.315a4.205,4.205,0,0,0,.693,2.593,2.342,2.342,0,0,0,1.981.912Zm7.554,1.177H69.027V8.07h1.666Zm-1.8-12.324A.994.994,0,0,1,69.14,4.8a.929.929,0,0,1,.737-.277.944.944,0,0,1,.737.277.984.984,0,0,1,.252.684.951.951,0,0,1-.252.675.961.961,0,0,1-.737.27.946.946,0,0,1-.737-.27A.961.961,0,0,1,68.892,5.486Zm4.024,7.363a5.753,5.753,0,0,1,.562-2.575,4.2,4.2,0,0,1,1.567-1.764,4.264,4.264,0,0,1,2.291-.621,4.108,4.108,0,0,1,3.218,1.377,5.3,5.3,0,0,1,1.229,3.664v.117a5.807,5.807,0,0,1-.545,2.552,4.135,4.135,0,0,1-1.557,1.76,4.313,4.313,0,0,1-2.327.631,4.1,4.1,0,0,1-3.21-1.379,5.272,5.272,0,0,1-1.229-3.646Zm1.674.2a4.167,4.167,0,0,0,.751,2.6,2.547,2.547,0,0,0,4.028-.014,4.556,4.556,0,0,0,.748-2.786,4.16,4.16,0,0,0-.76-2.6,2.418,2.418,0,0,0-2.021-.995,2.391,2.391,0,0,0-1.989.981,4.522,4.522,0,0,0-.756,2.809ZM85.446,8.07,85.5,9.294a3.549,3.549,0,0,1,2.918-1.4q3.088,0,3.115,3.484V17.81H89.867V11.365a2.242,2.242,0,0,0-.481-1.557,1.93,1.93,0,0,0-1.475-.5,2.4,2.4,0,0,0-1.422.432,2.934,2.934,0,0,0-.954,1.134v6.94H83.871V8.07Zm12.64,9.924a4.256,4.256,0,0,1-3.226-1.3,4.827,4.827,0,0,1-1.243-3.479v-.306a5.845,5.845,0,0,1,.553-2.588,4.319,4.319,0,0,1,1.549-1.783,3.893,3.893,0,0,1,2.156-.645,3.648,3.648,0,0,1,2.95,1.251,5.417,5.417,0,0,1,1.054,3.583v.693H95.285a3.462,3.462,0,0,0,.842,2.327,2.646,2.646,0,0,0,2.048.887,2.9,2.9,0,0,0,1.494-.36,3.755,3.755,0,0,0,1.071-.954l1.014.792a4.09,4.09,0,0,1-3.669,1.884Zm-.207-8.732A2.222,2.222,0,0,0,96.186,10a3.566,3.566,0,0,0-.846,2.057h4.879V11.93a3.172,3.172,0,0,0-.684-1.967,2.092,2.092,0,0,0-1.657-.7Zm11.6,5.967a1.226,1.226,0,0,0-.509-1.049,4.9,4.9,0,0,0-1.774-.645,8.388,8.388,0,0,1-2.008-.645,2.858,2.858,0,0,1-1.1-.9,2.153,2.153,0,0,1-.356-1.243,2.527,2.527,0,0,1,1.014-2.028,3.955,3.955,0,0,1,2.588-.83,4.07,4.07,0,0,1,2.687.855,2.717,2.717,0,0,1,1.031,2.187h-1.674a1.5,1.5,0,0,0-.581-1.179,2.175,2.175,0,0,0-1.463-.5,2.277,2.277,0,0,0-1.422.4,1.247,1.247,0,0,0-.513,1.035,1.014,1.014,0,0,0,.477.909,5.87,5.87,0,0,0,1.724.585,8.982,8.982,0,0,1,2.021.666,2.95,2.95,0,0,1,1.146.932,2.291,2.291,0,0,1,.373,1.327A2.489,2.489,0,0,1,110.1,17.2a4.38,4.38,0,0,1-2.709.787,4.9,4.9,0,0,1-2.07-.414,3.367,3.367,0,0,1-1.409-1.157,2.788,2.788,0,0,1-.509-1.607h1.666a1.724,1.724,0,0,0,.671,1.327,2.6,2.6,0,0,0,1.652.49,2.685,2.685,0,0,0,1.517-.383A1.175,1.175,0,0,0,109.481,15.229Zm8.957,2.581V9.357H116.9V8.067h1.539v-.83A3.384,3.384,0,0,1,119.37,4.7,3.613,3.613,0,0,1,122,3.789a7.928,7.928,0,0,1,2.548.553l-.277,1.4a5.769,5.769,0,0,0-2.142-.45,2.1,2.1,0,0,0-1.544.481,1.986,1.986,0,0,0-.473,1.444v.846H122.1V9.359h-1.989V17.81Zm6.94,0H123.7V8.07h1.674Zm4.29-9.74.054,1.224a3.55,3.55,0,0,1,2.917-1.4q3.088,0,3.115,3.484V17.81h-1.666V11.365a2.243,2.243,0,0,0-.481-1.557,1.93,1.93,0,0,0-1.475-.5,2.4,2.4,0,0,0-1.422.432,2.934,2.934,0,0,0-.954,1.134v6.94H128.09V8.07Zm14.606,9.74a3.5,3.5,0,0,1-.234-1.026,3.716,3.716,0,0,1-2.773,1.207,3.438,3.438,0,0,1-2.363-.815,2.635,2.635,0,0,1-.922-2.066,2.753,2.753,0,0,1,1.157-2.363,5.453,5.453,0,0,1,3.254-.842h1.621v-.765a1.87,1.87,0,0,0-.522-1.391,2.1,2.1,0,0,0-1.539-.518,2.428,2.428,0,0,0-1.494.45,1.326,1.326,0,0,0-.6,1.09h-1.674a2.3,2.3,0,0,1,.518-1.409,3.532,3.532,0,0,1,1.4-1.076,4.724,4.724,0,0,1,1.949-.4,3.85,3.85,0,0,1,2.637.842,3.036,3.036,0,0,1,.99,2.318v4.483a5.481,5.481,0,0,0,.342,2.133v.144Zm-2.765-1.269a2.927,2.927,0,0,0,1.485-.4,2.45,2.45,0,0,0,1.014-1.054v-2H142.7q-3.06,0-3.06,1.791a1.516,1.516,0,0,0,.522,1.224,2.007,2.007,0,0,0,1.347.442Zm8.354-8.471.054,1.224a3.55,3.55,0,0,1,2.917-1.4q3.088,0,3.115,3.484V17.81h-1.668V11.365a2.243,2.243,0,0,0-.481-1.557,1.93,1.93,0,0,0-1.475-.5,2.4,2.4,0,0,0-1.422.432,2.934,2.934,0,0,0-.954,1.134v6.94h-1.659V8.07Zm12.5,8.561a2.4,2.4,0,0,0,1.557-.54,1.9,1.9,0,0,0,.737-1.35h1.575a3.02,3.02,0,0,1-.576,1.594,3.794,3.794,0,0,1-1.418,1.207,4.091,4.091,0,0,1-1.877.45,4.013,4.013,0,0,1-3.165-1.327,5.288,5.288,0,0,1-1.174-3.632v-.277a5.864,5.864,0,0,1,.522-2.529,3.977,3.977,0,0,1,1.5-1.726,4.258,4.258,0,0,1,2.3-.612,3.907,3.907,0,0,1,2.728.981,3.5,3.5,0,0,1,1.157,2.548h-1.575a2.3,2.3,0,0,0-.715-1.553,2.226,2.226,0,0,0-1.589-.607,2.331,2.331,0,0,0-1.967.914,4.291,4.291,0,0,0-.7,2.642v.315a4.205,4.205,0,0,0,.693,2.593,2.342,2.342,0,0,0,1.98.912Zm7.555,1.179h-1.666V8.07h1.666Zm-1.8-12.324a.994.994,0,0,1,.248-.684.929.929,0,0,1,.737-.277.944.944,0,0,1,.737.277.983.983,0,0,1,.252.684.951.951,0,0,1-.252.675.961.961,0,0,1-.737.27.946.946,0,0,1-.737-.27.961.961,0,0,1-.248-.675Zm8.507,12.508a4.256,4.256,0,0,1-3.226-1.3,4.827,4.827,0,0,1-1.238-3.484V12.9a5.845,5.845,0,0,1,.553-2.588,4.319,4.319,0,0,1,1.549-1.783,3.893,3.893,0,0,1,2.156-.645,3.648,3.648,0,0,1,2.95,1.251,5.418,5.418,0,0,1,1.054,3.583v.693h-6.6a3.462,3.462,0,0,0,.842,2.327,2.646,2.646,0,0,0,2.048.887,2.9,2.9,0,0,0,1.494-.36,3.755,3.755,0,0,0,1.071-.954l1.014.792A4.09,4.09,0,0,1,176.628,17.994Zm-.207-8.732a2.222,2.222,0,0,0-1.692.737,3.566,3.566,0,0,0-.846,2.057h4.879V11.93a3.172,3.172,0,0,0-.684-1.967,2.092,2.092,0,0,0-1.657-.7Zm10.64.306a4.991,4.991,0,0,0-.82-.063,2.195,2.195,0,0,0-2.223,1.4V17.81h-1.666V8.07h1.621L184,9.2a2.593,2.593,0,0,1,2.323-1.305,1.7,1.7,0,0,1,.737.126Zm7.184,8.242a3.5,3.5,0,0,1-.234-1.026,3.716,3.716,0,0,1-2.773,1.207,3.438,3.438,0,0,1-2.363-.815,2.635,2.635,0,0,1-.922-2.066,2.753,2.753,0,0,1,1.157-2.363,5.453,5.453,0,0,1,3.254-.842h1.621v-.765a1.87,1.87,0,0,0-.522-1.391,2.1,2.1,0,0,0-1.539-.518,2.428,2.428,0,0,0-1.494.45,1.326,1.326,0,0,0-.6,1.09h-1.674a2.3,2.3,0,0,1,.518-1.409,3.532,3.532,0,0,1,1.4-1.076,4.724,4.724,0,0,1,1.949-.4,3.85,3.85,0,0,1,2.637.842,3.036,3.036,0,0,1,.99,2.318v4.483a5.482,5.482,0,0,0,.342,2.133v.144Zm-2.765-1.269a2.927,2.927,0,0,0,1.485-.4,2.45,2.45,0,0,0,1.014-1.054v-2h-1.305q-3.06,0-3.06,1.791a1.516,1.516,0,0,0,.522,1.224,2.007,2.007,0,0,0,1.347.442Zm12.452-1.312a1.226,1.226,0,0,0-.509-1.049,4.9,4.9,0,0,0-1.774-.645,8.389,8.389,0,0,1-2.008-.645,2.858,2.858,0,0,1-1.1-.9,2.153,2.153,0,0,1-.356-1.243A2.527,2.527,0,0,1,199.2,8.718a3.956,3.956,0,0,1,2.588-.83,4.07,4.07,0,0,1,2.687.855,2.717,2.717,0,0,1,1.031,2.187h-1.674a1.5,1.5,0,0,0-.581-1.179,2.176,2.176,0,0,0-1.463-.5,2.277,2.277,0,0,0-1.422.4,1.247,1.247,0,0,0-.513,1.035,1.014,1.014,0,0,0,.477.909,5.87,5.87,0,0,0,1.724.585,8.982,8.982,0,0,1,2.021.666,2.95,2.95,0,0,1,1.148.932,2.291,2.291,0,0,1,.373,1.327,2.489,2.489,0,0,1-1.044,2.093,4.38,4.38,0,0,1-2.709.787,4.9,4.9,0,0,1-2.07-.414,3.367,3.367,0,0,1-1.409-1.157,2.788,2.788,0,0,1-.509-1.607h1.666a1.724,1.724,0,0,0,.671,1.327,2.6,2.6,0,0,0,1.652.49,2.685,2.685,0,0,0,1.517-.383,1.175,1.175,0,0,0,.57-1.019ZM34.419,38.52H40.63v1.413H32.681V26.826h1.738Zm11.963,1.6a4.256,4.256,0,0,1-3.226-1.3,4.828,4.828,0,0,1-1.243-3.479v-.306a5.845,5.845,0,0,1,.553-2.588,4.319,4.319,0,0,1,1.549-1.783,3.893,3.893,0,0,1,2.156-.645,3.648,3.648,0,0,1,2.95,1.251,5.417,5.417,0,0,1,1.054,3.583v.693H43.583a3.462,3.462,0,0,0,.842,2.327,2.646,2.646,0,0,0,2.048.887,2.9,2.9,0,0,0,1.494-.36,3.755,3.755,0,0,0,1.071-.954l1.014.792a4.09,4.09,0,0,1-3.67,1.884Zm-.207-8.732a2.222,2.222,0,0,0-1.692.737,3.566,3.566,0,0,0-.846,2.057h4.879v-.126a3.172,3.172,0,0,0-.684-1.967,2.092,2.092,0,0,0-1.657-.7Zm11.946,8.548a3.5,3.5,0,0,1-.234-1.026,3.716,3.716,0,0,1-2.772,1.21,3.438,3.438,0,0,1-2.363-.815,2.635,2.635,0,0,1-.922-2.066,2.753,2.753,0,0,1,1.157-2.363,5.453,5.453,0,0,1,3.254-.842H57.86v-.765a1.87,1.87,0,0,0-.522-1.391,2.1,2.1,0,0,0-1.539-.518,2.428,2.428,0,0,0-1.494.45,1.326,1.326,0,0,0-.6,1.09H52.027a2.3,2.3,0,0,1,.518-1.409,3.532,3.532,0,0,1,1.4-1.076,4.724,4.724,0,0,1,1.949-.4,3.85,3.85,0,0,1,2.637.842,3.036,3.036,0,0,1,.99,2.318V37.66a5.481,5.481,0,0,0,.342,2.133v.14Zm-2.765-1.269a2.927,2.927,0,0,0,1.485-.4,2.45,2.45,0,0,0,1.014-1.054v-2h-1.3q-3.06,0-3.06,1.791a1.516,1.516,0,0,0,.522,1.224,2.007,2.007,0,0,0,1.341.442Zm12.452-1.312A1.226,1.226,0,0,0,67.3,36.3a4.9,4.9,0,0,0-1.774-.645,8.388,8.388,0,0,1-2.008-.645,2.858,2.858,0,0,1-1.1-.9,2.153,2.153,0,0,1-.356-1.243,2.527,2.527,0,0,1,1.014-2.028,3.955,3.955,0,0,1,2.588-.83,4.07,4.07,0,0,1,2.687.855,2.717,2.717,0,0,1,1.03,2.188H67.708a1.5,1.5,0,0,0-.581-1.179,2.175,2.175,0,0,0-1.463-.5,2.277,2.277,0,0,0-1.422.4,1.247,1.247,0,0,0-.513,1.035,1.014,1.014,0,0,0,.477.909,5.87,5.87,0,0,0,1.724.585,8.982,8.982,0,0,1,2.021.666,2.95,2.95,0,0,1,1.148.932,2.291,2.291,0,0,1,.373,1.327,2.489,2.489,0,0,1-1.044,2.093,4.38,4.38,0,0,1-2.709.787,4.9,4.9,0,0,1-2.07-.414,3.367,3.367,0,0,1-1.409-1.157,2.789,2.789,0,0,1-.509-1.607H63.4a1.724,1.724,0,0,0,.671,1.327,2.6,2.6,0,0,0,1.652.49,2.685,2.685,0,0,0,1.517-.383A1.175,1.175,0,0,0,67.807,37.352Zm5.644,2.581H71.786v-9.74h1.666Zm-1.8-12.324a.994.994,0,0,1,.248-.684.929.929,0,0,1,.737-.277.944.944,0,0,1,.737.277.984.984,0,0,1,.252.684.951.951,0,0,1-.252.675.961.961,0,0,1-.737.27.946.946,0,0,1-.737-.27.961.961,0,0,1-.248-.675Zm6.041,2.581.054,1.224a3.549,3.549,0,0,1,2.917-1.4q3.088,0,3.115,3.484v6.439H82.112V33.488a2.242,2.242,0,0,0-.481-1.557,1.93,1.93,0,0,0-1.475-.5,2.4,2.4,0,0,0-1.422.432,2.934,2.934,0,0,0-.954,1.134v6.94H76.112v-9.74Zm8.2,4.793a5.724,5.724,0,0,1,1.05-3.624,3.631,3.631,0,0,1,5.572-.086l.081-1.08H94.12v9.5A3.964,3.964,0,0,1,93,42.679a4.136,4.136,0,0,1-3.012,1.09,5.01,5.01,0,0,1-2.061-.45,3.549,3.549,0,0,1-1.539-1.233l.865-1a3.257,3.257,0,0,0,2.62,1.324,2.552,2.552,0,0,0,1.9-.684,2.615,2.615,0,0,0,.679-1.927v-.837a3.423,3.423,0,0,1-2.728,1.152,3.327,3.327,0,0,1-2.765-1.377,6.019,6.019,0,0,1-1.061-3.755Zm1.674.189a4.368,4.368,0,0,0,.675,2.588,2.194,2.194,0,0,0,1.891.941,2.439,2.439,0,0,0,2.314-1.432v-4.45a2.468,2.468,0,0,0-2.3-1.4,2.212,2.212,0,0,0-1.9.949,4.756,4.756,0,0,0-.684,2.8Zm14.184,4.76V31.481h-1.539V30.19h1.539v-.83a3.384,3.384,0,0,1,.932-2.539,3.613,3.613,0,0,1,2.633-.909,7.927,7.927,0,0,1,2.548.553l-.277,1.4a5.77,5.77,0,0,0-2.142-.45,2.1,2.1,0,0,0-1.544.481,1.986,1.986,0,0,0-.473,1.444v.846h1.989v1.291H103.43v8.451Zm6.94,0H107.02v-9.74h1.674Zm4.29-9.74.054,1.224a3.549,3.549,0,0,1,2.917-1.4q3.088,0,3.115,3.484v6.436H117.4V33.488a2.242,2.242,0,0,0-.481-1.557,1.93,1.93,0,0,0-1.475-.5,2.4,2.4,0,0,0-1.422.432,2.934,2.934,0,0,0-.954,1.134v6.94H111.4v-9.74Zm14.606,9.74a3.5,3.5,0,0,1-.234-1.026,3.716,3.716,0,0,1-2.773,1.207,3.438,3.438,0,0,1-2.363-.815,2.635,2.635,0,0,1-.922-2.066,2.753,2.753,0,0,1,1.157-2.363,5.453,5.453,0,0,1,3.254-.842h1.621v-.765a1.87,1.87,0,0,0-.519-1.392,2.1,2.1,0,0,0-1.539-.518,2.428,2.428,0,0,0-1.494.45,1.326,1.326,0,0,0-.6,1.09H121.5a2.3,2.3,0,0,1,.518-1.409,3.532,3.532,0,0,1,1.4-1.076,4.724,4.724,0,0,1,1.949-.4,3.85,3.85,0,0,1,2.637.842,3.037,3.037,0,0,1,.99,2.318v4.483a5.481,5.481,0,0,0,.342,2.133v.145Zm-2.765-1.269a2.927,2.927,0,0,0,1.485-.4,2.45,2.45,0,0,0,1.014-1.054v-2h-1.305q-3.06,0-3.06,1.791a1.516,1.516,0,0,0,.522,1.224,2.007,2.007,0,0,0,1.347.442Zm8.354-8.471.054,1.224a3.55,3.55,0,0,1,2.917-1.4q3.088,0,3.115,3.484v6.436H137.6V33.488a2.243,2.243,0,0,0-.481-1.557,1.93,1.93,0,0,0-1.475-.5,2.4,2.4,0,0,0-1.422.432,2.934,2.934,0,0,0-.954,1.134v6.94H131.6v-9.74Zm12.5,8.561a2.4,2.4,0,0,0,1.557-.54,1.9,1.9,0,0,0,.737-1.35h1.575a3.02,3.02,0,0,1-.576,1.594,3.794,3.794,0,0,1-1.418,1.207,4.091,4.091,0,0,1-1.877.45,4.013,4.013,0,0,1-3.165-1.327,5.288,5.288,0,0,1-1.174-3.632v-.277a5.863,5.863,0,0,1,.522-2.529,3.977,3.977,0,0,1,1.5-1.719,4.258,4.258,0,0,1,2.3-.612,3.907,3.907,0,0,1,2.723.981,3.5,3.5,0,0,1,1.157,2.548h-1.575a2.3,2.3,0,0,0-.715-1.553,2.226,2.226,0,0,0-1.589-.607,2.331,2.331,0,0,0-1.967.914,4.291,4.291,0,0,0-.7,2.642v.315a4.205,4.205,0,0,0,.693,2.593,2.342,2.342,0,0,0,1.988.905Zm7.554,1.179h-1.666v-9.74h1.666Zm-1.8-12.324a.994.994,0,0,1,.248-.684.929.929,0,0,1,.737-.277.944.944,0,0,1,.737.277.984.984,0,0,1,.252.684.951.951,0,0,1-.252.675.961.961,0,0,1-.737.27.946.946,0,0,1-.737-.27.961.961,0,0,1-.248-.675Zm8.506,12.508a4.256,4.256,0,0,1-3.226-1.3,4.828,4.828,0,0,1-1.237-3.484v-.306a5.845,5.845,0,0,1,.553-2.588,4.319,4.319,0,0,1,1.549-1.783,3.893,3.893,0,0,1,2.156-.645,3.648,3.648,0,0,1,2.95,1.251,5.418,5.418,0,0,1,1.054,3.583v.693h-6.6a3.462,3.462,0,0,0,.842,2.327,2.646,2.646,0,0,0,2.048.887,2.9,2.9,0,0,0,1.494-.36,3.754,3.754,0,0,0,1.071-.954l1.014.792A4.09,4.09,0,0,1,159.943,40.118Zm-.207-8.732a2.222,2.222,0,0,0-1.692.737,3.566,3.566,0,0,0-.846,2.057h4.879v-.126a3.172,3.172,0,0,0-.684-1.967,2.092,2.092,0,0,0-1.656-.7Zm10.64.306a4.99,4.99,0,0,0-.82-.063,2.195,2.195,0,0,0-2.222,1.391v6.914h-1.666v-9.74h1.621l.027,1.126a2.593,2.593,0,0,1,2.323-1.305,1.7,1.7,0,0,1,.737.126Zm.909,3.285a5.753,5.753,0,0,1,.562-2.575,4.2,4.2,0,0,1,1.567-1.764,4.264,4.264,0,0,1,2.291-.621,4.108,4.108,0,0,1,3.218,1.377,5.3,5.3,0,0,1,1.229,3.664v.117a5.807,5.807,0,0,1-.545,2.552,4.135,4.135,0,0,1-1.557,1.76,4.313,4.313,0,0,1-2.327.631,4.1,4.1,0,0,1-3.209-1.383,5.272,5.272,0,0,1-1.229-3.646Zm1.674.2a4.166,4.166,0,0,0,.751,2.6,2.547,2.547,0,0,0,4.028-.014,4.556,4.556,0,0,0,.748-2.786,4.16,4.16,0,0,0-.76-2.6,2.418,2.418,0,0,0-2.021-.995,2.391,2.391,0,0,0-1.989.981,4.522,4.522,0,0,0-.756,2.805ZM41.94,56H36.26v4.645h6.6v1.413H34.532V48.95h8.237v1.413H36.26v4.222h5.68Zm4.375-3.682.045,1.08a3.6,3.6,0,0,1,2.89-1.26A2.785,2.785,0,0,1,52.032,53.7,3.687,3.687,0,0,1,53.3,52.571a3.735,3.735,0,0,1,1.844-.432q3.205,0,3.259,3.394v6.525H56.731V55.629a2.236,2.236,0,0,0-.477-1.562,2.1,2.1,0,0,0-1.6-.518,2.212,2.212,0,0,0-1.539.553,2.246,2.246,0,0,0-.711,1.49v6.465H50.726V55.674a1.858,1.858,0,0,0-2.08-2.12,2.228,2.228,0,0,0-2.242,1.4v7.107H44.74v-9.74Zm16.4,9.74H61.051v-9.74h1.666Zm-1.8-12.324a.994.994,0,0,1,.248-.684.929.929,0,0,1,.737-.277.944.944,0,0,1,.737.277.984.984,0,0,1,.252.684.951.951,0,0,1-.252.675.961.961,0,0,1-.737.27.946.946,0,0,1-.737-.27.961.961,0,0,1-.248-.675Zm10.14,9.74a1.226,1.226,0,0,0-.509-1.049,4.9,4.9,0,0,0-1.774-.645,8.388,8.388,0,0,1-2.008-.645,2.858,2.858,0,0,1-1.1-.9,2.153,2.153,0,0,1-.356-1.243,2.527,2.527,0,0,1,1.014-2.028,3.955,3.955,0,0,1,2.588-.83,4.07,4.07,0,0,1,2.687.855,2.717,2.717,0,0,1,1.031,2.187H70.949A1.5,1.5,0,0,0,70.369,54a2.175,2.175,0,0,0-1.463-.5,2.277,2.277,0,0,0-1.422.4,1.247,1.247,0,0,0-.513,1.035,1.014,1.014,0,0,0,.478.909,5.87,5.87,0,0,0,1.724.585,8.982,8.982,0,0,1,2.021.666,2.95,2.95,0,0,1,1.148.932,2.291,2.291,0,0,1,.373,1.327,2.489,2.489,0,0,1-1.044,2.093,4.38,4.38,0,0,1-2.709.787,4.9,4.9,0,0,1-2.066-.411,3.367,3.367,0,0,1-1.409-1.157,2.788,2.788,0,0,1-.509-1.607h1.666a1.724,1.724,0,0,0,.671,1.327,2.6,2.6,0,0,0,1.652.49,2.685,2.685,0,0,0,1.517-.383,1.175,1.175,0,0,0,.571-1.019ZM76.7,62.057H75.031v-9.74H76.7ZM74.9,49.733a.994.994,0,0,1,.248-.684.929.929,0,0,1,.737-.277.944.944,0,0,1,.737.277.984.984,0,0,1,.252.684.951.951,0,0,1-.252.675.961.961,0,0,1-.737.27.946.946,0,0,1-.737-.27.961.961,0,0,1-.248-.675ZM78.92,57.1a5.753,5.753,0,0,1,.562-2.575,4.2,4.2,0,0,1,1.567-1.764,4.264,4.264,0,0,1,2.291-.621,4.108,4.108,0,0,1,3.218,1.377,5.3,5.3,0,0,1,1.229,3.664v.117a5.807,5.807,0,0,1-.545,2.552,4.135,4.135,0,0,1-1.557,1.76,4.313,4.313,0,0,1-2.327.631,4.1,4.1,0,0,1-3.21-1.379,5.272,5.272,0,0,1-1.229-3.646Zm1.674.2a4.167,4.167,0,0,0,.751,2.6,2.547,2.547,0,0,0,4.028-.014,4.556,4.556,0,0,0,.748-2.786,4.16,4.16,0,0,0-.76-2.6,2.418,2.418,0,0,0-2.021-.995,2.391,2.391,0,0,0-1.989.981,4.522,4.522,0,0,0-.757,2.809Zm3.5-9.047h2.016L83.7,50.895H82.36Zm7.355,4.069.054,1.224a3.549,3.549,0,0,1,2.917-1.4q3.088,0,3.115,3.484v6.436H95.872V55.612a2.242,2.242,0,0,0-.481-1.557,1.93,1.93,0,0,0-1.475-.5,2.4,2.4,0,0,0-1.422.432,2.934,2.934,0,0,0-.954,1.134v6.94H89.876v-9.74Zm12.756,4.793a5.706,5.706,0,0,1,1.062-3.605,3.614,3.614,0,0,1,5.491-.194V48.23h1.666V62.057H110.9l-.081-1.044a3.391,3.391,0,0,1-2.782,1.224,3.327,3.327,0,0,1-2.759-1.383,5.771,5.771,0,0,1-1.067-3.619Zm1.666.189a4.321,4.321,0,0,0,.684,2.593,2.212,2.212,0,0,0,1.891.937,2.43,2.43,0,0,0,2.314-1.422V54.928a2.448,2.448,0,0,0-2.3-1.377,2.223,2.223,0,0,0-1.908.945,4.757,4.757,0,0,0-.687,2.8Zm13.182,4.942a4.256,4.256,0,0,1-3.226-1.3,4.828,4.828,0,0,1-1.243-3.479v-.306a5.845,5.845,0,0,1,.553-2.588,4.319,4.319,0,0,1,1.549-1.783,3.893,3.893,0,0,1,2.156-.645,3.648,3.648,0,0,1,2.95,1.251,5.417,5.417,0,0,1,1.054,3.583v.693h-6.6a3.462,3.462,0,0,0,.842,2.327,2.646,2.646,0,0,0,2.048.887,2.9,2.9,0,0,0,1.494-.36,3.754,3.754,0,0,0,1.071-.954l1.014.792a4.09,4.09,0,0,1-3.668,1.884Zm-.207-8.732a2.222,2.222,0,0,0-1.692.737,3.567,3.567,0,0,0-.846,2.057h4.878v-.126a3.172,3.172,0,0,0-.684-1.967,2.092,2.092,0,0,0-1.66-.7Zm18.742,3.79a5.792,5.792,0,0,1-1.026,3.588,3.279,3.279,0,0,1-2.754,1.355,3.4,3.4,0,0,1-2.858-1.305l-.086,1.121h-1.53V48.23H131v5.162a3.377,3.377,0,0,1,2.782-1.251,3.3,3.3,0,0,1,2.786,1.341,5.965,5.965,0,0,1,1.014,3.672Zm-1.666-.189a4.5,4.5,0,0,0-.657-2.629,2.175,2.175,0,0,0-1.891-.927,2.445,2.445,0,0,0-2.367,1.53v4.208a2.514,2.514,0,0,0,2.386,1.53,2.163,2.163,0,0,0,1.863-.927,4.786,4.786,0,0,0,.663-2.788Zm3.319-.009a5.753,5.753,0,0,1,.562-2.575,4.2,4.2,0,0,1,1.567-1.764,4.264,4.264,0,0,1,2.291-.621,4.108,4.108,0,0,1,3.218,1.377,5.3,5.3,0,0,1,1.229,3.664V57.3a5.807,5.807,0,0,1-.545,2.552,4.135,4.135,0,0,1-1.557,1.76,4.313,4.313,0,0,1-2.327.631,4.1,4.1,0,0,1-3.209-1.377,5.272,5.272,0,0,1-1.229-3.646Zm1.674.2a4.167,4.167,0,0,0,.751,2.6,2.547,2.547,0,0,0,4.028-.014,4.557,4.557,0,0,0,.748-2.786,4.16,4.16,0,0,0-.76-2.6,2.418,2.418,0,0,0-2.021-.995,2.391,2.391,0,0,0-1.989.981,4.522,4.522,0,0,0-.76,2.805Zm10.856-4.978.054,1.224a3.55,3.55,0,0,1,2.917-1.4q3.088,0,3.115,3.484v6.432h-1.666V55.612a2.243,2.243,0,0,0-.481-1.557,1.93,1.93,0,0,0-1.475-.5,2.4,2.4,0,0,0-1.422.432,2.934,2.934,0,0,0-.954,1.134v6.94H150.2v-9.74ZM159.93,57.1a5.753,5.753,0,0,1,.562-2.575,4.2,4.2,0,0,1,1.567-1.764,4.264,4.264,0,0,1,2.291-.621,4.108,4.108,0,0,1,3.218,1.377,5.3,5.3,0,0,1,1.229,3.664V57.3a5.807,5.807,0,0,1-.545,2.552,4.135,4.135,0,0,1-1.557,1.76,4.313,4.313,0,0,1-2.327.631,4.1,4.1,0,0,1-3.209-1.377,5.272,5.272,0,0,1-1.229-3.646Zm1.674.2a4.167,4.167,0,0,0,.751,2.6,2.547,2.547,0,0,0,4.028-.014,4.556,4.556,0,0,0,.748-2.786,4.16,4.16,0,0,0-.76-2.6,2.418,2.418,0,0,0-2.021-.995,2.391,2.391,0,0,0-1.989.981,4.522,4.522,0,0,0-.757,2.8Zm14.953,2.176a1.226,1.226,0,0,0-.509-1.049,4.9,4.9,0,0,0-1.774-.645,8.388,8.388,0,0,1-2.008-.645,2.857,2.857,0,0,1-1.1-.9,2.153,2.153,0,0,1-.356-1.243,2.527,2.527,0,0,1,1.014-2.028,3.955,3.955,0,0,1,2.588-.83,4.07,4.07,0,0,1,2.687.855,2.717,2.717,0,0,1,1.031,2.187h-1.674A1.5,1.5,0,0,0,175.878,54a2.175,2.175,0,0,0-1.463-.5,2.277,2.277,0,0,0-1.422.4,1.247,1.247,0,0,0-.513,1.035,1.014,1.014,0,0,0,.478.909,5.87,5.87,0,0,0,1.724.585,8.982,8.982,0,0,1,2.021.666,2.95,2.95,0,0,1,1.148.932,2.291,2.291,0,0,1,.373,1.327,2.489,2.489,0,0,1-1.044,2.093,4.38,4.38,0,0,1-2.709.787,4.905,4.905,0,0,1-2.07-.414,3.367,3.367,0,0,1-1.409-1.157,2.788,2.788,0,0,1-.509-1.607h1.666a1.724,1.724,0,0,0,.671,1.327,2.6,2.6,0,0,0,1.652.49,2.685,2.685,0,0,0,1.517-.383,1.175,1.175,0,0,0,.57-1.019Z" transform="translate(777.483 455.099)" fill="#344154"/>
    </g>
  </g>
</svg>
