<svg xmlns="http://www.w3.org/2000/svg" xmlns:xlink="http://www.w3.org/1999/xlink" width="113" height="113" viewBox="0 0 113 113">
  <defs>
    <filter id="Trazado_896985" x="0" y="0" width="113" height="113" filterUnits="userSpaceOnUse">
      <feOffset dy="3" input="SourceAlpha"/>
      <feGaussianBlur stdDeviation="3" result="blur"/>
      <feFlood flood-opacity="0.161"/>
      <feComposite operator="in" in2="blur"/>
      <feComposite in="SourceGraphic"/>
    </filter>
  </defs>
  <g id="Grupo_1118505" data-name="Grupo 1118505" transform="translate(-1006 -20193)">
    <g id="Grupo_1118482" data-name="Grupo 1118482" transform="translate(425 384)">
      <g id="Grupo_1118452" data-name="Grupo 1118452" transform="translate(-10 16963)">
        <g id="Grupo_1118440" data-name="Grupo 1118440" transform="translate(351.5 683)">
          <g id="Grupo_1111318" data-name="Grupo 1111318" transform="translate(-92.281 -1683)">
            <g id="Grupo_1109826" data-name="Grupo 1109826" transform="translate(340.781 3852)">
              <g id="Grupo_1098742" data-name="Grupo 1098742">
                <g transform="matrix(1, 0, 0, 1, -9, -6)" filter="url(#Trazado_896985)">
                  <g id="Trazado_896985-2" data-name="Trazado 896985" transform="translate(9 6)" fill="#e2dacc" opacity="0.859">
                    <path d="M 47.49993515014648 93.5 C 41.28932189941406 93.5 35.26528167724609 92.28397369384766 29.59514808654785 89.88571929931641 C 24.1176815032959 87.56894683837891 19.1981086730957 84.25197601318359 14.97306823730469 80.02693176269531 C 10.74802875518799 75.80189514160156 7.431055068969727 70.88231658935547 5.11428165435791 65.40485382080078 C 2.716028451919556 59.73471832275391 1.500001788139343 53.71067810058594 1.500001788139343 47.50006484985352 C 1.500001788139343 41.28932189941406 2.716028451919556 35.26528167724609 5.11428165435791 29.59514617919922 C 7.431055068969727 24.11767959594727 10.74802875518799 19.19810676574707 14.97306823730469 14.97306632995605 C 19.1981086730957 10.74802684783936 24.1176815032959 7.431053161621094 29.59514808654785 5.114280223846436 C 35.26528167724609 2.716026782989502 41.28932189941406 1.5 47.49993515014648 1.5 C 53.71054840087891 1.5 59.73458862304688 2.716026782989502 65.40472412109375 5.114280223846436 C 70.88218688964844 7.431053161621094 75.80176544189453 10.74802684783936 80.02680206298828 14.97306632995605 C 84.25183868408203 19.19810676574707 87.56881713867188 24.11767959594727 89.88558959960938 29.59514617919922 C 92.28384399414062 35.26528167724609 93.49987030029297 41.28932189941406 93.49987030029297 47.49993515014648 C 93.49987030029297 53.71067810058594 92.28384399414062 59.73471832275391 89.88558959960938 65.40485382080078 C 87.56881713867188 70.88231658935547 84.25183868408203 75.80189514160156 80.02680206298828 80.02693176269531 C 75.80176544189453 84.25197601318359 70.88218688964844 87.56894683837891 65.40472412109375 89.88571929931641 C 59.73458862304688 92.28397369384766 53.71054840087891 93.5 47.49993515014648 93.5 Z" stroke="none"/>
                    <path d="M 47.49993515014648 3 C 41.49116516113281 3 35.66371917724609 4.176155090332031 30.17947387695312 6.495796203613281 C 24.88081359863281 8.7369384765625 20.12149047851562 11.94596862792969 16.03372192382812 16.03372192382812 C 11.94596862792969 20.12149047851562 8.7369384765625 24.88081359863281 6.495796203613281 30.17947387695312 C 4.1761474609375 35.66372299194336 3 41.49116897583008 3 47.50006103515625 C 3 53.50883102416992 4.1761474609375 59.33627700805664 6.495796203613281 64.82052612304688 C 8.7369384765625 70.11918640136719 11.94596862792969 74.87850952148438 16.03372192382812 78.96627807617188 C 20.12149047851562 83.05403137207031 24.88081359863281 86.2630615234375 30.17947387695312 88.50419616699219 C 35.66371917724609 90.82384490966797 41.49116516113281 92 47.49993515014648 92 C 53.50870513916016 92 59.33615112304688 90.82384490966797 64.82039642333984 88.50419616699219 C 70.11905670166016 86.2630615234375 74.87837982177734 83.05403137207031 78.96614837646484 78.96627807617188 C 83.05390167236328 74.87850952148438 86.26293182373047 70.11918640136719 88.50407409667969 64.82052612304688 C 90.82372283935547 59.33627700805664 91.99987030029297 53.50883102416992 91.99987030029297 47.49993896484375 C 91.99987030029297 41.49116897583008 90.82372283935547 35.66372299194336 88.50407409667969 30.17947387695312 C 86.26293182373047 24.88081359863281 83.05390167236328 20.12149047851562 78.96614837646484 16.03372192382812 C 74.87837982177734 11.94596862792969 70.11905670166016 8.7369384765625 64.82039642333984 6.495796203613281 C 59.33615112304688 4.176155090332031 53.50870513916016 3 47.49993515014648 3 M 47.49993515014648 0 C 73.73342895507812 0 94.99987030029297 21.26644897460938 94.99987030029297 47.49993896484375 L 94.99987030029297 47.50006103515625 C 94.99987030029297 73.73355102539062 73.73342895507812 95 47.49993515014648 95 C 21.26644134521484 95 0 73.73355102539062 0 47.50006103515625 L 0 47.49993896484375 C 0 21.26644897460938 21.26644134521484 0 47.49993515014648 0 Z" stroke="none" fill="#fff"/>
                  </g>
                </g>
                <g id="Rectángulo_400907" data-name="Rectángulo 400907" transform="translate(0 0)" fill="none" stroke="#fff" stroke-width="3">
                  <rect width="95" height="95" rx="47.5" stroke="none"/>
                  <rect x="1.5" y="1.5" width="92" height="92" rx="46" fill="none"/>
                </g>
              </g>
            </g>
          </g>
        </g>
      </g>
    </g>
    <g id="capital" transform="translate(1035.414 20219)">
      <g id="Grupo_1118503" data-name="Grupo 1118503" transform="translate(1.777 1.842)">
        <g id="Grupo_1118486" data-name="Grupo 1118486" transform="translate(15.16 38.742)">
          <path id="Trazado_911645" data-name="Trazado 911645" d="M20,48h3.369V59.791H20Z" transform="translate(-20 -48)" fill="#ff826e"/>
        </g>
        <g id="Grupo_1118487" data-name="Grupo 1118487" transform="translate(1.684 43.795)">
          <path id="Trazado_911646" data-name="Trazado 911646" d="M4,54H7.369v6.738H4Z" transform="translate(-4 -54)" fill="#ff826e"/>
        </g>
        <g id="Grupo_1118488" data-name="Grupo 1118488" transform="translate(8.422 37.058)">
          <path id="Trazado_911647" data-name="Trazado 911647" d="M12,46h3.369V59.476H12Z" transform="translate(-12 -46)" fill="#ff826e"/>
        </g>
        <g id="Grupo_1118489" data-name="Grupo 1118489" transform="translate(21.898 33.689)">
          <path id="Trazado_911648" data-name="Trazado 911648" d="M28,42h3.369V58.844H28Z" transform="translate(-28 -42)" fill="#ff826e"/>
        </g>
        <g id="Grupo_1118490" data-name="Grupo 1118490" transform="translate(28.635 45.48)">
          <path id="Trazado_911649" data-name="Trazado 911649" d="M54.529,56a1.689,1.689,0,0,1,1.684,1.684v1.684a1.689,1.689,0,0,1-1.684,1.684H37.684A1.689,1.689,0,0,1,36,59.369V57.684A1.689,1.689,0,0,1,37.684,56H54.529Z" transform="translate(-36 -56)" fill="#ffc729"/>
        </g>
        <g id="Grupo_1118491" data-name="Grupo 1118491" transform="translate(28.635 35.373)">
          <path id="Trazado_911650" data-name="Trazado 911650" d="M54.529,44a1.689,1.689,0,0,1,1.684,1.684v1.684a1.689,1.689,0,0,1-1.684,1.684H37.684A1.689,1.689,0,0,1,36,47.369V45.684A1.689,1.689,0,0,1,37.684,44H54.529Z" transform="translate(-36 -44)" fill="#ffc729"/>
        </g>
        <g id="Grupo_1118492" data-name="Grupo 1118492" transform="translate(28.635 40.427)">
          <path id="Trazado_911651" data-name="Trazado 911651" d="M54.529,50a1.689,1.689,0,0,1,1.684,1.684v1.684a1.689,1.689,0,0,1-1.684,1.684H37.684A1.689,1.689,0,0,1,36,53.369V51.684A1.689,1.689,0,0,1,37.684,50H54.529Z" transform="translate(-36 -50)" fill="#fcd770"/>
        </g>
        <g id="Grupo_1118493" data-name="Grupo 1118493" transform="translate(28.635 30.32)">
          <path id="Trazado_911652" data-name="Trazado 911652" d="M52.844,38h1.684a1.689,1.689,0,0,1,1.684,1.684v1.684a1.689,1.689,0,0,1-1.684,1.684H37.684A1.689,1.689,0,0,1,36,41.369V39.684A1.689,1.689,0,0,1,37.684,38h15.16Z" transform="translate(-36 -38)" fill="#fcd770"/>
        </g>
        <g id="Grupo_1118494" data-name="Grupo 1118494" transform="translate(0 1.684)">
          <path id="Trazado_911653" data-name="Trazado 911653" d="M8.738,9.053H7.053A5.057,5.057,0,0,1,2,4H3.684A5.057,5.057,0,0,1,8.738,9.053Z" transform="translate(-2 -4)" fill="#a0d468"/>
        </g>
        <g id="Grupo_1118495" data-name="Grupo 1118495" transform="translate(16.844 0)">
          <path id="Trazado_911654" data-name="Trazado 911654" d="M28.738,2h3.369a6.729,6.729,0,0,1-6.738,6.738H22A6.729,6.729,0,0,1,28.738,2Z" transform="translate(-22 -2)" fill="#a0d468"/>
        </g>
        <g id="Grupo_1118496" data-name="Grupo 1118496" transform="translate(16.844 11.791)">
          <path id="Trazado_911655" data-name="Trazado 911655" d="M25.369,16h3.369a3.364,3.364,0,0,1-3.369,3.369H22A3.364,3.364,0,0,1,25.369,16Z" transform="translate(-22 -16)" fill="#a0d468"/>
        </g>
        <g id="Grupo_1118497" data-name="Grupo 1118497" transform="translate(0 11.791)">
          <path id="Trazado_911656" data-name="Trazado 911656" d="M8.738,21.053H7.053A5.057,5.057,0,0,1,2,16H3.684A5.057,5.057,0,0,1,8.738,21.053Z" transform="translate(-2 -16)" fill="#b4dd7f"/>
        </g>
        <g id="Grupo_1118498" data-name="Grupo 1118498" transform="translate(6.738 10.107)">
          <path id="Trazado_911657" data-name="Trazado 911657" d="M13.369,14h3.369a3.364,3.364,0,0,1-3.369,3.369H10A3.364,3.364,0,0,1,13.369,14Z" transform="translate(-10 -14)" fill="#b4dd7f"/>
        </g>
        <g id="Grupo_1118499" data-name="Grupo 1118499" transform="translate(10.107 16.844)">
          <path id="Trazado_911658" data-name="Trazado 911658" d="M20.738,25.369v1.684H17.369A3.368,3.368,0,0,1,14,23.684V22h3.369A3.368,3.368,0,0,1,20.738,25.369Z" transform="translate(-14 -22)" fill="#b4dd7f"/>
        </g>
        <g id="Grupo_1118500" data-name="Grupo 1118500" transform="translate(26.951 6.738)">
          <circle id="Elipse_13529" data-name="Elipse 13529" cx="11.791" cy="11.791" r="11.791" fill="#ffc729"/>
        </g>
        <g id="Grupo_1118501" data-name="Grupo 1118501" transform="translate(30.32 10.107)">
          <circle id="Elipse_13530" data-name="Elipse 13530" cx="8.422" cy="8.422" r="8.422" fill="#fcd770"/>
        </g>
        <g id="Grupo_1118502" data-name="Grupo 1118502" transform="translate(0 16.002)">
          <path id="Trazado_911659" data-name="Trazado 911659" d="M34.847,21l-1.735,6.072L31.9,31.309l-.421,1.482L28.53,29.843l-9.686,9.686-4.211-4.211L4.527,45.424,2,42.9,8.738,36.16l5.9-5.9,4.211,4.211L26,27.317l-2.948-2.948,5.938-1.693,3.537-1.019Z" transform="translate(-2 -21)" fill="#ff826e"/>
        </g>
      </g>
      <g id="Grupo_1118504" data-name="Grupo 1118504" transform="translate(0.586 1)">
        <path id="Trazado_911660" data-name="Trazado 911660" d="M47.527,25.422a.843.843,0,0,1-.842-.842H45a2.523,2.523,0,0,0,1.684,2.372v1.839h1.684V26.952a2.521,2.521,0,0,0-.842-4.9.842.842,0,1,1,.842-.842h1.684a2.523,2.523,0,0,0-1.684-2.372V17H46.684v1.839a2.521,2.521,0,0,0,.842,4.9.842.842,0,1,1,0,1.684Z" transform="translate(-7.594 -3.524)"/>
        <path id="Trazado_911661" data-name="Trazado 911661" d="M48.941,31.32H46.8A12.622,12.622,0,1,0,28,18.86L21.224,20.8l3.365,3.365-5.125,5.125V17.844H21.99A4.216,4.216,0,0,0,26.2,13.633v-.842H21.99a4.168,4.168,0,0,0-2.527.864V9.422H21.99a7.589,7.589,0,0,0,7.58-7.58V1H25.359a7.589,7.589,0,0,0-7.58,7.58V18.709a4.168,4.168,0,0,0-2.527-.864H11.041v2.527a4.216,4.216,0,0,0,4.211,4.211h2.527v4.7L14.41,25.918,9.357,30.971V16.16h2.527a4.216,4.216,0,0,0,4.211-4.211v-.842H11.884a4.168,4.168,0,0,0-2.527.864V8.58a5.9,5.9,0,0,0-5.9-5.9H.935v.842a5.9,5.9,0,0,0,5.9,5.9h.842v5.147a5.873,5.873,0,0,0-4.211-1.778H.935v.842a5.9,5.9,0,0,0,5.9,5.9h.842V32.656L.586,39.742,4.3,43.46l5.053-5.053V51.533H7.672V44.8H2.619v8.422H27.886V34.689H22.832V51.533H21.148V39.742H16.095V51.533H14.41V38.058h-4.7l4.7-4.7,4.211,4.211,9.686-9.686,3.365,3.365.424-1.481a12.667,12.667,0,0,0,2.151,1.558H32.1a2.53,2.53,0,0,0-2.527,2.527v1.684a2.51,2.51,0,0,0,.657,1.684A2.506,2.506,0,0,0,29.57,38.9v1.684a2.51,2.51,0,0,0,.657,1.684,2.506,2.506,0,0,0-.657,1.684v1.684a2.51,2.51,0,0,0,.657,1.684,2.506,2.506,0,0,0-.657,1.684v1.684A2.53,2.53,0,0,0,32.1,53.218H48.941a2.53,2.53,0,0,0,2.527-2.527V49.007a2.51,2.51,0,0,0-.657-1.684,2.506,2.506,0,0,0,.657-1.684V43.953a2.51,2.51,0,0,0-.657-1.684,2.506,2.506,0,0,0,.657-1.684V38.9a2.51,2.51,0,0,0-.657-1.684,2.506,2.506,0,0,0,.657-1.684V33.847a2.53,2.53,0,0,0-2.527-2.527ZM21.99,14.476h2.383A2.532,2.532,0,0,1,21.99,16.16H19.608A2.532,2.532,0,0,1,21.99,14.476ZM25.359,2.684h2.467A5.9,5.9,0,0,1,21.99,7.738H19.523A5.9,5.9,0,0,1,25.359,2.684ZM15.252,22.9a2.53,2.53,0,0,1-2.527-2.527v-.842h2.527a2.53,2.53,0,0,1,2.527,2.527V22.9ZM11.884,12.791h2.383a2.532,2.532,0,0,1-2.383,1.684H9.5A2.532,2.532,0,0,1,11.884,12.791ZM6.83,7.738A4.218,4.218,0,0,1,2.7,4.369h.757A4.218,4.218,0,0,1,7.587,7.738Zm0,10.107A4.218,4.218,0,0,1,2.7,14.476h.757a4.218,4.218,0,0,1,4.126,3.369ZM5.988,51.533H4.3V46.48H5.988Zm18.529-15.16H26.2v15.16H24.517Zm-6.738,5.053h1.684V51.533H17.779Zm-5.053-1.684V51.533H11.041V39.742ZM28.307,25.5l-9.686,9.686L14.41,30.971,4.3,41.078,2.968,39.742,14.41,28.3l4.211,4.211,8.35-8.35L24.44,21.63l8.957-2.56-2.559,8.957Zm5.309-8.24a7.577,7.577,0,1,1,6.9,10.695,7.6,7.6,0,0,1-6.726-4.134l2.057-7.2Zm-.994,10.66L33.17,26a9.26,9.26,0,1,0,7.349-14.89,9.2,9.2,0,0,0-8.9,6.719l-1.848.528a10.972,10.972,0,1,1,2.846,9.563Zm-1.367,5.93A.843.843,0,0,1,32.1,33h.842v1.684h1.684V33h1.684v1.684h1.684V33h1.684v1.684h1.684V33h1.684v1.684H44.73V33h1.684v1.684H48.1V33h.842a.843.843,0,0,1,.842.842v1.684a.843.843,0,0,1-.842.842H32.1a.843.843,0,0,1-.842-.842ZM49.783,38.9v1.684a.843.843,0,0,1-.842.842H32.1a.843.843,0,0,1-.842-.842V38.9a.843.843,0,0,1,.842-.842h.842v1.684h1.684V38.058h1.684v1.684h1.684V38.058h1.684v1.684h1.684V38.058h1.684v1.684H44.73V38.058h1.684v1.684H48.1V38.058h.842A.843.843,0,0,1,49.783,38.9Zm0,5.053v1.684a.843.843,0,0,1-.842.842H32.1a.843.843,0,0,1-.842-.842V43.953a.843.843,0,0,1,.842-.842h.842V44.8h1.684V43.111h1.684V44.8h1.684V43.111h1.684V44.8h1.684V43.111h1.684V44.8H44.73V43.111h1.684V44.8H48.1V43.111h.842A.843.843,0,0,1,49.783,43.953Zm0,6.738a.843.843,0,0,1-.842.842H32.1a.843.843,0,0,1-.842-.842V49.007a.843.843,0,0,1,.842-.842h.842v1.684h1.684V48.164h1.684v1.684h1.684V48.164h1.684v1.684h1.684V48.164h1.684v1.684H44.73V48.164h1.684v1.684H48.1V48.164h.842a.843.843,0,0,1,.842.842Z" transform="translate(-0.586 -1)"/>
      </g>
    </g>
  </g>
</svg>
