<svg xmlns="http://www.w3.org/2000/svg" width="610" height="104" viewBox="0 0 610 104">
  <g id="Grupo_1118420" data-name="Grupo 1118420" transform="translate(-495 -23669)">
    <g id="Grupo_1118419" data-name="Grupo 1118419" transform="translate(-138 7768)">
      <rect id="Rectángulo_406818" data-name="Rectángulo 406818" width="610" height="104" rx="12" transform="translate(633 15901)" fill="#feead4"/>
    </g>
    <path id="Trazado_911739" data-name="Trazado 911739" d="M5.922,0l.086-.383A.884.884,0,0,0,6.7-.742a2.042,2.042,0,0,0,.227-1.125q0-.3-.023-.664L6.844-3.539H3.406l-.43.766a6.394,6.394,0,0,0-.445.926,2.037,2.037,0,0,0-.141.684q0,.656.789.781L3.094,0H-.1l.086-.383A.964.964,0,0,0,.441-.574,2.378,2.378,0,0,0,.9-1.059a12.483,12.483,0,0,0,.68-1.074l5.008-8.656h1.18l.563,8.711a4.65,4.65,0,0,0,.141.965A1.146,1.146,0,0,0,8.746-.6a.9.9,0,0,0,.512.215L9.172,0ZM3.758-4.219H6.813L6.68-6.734q-.023-.516-.039-1.289T6.625-9.141H6.539ZM13.57-5.484A6.293,6.293,0,0,1,15-7.074a2.421,2.421,0,0,1,1.438-.52,1.471,1.471,0,0,1,1.141.426,1.758,1.758,0,0,1,.391,1.23v.109a.948.948,0,0,1-.008.117A5.717,5.717,0,0,1,19.3-7.129a2.4,2.4,0,0,1,1.387-.465A1.452,1.452,0,0,1,21.8-7.18a1.63,1.63,0,0,1,.391,1.164,6.238,6.238,0,0,1-.227,1.4L21.453-2.57a5.873,5.873,0,0,0-.211,1.2.787.787,0,0,0,.1.453.368.368,0,0,0,.32.141.869.869,0,0,0,.5-.191,5.49,5.49,0,0,0,.75-.73l.445.438A7.389,7.389,0,0,1,22.188-.211a2,2,0,0,1-1.141.336,1.007,1.007,0,0,1-.812-.363,1.391,1.391,0,0,1-.3-.926,6.463,6.463,0,0,1,.258-1.492l.344-1.352q.188-.734.246-1.086a3.628,3.628,0,0,0,.059-.57,1.31,1.31,0,0,0-.18-.777.687.687,0,0,0-.586-.238,1.3,1.3,0,0,0-.7.246,3.562,3.562,0,0,0-.789.766A6.35,6.35,0,0,0,17.9-4.645a4.923,4.923,0,0,0-.418,1.23L16.773,0H15.422l.9-3.969q.164-.727.223-1.074a3.675,3.675,0,0,0,.059-.6,1.257,1.257,0,0,0-.2-.8.764.764,0,0,0-.621-.238,1.283,1.283,0,0,0-.676.246,3.586,3.586,0,0,0-.809.789A5.727,5.727,0,0,0,13.625-4.6a5.748,5.748,0,0,0-.406,1.219L12.477,0H11.125l1.141-4.953a5.6,5.6,0,0,0,.172-1.156.787.787,0,0,0-.1-.453.368.368,0,0,0-.32-.141.874.874,0,0,0-.512.2,5.607,5.607,0,0,0-.738.723l-.445-.437A7.624,7.624,0,0,1,11.5-7.27a1.919,1.919,0,0,1,1.09-.332.982.982,0,0,1,.777.324,1.236,1.236,0,0,1,.285.848,2.632,2.632,0,0,1-.18.914ZM26.953.133a2.515,2.515,0,0,1-1.879-.68A2.671,2.671,0,0,1,24.406-2.5a6.588,6.588,0,0,1,.188-1.445,5.411,5.411,0,0,1,.813-1.937,3.916,3.916,0,0,1,1.406-1.27,3.871,3.871,0,0,1,1.836-.441,2.521,2.521,0,0,1,1.906.684,2.715,2.715,0,0,1,.656,1.957,6.62,6.62,0,0,1-.316,1.938,5.308,5.308,0,0,1-.867,1.734A3.568,3.568,0,0,1,28.711-.223,4.131,4.131,0,0,1,26.953.133Zm-1.18-2.3a1.9,1.9,0,0,0,.355,1.27,1.345,1.345,0,0,0,1.074.41,1.761,1.761,0,0,0,1.359-.687A4.943,4.943,0,0,0,29.5-3.1a8.276,8.276,0,0,0,.344-2.176,2.059,2.059,0,0,0-.328-1.27,1.21,1.21,0,0,0-1.023-.426,1.846,1.846,0,0,0-1.418.68,4.814,4.814,0,0,0-.953,1.945A8.426,8.426,0,0,0,25.773-2.164Zm9.766-3.422a6.511,6.511,0,0,1,1.473-1.523,2.515,2.515,0,0,1,1.434-.484,4.445,4.445,0,0,1,.953.086l-.375,1.75h-.8a1.808,1.808,0,0,0-.133-.508.563.563,0,0,0-.2-.25.569.569,0,0,0-.3-.07,1.067,1.067,0,0,0-.613.242,4.2,4.2,0,0,0-.746.758,6.006,6.006,0,0,0-.66.992,5.079,5.079,0,0,0-.41,1.211L34.414,0H33.063L34.2-4.953a7.314,7.314,0,0,0,.141-.727,3.687,3.687,0,0,0,.031-.43.787.787,0,0,0-.1-.453.368.368,0,0,0-.32-.141.874.874,0,0,0-.512.2,5.607,5.607,0,0,0-.738.723l-.445-.437a7.51,7.51,0,0,1,1.2-1.066,1.916,1.916,0,0,1,1.07-.316.982.982,0,0,1,.777.324,1.236,1.236,0,0,1,.285.848,2.378,2.378,0,0,1-.148.8Zm9.57,4.109A5.646,5.646,0,0,1,43.8-.266a2.458,2.458,0,0,1-1.316.391,1.45,1.45,0,0,1-1.633-1.648,4.923,4.923,0,0,1,.133-1.1l.922-4.055H40.594l.117-.539a3.154,3.154,0,0,0,.7-.07,1.277,1.277,0,0,0,.4-.172,1.1,1.1,0,0,0,.293-.312,2.919,2.919,0,0,0,.258-.52q.125-.316.375-1.105h1.078l-.43,1.93h2.375l-.172.789H43.211l-.7,3.031q-.2.883-.258,1.27a4.659,4.659,0,0,0-.055.621q0,.969.8.969a1.319,1.319,0,0,0,.73-.262,4.9,4.9,0,0,0,.918-.895Zm5.3-9.055-.359,1.516H48.664l.359-1.516ZM47.891-5.266a5.771,5.771,0,0,0,.18-1.172.563.563,0,0,0-.168-.477,1.267,1.267,0,0,0-.66-.141l.086-.414,1.906-.07H49.7L48.57-2.523A5.792,5.792,0,0,0,48.4-1.367a.787.787,0,0,0,.1.453.368.368,0,0,0,.32.141.869.869,0,0,0,.5-.191,5.49,5.49,0,0,0,.75-.73l.445.438A6.817,6.817,0,0,1,49.273-.164,2.023,2.023,0,0,1,48.2.125a1,1,0,0,1-.812-.371,1.447,1.447,0,0,1-.3-.949A6.84,6.84,0,0,1,47.3-2.711ZM57.539-2.2,57.063,0H51.406l-.148-.383L55.531-5.3q.906-1.039,1.328-1.477l-.047-.055H54.984a2.319,2.319,0,0,0-.594.055,1.22,1.22,0,0,0-.375.191,2.2,2.2,0,0,0-.4.406,5.142,5.142,0,0,0-.48.77h-.7L52.9-7.469h5.555l.148.391L54.875-2.8Q53.789-1.555,52.992-.687l.047.055H54.8a3.85,3.85,0,0,0,.719-.051,1.075,1.075,0,0,0,.438-.191,1.862,1.862,0,0,0,.387-.426,7.1,7.1,0,0,0,.5-.895Zm7.969-4.891.719-.516.5.125L65.578-2.523a5.5,5.5,0,0,0-.172,1.156.787.787,0,0,0,.1.453.368.368,0,0,0,.32.141.869.869,0,0,0,.5-.191,5.49,5.49,0,0,0,.75-.73l.445.438a6.8,6.8,0,0,1-1.2,1.066A1.96,1.96,0,0,1,65.25.125a.991.991,0,0,1-.773-.32,1.223,1.223,0,0,1-.289-.852,2.633,2.633,0,0,1,.18-.914l-.1-.031a6.889,6.889,0,0,1-1.422,1.6,2.32,2.32,0,0,1-1.422.508A1.552,1.552,0,0,1,60.09-.531a3.046,3.046,0,0,1-.473-1.82,6.524,6.524,0,0,1,.527-2.582,4.776,4.776,0,0,1,1.449-1.953A3.271,3.271,0,0,1,63.648-7.6a3.809,3.809,0,0,1,.949.113A3.318,3.318,0,0,1,65.508-7.086ZM64.82-4.758a4.931,4.931,0,0,0,.094-.555q.023-.234.023-.508A1.277,1.277,0,0,0,64.68-6.7a1.145,1.145,0,0,0-.875-.281,1.985,1.985,0,0,0-1.445.648,4.377,4.377,0,0,0-1,1.738A6.913,6.913,0,0,0,61-2.422a2.585,2.585,0,0,0,.223,1.215.784.784,0,0,0,.746.4A1.515,1.515,0,0,0,62.98-1.25,6.2,6.2,0,0,0,64-2.52a5.537,5.537,0,0,0,.746-1.9Zm8.773-.836a3.521,3.521,0,0,0-.1-.859.742.742,0,0,0-.266-.4.875.875,0,0,0-.52-.133,1.958,1.958,0,0,0-1.418.629,4.612,4.612,0,0,0-1.027,1.781,6.769,6.769,0,0,0-.4,2.215,1.863,1.863,0,0,0,.313,1.184,1.134,1.134,0,0,0,.938.387,2.639,2.639,0,0,0,1.23-.27,4.607,4.607,0,0,0,1.1-.848l.477.477a5.185,5.185,0,0,1-1.48,1.188,3.525,3.525,0,0,1-1.605.375,2.158,2.158,0,0,1-1.719-.672,2.888,2.888,0,0,1-.586-1.953,6.2,6.2,0,0,1,.313-1.836,5.375,5.375,0,0,1,.914-1.758,3.883,3.883,0,0,1,1.406-1.133,4.019,4.019,0,0,1,1.719-.375,7.384,7.384,0,0,1,1.914.234l-.383,1.766Zm5.891-4.937-.359,1.516H77.742l.359-1.516ZM76.969-5.266a5.771,5.771,0,0,0,.18-1.172.563.563,0,0,0-.168-.477,1.267,1.267,0,0,0-.66-.141l.086-.414,1.906-.07h.461L77.648-2.523a5.792,5.792,0,0,0-.172,1.156.787.787,0,0,0,.1.453.368.368,0,0,0,.32.141.869.869,0,0,0,.5-.191,5.49,5.49,0,0,0,.75-.73l.445.438A6.817,6.817,0,0,1,78.352-.164a2.023,2.023,0,0,1-1.07.289,1,1,0,0,1-.812-.371,1.447,1.447,0,0,1-.3-.949,6.84,6.84,0,0,1,.219-1.516Zm3.883.961a4.993,4.993,0,0,1,.488-2.234A3.643,3.643,0,0,1,82.7-8.07a3.7,3.7,0,0,1,1.988-.539,3.565,3.565,0,0,1,2.793,1.2,4.6,4.6,0,0,1,1.066,3.18v.1a5.036,5.036,0,0,1-.473,2.215A3.589,3.589,0,0,1,86.723-.391,3.743,3.743,0,0,1,84.7.156a3.556,3.556,0,0,1-2.785-1.2A4.575,4.575,0,0,1,80.852-4.2Zm1.453.172a3.616,3.616,0,0,0,.652,2.258,2.088,2.088,0,0,0,1.746.852,2.075,2.075,0,0,0,1.75-.863A3.955,3.955,0,0,0,87.1-4.3a3.61,3.61,0,0,0-.66-2.254,2.1,2.1,0,0,0-1.754-.863,2.075,2.075,0,0,0-1.727.852A3.925,3.925,0,0,0,82.3-4.133Zm3.039-7.852h1.75L85-9.687l-1.164,0ZM91.4-4.953a5.6,5.6,0,0,0,.172-1.156.787.787,0,0,0-.1-.453.368.368,0,0,0-.32-.141.874.874,0,0,0-.512.2,5.607,5.607,0,0,0-.738.723l-.445-.437a7.756,7.756,0,0,1,1.2-1.066A1.905,1.905,0,0,1,91.727-7.6a.982.982,0,0,1,.777.324,1.236,1.236,0,0,1,.285.848,2.689,2.689,0,0,1-.187.922l.094.031a7.228,7.228,0,0,1,1.457-1.6,2.348,2.348,0,0,1,1.426-.52,1.454,1.454,0,0,1,1.117.418,1.633,1.633,0,0,1,.391,1.16,6.238,6.238,0,0,1-.227,1.4L96.352-2.57a5.873,5.873,0,0,0-.211,1.2.787.787,0,0,0,.1.453.368.368,0,0,0,.32.141.869.869,0,0,0,.5-.191,5.49,5.49,0,0,0,.75-.73l.445.438A7.067,7.067,0,0,1,97.086-.207a2.015,2.015,0,0,1-1.141.332,1.007,1.007,0,0,1-.812-.363,1.391,1.391,0,0,1-.3-.926,6.463,6.463,0,0,1,.258-1.492l.344-1.352q.188-.734.246-1.086a3.628,3.628,0,0,0,.059-.57,1.31,1.31,0,0,0-.18-.777.687.687,0,0,0-.586-.238,1.266,1.266,0,0,0-.707.262,4.031,4.031,0,0,0-.8.789,6.193,6.193,0,0,0-.684,1.023,5.1,5.1,0,0,0-.422,1.223L91.609,0H90.258Zm16.477,2.961a6.889,6.889,0,0,1-1.422,1.6,2.32,2.32,0,0,1-1.422.508A1.552,1.552,0,0,1,103.7-.531a3.046,3.046,0,0,1-.473-1.82,6.524,6.524,0,0,1,.527-2.582A4.776,4.776,0,0,1,105.2-6.887a3.271,3.271,0,0,1,2.055-.715,3.723,3.723,0,0,1,.879.1,3.16,3.16,0,0,1,.824.34l.406-1.8q.062-.258.109-.57a3.747,3.747,0,0,0,.047-.547.612.612,0,0,0-.086-.355.482.482,0,0,0-.246-.176,2.467,2.467,0,0,0-.574-.078l.094-.406,1.961-.07h.461l-1.945,8.648a5.792,5.792,0,0,0-.172,1.156.787.787,0,0,0,.1.453.368.368,0,0,0,.32.141.869.869,0,0,0,.5-.191,5.49,5.49,0,0,0,.75-.73l.445.438a6.989,6.989,0,0,1-1.211,1.07,1.946,1.946,0,0,1-1.062.313.991.991,0,0,1-.773-.32,1.223,1.223,0,0,1-.289-.852,2.633,2.633,0,0,1,.18-.914Zm.523-2.766a5.219,5.219,0,0,0,.117-1.062,1.275,1.275,0,0,0-.258-.887,1.131,1.131,0,0,0-.859-.277,1.957,1.957,0,0,0-1.43.645,4.429,4.429,0,0,0-1,1.738,6.881,6.881,0,0,0-.363,2.18,2.585,2.585,0,0,0,.223,1.215.784.784,0,0,0,.746.4,1.26,1.26,0,0,0,.492-.105,1.985,1.985,0,0,0,.52-.34,4.054,4.054,0,0,0,.531-.57q.262-.336.48-.676a4.82,4.82,0,0,0,.406-.8,6.442,6.442,0,0,0,.32-1.121Zm9.82,3.2A5.939,5.939,0,0,1,116.684-.3a3.733,3.733,0,0,1-1.809.422,2.236,2.236,0,0,1-1.754-.691,2.78,2.78,0,0,1-.621-1.926,6,6,0,0,1,.3-1.793A5.239,5.239,0,0,1,113.711-6a4.254,4.254,0,0,1,1.461-1.18,4.06,4.06,0,0,1,1.813-.418,2.22,2.22,0,0,1,1.418.383,1.448,1.448,0,0,1,.473,1.2,2.135,2.135,0,0,1-1.246,1.992,8.1,8.1,0,0,1-3.7.664,5.18,5.18,0,0,0-.094,1.016,1.806,1.806,0,0,0,.32,1.191,1.316,1.316,0,0,0,1.047.371,2.706,2.706,0,0,0,1.3-.312,5.434,5.434,0,0,0,1.23-.961Zm-4.156-2.477a8.37,8.37,0,0,0,1.891-.2,2.53,2.53,0,0,0,1.211-.609,1.518,1.518,0,0,0,.422-1.129,1.138,1.138,0,0,0-.223-.746.807.807,0,0,0-.66-.27,2.084,2.084,0,0,0-1.52.8A5.309,5.309,0,0,0,114.063-4.031Zm14.984,2.039a6.889,6.889,0,0,1-1.422,1.6A2.32,2.32,0,0,1,126.2.117a1.552,1.552,0,0,1-1.332-.648,3.046,3.046,0,0,1-.473-1.82,6.524,6.524,0,0,1,.527-2.582,4.776,4.776,0,0,1,1.449-1.953A3.271,3.271,0,0,1,128.43-7.6a3.723,3.723,0,0,1,.879.1,3.16,3.16,0,0,1,.824.34l.406-1.8q.063-.258.109-.57a3.747,3.747,0,0,0,.047-.547.612.612,0,0,0-.086-.355.482.482,0,0,0-.246-.176,2.467,2.467,0,0,0-.574-.078l.094-.406,1.961-.07h.461l-1.945,8.648a5.793,5.793,0,0,0-.172,1.156.787.787,0,0,0,.1.453.368.368,0,0,0,.32.141.869.869,0,0,0,.5-.191,5.49,5.49,0,0,0,.75-.73l.445.438a6.99,6.99,0,0,1-1.211,1.07,1.946,1.946,0,0,1-1.062.313.991.991,0,0,1-.773-.32,1.223,1.223,0,0,1-.289-.852,2.632,2.632,0,0,1,.18-.914Zm.523-2.766a5.219,5.219,0,0,0,.117-1.062,1.275,1.275,0,0,0-.258-.887,1.131,1.131,0,0,0-.859-.277,1.957,1.957,0,0,0-1.43.645,4.429,4.429,0,0,0-1,1.738,6.881,6.881,0,0,0-.363,2.18A2.585,2.585,0,0,0,126-1.207a.784.784,0,0,0,.746.4,1.26,1.26,0,0,0,.492-.105,1.985,1.985,0,0,0,.52-.34,4.055,4.055,0,0,0,.531-.57q.262-.336.48-.676a4.82,4.82,0,0,0,.406-.8,6.443,6.443,0,0,0,.32-1.121Zm7.7-5.773-.359,1.516h-1.383l.359-1.516ZM134.75-5.266a5.77,5.77,0,0,0,.18-1.172.563.563,0,0,0-.168-.477,1.267,1.267,0,0,0-.66-.141l.086-.414,1.906-.07h.461L135.43-2.523a5.793,5.793,0,0,0-.172,1.156.787.787,0,0,0,.1.453.368.368,0,0,0,.32.141.869.869,0,0,0,.5-.191,5.49,5.49,0,0,0,.75-.73l.445.438a6.817,6.817,0,0,1-1.242,1.094,2.023,2.023,0,0,1-1.07.289,1,1,0,0,1-.812-.371,1.447,1.447,0,0,1-.3-.949,6.841,6.841,0,0,1,.219-1.516Zm6.539,5.4a5.478,5.478,0,0,1-1.1,2.527,2.4,2.4,0,0,1-1.867.832,2.656,2.656,0,0,1-.516-.039l.133-.687a1.7,1.7,0,0,0,.367.023,1,1,0,0,0,.6-.18,1.624,1.624,0,0,0,.465-.625A6.005,6.005,0,0,0,139.766.75l1.68-7.43h-1.32l.117-.539A4.922,4.922,0,0,0,141-7.3a.854.854,0,0,0,.359-.164.912.912,0,0,0,.219-.285,4.406,4.406,0,0,0,.23-.645,4.158,4.158,0,0,1,1.277-2.113,3.357,3.357,0,0,1,2.2-.707,6.078,6.078,0,0,1,1.32.125l-.3,1.328h-.687a1.5,1.5,0,0,0-.285-.641.663.663,0,0,0-.52-.2,1.171,1.171,0,0,0-.754.246,1.927,1.927,0,0,0-.527.73,7.121,7.121,0,0,0-.406,1.3l-.2.852h2.008l-.172.789h-2.016Zm11.969-1.687A5.939,5.939,0,0,1,151.723-.3a3.733,3.733,0,0,1-1.809.422,2.236,2.236,0,0,1-1.754-.691,2.78,2.78,0,0,1-.621-1.926,6,6,0,0,1,.3-1.793A5.239,5.239,0,0,1,148.75-6a4.254,4.254,0,0,1,1.461-1.18,4.06,4.06,0,0,1,1.813-.418,2.22,2.22,0,0,1,1.418.383,1.448,1.448,0,0,1,.473,1.2,2.135,2.135,0,0,1-1.246,1.992,8.1,8.1,0,0,1-3.7.664,5.18,5.18,0,0,0-.094,1.016,1.806,1.806,0,0,0,.32,1.191,1.316,1.316,0,0,0,1.047.371,2.706,2.706,0,0,0,1.3-.312,5.434,5.434,0,0,0,1.23-.961ZM149.1-4.031a8.37,8.37,0,0,0,1.891-.2A2.53,2.53,0,0,0,152.2-4.84a1.518,1.518,0,0,0,.422-1.129,1.138,1.138,0,0,0-.223-.746.807.807,0,0,0-.66-.27,2.084,2.084,0,0,0-1.52.8A5.309,5.309,0,0,0,149.1-4.031Zm9.023-1.555A6.511,6.511,0,0,1,159.6-7.109a2.515,2.515,0,0,1,1.434-.484,4.445,4.445,0,0,1,.953.086l-.375,1.75h-.8a1.808,1.808,0,0,0-.133-.508.563.563,0,0,0-.2-.25.569.569,0,0,0-.3-.07,1.067,1.067,0,0,0-.613.242,4.2,4.2,0,0,0-.746.758,6.005,6.005,0,0,0-.66.992,5.079,5.079,0,0,0-.41,1.211L157,0h-1.352l1.133-4.953a7.312,7.312,0,0,0,.141-.727,3.687,3.687,0,0,0,.031-.43.787.787,0,0,0-.1-.453.368.368,0,0,0-.32-.141.874.874,0,0,0-.512.2,5.607,5.607,0,0,0-.738.723l-.445-.437a7.51,7.51,0,0,1,1.2-1.066,1.916,1.916,0,0,1,1.07-.316.982.982,0,0,1,.777.324,1.236,1.236,0,0,1,.285.848,2.378,2.378,0,0,1-.148.8Zm8.555-4.945-.359,1.516h-1.383l.359-1.516Zm-2.516,5.266a5.77,5.77,0,0,0,.18-1.172.563.563,0,0,0-.168-.477,1.267,1.267,0,0,0-.66-.141l.086-.414,1.906-.07h.461l-1.125,5.016a5.793,5.793,0,0,0-.172,1.156.787.787,0,0,0,.1.453.368.368,0,0,0,.32.141.869.869,0,0,0,.5-.191,5.49,5.49,0,0,0,.75-.73l.445.438a6.817,6.817,0,0,1-1.242,1.094,2.023,2.023,0,0,1-1.07.289,1,1,0,0,1-.812-.371,1.447,1.447,0,0,1-.3-.949,6.841,6.841,0,0,1,.219-1.516ZM172.8-1.992a6.889,6.889,0,0,1-1.422,1.6,2.32,2.32,0,0,1-1.422.508,1.552,1.552,0,0,1-1.332-.648,3.046,3.046,0,0,1-.473-1.82,6.524,6.524,0,0,1,.527-2.582,4.776,4.776,0,0,1,1.449-1.953,3.271,3.271,0,0,1,2.055-.715,3.723,3.723,0,0,1,.879.1,3.16,3.16,0,0,1,.824.34l.406-1.8q.063-.258.109-.57a3.747,3.747,0,0,0,.047-.547.612.612,0,0,0-.086-.355.482.482,0,0,0-.246-.176,2.467,2.467,0,0,0-.574-.078l.094-.406,1.961-.07h.461l-1.945,8.648a5.793,5.793,0,0,0-.172,1.156.787.787,0,0,0,.1.453.368.368,0,0,0,.32.141.869.869,0,0,0,.5-.191,5.49,5.49,0,0,0,.75-.73l.445.438a6.99,6.99,0,0,1-1.211,1.07,1.946,1.946,0,0,1-1.062.313.991.991,0,0,1-.773-.32,1.223,1.223,0,0,1-.289-.852,2.632,2.632,0,0,1,.18-.914Zm.523-2.766a5.219,5.219,0,0,0,.117-1.062,1.275,1.275,0,0,0-.258-.887,1.131,1.131,0,0,0-.859-.277,1.957,1.957,0,0,0-1.43.645,4.429,4.429,0,0,0-1,1.738,6.881,6.881,0,0,0-.363,2.18,2.585,2.585,0,0,0,.223,1.215.784.784,0,0,0,.746.4A1.26,1.26,0,0,0,171-.91a1.985,1.985,0,0,0,.52-.34,4.055,4.055,0,0,0,.531-.57q.262-.336.48-.676a4.82,4.82,0,0,0,.406-.8,6.443,6.443,0,0,0,.32-1.121ZM180.016.133a2.515,2.515,0,0,1-1.879-.68,2.671,2.671,0,0,1-.668-1.953,6.588,6.588,0,0,1,.188-1.445,5.411,5.411,0,0,1,.813-1.937,3.916,3.916,0,0,1,1.406-1.27,3.871,3.871,0,0,1,1.836-.441,2.521,2.521,0,0,1,1.906.684,2.715,2.715,0,0,1,.656,1.957,6.62,6.62,0,0,1-.316,1.938,5.308,5.308,0,0,1-.867,1.734,3.568,3.568,0,0,1-1.316,1.059A4.131,4.131,0,0,1,180.016.133Zm-1.18-2.3a1.9,1.9,0,0,0,.355,1.27,1.345,1.345,0,0,0,1.074.41,1.761,1.761,0,0,0,1.359-.687,4.943,4.943,0,0,0,.938-1.926,8.276,8.276,0,0,0,.344-2.176,2.059,2.059,0,0,0-.328-1.27,1.21,1.21,0,0,0-1.023-.426,1.846,1.846,0,0,0-1.418.68,4.814,4.814,0,0,0-.953,1.945A8.427,8.427,0,0,0,178.836-2.164ZM191.023-5.57a1.71,1.71,0,0,0-.457-1.055,1.629,1.629,0,0,0-1.168-.359,1.519,1.519,0,0,0-1,.316,1.027,1.027,0,0,0-.383.832,1.188,1.188,0,0,0,.1.5,1.5,1.5,0,0,0,.395.473,6.87,6.87,0,0,0,.922.633,6.6,6.6,0,0,1,.789.543,2.618,2.618,0,0,1,.469.488,1.7,1.7,0,0,1,.25.512,2.368,2.368,0,0,1,.078.652,1.933,1.933,0,0,1-.371,1.191,2.2,2.2,0,0,1-1.008.738,4.055,4.055,0,0,1-1.449.242,8.237,8.237,0,0,1-1.273-.1A10.165,10.165,0,0,1,185.523-.3L185.9-2h.609a1.618,1.618,0,0,0,.422,1.133,1.722,1.722,0,0,0,1.242.383,1.82,1.82,0,0,0,1.16-.332,1.133,1.133,0,0,0,.418-.941,1.435,1.435,0,0,0-.117-.605,1.5,1.5,0,0,0-.383-.488,6.285,6.285,0,0,0-.844-.586,6.85,6.85,0,0,1-.949-.664,2.093,2.093,0,0,1-.512-.645,1.785,1.785,0,0,1-.172-.8,1.813,1.813,0,0,1,.332-1.082,2.1,2.1,0,0,1,.949-.715,3.811,3.811,0,0,1,1.438-.25,9.348,9.348,0,0,1,1.324.086,6.181,6.181,0,0,1,1.191.3l-.352,1.641Zm13.164-.789h-6.516V-7.617h6.516Zm0,3.242h-6.516v-1.25h6.516Z" transform="translate(589 23723)" fill="#12263f"/>
    <path id="Trazado_911741" data-name="Trazado 911741" d="M7.43-11.391,7.3-10.164H7.2a4.458,4.458,0,0,0-1.645.27,4.1,4.1,0,0,0-1.277.773,4.879,4.879,0,0,0-.957,1.184A7.957,7.957,0,0,0,2.641-6.43a3.625,3.625,0,0,1,1.133-.781,3.207,3.207,0,0,1,1.352-.25,2.649,2.649,0,0,1,1.3.348,2.6,2.6,0,0,1,.867.84A3.315,3.315,0,0,1,7.75-5.1a4.771,4.771,0,0,1,.063,1.336A5.052,5.052,0,0,1,7.441-2.25a4.287,4.287,0,0,1-.8,1.262,3.648,3.648,0,0,1-1.187.855A3.443,3.443,0,0,1,3.914.156a2.951,2.951,0,0,1-1.039-.2,2.808,2.808,0,0,1-.816-.5,2.969,2.969,0,0,1-.6-.734,3.929,3.929,0,0,1-.379-.9,5.014,5.014,0,0,1-.176-1A5.164,5.164,0,0,1,.93-4.2l.086-.68A12.028,12.028,0,0,1,1.383-6.59a9.02,9.02,0,0,1,.609-1.547,6.86,6.86,0,0,1,.871-1.32A5.364,5.364,0,0,1,4.02-10.484a5.437,5.437,0,0,1,1.457-.668,6.259,6.259,0,0,1,1.781-.238Zm-2.6,5.125a2.256,2.256,0,0,0-.75.109,2.613,2.613,0,0,0-.668.328,2.934,2.934,0,0,0-.562.5,3.249,3.249,0,0,0-.426.621l-.07.547a5.872,5.872,0,0,0-.031.629,4.345,4.345,0,0,0,.055.684,3.758,3.758,0,0,0,.168.664,2.06,2.06,0,0,0,.3.566,1.492,1.492,0,0,0,.469.4,1.473,1.473,0,0,0,.664.172,1.877,1.877,0,0,0,.984-.207A2.371,2.371,0,0,0,5.7-1.855a3.07,3.07,0,0,0,.484-.863A4.1,4.1,0,0,0,6.414-3.7a3.9,3.9,0,0,0,0-.871,2.5,2.5,0,0,0-.234-.824,1.664,1.664,0,0,0-.512-.617A1.449,1.449,0,0,0,4.828-6.266Zm5.688.539,1.547-5.648h5.672l-.242,1.336H13.047L12.109-6.93a3.491,3.491,0,0,1,.9-.375,3.577,3.577,0,0,1,.969-.117,2.662,2.662,0,0,1,1.332.328,2.574,2.574,0,0,1,.887.844,3.308,3.308,0,0,1,.461,1.191,4.814,4.814,0,0,1,.055,1.371,5,5,0,0,1-.391,1.543A3.979,3.979,0,0,1,15.488-.91,3.687,3.687,0,0,1,14.262-.1a3.844,3.844,0,0,1-1.574.266A3.371,3.371,0,0,1,11.422-.09a2.734,2.734,0,0,1-.941-.656,2.929,2.929,0,0,1-.6-.992A3.894,3.894,0,0,1,9.656-3h1.32a2.906,2.906,0,0,0,.129.777,1.888,1.888,0,0,0,.328.621,1.536,1.536,0,0,0,.543.422,1.879,1.879,0,0,0,.781.164,2.138,2.138,0,0,0,1.016-.2,2.371,2.371,0,0,0,.766-.594,2.938,2.938,0,0,0,.508-.863,3.952,3.952,0,0,0,.242-1,3.153,3.153,0,0,0-.016-.887A2.169,2.169,0,0,0,15-5.34a1.615,1.615,0,0,0-.555-.555,1.739,1.739,0,0,0-.867-.23,2.382,2.382,0,0,0-1.016.176,4.14,4.14,0,0,0-.883.527Z" transform="translate(837 23737)" fill="#12263f"/>
    <path id="Trazado_911515" data-name="Trazado 911515" d="M-3852,12108.685h98.609" transform="translate(4655 11610.815)" fill="none" stroke="#707070" stroke-width="1"/>
    <path id="Trazado_911740" data-name="Trazado 911740" d="M7.43-11.391,7.3-10.164H7.2a4.458,4.458,0,0,0-1.645.27,4.1,4.1,0,0,0-1.277.773,4.879,4.879,0,0,0-.957,1.184A7.957,7.957,0,0,0,2.641-6.43a3.625,3.625,0,0,1,1.133-.781,3.207,3.207,0,0,1,1.352-.25,2.649,2.649,0,0,1,1.3.348,2.6,2.6,0,0,1,.867.84A3.315,3.315,0,0,1,7.75-5.1a4.771,4.771,0,0,1,.063,1.336A5.052,5.052,0,0,1,7.441-2.25a4.287,4.287,0,0,1-.8,1.262,3.648,3.648,0,0,1-1.187.855A3.443,3.443,0,0,1,3.914.156a2.951,2.951,0,0,1-1.039-.2,2.808,2.808,0,0,1-.816-.5,2.969,2.969,0,0,1-.6-.734,3.929,3.929,0,0,1-.379-.9,5.014,5.014,0,0,1-.176-1A5.164,5.164,0,0,1,.93-4.2l.086-.68A12.028,12.028,0,0,1,1.383-6.59a9.02,9.02,0,0,1,.609-1.547,6.86,6.86,0,0,1,.871-1.32A5.364,5.364,0,0,1,4.02-10.484a5.437,5.437,0,0,1,1.457-.668,6.259,6.259,0,0,1,1.781-.238Zm-2.6,5.125a2.256,2.256,0,0,0-.75.109,2.613,2.613,0,0,0-.668.328,2.934,2.934,0,0,0-.562.5,3.249,3.249,0,0,0-.426.621l-.07.547a5.872,5.872,0,0,0-.031.629,4.345,4.345,0,0,0,.055.684,3.758,3.758,0,0,0,.168.664,2.06,2.06,0,0,0,.3.566,1.492,1.492,0,0,0,.469.4,1.473,1.473,0,0,0,.664.172,1.877,1.877,0,0,0,.984-.207A2.371,2.371,0,0,0,5.7-1.855a3.07,3.07,0,0,0,.484-.863A4.1,4.1,0,0,0,6.414-3.7a3.9,3.9,0,0,0,0-.871,2.5,2.5,0,0,0-.234-.824,1.664,1.664,0,0,0-.512-.617A1.449,1.449,0,0,0,4.828-6.266ZM16.68-4.859q-.094.617-.242,1.23a8.653,8.653,0,0,1-.375,1.18A5.69,5.69,0,0,1,15.516-1.4a3.7,3.7,0,0,1-.762.836,3.232,3.232,0,0,1-1.016.547,3.839,3.839,0,0,1-1.3.176A3.037,3.037,0,0,1,11.25-.082a2.4,2.4,0,0,1-.82-.594,2.681,2.681,0,0,1-.508-.859,4.735,4.735,0,0,1-.25-1.039,7.064,7.064,0,0,1-.051-1.133q.02-.582.09-1.145l.258-1.734A12.413,12.413,0,0,1,10.2-7.812a8.057,8.057,0,0,1,.379-1.168,5.576,5.576,0,0,1,.555-1.031,3.628,3.628,0,0,1,.766-.816,3.326,3.326,0,0,1,1.008-.531,3.842,3.842,0,0,1,1.293-.172,3.17,3.17,0,0,1,1.191.23,2.351,2.351,0,0,1,.824.578,2.608,2.608,0,0,1,.508.844,4.6,4.6,0,0,1,.25,1.023,6.939,6.939,0,0,1,.051,1.125q-.02.582-.09,1.145ZM15.57-6.844q.039-.328.074-.707a6.748,6.748,0,0,0,.027-.762,4.073,4.073,0,0,0-.082-.742,2.035,2.035,0,0,0-.246-.645,1.335,1.335,0,0,0-.465-.461,1.538,1.538,0,0,0-.746-.191,2.179,2.179,0,0,0-.859.129,2.018,2.018,0,0,0-.656.406,2.624,2.624,0,0,0-.484.613,4.467,4.467,0,0,0-.344.75,6.648,6.648,0,0,0-.23.816q-.09.418-.145.809l-.328,2.211q-.039.313-.074.7a7.076,7.076,0,0,0-.027.781,4.334,4.334,0,0,0,.082.766,2.173,2.173,0,0,0,.246.668,1.415,1.415,0,0,0,.461.484,1.435,1.435,0,0,0,.742.2,1.989,1.989,0,0,0,.867-.133,2.113,2.113,0,0,0,.656-.426,2.652,2.652,0,0,0,.484-.637,4.855,4.855,0,0,0,.344-.777,6.665,6.665,0,0,0,.227-.832q.086-.422.141-.8ZM18-.734a.886.886,0,0,1,.242-.637.878.878,0,0,1,.625-.27.846.846,0,0,1,.633.234.807.807,0,0,1,.242.625.844.844,0,0,1-.258.621.929.929,0,0,1-.625.254.894.894,0,0,1-.348-.051.768.768,0,0,1-.273-.168.752.752,0,0,1-.176-.266A.918.918,0,0,1,18-.734ZM29.641-4.859q-.094.617-.242,1.23a8.653,8.653,0,0,1-.375,1.18A5.69,5.69,0,0,1,28.477-1.4a3.7,3.7,0,0,1-.762.836A3.232,3.232,0,0,1,26.7-.02a3.839,3.839,0,0,1-1.3.176,3.037,3.037,0,0,1-1.187-.238,2.4,2.4,0,0,1-.82-.594,2.681,2.681,0,0,1-.508-.859,4.735,4.735,0,0,1-.25-1.039,7.064,7.064,0,0,1-.051-1.133q.02-.582.09-1.145l.258-1.734a12.412,12.412,0,0,1,.234-1.227,8.057,8.057,0,0,1,.379-1.168,5.576,5.576,0,0,1,.555-1.031,3.628,3.628,0,0,1,.766-.816,3.326,3.326,0,0,1,1.008-.531,3.842,3.842,0,0,1,1.293-.172,3.17,3.17,0,0,1,1.191.23,2.351,2.351,0,0,1,.824.578,2.608,2.608,0,0,1,.508.844,4.6,4.6,0,0,1,.25,1.023,6.939,6.939,0,0,1,.051,1.125q-.02.582-.09,1.145ZM28.531-6.844q.039-.328.074-.707a6.748,6.748,0,0,0,.027-.762,4.073,4.073,0,0,0-.082-.742A2.035,2.035,0,0,0,28.3-9.7a1.335,1.335,0,0,0-.465-.461,1.538,1.538,0,0,0-.746-.191,2.179,2.179,0,0,0-.859.129,2.018,2.018,0,0,0-.656.406,2.624,2.624,0,0,0-.484.613,4.467,4.467,0,0,0-.344.75,6.648,6.648,0,0,0-.23.816q-.09.418-.145.809l-.328,2.211q-.039.313-.074.7a7.075,7.075,0,0,0-.027.781,4.334,4.334,0,0,0,.082.766,2.173,2.173,0,0,0,.246.668,1.415,1.415,0,0,0,.461.484,1.435,1.435,0,0,0,.742.2,1.989,1.989,0,0,0,.867-.133A2.113,2.113,0,0,0,27-1.574a2.652,2.652,0,0,0,.484-.637,4.855,4.855,0,0,0,.344-.777,6.665,6.665,0,0,0,.227-.832q.086-.422.141-.8Zm9.906,1.984q-.094.617-.242,1.23a8.652,8.652,0,0,1-.375,1.18A5.69,5.69,0,0,1,37.273-1.4a3.7,3.7,0,0,1-.762.836A3.232,3.232,0,0,1,35.5-.02a3.839,3.839,0,0,1-1.3.176,3.037,3.037,0,0,1-1.187-.238,2.4,2.4,0,0,1-.82-.594,2.681,2.681,0,0,1-.508-.859,4.735,4.735,0,0,1-.25-1.039,7.064,7.064,0,0,1-.051-1.133q.02-.582.09-1.145l.258-1.734a12.412,12.412,0,0,1,.234-1.227A8.057,8.057,0,0,1,32.34-8.98a5.576,5.576,0,0,1,.555-1.031,3.628,3.628,0,0,1,.766-.816,3.326,3.326,0,0,1,1.008-.531,3.842,3.842,0,0,1,1.293-.172,3.17,3.17,0,0,1,1.191.23,2.351,2.351,0,0,1,.824.578,2.608,2.608,0,0,1,.508.844,4.6,4.6,0,0,1,.25,1.023,6.939,6.939,0,0,1,.051,1.125q-.02.582-.09,1.145ZM37.328-6.844q.039-.328.074-.707a6.748,6.748,0,0,0,.027-.762,4.073,4.073,0,0,0-.082-.742A2.035,2.035,0,0,0,37.1-9.7a1.335,1.335,0,0,0-.465-.461,1.538,1.538,0,0,0-.746-.191,2.179,2.179,0,0,0-.859.129,2.018,2.018,0,0,0-.656.406,2.624,2.624,0,0,0-.484.613,4.467,4.467,0,0,0-.344.75,6.648,6.648,0,0,0-.23.816q-.09.418-.145.809l-.328,2.211q-.039.313-.074.7a7.076,7.076,0,0,0-.027.781,4.334,4.334,0,0,0,.082.766,2.174,2.174,0,0,0,.246.668,1.415,1.415,0,0,0,.461.484,1.435,1.435,0,0,0,.742.2,1.989,1.989,0,0,0,.867-.133,2.113,2.113,0,0,0,.656-.426,2.652,2.652,0,0,0,.484-.637,4.855,4.855,0,0,0,.344-.777,6.665,6.665,0,0,0,.227-.832q.086-.422.141-.8Zm9.906,1.984q-.094.617-.242,1.23a8.652,8.652,0,0,1-.375,1.18A5.69,5.69,0,0,1,46.07-1.4a3.7,3.7,0,0,1-.762.836,3.232,3.232,0,0,1-1.016.547,3.839,3.839,0,0,1-1.3.176A3.037,3.037,0,0,1,41.8-.082a2.4,2.4,0,0,1-.82-.594,2.681,2.681,0,0,1-.508-.859,4.735,4.735,0,0,1-.25-1.039,7.064,7.064,0,0,1-.051-1.133q.02-.582.09-1.145l.258-1.734a12.413,12.413,0,0,1,.234-1.227,8.057,8.057,0,0,1,.379-1.168,5.576,5.576,0,0,1,.555-1.031,3.628,3.628,0,0,1,.766-.816,3.326,3.326,0,0,1,1.008-.531,3.842,3.842,0,0,1,1.293-.172,3.17,3.17,0,0,1,1.191.23,2.351,2.351,0,0,1,.824.578,2.608,2.608,0,0,1,.508.844,4.6,4.6,0,0,1,.25,1.023,6.939,6.939,0,0,1,.051,1.125q-.02.582-.09,1.145ZM46.125-6.844q.039-.328.074-.707a6.748,6.748,0,0,0,.027-.762,4.073,4.073,0,0,0-.082-.742A2.035,2.035,0,0,0,45.9-9.7a1.335,1.335,0,0,0-.465-.461,1.538,1.538,0,0,0-.746-.191,2.179,2.179,0,0,0-.859.129,2.018,2.018,0,0,0-.656.406,2.624,2.624,0,0,0-.484.613,4.467,4.467,0,0,0-.344.75,6.648,6.648,0,0,0-.23.816q-.09.418-.145.809l-.328,2.211q-.039.313-.074.7a7.076,7.076,0,0,0-.027.781,4.334,4.334,0,0,0,.082.766,2.174,2.174,0,0,0,.246.668,1.415,1.415,0,0,0,.461.484,1.435,1.435,0,0,0,.742.2,1.989,1.989,0,0,0,.867-.133,2.113,2.113,0,0,0,.656-.426,2.652,2.652,0,0,0,.484-.637,4.855,4.855,0,0,0,.344-.777,6.665,6.665,0,0,0,.227-.832q.086-.422.141-.8Zm2.43,6.109a.886.886,0,0,1,.242-.637.878.878,0,0,1,.625-.27.846.846,0,0,1,.633.234.807.807,0,0,1,.242.625.844.844,0,0,1-.258.621.929.929,0,0,1-.625.254.894.894,0,0,1-.348-.051.768.768,0,0,1-.273-.168.752.752,0,0,1-.176-.266A.918.918,0,0,1,48.555-.734ZM60.2-4.859q-.094.617-.242,1.23a8.652,8.652,0,0,1-.375,1.18A5.69,5.69,0,0,1,59.031-1.4a3.7,3.7,0,0,1-.762.836,3.232,3.232,0,0,1-1.016.547,3.839,3.839,0,0,1-1.3.176,3.037,3.037,0,0,1-1.187-.238,2.4,2.4,0,0,1-.82-.594,2.681,2.681,0,0,1-.508-.859,4.735,4.735,0,0,1-.25-1.039,7.064,7.064,0,0,1-.051-1.133q.02-.582.09-1.145l.258-1.734a12.413,12.413,0,0,1,.234-1.227A8.057,8.057,0,0,1,54.1-8.98a5.576,5.576,0,0,1,.555-1.031,3.628,3.628,0,0,1,.766-.816,3.326,3.326,0,0,1,1.008-.531,3.842,3.842,0,0,1,1.293-.172,3.17,3.17,0,0,1,1.191.23,2.351,2.351,0,0,1,.824.578,2.608,2.608,0,0,1,.508.844,4.6,4.6,0,0,1,.25,1.023,6.939,6.939,0,0,1,.051,1.125q-.02.582-.09,1.145ZM59.086-6.844q.039-.328.074-.707a6.748,6.748,0,0,0,.027-.762,4.073,4.073,0,0,0-.082-.742,2.035,2.035,0,0,0-.246-.645,1.335,1.335,0,0,0-.465-.461,1.538,1.538,0,0,0-.746-.191,2.179,2.179,0,0,0-.859.129,2.018,2.018,0,0,0-.656.406,2.624,2.624,0,0,0-.484.613,4.467,4.467,0,0,0-.344.75,6.648,6.648,0,0,0-.23.816q-.09.418-.145.809L54.6-4.617q-.039.313-.074.7a7.076,7.076,0,0,0-.027.781,4.334,4.334,0,0,0,.082.766,2.174,2.174,0,0,0,.246.668,1.415,1.415,0,0,0,.461.484,1.435,1.435,0,0,0,.742.2,1.989,1.989,0,0,0,.867-.133,2.113,2.113,0,0,0,.656-.426,2.652,2.652,0,0,0,.484-.637,4.855,4.855,0,0,0,.344-.777,6.665,6.665,0,0,0,.227-.832q.086-.422.141-.8Zm9.906,1.984q-.094.617-.242,1.23a8.653,8.653,0,0,1-.375,1.18A5.69,5.69,0,0,1,67.828-1.4a3.7,3.7,0,0,1-.762.836,3.232,3.232,0,0,1-1.016.547,3.839,3.839,0,0,1-1.3.176,3.037,3.037,0,0,1-1.187-.238,2.4,2.4,0,0,1-.82-.594,2.681,2.681,0,0,1-.508-.859,4.735,4.735,0,0,1-.25-1.039,7.064,7.064,0,0,1-.051-1.133q.02-.582.09-1.145l.258-1.734a12.413,12.413,0,0,1,.234-1.227,8.057,8.057,0,0,1,.379-1.168,5.576,5.576,0,0,1,.555-1.031,3.628,3.628,0,0,1,.766-.816,3.326,3.326,0,0,1,1.008-.531,3.842,3.842,0,0,1,1.293-.172,3.17,3.17,0,0,1,1.191.23,2.351,2.351,0,0,1,.824.578,2.608,2.608,0,0,1,.508.844,4.6,4.6,0,0,1,.25,1.023A6.939,6.939,0,0,1,69.34-7.73q-.02.582-.09,1.145ZM67.883-6.844q.039-.328.074-.707a6.747,6.747,0,0,0,.027-.762,4.074,4.074,0,0,0-.082-.742,2.035,2.035,0,0,0-.246-.645,1.335,1.335,0,0,0-.465-.461,1.538,1.538,0,0,0-.746-.191,2.179,2.179,0,0,0-.859.129,2.018,2.018,0,0,0-.656.406,2.624,2.624,0,0,0-.484.613,4.467,4.467,0,0,0-.344.75,6.648,6.648,0,0,0-.23.816q-.09.418-.145.809L63.4-4.617q-.039.313-.074.7a7.076,7.076,0,0,0-.027.781,4.334,4.334,0,0,0,.082.766,2.174,2.174,0,0,0,.246.668,1.415,1.415,0,0,0,.461.484,1.435,1.435,0,0,0,.742.2,1.989,1.989,0,0,0,.867-.133,2.113,2.113,0,0,0,.656-.426,2.652,2.652,0,0,0,.484-.637,4.855,4.855,0,0,0,.344-.777,6.664,6.664,0,0,0,.227-.832q.086-.422.141-.8Zm9.906,1.984q-.094.617-.242,1.23a8.653,8.653,0,0,1-.375,1.18A5.69,5.69,0,0,1,76.625-1.4a3.7,3.7,0,0,1-.762.836,3.232,3.232,0,0,1-1.016.547,3.839,3.839,0,0,1-1.3.176,3.037,3.037,0,0,1-1.187-.238,2.4,2.4,0,0,1-.82-.594,2.681,2.681,0,0,1-.508-.859,4.735,4.735,0,0,1-.25-1.039,7.063,7.063,0,0,1-.051-1.133q.02-.582.09-1.145l.258-1.734a12.411,12.411,0,0,1,.234-1.227,8.057,8.057,0,0,1,.379-1.168,5.576,5.576,0,0,1,.555-1.031,3.628,3.628,0,0,1,.766-.816,3.326,3.326,0,0,1,1.008-.531,3.842,3.842,0,0,1,1.293-.172,3.17,3.17,0,0,1,1.191.23,2.351,2.351,0,0,1,.824.578,2.608,2.608,0,0,1,.508.844,4.6,4.6,0,0,1,.25,1.023,6.939,6.939,0,0,1,.051,1.125q-.02.582-.09,1.145ZM76.68-6.844q.039-.328.074-.707a6.747,6.747,0,0,0,.027-.762,4.074,4.074,0,0,0-.082-.742,2.035,2.035,0,0,0-.246-.645,1.335,1.335,0,0,0-.465-.461,1.538,1.538,0,0,0-.746-.191,2.179,2.179,0,0,0-.859.129,2.018,2.018,0,0,0-.656.406,2.624,2.624,0,0,0-.484.613,4.467,4.467,0,0,0-.344.75,6.649,6.649,0,0,0-.23.816q-.09.418-.145.809L72.2-4.617q-.039.313-.074.7a7.075,7.075,0,0,0-.027.781,4.335,4.335,0,0,0,.082.766,2.173,2.173,0,0,0,.246.668,1.415,1.415,0,0,0,.461.484,1.435,1.435,0,0,0,.742.2,1.989,1.989,0,0,0,.867-.133,2.113,2.113,0,0,0,.656-.426,2.652,2.652,0,0,0,.484-.637,4.855,4.855,0,0,0,.344-.777A6.664,6.664,0,0,0,76.2-3.82q.086-.422.141-.8Z" transform="translate(810 23713)" fill="#12263f"/>
    <path id="Trazado_911743" data-name="Trazado 911743" d="M11.664-6.359H5.148V-7.617h6.516Zm0,3.242H5.148v-1.25h6.516Z" transform="translate(907 23722)" fill="#12263f"/>
    <path id="Trazado_911742" data-name="Trazado 911742" d="M4.719,0H3.3L4.969-9.594,1.945-8.531l.242-1.375L6.406-11.43h.25Zm11.5,0H8.977l.172-1.1,4.2-4.086q.32-.32.684-.676a8.539,8.539,0,0,0,.684-.754,5.411,5.411,0,0,0,.555-.836,2.657,2.657,0,0,0,.3-.922,2.262,2.262,0,0,0-.031-.754,1.558,1.558,0,0,0-.281-.621,1.49,1.49,0,0,0-.52-.426A1.762,1.762,0,0,0,14-10.352a2.524,2.524,0,0,0-.984.152,2.273,2.273,0,0,0-.762.477,2.443,2.443,0,0,0-.527.742,3.263,3.263,0,0,0-.273.949l-1.4.008a4.068,4.068,0,0,1,.41-1.453,3.631,3.631,0,0,1,.863-1.117,3.763,3.763,0,0,1,1.23-.707,4.221,4.221,0,0,1,1.5-.23,3.824,3.824,0,0,1,1.23.223,2.8,2.8,0,0,1,.973.59,2.443,2.443,0,0,1,.613.934,2.8,2.8,0,0,1,.145,1.246A3.518,3.518,0,0,1,16.7-7.371,6.084,6.084,0,0,1,16.07-6.3a9.253,9.253,0,0,1-.816.961q-.441.453-.855.852L10.914-1.18h5.492Zm1.789-.734a.886.886,0,0,1,.242-.637.878.878,0,0,1,.625-.27.846.846,0,0,1,.633.234.807.807,0,0,1,.242.625.844.844,0,0,1-.258.621.929.929,0,0,1-.625.254A.894.894,0,0,1,18.52.043a.768.768,0,0,1-.273-.168.752.752,0,0,1-.176-.266A.918.918,0,0,1,18.008-.734ZM29.648-4.859q-.094.617-.242,1.23a8.653,8.653,0,0,1-.375,1.18A5.69,5.69,0,0,1,28.484-1.4a3.7,3.7,0,0,1-.762.836,3.232,3.232,0,0,1-1.016.547,3.839,3.839,0,0,1-1.3.176,3.037,3.037,0,0,1-1.187-.238,2.4,2.4,0,0,1-.82-.594,2.681,2.681,0,0,1-.508-.859,4.735,4.735,0,0,1-.25-1.039,7.064,7.064,0,0,1-.051-1.133q.02-.582.09-1.145l.258-1.734a12.412,12.412,0,0,1,.234-1.227,8.057,8.057,0,0,1,.379-1.168,5.576,5.576,0,0,1,.555-1.031,3.628,3.628,0,0,1,.766-.816,3.326,3.326,0,0,1,1.008-.531,3.842,3.842,0,0,1,1.293-.172,3.17,3.17,0,0,1,1.191.23,2.351,2.351,0,0,1,.824.578,2.608,2.608,0,0,1,.508.844,4.6,4.6,0,0,1,.25,1.023A6.939,6.939,0,0,1,30-7.73q-.02.582-.09,1.145ZM28.539-6.844q.039-.328.074-.707a6.748,6.748,0,0,0,.027-.762,4.073,4.073,0,0,0-.082-.742,2.035,2.035,0,0,0-.246-.645,1.335,1.335,0,0,0-.465-.461,1.538,1.538,0,0,0-.746-.191,2.179,2.179,0,0,0-.859.129,2.018,2.018,0,0,0-.656.406A2.624,2.624,0,0,0,25.1-9.2a4.467,4.467,0,0,0-.344.75,6.648,6.648,0,0,0-.23.816q-.09.418-.145.809l-.328,2.211q-.039.313-.074.7a7.075,7.075,0,0,0-.027.781,4.334,4.334,0,0,0,.082.766,2.173,2.173,0,0,0,.246.668,1.415,1.415,0,0,0,.461.484,1.435,1.435,0,0,0,.742.2,1.989,1.989,0,0,0,.867-.133,2.113,2.113,0,0,0,.656-.426,2.652,2.652,0,0,0,.484-.637,4.855,4.855,0,0,0,.344-.777,6.665,6.665,0,0,0,.227-.832q.086-.422.141-.8Zm9.906,1.984q-.094.617-.242,1.23a8.652,8.652,0,0,1-.375,1.18A5.69,5.69,0,0,1,37.281-1.4a3.7,3.7,0,0,1-.762.836A3.232,3.232,0,0,1,35.5-.02a3.839,3.839,0,0,1-1.3.176,3.037,3.037,0,0,1-1.187-.238,2.4,2.4,0,0,1-.82-.594,2.681,2.681,0,0,1-.508-.859,4.735,4.735,0,0,1-.25-1.039,7.064,7.064,0,0,1-.051-1.133q.02-.582.09-1.145l.258-1.734a12.412,12.412,0,0,1,.234-1.227,8.057,8.057,0,0,1,.379-1.168,5.576,5.576,0,0,1,.555-1.031,3.628,3.628,0,0,1,.766-.816,3.326,3.326,0,0,1,1.008-.531,3.842,3.842,0,0,1,1.293-.172,3.17,3.17,0,0,1,1.191.23,2.351,2.351,0,0,1,.824.578,2.608,2.608,0,0,1,.508.844,4.6,4.6,0,0,1,.25,1.023,6.939,6.939,0,0,1,.051,1.125q-.02.582-.09,1.145ZM37.336-6.844q.039-.328.074-.707a6.748,6.748,0,0,0,.027-.762,4.073,4.073,0,0,0-.082-.742,2.035,2.035,0,0,0-.246-.645,1.335,1.335,0,0,0-.465-.461,1.538,1.538,0,0,0-.746-.191,2.179,2.179,0,0,0-.859.129,2.018,2.018,0,0,0-.656.406A2.624,2.624,0,0,0,33.9-9.2a4.467,4.467,0,0,0-.344.75,6.648,6.648,0,0,0-.23.816q-.09.418-.145.809l-.328,2.211q-.039.313-.074.7a7.076,7.076,0,0,0-.027.781,4.334,4.334,0,0,0,.082.766,2.174,2.174,0,0,0,.246.668,1.415,1.415,0,0,0,.461.484,1.435,1.435,0,0,0,.742.2,1.989,1.989,0,0,0,.867-.133,2.113,2.113,0,0,0,.656-.426,2.652,2.652,0,0,0,.484-.637,4.855,4.855,0,0,0,.344-.777,6.665,6.665,0,0,0,.227-.832q.086-.422.141-.8Zm9.906,1.984q-.094.617-.242,1.23a8.652,8.652,0,0,1-.375,1.18A5.69,5.69,0,0,1,46.078-1.4a3.7,3.7,0,0,1-.762.836A3.232,3.232,0,0,1,44.3-.02,3.839,3.839,0,0,1,43,.156a3.037,3.037,0,0,1-1.187-.238,2.4,2.4,0,0,1-.82-.594,2.681,2.681,0,0,1-.508-.859,4.735,4.735,0,0,1-.25-1.039,7.064,7.064,0,0,1-.051-1.133q.02-.582.09-1.145l.258-1.734a12.413,12.413,0,0,1,.234-1.227,8.057,8.057,0,0,1,.379-1.168,5.576,5.576,0,0,1,.555-1.031,3.628,3.628,0,0,1,.766-.816,3.326,3.326,0,0,1,1.008-.531,3.842,3.842,0,0,1,1.293-.172,3.17,3.17,0,0,1,1.191.23,2.351,2.351,0,0,1,.824.578,2.608,2.608,0,0,1,.508.844,4.6,4.6,0,0,1,.25,1.023A6.939,6.939,0,0,1,47.59-7.73q-.02.582-.09,1.145ZM46.133-6.844q.039-.328.074-.707a6.748,6.748,0,0,0,.027-.762,4.073,4.073,0,0,0-.082-.742,2.035,2.035,0,0,0-.246-.645,1.335,1.335,0,0,0-.465-.461,1.538,1.538,0,0,0-.746-.191,2.179,2.179,0,0,0-.859.129,2.018,2.018,0,0,0-.656.406A2.624,2.624,0,0,0,42.7-9.2a4.467,4.467,0,0,0-.344.75,6.648,6.648,0,0,0-.23.816q-.09.418-.145.809l-.328,2.211q-.039.313-.074.7a7.076,7.076,0,0,0-.027.781,4.334,4.334,0,0,0,.082.766,2.174,2.174,0,0,0,.246.668,1.415,1.415,0,0,0,.461.484,1.435,1.435,0,0,0,.742.2,1.989,1.989,0,0,0,.867-.133,2.113,2.113,0,0,0,.656-.426,2.652,2.652,0,0,0,.484-.637,4.855,4.855,0,0,0,.344-.777,6.665,6.665,0,0,0,.227-.832q.086-.422.141-.8Zm2.43,6.109a.886.886,0,0,1,.242-.637.878.878,0,0,1,.625-.27.846.846,0,0,1,.633.234.807.807,0,0,1,.242.625.844.844,0,0,1-.258.621.929.929,0,0,1-.625.254.894.894,0,0,1-.348-.051A.768.768,0,0,1,48.8-.125a.752.752,0,0,1-.176-.266A.918.918,0,0,1,48.563-.734ZM60.2-4.859q-.094.617-.242,1.23a8.652,8.652,0,0,1-.375,1.18A5.69,5.69,0,0,1,59.039-1.4a3.7,3.7,0,0,1-.762.836,3.232,3.232,0,0,1-1.016.547,3.839,3.839,0,0,1-1.3.176,3.037,3.037,0,0,1-1.187-.238,2.4,2.4,0,0,1-.82-.594,2.681,2.681,0,0,1-.508-.859,4.735,4.735,0,0,1-.25-1.039,7.064,7.064,0,0,1-.051-1.133q.02-.582.09-1.145l.258-1.734a12.413,12.413,0,0,1,.234-1.227,8.057,8.057,0,0,1,.379-1.168,5.576,5.576,0,0,1,.555-1.031,3.628,3.628,0,0,1,.766-.816,3.326,3.326,0,0,1,1.008-.531,3.842,3.842,0,0,1,1.293-.172,3.17,3.17,0,0,1,1.191.23,2.351,2.351,0,0,1,.824.578,2.608,2.608,0,0,1,.508.844,4.6,4.6,0,0,1,.25,1.023,6.939,6.939,0,0,1,.051,1.125q-.02.582-.09,1.145ZM59.094-6.844q.039-.328.074-.707a6.748,6.748,0,0,0,.027-.762,4.073,4.073,0,0,0-.082-.742,2.035,2.035,0,0,0-.246-.645,1.335,1.335,0,0,0-.465-.461,1.538,1.538,0,0,0-.746-.191,2.179,2.179,0,0,0-.859.129,2.018,2.018,0,0,0-.656.406,2.624,2.624,0,0,0-.484.613,4.467,4.467,0,0,0-.344.75,6.648,6.648,0,0,0-.23.816q-.09.418-.145.809l-.328,2.211q-.039.313-.074.7a7.076,7.076,0,0,0-.027.781,4.334,4.334,0,0,0,.082.766,2.174,2.174,0,0,0,.246.668,1.415,1.415,0,0,0,.461.484,1.435,1.435,0,0,0,.742.2,1.989,1.989,0,0,0,.867-.133,2.113,2.113,0,0,0,.656-.426,2.652,2.652,0,0,0,.484-.637,4.855,4.855,0,0,0,.344-.777,6.665,6.665,0,0,0,.227-.832q.086-.422.141-.8ZM69-4.859q-.094.617-.242,1.23a8.653,8.653,0,0,1-.375,1.18A5.69,5.69,0,0,1,67.836-1.4a3.7,3.7,0,0,1-.762.836,3.232,3.232,0,0,1-1.016.547,3.839,3.839,0,0,1-1.3.176A3.037,3.037,0,0,1,63.57-.082a2.4,2.4,0,0,1-.82-.594,2.681,2.681,0,0,1-.508-.859,4.735,4.735,0,0,1-.25-1.039,7.064,7.064,0,0,1-.051-1.133q.02-.582.09-1.145l.258-1.734a12.413,12.413,0,0,1,.234-1.227A8.057,8.057,0,0,1,62.9-8.98a5.576,5.576,0,0,1,.555-1.031,3.628,3.628,0,0,1,.766-.816,3.326,3.326,0,0,1,1.008-.531,3.842,3.842,0,0,1,1.293-.172,3.17,3.17,0,0,1,1.191.23,2.351,2.351,0,0,1,.824.578,2.608,2.608,0,0,1,.508.844,4.6,4.6,0,0,1,.25,1.023,6.939,6.939,0,0,1,.051,1.125q-.02.582-.09,1.145ZM67.891-6.844q.039-.328.074-.707a6.747,6.747,0,0,0,.027-.762,4.074,4.074,0,0,0-.082-.742,2.035,2.035,0,0,0-.246-.645,1.335,1.335,0,0,0-.465-.461,1.538,1.538,0,0,0-.746-.191,2.179,2.179,0,0,0-.859.129,2.018,2.018,0,0,0-.656.406,2.624,2.624,0,0,0-.484.613,4.467,4.467,0,0,0-.344.75,6.648,6.648,0,0,0-.23.816q-.09.418-.145.809l-.328,2.211q-.039.313-.074.7a7.076,7.076,0,0,0-.027.781,4.334,4.334,0,0,0,.082.766,2.174,2.174,0,0,0,.246.668,1.415,1.415,0,0,0,.461.484,1.435,1.435,0,0,0,.742.2,1.989,1.989,0,0,0,.867-.133,2.113,2.113,0,0,0,.656-.426,2.652,2.652,0,0,0,.484-.637,4.855,4.855,0,0,0,.344-.777,6.664,6.664,0,0,0,.227-.832q.086-.422.141-.8ZM77.8-4.859q-.094.617-.242,1.23a8.653,8.653,0,0,1-.375,1.18A5.69,5.69,0,0,1,76.633-1.4a3.7,3.7,0,0,1-.762.836,3.232,3.232,0,0,1-1.016.547,3.839,3.839,0,0,1-1.3.176,3.037,3.037,0,0,1-1.187-.238,2.4,2.4,0,0,1-.82-.594,2.681,2.681,0,0,1-.508-.859,4.735,4.735,0,0,1-.25-1.039,7.063,7.063,0,0,1-.051-1.133q.02-.582.09-1.145l.258-1.734a12.411,12.411,0,0,1,.234-1.227A8.057,8.057,0,0,1,71.7-8.98a5.576,5.576,0,0,1,.555-1.031,3.628,3.628,0,0,1,.766-.816,3.326,3.326,0,0,1,1.008-.531,3.842,3.842,0,0,1,1.293-.172,3.17,3.17,0,0,1,1.191.23,2.351,2.351,0,0,1,.824.578,2.608,2.608,0,0,1,.508.844,4.6,4.6,0,0,1,.25,1.023,6.939,6.939,0,0,1,.051,1.125q-.02.582-.09,1.145ZM76.688-6.844q.039-.328.074-.707a6.747,6.747,0,0,0,.027-.762,4.074,4.074,0,0,0-.082-.742,2.035,2.035,0,0,0-.246-.645A1.335,1.335,0,0,0,76-10.16a1.538,1.538,0,0,0-.746-.191,2.179,2.179,0,0,0-.859.129,2.018,2.018,0,0,0-.656.406,2.624,2.624,0,0,0-.484.613,4.467,4.467,0,0,0-.344.75,6.649,6.649,0,0,0-.23.816q-.09.418-.145.809L72.2-4.617q-.039.313-.074.7a7.075,7.075,0,0,0-.027.781,4.335,4.335,0,0,0,.082.766,2.173,2.173,0,0,0,.246.668,1.415,1.415,0,0,0,.461.484,1.435,1.435,0,0,0,.742.2,1.989,1.989,0,0,0,.867-.133,2.113,2.113,0,0,0,.656-.426,2.652,2.652,0,0,0,.484-.637,4.855,4.855,0,0,0,.344-.777,6.664,6.664,0,0,0,.227-.832q.086-.422.141-.8Z" transform="translate(929 23722)" fill="#12263f"/>
  </g>
</svg>
