<svg xmlns="http://www.w3.org/2000/svg" xmlns:xlink="http://www.w3.org/1999/xlink" width="113" height="113" viewBox="0 0 113 113">
  <defs>
    <filter id="Trazado_896985" x="0" y="0" width="113" height="113" filterUnits="userSpaceOnUse">
      <feOffset dy="3" input="SourceAlpha"/>
      <feGaussianBlur stdDeviation="3" result="blur"/>
      <feFlood flood-opacity="0.161"/>
      <feComposite operator="in" in2="blur"/>
      <feComposite in="SourceGraphic"/>
    </filter>
  </defs>
  <g id="Grupo_1118450" data-name="Grupo 1118450" transform="translate(-591 -2846)">
    <g id="Grupo_1118440" data-name="Grupo 1118440" transform="translate(351.5 683)">
      <g id="Grupo_1111318" data-name="Grupo 1111318" transform="translate(-92.281 -1683)">
        <g id="Grupo_1109826" data-name="Grupo 1109826" transform="translate(340.781 3852)">
          <g id="Grupo_1098742" data-name="Grupo 1098742">
            <g transform="matrix(1, 0, 0, 1, -9, -6)" filter="url(#Trazado_896985)">
              <g id="Trazado_896985-2" data-name="Trazado 896985" transform="translate(9 6)" fill="#e2dacc" opacity="0.859">
                <path d="M 47.49993515014648 93.5 C 41.28932189941406 93.5 35.26528167724609 92.28397369384766 29.59514808654785 89.88571929931641 C 24.1176815032959 87.56894683837891 19.1981086730957 84.25197601318359 14.97306823730469 80.02693176269531 C 10.74802875518799 75.80189514160156 7.431055068969727 70.88231658935547 5.11428165435791 65.40485382080078 C 2.716028451919556 59.73471832275391 1.500001788139343 53.71067810058594 1.500001788139343 47.50006484985352 C 1.500001788139343 41.28932189941406 2.716028451919556 35.26528167724609 5.11428165435791 29.59514617919922 C 7.431055068969727 24.11767959594727 10.74802875518799 19.19810676574707 14.97306823730469 14.97306632995605 C 19.1981086730957 10.74802684783936 24.1176815032959 7.431053161621094 29.59514808654785 5.114280223846436 C 35.26528167724609 2.716026782989502 41.28932189941406 1.5 47.49993515014648 1.5 C 53.71054840087891 1.5 59.73458862304688 2.716026782989502 65.40472412109375 5.114280223846436 C 70.88218688964844 7.431053161621094 75.80176544189453 10.74802684783936 80.02680206298828 14.97306632995605 C 84.25183868408203 19.19810676574707 87.56881713867188 24.11767959594727 89.88558959960938 29.59514617919922 C 92.28384399414062 35.26528167724609 93.49987030029297 41.28932189941406 93.49987030029297 47.49993515014648 C 93.49987030029297 53.71067810058594 92.28384399414062 59.73471832275391 89.88558959960938 65.40485382080078 C 87.56881713867188 70.88231658935547 84.25183868408203 75.80189514160156 80.02680206298828 80.02693176269531 C 75.80176544189453 84.25197601318359 70.88218688964844 87.56894683837891 65.40472412109375 89.88571929931641 C 59.73458862304688 92.28397369384766 53.71054840087891 93.5 47.49993515014648 93.5 Z" stroke="none"/>
                <path d="M 47.49993515014648 3 C 41.49116516113281 3 35.66371917724609 4.176155090332031 30.17947387695312 6.495796203613281 C 24.88081359863281 8.7369384765625 20.12149047851562 11.94596862792969 16.03372192382812 16.03372192382812 C 11.94596862792969 20.12149047851562 8.7369384765625 24.88081359863281 6.495796203613281 30.17947387695312 C 4.1761474609375 35.66372299194336 3 41.49116897583008 3 47.50006103515625 C 3 53.50883102416992 4.1761474609375 59.33627700805664 6.495796203613281 64.82052612304688 C 8.7369384765625 70.11918640136719 11.94596862792969 74.87850952148438 16.03372192382812 78.96627807617188 C 20.12149047851562 83.05403137207031 24.88081359863281 86.2630615234375 30.17947387695312 88.50419616699219 C 35.66371917724609 90.82384490966797 41.49116516113281 92 47.49993515014648 92 C 53.50870513916016 92 59.33615112304688 90.82384490966797 64.82039642333984 88.50419616699219 C 70.11905670166016 86.2630615234375 74.87837982177734 83.05403137207031 78.96614837646484 78.96627807617188 C 83.05390167236328 74.87850952148438 86.26293182373047 70.11918640136719 88.50407409667969 64.82052612304688 C 90.82372283935547 59.33627700805664 91.99987030029297 53.50883102416992 91.99987030029297 47.49993896484375 C 91.99987030029297 41.49116897583008 90.82372283935547 35.66372299194336 88.50407409667969 30.17947387695312 C 86.26293182373047 24.88081359863281 83.05390167236328 20.12149047851562 78.96614837646484 16.03372192382812 C 74.87837982177734 11.94596862792969 70.11905670166016 8.7369384765625 64.82039642333984 6.495796203613281 C 59.33615112304688 4.176155090332031 53.50870513916016 3 47.49993515014648 3 M 47.49993515014648 0 C 73.73342895507812 0 94.99987030029297 21.26644897460938 94.99987030029297 47.49993896484375 L 94.99987030029297 47.50006103515625 C 94.99987030029297 73.73355102539062 73.73342895507812 95 47.49993515014648 95 C 21.26644134521484 95 0 73.73355102539062 0 47.50006103515625 L 0 47.49993896484375 C 0 21.26644897460938 21.26644134521484 0 47.49993515014648 0 Z" stroke="none" fill="#fff"/>
              </g>
            </g>
            <g id="Rectángulo_400907" data-name="Rectángulo 400907" transform="translate(0 0)" fill="none" stroke="#fff" stroke-width="3">
              <rect width="95" height="95" rx="47.5" stroke="none"/>
              <rect x="1.5" y="1.5" width="92" height="92" rx="46" fill="none"/>
            </g>
          </g>
        </g>
      </g>
    </g>
    <g id="analisis12" transform="translate(613.809 2872.99)">
      <g id="Grupo_1118445" data-name="Grupo 1118445" transform="translate(8.032 0.852)">
        <g id="Grupo_1118441" data-name="Grupo 1118441" transform="translate(0)">
          <path id="Trazado_911521" data-name="Trazado 911521" d="M17.39,8.01h46.27a2.211,2.211,0,0,1,2.2,2.2V46.158a2.211,2.211,0,0,1-2.2,2.2H17.39a2.211,2.211,0,0,1-2.2-2.2V10.215a2.211,2.211,0,0,1,2.2-2.2Z" transform="translate(-15.185 -8.01)" fill="#eceff1" fill-rule="evenodd"/>
          <path id="Trazado_911522" data-name="Trazado 911522" d="M455.861,8.01h2.1a2.211,2.211,0,0,1,2.2,2.2V46.158a2.211,2.211,0,0,1-2.2,2.2h-2.1a2.211,2.211,0,0,0,2.2-2.2V10.215a2.211,2.211,0,0,0-2.2-2.2Z" transform="translate(-409.491 -8.01)" fill="#d1d1d6" fill-rule="evenodd"/>
          <path id="Trazado_911523" data-name="Trazado 911523" d="M17.39,8.01H63.66a2.211,2.211,0,0,1,2.2,2.2v5.669H15.185V10.215A2.211,2.211,0,0,1,17.39,8.01Z" transform="translate(-15.185 -8.01)" fill="#a79ba7" fill-rule="evenodd"/>
          <path id="Trazado_911524" data-name="Trazado 911524" d="M455.861,8.01h2.1a2.211,2.211,0,0,1,2.2,2.2v5.669h-2.1V10.215A2.211,2.211,0,0,0,455.861,8.01Z" transform="translate(-409.491 -8.01)" fill="#837683" fill-rule="evenodd"/>
          <path id="Trazado_911525" data-name="Trazado 911525" d="M61.221,35.755a1.288,1.288,0,1,0-1.288-1.288A1.291,1.291,0,0,0,61.221,35.755Z" transform="translate(-55.224 -30.53)" fill="#fe646f" fill-rule="evenodd"/>
          <path id="Trazado_911526" data-name="Trazado 911526" d="M108.225,35.755a1.288,1.288,0,1,0-1.288-1.288A1.291,1.291,0,0,0,108.225,35.755Z" transform="translate(-97.282 -30.53)" fill="#ffe177" fill-rule="evenodd"/>
          <path id="Trazado_911527" data-name="Trazado 911527" d="M155.228,35.755a1.288,1.288,0,1,0-1.288-1.288A1.291,1.291,0,0,0,155.228,35.755Z" transform="translate(-139.34 -30.53)" fill="#6cf5c2" fill-rule="evenodd"/>
        </g>
        <g id="Grupo_1118442" data-name="Grupo 1118442" transform="translate(4.153 9.921)">
          <circle id="Elipse_13518" data-name="Elipse 13518" cx="7.161" cy="7.161" r="7.161" transform="matrix(0.94, -0.34, 0.34, 0.94, 0, 4.869)" fill="#60b7ff"/>
          <circle id="Elipse_13519" data-name="Elipse 13519" cx="6.271" cy="6.271" r="6.271" transform="matrix(0.94, -0.34, 0.34, 0.94, 1.139, 5.403)" fill="#8ac9fe"/>
          <path id="Trazado_911528" data-name="Trazado 911528" d="M141.877,189.393h7.161a7.157,7.157,0,0,1-3.58,6.2Z" transform="translate(-132.699 -180.229)" fill="#fd4755" fill-rule="evenodd"/>
          <path id="Trazado_911529" data-name="Trazado 911529" d="M141.877,189.393h6.271a6.268,6.268,0,0,1-3.135,5.431Z" transform="translate(-132.699 -180.229)" fill="#fe646f" fill-rule="evenodd"/>
          <path id="Trazado_911530" data-name="Trazado 911530" d="M149.037,128.5h-7.161v-7.161A7.161,7.161,0,0,1,149.037,128.5Z" transform="translate(-132.698 -119.339)" fill="#ffd064" fill-rule="evenodd"/>
          <path id="Trazado_911531" data-name="Trazado 911531" d="M148.147,136.069h-6.271V129.8A6.271,6.271,0,0,1,148.147,136.069Z" transform="translate(-132.698 -126.904)" fill="#ffe177" fill-rule="evenodd"/>
        </g>
        <g id="Grupo_1118443" data-name="Grupo 1118443" transform="translate(32.068 19.859)">
          <path id="Trazado_911532" data-name="Trazado 911532" d="M320.467,246.969h1.41a.527.527,0,0,1,.526.526v8.332a.527.527,0,0,1-.526.526h-1.41a.527.527,0,0,1-.526-.526V247.5A.527.527,0,0,1,320.467,246.969Z" transform="translate(-319.941 -241.684)" fill="#ffe177" fill-rule="evenodd"/>
          <path id="Trazado_911533" data-name="Trazado 911533" d="M328.341,246.969h1.052a.527.527,0,0,1,.526.526v8.332a.527.527,0,0,1-.526.526h-1.052a.527.527,0,0,0,.526-.526V247.5A.527.527,0,0,0,328.341,246.969Z" transform="translate(-327.457 -241.684)" fill="#ffd064" fill-rule="evenodd"/>
          <path id="Trazado_911534" data-name="Trazado 911534" d="M370.806,221.854h1.41a.527.527,0,0,1,.526.526v10.975a.527.527,0,0,1-.526.526h-1.41a.527.527,0,0,1-.526-.526V222.38A.527.527,0,0,1,370.806,221.854Z" transform="translate(-364.983 -219.211)" fill="#6cf5c2" fill-rule="evenodd"/>
          <path id="Trazado_911535" data-name="Trazado 911535" d="M378.68,221.854h1.052a.527.527,0,0,1,.526.526v10.975a.527.527,0,0,1-.526.526H378.68a.527.527,0,0,0,.526-.526V222.38A.527.527,0,0,0,378.68,221.854Z" transform="translate(-372.499 -219.211)" fill="#00e499" fill-rule="evenodd"/>
          <path id="Trazado_911536" data-name="Trazado 911536" d="M421.145,196.74h1.41a.527.527,0,0,1,.526.526v13.617a.527.527,0,0,1-.526.526h-1.41a.527.527,0,0,1-.526-.526V197.266A.527.527,0,0,1,421.145,196.74Z" transform="translate(-410.025 -196.74)" fill="#8ac9fe" fill-rule="evenodd"/>
          <path id="Trazado_911537" data-name="Trazado 911537" d="M429.019,196.74h1.052a.527.527,0,0,1,.526.526v13.617a.527.527,0,0,1-.526.526h-1.052a.527.527,0,0,0,.526-.526V197.266A.527.527,0,0,0,429.019,196.74Z" transform="translate(-417.541 -196.74)" fill="#60b7ff" fill-rule="evenodd"/>
        </g>
        <g id="Grupo_1118444" data-name="Grupo 1118444" transform="translate(10.524 22.604)">
          <path id="Trazado_911538" data-name="Trazado 911538" d="M293.607,392.841a9.388,9.388,0,0,1-1.583,1.743l4.305,4.22,1.639-1.689Z" transform="translate(-273.417 -374.951)" fill="#a79ba7" fill-rule="evenodd"/>
          <path id="Trazado_911539" data-name="Trazado 911539" d="M303.363,392.565a1.081,1.081,0,0,1-.469.628l4.277,4.249.524-.574Z" transform="translate(-283.144 -374.704)" fill="#837683" fill-rule="evenodd"/>
          <path id="Trazado_911540" data-name="Trazado 911540" d="M328.8,430.86l1.85-1.906a.851.851,0,0,0-.018-1.2l-5.123-4.972a.851.851,0,0,0-1.2.018l-1.85,1.906a.851.851,0,0,0,.018,1.2l5.123,4.972A.851.851,0,0,0,328.8,430.86Z" transform="translate(-300.44 -401.529)" fill="#f1ba84" fill-rule="evenodd"/>
          <path id="Trazado_911541" data-name="Trazado 911541" d="M344.466,422.785l5.123,4.972a.851.851,0,0,1,.018,1.2l-1.85,1.906a.842.842,0,0,1-.23.168.852.852,0,0,0,.988-.168l1.85-1.906a.851.851,0,0,0-.018-1.2l-5.123-4.972a.851.851,0,0,0-.97-.15A.839.839,0,0,1,344.466,422.785Z" transform="translate(-320.151 -401.531)" fill="#e3a76f" fill-rule="evenodd"/>
          <ellipse id="Elipse_13520" data-name="Elipse 13520" cx="9.33" cy="9.33" rx="9.33" ry="9.33" transform="translate(0 13.192) rotate(-45)" fill="#8ac9fe"/>
          <path id="Trazado_911542" data-name="Trazado 911542" d="M236.778,259.543a9.33,9.33,0,0,1,0,18.659q-.228,0-.453-.011a9.329,9.329,0,0,0,0-18.637Q236.55,259.543,236.778,259.543Z" transform="translate(-223.579 -255.679)" fill="#60b7ff" fill-rule="evenodd"/>
          <circle id="Elipse_13521" data-name="Elipse 13521" cx="6.699" cy="6.699" r="6.699" transform="translate(4.457 9.565) rotate(-22.514)" fill="#eceff1"/>
          <path id="Trazado_911543" data-name="Trazado 911543" d="M183.662,284.541c.152,0,.3.006.453.016a6.7,6.7,0,0,0,0,13.367c-.15.01-.3.016-.453.016a6.7,6.7,0,0,1,0-13.4Z" transform="translate(-170.464 -278.047)" fill="#d1d1d6" fill-rule="evenodd"/>
        </g>
      </g>
      <path id="Trazado_911544" data-name="Trazado 911544" d="M31.755,42.506a5.857,5.857,0,1,1,5.857-5.856A5.865,5.865,0,0,1,31.755,42.506Zm0-13.4a7.541,7.541,0,1,0,7.54,7.542A7.55,7.55,0,0,0,31.755,29.108Zm12.361-11.7a.842.842,0,0,1-.842.842h-8.22a.842.842,0,1,1,0-1.683h8.22A.842.842,0,0,1,44.115,17.409Zm-9.9-3.557a.842.842,0,0,1,.842-.842h16.44a.842.842,0,1,1,0,1.684H35.053A.841.841,0,0,1,34.212,13.851Zm18.1,20.687h-.779V21.553h.779Zm.841-14.669H50.694a.841.841,0,0,0-.842.842V35.38a.842.842,0,0,0,.842.842h2.462A.842.842,0,0,0,54,35.38V20.711A.841.841,0,0,0,53.156,19.869ZM47.018,34.538h-.779V24.195h.779Zm.842-12.027H45.4a.842.842,0,0,0-.842.842V35.38a.842.842,0,0,0,.842.842h2.462a.841.841,0,0,0,.841-.842V23.353A.842.842,0,0,0,47.859,22.511Zm-30.077,12.8a.841.841,0,0,1-.841.841H14.2a.842.842,0,1,1,0-1.683h2.738A.841.841,0,0,1,17.783,35.309Zm0-3.678a.841.841,0,0,1-.841.842H14.2a.842.842,0,1,1,0-1.683h2.738A.841.841,0,0,1,17.783,31.631Zm7.478-6.725L22.835,20.78l4.79,0a6.318,6.318,0,0,1-2.364,4.124ZM15.045,19.937a6.318,6.318,0,0,0,8.767,5.825l-3.174-5.4a.843.843,0,0,1-.116-.427V13.677a6.328,6.328,0,0,0-5.477,6.261Zm12.58-.838-5.419,0v-5.42A6.33,6.33,0,0,1,27.624,19.1Zm-6.261-7.163a8,8,0,1,0,8,8,8.011,8.011,0,0,0-8-8Zm1.269-7.147a1.289,1.289,0,1,1,1.289,1.289A1.291,1.291,0,0,1,22.633,4.788Zm-4.946,0a1.289,1.289,0,1,1,1.288,1.289A1.291,1.291,0,0,1,17.687,4.788Zm-4.946,0a1.288,1.288,0,1,1,1.289,1.289A1.291,1.291,0,0,1,12.741,4.788ZM56.506,40.363A1.365,1.365,0,0,0,57.869,39V9.568H8.875V39a1.365,1.365,0,0,0,1.363,1.363H22.285a10.112,10.112,0,0,1-.7-3.713q0-.252.011-.5H20.162a.842.842,0,1,1,0-1.683h1.657a10.175,10.175,0,0,1,.661-1.994H20.162a.842.842,0,1,1,0-1.683h3.283a10.158,10.158,0,0,1,15.813-1V26a.842.842,0,0,1,.842-.842h2.462A.842.842,0,0,1,43.4,26V35.38a.842.842,0,0,1-.842.842h-.646c.006.142.009.284.009.427a10.1,10.1,0,0,1-.7,3.713ZM43.042,45.313l5.124,4.981L46.316,52.2h-.01l-5.123-4.98Zm-2.376.021-1.636-1.587c.156-.16.307-.324.453-.495l1.65,1.6Zm1.054-10.8h-.015a10.076,10.076,0,0,0-.764-2.251V26.838h.779v7.7ZM23.267,36.649a8.487,8.487,0,1,0,8.488-8.489,8.5,8.5,0,0,0-8.488,8.489ZM10.237,1.694A1.364,1.364,0,0,0,8.875,3.056V7.884H57.869V3.056a1.364,1.364,0,0,0-1.363-1.362H10.237ZM56.506.01H10.237A3.05,3.05,0,0,0,7.191,3.056V39a3.049,3.049,0,0,0,3.046,3.047h12.9a10.158,10.158,0,0,0,14.618,2.809L39.6,46.646a1.693,1.693,0,0,0,.41,1.791l5.123,4.972a1.693,1.693,0,0,0,2.39-.037l1.85-1.906a1.693,1.693,0,0,0-.036-2.39l-5.123-4.972a1.689,1.689,0,0,0-1.8-.355l-1.755-1.7H56.506A3.049,3.049,0,0,0,59.553,39V3.056A3.049,3.049,0,0,0,56.506.01Z" fill-rule="evenodd"/>
    </g>
  </g>
</svg>
