<svg xmlns="http://www.w3.org/2000/svg" width="259" height="80" viewBox="0 0 259 80">
  <g id="Grupo_1118349" data-name="Grupo 1118349" transform="translate(-436 -3916)">
    <rect id="Rectángulo_406788" data-name="Rectángulo 406788" width="259" height="80" rx="12" transform="translate(436 3916)" fill="#feead4"/>
    <path id="Trazado_911662" data-name="Trazado 911662" d="M6.855-5.572a6.3,6.3,0,0,0,.193-1.3.886.886,0,0,0-.114-.51.414.414,0,0,0-.36-.158A.983.983,0,0,0,6-7.317a6.308,6.308,0,0,0-.831.813L4.667-7A8.725,8.725,0,0,1,6.012-8.2a2.143,2.143,0,0,1,1.213-.356,1.1,1.1,0,0,1,.875.365,1.391,1.391,0,0,1,.321.954A3.025,3.025,0,0,1,8.209-6.2l.105.035a8.131,8.131,0,0,1,1.639-1.8,2.642,2.642,0,0,1,1.6-.584,1.636,1.636,0,0,1,1.257.47,1.837,1.837,0,0,1,.439,1.305A7.017,7.017,0,0,1,13-5.194l-.571,2.3a6.607,6.607,0,0,0-.237,1.354.886.886,0,0,0,.114.51.414.414,0,0,0,.36.158.978.978,0,0,0,.563-.215,6.176,6.176,0,0,0,.844-.822l.5.492A7.951,7.951,0,0,1,13.254-.233a2.266,2.266,0,0,1-1.283.374,1.133,1.133,0,0,1-.914-.409,1.565,1.565,0,0,1-.343-1.042A7.271,7.271,0,0,1,11-2.988l.387-1.521q.211-.826.277-1.222a4.082,4.082,0,0,0,.066-.642,1.474,1.474,0,0,0-.2-.875.772.772,0,0,0-.659-.268,1.424,1.424,0,0,0-.8.294,4.535,4.535,0,0,0-.905.888A6.967,6.967,0,0,0,8.4-5.181a5.738,5.738,0,0,0-.475,1.375L7.093,0H5.572Zm15.618.5-5.106,6.1h7.919V2.364h-9.9V1.107l5.353-6.293L15.39-11.531V-12.8h9.22v1.336H17.358l5.115,6.17Zm11.5,1.1q-.132-.694-.272-1.336t-.29-1.2a3.784,3.784,0,0,0-.246-.725.627.627,0,0,0-.207-.237.531.531,0,0,0-.277-.066.673.673,0,0,0-.334.083,1.27,1.27,0,0,0-.325.29,7.1,7.1,0,0,0-.466.646l-.571-.378a5.564,5.564,0,0,1,1.063-1.248,1.854,1.854,0,0,1,1.2-.413,1.683,1.683,0,0,1,.479.062,1.055,1.055,0,0,1,.365.189,1.255,1.255,0,0,1,.281.33,2.706,2.706,0,0,1,.237.549,7.343,7.343,0,0,1,.215.861q.1.514.18,1.068h.088q.844-1.187,1.279-1.736a6.854,6.854,0,0,1,.734-.817,1.977,1.977,0,0,1,.576-.378,2.028,2.028,0,0,1,.734-.11,1.843,1.843,0,0,1,.677.105l-.352,1.591h-.615q-.053-.369-.308-.369a.581.581,0,0,0-.167.026.82.82,0,0,0-.215.114,2.89,2.89,0,0,0-.374.343q-.246.255-.554.624t-.633.773l-.6.747q.158.844.3,1.459t.25,1.024q.11.409.193.646a1.207,1.207,0,0,0,.18.356.6.6,0,0,0,.2.167.534.534,0,0,0,.233.048.721.721,0,0,0,.461-.185A4.117,4.117,0,0,0,37.74-1.9l.571.378A5.414,5.414,0,0,1,37.2-.233a1.911,1.911,0,0,1-1.182.374A1.384,1.384,0,0,1,35.376,0a1.216,1.216,0,0,1-.457-.435,3.1,3.1,0,0,1-.343-.932,14.077,14.077,0,0,1-.334-1.723h-.088Q33.223-1.775,32.77-1.2a7.814,7.814,0,0,1-.747.844,1.89,1.89,0,0,1-.571.382,2.028,2.028,0,0,1-.734.11,1.843,1.843,0,0,1-.677-.105l.352-1.591h.615q.053.369.308.369a.6.6,0,0,0,.259-.066,1.768,1.768,0,0,0,.391-.316q.255-.25.7-.787T33.97-3.973ZM43.655.018q-.255-1.538-.694-3.709-.466-2.32-.615-2.874a1.953,1.953,0,0,0-.387-.853.435.435,0,0,0-.308-.114.765.765,0,0,0-.527.229,4.3,4.3,0,0,0-.606.791l-.571-.378A4.926,4.926,0,0,1,41.08-8.169a1.99,1.99,0,0,1,1.178-.374,1.739,1.739,0,0,1,.615.1,1.161,1.161,0,0,1,.352.233,1.446,1.446,0,0,1,.312.453,4.2,4.2,0,0,1,.237.65q.1.36.224,1.037.211,1.134.409,2.386t.338,2.325a20.219,20.219,0,0,0,1.446-2.408,12.854,12.854,0,0,0,.853-2.048A5.208,5.208,0,0,0,47.3-7.233a.717.717,0,0,0-.176-.562,1.033,1.033,0,0,0-.6-.176l.088-.431h2.312l.237.439a28.667,28.667,0,0,1-1.811,3.911A40.723,40.723,0,0,1,44.78.009a20,20,0,0,1-2.312,2.786,4.478,4.478,0,0,1-1.239.844,2.653,2.653,0,0,1-1.011.193,3.424,3.424,0,0,1-.426-.031,1.59,1.59,0,0,1-.374-.083L39.8,2.013h.694q0,.563.387.563a1.892,1.892,0,0,0,1.187-.637A13.357,13.357,0,0,0,43.655.018Zm14.59-5.739H50.906V-7.049h7.339Zm2.637.527a13.589,13.589,0,0,1,.532-3.814A11.081,11.081,0,0,1,63-12.331a6.749,6.749,0,0,1,2.188-2.109l.334,1.072a7,7,0,0,0-2.1,3.006,13.031,13.031,0,0,0-.9,4.526l-.009.747A13.1,13.1,0,0,0,63.747.8a7.033,7.033,0,0,0,1.775,2.338l-.334.993a6.966,6.966,0,0,1-2.232-2.18A12.217,12.217,0,0,1,60.882-5.194Zm12.674.123-5.106,6.1h7.919V2.364h-9.9V1.107l5.353-6.293-5.353-6.346V-12.8h9.22v1.336H68.44l5.115,6.17Zm11.5,1.1q-.132-.694-.272-1.336t-.29-1.2a3.784,3.784,0,0,0-.246-.725.627.627,0,0,0-.207-.237.531.531,0,0,0-.277-.066.673.673,0,0,0-.334.083,1.27,1.27,0,0,0-.325.29,7.1,7.1,0,0,0-.466.646l-.571-.378a5.564,5.564,0,0,1,1.063-1.248,1.854,1.854,0,0,1,1.2-.413,1.683,1.683,0,0,1,.479.062,1.055,1.055,0,0,1,.365.189,1.255,1.255,0,0,1,.281.33,2.706,2.706,0,0,1,.237.549,7.343,7.343,0,0,1,.215.861q.1.514.18,1.068h.088q.844-1.187,1.279-1.736a6.854,6.854,0,0,1,.734-.817,1.977,1.977,0,0,1,.576-.378,2.028,2.028,0,0,1,.734-.11,1.843,1.843,0,0,1,.677.105l-.352,1.591h-.615q-.053-.369-.308-.369a.581.581,0,0,0-.167.026.82.82,0,0,0-.215.114,2.89,2.89,0,0,0-.374.343q-.246.255-.554.624t-.633.773l-.6.747q.158.844.3,1.459t.25,1.024q.11.409.193.646a1.207,1.207,0,0,0,.18.356.6.6,0,0,0,.2.167.534.534,0,0,0,.233.048.721.721,0,0,0,.461-.185,4.117,4.117,0,0,0,.646-.835l.571.378A5.414,5.414,0,0,1,88.282-.233,1.911,1.911,0,0,1,87.1.141,1.384,1.384,0,0,1,86.458,0,1.216,1.216,0,0,1,86-.431a3.1,3.1,0,0,1-.343-.932,14.077,14.077,0,0,1-.334-1.723h-.088Q84.3-1.775,83.852-1.2A7.814,7.814,0,0,1,83.1-.36a1.89,1.89,0,0,1-.571.382,2.028,2.028,0,0,1-.734.11,1.843,1.843,0,0,1-.677-.105l.352-1.591h.615q.053.369.308.369a.6.6,0,0,0,.259-.066,1.768,1.768,0,0,0,.391-.316q.255-.25.7-.787T85.052-3.973ZM95.423-5.106a13.6,13.6,0,0,1-.514,3.757,11.11,11.11,0,0,1-1.573,3.318,6.893,6.893,0,0,1-2.219,2.162l-.343-.993A7.066,7.066,0,0,0,92.949-.083a13.935,13.935,0,0,0,.839-4.847v-.281A14.469,14.469,0,0,0,93.4-8.644a11.583,11.583,0,0,0-1.077-2.843,6.567,6.567,0,0,0-1.551-1.96l.343-.993a6.866,6.866,0,0,1,2.21,2.145A11.134,11.134,0,0,1,94.9-8.982,13.909,13.909,0,0,1,95.423-5.106Zm2.443-.088A13.589,13.589,0,0,1,98.4-9.009a11.081,11.081,0,0,1,1.586-3.322,6.749,6.749,0,0,1,2.188-2.109l.334,1.072a7,7,0,0,0-2.1,3.006,13.031,13.031,0,0,0-.9,4.526l-.009.747A13.1,13.1,0,0,0,100.731.8a7.033,7.033,0,0,0,1.775,2.338l-.334.993a6.966,6.966,0,0,1-2.232-2.18A12.217,12.217,0,0,1,97.866-5.194Zm12.674.123-5.106,6.1h7.919V2.364h-9.9V1.107l5.353-6.293-5.353-6.346V-12.8h9.22v1.336h-7.251l5.115,6.17Zm11.6,5.089q-.255-1.538-.694-3.709-.466-2.32-.615-2.874a1.953,1.953,0,0,0-.387-.853.435.435,0,0,0-.308-.114.765.765,0,0,0-.527.229,4.3,4.3,0,0,0-.606.791l-.571-.378a4.926,4.926,0,0,1,1.134-1.279,1.99,1.99,0,0,1,1.178-.374,1.739,1.739,0,0,1,.615.1,1.161,1.161,0,0,1,.352.233,1.446,1.446,0,0,1,.312.453,4.2,4.2,0,0,1,.237.65q.1.36.224,1.037.211,1.134.409,2.386t.338,2.325a20.219,20.219,0,0,0,1.446-2.408,12.854,12.854,0,0,0,.853-2.048,5.208,5.208,0,0,0,.259-1.415.717.717,0,0,0-.176-.562,1.033,1.033,0,0,0-.6-.176L125.1-8.4h2.312l.237.439a28.667,28.667,0,0,1-1.811,3.911A40.723,40.723,0,0,1,123.267.009a20,20,0,0,1-2.312,2.786,4.478,4.478,0,0,1-1.239.844,2.653,2.653,0,0,1-1.011.193,3.424,3.424,0,0,1-.426-.031,1.59,1.59,0,0,1-.374-.083l.378-1.705h.694q0,.563.387.563a1.892,1.892,0,0,0,1.187-.637A13.357,13.357,0,0,0,122.142.018ZM132.9-5.106a13.6,13.6,0,0,1-.514,3.757,11.11,11.11,0,0,1-1.573,3.318,6.893,6.893,0,0,1-2.219,2.162l-.343-.993a7.066,7.066,0,0,0,2.175-3.221,13.935,13.935,0,0,0,.839-4.847v-.281a14.469,14.469,0,0,0-.387-3.432,11.583,11.583,0,0,0-1.077-2.843,6.567,6.567,0,0,0-1.551-1.96l.343-.993A6.866,6.866,0,0,1,130.8-12.3a11.134,11.134,0,0,1,1.573,3.313A13.909,13.909,0,0,1,132.9-5.106Z" transform="translate(515 3944)" fill="#12263f"/>
    <path id="Trazado_911664" data-name="Trazado 911664" d="M6.3,0H.709V-.779L3.662-4.061a7.016,7.016,0,0,0,.905-1.21,2.019,2.019,0,0,0,.249-.964,1.531,1.531,0,0,0-.4-1.1,1.414,1.414,0,0,0-1.078-.428,1.674,1.674,0,0,0-1.257.46,1.757,1.757,0,0,0-.448,1.28H.545a2.516,2.516,0,0,1,.759-1.9,2.813,2.813,0,0,1,2.03-.727,2.7,2.7,0,0,1,1.881.624,2.129,2.129,0,0,1,.691,1.661,4.88,4.88,0,0,1-1.605,3L2.016-.885H6.3Z" transform="translate(628 3970)" fill="#12263f"/>
    <path id="Trazado_911663" data-name="Trazado 911663" d="M2.4-5.572a6.3,6.3,0,0,0,.193-1.3.886.886,0,0,0-.114-.51.414.414,0,0,0-.36-.158.983.983,0,0,0-.576.224A6.308,6.308,0,0,0,.712-6.5L.211-7A8.725,8.725,0,0,1,1.556-8.2a2.143,2.143,0,0,1,1.213-.356,1.1,1.1,0,0,1,.875.365,1.391,1.391,0,0,1,.321.954A3.025,3.025,0,0,1,3.753-6.2l.105.035A8.131,8.131,0,0,1,5.5-7.958a2.642,2.642,0,0,1,1.6-.584,1.636,1.636,0,0,1,1.257.47A1.837,1.837,0,0,1,8.8-6.768a7.017,7.017,0,0,1-.255,1.573l-.571,2.3a6.607,6.607,0,0,0-.237,1.354.886.886,0,0,0,.114.51.414.414,0,0,0,.36.158.978.978,0,0,0,.563-.215,6.176,6.176,0,0,0,.844-.822l.5.492A7.951,7.951,0,0,1,8.8-.233,2.266,2.266,0,0,1,7.515.141,1.133,1.133,0,0,1,6.6-.268,1.565,1.565,0,0,1,6.258-1.31a7.271,7.271,0,0,1,.29-1.679l.387-1.521q.211-.826.277-1.222a4.082,4.082,0,0,0,.066-.642,1.474,1.474,0,0,0-.2-.875.772.772,0,0,0-.659-.268,1.424,1.424,0,0,0-.8.294,4.535,4.535,0,0,0-.905.888,6.967,6.967,0,0,0-.769,1.151,5.738,5.738,0,0,0-.475,1.375L2.637,0H1.116Zm15.618.5-5.106,6.1H20.83V2.364h-9.9V1.107l5.353-6.293-5.353-6.346V-12.8h9.22v1.336H12.9l5.115,6.17Zm11.5,1.1q-.132-.694-.272-1.336t-.29-1.2a3.784,3.784,0,0,0-.246-.725.627.627,0,0,0-.207-.237.531.531,0,0,0-.277-.066.673.673,0,0,0-.334.083,1.27,1.27,0,0,0-.325.29,7.1,7.1,0,0,0-.466.646l-.571-.378a5.564,5.564,0,0,1,1.063-1.248,1.854,1.854,0,0,1,1.2-.413,1.683,1.683,0,0,1,.479.062,1.055,1.055,0,0,1,.365.189,1.255,1.255,0,0,1,.281.33,2.706,2.706,0,0,1,.237.549,7.343,7.343,0,0,1,.215.861q.1.514.18,1.068h.088q.844-1.187,1.279-1.736a6.854,6.854,0,0,1,.734-.817,1.977,1.977,0,0,1,.576-.378,2.028,2.028,0,0,1,.734-.11,1.843,1.843,0,0,1,.677.105l-.352,1.591h-.615q-.053-.369-.308-.369a.581.581,0,0,0-.167.026.82.82,0,0,0-.215.114,2.89,2.89,0,0,0-.374.343q-.246.255-.554.624t-.633.773l-.6.747q.158.844.3,1.459t.25,1.024q.11.409.193.646a1.207,1.207,0,0,0,.18.356.6.6,0,0,0,.2.167.534.534,0,0,0,.233.048.721.721,0,0,0,.461-.185,4.117,4.117,0,0,0,.646-.835l.571.378A5.414,5.414,0,0,1,32.744-.233a1.911,1.911,0,0,1-1.182.374A1.384,1.384,0,0,1,30.92,0a1.216,1.216,0,0,1-.457-.435,3.1,3.1,0,0,1-.343-.932,14.077,14.077,0,0,1-.334-1.723H29.7q-.932,1.31-1.384,1.881a7.814,7.814,0,0,1-.747.844A1.89,1.89,0,0,1,27,.022a2.028,2.028,0,0,1-.734.11,1.843,1.843,0,0,1-.677-.105l.352-1.591h.615q.053.369.308.369a.6.6,0,0,0,.259-.066,1.768,1.768,0,0,0,.391-.316q.255-.25.7-.787T29.514-3.973ZM44.35,0H35.965V-1.169l4.43-4.922a10.524,10.524,0,0,0,1.358-1.815,3.029,3.029,0,0,0,.374-1.446A2.3,2.3,0,0,0,41.52-11a2.12,2.12,0,0,0-1.617-.642,2.511,2.511,0,0,0-1.885.69,2.635,2.635,0,0,0-.672,1.92H35.719a3.774,3.774,0,0,1,1.138-2.856,4.219,4.219,0,0,1,3.045-1.09,4.054,4.054,0,0,1,2.821.936,3.193,3.193,0,0,1,1.037,2.492q0,1.89-2.408,4.5L37.925-1.327H44.35Zm9.475-5.722H46.485V-7.049h7.339Zm2.637.527a13.589,13.589,0,0,1,.532-3.814,11.081,11.081,0,0,1,1.586-3.322,6.749,6.749,0,0,1,2.188-2.109l.334,1.072A7,7,0,0,0,59-10.362a13.031,13.031,0,0,0-.9,4.526l-.009.747A13.1,13.1,0,0,0,59.326.8,7.033,7.033,0,0,0,61.1,3.138l-.334.993a6.966,6.966,0,0,1-2.232-2.18A12.217,12.217,0,0,1,56.461-5.194Zm12.674.123-5.106,6.1h7.919V2.364h-9.9V1.107L67.4-5.186l-5.353-6.346V-12.8h9.22v1.336H64.02l5.115,6.17Zm11.5,1.1q-.132-.694-.272-1.336t-.29-1.2a3.784,3.784,0,0,0-.246-.725.627.627,0,0,0-.207-.237.531.531,0,0,0-.277-.066A.673.673,0,0,0,79-7.449a1.27,1.27,0,0,0-.325.29,7.1,7.1,0,0,0-.466.646l-.571-.378a5.564,5.564,0,0,1,1.063-1.248,1.854,1.854,0,0,1,1.2-.413,1.683,1.683,0,0,1,.479.062,1.055,1.055,0,0,1,.365.189,1.255,1.255,0,0,1,.281.33,2.706,2.706,0,0,1,.237.549,7.343,7.343,0,0,1,.215.861q.1.514.18,1.068h.088Q82.6-6.68,83.035-7.229a6.854,6.854,0,0,1,.734-.817,1.977,1.977,0,0,1,.576-.378,2.028,2.028,0,0,1,.734-.11,1.843,1.843,0,0,1,.677.105L85.4-6.838h-.615q-.053-.369-.308-.369a.581.581,0,0,0-.167.026.82.82,0,0,0-.215.114,2.89,2.89,0,0,0-.374.343q-.246.255-.554.624t-.633.773l-.6.747q.158.844.3,1.459T82.49-2.1q.11.409.193.646a1.207,1.207,0,0,0,.18.356.6.6,0,0,0,.2.167.534.534,0,0,0,.233.048.721.721,0,0,0,.461-.185A4.117,4.117,0,0,0,84.4-1.9l.571.378A5.414,5.414,0,0,1,83.861-.233a1.911,1.911,0,0,1-1.182.374A1.384,1.384,0,0,1,82.037,0a1.216,1.216,0,0,1-.457-.435,3.1,3.1,0,0,1-.343-.932A14.077,14.077,0,0,1,80.9-3.085h-.088q-.932,1.31-1.384,1.881a7.814,7.814,0,0,1-.747.844,1.89,1.89,0,0,1-.571.382,2.028,2.028,0,0,1-.734.11A1.843,1.843,0,0,1,76.7.026l.352-1.591h.615q.053.369.308.369a.6.6,0,0,0,.259-.066,1.768,1.768,0,0,0,.391-.316q.255-.25.7-.787T80.631-3.973ZM91-5.106a13.6,13.6,0,0,1-.514,3.757,11.11,11.11,0,0,1-1.573,3.318A6.893,6.893,0,0,1,86.7,4.131l-.343-.993A7.066,7.066,0,0,0,88.528-.083a13.935,13.935,0,0,0,.839-4.847v-.281a14.469,14.469,0,0,0-.387-3.432A11.583,11.583,0,0,0,87.9-11.487a6.567,6.567,0,0,0-1.551-1.96l.343-.993a6.866,6.866,0,0,1,2.21,2.145,11.134,11.134,0,0,1,1.573,3.313A13.909,13.909,0,0,1,91-5.106Z" transform="translate(532 3981)" fill="#12263f"/>
    <path id="Trazado_911474" data-name="Trazado 911474" d="M-4183.234-7697.922h141.75" transform="translate(4694 11653.922)" fill="none" stroke="#000" stroke-width="0.5"/>
    <path id="Trazado_911665" data-name="Trazado 911665" d="M3.867-6.17A7.08,7.08,0,0,1,5.476-7.958a2.723,2.723,0,0,1,1.617-.584,1.655,1.655,0,0,1,1.283.479A1.978,1.978,0,0,1,8.815-6.68v.123a1.066,1.066,0,0,1-.009.132,6.432,6.432,0,0,1,1.507-1.6,2.7,2.7,0,0,1,1.56-.523,1.633,1.633,0,0,1,1.248.466,1.834,1.834,0,0,1,.439,1.31,7.017,7.017,0,0,1-.255,1.573l-.571,2.3A6.607,6.607,0,0,0,12.5-1.538a.886.886,0,0,0,.114.51.414.414,0,0,0,.36.158.978.978,0,0,0,.563-.215,6.176,6.176,0,0,0,.844-.822l.5.492A8.312,8.312,0,0,1,13.562-.237a2.247,2.247,0,0,1-1.283.378,1.133,1.133,0,0,1-.914-.409,1.565,1.565,0,0,1-.343-1.042,7.271,7.271,0,0,1,.29-1.679L11.7-4.509q.211-.826.277-1.222a4.081,4.081,0,0,0,.066-.642,1.474,1.474,0,0,0-.2-.875.772.772,0,0,0-.659-.268,1.461,1.461,0,0,0-.791.277,4.007,4.007,0,0,0-.888.861,7.144,7.144,0,0,0-.76,1.151,5.538,5.538,0,0,0-.47,1.384L7.471,0H5.95L6.961-4.465q.185-.817.25-1.208a4.135,4.135,0,0,0,.066-.672,1.414,1.414,0,0,0-.224-.9.86.86,0,0,0-.7-.268,1.443,1.443,0,0,0-.76.277,4.035,4.035,0,0,0-.91.888,6.443,6.443,0,0,0-.756,1.173,6.466,6.466,0,0,0-.457,1.371L2.637,0H1.116L2.4-5.572a6.3,6.3,0,0,0,.193-1.3.886.886,0,0,0-.114-.51.414.414,0,0,0-.36-.158.983.983,0,0,0-.576.224A6.308,6.308,0,0,0,.712-6.5L.211-7A8.576,8.576,0,0,1,1.542-8.178a2.158,2.158,0,0,1,1.226-.374,1.1,1.1,0,0,1,.875.365,1.391,1.391,0,0,1,.321.954,2.962,2.962,0,0,1-.2,1.028Zm19.89-.984h-7.33V-8.569h7.33Zm0,3.647h-7.33V-4.913h7.33Z" transform="translate(471 3960)" fill="#12263f"/>
  </g>
</svg>
