<svg xmlns="http://www.w3.org/2000/svg" width="313.409" height="39.627" viewBox="0 0 313.409 39.627">
  <path id="Trazado_911693" data-name="Trazado 911693" d="M12.05-12h2.769l-.1.431a1.635,1.635,0,0,0-.479.158.868.868,0,0,0-.264.264,2.241,2.241,0,0,0-.237.549q-.119.374-.3,1.217l-1.5,6.82q-.114.519-.149.822a4.809,4.809,0,0,0-.035.549.686.686,0,0,0,.2.558,1.2,1.2,0,0,0,.664.2l-.1.431H9l.1-.431A1.2,1.2,0,0,0,9.6-.6a.949.949,0,0,0,.281-.33,3,3,0,0,0,.211-.514q.1-.3.29-1.173l1.169-5.3q.246-1.1.563-2.188h-.123q-.272.519-1.23,2.109l-4,6.6H5.8L5.071-7.049q-.158-1.2-.352-3.217H4.544q-.3,1.969-.668,3.647l-.9,4.061a6.618,6.618,0,0,0-.185,1.371.686.686,0,0,0,.2.558,1.2,1.2,0,0,0,.664.2L3.56,0H.483l.1-.431a1.2,1.2,0,0,0,.5-.171.949.949,0,0,0,.281-.33,3,3,0,0,0,.211-.514q.1-.3.29-1.173L3.357-9.387q.088-.378.141-.721a4.56,4.56,0,0,0,.053-.694.694.694,0,0,0-.207-.576,1.175,1.175,0,0,0-.655-.189l.1-.431H5.924l1,8.525ZM15.785-.826a1,1,0,0,1,.272-.716.987.987,0,0,1,.7-.3.952.952,0,0,1,.712.264.908.908,0,0,1,.272.7.95.95,0,0,1-.29.7,1.046,1.046,0,0,1-.7.286,1.006,1.006,0,0,1-.391-.057.863.863,0,0,1-.308-.189.846.846,0,0,1-.2-.3A1.032,1.032,0,0,1,15.785-.826ZM27.457-12.138a3.4,3.4,0,0,1,2.615.984,4.025,4.025,0,0,1,.918,2.848,11.718,11.718,0,0,1-.466,3.063A9.261,9.261,0,0,1,29.175-2.3,5.886,5.886,0,0,1,27.158-.453a4.993,4.993,0,0,1-2.373.6A3.48,3.48,0,0,1,22.1-.835a3.983,3.983,0,0,1-.914-2.812,11.675,11.675,0,0,1,.444-2.979,9.916,9.916,0,0,1,1.283-2.931,5.847,5.847,0,0,1,2-1.925A5.087,5.087,0,0,1,27.457-12.138ZM29.32-8.675q0-2.689-1.96-2.689a2.734,2.734,0,0,0-1.771.677,5.751,5.751,0,0,0-1.441,1.934,12.508,12.508,0,0,0-.962,2.76,12.115,12.115,0,0,0-.343,2.654q0,2.716,1.978,2.716a2.957,2.957,0,0,0,2.21-1.107,8.384,8.384,0,0,0,1.648-3.107A12.545,12.545,0,0,0,29.32-8.675ZM32.643-.826a1,1,0,0,1,.272-.716.987.987,0,0,1,.7-.3.952.952,0,0,1,.712.264.908.908,0,0,1,.272.7.95.95,0,0,1-.29.7,1.046,1.046,0,0,1-.7.286,1.006,1.006,0,0,1-.391-.057.863.863,0,0,1-.308-.189.846.846,0,0,1-.2-.3A1.032,1.032,0,0,1,32.643-.826ZM40.3-2.558q-.114.519-.149.822a4.809,4.809,0,0,0-.035.549.686.686,0,0,0,.2.558,1.2,1.2,0,0,0,.664.2l-.1.431H37.362l.1-.431a1.2,1.2,0,0,0,.5-.171.949.949,0,0,0,.281-.33,3,3,0,0,0,.211-.514q.1-.3.29-1.173l1.494-6.768A6.929,6.929,0,0,0,40.43-10.8a.694.694,0,0,0-.207-.576,1.175,1.175,0,0,0-.655-.189l.1-.431h3.516l-.1.431a1.635,1.635,0,0,0-.479.158.826.826,0,0,0-.259.264,2.493,2.493,0,0,0-.237.549q-.123.374-.308,1.217Zm3.85,1.731a1,1,0,0,1,.272-.716.987.987,0,0,1,.7-.3.952.952,0,0,1,.712.264.908.908,0,0,1,.272.7.95.95,0,0,1-.29.7,1.046,1.046,0,0,1-.7.286,1.006,1.006,0,0,1-.391-.057.863.863,0,0,1-.308-.189.846.846,0,0,1-.2-.3A1.032,1.032,0,0,1,44.147-.826ZM60.328-7.972l.809-.58.563.141L60.407-2.839a6.189,6.189,0,0,0-.193,1.3.886.886,0,0,0,.114.51.414.414,0,0,0,.36.158.978.978,0,0,0,.563-.215,6.176,6.176,0,0,0,.844-.822l.5.492a7.649,7.649,0,0,1-1.349,1.2,2.205,2.205,0,0,1-1.208.356,1.114,1.114,0,0,1-.87-.36,1.376,1.376,0,0,1-.325-.958,2.962,2.962,0,0,1,.2-1.028l-.114-.035a7.75,7.75,0,0,1-1.6,1.8,2.61,2.61,0,0,1-1.6.571,1.746,1.746,0,0,1-1.5-.729A3.426,3.426,0,0,1,53.7-2.646a7.34,7.34,0,0,1,.593-2.9,5.373,5.373,0,0,1,1.63-2.2,3.68,3.68,0,0,1,2.312-.8,4.285,4.285,0,0,1,1.068.127A3.733,3.733,0,0,1,60.328-7.972Zm-.773,2.619a5.547,5.547,0,0,0,.105-.624q.026-.264.026-.571a1.437,1.437,0,0,0-.29-.993,1.289,1.289,0,0,0-.984-.316,2.233,2.233,0,0,0-1.626.729,4.924,4.924,0,0,0-1.125,1.956,7.777,7.777,0,0,0-.4,2.448,2.909,2.909,0,0,0,.25,1.367.882.882,0,0,0,.839.453,1.7,1.7,0,0,0,1.138-.5,6.972,6.972,0,0,0,1.151-1.428,6.229,6.229,0,0,0,.839-2.14Zm6.68-4.166-.229,1.2a4.7,4.7,0,0,1,1.31-1.011,3.3,3.3,0,0,1,1.608-.36,2.718,2.718,0,0,1,1.27.3,2.134,2.134,0,0,1,.8.751,2.8,2.8,0,0,1,.378,1.094,5.411,5.411,0,0,1,.018,1.31L70.348,0H68.757L69.8-6.258a3.339,3.339,0,0,0,.009-.8A1.645,1.645,0,0,0,69.6-7.7a1.164,1.164,0,0,0-.466-.439,1.707,1.707,0,0,0-.778-.171,2.3,2.3,0,0,0-.773.11,2.8,2.8,0,0,0-.672.325,3.271,3.271,0,0,0-.58.492,5.281,5.281,0,0,0-.488.6L64.67,0H63.079l1.652-9.51Zm5.783-3.709a3.312,3.312,0,0,1-.189.8,2.373,2.373,0,0,1-.391.69,1.87,1.87,0,0,1-.6.479,1.769,1.769,0,0,1-.817.18,1.3,1.3,0,0,1-.606-.141q-.272-.141-.532-.308a4.7,4.7,0,0,0-.527-.294,1.26,1.26,0,0,0-.584-.119.94.94,0,0,0-.387.092.974.974,0,0,0-.29.22,1.284,1.284,0,0,0-.207.312,2.331,2.331,0,0,0-.136.36l-1.072-.062a3.253,3.253,0,0,1,.193-.809,2.507,2.507,0,0,1,.4-.7,1.9,1.9,0,0,1,.606-.492,1.689,1.689,0,0,1,.822-.176,1.284,1.284,0,0,1,.6.141q.272.141.536.3t.532.3a1.2,1.2,0,0,0,.584.127.845.845,0,0,0,.391-.088,1.081,1.081,0,0,0,.3-.224,1.194,1.194,0,0,0,.211-.316,2.5,2.5,0,0,0,.136-.365ZM76.359.149a2.829,2.829,0,0,1-2.114-.765,3.005,3.005,0,0,1-.751-2.2,7.411,7.411,0,0,1,.211-1.626,6.088,6.088,0,0,1,.914-2.18A4.406,4.406,0,0,1,76.2-8.046a4.355,4.355,0,0,1,2.065-.5,2.836,2.836,0,0,1,2.145.769,3.054,3.054,0,0,1,.738,2.2,7.448,7.448,0,0,1-.356,2.18,5.971,5.971,0,0,1-.976,1.951A4.014,4.014,0,0,1,78.337-.25,4.647,4.647,0,0,1,76.359.149ZM75.032-2.435a2.142,2.142,0,0,0,.4,1.428,1.513,1.513,0,0,0,1.208.461,1.981,1.981,0,0,0,1.529-.773,5.561,5.561,0,0,0,1.055-2.167,9.31,9.31,0,0,0,.387-2.448,2.317,2.317,0,0,0-.369-1.428,1.362,1.362,0,0,0-1.151-.479,2.077,2.077,0,0,0-1.6.765,5.416,5.416,0,0,0-1.072,2.188A9.48,9.48,0,0,0,75.032-2.435ZM94.878,0H86.73l.193-1.239,4.729-4.6q.36-.36.769-.76a9.607,9.607,0,0,0,.769-.848,6.087,6.087,0,0,0,.624-.94,2.99,2.99,0,0,0,.334-1.037,2.545,2.545,0,0,0-.035-.848,1.753,1.753,0,0,0-.316-.7,1.676,1.676,0,0,0-.584-.479,1.982,1.982,0,0,0-.831-.2,2.84,2.84,0,0,0-1.107.171,2.558,2.558,0,0,0-.857.536,2.748,2.748,0,0,0-.593.835,3.671,3.671,0,0,0-.308,1.068l-1.573.009a4.576,4.576,0,0,1,.461-1.635,4.085,4.085,0,0,1,.971-1.257,4.233,4.233,0,0,1,1.384-.8,4.749,4.749,0,0,1,1.683-.259,4.3,4.3,0,0,1,1.384.25,3.151,3.151,0,0,1,1.094.664,2.749,2.749,0,0,1,.69,1.05,3.146,3.146,0,0,1,.163,1.4,3.957,3.957,0,0,1-.352,1.314,6.845,6.845,0,0,1-.712,1.2,10.409,10.409,0,0,1-.918,1.081q-.5.51-.962.958L88.91-1.327h6.179Zm14.7-7.154h-7.119l.246-1.415h7.128Zm-.633,3.647h-7.119l.246-1.406H109.2Zm9.633-3.683,1.046.009a3.772,3.772,0,0,0,1.033-.141,2.823,2.823,0,0,0,.892-.426,2.418,2.418,0,0,0,.655-.712,2.478,2.478,0,0,0,.33-1,2.919,2.919,0,0,0-.026-.883,1.657,1.657,0,0,0-.3-.69,1.47,1.47,0,0,0-.58-.453,2.177,2.177,0,0,0-.861-.171,2.739,2.739,0,0,0-.958.145,2.36,2.36,0,0,0-.778.448,2.478,2.478,0,0,0-.558.7,3,3,0,0,0-.308.91l-1.573.009a3.78,3.78,0,0,1,.461-1.477A3.915,3.915,0,0,1,118-12.041a4.1,4.1,0,0,1,1.31-.708,4.7,4.7,0,0,1,1.534-.233,4.063,4.063,0,0,1,1.428.272,2.961,2.961,0,0,1,1.072.716,2.85,2.85,0,0,1,.642,1.116,3.721,3.721,0,0,1,.136,1.455,2.667,2.667,0,0,1-.264.971,3.548,3.548,0,0,1-.549.809,3.867,3.867,0,0,1-.751.642,6.088,6.088,0,0,1-.879.479,2.526,2.526,0,0,1,.769.483,2.617,2.617,0,0,1,.523.672,2.617,2.617,0,0,1,.277.813,3.774,3.774,0,0,1,.04.914,4.211,4.211,0,0,1-.453,1.6,4,4,0,0,1-.967,1.213,4.129,4.129,0,0,1-1.367.76,4.826,4.826,0,0,1-1.644.242A4.216,4.216,0,0,1,117.409-.1a3.287,3.287,0,0,1-1.125-.716,3,3,0,0,1-.712-1.112,3.594,3.594,0,0,1-.2-1.459l1.591.009a2.529,2.529,0,0,0,.083.9,1.838,1.838,0,0,0,.369.694,1.7,1.7,0,0,0,.633.453,2.466,2.466,0,0,0,.883.18,2.863,2.863,0,0,0,1.059-.154,2.529,2.529,0,0,0,.839-.492,2.49,2.49,0,0,0,.584-.782A3.1,3.1,0,0,0,121.7-3.6a2.355,2.355,0,0,0-.07-.971,1.653,1.653,0,0,0-.413-.694,1.835,1.835,0,0,0-.7-.422,3.245,3.245,0,0,0-.949-.163l-1.23-.009ZM133.69-5.467q-.105.694-.272,1.384A9.734,9.734,0,0,1,133-2.755a6.4,6.4,0,0,1-.615,1.178,4.166,4.166,0,0,1-.857.94,3.637,3.637,0,0,1-1.143.615,4.319,4.319,0,0,1-1.463.2,3.416,3.416,0,0,1-1.336-.268,2.694,2.694,0,0,1-.923-.668,3.017,3.017,0,0,1-.571-.967,5.327,5.327,0,0,1-.281-1.169,7.947,7.947,0,0,1-.057-1.274q.022-.655.1-1.288l.29-1.951a13.964,13.964,0,0,1,.264-1.38,9.064,9.064,0,0,1,.426-1.314,6.273,6.273,0,0,1,.624-1.16,4.082,4.082,0,0,1,.861-.918,3.742,3.742,0,0,1,1.134-.6,4.322,4.322,0,0,1,1.455-.193,3.567,3.567,0,0,1,1.34.259,2.644,2.644,0,0,1,.927.65,2.934,2.934,0,0,1,.571.949,5.172,5.172,0,0,1,.281,1.151,7.806,7.806,0,0,1,.057,1.266q-.022.655-.1,1.288ZM132.442-7.7q.044-.369.083-.8a7.592,7.592,0,0,0,.031-.857,4.582,4.582,0,0,0-.092-.835,2.29,2.29,0,0,0-.277-.725,1.5,1.5,0,0,0-.523-.519,1.73,1.73,0,0,0-.839-.215,2.452,2.452,0,0,0-.967.145,2.27,2.27,0,0,0-.738.457,2.952,2.952,0,0,0-.545.69,5.025,5.025,0,0,0-.387.844,7.479,7.479,0,0,0-.259.918q-.1.47-.163.91L127.4-5.194q-.044.352-.083.787a7.96,7.96,0,0,0-.031.879,4.876,4.876,0,0,0,.092.861,2.445,2.445,0,0,0,.277.751,1.591,1.591,0,0,0,.519.545,1.614,1.614,0,0,0,.835.229,2.238,2.238,0,0,0,.976-.149,2.377,2.377,0,0,0,.738-.479,2.984,2.984,0,0,0,.545-.716,5.462,5.462,0,0,0,.387-.875,7.5,7.5,0,0,0,.255-.936q.1-.475.158-.905Zm11.145,2.232q-.105.694-.272,1.384a9.734,9.734,0,0,1-.422,1.327,6.4,6.4,0,0,1-.615,1.178,4.166,4.166,0,0,1-.857.94,3.637,3.637,0,0,1-1.143.615,4.319,4.319,0,0,1-1.463.2,3.416,3.416,0,0,1-1.336-.268,2.694,2.694,0,0,1-.923-.668,3.017,3.017,0,0,1-.571-.967A5.327,5.327,0,0,1,135.7-2.9a7.947,7.947,0,0,1-.057-1.274q.022-.655.1-1.288l.29-1.951a13.964,13.964,0,0,1,.264-1.38,9.064,9.064,0,0,1,.426-1.314,6.273,6.273,0,0,1,.624-1.16,4.082,4.082,0,0,1,.861-.918,3.742,3.742,0,0,1,1.134-.6,4.322,4.322,0,0,1,1.455-.193,3.567,3.567,0,0,1,1.34.259,2.644,2.644,0,0,1,.927.65,2.934,2.934,0,0,1,.571.949,5.172,5.172,0,0,1,.281,1.151,7.806,7.806,0,0,1,.057,1.266q-.022.655-.1,1.288ZM142.339-7.7q.044-.369.083-.8a7.592,7.592,0,0,0,.031-.857,4.582,4.582,0,0,0-.092-.835,2.29,2.29,0,0,0-.277-.725,1.5,1.5,0,0,0-.523-.519,1.73,1.73,0,0,0-.839-.215,2.452,2.452,0,0,0-.967.145,2.27,2.27,0,0,0-.738.457,2.952,2.952,0,0,0-.545.69,5.025,5.025,0,0,0-.387.844,7.479,7.479,0,0,0-.259.918q-.1.47-.163.91l-.369,2.487q-.044.352-.083.787a7.96,7.96,0,0,0-.031.879,4.876,4.876,0,0,0,.092.861,2.445,2.445,0,0,0,.277.751,1.591,1.591,0,0,0,.519.545,1.614,1.614,0,0,0,.835.229,2.238,2.238,0,0,0,.976-.149,2.377,2.377,0,0,0,.738-.479,2.984,2.984,0,0,0,.545-.716,5.462,5.462,0,0,0,.387-.875A7.5,7.5,0,0,0,141.8-4.3q.1-.475.158-.905Zm2.733,6.873a1,1,0,0,1,.272-.716.987.987,0,0,1,.7-.3.952.952,0,0,1,.712.264.908.908,0,0,1,.272.7.95.95,0,0,1-.29.7,1.046,1.046,0,0,1-.7.286,1.006,1.006,0,0,1-.391-.057.863.863,0,0,1-.308-.189.846.846,0,0,1-.2-.3A1.032,1.032,0,0,1,145.072-.826Zm13.1-4.641q-.105.694-.272,1.384a9.734,9.734,0,0,1-.422,1.327,6.4,6.4,0,0,1-.615,1.178,4.166,4.166,0,0,1-.857.94,3.637,3.637,0,0,1-1.143.615,4.319,4.319,0,0,1-1.463.2,3.416,3.416,0,0,1-1.336-.268,2.694,2.694,0,0,1-.923-.668,3.017,3.017,0,0,1-.571-.967,5.327,5.327,0,0,1-.281-1.169,7.947,7.947,0,0,1-.057-1.274q.022-.655.1-1.288l.29-1.951a13.964,13.964,0,0,1,.264-1.38,9.064,9.064,0,0,1,.426-1.314,6.273,6.273,0,0,1,.624-1.16,4.082,4.082,0,0,1,.861-.918,3.742,3.742,0,0,1,1.134-.6,4.322,4.322,0,0,1,1.455-.193,3.567,3.567,0,0,1,1.34.259,2.644,2.644,0,0,1,.927.65,2.934,2.934,0,0,1,.571.949,5.172,5.172,0,0,1,.281,1.151,7.806,7.806,0,0,1,.057,1.266q-.022.655-.1,1.288ZM156.92-7.7q.044-.369.083-.8a7.592,7.592,0,0,0,.031-.857,4.582,4.582,0,0,0-.092-.835,2.29,2.29,0,0,0-.277-.725,1.5,1.5,0,0,0-.523-.519,1.73,1.73,0,0,0-.839-.215,2.452,2.452,0,0,0-.967.145,2.27,2.27,0,0,0-.738.457,2.952,2.952,0,0,0-.545.69,5.025,5.025,0,0,0-.387.844,7.479,7.479,0,0,0-.259.918q-.1.47-.163.91l-.369,2.487q-.044.352-.083.787a7.96,7.96,0,0,0-.031.879,4.876,4.876,0,0,0,.092.861,2.445,2.445,0,0,0,.277.751,1.591,1.591,0,0,0,.519.545,1.614,1.614,0,0,0,.835.229,2.238,2.238,0,0,0,.976-.149,2.377,2.377,0,0,0,.738-.479,2.984,2.984,0,0,0,.545-.716,5.462,5.462,0,0,0,.387-.875,7.5,7.5,0,0,0,.255-.936q.1-.475.158-.905Zm11.145,2.232q-.105.694-.272,1.384a9.734,9.734,0,0,1-.422,1.327,6.4,6.4,0,0,1-.615,1.178,4.166,4.166,0,0,1-.857.94,3.637,3.637,0,0,1-1.143.615,4.319,4.319,0,0,1-1.463.2,3.416,3.416,0,0,1-1.336-.268,2.694,2.694,0,0,1-.923-.668,3.017,3.017,0,0,1-.571-.967,5.327,5.327,0,0,1-.281-1.169,7.947,7.947,0,0,1-.057-1.274q.022-.655.1-1.288l.29-1.951a13.964,13.964,0,0,1,.264-1.38A9.064,9.064,0,0,1,161.2-10.1a6.273,6.273,0,0,1,.624-1.16,4.082,4.082,0,0,1,.861-.918,3.742,3.742,0,0,1,1.134-.6,4.322,4.322,0,0,1,1.455-.193,3.567,3.567,0,0,1,1.34.259,2.644,2.644,0,0,1,.927.65,2.934,2.934,0,0,1,.571.949,5.172,5.172,0,0,1,.281,1.151,7.806,7.806,0,0,1,.057,1.266q-.022.655-.1,1.288ZM166.816-7.7q.044-.369.083-.8a7.592,7.592,0,0,0,.031-.857,4.582,4.582,0,0,0-.092-.835,2.29,2.29,0,0,0-.277-.725,1.5,1.5,0,0,0-.523-.519,1.73,1.73,0,0,0-.839-.215,2.452,2.452,0,0,0-.967.145,2.27,2.27,0,0,0-.738.457,2.952,2.952,0,0,0-.545.69,5.025,5.025,0,0,0-.387.844,7.479,7.479,0,0,0-.259.918q-.1.47-.163.91l-.369,2.487q-.044.352-.083.787a7.96,7.96,0,0,0-.031.879,4.876,4.876,0,0,0,.092.861,2.445,2.445,0,0,0,.277.751,1.591,1.591,0,0,0,.519.545,1.614,1.614,0,0,0,.835.229,2.238,2.238,0,0,0,.976-.149,2.377,2.377,0,0,0,.738-.479,2.984,2.984,0,0,0,.545-.716,5.462,5.462,0,0,0,.387-.875,7.5,7.5,0,0,0,.255-.936q.1-.475.158-.905Zm11.145,2.232q-.105.694-.272,1.384a9.734,9.734,0,0,1-.422,1.327,6.4,6.4,0,0,1-.615,1.178,4.166,4.166,0,0,1-.857.94,3.637,3.637,0,0,1-1.143.615,4.319,4.319,0,0,1-1.463.2,3.416,3.416,0,0,1-1.336-.268,2.694,2.694,0,0,1-.923-.668,3.017,3.017,0,0,1-.571-.967,5.327,5.327,0,0,1-.281-1.169,7.947,7.947,0,0,1-.057-1.274q.022-.655.1-1.288l.29-1.951a13.964,13.964,0,0,1,.264-1.38A9.064,9.064,0,0,1,171.1-10.1a6.273,6.273,0,0,1,.624-1.16,4.082,4.082,0,0,1,.861-.918,3.742,3.742,0,0,1,1.134-.6,4.322,4.322,0,0,1,1.455-.193,3.567,3.567,0,0,1,1.34.259,2.644,2.644,0,0,1,.927.65,2.934,2.934,0,0,1,.571.949,5.172,5.172,0,0,1,.281,1.151,7.806,7.806,0,0,1,.057,1.266q-.022.655-.1,1.288ZM176.713-7.7q.044-.369.083-.8a7.592,7.592,0,0,0,.031-.857,4.582,4.582,0,0,0-.092-.835,2.29,2.29,0,0,0-.277-.725,1.5,1.5,0,0,0-.523-.519,1.73,1.73,0,0,0-.839-.215,2.452,2.452,0,0,0-.967.145,2.27,2.27,0,0,0-.738.457,2.952,2.952,0,0,0-.545.69,5.025,5.025,0,0,0-.387.844,7.479,7.479,0,0,0-.259.918q-.1.47-.163.91l-.369,2.487q-.044.352-.083.787a7.96,7.96,0,0,0-.031.879,4.876,4.876,0,0,0,.092.861,2.445,2.445,0,0,0,.277.751,1.591,1.591,0,0,0,.519.545,1.614,1.614,0,0,0,.835.229,2.238,2.238,0,0,0,.976-.149,2.377,2.377,0,0,0,.738-.479,2.984,2.984,0,0,0,.545-.716,5.462,5.462,0,0,0,.387-.875,7.5,7.5,0,0,0,.255-.936q.1-.475.158-.905Zm2.733,6.873a1,1,0,0,1,.272-.716.987.987,0,0,1,.7-.3.952.952,0,0,1,.712.264.908.908,0,0,1,.272.7.95.95,0,0,1-.29.7,1.046,1.046,0,0,1-.7.286,1.006,1.006,0,0,1-.391-.057.863.863,0,0,1-.308-.189.846.846,0,0,1-.2-.3A1.032,1.032,0,0,1,179.446-.826Zm13.1-4.641q-.105.694-.272,1.384a9.734,9.734,0,0,1-.422,1.327,6.4,6.4,0,0,1-.615,1.178,4.166,4.166,0,0,1-.857.94,3.637,3.637,0,0,1-1.143.615,4.319,4.319,0,0,1-1.463.2,3.416,3.416,0,0,1-1.336-.268,2.694,2.694,0,0,1-.923-.668,3.017,3.017,0,0,1-.571-.967,5.327,5.327,0,0,1-.281-1.169A7.947,7.947,0,0,1,184.6-4.17q.022-.655.1-1.288l.29-1.951a13.964,13.964,0,0,1,.264-1.38,9.064,9.064,0,0,1,.426-1.314,6.273,6.273,0,0,1,.624-1.16,4.082,4.082,0,0,1,.861-.918,3.742,3.742,0,0,1,1.134-.6,4.322,4.322,0,0,1,1.455-.193,3.567,3.567,0,0,1,1.34.259,2.644,2.644,0,0,1,.927.65,2.934,2.934,0,0,1,.571.949,5.172,5.172,0,0,1,.281,1.151,7.806,7.806,0,0,1,.057,1.266q-.022.655-.1,1.288ZM191.294-7.7q.044-.369.083-.8a7.592,7.592,0,0,0,.031-.857,4.582,4.582,0,0,0-.092-.835,2.29,2.29,0,0,0-.277-.725,1.5,1.5,0,0,0-.523-.519,1.73,1.73,0,0,0-.839-.215,2.452,2.452,0,0,0-.967.145,2.27,2.27,0,0,0-.738.457,2.952,2.952,0,0,0-.545.69,5.025,5.025,0,0,0-.387.844,7.479,7.479,0,0,0-.259.918q-.1.47-.163.91l-.369,2.487q-.044.352-.083.787a7.96,7.96,0,0,0-.031.879,4.876,4.876,0,0,0,.092.861,2.445,2.445,0,0,0,.277.751,1.591,1.591,0,0,0,.519.545,1.614,1.614,0,0,0,.835.229,2.238,2.238,0,0,0,.976-.149,2.377,2.377,0,0,0,.738-.479,2.984,2.984,0,0,0,.545-.716,5.462,5.462,0,0,0,.387-.875,7.5,7.5,0,0,0,.255-.936q.1-.475.158-.905Zm11.145,2.232q-.105.694-.272,1.384a9.734,9.734,0,0,1-.422,1.327,6.4,6.4,0,0,1-.615,1.178,4.166,4.166,0,0,1-.857.94,3.637,3.637,0,0,1-1.143.615,4.319,4.319,0,0,1-1.463.2,3.416,3.416,0,0,1-1.336-.268,2.694,2.694,0,0,1-.923-.668,3.017,3.017,0,0,1-.571-.967,5.327,5.327,0,0,1-.281-1.169A7.947,7.947,0,0,1,194.5-4.17q.022-.655.1-1.288l.29-1.951a13.964,13.964,0,0,1,.264-1.38,9.064,9.064,0,0,1,.426-1.314,6.273,6.273,0,0,1,.624-1.16,4.082,4.082,0,0,1,.861-.918,3.742,3.742,0,0,1,1.134-.6,4.322,4.322,0,0,1,1.455-.193,3.567,3.567,0,0,1,1.34.259,2.644,2.644,0,0,1,.927.65,2.934,2.934,0,0,1,.571.949,5.172,5.172,0,0,1,.281,1.151A7.806,7.806,0,0,1,202.83-8.7q-.022.655-.1,1.288ZM201.19-7.7q.044-.369.083-.8a7.592,7.592,0,0,0,.031-.857,4.582,4.582,0,0,0-.092-.835,2.29,2.29,0,0,0-.277-.725,1.5,1.5,0,0,0-.523-.519,1.73,1.73,0,0,0-.839-.215,2.452,2.452,0,0,0-.967.145,2.27,2.27,0,0,0-.738.457,2.952,2.952,0,0,0-.545.69,5.025,5.025,0,0,0-.387.844,7.479,7.479,0,0,0-.259.918q-.1.47-.163.91l-.369,2.487q-.044.352-.083.787a7.96,7.96,0,0,0-.031.879,4.876,4.876,0,0,0,.092.861,2.445,2.445,0,0,0,.277.751,1.591,1.591,0,0,0,.519.545,1.614,1.614,0,0,0,.835.229,2.238,2.238,0,0,0,.976-.149,2.377,2.377,0,0,0,.738-.479,2.984,2.984,0,0,0,.545-.716,5.462,5.462,0,0,0,.387-.875,7.5,7.5,0,0,0,.255-.936q.1-.475.158-.905Zm11.145,2.232q-.105.694-.272,1.384a9.734,9.734,0,0,1-.422,1.327,6.4,6.4,0,0,1-.615,1.178,4.166,4.166,0,0,1-.857.94,3.637,3.637,0,0,1-1.143.615,4.319,4.319,0,0,1-1.463.2,3.416,3.416,0,0,1-1.336-.268A2.694,2.694,0,0,1,205.3-.76a3.017,3.017,0,0,1-.571-.967,5.327,5.327,0,0,1-.281-1.169,7.947,7.947,0,0,1-.057-1.274q.022-.655.1-1.288l.29-1.951a13.964,13.964,0,0,1,.264-1.38,9.064,9.064,0,0,1,.426-1.314,6.273,6.273,0,0,1,.624-1.16,4.082,4.082,0,0,1,.861-.918,3.742,3.742,0,0,1,1.134-.6,4.322,4.322,0,0,1,1.455-.193,3.567,3.567,0,0,1,1.34.259,2.644,2.644,0,0,1,.927.65,2.934,2.934,0,0,1,.571.949,5.172,5.172,0,0,1,.281,1.151,7.806,7.806,0,0,1,.057,1.266q-.022.655-.1,1.288ZM211.087-7.7q.044-.369.083-.8a7.592,7.592,0,0,0,.031-.857,4.582,4.582,0,0,0-.092-.835,2.29,2.29,0,0,0-.277-.725,1.5,1.5,0,0,0-.523-.519,1.73,1.73,0,0,0-.839-.215,2.452,2.452,0,0,0-.967.145,2.27,2.27,0,0,0-.738.457,2.952,2.952,0,0,0-.545.69,5.025,5.025,0,0,0-.387.844,7.479,7.479,0,0,0-.259.918q-.1.47-.163.91l-.369,2.487q-.044.352-.083.787a7.96,7.96,0,0,0-.031.879,4.876,4.876,0,0,0,.092.861,2.445,2.445,0,0,0,.277.751,1.591,1.591,0,0,0,.519.545,1.614,1.614,0,0,0,.835.229,2.238,2.238,0,0,0,.976-.149,2.377,2.377,0,0,0,.738-.479,2.984,2.984,0,0,0,.545-.716,5.462,5.462,0,0,0,.387-.875,7.5,7.5,0,0,0,.255-.936q.1-.475.158-.905Zm14.889,2.074-2.408.492L225.237-3l-.967.668L222.9-4.658l-1.389,2.329L220.544-3l1.67-2.136-2.426-.492.4-1.1,2.3.87-.2-2.672H223.5l-.2,2.672,2.312-.87Zm7.559.466a16.624,16.624,0,0,1,.356-1.771,17.177,17.177,0,0,1,.571-1.806,14.809,14.809,0,0,1,.791-1.745,11.406,11.406,0,0,1,1.028-1.6,9.314,9.314,0,0,1,1.274-1.354,7.2,7.2,0,0,1,1.534-1.02l.237,1.09a8.312,8.312,0,0,0-1.674,1.657,11.346,11.346,0,0,0-1.208,2,13.617,13.617,0,0,0-.817,2.206,19.972,19.972,0,0,0-.492,2.3l-.018.132q-.1.633-.154,1.354t-.053,1.477a13.092,13.092,0,0,0,.1,1.512,8.764,8.764,0,0,0,.3,1.459,6.543,6.543,0,0,0,.558,1.323,4.271,4.271,0,0,0,.875,1.094l-.4.984a5.359,5.359,0,0,1-1.2-1.143,7.44,7.44,0,0,1-.857-1.424,8.652,8.652,0,0,1-.554-1.613,12.629,12.629,0,0,1-.286-1.705,13.814,13.814,0,0,1-.062-1.7,14.55,14.55,0,0,1,.127-1.608ZM243.773,0h-1.6l1.881-10.793-3.4,1.2.272-1.547,4.746-1.714h.281Zm14.994-6.864h3.463l-.272,1.538H258.5l-.7,4.043h-1.6l.7-4.043h-3.463l.272-1.538h3.454l.65-3.735h1.6Zm12.059-.325,1.046.009a3.772,3.772,0,0,0,1.033-.141,2.823,2.823,0,0,0,.892-.426,2.418,2.418,0,0,0,.655-.712,2.478,2.478,0,0,0,.33-1,2.919,2.919,0,0,0-.026-.883,1.657,1.657,0,0,0-.3-.69,1.47,1.47,0,0,0-.58-.453,2.177,2.177,0,0,0-.861-.171,2.739,2.739,0,0,0-.958.145,2.36,2.36,0,0,0-.778.448,2.478,2.478,0,0,0-.558.7,3,3,0,0,0-.308.91l-1.573.009a3.78,3.78,0,0,1,.461-1.477,3.915,3.915,0,0,1,.949-1.125,4.1,4.1,0,0,1,1.31-.708,4.7,4.7,0,0,1,1.534-.233,4.063,4.063,0,0,1,1.428.272,2.961,2.961,0,0,1,1.072.716,2.85,2.85,0,0,1,.642,1.116,3.721,3.721,0,0,1,.136,1.455,2.667,2.667,0,0,1-.264.971,3.548,3.548,0,0,1-.549.809,3.867,3.867,0,0,1-.751.642,6.088,6.088,0,0,1-.879.479,2.526,2.526,0,0,1,.769.483,2.617,2.617,0,0,1,.523.672,2.617,2.617,0,0,1,.277.813,3.774,3.774,0,0,1,.04.914,4.211,4.211,0,0,1-.453,1.6,4,4,0,0,1-.967,1.213,4.129,4.129,0,0,1-1.367.76,4.826,4.826,0,0,1-1.644.242A4.216,4.216,0,0,1,269.662-.1a3.287,3.287,0,0,1-1.125-.716,3,3,0,0,1-.712-1.112,3.594,3.594,0,0,1-.2-1.459l1.591.009a2.529,2.529,0,0,0,.083.9,1.838,1.838,0,0,0,.369.694,1.7,1.7,0,0,0,.633.453,2.466,2.466,0,0,0,.883.18,2.863,2.863,0,0,0,1.059-.154,2.529,2.529,0,0,0,.839-.492,2.49,2.49,0,0,0,.584-.782,3.1,3.1,0,0,0,.286-1.024,2.355,2.355,0,0,0-.07-.971,1.653,1.653,0,0,0-.413-.694,1.835,1.835,0,0,0-.7-.422,3.245,3.245,0,0,0-.949-.163l-1.23-.009Zm6.706,6.363a1,1,0,0,1,.272-.716.987.987,0,0,1,.7-.3.952.952,0,0,1,.712.264.908.908,0,0,1,.272.7.95.95,0,0,1-.29.7,1.046,1.046,0,0,1-.7.286,1.006,1.006,0,0,1-.391-.057.863.863,0,0,1-.308-.189.846.846,0,0,1-.2-.3A1.032,1.032,0,0,1,277.532-.826ZM290.1,0h-8.147l.193-1.239,4.729-4.6q.36-.36.769-.76a9.607,9.607,0,0,0,.769-.848,6.087,6.087,0,0,0,.624-.94,2.99,2.99,0,0,0,.334-1.037,2.545,2.545,0,0,0-.035-.848,1.753,1.753,0,0,0-.316-.7,1.676,1.676,0,0,0-.584-.479,1.982,1.982,0,0,0-.831-.2,2.84,2.84,0,0,0-1.107.171,2.558,2.558,0,0,0-.857.536,2.748,2.748,0,0,0-.593.835,3.671,3.671,0,0,0-.308,1.068l-1.573.009a4.576,4.576,0,0,1,.461-1.635,4.085,4.085,0,0,1,.971-1.257,4.233,4.233,0,0,1,1.384-.8,4.749,4.749,0,0,1,1.683-.259,4.3,4.3,0,0,1,1.384.25,3.151,3.151,0,0,1,1.094.664,2.749,2.749,0,0,1,.69,1.05,3.146,3.146,0,0,1,.163,1.4,3.957,3.957,0,0,1-.352,1.314,6.845,6.845,0,0,1-.712,1.2,10.409,10.409,0,0,1-.918,1.081q-.5.51-.962.958l-3.92,3.727h6.179Zm7.7-10.327a3.352,3.352,0,0,1,.29-1.055,2.824,2.824,0,0,1,.6-.853,2.726,2.726,0,0,1,.866-.562,2.71,2.71,0,0,1,1.081-.193,2.373,2.373,0,0,1,.989.233,2.174,2.174,0,0,1,.729.576,2.31,2.31,0,0,1,.431.835,2.941,2.941,0,0,1,.1,1.011l-.053.677a3.3,3.3,0,0,1-.29,1.042,2.881,2.881,0,0,1-.6.848,2.674,2.674,0,0,1-.861.563,2.585,2.585,0,0,1-1.072.185,2.313,2.313,0,0,1-.993-.224,2.186,2.186,0,0,1-.734-.571,2.376,2.376,0,0,1-.439-.831,2.8,2.8,0,0,1-.11-1.011Zm1.125.686a2.43,2.43,0,0,0,.031.567,1.391,1.391,0,0,0,.18.492,1.088,1.088,0,0,0,.356.356,1.087,1.087,0,0,0,.558.149,1.315,1.315,0,0,0,.615-.123,1.565,1.565,0,0,0,.475-.352,1.78,1.78,0,0,0,.325-.505,2.322,2.322,0,0,0,.167-.6l.079-.686a2.15,2.15,0,0,0-.022-.567,1.541,1.541,0,0,0-.176-.5,1.022,1.022,0,0,0-.352-.365,1.087,1.087,0,0,0-.558-.149,1.341,1.341,0,0,0-.62.123,1.549,1.549,0,0,0-.479.352,1.838,1.838,0,0,0-.33.51,2.28,2.28,0,0,0-.171.606ZM302.6-3.129a3.128,3.128,0,0,1,.286-1.055,2.93,2.93,0,0,1,.6-.853,2.6,2.6,0,0,1,.866-.558,2.768,2.768,0,0,1,1.077-.189,2.45,2.45,0,0,1,.993.229,2.115,2.115,0,0,1,.734.571,2.366,2.366,0,0,1,.435.835,2.871,2.871,0,0,1,.105,1.011l-.062.686a3.3,3.3,0,0,1-.29,1.05,2.881,2.881,0,0,1-.6.848,2.674,2.674,0,0,1-.861.563,2.585,2.585,0,0,1-1.072.185,2.3,2.3,0,0,1-1-.224,2.22,2.22,0,0,1-.734-.576,2.328,2.328,0,0,1-.439-.835,2.871,2.871,0,0,1-.105-1.011Zm1.125.694a2.477,2.477,0,0,0,.031.571,1.437,1.437,0,0,0,.18.5,1.035,1.035,0,0,0,.356.356,1.116,1.116,0,0,0,.558.145,1.351,1.351,0,0,0,.615-.119,1.474,1.474,0,0,0,.475-.352,1.825,1.825,0,0,0,.325-.514,2.386,2.386,0,0,0,.167-.606l.079-.694a2.15,2.15,0,0,0-.022-.567,1.481,1.481,0,0,0-.18-.5,1.023,1.023,0,0,0-.356-.36,1.1,1.1,0,0,0-.549-.145,1.378,1.378,0,0,0-.62.119,1.491,1.491,0,0,0-.479.347,1.838,1.838,0,0,0-.33.51,2.28,2.28,0,0,0-.171.606Zm-4.535,1.45-.87-.633,7.743-9.914.87.624Zm14.555-4.157a17.339,17.339,0,0,1-.352,1.771,15.653,15.653,0,0,1-.571,1.8,15.5,15.5,0,0,1-.8,1.74A11.191,11.191,0,0,1,311,1.762a9.487,9.487,0,0,1-1.279,1.354,7.3,7.3,0,0,1-1.529,1.024l-.246-1.011a8.407,8.407,0,0,0,1.67-1.666,11.27,11.27,0,0,0,1.213-2.017,13.909,13.909,0,0,0,.817-2.232,20.594,20.594,0,0,0,.492-2.312l.018-.132q.088-.624.149-1.345t.053-1.477a14.045,14.045,0,0,0-.1-1.521,8.858,8.858,0,0,0-.3-1.472,6.405,6.405,0,0,0-.558-1.323,4.4,4.4,0,0,0-.866-1.09l.413-.984a5.407,5.407,0,0,1,1.2,1.138,7.107,7.107,0,0,1,.853,1.424,8.981,8.981,0,0,1,.549,1.617,12.615,12.615,0,0,1,.286,1.709,13.956,13.956,0,0,1,.062,1.709,14.3,14.3,0,0,1-.127,1.6ZM12.05,13h2.769l-.1.431a1.635,1.635,0,0,0-.479.158.868.868,0,0,0-.264.264,2.241,2.241,0,0,0-.237.549q-.119.374-.3,1.217l-1.5,6.82q-.114.519-.149.822a4.809,4.809,0,0,0-.035.549.686.686,0,0,0,.2.558,1.2,1.2,0,0,0,.664.2l-.1.431H9l.1-.431a1.2,1.2,0,0,0,.5-.171.949.949,0,0,0,.281-.33,3,3,0,0,0,.211-.514q.1-.3.29-1.173l1.169-5.3q.246-1.1.563-2.188h-.123q-.272.519-1.23,2.109l-4,6.6H5.8l-.729-5.651q-.158-1.2-.352-3.217H4.544q-.3,1.969-.668,3.647l-.9,4.061a6.618,6.618,0,0,0-.185,1.371.686.686,0,0,0,.2.558,1.2,1.2,0,0,0,.664.2L3.56,25H.483l.1-.431a1.2,1.2,0,0,0,.5-.171.949.949,0,0,0,.281-.33,3,3,0,0,0,.211-.514q.1-.3.29-1.173l1.494-6.768q.088-.378.141-.721a4.56,4.56,0,0,0,.053-.694.694.694,0,0,0-.207-.576,1.175,1.175,0,0,0-.655-.189l.1-.431H5.924l1,8.525Zm3.735,11.171a.983.983,0,0,1,.976-1.02.952.952,0,0,1,.712.264.908.908,0,0,1,.272.7.95.95,0,0,1-.29.7,1.046,1.046,0,0,1-.7.286,1.006,1.006,0,0,1-.391-.057.863.863,0,0,1-.308-.189.846.846,0,0,1-.2-.3A1.032,1.032,0,0,1,15.785,24.174ZM27.457,12.862a3.4,3.4,0,0,1,2.615.984,4.025,4.025,0,0,1,.918,2.848,11.718,11.718,0,0,1-.466,3.063A9.261,9.261,0,0,1,29.175,22.7a5.886,5.886,0,0,1-2.017,1.846,4.993,4.993,0,0,1-2.373.6,3.48,3.48,0,0,1-2.681-.984,3.983,3.983,0,0,1-.914-2.812,11.675,11.675,0,0,1,.444-2.979,9.916,9.916,0,0,1,1.283-2.931,5.847,5.847,0,0,1,2-1.925A5.087,5.087,0,0,1,27.457,12.862Zm1.863,3.463q0-2.689-1.96-2.689a2.734,2.734,0,0,0-1.771.677,5.751,5.751,0,0,0-1.441,1.934,12.508,12.508,0,0,0-.962,2.76,12.115,12.115,0,0,0-.343,2.654q0,2.716,1.978,2.716a2.957,2.957,0,0,0,2.21-1.107,8.384,8.384,0,0,0,1.648-3.107A12.545,12.545,0,0,0,29.32,16.325Zm3.322,7.849a.983.983,0,0,1,.976-1.02.952.952,0,0,1,.712.264.908.908,0,0,1,.272.7.95.95,0,0,1-.29.7,1.046,1.046,0,0,1-.7.286,1.006,1.006,0,0,1-.391-.057.863.863,0,0,1-.308-.189.846.846,0,0,1-.2-.3A1.032,1.032,0,0,1,32.643,24.174ZM40.3,22.442q-.114.519-.149.822a4.809,4.809,0,0,0-.035.549.686.686,0,0,0,.2.558,1.2,1.2,0,0,0,.664.2l-.1.431H37.362l.1-.431a1.2,1.2,0,0,0,.5-.171.949.949,0,0,0,.281-.33,3,3,0,0,0,.211-.514q.1-.3.29-1.173l1.494-6.768A6.929,6.929,0,0,0,40.43,14.2a.694.694,0,0,0-.207-.576,1.175,1.175,0,0,0-.655-.189l.1-.431h3.516l-.1.431a1.635,1.635,0,0,0-.479.158.826.826,0,0,0-.259.264,2.493,2.493,0,0,0-.237.549q-.123.374-.308,1.217Zm3.85,1.731a.983.983,0,0,1,.976-1.02.952.952,0,0,1,.712.264.908.908,0,0,1,.272.7.95.95,0,0,1-.29.7,1.046,1.046,0,0,1-.7.286,1.006,1.006,0,0,1-.391-.057.863.863,0,0,1-.308-.189.846.846,0,0,1-.2-.3A1.032,1.032,0,0,1,44.147,24.174Zm16.181-7.146.809-.58.563.141-1.292,5.572a6.189,6.189,0,0,0-.193,1.3.886.886,0,0,0,.114.51.414.414,0,0,0,.36.158.978.978,0,0,0,.563-.215,6.176,6.176,0,0,0,.844-.822l.5.492a7.649,7.649,0,0,1-1.349,1.2,2.205,2.205,0,0,1-1.208.356,1.114,1.114,0,0,1-.87-.36,1.376,1.376,0,0,1-.325-.958,2.962,2.962,0,0,1,.2-1.028l-.114-.035a7.75,7.75,0,0,1-1.6,1.8,2.61,2.61,0,0,1-1.6.571,1.746,1.746,0,0,1-1.5-.729,3.426,3.426,0,0,1-.532-2.048,7.34,7.34,0,0,1,.593-2.9,5.373,5.373,0,0,1,1.63-2.2,3.68,3.68,0,0,1,2.312-.8,4.285,4.285,0,0,1,1.068.127A3.733,3.733,0,0,1,60.328,17.028Zm-.773,2.619a5.547,5.547,0,0,0,.105-.624q.026-.264.026-.571a1.437,1.437,0,0,0-.29-.993,1.289,1.289,0,0,0-.984-.316,2.233,2.233,0,0,0-1.626.729,4.924,4.924,0,0,0-1.125,1.956,7.777,7.777,0,0,0-.4,2.448,2.909,2.909,0,0,0,.25,1.367.882.882,0,0,0,.839.453,1.7,1.7,0,0,0,1.138-.5,6.972,6.972,0,0,0,1.151-1.428,6.229,6.229,0,0,0,.839-2.14Zm6.68-4.166-.229,1.2a4.7,4.7,0,0,1,1.31-1.011,3.3,3.3,0,0,1,1.608-.36,2.718,2.718,0,0,1,1.27.3,2.134,2.134,0,0,1,.8.751,2.8,2.8,0,0,1,.378,1.094,5.411,5.411,0,0,1,.018,1.31L70.348,25H68.757L69.8,18.742a3.339,3.339,0,0,0,.009-.8A1.645,1.645,0,0,0,69.6,17.3a1.164,1.164,0,0,0-.466-.439,1.707,1.707,0,0,0-.778-.171,2.3,2.3,0,0,0-.773.11,2.8,2.8,0,0,0-.672.325,3.271,3.271,0,0,0-.58.492,5.281,5.281,0,0,0-.488.6L64.67,25H63.079l1.652-9.51Zm5.783-3.709a3.312,3.312,0,0,1-.189.8,2.373,2.373,0,0,1-.391.69,1.87,1.87,0,0,1-.6.479,1.769,1.769,0,0,1-.817.18,1.3,1.3,0,0,1-.606-.141q-.272-.141-.532-.308a4.7,4.7,0,0,0-.527-.294,1.26,1.26,0,0,0-.584-.119.94.94,0,0,0-.387.092.974.974,0,0,0-.29.22,1.284,1.284,0,0,0-.207.312,2.331,2.331,0,0,0-.136.36l-1.072-.062a3.253,3.253,0,0,1,.193-.809,2.507,2.507,0,0,1,.4-.7,1.9,1.9,0,0,1,.606-.492,1.689,1.689,0,0,1,.822-.176,1.284,1.284,0,0,1,.6.141q.272.141.536.3t.532.3a1.2,1.2,0,0,0,.584.127.845.845,0,0,0,.391-.088,1.081,1.081,0,0,0,.3-.224,1.194,1.194,0,0,0,.211-.316,2.5,2.5,0,0,0,.136-.365Zm4.342,13.377a2.829,2.829,0,0,1-2.114-.765,3.005,3.005,0,0,1-.751-2.2,7.411,7.411,0,0,1,.211-1.626,6.088,6.088,0,0,1,.914-2.18A4.406,4.406,0,0,1,76.2,16.954a4.355,4.355,0,0,1,2.065-.5,2.836,2.836,0,0,1,2.145.769,3.054,3.054,0,0,1,.738,2.2,7.448,7.448,0,0,1-.356,2.18,5.971,5.971,0,0,1-.976,1.951,4.014,4.014,0,0,1-1.481,1.191A4.647,4.647,0,0,1,76.359,25.149Zm-1.327-2.584a2.142,2.142,0,0,0,.4,1.428,1.513,1.513,0,0,0,1.208.461,1.981,1.981,0,0,0,1.529-.773,5.561,5.561,0,0,0,1.055-2.167,9.31,9.31,0,0,0,.387-2.448,2.317,2.317,0,0,0-.369-1.428,1.362,1.362,0,0,0-1.151-.479,2.077,2.077,0,0,0-1.6.765,5.416,5.416,0,0,0-1.072,2.188A9.48,9.48,0,0,0,75.032,22.565ZM94.878,25H86.73l.193-1.239,4.729-4.6q.36-.36.769-.76a9.607,9.607,0,0,0,.769-.848,6.087,6.087,0,0,0,.624-.94,2.99,2.99,0,0,0,.334-1.037,2.545,2.545,0,0,0-.035-.848,1.753,1.753,0,0,0-.316-.7,1.676,1.676,0,0,0-.584-.479,1.982,1.982,0,0,0-.831-.2,2.84,2.84,0,0,0-1.107.171,2.558,2.558,0,0,0-.857.536,2.748,2.748,0,0,0-.593.835,3.671,3.671,0,0,0-.308,1.068l-1.573.009a4.576,4.576,0,0,1,.461-1.635,4.085,4.085,0,0,1,.971-1.257,4.233,4.233,0,0,1,1.384-.8,4.749,4.749,0,0,1,1.683-.259,4.3,4.3,0,0,1,1.384.25,3.151,3.151,0,0,1,1.094.664,2.749,2.749,0,0,1,.69,1.05,3.146,3.146,0,0,1,.163,1.4,3.957,3.957,0,0,1-.352,1.314,6.845,6.845,0,0,1-.712,1.2,10.409,10.409,0,0,1-.918,1.081q-.5.51-.962.958l-3.92,3.727h6.179Zm14.7-7.154h-7.119l.246-1.415h7.128Zm-.633,3.647h-7.119l.246-1.406H109.2Zm9.633-3.683,1.046.009a3.772,3.772,0,0,0,1.033-.141,2.823,2.823,0,0,0,.892-.426,2.418,2.418,0,0,0,.655-.712,2.478,2.478,0,0,0,.33-1,2.919,2.919,0,0,0-.026-.883,1.657,1.657,0,0,0-.3-.69,1.47,1.47,0,0,0-.58-.453,2.177,2.177,0,0,0-.861-.171,2.739,2.739,0,0,0-.958.145,2.36,2.36,0,0,0-.778.448,2.478,2.478,0,0,0-.558.7,3,3,0,0,0-.308.91l-1.573.009a3.78,3.78,0,0,1,.461-1.477A3.915,3.915,0,0,1,118,12.959a4.1,4.1,0,0,1,1.31-.708,4.7,4.7,0,0,1,1.534-.233,4.063,4.063,0,0,1,1.428.272,2.961,2.961,0,0,1,1.072.716,2.85,2.85,0,0,1,.642,1.116,3.721,3.721,0,0,1,.136,1.455,2.667,2.667,0,0,1-.264.971,3.548,3.548,0,0,1-.549.809,3.867,3.867,0,0,1-.751.642,6.088,6.088,0,0,1-.879.479,2.526,2.526,0,0,1,.769.483,2.582,2.582,0,0,1,.8,1.485,3.774,3.774,0,0,1,.04.914,4.211,4.211,0,0,1-.453,1.6,4,4,0,0,1-.967,1.213,4.129,4.129,0,0,1-1.367.76,4.826,4.826,0,0,1-1.644.242,4.216,4.216,0,0,1-1.446-.272,3.287,3.287,0,0,1-1.125-.716,3,3,0,0,1-.712-1.112,3.594,3.594,0,0,1-.2-1.459l1.591.009a2.529,2.529,0,0,0,.083.9,1.838,1.838,0,0,0,.369.694,1.7,1.7,0,0,0,.633.453,2.466,2.466,0,0,0,.883.18,2.864,2.864,0,0,0,1.059-.154,2.529,2.529,0,0,0,.839-.492,2.49,2.49,0,0,0,.584-.782A3.1,3.1,0,0,0,121.7,21.4a2.355,2.355,0,0,0-.07-.971,1.653,1.653,0,0,0-.413-.694,1.835,1.835,0,0,0-.7-.422,3.245,3.245,0,0,0-.949-.163l-1.23-.009Zm15.117,1.723q-.105.694-.272,1.384A9.734,9.734,0,0,1,133,22.245a6.4,6.4,0,0,1-.615,1.178,4.166,4.166,0,0,1-.857.94,3.637,3.637,0,0,1-1.143.615,4.319,4.319,0,0,1-1.463.2,3.416,3.416,0,0,1-1.336-.268,2.694,2.694,0,0,1-.923-.668,3.017,3.017,0,0,1-.571-.967,5.327,5.327,0,0,1-.281-1.169,7.947,7.947,0,0,1-.057-1.274q.022-.655.1-1.288l.29-1.951a13.964,13.964,0,0,1,.264-1.38,9.064,9.064,0,0,1,.426-1.314,6.273,6.273,0,0,1,.624-1.16,4.082,4.082,0,0,1,.861-.918,3.742,3.742,0,0,1,1.134-.6,4.322,4.322,0,0,1,1.455-.193,3.567,3.567,0,0,1,1.34.259,2.644,2.644,0,0,1,.927.65,2.934,2.934,0,0,1,.571.949,5.172,5.172,0,0,1,.281,1.151,7.806,7.806,0,0,1,.057,1.266q-.022.655-.1,1.288ZM132.442,17.3q.044-.369.083-.8a7.592,7.592,0,0,0,.031-.857,4.582,4.582,0,0,0-.092-.835,2.29,2.29,0,0,0-.277-.725,1.5,1.5,0,0,0-.523-.519,1.73,1.73,0,0,0-.839-.215,2.452,2.452,0,0,0-.967.145,2.27,2.27,0,0,0-.738.457,2.952,2.952,0,0,0-.545.69,5.025,5.025,0,0,0-.387.844,7.479,7.479,0,0,0-.259.918q-.1.47-.163.91l-.369,2.487q-.044.352-.083.787a7.96,7.96,0,0,0-.031.879,4.876,4.876,0,0,0,.092.861,2.445,2.445,0,0,0,.277.751,1.591,1.591,0,0,0,.519.545,1.614,1.614,0,0,0,.835.229,2.238,2.238,0,0,0,.976-.149,2.377,2.377,0,0,0,.738-.479,2.984,2.984,0,0,0,.545-.716,5.462,5.462,0,0,0,.387-.875,7.5,7.5,0,0,0,.255-.936q.1-.475.158-.905Zm4.342,6.346a5.668,5.668,0,0,0,1.934-.286,4.256,4.256,0,0,0,1.45-.848,4.852,4.852,0,0,0,1.037-1.349,9.1,9.1,0,0,0,.7-1.789,5.333,5.333,0,0,1-.6.549,3.886,3.886,0,0,1-1.419.7,2.941,2.941,0,0,1-.809.092,2.836,2.836,0,0,1-1.463-.391,2.933,2.933,0,0,1-.967-.967,3.853,3.853,0,0,1-.5-1.34,5.5,5.5,0,0,1-.066-1.5A5.833,5.833,0,0,1,136.5,14.8a5.009,5.009,0,0,1,.9-1.446,4.115,4.115,0,0,1,1.336-.989,3.809,3.809,0,0,1,1.745-.338,3.418,3.418,0,0,1,1.239.242,2.91,2.91,0,0,1,.923.6,3.228,3.228,0,0,1,.637.883,4.892,4.892,0,0,1,.382,1.077,6.229,6.229,0,0,1,.154,1.178,7.712,7.712,0,0,1-.048,1.2l-.079.589a13.423,13.423,0,0,1-.7,2.834,7.5,7.5,0,0,1-1.323,2.29,5.944,5.944,0,0,1-2.052,1.538,6.832,6.832,0,0,1-2.887.563h-.2l.141-1.371Zm2.628-4.271a2.358,2.358,0,0,0,.853-.119,2.96,2.96,0,0,0,.756-.382,3.7,3.7,0,0,0,.642-.571,4.09,4.09,0,0,0,.5-.694l.07-.642q.026-.325.022-.712a5.939,5.939,0,0,0-.062-.782,4.4,4.4,0,0,0-.18-.765,2.4,2.4,0,0,0-.334-.659,1.675,1.675,0,0,0-.523-.47,1.611,1.611,0,0,0-.751-.2,2.1,2.1,0,0,0-1.121.242,2.679,2.679,0,0,0-.831.708,3.621,3.621,0,0,0-.545.993,4.452,4.452,0,0,0-.255,1.107,4.39,4.39,0,0,0,0,.98,3.058,3.058,0,0,0,.255.945,1.905,1.905,0,0,0,.563.716A1.554,1.554,0,0,0,139.412,19.375Zm5.66,4.8a.983.983,0,0,1,.976-1.02.952.952,0,0,1,.712.264.908.908,0,0,1,.272.7.95.95,0,0,1-.29.7,1.046,1.046,0,0,1-.7.286,1.006,1.006,0,0,1-.391-.057.863.863,0,0,1-.308-.189.846.846,0,0,1-.2-.3A1.032,1.032,0,0,1,145.072,24.174Zm12.577-11.988-.141,1.38h-.123a5.015,5.015,0,0,0-1.85.3,4.614,4.614,0,0,0-1.437.87,5.489,5.489,0,0,0-1.077,1.332,8.952,8.952,0,0,0-.76,1.7,4.078,4.078,0,0,1,1.274-.879,3.608,3.608,0,0,1,1.521-.281,2.98,2.98,0,0,1,1.468.391,2.924,2.924,0,0,1,.976.945,3.729,3.729,0,0,1,.51,1.318,5.367,5.367,0,0,1,.07,1.5,5.683,5.683,0,0,1-.417,1.705,4.823,4.823,0,0,1-.9,1.419,4.1,4.1,0,0,1-1.336.962,3.874,3.874,0,0,1-1.731.325,3.32,3.32,0,0,1-1.169-.229,3.159,3.159,0,0,1-.918-.567,3.34,3.34,0,0,1-.672-.826,4.42,4.42,0,0,1-.426-1.011,5.641,5.641,0,0,1-.2-1.121,5.81,5.81,0,0,1,.026-1.151l.1-.765a13.532,13.532,0,0,1,.413-1.92,10.147,10.147,0,0,1,.686-1.74,7.718,7.718,0,0,1,.98-1.485,6.035,6.035,0,0,1,1.3-1.156,6.117,6.117,0,0,1,1.639-.751,7.041,7.041,0,0,1,2-.268Zm-2.927,5.766a2.538,2.538,0,0,0-.844.123,2.939,2.939,0,0,0-.751.369,3.3,3.3,0,0,0-.633.567,3.656,3.656,0,0,0-.479.7l-.079.615a6.607,6.607,0,0,0-.035.708,4.888,4.888,0,0,0,.062.769,4.228,4.228,0,0,0,.189.747,2.318,2.318,0,0,0,.338.637,1.679,1.679,0,0,0,.527.453,1.657,1.657,0,0,0,.747.193,2.112,2.112,0,0,0,1.107-.233,2.667,2.667,0,0,0,.826-.686,3.453,3.453,0,0,0,.545-.971,4.615,4.615,0,0,0,.264-1.1,4.389,4.389,0,0,0,0-.98,2.809,2.809,0,0,0-.264-.927,1.872,1.872,0,0,0-.576-.694A1.63,1.63,0,0,0,154.723,17.951Zm13.333,1.582q-.105.694-.272,1.384a9.734,9.734,0,0,1-.422,1.327,6.4,6.4,0,0,1-.615,1.178,4.166,4.166,0,0,1-.857.94,3.637,3.637,0,0,1-1.143.615,4.319,4.319,0,0,1-1.463.2,3.416,3.416,0,0,1-1.336-.268,2.694,2.694,0,0,1-.923-.668,3.017,3.017,0,0,1-.571-.967,5.327,5.327,0,0,1-.281-1.169,7.947,7.947,0,0,1-.057-1.274q.022-.655.1-1.288l.29-1.951a13.964,13.964,0,0,1,.264-1.38A9.064,9.064,0,0,1,161.2,14.9a6.273,6.273,0,0,1,.624-1.16,4.082,4.082,0,0,1,.861-.918,3.742,3.742,0,0,1,1.134-.6,4.322,4.322,0,0,1,1.455-.193,3.567,3.567,0,0,1,1.34.259,2.644,2.644,0,0,1,.927.65,2.934,2.934,0,0,1,.571.949,5.172,5.172,0,0,1,.281,1.151,7.806,7.806,0,0,1,.057,1.266q-.022.655-.1,1.288ZM166.808,17.3q.044-.369.083-.8a7.592,7.592,0,0,0,.031-.857,4.582,4.582,0,0,0-.092-.835,2.29,2.29,0,0,0-.277-.725,1.5,1.5,0,0,0-.523-.519,1.73,1.73,0,0,0-.839-.215,2.452,2.452,0,0,0-.967.145,2.27,2.27,0,0,0-.738.457,2.952,2.952,0,0,0-.545.69,5.025,5.025,0,0,0-.387.844,7.479,7.479,0,0,0-.259.918q-.1.47-.163.91l-.369,2.487q-.044.352-.083.787a7.96,7.96,0,0,0-.031.879,4.876,4.876,0,0,0,.092.861,2.445,2.445,0,0,0,.277.751,1.591,1.591,0,0,0,.519.545,1.614,1.614,0,0,0,.835.229,2.238,2.238,0,0,0,.976-.149,2.377,2.377,0,0,0,.738-.479,2.984,2.984,0,0,0,.545-.716,5.462,5.462,0,0,0,.387-.875,7.5,7.5,0,0,0,.255-.936q.1-.475.158-.905Zm11.145,2.232q-.105.694-.272,1.384a9.734,9.734,0,0,1-.422,1.327,6.4,6.4,0,0,1-.615,1.178,4.166,4.166,0,0,1-.857.94,3.637,3.637,0,0,1-1.143.615,4.319,4.319,0,0,1-1.463.2,3.416,3.416,0,0,1-1.336-.268,2.694,2.694,0,0,1-.923-.668,3.017,3.017,0,0,1-.571-.967,5.327,5.327,0,0,1-.281-1.169,7.947,7.947,0,0,1-.057-1.274q.022-.655.1-1.288l.29-1.951a13.964,13.964,0,0,1,.264-1.38,9.064,9.064,0,0,1,.426-1.314,6.273,6.273,0,0,1,.624-1.16,4.082,4.082,0,0,1,.861-.918,3.742,3.742,0,0,1,1.134-.6,4.322,4.322,0,0,1,1.455-.193,3.567,3.567,0,0,1,1.34.259,2.644,2.644,0,0,1,.927.65,2.934,2.934,0,0,1,.571.949,5.172,5.172,0,0,1,.281,1.151,7.806,7.806,0,0,1,.057,1.266q-.022.655-.1,1.288ZM176.7,17.3q.044-.369.083-.8a7.592,7.592,0,0,0,.031-.857,4.582,4.582,0,0,0-.092-.835,2.29,2.29,0,0,0-.277-.725,1.5,1.5,0,0,0-.523-.519,1.73,1.73,0,0,0-.839-.215,2.452,2.452,0,0,0-.967.145,2.27,2.27,0,0,0-.738.457,2.952,2.952,0,0,0-.545.69,5.025,5.025,0,0,0-.387.844,7.479,7.479,0,0,0-.259.918q-.1.47-.163.91l-.369,2.487q-.044.352-.083.787a7.96,7.96,0,0,0-.031.879,4.876,4.876,0,0,0,.092.861,2.445,2.445,0,0,0,.277.751,1.591,1.591,0,0,0,.519.545,1.614,1.614,0,0,0,.835.229,2.238,2.238,0,0,0,.976-.149,2.377,2.377,0,0,0,.738-.479,2.984,2.984,0,0,0,.545-.716,5.462,5.462,0,0,0,.387-.875,7.5,7.5,0,0,0,.255-.936q.1-.475.158-.905Zm2.733,6.873a.983.983,0,0,1,.976-1.02.952.952,0,0,1,.712.264.908.908,0,0,1,.272.7.95.95,0,0,1-.29.7,1.046,1.046,0,0,1-.7.286,1.006,1.006,0,0,1-.391-.057.863.863,0,0,1-.308-.189.846.846,0,0,1-.2-.3A1.032,1.032,0,0,1,179.438,24.174Zm13.1-4.641q-.105.694-.272,1.384a9.734,9.734,0,0,1-.422,1.327,6.4,6.4,0,0,1-.615,1.178,4.166,4.166,0,0,1-.857.94,3.637,3.637,0,0,1-1.143.615,4.319,4.319,0,0,1-1.463.2,3.416,3.416,0,0,1-1.336-.268,2.694,2.694,0,0,1-.923-.668,3.017,3.017,0,0,1-.571-.967,5.327,5.327,0,0,1-.281-1.169,7.947,7.947,0,0,1-.057-1.274q.022-.655.1-1.288l.29-1.951a13.964,13.964,0,0,1,.264-1.38,9.064,9.064,0,0,1,.426-1.314,6.273,6.273,0,0,1,.624-1.16,4.082,4.082,0,0,1,.861-.918,3.742,3.742,0,0,1,1.134-.6,4.322,4.322,0,0,1,1.455-.193,3.567,3.567,0,0,1,1.34.259,2.644,2.644,0,0,1,.927.65,2.934,2.934,0,0,1,.571.949,5.172,5.172,0,0,1,.281,1.151,7.806,7.806,0,0,1,.057,1.266q-.022.655-.1,1.288ZM191.285,17.3q.044-.369.083-.8a7.592,7.592,0,0,0,.031-.857,4.582,4.582,0,0,0-.092-.835,2.29,2.29,0,0,0-.277-.725,1.5,1.5,0,0,0-.523-.519,1.73,1.73,0,0,0-.839-.215,2.452,2.452,0,0,0-.967.145,2.27,2.27,0,0,0-.738.457,2.952,2.952,0,0,0-.545.69,5.025,5.025,0,0,0-.387.844,7.479,7.479,0,0,0-.259.918q-.1.47-.163.91l-.369,2.487q-.044.352-.083.787a7.96,7.96,0,0,0-.031.879,4.876,4.876,0,0,0,.092.861,2.445,2.445,0,0,0,.277.751,1.591,1.591,0,0,0,.519.545,1.614,1.614,0,0,0,.835.229,2.238,2.238,0,0,0,.976-.149,2.377,2.377,0,0,0,.738-.479,2.984,2.984,0,0,0,.545-.716,5.462,5.462,0,0,0,.387-.875,7.5,7.5,0,0,0,.255-.936q.1-.475.158-.905Zm11.145,2.232q-.105.694-.272,1.384a9.734,9.734,0,0,1-.422,1.327,6.4,6.4,0,0,1-.615,1.178,4.166,4.166,0,0,1-.857.94,3.637,3.637,0,0,1-1.143.615,4.319,4.319,0,0,1-1.463.2,3.416,3.416,0,0,1-1.336-.268,2.694,2.694,0,0,1-.923-.668,3.017,3.017,0,0,1-.571-.967,5.327,5.327,0,0,1-.281-1.169,7.947,7.947,0,0,1-.057-1.274q.022-.655.1-1.288l.29-1.951a13.964,13.964,0,0,1,.264-1.38,9.064,9.064,0,0,1,.426-1.314,6.273,6.273,0,0,1,.624-1.16,4.082,4.082,0,0,1,.861-.918,3.742,3.742,0,0,1,1.134-.6,4.322,4.322,0,0,1,1.455-.193,3.567,3.567,0,0,1,1.34.259,2.644,2.644,0,0,1,.927.65,2.934,2.934,0,0,1,.571.949,5.172,5.172,0,0,1,.281,1.151,7.806,7.806,0,0,1,.057,1.266q-.022.655-.1,1.288ZM201.182,17.3q.044-.369.083-.8a7.592,7.592,0,0,0,.031-.857,4.582,4.582,0,0,0-.092-.835,2.29,2.29,0,0,0-.277-.725,1.5,1.5,0,0,0-.523-.519,1.73,1.73,0,0,0-.839-.215,2.452,2.452,0,0,0-.967.145,2.27,2.27,0,0,0-.738.457,2.952,2.952,0,0,0-.545.69,5.025,5.025,0,0,0-.387.844,7.479,7.479,0,0,0-.259.918q-.1.47-.163.91l-.369,2.487q-.044.352-.083.787a7.96,7.96,0,0,0-.031.879,4.876,4.876,0,0,0,.092.861,2.445,2.445,0,0,0,.277.751,1.591,1.591,0,0,0,.519.545,1.614,1.614,0,0,0,.835.229,2.238,2.238,0,0,0,.976-.149,2.377,2.377,0,0,0,.738-.479,2.984,2.984,0,0,0,.545-.716,5.462,5.462,0,0,0,.387-.875,7.5,7.5,0,0,0,.255-.936q.1-.475.158-.905Zm11.145,2.232q-.105.694-.272,1.384a9.734,9.734,0,0,1-.422,1.327,6.4,6.4,0,0,1-.615,1.178,4.166,4.166,0,0,1-.857.94,3.637,3.637,0,0,1-1.143.615,4.319,4.319,0,0,1-1.463.2,3.416,3.416,0,0,1-1.336-.268,2.694,2.694,0,0,1-.923-.668,3.017,3.017,0,0,1-.571-.967,5.327,5.327,0,0,1-.281-1.169,7.947,7.947,0,0,1-.057-1.274q.022-.655.1-1.288l.29-1.951a13.964,13.964,0,0,1,.264-1.38,9.064,9.064,0,0,1,.426-1.314,6.273,6.273,0,0,1,.624-1.16,4.082,4.082,0,0,1,.861-.918,3.742,3.742,0,0,1,1.134-.6,4.322,4.322,0,0,1,1.455-.193,3.567,3.567,0,0,1,1.34.259,2.644,2.644,0,0,1,.927.65,2.934,2.934,0,0,1,.571.949,5.172,5.172,0,0,1,.281,1.151,7.806,7.806,0,0,1,.057,1.266q-.022.655-.1,1.288ZM211.078,17.3q.044-.369.083-.8a7.592,7.592,0,0,0,.031-.857,4.582,4.582,0,0,0-.092-.835,2.29,2.29,0,0,0-.277-.725,1.5,1.5,0,0,0-.523-.519,1.73,1.73,0,0,0-.839-.215,2.452,2.452,0,0,0-.967.145,2.27,2.27,0,0,0-.738.457,2.952,2.952,0,0,0-.545.69,5.025,5.025,0,0,0-.387.844,7.479,7.479,0,0,0-.259.918q-.1.47-.163.91l-.369,2.487q-.044.352-.083.787a7.96,7.96,0,0,0-.031.879,4.876,4.876,0,0,0,.092.861,2.445,2.445,0,0,0,.277.751,1.591,1.591,0,0,0,.519.545,1.614,1.614,0,0,0,.835.229,2.238,2.238,0,0,0,.976-.149,2.377,2.377,0,0,0,.738-.479,2.984,2.984,0,0,0,.545-.716,5.462,5.462,0,0,0,.387-.875,7.5,7.5,0,0,0,.255-.936q.1-.475.158-.905Z" transform="translate(-0.483 14.449)" fill="#12263f"/>
</svg>
