<svg xmlns="http://www.w3.org/2000/svg" xmlns:xlink="http://www.w3.org/1999/xlink" width="505" height="541.726" viewBox="0 0 505 541.726">
  <defs>
    <clipPath id="clip-path">
      <rect id="Rectángulo_406775" data-name="Rectángulo 406775" width="463.756" height="289.209" fill="none"/>
    </clipPath>
  </defs>
  <g id="Grupo_1118439" data-name="Grupo 1118439" transform="translate(-914.975 -683.274)">
    <g id="Grupo_1115983" data-name="Grupo 1115983" transform="translate(-0.025 -4311.191)">
      <rect id="Rectángulo_405611" data-name="Rectángulo 405611" width="505" height="541.726" transform="translate(915 4994.466)" fill="#feead4"/>
    </g>
    <g id="Grupo_1118338" data-name="Grupo 1118338" transform="translate(942.051 782.896)">
      <g id="Grupo_1118337" data-name="Grupo 1118337" clip-path="url(#clip-path)">
        <path id="Trazado_911276" data-name="Trazado 911276" d="M663.656,382.091v-3.645A7.505,7.505,0,0,1,657.967,376q-1.9-2.265-2.044-6.977l5.634-.847a14.231,14.231,0,0,0,.331,3.093,3.322,3.322,0,0,0,.865,1.694,1.987,1.987,0,0,0,1.381.515,1.315,1.315,0,0,0,1.345-.7,3.586,3.586,0,0,0,.312-1.472,5.4,5.4,0,0,0-.865-3.111,13.281,13.281,0,0,0-2.375-2.559l-2.615-2.246a22.331,22.331,0,0,1-2.007-2.043,8.593,8.593,0,0,1-1.454-2.43,8.858,8.858,0,0,1-.552-3.3,7.377,7.377,0,0,1,2.006-5.486,8.271,8.271,0,0,1,5.394-2.246v-3.5H665.2v3.461a6.7,6.7,0,0,1,3.423.976,5.64,5.64,0,0,1,1.933,2.135,9.39,9.39,0,0,1,.883,2.688,19.327,19.327,0,0,1,.276,2.633l-5.706.7q-.036-1.325-.165-2.32a3.345,3.345,0,0,0-.517-1.528,1.34,1.34,0,0,0-1.233-.5,1.461,1.461,0,0,0-1.362.773,3.088,3.088,0,0,0-.442,1.546,4.314,4.314,0,0,0,.9,2.853,19.313,19.313,0,0,0,1.97,2.044l2.5,2.172a22.71,22.71,0,0,1,2.3,2.43,10.846,10.846,0,0,1,1.675,2.872,9.868,9.868,0,0,1,.626,3.645,7.876,7.876,0,0,1-.81,3.571,6.753,6.753,0,0,1-2.319,2.633,7.843,7.843,0,0,1-3.609,1.234v3.681Z" transform="translate(-217.513 -114.204)" fill="none" stroke="#fff" stroke-linecap="round" stroke-linejoin="round" stroke-width="1"/>
        <path id="Trazado_911277" data-name="Trazado 911277" d="M230.728,38.2V34.557a7.5,7.5,0,0,1-5.689-2.448q-1.9-2.265-2.044-6.977l5.634-.847a14.218,14.218,0,0,0,.331,3.092,3.316,3.316,0,0,0,.865,1.694,1.984,1.984,0,0,0,1.381.515,1.315,1.315,0,0,0,1.345-.7,3.584,3.584,0,0,0,.312-1.472A5.407,5.407,0,0,0,232,24.3a13.261,13.261,0,0,0-2.375-2.558L227.008,19.5A22.237,22.237,0,0,1,225,17.454a8.577,8.577,0,0,1-1.454-2.43,8.854,8.854,0,0,1-.552-3.294A7.38,7.38,0,0,1,225,6.243,8.267,8.267,0,0,1,230.4,4V.5h1.878V3.96a6.7,6.7,0,0,1,3.424.977,5.634,5.634,0,0,1,1.933,2.135,9.4,9.4,0,0,1,.883,2.688,19.335,19.335,0,0,1,.276,2.633l-5.706.7q-.037-1.326-.166-2.321a3.341,3.341,0,0,0-.516-1.528,1.339,1.339,0,0,0-1.233-.5,1.461,1.461,0,0,0-1.362.773,3.092,3.092,0,0,0-.442,1.547,4.312,4.312,0,0,0,.9,2.853,19.253,19.253,0,0,0,1.97,2.045l2.5,2.171a22.779,22.779,0,0,1,2.3,2.431,10.835,10.835,0,0,1,1.675,2.872,9.864,9.864,0,0,1,.626,3.645,7.877,7.877,0,0,1-.81,3.571,6.75,6.75,0,0,1-2.319,2.632,7.847,7.847,0,0,1-3.609,1.235V38.2Z" transform="translate(-73.948 -0.166)" fill="none" stroke="#fff" stroke-linecap="round" stroke-linejoin="round" stroke-width="1"/>
        <rect id="Rectángulo_406699" data-name="Rectángulo 406699" width="41.891" height="27.246" transform="translate(7.41 39.392)" fill="none" stroke="#fff" stroke-linecap="round" stroke-linejoin="round" stroke-width="1"/>
        <path id="Trazado_911278" data-name="Trazado 911278" d="M11.087,58.936,32.033,73.559,52.978,58.936" transform="translate(-3.677 -19.544)" fill="none" stroke="#fff" stroke-linecap="round" stroke-linejoin="round" stroke-width="1"/>
        <line id="Línea_634" data-name="Línea 634" x1="14.372" y1="15.969" transform="translate(83.83 171.346)" fill="none" stroke="#fff" stroke-linecap="round" stroke-linejoin="round" stroke-width="1"/>
        <line id="Línea_635" data-name="Línea 635" x1="1.942" y1="2.158" transform="translate(100.225 189.563)" fill="none" stroke="#fff" stroke-linecap="round" stroke-linejoin="round" stroke-width="1"/>
        <rect id="Rectángulo_406700" data-name="Rectángulo 406700" width="7.502" height="16.361" transform="translate(0.334 260.136)" fill="none" stroke="#fff" stroke-linecap="round" stroke-linejoin="round" stroke-width="1"/>
        <rect id="Rectángulo_406701" data-name="Rectángulo 406701" width="7.502" height="21.221" transform="translate(11.588 255.276)" fill="none" stroke="#fff" stroke-linecap="round" stroke-linejoin="round" stroke-width="1"/>
        <rect id="Rectángulo_406702" data-name="Rectángulo 406702" width="7.503" height="27.701" transform="translate(22.841 248.796)" fill="none" stroke="#fff" stroke-linecap="round" stroke-linejoin="round" stroke-width="1"/>
        <rect id="Rectángulo_406703" data-name="Rectángulo 406703" width="7.502" height="33.856" transform="translate(34.094 242.64)" fill="none" stroke="#fff" stroke-linecap="round" stroke-linejoin="round" stroke-width="1"/>
        <line id="Línea_636" data-name="Línea 636" x2="3.24" transform="translate(46.643 243.209)" fill="none" stroke="#fff" stroke-linecap="round" stroke-linejoin="round" stroke-width="1"/>
        <line id="Línea_637" data-name="Línea 637" x2="3.24" transform="translate(46.643 249.364)" fill="none" stroke="#fff" stroke-linecap="round" stroke-linejoin="round" stroke-width="1"/>
        <line id="Línea_638" data-name="Línea 638" x2="3.24" transform="translate(46.643 255.52)" fill="none" stroke="#fff" stroke-linecap="round" stroke-linejoin="round" stroke-width="1"/>
        <line id="Línea_639" data-name="Línea 639" x2="3.24" transform="translate(46.643 261.675)" fill="none" stroke="#fff" stroke-linecap="round" stroke-linejoin="round" stroke-width="1"/>
        <line id="Línea_640" data-name="Línea 640" x2="3.24" transform="translate(46.643 267.831)" fill="none" stroke="#fff" stroke-linecap="round" stroke-linejoin="round" stroke-width="1"/>
        <line id="Línea_641" data-name="Línea 641" x2="3.24" transform="translate(46.643 273.987)" fill="none" stroke="#fff" stroke-linecap="round" stroke-linejoin="round" stroke-width="1"/>
        <rect id="Rectángulo_406704" data-name="Rectángulo 406704" width="7.502" height="16.361" transform="translate(413.873 58.169)" fill="none" stroke="#fff" stroke-linecap="round" stroke-linejoin="round" stroke-width="1"/>
        <rect id="Rectángulo_406705" data-name="Rectángulo 406705" width="7.502" height="21.221" transform="translate(425.126 53.309)" fill="none" stroke="#fff" stroke-linecap="round" stroke-linejoin="round" stroke-width="1"/>
        <rect id="Rectángulo_406706" data-name="Rectángulo 406706" width="7.502" height="27.701" transform="translate(436.38 46.83)" fill="none" stroke="#fff" stroke-linecap="round" stroke-linejoin="round" stroke-width="1"/>
        <rect id="Rectángulo_406707" data-name="Rectángulo 406707" width="7.502" height="33.856" transform="translate(447.633 40.674)" fill="none" stroke="#fff" stroke-linecap="round" stroke-linejoin="round" stroke-width="1"/>
        <line id="Línea_642" data-name="Línea 642" x2="3.24" transform="translate(460.182 41.242)" fill="none" stroke="#fff" stroke-linecap="round" stroke-linejoin="round" stroke-width="1"/>
        <line id="Línea_643" data-name="Línea 643" x2="3.24" transform="translate(460.182 47.398)" fill="none" stroke="#fff" stroke-linecap="round" stroke-linejoin="round" stroke-width="1"/>
        <line id="Línea_644" data-name="Línea 644" x2="3.24" transform="translate(460.182 53.553)" fill="none" stroke="#fff" stroke-linecap="round" stroke-linejoin="round" stroke-width="1"/>
        <line id="Línea_645" data-name="Línea 645" x2="3.24" transform="translate(460.182 59.709)" fill="none" stroke="#fff" stroke-linecap="round" stroke-linejoin="round" stroke-width="1"/>
        <line id="Línea_646" data-name="Línea 646" x2="3.24" transform="translate(460.182 65.864)" fill="none" stroke="#fff" stroke-linecap="round" stroke-linejoin="round" stroke-width="1"/>
        <line id="Línea_647" data-name="Línea 647" x2="3.24" transform="translate(460.182 72.02)" fill="none" stroke="#fff" stroke-linecap="round" stroke-linejoin="round" stroke-width="1"/>
        <rect id="Rectángulo_406708" data-name="Rectángulo 406708" width="48.474" height="40.003" transform="translate(293.161 7.582)" fill="none" stroke="#fff" stroke-linecap="round" stroke-linejoin="round" stroke-width="1"/>
        <rect id="Rectángulo_406709" data-name="Rectángulo 406709" width="6.088" height="6.088" transform="translate(296.088 18.843)" fill="none" stroke="#fff" stroke-linecap="round" stroke-linejoin="round" stroke-width="1"/>
        <rect id="Rectángulo_406710" data-name="Rectángulo 406710" width="6.088" height="6.088" transform="translate(305.221 18.843)" fill="none" stroke="#fff" stroke-linecap="round" stroke-linejoin="round" stroke-width="1"/>
        <rect id="Rectángulo_406711" data-name="Rectángulo 406711" width="6.088" height="6.088" transform="translate(314.353 18.843)" fill="none" stroke="#fff" stroke-linecap="round" stroke-linejoin="round" stroke-width="1"/>
        <rect id="Rectángulo_406712" data-name="Rectángulo 406712" width="6.088" height="6.088" transform="translate(323.486 18.843)" fill="none" stroke="#fff" stroke-linecap="round" stroke-linejoin="round" stroke-width="1"/>
        <rect id="Rectángulo_406713" data-name="Rectángulo 406713" width="6.088" height="6.088" transform="translate(332.619 18.843)" fill="none" stroke="#fff" stroke-linecap="round" stroke-linejoin="round" stroke-width="1"/>
        <rect id="Rectángulo_406714" data-name="Rectángulo 406714" width="6.088" height="6.088" transform="translate(296.088 28.229)" fill="none" stroke="#fff" stroke-linecap="round" stroke-linejoin="round" stroke-width="1"/>
        <rect id="Rectángulo_406715" data-name="Rectángulo 406715" width="6.088" height="6.088" transform="translate(305.221 28.229)" fill="none" stroke="#fff" stroke-linecap="round" stroke-linejoin="round" stroke-width="1"/>
        <rect id="Rectángulo_406716" data-name="Rectángulo 406716" width="6.088" height="6.088" transform="translate(314.353 28.229)" fill="none" stroke="#fff" stroke-linecap="round" stroke-linejoin="round" stroke-width="1"/>
        <rect id="Rectángulo_406717" data-name="Rectángulo 406717" width="6.088" height="6.088" transform="translate(323.486 28.229)" fill="none" stroke="#fff" stroke-linecap="round" stroke-linejoin="round" stroke-width="1"/>
        <rect id="Rectángulo_406718" data-name="Rectángulo 406718" width="6.088" height="6.088" transform="translate(332.619 28.229)" fill="none" stroke="#fff" stroke-linecap="round" stroke-linejoin="round" stroke-width="1"/>
        <rect id="Rectángulo_406719" data-name="Rectángulo 406719" width="6.088" height="6.088" transform="translate(296.088 37.615)" fill="none" stroke="#fff" stroke-linecap="round" stroke-linejoin="round" stroke-width="1"/>
        <rect id="Rectángulo_406720" data-name="Rectángulo 406720" width="6.088" height="6.088" transform="translate(305.221 37.615)" fill="none" stroke="#fff" stroke-linecap="round" stroke-linejoin="round" stroke-width="1"/>
        <rect id="Rectángulo_406721" data-name="Rectángulo 406721" width="6.088" height="6.088" transform="translate(314.353 37.615)" fill="none" stroke="#fff" stroke-linecap="round" stroke-linejoin="round" stroke-width="1"/>
        <rect id="Rectángulo_406722" data-name="Rectángulo 406722" width="6.088" height="6.088" transform="translate(323.486 37.615)" fill="none" stroke="#fff" stroke-linecap="round" stroke-linejoin="round" stroke-width="1"/>
        <rect id="Rectángulo_406723" data-name="Rectángulo 406723" width="6.088" height="6.088" transform="translate(332.619 37.615)" fill="none" stroke="#fff" stroke-linecap="round" stroke-linejoin="round" stroke-width="1"/>
        <path id="Trazado_911279" data-name="Trazado 911279" d="M464.689,11.64a1.769,1.769,0,0,1-1.769-1.769V3.782a1.769,1.769,0,1,1,3.538,0V9.871A1.769,1.769,0,0,1,464.689,11.64Z" transform="translate(-153.51 -0.668)" fill="none" stroke="#fff" stroke-linecap="round" stroke-linejoin="round" stroke-width="1"/>
        <path id="Trazado_911280" data-name="Trazado 911280" d="M483.3,11.64a1.769,1.769,0,0,1-1.769-1.769V3.782a1.77,1.77,0,0,1,3.539,0V9.871A1.769,1.769,0,0,1,483.3,11.64Z" transform="translate(-159.681 -0.668)" fill="none" stroke="#fff" stroke-linecap="round" stroke-linejoin="round" stroke-width="1"/>
        <path id="Trazado_911281" data-name="Trazado 911281" d="M65.447,158.2S54.676,138.376,35.794,137.09c-10.747-.731-23.119,1.508-21.108,4.021S31.271,165.235,65.447,158.2" transform="translate(-4.798 -45.414)" fill="#fff"/>
        <path id="Trazado_911282" data-name="Trazado 911282" d="M92.422,151.849s3.8-22.239,21.252-29.55c9.936-4.162,22.368-6.036,21.277-3.008s-7.911,28.187-42.529,32.558" transform="translate(-30.648 -39.064)" fill="#fff"/>
        <path id="Trazado_911283" data-name="Trazado 911283" d="M88.154,111.515S77.139,91.827,86.129,75.173c5.117-9.479,13.614-18.746,14.666-15.705s11.549,26.9-12.642,52.047" transform="translate(-27.391 -19.525)" fill="#fff"/>
        <path id="Trazado_911284" data-name="Trazado 911284" d="M70.495,204.193S59.724,184.37,40.842,183.084c-10.747-.732-23.119,1.508-21.108,4.021s16.585,24.124,50.761,17.088" transform="translate(-6.472 -60.666)" fill="#fff"/>
        <path id="Trazado_911285" data-name="Trazado 911285" d="M96.348,199.782s5.932-21.767,24.014-27.352c10.292-3.18,22.848-3.841,21.468-.933s-10.6,27.288-45.482,28.285" transform="translate(-31.95 -56.255)" fill="#fff"/>
        <path id="Trazado_911286" data-name="Trazado 911286" d="M77.079,251.778s-14.106-17.607-32.918-15.533c-10.707,1.18-22.488,5.572-20.065,7.69s20.59,20.812,52.983,7.844" transform="translate(-7.884 -78.286)" fill="#fff"/>
        <path id="Trazado_911287" data-name="Trazado 911287" d="M104.519,245.682s7.451-21.294,25.882-25.593c10.49-2.446,23.061-2.221,21.48.582s-12.5,26.473-47.362,25.011" transform="translate(-34.66 -72.424)" fill="#fff"/>
        <path id="Trazado_911288" data-name="Trazado 911288" d="M87.522,294.717S71.151,279.2,52.8,283.811c-10.447,2.627-21.521,8.581-18.832,10.349s23.232,17.815,53.558.557" transform="translate(-11.128 -93.831)" fill="#fff"/>
        <path id="Trazado_911289" data-name="Trazado 911289" d="M114.49,288.522s9.166-20.614,27.886-23.393c10.655-1.581,23.166-.33,21.361,2.335s-14.621,25.363-49.247,21.058" transform="translate(-37.966 -87.689)" fill="#fff"/>
        <path id="Trazado_911290" data-name="Trazado 911290" d="M99.5,329.192S81,316.278,63.541,323.573c-9.94,4.151-20,11.688-17.082,13.036s25.623,14.16,53.045-7.418" transform="translate(-15.236 -106.561)" fill="#fff"/>
        <path id="Trazado_911291" data-name="Trazado 911291" d="M128.88,319.88s7.8-21.168,26.3-25.16c10.53-2.272,23.1-1.838,21.468.938S163.713,321.92,128.88,319.88" transform="translate(-42.738 -97.249)" fill="#fff"/>
        <path id="Trazado_911292" data-name="Trazado 911292" d="M142.9,352.973s7.8-21.168,26.3-25.16c10.53-2.272,23.1-1.838,21.468.938s-12.938,26.262-47.771,24.222" transform="translate(-47.389 -108.223)" fill="#fff"/>
        <path id="Trazado_911293" data-name="Trazado 911293" d="M166.826,389.725s7.8-21.168,26.3-25.16c10.53-2.272,23.1-1.838,21.468.938s-12.938,26.262-47.771,24.222" transform="translate(-55.322 -120.411)" fill="#fff"/>
        <path id="Trazado_911294" data-name="Trazado 911294" d="M115.209,362.285s-18.5-12.913-35.963-5.618c-9.94,4.151-20,11.688-17.082,13.036s25.623,14.16,53.045-7.418" transform="translate(-20.444 -117.535)" fill="#fff"/>
        <path id="Trazado_911295" data-name="Trazado 911295" d="M139.328,399.865s-18.5-12.913-35.963-5.618c-9.94,4.151-20,11.688-17.082,13.036s25.623,14.16,53.045-7.418" transform="translate(-28.442 -129.997)" fill="#fff"/>
        <path id="Trazado_911296" data-name="Trazado 911296" d="M155.21,330.143a.913.913,0,0,1-.676-.3c-16.576-18.164-30.293-40.151-40.77-65.349a311.241,311.241,0,0,1-18.831-66.069c-7.014-40.34-5.14-71.4-5.12-71.7a.916.916,0,0,1,1.827.116c-.02.307-1.88,31.185,5.1,71.322a309.428,309.428,0,0,0,18.72,65.658c10.395,24.991,23.994,46.79,40.421,64.791a.915.915,0,0,1-.676,1.533" transform="translate(-29.703 -41.739)" fill="#fff"/>
        <path id="Trazado_911297" data-name="Trazado 911297" d="M608.652,158.2s10.771-19.823,29.653-21.109c10.747-.731,23.119,1.508,21.108,4.021s-16.585,24.124-50.761,17.088" transform="translate(-201.837 -45.414)" fill="#fff"/>
        <path id="Trazado_911298" data-name="Trazado 911298" d="M585.835,151.849s-3.8-22.239-21.252-29.55c-9.936-4.162-22.368-6.036-21.277-3.008s7.911,28.187,42.529,32.558" transform="translate(-180.145 -39.064)" fill="#fff"/>
        <path id="Trazado_911299" data-name="Trazado 911299" d="M600.64,111.515s11.015-19.689,2.025-36.342C597.547,65.694,589.05,56.427,588,59.468s-11.549,26.9,12.642,52.047" transform="translate(-193.939 -19.525)" fill="#fff"/>
        <path id="Trazado_911300" data-name="Trazado 911300" d="M603.6,204.193s10.771-19.823,29.653-21.109c10.747-.732,23.119,1.508,21.108,4.021S637.78,211.229,603.6,204.193" transform="translate(-200.163 -60.666)" fill="#fff"/>
        <path id="Trazado_911301" data-name="Trazado 911301" d="M580.426,199.782s-5.932-21.767-24.014-27.352c-10.292-3.18-22.848-3.841-21.468-.933s10.6,27.288,45.482,28.285" transform="translate(-177.359 -56.255)" fill="#fff"/>
        <path id="Trazado_911302" data-name="Trazado 911302" d="M595.866,251.778s14.106-17.607,32.918-15.533c10.707,1.18,22.489,5.572,20.065,7.69s-20.59,20.812-52.983,7.844" transform="translate(-197.597 -78.286)" fill="#fff"/>
        <path id="Trazado_911303" data-name="Trazado 911303" d="M571.306,245.682s-7.451-21.294-25.882-25.593c-10.49-2.446-23.061-2.221-21.481.582s12.5,26.473,47.363,25.011" transform="translate(-173.702 -72.424)" fill="#fff"/>
        <path id="Trazado_911304" data-name="Trazado 911304" d="M585.094,294.717s16.371-15.522,34.726-10.907c10.447,2.627,21.521,8.581,18.832,10.349s-23.231,17.815-53.558.557" transform="translate(-194.025 -93.831)" fill="#fff"/>
        <path id="Trazado_911305" data-name="Trazado 911305" d="M560.381,288.522s-9.166-20.614-27.886-23.393c-10.655-1.581-23.166-.33-21.362,2.335s14.621,25.363,49.247,21.058" transform="translate(-169.44 -87.689)" fill="#fff"/>
        <path id="Trazado_911306" data-name="Trazado 911306" d="M573.315,329.192s18.5-12.913,35.963-5.618c9.94,4.151,20,11.688,17.082,13.036s-25.623,14.16-53.044-7.418" transform="translate(-190.119 -106.561)" fill="#fff"/>
        <path id="Trazado_911307" data-name="Trazado 911307" d="M546.739,319.88s-7.8-21.168-26.3-25.16c-10.53-2.272-23.1-1.838-21.468.938s12.938,26.262,47.771,24.222" transform="translate(-165.417 -97.249)" fill="#fff"/>
        <path id="Trazado_911308" data-name="Trazado 911308" d="M532.716,352.973s-7.8-21.168-26.3-25.16c-10.53-2.272-23.1-1.838-21.468.938s12.938,26.262,47.771,24.222" transform="translate(-160.767 -108.223)" fill="#fff"/>
        <path id="Trazado_911309" data-name="Trazado 911309" d="M508.793,389.725s-7.8-21.168-26.3-25.16c-10.53-2.272-23.1-1.838-21.468.938s12.938,26.262,47.771,24.222" transform="translate(-152.833 -120.411)" fill="#fff"/>
        <path id="Trazado_911310" data-name="Trazado 911310" d="M557.61,362.285s18.5-12.913,35.963-5.618c9.94,4.151,20,11.688,17.082,13.036s-25.623,14.16-53.044-7.418" transform="translate(-184.911 -117.535)" fill="#fff"/>
        <path id="Trazado_911311" data-name="Trazado 911311" d="M533.491,399.865s18.5-12.913,35.963-5.618c9.94,4.151,20,11.688,17.082,13.036s-25.623,14.16-53.044-7.418" transform="translate(-176.913 -129.997)" fill="#fff"/>
        <path id="Trazado_911312" data-name="Trazado 911312" d="M511.162,330.143a.916.916,0,0,1-.676-1.533c16.427-18,30.027-39.8,40.421-64.791a309.429,309.429,0,0,0,18.721-65.658c6.983-40.137,5.124-71.014,5.1-71.322a.916.916,0,1,1,1.827-.116c.02.309,1.894,31.363-5.12,71.7A311.245,311.245,0,0,1,552.607,264.5c-10.477,25.2-24.194,47.185-40.769,65.349a.914.914,0,0,1-.676.3" transform="translate(-169.204 -41.739)" fill="#fff"/>
        <path id="Trazado_911313" data-name="Trazado 911313" d="M434.682,275.586s6.144-11.308,16.916-12.042c6.131-.417,13.189.86,12.042,2.294s-9.462,13.763-28.958,9.748" transform="translate(-144.146 -87.368)" fill="#fff"/>
        <path id="Trazado_911314" data-name="Trazado 911314" d="M421.666,271.963s-2.166-12.687-12.124-16.857c-5.668-2.374-12.761-3.444-12.138-1.716s4.513,16.08,24.262,18.574" transform="translate(-131.772 -83.745)" fill="#fff"/>
        <path id="Trazado_911315" data-name="Trazado 911315" d="M430.111,248.953s6.283-11.232,1.155-20.733c-2.919-5.407-7.767-10.694-8.367-8.959s-6.588,15.347,7.212,29.692" transform="translate(-139.64 -72.599)" fill="#fff"/>
        <path id="Trazado_911316" data-name="Trazado 911316" d="M431.8,301.824s6.144-11.308,16.916-12.042c6.131-.417,13.189.86,12.042,2.294s-9.462,13.763-28.958,9.748" transform="translate(-143.191 -96.069)" fill="#fff"/>
        <path id="Trazado_911317" data-name="Trazado 911317" d="M418.579,299.307s-3.384-12.417-13.7-15.6c-5.871-1.814-13.034-2.19-12.247-.532s6.05,15.567,25.947,16.136" transform="translate(-130.182 -93.552)" fill="#fff"/>
        <path id="Trazado_911318" data-name="Trazado 911318" d="M427.388,328.969s8.047-10.044,18.779-8.861c6.108.673,12.829,3.179,11.446,4.387s-11.746,11.873-30.225,4.475" transform="translate(-141.727 -106.12)" fill="#fff"/>
        <path id="Trazado_911319" data-name="Trazado 911319" d="M413.378,325.492s-4.25-12.148-14.765-14.6c-5.985-1.4-13.157-1.267-12.254.332s7.131,15.1,27.019,14.268" transform="translate(-128.096 -102.776)" fill="#fff"/>
        <path id="Trazado_911320" data-name="Trazado 911320" d="M421.242,353.465s9.34-8.855,19.811-6.222c5.959,1.5,12.276,4.9,10.742,5.9s-13.253,10.163-30.553.317" transform="translate(-139.689 -114.988)" fill="#fff"/>
        <path id="Trazado_911321" data-name="Trazado 911321" d="M407.145,349.932s-5.229-11.76-15.908-13.345c-6.078-.9-13.215-.188-12.186,1.331s8.34,14.469,28.094,12.014" transform="translate(-125.665 -111.485)" fill="#fff"/>
        <path id="Trazado_911322" data-name="Trazado 911322" d="M414.523,373.132s10.553-7.367,20.515-3.206c5.671,2.369,11.412,6.668,9.745,7.437s-14.618,8.078-30.261-4.232" transform="translate(-137.461 -122.25)" fill="#fff"/>
        <path id="Trazado_911323" data-name="Trazado 911323" d="M399.362,367.82s-4.451-12.076-15.005-14.353c-6.007-1.3-13.175-1.049-12.247.535s7.38,14.982,27.252,13.818" transform="translate(-123.369 -116.938)" fill="#fff"/>
        <path id="Trazado_911324" data-name="Trazado 911324" d="M391.362,386.7s-4.451-12.076-15.005-14.353c-6.007-1.3-13.175-1.049-12.247.535s7.38,14.981,27.252,13.818" transform="translate(-120.716 -123.199)" fill="#fff"/>
        <path id="Trazado_911325" data-name="Trazado 911325" d="M377.715,407.665s-4.451-12.076-15.005-14.353c-6.007-1.3-13.175-1.049-12.247.535s7.38,14.981,27.252,13.818" transform="translate(-116.191 -130.151)" fill="#fff"/>
        <path id="Trazado_911326" data-name="Trazado 911326" d="M405.563,392.011s10.553-7.367,20.515-3.206c5.671,2.369,11.412,6.668,9.745,7.437s-14.618,8.078-30.261-4.232" transform="translate(-134.49 -128.51)" fill="#fff"/>
        <path id="Trazado_911327" data-name="Trazado 911327" d="M391.8,413.45s10.553-7.367,20.515-3.206c5.671,2.369,11.412,6.668,9.745,7.437s-14.618,8.078-30.261-4.232" transform="translate(-129.927 -135.62)" fill="#fff"/>
        <path id="Trazado_911328" data-name="Trazado 911328" d="M379.066,373.675a.522.522,0,0,1-.386-.874,126.61,126.61,0,0,0,23.059-36.962,176.528,176.528,0,0,0,10.68-37.457,193.556,193.556,0,0,0,2.911-40.687.522.522,0,0,1,1.043-.067,194.692,194.692,0,0,1-2.921,40.906,177.568,177.568,0,0,1-10.743,37.69,127.643,127.643,0,0,1-23.258,37.28.52.52,0,0,1-.386.17" transform="translate(-125.53 -85.271)" fill="#fff"/>
        <path id="Trazado_911329" data-name="Trazado 911329" d="M257.274,275.586s-6.144-11.308-16.916-12.042c-6.131-.417-13.189.86-12.042,2.294s9.462,13.763,28.959,9.748" transform="translate(-75.671 -87.368)" fill="#fff"/>
        <path id="Trazado_911330" data-name="Trazado 911330" d="M272.663,271.963s2.166-12.687,12.124-16.857c5.668-2.374,12.761-3.444,12.138-1.716s-4.513,16.08-24.262,18.574" transform="translate(-90.419 -83.745)" fill="#fff"/>
        <path id="Trazado_911331" data-name="Trazado 911331" d="M270.228,248.953s-6.284-11.232-1.155-20.733c2.919-5.407,7.767-10.694,8.367-8.959s6.588,15.347-7.212,29.692" transform="translate(-88.56 -72.599)" fill="#fff"/>
        <path id="Trazado_911332" data-name="Trazado 911332" d="M260.154,301.824s-6.144-11.308-16.916-12.042c-6.131-.417-13.189.86-12.042,2.294s9.462,13.763,28.959,9.748" transform="translate(-76.627 -96.069)" fill="#fff"/>
        <path id="Trazado_911333" data-name="Trazado 911333" d="M274.9,299.307s3.384-12.417,13.7-15.6c5.871-1.814,13.034-2.19,12.247-.532s-6.05,15.567-25.947,16.136" transform="translate(-91.161 -93.552)" fill="#fff"/>
        <path id="Trazado_911334" data-name="Trazado 911334" d="M263.91,328.969s-8.047-10.044-18.779-8.861c-6.108.673-12.829,3.179-11.447,4.387s11.746,11.873,30.226,4.475" transform="translate(-77.432 -106.12)" fill="#fff"/>
        <path id="Trazado_911335" data-name="Trazado 911335" d="M279.564,325.492s4.25-12.148,14.765-14.6c5.985-1.4,13.157-1.267,12.254.332s-7.131,15.1-27.019,14.268" transform="translate(-92.707 -102.776)" fill="#fff"/>
        <path id="Trazado_911336" data-name="Trazado 911336" d="M269.868,353.465s-9.34-8.855-19.81-6.222c-5.96,1.5-12.277,4.9-10.743,5.9s13.253,10.163,30.553.317" transform="translate(-79.282 -114.988)" fill="#fff"/>
        <path id="Trazado_911337" data-name="Trazado 911337" d="M285.252,349.932s5.229-11.76,15.908-13.345c6.079-.9,13.216-.188,12.186,1.331s-8.341,14.469-28.094,12.014" transform="translate(-94.593 -111.485)" fill="#fff"/>
        <path id="Trazado_911338" data-name="Trazado 911338" d="M276.7,373.132s-10.553-7.367-20.515-3.206c-5.671,2.369-11.412,6.668-9.745,7.437s14.618,8.078,30.261-4.232" transform="translate(-81.626 -122.25)" fill="#fff"/>
        <path id="Trazado_911339" data-name="Trazado 911339" d="M293.461,367.82s4.451-12.076,15.005-14.353c6.007-1.3,13.175-1.049,12.247.535s-7.38,14.982-27.252,13.818" transform="translate(-97.315 -116.938)" fill="#fff"/>
        <path id="Trazado_911340" data-name="Trazado 911340" d="M301.461,386.7s4.451-12.076,15.005-14.353c6.007-1.3,13.175-1.049,12.247.535s-7.38,14.981-27.252,13.818" transform="translate(-99.968 -123.199)" fill="#fff"/>
        <path id="Trazado_911341" data-name="Trazado 911341" d="M315.109,407.665s4.451-12.076,15.005-14.353c6.007-1.3,13.175-1.049,12.247.535s-7.38,14.981-27.252,13.818" transform="translate(-104.494 -130.151)" fill="#fff"/>
        <path id="Trazado_911342" data-name="Trazado 911342" d="M285.662,392.011s-10.553-7.367-20.515-3.206c-5.671,2.369-11.412,6.668-9.745,7.437s14.618,8.078,30.261-4.232" transform="translate(-84.597 -128.51)" fill="#fff"/>
        <path id="Trazado_911343" data-name="Trazado 911343" d="M299.421,413.45s-10.553-7.367-20.515-3.206c-5.671,2.369-11.412,6.668-9.745,7.437s14.618,8.078,30.261-4.232" transform="translate(-89.16 -135.62)" fill="#fff"/>
        <path id="Trazado_911344" data-name="Trazado 911344" d="M308.482,373.675a.522.522,0,0,0,.386-.874,126.611,126.611,0,0,1-23.059-36.962,176.525,176.525,0,0,1-10.68-37.457,193.56,193.56,0,0,1-2.911-40.687.523.523,0,0,0-1.043-.067,194.721,194.721,0,0,0,2.922,40.906,177.527,177.527,0,0,0,10.743,37.69A127.642,127.642,0,0,0,308.1,373.5a.52.52,0,0,0,.386.17" transform="translate(-89.879 -85.271)" fill="#fff"/>
        <rect id="Rectángulo_406724" data-name="Rectángulo 406724" width="7.27" height="7.27" transform="translate(295.629 66.506) rotate(-45)" fill="#9ebedf"/>
        <rect id="Rectángulo_406725" data-name="Rectángulo 406725" width="7.27" height="7.27" transform="translate(159.052 180.752) rotate(-45)" fill="#9ebedf"/>
        <rect id="Rectángulo_406726" data-name="Rectángulo 406726" width="7.27" height="7.27" transform="translate(226.561 243.588) rotate(-45)" fill="#9ebedf"/>
        <rect id="Rectángulo_406727" data-name="Rectángulo 406727" width="4.27" height="4.27" transform="translate(301.438 231.08) rotate(-45)" fill="#9ebedf"/>
        <rect id="Rectángulo_406728" data-name="Rectángulo 406728" width="4.27" height="4.27" transform="matrix(0.707, -0.707, 0.707, 0.707, 404.673, 23.467)" fill="#9ebedf"/>
        <rect id="Rectángulo_406729" data-name="Rectángulo 406729" width="4.27" height="4.27" transform="matrix(0.707, -0.707, 0.707, 0.707, 443.441, 75.104)" fill="#9ebedf"/>
        <rect id="Rectángulo_406730" data-name="Rectángulo 406730" width="7.27" height="7.27" transform="translate(11.051 220.219) rotate(-45)" fill="#fd9826"/>
        <rect id="Rectángulo_406731" data-name="Rectángulo 406731" width="13.479" height="13.479" transform="translate(27.432 13.536) rotate(-45)" fill="#fd9826"/>
        <rect id="Rectángulo_406732" data-name="Rectángulo 406732" width="13.479" height="13.479" transform="translate(399.884 185.66) rotate(-45)" fill="#fd9826"/>
        <path id="Trazado_911345" data-name="Trazado 911345" d="M37.718,187.827a5.193,5.193,0,1,0-5.193,5.193,5.194,5.194,0,0,0,5.193-5.193" transform="translate(-9.064 -60.564)" fill="#fd9826"/>
        <path id="Trazado_911346" data-name="Trazado 911346" d="M416.093,28.553a5.193,5.193,0,1,0-5.193,5.193,5.194,5.194,0,0,0,5.193-5.193" transform="translate(-134.538 -7.746)" fill="#fd9826"/>
        <path id="Trazado_911347" data-name="Trazado 911347" d="M673.153,224.683a5.193,5.193,0,1,0-5.193,5.193,5.193,5.193,0,0,0,5.193-5.193" transform="translate(-219.782 -72.786)" fill="#fd9826"/>
        <path id="Trazado_911348" data-name="Trazado 911348" d="M195.946,17.929a3.116,3.116,0,1,0-3.116,3.116,3.115,3.115,0,0,0,3.116-3.116" transform="translate(-62.912 -4.913)" fill="#9ebedf"/>
        <path id="Trazado_911349" data-name="Trazado 911349" d="M369.206,284.423a3.116,3.116,0,1,0-3.116,3.116,3.116,3.116,0,0,0,3.116-3.116" transform="translate(-120.367 -93.285)" fill="#9ebedf"/>
        <path id="Trazado_911350" data-name="Trazado 911350" d="M470.987,194.3a3.116,3.116,0,1,0-3.116,3.116,3.116,3.116,0,0,0,3.116-3.116" transform="translate(-154.119 -63.398)" fill="#9ebedf"/>
        <path id="Trazado_911351" data-name="Trazado 911351" d="M623.419,387.16a3.116,3.116,0,1,0-3.116,3.116,3.116,3.116,0,0,0,3.116-3.116" transform="translate(-204.668 -127.354)" fill="#9ebedf"/>
        <line id="Línea_648" data-name="Línea 648" x2="449.683" transform="translate(9.965 287.704)" fill="none" stroke="#001e6c" stroke-linecap="round" stroke-linejoin="round" stroke-width="1"/>
        <rect id="Rectángulo_406733" data-name="Rectángulo 406733" width="13.484" height="88.825" transform="translate(233.058 199.031)" fill="#ffaa4c"/>
        <rect id="Rectángulo_406734" data-name="Rectángulo 406734" width="13.484" height="88.825" transform="translate(233.058 199.031)" fill="none" stroke="#001e6c" stroke-linecap="round" stroke-linejoin="round" stroke-width="1"/>
        <path id="Trazado_911352" data-name="Trazado 911352" d="M288.872,374.14H275.654l21.324-113.947H310.2Z" transform="translate(-91.41 -86.284)" fill="#ffaa4c"/>
        <path id="Trazado_911353" data-name="Trazado 911353" d="M288.872,374.14H275.654l21.324-113.947H310.2Z" transform="translate(-91.41 -86.284)" fill="none" stroke="#001e6c" stroke-linecap="round" stroke-linejoin="round" stroke-width="1"/>
        <path id="Trazado_911354" data-name="Trazado 911354" d="M410.029,374.14h13.218L401.923,260.193H388.705Z" transform="translate(-128.9 -86.284)" fill="#ffaa4c"/>
        <path id="Trazado_911355" data-name="Trazado 911355" d="M410.029,374.14h13.218L401.923,260.193H388.705Z" transform="translate(-128.9 -86.284)" fill="none" stroke="#001e6c" stroke-linecap="round" stroke-linejoin="round" stroke-width="1"/>
        <path id="Trazado_911356" data-name="Trazado 911356" d="M397.776,308.666h13.218l-3.939-21.052H393.837Z" transform="translate(-130.601 -95.376)" fill="#001e6c"/>
        <path id="Trazado_911357" data-name="Trazado 911357" d="M397.776,308.666h13.218l-3.939-21.052H393.837Z" transform="translate(-130.601 -95.376)" fill="none" stroke="#001e6c" stroke-linecap="round" stroke-linejoin="round" stroke-width="1"/>
        <rect id="Rectángulo_406735" data-name="Rectángulo 406735" width="13.484" height="14.259" transform="translate(233.058 199.031)" fill="#001e6c"/>
        <rect id="Rectángulo_406736" data-name="Rectángulo 406736" width="13.484" height="14.259" transform="translate(233.058 199.031)" fill="none" stroke="#001e6c" stroke-linecap="round" stroke-linejoin="round" stroke-width="1"/>
        <path id="Trazado_911358" data-name="Trazado 911358" d="M296.531,308.666h13.218l3.939-21.052H300.471Z" transform="translate(-98.334 -95.376)" fill="#001e6c"/>
        <path id="Trazado_911359" data-name="Trazado 911359" d="M296.531,308.666h13.218l3.939-21.052H300.471Z" transform="translate(-98.334 -95.376)" fill="none" stroke="#001e6c" stroke-linecap="round" stroke-linejoin="round" stroke-width="1"/>
        <rect id="Rectángulo_406737" data-name="Rectángulo 406737" width="134.213" height="175.933" transform="translate(172.693 30.337)" fill="#fff"/>
        <rect id="Rectángulo_406738" data-name="Rectángulo 406738" width="134.213" height="175.933" transform="translate(172.693 30.337)" fill="none" stroke="#001e6c" stroke-linecap="round" stroke-linejoin="round" stroke-width="1"/>
        <line id="Línea_649" data-name="Línea 649" x2="133.436" transform="translate(173.143 199.622)" fill="none" stroke="#001e6c" stroke-linecap="round" stroke-linejoin="round" stroke-width="1"/>
        <line id="Línea_650" data-name="Línea 650" x2="133.436" transform="translate(173.143 201.501)" fill="none" stroke="#001e6c" stroke-linecap="round" stroke-linejoin="round" stroke-width="1"/>
        <line id="Línea_651" data-name="Línea 651" x2="133.436" transform="translate(173.143 204.007)" fill="none" stroke="#001e6c" stroke-linecap="round" stroke-linejoin="round" stroke-width="1"/>
        <rect id="Rectángulo_406739" data-name="Rectángulo 406739" width="5.078" height="11.074" transform="translate(202.587 79.283)" fill="#fff"/>
        <rect id="Rectángulo_406740" data-name="Rectángulo 406740" width="5.078" height="11.074" transform="translate(202.587 79.283)" fill="none" stroke="#001e6c" stroke-linecap="round" stroke-linejoin="round" stroke-width="1"/>
        <rect id="Rectángulo_406741" data-name="Rectángulo 406741" width="5.078" height="14.363" transform="translate(210.204 75.994)" fill="#ffaa4c"/>
        <rect id="Rectángulo_406742" data-name="Rectángulo 406742" width="5.078" height="14.363" transform="translate(210.204 75.994)" fill="none" stroke="#001e6c" stroke-linecap="round" stroke-linejoin="round" stroke-width="1"/>
        <rect id="Rectángulo_406743" data-name="Rectángulo 406743" width="5.078" height="18.748" transform="translate(217.82 71.609)" fill="#fff"/>
        <rect id="Rectángulo_406744" data-name="Rectángulo 406744" width="5.078" height="18.748" transform="translate(217.82 71.609)" fill="none" stroke="#001e6c" stroke-linecap="round" stroke-linejoin="round" stroke-width="1"/>
        <rect id="Rectángulo_406745" data-name="Rectángulo 406745" width="5.078" height="22.915" transform="translate(225.437 67.442)" fill="#ffaa4c"/>
        <rect id="Rectángulo_406746" data-name="Rectángulo 406746" width="5.078" height="22.915" transform="translate(225.437 67.442)" fill="none" stroke="#001e6c" stroke-linecap="round" stroke-linejoin="round" stroke-width="1"/>
        <line id="Línea_652" data-name="Línea 652" x2="2.193" transform="translate(233.93 67.827)" fill="none" stroke="#001e6c" stroke-linecap="round" stroke-linejoin="round" stroke-width="1"/>
        <line id="Línea_653" data-name="Línea 653" x2="2.193" transform="translate(233.93 71.993)" fill="none" stroke="#001e6c" stroke-linecap="round" stroke-linejoin="round" stroke-width="1"/>
        <line id="Línea_654" data-name="Línea 654" x2="2.193" transform="translate(233.93 76.159)" fill="none" stroke="#001e6c" stroke-linecap="round" stroke-linejoin="round" stroke-width="1"/>
        <line id="Línea_655" data-name="Línea 655" x2="2.193" transform="translate(233.93 80.326)" fill="none" stroke="#001e6c" stroke-linecap="round" stroke-linejoin="round" stroke-width="1"/>
        <line id="Línea_656" data-name="Línea 656" x2="2.193" transform="translate(233.93 84.492)" fill="none" stroke="#001e6c" stroke-linecap="round" stroke-linejoin="round" stroke-width="1"/>
        <line id="Línea_657" data-name="Línea 657" x2="2.193" transform="translate(233.93 88.658)" fill="none" stroke="#001e6c" stroke-linecap="round" stroke-linejoin="round" stroke-width="1"/>
        <line id="Línea_658" data-name="Línea 658" x2="16.665" transform="translate(202.574 63.222)" fill="none" stroke="#001e6c" stroke-linecap="round" stroke-linejoin="round" stroke-width="1"/>
        <line id="Línea_659" data-name="Línea 659" x2="11.621" transform="translate(202.574 66.731)" fill="none" stroke="#001e6c" stroke-linecap="round" stroke-linejoin="round" stroke-width="1"/>
        <rect id="Rectángulo_406747" data-name="Rectángulo 406747" width="30.244" height="28.747" transform="translate(258.545 152.03)" fill="#ffaa4c"/>
        <rect id="Rectángulo_406748" data-name="Rectángulo 406748" width="30.244" height="28.747" transform="translate(258.545 152.03)" fill="none" stroke="#001e6c" stroke-linecap="round" stroke-linejoin="round" stroke-width="1"/>
        <rect id="Rectángulo_406749" data-name="Rectángulo 406749" width="4.519" height="4.519" transform="translate(260.641 158.918)" fill="#fff"/>
        <rect id="Rectángulo_406750" data-name="Rectángulo 406750" width="4.519" height="4.519" transform="translate(260.641 158.918)" fill="none" stroke="#001e6c" stroke-linecap="round" stroke-linejoin="round" stroke-width="1"/>
        <rect id="Rectángulo_406751" data-name="Rectángulo 406751" width="4.519" height="4.519" transform="translate(267.819 158.918)" fill="#001e6c"/>
        <rect id="Rectángulo_406752" data-name="Rectángulo 406752" width="4.519" height="4.519" transform="translate(267.819 158.918)" fill="none" stroke="#001e6c" stroke-linecap="round" stroke-linejoin="round" stroke-width="1"/>
        <rect id="Rectángulo_406753" data-name="Rectángulo 406753" width="4.519" height="4.519" transform="translate(274.996 158.918)" fill="#fff"/>
        <rect id="Rectángulo_406754" data-name="Rectángulo 406754" width="4.519" height="4.519" transform="translate(274.996 158.918)" fill="none" stroke="#001e6c" stroke-linecap="round" stroke-linejoin="round" stroke-width="1"/>
        <rect id="Rectángulo_406755" data-name="Rectángulo 406755" width="4.519" height="4.519" transform="translate(282.174 158.918)" fill="#fff"/>
        <rect id="Rectángulo_406756" data-name="Rectángulo 406756" width="4.519" height="4.519" transform="translate(282.174 158.918)" fill="none" stroke="#001e6c" stroke-linecap="round" stroke-linejoin="round" stroke-width="1"/>
        <rect id="Rectángulo_406757" data-name="Rectángulo 406757" width="4.519" height="4.519" transform="translate(260.641 166.24)" fill="#fff"/>
        <rect id="Rectángulo_406758" data-name="Rectángulo 406758" width="4.519" height="4.519" transform="translate(260.641 166.24)" fill="none" stroke="#001e6c" stroke-linecap="round" stroke-linejoin="round" stroke-width="1"/>
        <rect id="Rectángulo_406759" data-name="Rectángulo 406759" width="4.519" height="4.519" transform="translate(267.819 166.24)" fill="#fff"/>
        <rect id="Rectángulo_406760" data-name="Rectángulo 406760" width="4.519" height="4.519" transform="translate(267.819 166.24)" fill="none" stroke="#001e6c" stroke-linecap="round" stroke-linejoin="round" stroke-width="1"/>
        <rect id="Rectángulo_406761" data-name="Rectángulo 406761" width="4.519" height="4.519" transform="translate(274.996 166.24)" fill="#fff"/>
        <rect id="Rectángulo_406762" data-name="Rectángulo 406762" width="4.519" height="4.519" transform="translate(274.996 166.24)" fill="none" stroke="#001e6c" stroke-linecap="round" stroke-linejoin="round" stroke-width="1"/>
        <rect id="Rectángulo_406763" data-name="Rectángulo 406763" width="4.519" height="4.519" transform="translate(282.174 166.24)" fill="#fff"/>
        <rect id="Rectángulo_406764" data-name="Rectángulo 406764" width="4.519" height="4.519" transform="translate(282.174 166.24)" fill="none" stroke="#001e6c" stroke-linecap="round" stroke-linejoin="round" stroke-width="1"/>
        <rect id="Rectángulo_406765" data-name="Rectángulo 406765" width="4.519" height="4.519" transform="translate(260.641 173.563)" fill="#fff"/>
        <rect id="Rectángulo_406766" data-name="Rectángulo 406766" width="4.519" height="4.519" transform="translate(260.641 173.563)" fill="none" stroke="#001e6c" stroke-linecap="round" stroke-linejoin="round" stroke-width="1"/>
        <rect id="Rectángulo_406767" data-name="Rectángulo 406767" width="4.519" height="4.519" transform="translate(267.819 173.563)" fill="#fff"/>
        <rect id="Rectángulo_406768" data-name="Rectángulo 406768" width="4.519" height="4.519" transform="translate(267.819 173.563)" fill="none" stroke="#001e6c" stroke-linecap="round" stroke-linejoin="round" stroke-width="1"/>
        <rect id="Rectángulo_406769" data-name="Rectángulo 406769" width="4.519" height="4.519" transform="translate(274.996 173.563)" fill="#001e6c"/>
        <rect id="Rectángulo_406770" data-name="Rectángulo 406770" width="4.519" height="4.519" transform="translate(274.996 173.563)" fill="none" stroke="#001e6c" stroke-linecap="round" stroke-linejoin="round" stroke-width="1"/>
        <rect id="Rectángulo_406771" data-name="Rectángulo 406771" width="4.519" height="4.519" transform="translate(282.174 173.563)" fill="#fff"/>
        <rect id="Rectángulo_406772" data-name="Rectángulo 406772" width="4.519" height="4.519" transform="translate(282.174 173.563)" fill="none" stroke="#001e6c" stroke-linecap="round" stroke-linejoin="round" stroke-width="1"/>
        <rect id="Rectángulo_406773" data-name="Rectángulo 406773" width="30.843" height="21.261" transform="translate(190.87 160.18)" fill="#ffaa4c"/>
        <rect id="Rectángulo_406774" data-name="Rectángulo 406774" width="30.843" height="21.261" transform="translate(190.87 160.18)" fill="none" stroke="#001e6c" stroke-linecap="round" stroke-linejoin="round" stroke-width="1"/>
        <path id="Trazado_911360" data-name="Trazado 911360" d="M285.568,239.651l15.422,10.63,15.421-10.63Z" transform="translate(-94.698 -79.471)" fill="none" stroke="#001e6c" stroke-linecap="round" stroke-linejoin="round" stroke-width="1"/>
        <path id="Trazado_911361" data-name="Trazado 911361" d="M285.568,266.186l15.422-10.631,15.421,10.631" transform="translate(-94.698 -84.745)" fill="none" stroke="#001e6c" stroke-linecap="round" stroke-linejoin="round" stroke-width="1"/>
        <path id="Trazado_911362" data-name="Trazado 911362" d="M292.283,238.989v-9.914h22.409v9.79l-11.476,7.909Z" transform="translate(-96.925 -75.964)" fill="#fff"/>
        <path id="Trazado_911363" data-name="Trazado 911363" d="M292.283,238.989v-9.914h22.409v9.79l-11.476,7.909Z" transform="translate(-96.925 -75.964)" fill="none" stroke="#001e6c" stroke-linecap="round" stroke-linejoin="round" stroke-width="1"/>
        <line id="Línea_660" data-name="Línea 660" x2="15.233" transform="translate(198.75 157.286)" fill="none" stroke="#001e6c" stroke-linecap="round" stroke-linejoin="round" stroke-width="1"/>
        <line id="Línea_661" data-name="Línea 661" x2="15.233" transform="translate(198.75 160.721)" fill="none" stroke="#001e6c" stroke-linecap="round" stroke-linejoin="round" stroke-width="1"/>
        <line id="Línea_662" data-name="Línea 662" x2="15.233" transform="translate(198.75 164.156)" fill="none" stroke="#001e6c" stroke-linecap="round" stroke-linejoin="round" stroke-width="1"/>
        <path id="Trazado_911364" data-name="Trazado 911364" d="M396.457,105.053a3.632,3.632,0,1,1-3.631-3.632,3.632,3.632,0,0,1,3.631,3.632" transform="translate(-129.062 -33.633)" fill="#ffaa4c"/>
        <path id="Trazado_911365" data-name="Trazado 911365" d="M396.457,105.053a3.632,3.632,0,1,1-3.631-3.632A3.632,3.632,0,0,1,396.457,105.053Z" transform="translate(-129.062 -33.633)" fill="none" stroke="#001e6c" stroke-linecap="round" stroke-linejoin="round" stroke-width="1"/>
        <path id="Trazado_911366" data-name="Trazado 911366" d="M405.384,94.185a3.632,3.632,0,1,1-3.632-3.632,3.632,3.632,0,0,1,3.632,3.632" transform="translate(-132.022 -30.029)" fill="#ffaa4c"/>
        <path id="Trazado_911367" data-name="Trazado 911367" d="M405.384,94.185a3.632,3.632,0,1,1-3.632-3.632A3.632,3.632,0,0,1,405.384,94.185Z" transform="translate(-132.022 -30.029)" fill="none" stroke="#001e6c" stroke-linecap="round" stroke-linejoin="round" stroke-width="1"/>
        <path id="Trazado_911368" data-name="Trazado 911368" d="M421.909,94.185a3.632,3.632,0,1,1-3.632-3.632,3.632,3.632,0,0,1,3.632,3.632" transform="translate(-137.502 -30.029)" fill="#ffaa4c"/>
        <path id="Trazado_911369" data-name="Trazado 911369" d="M421.909,94.185a3.632,3.632,0,1,1-3.632-3.632A3.632,3.632,0,0,1,421.909,94.185Z" transform="translate(-137.502 -30.029)" fill="none" stroke="#001e6c" stroke-linecap="round" stroke-linejoin="round" stroke-width="1"/>
        <path id="Trazado_911370" data-name="Trazado 911370" d="M391.916,114.229h0a5.074,5.074,0,0,0-5.074,5.074v8.934H396.99V119.3A5.074,5.074,0,0,0,391.916,114.229Z" transform="translate(-128.282 -37.88)" fill="none" stroke="#001e6c" stroke-linecap="round" stroke-linejoin="round" stroke-width="1"/>
        <path id="Trazado_911371" data-name="Trazado 911371" d="M413.923,105.053a3.632,3.632,0,1,1-3.632-3.632,3.632,3.632,0,0,1,3.632,3.632" transform="translate(-134.854 -33.633)" fill="#ffaa4c"/>
        <path id="Trazado_911372" data-name="Trazado 911372" d="M413.923,105.053a3.632,3.632,0,1,1-3.632-3.632A3.632,3.632,0,0,1,413.923,105.053Z" transform="translate(-134.854 -33.633)" fill="none" stroke="#001e6c" stroke-linecap="round" stroke-linejoin="round" stroke-width="1"/>
        <path id="Trazado_911373" data-name="Trazado 911373" d="M409.382,114.229h0a5.074,5.074,0,0,0-5.074,5.074v8.934h10.148V119.3A5.074,5.074,0,0,0,409.382,114.229Z" transform="translate(-134.074 -37.88)" fill="none" stroke="#001e6c" stroke-linecap="round" stroke-linejoin="round" stroke-width="1"/>
        <path id="Trazado_911374" data-name="Trazado 911374" d="M431.388,105.053a3.632,3.632,0,1,1-3.632-3.632,3.632,3.632,0,0,1,3.632,3.632" transform="translate(-140.645 -33.633)" fill="#ffaa4c"/>
        <path id="Trazado_911375" data-name="Trazado 911375" d="M431.388,105.053a3.632,3.632,0,1,1-3.632-3.632A3.632,3.632,0,0,1,431.388,105.053Z" transform="translate(-140.645 -33.633)" fill="none" stroke="#001e6c" stroke-linecap="round" stroke-linejoin="round" stroke-width="1"/>
        <path id="Trazado_911376" data-name="Trazado 911376" d="M426.847,114.229h0a5.074,5.074,0,0,0-5.074,5.074v8.934H431.92V119.3A5.074,5.074,0,0,0,426.847,114.229Z" transform="translate(-139.865 -37.88)" fill="none" stroke="#001e6c" stroke-linecap="round" stroke-linejoin="round" stroke-width="1"/>
        <path id="Trazado_911377" data-name="Trazado 911377" d="M370.283,246.134s-10.683-4.224-24.347.994" transform="translate(-114.717 -81.086)" fill="none" stroke="#001e6c" stroke-linecap="round" stroke-linejoin="round" stroke-width="1"/>
        <path id="Trazado_911378" data-name="Trazado 911378" d="M348.928,240.988l-7.453,5.963,8.2,1.739Z" transform="translate(-113.238 -79.915)" fill="#001e6c"/>
        <path id="Trazado_911379" data-name="Trazado 911379" d="M348.928,240.988l-7.453,5.963,8.2,1.739Z" transform="translate(-113.238 -79.915)" fill="none" stroke="#001e6c" stroke-linecap="round" stroke-linejoin="round" stroke-width="1"/>
        <path id="Trazado_911380" data-name="Trazado 911380" d="M297.243,207.551s53.414-4.72,83.475-2.236" transform="translate(-98.57 -67.846)" fill="none" stroke="#001e6c" stroke-linecap="round" stroke-linejoin="round" stroke-width="1"/>
        <path id="Trazado_911381" data-name="Trazado 911381" d="M308.023,212.228s50.185-4.224,74.035-1.739" transform="translate(-102.144 -69.541)" fill="none" stroke="#001e6c" stroke-linecap="round" stroke-linejoin="round" stroke-width="1"/>
        <path id="Trazado_911382" data-name="Trazado 911382" d="M431.055,86.373l.745,4.472A38.244,38.244,0,0,1,440,81.9" transform="translate(-142.943 -27.159)" fill="none" stroke="#001e6c" stroke-linecap="round" stroke-linejoin="round" stroke-width="1"/>
        <line id="Línea_663" data-name="Línea 663" x1="8.571" y1="10.349" transform="translate(223.517 94.989)" fill="none" stroke="#001e6c" stroke-linecap="round" stroke-linejoin="round" stroke-width="1"/>
        <line id="Línea_664" data-name="Línea 664" y1="11.49" x2="11.046" transform="translate(247.501 94.244)" fill="none" stroke="#001e6c" stroke-linecap="round" stroke-linejoin="round" stroke-width="1"/>
        <path id="Trazado_911383" data-name="Trazado 911383" d="M380.5,141.011l4.472,3.727,2.981-7.453Z" transform="translate(-126.18 -45.525)" fill="#001e6c"/>
        <path id="Trazado_911384" data-name="Trazado 911384" d="M380.5,141.011l4.472,3.727,2.981-7.453Z" transform="translate(-126.18 -45.525)" fill="none" stroke="#001e6c" stroke-linecap="round" stroke-linejoin="round" stroke-width="1"/>
        <path id="Trazado_911385" data-name="Trazado 911385" d="M339.39,141.005l-6.708,5.963-1.242-7.453Z" transform="translate(-109.91 -46.265)" fill="#001e6c"/>
        <path id="Trazado_911386" data-name="Trazado 911386" d="M339.39,141.005l-6.708,5.963-1.242-7.453Z" transform="translate(-109.91 -46.265)" fill="none" stroke="#001e6c" stroke-linecap="round" stroke-linejoin="round" stroke-width="1"/>
        <path id="Trazado_911387" data-name="Trazado 911387" d="M359.72,82.956V80.914a4.2,4.2,0,0,1-3.187-1.371,6.326,6.326,0,0,1-1.144-3.909l3.155-.475a8.019,8.019,0,0,0,.185,1.732,1.868,1.868,0,0,0,.485.949,1.115,1.115,0,0,0,.773.289.735.735,0,0,0,.753-.392,2,2,0,0,0,.175-.825,3.025,3.025,0,0,0-.485-1.742,7.438,7.438,0,0,0-1.33-1.434l-1.464-1.258a12.469,12.469,0,0,1-1.124-1.145,4.814,4.814,0,0,1-.815-1.361,4.974,4.974,0,0,1-.309-1.846,4.132,4.132,0,0,1,1.124-3.073,4.633,4.633,0,0,1,3.022-1.258V61.837h1.052v1.938a3.752,3.752,0,0,1,1.918.547,3.153,3.153,0,0,1,1.083,1.2,5.227,5.227,0,0,1,.495,1.505,10.919,10.919,0,0,1,.155,1.475l-3.2.392q-.021-.743-.093-1.3a1.871,1.871,0,0,0-.289-.856.75.75,0,0,0-.69-.278.818.818,0,0,0-.763.433,1.726,1.726,0,0,0-.248.866,2.416,2.416,0,0,0,.505,1.6,10.8,10.8,0,0,0,1.1,1.145l1.4,1.216a12.754,12.754,0,0,1,1.289,1.362,6.05,6.05,0,0,1,.938,1.608,5.526,5.526,0,0,1,.351,2.043,4.41,4.41,0,0,1-.454,2,3.788,3.788,0,0,1-1.3,1.475,4.4,4.4,0,0,1-2.022.691v2.062Z" transform="translate(-117.852 -20.506)" fill="#001e6c"/>
        <line id="Línea_665" data-name="Línea 665" x2="5.394" y2="2.942" transform="translate(227.513 45.676)" fill="none" stroke="#001e6c" stroke-linecap="round" stroke-linejoin="round" stroke-width="1"/>
        <line id="Línea_666" data-name="Línea 666" x1="7.601" y2="1.471" transform="translate(226.041 54.257)" fill="none" stroke="#001e6c" stroke-linecap="round" stroke-linejoin="round" stroke-width="1"/>
        <line id="Línea_667" data-name="Línea 667" y1="2.452" x2="7.356" transform="translate(249.089 47.147)" fill="none" stroke="#001e6c" stroke-linecap="round" stroke-linejoin="round" stroke-width="1"/>
        <line id="Línea_668" data-name="Línea 668" x2="6.13" y2="1.716" transform="translate(249.579 54.993)" fill="none" stroke="#001e6c" stroke-linecap="round" stroke-linejoin="round" stroke-width="1"/>
        <line id="Línea_669" data-name="Línea 669" x1="1.716" y2="3.433" transform="translate(247.127 38.565)" fill="none" stroke="#001e6c" stroke-linecap="round" stroke-linejoin="round" stroke-width="1"/>
        <path id="Trazado_911388" data-name="Trazado 911388" d="M221.613,79.023s1.7,4.488,1.508,6.227-1.126,2.634-.41,3.875,3.4,4.04,3.26,4.987-3.2,2.141-3.2,2.141-2.2,9.411-3.255,10.337-8.637-1.235-8.637-1.235l-8.113,9.607-11.933-13.439,2.99-3.24s-4.953-8.957-6.046-13.605S190.692,69.1,200.16,66.093s21.806,1.927,24.26,5.827-1.8,6.968-2.807,7.1" transform="translate(-62.21 -21.609)" fill="#fff"/>
        <path id="Trazado_911389" data-name="Trazado 911389" d="M221.613,79.023s1.7,4.488,1.508,6.227-1.126,2.634-.41,3.875,3.4,4.04,3.26,4.987-3.2,2.141-3.2,2.141-2.2,9.411-3.255,10.337-8.637-1.235-8.637-1.235l-8.113,9.607-11.933-13.439,2.99-3.24s-4.953-8.957-6.046-13.605S190.692,69.1,200.16,66.093s21.806,1.927,24.26,5.827S222.617,78.888,221.613,79.023Z" transform="translate(-62.21 -21.609)" fill="none" stroke="#001e6c" stroke-linecap="round" stroke-linejoin="round" stroke-width="1"/>
        <path id="Trazado_911390" data-name="Trazado 911390" d="M224.42,71.92c-2.454-3.9-14.793-8.837-24.261-5.827s-13.478,13.936-12.385,18.583,6.046,13.605,6.046,13.605,5.594,1.516,7.173,1.1a71.583,71.583,0,0,0,7.18-3.317,12.192,12.192,0,0,1-2.468,0c-1.464-.134-2.2-2.928-2.659-5.665s2.333-3.471,3.612-3.547,1.279,2.391,1.9,3.266,2.256.186,2.493-.4-.645-5.415-.645-5.415,3.536-2.359,3.459-3.637a15.178,15.178,0,0,0-1.419-3.912l9.168,2.264c1-.134,5.262-3.2,2.807-7.1" transform="translate(-62.21 -21.609)" fill="#001e6c"/>
        <path id="Trazado_911391" data-name="Trazado 911391" d="M224.42,71.92c-2.454-3.9-14.793-8.837-24.261-5.827s-13.478,13.936-12.385,18.583,6.046,13.605,6.046,13.605,5.594,1.516,7.173,1.1a71.583,71.583,0,0,0,7.18-3.317,12.192,12.192,0,0,1-2.468,0c-1.464-.134-2.2-2.928-2.659-5.665s2.333-3.471,3.612-3.547,1.279,2.391,1.9,3.266,2.256.186,2.493-.4-.645-5.415-.645-5.415,3.536-2.359,3.459-3.637a15.178,15.178,0,0,0-1.419-3.912l9.168,2.264C222.617,78.888,226.875,75.82,224.42,71.92Z" transform="translate(-62.21 -21.609)" fill="none" stroke="#001e6c" stroke-linecap="round" stroke-linejoin="round" stroke-width="1"/>
        <path id="Trazado_911392" data-name="Trazado 911392" d="M235.292,99.189c.084,1-.241,1.847-.725,1.888s-.944-.74-1.028-1.742.241-1.848.725-1.888.944.739,1.027,1.742" transform="translate(-77.44 -32.314)" fill="#001e6c"/>
        <path id="Trazado_911393" data-name="Trazado 911393" d="M231.534,94.5s2.628-1.86,4.539-.025" transform="translate(-76.78 -31.062)" fill="none" stroke="#001e6c" stroke-linecap="round" stroke-linejoin="round" stroke-width="1"/>
        <path id="Trazado_911394" data-name="Trazado 911394" d="M230.954,108.81A4.774,4.774,0,0,0,234,111.2" transform="translate(-76.587 -36.083)" fill="none" stroke="#001e6c" stroke-linecap="round" stroke-linejoin="round" stroke-width="1"/>
        <path id="Trazado_911395" data-name="Trazado 911395" d="M220.693,124.59l-3.49-1.42.142,5.4Z" transform="translate(-72.027 -40.845)" fill="#001e6c"/>
        <path id="Trazado_911396" data-name="Trazado 911396" d="M220.693,124.59l-3.49-1.42.142,5.4Z" transform="translate(-72.027 -40.845)" fill="none" stroke="#001e6c" stroke-linecap="round" stroke-linejoin="round" stroke-width="1"/>
        <path id="Trazado_911397" data-name="Trazado 911397" d="M131.146,113.168a55.127,55.127,0,0,0-9.659,6.019c-3.583,3.072-29.18,21.331-28.839,23.549s20.9,31.881,20.9,31.881l4.016-5.431-6.655-24.232,14.334-7.509Z" transform="translate(-30.722 -37.528)" fill="#e6dcfb"/>
        <path id="Trazado_911398" data-name="Trazado 911398" d="M131.146,113.168a55.127,55.127,0,0,0-9.659,6.019c-3.583,3.072-29.18,21.331-28.839,23.549s20.9,31.881,20.9,31.881l4.016-5.431-6.655-24.232,14.334-7.509Z" transform="translate(-30.722 -37.528)" fill="none" stroke="#001e6c" stroke-linecap="round" stroke-linejoin="round" stroke-width="1"/>
        <path id="Trazado_911399" data-name="Trazado 911399" d="M110.777,163.455l6.143-2.73-5.8,5.8" transform="translate(-36.735 -53.298)" fill="none" stroke="#001e6c" stroke-linecap="round" stroke-linejoin="round" stroke-width="1"/>
        <path id="Trazado_911400" data-name="Trazado 911400" d="M200.968,131.583s-2.536-7.308-4.325-8.651-13.424-8.2-16.108-8.2-5.071,2.238-5.071,2.238,12.182,6.683,15.762,9.218a78.3,78.3,0,0,0,9.742,5.4" transform="translate(-58.186 -38.046)" fill="#9ebedf"/>
        <path id="Trazado_911401" data-name="Trazado 911401" d="M200.968,131.583s-2.536-7.308-4.325-8.651-13.424-8.2-16.108-8.2-5.071,2.238-5.071,2.238,12.182,6.683,15.762,9.218A78.3,78.3,0,0,0,200.968,131.583Z" transform="translate(-58.186 -38.046)" fill="#cdb9f8" stroke="#001e6c" stroke-linecap="round" stroke-linejoin="round" stroke-width="1"/>
        <path id="Trazado_911402" data-name="Trazado 911402" d="M100.737,234.813v57.228L70.055,353.159s-3.622,4.347-2.173,7.244,7.665,5,13.893,2.168c2.308-1.049,6.39,2.179,10.375,1.092s7.3-2.754,5.854-6.376c-.653-1.633-4.472-1.791-6.416-2.454-2.369-.808-2.86-1.934-2.86-1.934s3.645-4.054,3.645-6.589-.725-2.174,0-4.346,24.3-34.348,26.473-38.332,6.158-9.78,6.882-12.677,5.433-26.8,5.433-26.8Z" transform="translate(-22.397 -77.867)" fill="#bce0fc"/>
        <path id="Trazado_911403" data-name="Trazado 911403" d="M100.737,234.813v57.228L70.055,353.159s-3.622,4.347-2.173,7.244,7.665,5,13.893,2.168c2.308-1.049,6.39,2.179,10.375,1.092s7.3-2.754,5.854-6.376c-.653-1.633-4.472-1.791-6.416-2.454-2.369-.808-2.86-1.934-2.86-1.934s3.645-4.054,3.645-6.589-.725-2.174,0-4.346,24.3-34.348,26.473-38.332,6.158-9.78,6.882-12.677,5.433-26.8,5.433-26.8Z" transform="translate(-22.397 -77.867)" fill="none" stroke="#001e6c" stroke-linecap="round" stroke-linejoin="round" stroke-width="1"/>
        <path id="Trazado_911404" data-name="Trazado 911404" d="M124.074,202.841s-6.668,19.536-6.882,21.37c-.984,8.437,20.374,28.806,20.374,28.806l24.067,32.4,9.89,57.6.038,10.026a3.242,3.242,0,0,0,2.858,2.913c2.8.321,10.339.13,12.215.13,2.9,0,10.784-1.43,12.186-1.681,1.069-.193,3.26-2.536,2.536-4.346s-5.928-2.333-7.739-3.057a30.509,30.509,0,0,1-6.724-4.252c-.49-.491-.17-2.482-.156-4.088a9.612,9.612,0,0,0-1.742-5.67,7.41,7.41,0,0,1-1.283-4.4c0-4.708-.709-53.314-1.434-55.849s-24.52-45.63-24.52-45.63l-1.182-9.63Z" transform="translate(-38.852 -67.265)" fill="#bce0fc"/>
        <path id="Trazado_911405" data-name="Trazado 911405" d="M124.074,202.841s-6.668,19.536-6.882,21.37c-.984,8.437,20.374,28.806,20.374,28.806l24.067,32.4,9.89,57.6.038,10.026a3.242,3.242,0,0,0,2.858,2.913c2.8.321,10.339.13,12.215.13,2.9,0,10.784-1.43,12.186-1.681,1.069-.193,3.26-2.536,2.536-4.346s-5.928-2.333-7.739-3.057a30.509,30.509,0,0,1-6.724-4.252c-.49-.491-.17-2.482-.156-4.088a9.612,9.612,0,0,0-1.742-5.67,7.41,7.41,0,0,1-1.283-4.4c0-4.708-.709-53.314-1.434-55.849s-24.52-45.63-24.52-45.63l-1.182-9.63Z" transform="translate(-38.852 -67.265)" fill="none" stroke="#001e6c" stroke-linecap="round" stroke-linejoin="round" stroke-width="1"/>
        <path id="Trazado_911406" data-name="Trazado 911406" d="M193.032,164.183l-3.9,39.028,3.9,9.478,3.9-6.691-1.115-46.833" transform="translate(-62.718 -52.781)" fill="#5089c6"/>
        <path id="Trazado_911407" data-name="Trazado 911407" d="M193.032,164.183l-3.9,39.028,3.9,9.478,3.9-6.691-1.115-46.833" transform="translate(-62.718 -52.781)" fill="#e6dcfb" stroke="#001e6c" stroke-linecap="round" stroke-linejoin="round" stroke-width="1"/>
        <path id="Trazado_911408" data-name="Trazado 911408" d="M158.369,116.44s-15.064-3.579-16.854-3.281-5.22,19.687-7.308,28.785-10.44,30.874-10.291,32.663,3.132,3.133,4.027,3.431,28.785,9.545,30.874,9.694A2.981,2.981,0,0,0,162.1,185.5a14.628,14.628,0,0,1,.6-3.132c.3-.447,12.976-26.25,12.976-26.25s41.612,7.457,42.358,7.159S238.76,123,238.76,123l-5.667-4.028-23.715,25.5-25.5-13.424-24.609-14.318" transform="translate(-41.092 -37.519)" fill="#e6dcfb"/>
        <path id="Trazado_911409" data-name="Trazado 911409" d="M158.369,116.44s-15.064-3.579-16.854-3.281-5.22,19.687-7.308,28.785-10.44,30.874-10.291,32.663,3.132,3.133,4.027,3.431,28.785,9.545,30.874,9.694A2.981,2.981,0,0,0,162.1,185.5a14.628,14.628,0,0,1,.6-3.132c.3-.447,12.976-26.25,12.976-26.25s41.612,7.457,42.358,7.159S238.76,123,238.76,123l-5.667-4.028-23.715,25.5-25.5-13.424-24.609-14.318" transform="translate(-41.092 -37.519)" fill="none" stroke="#001e6c" stroke-linecap="round" stroke-linejoin="round" stroke-width="1"/>
        <line id="Línea_670" data-name="Línea 670" x1="11.037" y1="0.597" transform="translate(123.542 117.998)" fill="none" stroke="#001e6c" stroke-linecap="round" stroke-linejoin="round" stroke-width="1"/>
        <line id="Línea_671" data-name="Línea 671" x1="24.774" y2="4.039" transform="translate(103.705 120.074)" fill="none" stroke="#001e6c" stroke-linecap="round" stroke-linejoin="round" stroke-width="1"/>
        <line id="Línea_672" data-name="Línea 672" x1="1.033" y2="0.168" transform="translate(130.115 119.639)" fill="none" stroke="#001e6c" stroke-linecap="round" stroke-linejoin="round" stroke-width="1"/>
        <path id="Trazado_911410" data-name="Trazado 911410" d="M164.212,197.853a33.13,33.13,0,0,1-3.476,1.267" transform="translate(-53.302 -65.611)" fill="none" stroke="#001e6c" stroke-linecap="round" stroke-linejoin="round" stroke-width="1"/>
        <path id="Trazado_911411" data-name="Trazado 911411" d="M183.531,184.575a156.226,156.226,0,0,1-14.326,7.9" transform="translate(-56.111 -61.207)" fill="none" stroke="#001e6c" stroke-linecap="round" stroke-linejoin="round" stroke-width="1"/>
        <path id="Trazado_911412" data-name="Trazado 911412" d="M251.488,161.814a52.52,52.52,0,0,1-1.939,4.922" transform="translate(-82.754 -53.66)" fill="none" stroke="#001e6c" stroke-linecap="round" stroke-linejoin="round" stroke-width="1"/>
        <line id="Línea_673" data-name="Línea 673" x2="6.563" y2="4.773" transform="translate(188.422 85.335)" fill="none" stroke="#001e6c" stroke-linecap="round" stroke-linejoin="round" stroke-width="1"/>
        <path id="Trazado_911413" data-name="Trazado 911413" d="M286.751,101.666s1.063-6.382,1.241-6.737,4.432-2.837,4.875-2.571a1.078,1.078,0,0,1,.355,1.6,14.75,14.75,0,0,1-2.394,2.393Z" transform="translate(-95.09 -30.621)" fill="#fff"/>
        <path id="Trazado_911414" data-name="Trazado 911414" d="M286.751,101.666s1.063-6.382,1.241-6.737,4.432-2.837,4.875-2.571a1.078,1.078,0,0,1,.355,1.6,14.75,14.75,0,0,1-2.394,2.393Z" transform="translate(-95.09 -30.621)" fill="none" stroke="#001e6c" stroke-linecap="round" stroke-linejoin="round" stroke-width="1"/>
        <path id="Trazado_911415" data-name="Trazado 911415" d="M287.092,112.439l-.34-10.411,3.014-3.635s4.609-4.964,5.407-4.964a2.64,2.64,0,0,1,2.039.975,10.07,10.07,0,0,1,.266,1.861s3.723,6.294,4.167,7.447-.621,6.116-2.305,7.8a64.921,64.921,0,0,1-6.579,4.953Z" transform="translate(-95.091 -30.982)" fill="#fff"/>
        <path id="Trazado_911416" data-name="Trazado 911416" d="M287.092,112.439l-.34-10.411,3.014-3.635s4.609-4.964,5.407-4.964a2.64,2.64,0,0,1,2.039.975,10.07,10.07,0,0,1,.266,1.861s3.723,6.294,4.167,7.447-.621,6.116-2.305,7.8a64.921,64.921,0,0,1-6.579,4.953Z" transform="translate(-95.091 -30.982)" fill="none" stroke="#001e6c" stroke-linecap="round" stroke-linejoin="round" stroke-width="1"/>
        <path id="Trazado_911417" data-name="Trazado 911417" d="M292.355,94.491l-9.7,1.666a1.118,1.118,0,1,0,.423,2.195l6.616-1.468Z" transform="translate(-93.425 -31.334)" fill="#fff"/>
        <path id="Trazado_911418" data-name="Trazado 911418" d="M292.355,94.491l-9.7,1.666a1.118,1.118,0,1,0,.423,2.195l6.616-1.468Z" transform="translate(-93.425 -31.334)" fill="none" stroke="#001e6c" stroke-linecap="round" stroke-linejoin="round" stroke-width="1"/>
        <path id="Trazado_911419" data-name="Trazado 911419" d="M471.442,412.169a54.411,54.411,0,0,1-2.277,5.394c-.48.6-5.874,3.476-7.312,4.555s0,1.8,2.757,1.918,11.387-.479,12.346-.959,3.357-4.435,4.2-5.394l.839-.958-.6,6.113,2.4-.36s1.8-7.432,2.038-9.11-14.384-1.2-14.384-1.2" transform="translate(-152.969 -136.659)" fill="#001e6c"/>
        <path id="Trazado_911420" data-name="Trazado 911420" d="M471.442,412.169a54.411,54.411,0,0,1-2.277,5.394c-.48.6-5.874,3.476-7.312,4.555s0,1.8,2.757,1.918,11.387-.479,12.346-.959,3.357-4.435,4.2-5.394l.839-.958-.6,6.113,2.4-.36s1.8-7.432,2.038-9.11S471.442,412.169,471.442,412.169Z" transform="translate(-152.969 -136.659)" fill="none" stroke="#001e6c" stroke-linecap="round" stroke-linejoin="round" stroke-width="1"/>
        <path id="Trazado_911421" data-name="Trazado 911421" d="M528.184,413.326s-1.678,3-2.757,4.555-7.192,5.873-6.473,6.352,8.031.48,11.028.24a8.792,8.792,0,0,0,5.034-2.277l3.956-3.836-.36,5.394h3s2.278-8.271,2.158-9.949-15.582-.479-15.582-.479" transform="translate(-172.072 -136.927)" fill="#001e6c"/>
        <path id="Trazado_911422" data-name="Trazado 911422" d="M528.184,413.326s-1.678,3-2.757,4.555-7.192,5.873-6.473,6.352,8.031.48,11.028.24a8.792,8.792,0,0,0,5.034-2.277l3.956-3.836-.36,5.394h3s2.278-8.271,2.158-9.949S528.184,413.326,528.184,413.326Z" transform="translate(-172.072 -136.927)" fill="none" stroke="#001e6c" stroke-linecap="round" stroke-linejoin="round" stroke-width="1"/>
        <path id="Trazado_911423" data-name="Trazado 911423" d="M493.763,261.09l-1.605,4.638s-11.238,30.323-11.772,34.961-6.6,60.958-6.6,60.958a19.145,19.145,0,0,0,8.741,2.141,58.459,58.459,0,0,0,9.989-.535s4.1-26.354,4.1-41.338.178-20.513.178-20.513l9.989-18.551s1.07,25.865,3.21,37.281,3.211,33.534,3.211,33.534L511.6,363.12a85.672,85.672,0,0,0,11.594.892c5.886,0,8.027-.892,8.027-.892s3.389-1.427,1.249-17.3-5.708-36.745-5.708-39.956,7.492-43.7,7.492-43.7-26.578-1.783-30.145-3.032a81.364,81.364,0,0,0-9.1-2.319Z" transform="translate(-157.113 -85.161)" fill="#bce0fc"/>
        <path id="Trazado_911424" data-name="Trazado 911424" d="M493.763,261.09l-1.605,4.638s-11.238,30.323-11.772,34.961-6.6,60.958-6.6,60.958a19.145,19.145,0,0,0,8.741,2.141,58.459,58.459,0,0,0,9.989-.535s4.1-26.354,4.1-41.338.178-20.513.178-20.513l9.989-18.551s1.07,25.865,3.21,37.281,3.211,33.534,3.211,33.534L511.6,363.12a85.672,85.672,0,0,0,11.594.892c5.886,0,8.027-.892,8.027-.892s3.389-1.427,1.249-17.3-5.708-36.745-5.708-39.956,7.492-43.7,7.492-43.7-26.578-1.783-30.145-3.032a81.364,81.364,0,0,0-9.1-2.319Z" transform="translate(-157.113 -85.161)" fill="none" stroke="#001e6c" stroke-linecap="round" stroke-linejoin="round" stroke-width="1"/>
        <line id="Línea_674" data-name="Línea 674" x1="2.497" y1="10.168" transform="translate(346.995 185.561)" fill="#fff"/>
        <line id="Línea_675" data-name="Línea 675" x1="2.497" y1="10.168" transform="translate(346.995 185.561)" fill="none" stroke="#001e6c" stroke-linecap="round" stroke-linejoin="round" stroke-width="1"/>
        <path id="Trazado_911425" data-name="Trazado 911425" d="M517.627,142.661s-9.545,5.785-12,9.545-8.388,13.45-7.954,17.788,3.471,12.727,3.471,12.727l1.814,14.456-2.971,25.877,4.193,4.05,2.893-5.351,2.025,6.219a87.515,87.515,0,0,0,22.561.868c12.293-1.157,16.486-5.929,16.486-5.929l-13.16-42.791s7.954-25.887,8.1-30.081-10.7-11.859-10.7-11.859-11.859,1.736-14.751,4.484" transform="translate(-165.026 -45.821)" fill="#fed6a8"/>
        <path id="Trazado_911426" data-name="Trazado 911426" d="M517.627,142.661s-9.545,5.785-12,9.545-8.388,13.45-7.954,17.788,3.471,12.727,3.471,12.727l1.814,14.456-2.971,25.877,4.193,4.05,2.893-5.351,2.025,6.219a87.515,87.515,0,0,0,22.561.868c12.293-1.157,16.486-5.929,16.486-5.929l-13.16-42.791s7.954-25.887,8.1-30.081-10.7-11.859-10.7-11.859S520.519,139.913,517.627,142.661Z" transform="translate(-165.026 -45.821)" fill="none" stroke="#001e6c" stroke-linecap="round" stroke-linejoin="round" stroke-width="1"/>
        <path id="Trazado_911427" data-name="Trazado 911427" d="M518.272,143.963s-6.8,4.339-8.822,8.966-5.062,15.619-5.062,15.619,18.222-15.474,21.983-20.391,8.243-9.979,8.243-9.979-11.859,3.037-16.342,5.785" transform="translate(-167.262 -45.822)" fill="#fff"/>
        <path id="Trazado_911428" data-name="Trazado 911428" d="M518.272,143.963s-6.8,4.339-8.822,8.966-5.062,15.619-5.062,15.619,18.222-15.474,21.983-20.391,8.243-9.979,8.243-9.979S522.755,141.215,518.272,143.963Z" transform="translate(-167.262 -45.822)" fill="none" stroke="#001e6c" stroke-linecap="round" stroke-linejoin="round" stroke-width="1"/>
        <path id="Trazado_911429" data-name="Trazado 911429" d="M526.332,141.207,519.1,145.4l1.446,5.5,7.376-4.628Z" transform="translate(-172.141 -46.826)" fill="#fff"/>
        <path id="Trazado_911430" data-name="Trazado 911430" d="M526.332,141.207,519.1,145.4l1.446,5.5,7.376-4.628Z" transform="translate(-172.141 -46.826)" fill="none" stroke="#001e6c" stroke-linecap="round" stroke-linejoin="round" stroke-width="1"/>
        <ellipse id="Elipse_13505" data-name="Elipse 13505" cx="3.415" cy="3.946" rx="3.415" ry="3.946" transform="translate(338.218 65.137)" fill="none" stroke="#001e6c" stroke-linecap="round" stroke-linejoin="round" stroke-width="1"/>
        <path id="Trazado_911431" data-name="Trazado 911431" d="M513.3,84.3s-2.732,5.312-2.58,7.588.759,4.1,0,5.161-4.1,2.428-3.187,4.1a10.406,10.406,0,0,0,3.035,3.036s.91,7.285,1.973,8.65,6.981,0,6.981,0l2.277,12.9,12.293-8.347-5.463-34.451S517.247,79.143,513.3,84.3" transform="translate(-168.253 -27.057)" fill="#fff"/>
        <path id="Trazado_911432" data-name="Trazado 911432" d="M513.3,84.3s-2.732,5.312-2.58,7.588.759,4.1,0,5.161-4.1,2.428-3.187,4.1a10.406,10.406,0,0,0,3.035,3.036s.91,7.285,1.973,8.65,6.981,0,6.981,0l2.277,12.9,12.293-8.347-5.463-34.451S517.247,79.143,513.3,84.3Z" transform="translate(-168.253 -27.057)" fill="none" stroke="#001e6c" stroke-linecap="round" stroke-linejoin="round" stroke-width="1"/>
        <path id="Trazado_911433" data-name="Trazado 911433" d="M521.472,65.9s-5.312-5.615-11.079-.759-3.187,10.472-1.366,12.293a21.256,21.256,0,0,0,5.16,3.339,16.158,16.158,0,0,0,1.67,6.222c1.517,2.732,4.25,8.5,4.25,8.5s-4.857,5.918-4.705,9.561,3.339,9.106,10.776,8.347,8.954-3.946,8.954-3.946a10.834,10.834,0,0,0,7.133,2.732c4.1-.151,8.8-5.768,8.954-9.865s-1.821-6.374-4.7-7.588-4.7-1.518-4.25-3.794,4.553-9.561,2.883-15.329-6.981-10.775-12.141-11.231-10.168.456-11.534,1.518" transform="translate(-168.077 -20.945)" fill="#001e6c"/>
        <path id="Trazado_911434" data-name="Trazado 911434" d="M521.472,65.9s-5.312-5.615-11.079-.759-3.187,10.472-1.366,12.293a21.256,21.256,0,0,0,5.16,3.339,16.158,16.158,0,0,0,1.67,6.222c1.517,2.732,4.25,8.5,4.25,8.5s-4.857,5.918-4.705,9.561,3.339,9.106,10.776,8.347,8.954-3.946,8.954-3.946a10.834,10.834,0,0,0,7.133,2.732c4.1-.151,8.8-5.768,8.954-9.865s-1.821-6.374-4.7-7.588-4.7-1.518-4.25-3.794,4.553-9.561,2.883-15.329-6.981-10.775-12.141-11.231S522.838,64.834,521.472,65.9Z" transform="translate(-168.077 -20.945)" fill="none" stroke="#001e6c" stroke-linecap="round" stroke-linejoin="round" stroke-width="1"/>
        <line id="Línea_676" data-name="Línea 676" x2="11.082" y2="0.381" transform="translate(338.218 69.083)" fill="none" stroke="#001e6c" stroke-linecap="round" stroke-linejoin="round" stroke-width="1"/>
        <path id="Trazado_911435" data-name="Trazado 911435" d="M539.7,135.147,524.294,144.4l1.591,6.364,15.33-13.594Z" transform="translate(-173.863 -44.817)" fill="#fff"/>
        <path id="Trazado_911436" data-name="Trazado 911436" d="M539.7,135.147,524.294,144.4l1.591,6.364,15.33-13.594Z" transform="translate(-173.863 -44.817)" fill="none" stroke="#001e6c" stroke-linecap="round" stroke-linejoin="round" stroke-width="1"/>
        <path id="Trazado_911437" data-name="Trazado 911437" d="M527.746,158.332l-7.954,27.189-14.463-1.736s-1.591,3.471-1.591,5.5v3.037a102.632,102.632,0,0,0,9.835,5.785c6.074,3.182,10.557,4.339,11.135,4.339s3.182-2.458,3.182-2.458a145.783,145.783,0,0,0,10.268-19.524c4.483-10.557,9.69-24.585,8.388-28.346s-8.821-5.929-8.821-5.929" transform="translate(-167.046 -48.477)" fill="#fed6a8"/>
        <path id="Trazado_911438" data-name="Trazado 911438" d="M527.746,158.332l-7.954,27.189-14.463-1.736s-1.591,3.471-1.591,5.5v3.037a102.632,102.632,0,0,0,9.835,5.785c6.074,3.182,10.557,4.339,11.135,4.339s3.182-2.458,3.182-2.458a145.783,145.783,0,0,0,10.268-19.524c4.483-10.557,9.69-24.585,8.388-28.346s-8.821-5.929-8.821-5.929" transform="translate(-167.046 -48.477)" fill="none" stroke="#001e6c" stroke-linecap="round" stroke-linejoin="round" stroke-width="1"/>
        <path id="Trazado_911439" data-name="Trazado 911439" d="M511.784,195.973s-2.892,3.76-3.182,4.772-1.157.434-.289,1.013a16.626,16.626,0,0,0,5.641,2.025,59.937,59.937,0,0,0,6.419.221l2.314-6.942s-7.576-2.389-10.9-1.088" transform="translate(-168.439 -64.858)" fill="#fff"/>
        <path id="Trazado_911440" data-name="Trazado 911440" d="M511.784,195.973s-2.892,3.76-3.182,4.772-1.157.434-.289,1.013a16.626,16.626,0,0,0,5.641,2.025,59.937,59.937,0,0,0,6.419.221l2.314-6.942S515.11,194.671,511.784,195.973Z" transform="translate(-168.439 -64.858)" fill="none" stroke="#001e6c" stroke-linecap="round" stroke-linejoin="round" stroke-width="1"/>
        <path id="Trazado_911441" data-name="Trazado 911441" d="M501.789,189.454a21.921,21.921,0,0,0-2.722,5.651c-.552,2.416-1.174,8.421-1.174,8.421s-9.733-1.795-13.461-2.278-5.591-2.278-5.867-3.935-1.45-3.244-.207-5.66,6.627-7.525,6.627-7.525l7.81-8.2s-1.8,3.368-1.8,5.922,2.818,8.986,2.818,8.986Z" transform="translate(-158.444 -58.34)" fill="#fed6a8"/>
        <path id="Trazado_911442" data-name="Trazado 911442" d="M501.789,189.454a21.921,21.921,0,0,0-2.722,5.651c-.552,2.416-1.174,8.421-1.174,8.421s-9.733-1.795-13.461-2.278-5.591-2.278-5.867-3.935-1.45-3.244-.207-5.66,6.627-7.525,6.627-7.525l7.81-8.2s-1.8,3.368-1.8,5.922,2.818,8.986,2.818,8.986Z" transform="translate(-158.444 -58.34)" fill="none" stroke="#001e6c" stroke-linecap="round" stroke-linejoin="round" stroke-width="1"/>
        <line id="Línea_677" data-name="Línea 677" x1="11.115" y1="0.23" transform="translate(324.539 132.209)" fill="none" stroke="#001e6c" stroke-linecap="round" stroke-linejoin="round" stroke-width="1"/>
        <path id="Trazado_911443" data-name="Trazado 911443" d="M490.854,194.362s-.8-2.589-.942-3.073-1.45-2.209-1.174-2.9a3.185,3.185,0,0,1,3.038-1.243c1.243.207,3.658,2.692,4.141,3.659s1.507,3.74,1.507,3.74Z" transform="translate(-162.059 -62.049)" fill="#fff"/>
        <path id="Trazado_911444" data-name="Trazado 911444" d="M490.854,194.362s-.8-2.589-.942-3.073-1.45-2.209-1.174-2.9a3.185,3.185,0,0,1,3.038-1.243c1.243.207,3.658,2.692,4.141,3.659s1.507,3.74,1.507,3.74Z" transform="translate(-162.059 -62.049)" fill="none" stroke="#001e6c" stroke-linecap="round" stroke-linejoin="round" stroke-width="1"/>
        <path id="Trazado_911445" data-name="Trazado 911445" d="M489.687,188.3a30.531,30.531,0,0,1,3.452,5.453" transform="translate(-162.387 -62.443)" fill="none" stroke="#001e6c" stroke-linecap="round" stroke-linejoin="round" stroke-width="1"/>
        <path id="Trazado_911446" data-name="Trazado 911446" d="M492.062,187.578a13.822,13.822,0,0,1,3.52,4.97" transform="translate(-163.174 -62.203)" fill="none" stroke="#001e6c" stroke-linecap="round" stroke-linejoin="round" stroke-width="1"/>
        <path id="Trazado_911447" data-name="Trazado 911447" d="M495.883,188.921a22.244,22.244,0,0,1,2.692,4.072" transform="translate(-164.441 -62.649)" fill="none" stroke="#001e6c" stroke-linecap="round" stroke-linejoin="round" stroke-width="1"/>
        <path id="Trazado_911448" data-name="Trazado 911448" d="M157.894,72.786l-6.663-8.5V56.119a5.56,5.56,0,0,0-5.56-5.56H116.547a5.56,5.56,0,0,0-5.56,5.56V70.167a5.56,5.56,0,0,0,5.56,5.56h29.124a5.56,5.56,0,0,0,5.56-5.56v-.456Z" transform="translate(-36.805 -16.766)" fill="#fff"/>
        <path id="Trazado_911449" data-name="Trazado 911449" d="M157.894,72.786l-6.663-8.5V56.119a5.56,5.56,0,0,0-5.56-5.56H116.547a5.56,5.56,0,0,0-5.56,5.56V70.167a5.56,5.56,0,0,0,5.56,5.56h29.124a5.56,5.56,0,0,0,5.56-5.56v-.456Z" transform="translate(-36.805 -16.766)" fill="none" stroke="#001e6c" stroke-linecap="round" stroke-linejoin="round" stroke-width="1"/>
        <path id="Trazado_911450" data-name="Trazado 911450" d="M129.143,68.438a1.819,1.819,0,1,1-1.819-1.819,1.818,1.818,0,0,1,1.819,1.819" transform="translate(-41.619 -22.092)" fill="#ffaa4c"/>
        <circle id="Elipse_13506" data-name="Elipse 13506" cx="1.819" cy="1.819" r="1.819" transform="translate(83.887 44.527)" fill="none" stroke="#001e6c" stroke-linecap="round" stroke-linejoin="round" stroke-width="1"/>
        <path id="Trazado_911451" data-name="Trazado 911451" d="M141.915,68.438a1.819,1.819,0,1,1-1.819-1.819,1.818,1.818,0,0,1,1.819,1.819" transform="translate(-45.855 -22.092)" fill="#ffaa4c"/>
        <circle id="Elipse_13507" data-name="Elipse 13507" cx="1.819" cy="1.819" r="1.819" transform="translate(92.423 44.527)" fill="none" stroke="#001e6c" stroke-linecap="round" stroke-linejoin="round" stroke-width="1"/>
        <path id="Trazado_911452" data-name="Trazado 911452" d="M154.686,68.438a1.819,1.819,0,1,1-1.819-1.819,1.818,1.818,0,0,1,1.819,1.819" transform="translate(-50.09 -22.092)" fill="#ffaa4c"/>
        <circle id="Elipse_13508" data-name="Elipse 13508" cx="1.819" cy="1.819" r="1.819" transform="translate(100.959 44.527)" fill="none" stroke="#001e6c" stroke-linecap="round" stroke-linejoin="round" stroke-width="1"/>
      </g>
    </g>
  </g>
</svg>
