<svg xmlns="http://www.w3.org/2000/svg" xmlns:xlink="http://www.w3.org/1999/xlink" width="400" height="307.522" viewBox="0 0 400 307.522">
  <defs>
    <clipPath id="clip-path">
      <path id="Trazado_112368" data-name="Trazado 112368" d="M243.779,388.815a10.784,10.784,0,1,1-2.752-15.005,10.784,10.784,0,0,1,2.752,15.005Z" transform="translate(-224.119 -371.902)" fill="#eaccb2" stroke="#263238" stroke-linecap="round" stroke-linejoin="round" stroke-width="1"/>
    </clipPath>
    <clipPath id="clip-path-2">
      <path id="Trazado_112400" data-name="Trazado 112400" d="M361.72,88.008l-8.269,80.726-5.091,49.657-71.1-7.285-13.834-1.417-8.86-.908,7.853-76.636L267.929,78.4Z" transform="translate(-254.567 -78.4)" fill="#fff" stroke="#263238" stroke-linecap="round" stroke-linejoin="round" stroke-width="1"/>
    </clipPath>
    <clipPath id="clip-path-3">
      <circle id="Elipse_4387" data-name="Elipse 4387" cx="17.148" cy="17.148" r="17.148" transform="matrix(0.768, -0.64, 0.64, 0.768, 0, 21.949)" fill="#eaccb2" stroke="#263238" stroke-miterlimit="10" stroke-width="1"/>
    </clipPath>
    <clipPath id="clip-path-4">
      <path id="Trazado_112425" data-name="Trazado 112425" d="M359.53,200.608l-1.944,4.4-52.223,69.634-5.814-3.712,7.876-9.906,46.907-58.839,4.139-2.629A1.481,1.481,0,0,1,359.53,200.608Z" transform="translate(-299.549 -199.56)" fill="#eaccb2" stroke="#263238" stroke-linecap="round" stroke-linejoin="round" stroke-width="1"/>
    </clipPath>
    <clipPath id="clip-path-5">
      <path id="Trazado_112429" data-name="Trazado 112429" d="M315.213,292.084a212.619,212.619,0,0,1-11.44,19.755l-4,1.036s-9.192,9.132-14.8,13.693a12.576,12.576,0,0,1-2.74-2.3S290.187,308.975,299,299.3a11.124,11.124,0,0,1,2.888,1.534,14.307,14.307,0,0,1,3.019,2.892l9.818-12.353Z" transform="translate(-282.225 -291.37)" fill="#eaccb2" stroke="#263238" stroke-linecap="round" stroke-linejoin="round" stroke-width="1"/>
    </clipPath>
    <clipPath id="clip-path-6">
      <path id="Trazado_112463" data-name="Trazado 112463" d="M200.841,188.1l-78.78,33.154-8.121,3.419-15.3-36.363L63.1,103.873,150,67.3Z" transform="translate(-63.1 -67.3)" fill="#fff" stroke="#263238" stroke-linecap="round" stroke-linejoin="round" stroke-width="1"/>
    </clipPath>
  </defs>
  <g id="Grupo_1118438" data-name="Grupo 1118438" transform="translate(-1020 -861.274)">
    <g id="Grupo_1115983" data-name="Grupo 1115983" transform="translate(105 -4133.191)">
      <rect id="Rectángulo_405611" data-name="Rectángulo 405611" width="400" height="307.522" transform="translate(915 4994.466)" fill="#feead4"/>
    </g>
    <g id="Financial_data-bro" data-name="Financial data-bro" transform="translate(1079.957 852.384)">
      <g id="freepik--background-simple--inject-81" transform="translate(25.043 29.116)">
        <path id="Trazado_112358" data-name="Trazado 112358" d="M63.944,109.9s-16.322,42.153,6.616,84.6,70.185,64.869,108,84.043,77.081,9.835,95.74-21.568-6.932-53.821-6.967-98.6,6.7-56.639-17.564-94.472S166.013,17.686,121.026,45.746,63.944,109.9,63.944,109.9Z" transform="translate(-38.835 -29.116)" fill="#fff" opacity="0.7"/>
        <path id="Trazado_112359" data-name="Trazado 112359" d="M144.012,50.847c72.6-6.443,72.743,34.5,105.46,72.67S289.2,178.99,276.86,222.993s-53.9,78.494-105.318,58.95-80.876-.779-113.31-18.15-44.5-50.888-20.731-90.4S54.472,58.819,144.012,50.847Z" transform="translate(-25.043 -37.845)" fill="#eaccb2"/>
        <path id="Trazado_112360" data-name="Trazado 112360" d="M144.012,50.847c72.6-6.443,72.743,34.5,105.46,72.67S289.2,178.99,276.86,222.993s-53.9,78.494-105.318,58.95-80.876-.779-113.31-18.15-44.5-50.888-20.731-90.4S54.472,58.819,144.012,50.847Z" transform="translate(-25.043 -37.845)" fill="#fff" opacity="0.7"/>
      </g>
      <g id="freepik--Graphics--inject-81" transform="translate(26.671 44.195)">
        <rect id="Rectángulo_28650" data-name="Rectángulo 28650" width="18.167" height="18.167" rx="5.09" transform="matrix(0.979, -0.206, 0.206, 0.979, 118.964, 3.742)" fill="none" stroke="#263238" stroke-linecap="round" stroke-linejoin="round" stroke-width="1"/>
        <line id="Línea_782" data-name="Línea 782" x2="1.522" y2="7.248" transform="translate(128.969 7.13)" fill="none" stroke="#263238" stroke-linecap="round" stroke-linejoin="round" stroke-width="1"/>
        <line id="Línea_783" data-name="Línea 783" x1="7.248" y2="1.528" transform="translate(126.106 9.987)" fill="none" stroke="#263238" stroke-linecap="round" stroke-linejoin="round" stroke-width="1"/>
        <rect id="Rectángulo_28651" data-name="Rectángulo 28651" width="18.167" height="18.167" rx="5.09" transform="matrix(0.979, -0.206, 0.206, 0.979, 239.375, 131.456)" fill="none" stroke="#263238" stroke-linecap="round" stroke-linejoin="round" stroke-width="1"/>
        <line id="Línea_784" data-name="Línea 784" x1="4.045" y2="6.206" transform="translate(248.121 135.358)" fill="none" stroke="#263238" stroke-linecap="round" stroke-linejoin="round" stroke-width="1"/>
        <line id="Línea_785" data-name="Línea 785" x1="6.206" y1="4.051" transform="translate(247.038 136.435)" fill="none" stroke="#263238" stroke-linecap="round" stroke-linejoin="round" stroke-width="1"/>
        <rect id="Rectángulo_28652" data-name="Rectángulo 28652" width="18.199" height="18.199" rx="5.099" transform="matrix(0.998, 0.06, -0.06, 0.998, 77.777, 205.172)" fill="none" stroke="#263238" stroke-linecap="round" stroke-linejoin="round" stroke-width="1.002"/>
        <line id="Línea_786" data-name="Línea 786" x1="7.401" y1="0.427" transform="translate(83.028 213.932)" fill="none" stroke="#263238" stroke-linecap="round" stroke-linejoin="round" stroke-width="1"/>
        <rect id="Rectángulo_28653" data-name="Rectángulo 28653" width="18.167" height="18.167" rx="5.09" transform="translate(5.713 116.339) rotate(18.33)" fill="none" stroke="#263238" stroke-linecap="round" stroke-linejoin="round" stroke-width="1"/>
        <line id="Línea_787" data-name="Línea 787" x1="9.268" y2="4.655" transform="translate(6.847 125.493)" fill="none" stroke="#263238" stroke-linecap="round" stroke-linejoin="round" stroke-width="1"/>
        <path id="Trazado_112361" data-name="Trazado 112361" d="M44.534,265.482a1.288,1.288,0,1,1-.754-.665,1.288,1.288,0,0,1,.754.665Z" transform="translate(-33.734 -141.875)" fill="none" stroke="#263238" stroke-linecap="round" stroke-linejoin="round" stroke-width="1"/>
        <path id="Trazado_112362" data-name="Trazado 112362" d="M50.817,277.942a1.288,1.288,0,1,1-.754-.665,1.288,1.288,0,0,1,.754.665Z" transform="translate(-36.339 -147.04)" fill="none" stroke="#263238" stroke-linecap="round" stroke-linejoin="round" stroke-width="1"/>
      </g>
      <g id="freepik--Coins--inject-81" transform="translate(126.191 219.844)">
        <path id="Trazado_112363" data-name="Trazado 112363" d="M243.779,388.815a10.784,10.784,0,1,1-2.752-15.005,10.784,10.784,0,0,1,2.752,15.005Z" transform="translate(-208.716 -361.942)" fill="#eaccb2"/>
        <g id="Grupo_60037" data-name="Grupo 60037" transform="translate(15.403 9.96)" clip-path="url(#clip-path)">
          <path id="Trazado_112364" data-name="Trazado 112364" d="M243.589,389.044a9.075,9.075,0,1,1-2.307-12.629,9.075,9.075,0,0,1,2.307,12.629Z" transform="translate(-225.334 -373.107)" fill="rgba(0,0,0,0.7)" opacity="0.3"/>
          <path id="Trazado_112365" data-name="Trazado 112365" d="M243.589,389.044a9.075,9.075,0,1,1-2.307-12.629,9.075,9.075,0,0,1,2.307,12.629Z" transform="translate(-225.334 -373.107)" fill="none" stroke="#263238" stroke-linecap="round" stroke-linejoin="round" stroke-width="1"/>
          <path id="Trazado_112366" data-name="Trazado 112366" d="M242.031,382.126l.439-.626,1.089.75-.439.632a2.228,2.228,0,0,1,0,3.056l-.187.269-1.259-.872.246-.351c.415-.585.333-1-.088-1.294s-.826-.234-1.247.375-.469,1.171-.066,2.529c.486,1.628.4,2.552-.269,3.513a2.245,2.245,0,0,1-2.881,1.089l-.427.615-1.071-.744.427-.621c-.826-.853-.8-1.926,0-3.079l.4-.585,1.259.872-.459.662c-.421.585-.3,1.007.117,1.305s.843.258,1.265-.351.475-1.206.066-2.529c-.5-1.61-.4-2.546.269-3.513A2.219,2.219,0,0,1,242.031,382.126Z" transform="translate(-228.916 -375.881)" fill="#eaccb2" stroke="#263238" stroke-linecap="round" stroke-linejoin="round" stroke-width="1"/>
          <path id="Trazado_112367" data-name="Trazado 112367" d="M231.9,374.256a14.531,14.531,0,0,1-7.107,12.5,10.779,10.779,0,0,1,7.022-14.086A14.174,14.174,0,0,1,231.9,374.256Z" transform="translate(-224.118 -372.22)" fill="rgba(0,0,0,0.7)" opacity="0.2"/>
        </g>
        <path id="Trazado_112369" data-name="Trazado 112369" d="M243.779,388.815a10.784,10.784,0,1,1-2.752-15.005,10.784,10.784,0,0,1,2.752,15.005Z" transform="translate(-208.716 -361.942)" fill="none" stroke="#263238" stroke-linecap="round" stroke-linejoin="round" stroke-width="1"/>
        <circle id="Elipse_4381" data-name="Elipse 4381" cx="10.79" cy="10.79" r="10.79" transform="translate(0 0.872)" fill="#eaccb2" stroke="#263238" stroke-linecap="round" stroke-linejoin="round" stroke-width="1"/>
        <circle id="Elipse_4382" data-name="Elipse 4382" cx="9.075" cy="9.075" r="9.075" transform="translate(1.716 2.588)" fill="rgba(0,0,0,0.7)" opacity="0.3"/>
        <circle id="Elipse_4383" data-name="Elipse 4383" cx="9.075" cy="9.075" r="9.075" transform="translate(1.716 2.588)" fill="none" stroke="#263238" stroke-linecap="round" stroke-linejoin="round" stroke-width="1"/>
        <path id="Trazado_112370" data-name="Trazado 112370" d="M213.858,365.641v-.761h1.323v.761a2.231,2.231,0,0,1,1.756,2.518v.3H215.4v-.427c0-.738-.293-1.019-.808-1.019s-.808.281-.808,1.019.293,1.247,1.382,2.119c1.323,1.06,1.756,1.868,1.756,3.045,0,1.4-.585,2.3-1.756,2.535v.75h-1.323v-.75c-1.171-.234-1.756-1.136-1.756-2.535v-.7h1.528v.808c0,.738.322,1,.837,1s.843-.263.843-1-.293-1.265-1.387-2.119c-1.323-1.05-1.756-1.868-1.756-3.051A2.227,2.227,0,0,1,213.858,365.641Z" transform="translate(-203.73 -359.031)" fill="#eaccb2" stroke="#263238" stroke-linecap="round" stroke-linejoin="round" stroke-width="1"/>
        <circle id="Elipse_4384" data-name="Elipse 4384" cx="10.79" cy="10.79" r="10.79" transform="translate(47.356 18.169) rotate(-57.35)" fill="#eaccb2" stroke="#263238" stroke-linecap="round" stroke-linejoin="round" stroke-width="1"/>
        <path id="Trazado_112371" data-name="Trazado 112371" d="M304.383,367.755a9.063,9.063,0,1,1-6.312-2.9,9.063,9.063,0,0,1,6.312,2.9Z" transform="translate(-235.475 -359.019)" fill="rgba(0,0,0,0.7)" opacity="0.3"/>
        <path id="Trazado_112372" data-name="Trazado 112372" d="M304.383,367.755a9.063,9.063,0,1,1-6.312-2.9,9.063,9.063,0,0,1,6.312,2.9Z" transform="translate(-235.475 -359.019)" fill="none" stroke="#263238" stroke-linecap="round" stroke-linejoin="round" stroke-width="1"/>
        <path id="Trazado_112373" data-name="Trazado 112373" d="M297.091,373.757l-.521-.585.966-.9.521.585a2.257,2.257,0,0,1,2.986.662l.222.234-1.116,1.042-.293-.31c-.5-.539-.908-.545-1.282-.193s-.4.755.094,1.294,1.071.714,2.459.615c1.692-.131,2.576.152,3.378,1.019a2.265,2.265,0,0,1,.439,3.045l.509.551-.972.9-.509-.551a2.242,2.242,0,0,1-3-.662l-.486-.515,1.124-1.042.551.585c.5.539.919.515,1.3.164s.433-.767-.07-1.305-1.077-.726-2.453-.585c-1.686.135-2.582-.158-3.378-1.025C296.611,375.748,296.43,374.711,297.091,373.757Z" transform="translate(-238.75 -362.094)" fill="#eaccb2" stroke="#263238" stroke-linecap="round" stroke-linejoin="round" stroke-width="1"/>
      </g>
      <g id="freepik--right-hand--inject-81" transform="translate(159.419 57.97)">
        <path id="Trazado_112374" data-name="Trazado 112374" d="M293.963,300.25s-.047,22.388,0,23.693,1.756,9.169,1.756,9.169l-5.439,10.023,4.683,3.77,9.1-8.946s7.752,4.783,9.168,11.633,9.853,11.838,18.606,30.807,18.735-42.44,18.735-42.44l-27.008-34Z" transform="translate(-269.371 -170.366)" fill="rgba(0,0,0,0.7)" opacity="0.2"/>
        <path id="Trazado_112375" data-name="Trazado 112375" d="M361.72,88.008l-8.269,80.726-5.091,49.657-71.1-7.285-13.834-1.417-8.86-.908,7.853-76.636L267.929,78.4Z" transform="translate(-254.567 -78.4)" fill="#fff"/>
        <g id="Grupo_60039" data-name="Grupo 60039" transform="translate(0 0)" clip-path="url(#clip-path-2)">
          <path id="Trazado_112376" data-name="Trazado 112376" d="M361.315,97.055,320.831,92.9a1.383,1.383,0,1,0-.282,2.751l40.484,4.151a1.383,1.383,0,0,0,.281-2.752Z" transform="translate(-281.404 -84.41)" fill="#263238"/>
          <path id="Trazado_112377" data-name="Trazado 112377" d="M357.909,106.376,337.669,104.3a.693.693,0,0,0-.14,1.378l20.239,2.079a.7.7,0,0,0,.761-.621.685.685,0,0,0-.621-.755Z" transform="translate(-288.7 -89.134)" fill="#263238"/>
          <path id="Trazado_112378" data-name="Trazado 112378" d="M363.76,204.839l-65.712-6.733a.677.677,0,1,0-.14,1.347l65.712,6.786a.7.7,0,0,0,.14-1.4Z" transform="translate(-272.273 -128.021)" fill="#263238"/>
          <path id="Trazado_112379" data-name="Trazado 112379" d="M355.334,212.514,278.9,204.686a.694.694,0,1,0-.17,1.378l76.408,7.828a.693.693,0,1,0,.14-1.378Z" transform="translate(-264.334 -130.749)" fill="#263238"/>
          <path id="Trazado_112380" data-name="Trazado 112380" d="M333.041,218.776l-55.033-5.638a.693.693,0,1,0-.146,1.378l55.033,5.638a.693.693,0,1,0,.146-1.378Z" transform="translate(-263.967 -134.252)" fill="#263238"/>
          <rect id="Rectángulo_28654" data-name="Rectángulo 28654" width="21.931" height="77.433" transform="translate(10.961 106.037) rotate(-84.15)" fill="#bfbfbf" stroke="#263238" stroke-miterlimit="10" stroke-width="1"/>
          <circle id="Elipse_4385" data-name="Elipse 4385" cx="17.148" cy="17.148" r="17.148" transform="matrix(0.768, -0.64, 0.64, 0.768, 13.393, 43.601)" fill="#eaccb2"/>
          <g id="Grupo_60038" data-name="Grupo 60038" transform="translate(13.393 21.652)" clip-path="url(#clip-path-3)">
            <circle id="Elipse_4386" data-name="Elipse 4386" cx="17.148" cy="17.148" r="17.148" transform="matrix(0.768, -0.64, 0.64, 0.768, 0, 21.949)" fill="#fff" opacity="0.5"/>
          </g>
          <circle id="Elipse_4388" data-name="Elipse 4388" cx="17.148" cy="17.148" r="17.148" transform="matrix(0.768, -0.64, 0.64, 0.768, 13.393, 43.601)" fill="none" stroke="#263238" stroke-miterlimit="10" stroke-width="1"/>
          <path id="Trazado_112381" data-name="Trazado 112381" d="M319.54,149.424,333.8,156.6a16.393,16.393,0,0,0-1.885-17.248Z" transform="translate(-281.501 -103.666)" fill="#fff"/>
          <path id="Trazado_112382" data-name="Trazado 112382" d="M319.7,144.992l11.945-9.719a16.346,16.346,0,0,0-6.668-4.754l-2.172,5.913Z" transform="translate(-281.567 -100.006)" fill="#eaccb2"/>
          <path id="Trazado_112383" data-name="Trazado 112383" d="M320.98,128.88,319.54,143l4.857-13.355a16.276,16.276,0,0,0-3.417-.769Z" transform="translate(-281.501 -99.326)" fill="#757575"/>
          <path id="Trazado_112384" data-name="Trazado 112384" d="M306.864,144.874l1.657-16.135A16.393,16.393,0,0,0,292.1,151.572Z" transform="translate(-269.568 -99.244)" fill="#999"/>
          <path id="Trazado_112385" data-name="Trazado 112385" d="M306.552,173.155a16.393,16.393,0,0,0,16.176-8.694l-14.514-7.3-14.794,6.721a16.393,16.393,0,0,0,13.132,9.274Z" transform="translate(-270.673 -111.049)" fill="#bfbfbf"/>
          <rect id="Rectángulo_28655" data-name="Rectángulo 28655" width="2.699" height="2.699" rx="0.63" transform="translate(62.744 34.435) rotate(5.85)" fill="#eaccb2" stroke="#263238" stroke-miterlimit="10" stroke-width="1"/>
          <path id="Trazado_112386" data-name="Trazado 112386" d="M394.152,141.841l-25.21-2.582a.31.31,0,0,1,.066-.585l25.21,2.535a.31.31,0,0,1-.066.615Z" transform="translate(-301.905 -103.386)" fill="#263238"/>
          <path id="Trazado_112387" data-name="Trazado 112387" d="M391.383,143.845,368.644,141.5a.31.31,0,0,1-.275-.339.3.3,0,0,1,.339-.275l22.739,2.342a.31.31,0,0,1-.066.615Z" transform="translate(-301.741 -104.303)" fill="#263238"/>
          <rect id="Rectángulo_28656" data-name="Rectángulo 28656" width="2.699" height="2.699" rx="0.63" transform="translate(62.129 40.448) rotate(5.85)" fill="#757575" stroke="#263238" stroke-linecap="round" stroke-linejoin="round" stroke-width="1"/>
          <path id="Trazado_112388" data-name="Trazado 112388" d="M393.044,152.087,367.822,149.5a.31.31,0,0,1,.066-.615l25.2,2.582a.316.316,0,0,1,.281.339A.31.31,0,0,1,393.044,152.087Z" transform="translate(-301.412 -107.621)" fill="#263238"/>
          <path id="Trazado_112389" data-name="Trazado 112389" d="M390.323,154.122,367.59,151.78a.312.312,0,0,1,.058-.621l22.739,2.342a.312.312,0,1,1-.066.621Z" transform="translate(-301.302 -108.561)" fill="#263238"/>
          <rect id="Rectángulo_28657" data-name="Rectángulo 28657" width="2.699" height="2.699" rx="0.63" transform="translate(61.513 46.465) rotate(5.85)" fill="#999" stroke="#263238" stroke-linecap="round" stroke-linejoin="round" stroke-width="1"/>
          <path id="Trazado_112390" data-name="Trazado 112390" d="M391.958,162.359l-25.173-2.585a.31.31,0,1,1,.066-.615l25.2,2.582a.312.312,0,0,1-.066.621Z" transform="translate(-300.959 -111.876)" fill="#263238"/>
          <path id="Trazado_112391" data-name="Trazado 112391" d="M389.273,164.392l-22.739-2.342a.31.31,0,0,1-.275-.339.316.316,0,0,1,.339-.281l22.739,2.342a.312.312,0,0,1-.066.621Z" transform="translate(-300.867 -112.819)" fill="#263238"/>
          <rect id="Rectángulo_28658" data-name="Rectángulo 28658" width="2.699" height="2.699" rx="0.63" transform="translate(60.898 52.483) rotate(5.85)" fill="#bfbfbf" stroke="#263238" stroke-miterlimit="10" stroke-width="1"/>
          <path id="Trazado_112392" data-name="Trazado 112392" d="M390.954,172.632l-25.2-2.582a.31.31,0,0,1-.281-.339.316.316,0,0,1,.339-.281l25.21,2.588a.31.31,0,1,1-.066.615Z" transform="translate(-300.54 -116.135)" fill="#263238"/>
          <path id="Trazado_112393" data-name="Trazado 112393" d="M388.242,174.667,365.5,172.325a.31.31,0,0,1,.066-.615l22.739,2.342a.31.31,0,1,1-.066.585Z" transform="translate(-300.45 -117.081)" fill="#263238"/>
          <rect id="Rectángulo_28659" data-name="Rectángulo 28659" width="2.699" height="2.699" rx="0.63" transform="translate(60.282 58.495) rotate(5.85)" fill="#fff" stroke="#263238" stroke-linecap="round" stroke-linejoin="round" stroke-width="1"/>
          <path id="Trazado_112394" data-name="Trazado 112394" d="M389.942,182.927l-25.21-2.582a.31.31,0,0,1,.066-.585l25.192,2.552a.31.31,0,1,1-.066.585Z" transform="translate(-300.159 -120.418)" fill="#263238"/>
          <path id="Trazado_112395" data-name="Trazado 112395" d="M387.154,184.9l-22.739-2.342a.31.31,0,1,1,.066-.615l22.733,2.342a.31.31,0,1,1-.058.615Z" transform="translate(-299.977 -121.321)" fill="#263238"/>
          <rect id="Rectángulo_28660" data-name="Rectángulo 28660" width="1.446" height="8.273" transform="translate(80.003 106.722) rotate(-174.15)" fill="#757575" stroke="#263238" stroke-linecap="round" stroke-linejoin="round" stroke-width="1"/>
          <rect id="Rectángulo_28661" data-name="Rectángulo 28661" width="1.446" height="3.893" transform="translate(80.135 105.478) rotate(-174.15)" fill="#eaccb2" stroke="#263238" stroke-miterlimit="10" stroke-width="1"/>
          <rect id="Rectángulo_28662" data-name="Rectángulo 28662" width="1.446" height="8.273" transform="translate(83.462 104.974) rotate(-174.15)" fill="#757575" stroke="#263238" stroke-linecap="round" stroke-linejoin="round" stroke-width="1"/>
          <rect id="Rectángulo_28663" data-name="Rectángulo 28663" width="3.893" height="1.446" transform="translate(82.239 102.643) rotate(-84.15)" fill="#eaccb2" stroke="#263238" stroke-miterlimit="10" stroke-width="1"/>
          <rect id="Rectángulo_28664" data-name="Rectángulo 28664" width="1.446" height="8.273" transform="translate(86.536 106.877) rotate(-174.15)" fill="#757575" stroke="#263238" stroke-linecap="round" stroke-linejoin="round" stroke-width="1"/>
          <rect id="Rectángulo_28665" data-name="Rectángulo 28665" width="1.446" height="3.893" transform="translate(86.853 103.789) rotate(-174.15)" fill="#eaccb2" stroke="#263238" stroke-miterlimit="10" stroke-width="1"/>
          <rect id="Rectángulo_28666" data-name="Rectángulo 28666" width="1.446" height="8.273" transform="translate(76.931 104.766) rotate(-174.15)" fill="#757575" stroke="#263238" stroke-linecap="round" stroke-linejoin="round" stroke-width="1"/>
          <rect id="Rectángulo_28667" data-name="Rectángulo 28667" width="1.446" height="3.893" transform="translate(77.062 103.515) rotate(-174.15)" fill="#eaccb2" stroke="#263238" stroke-miterlimit="10" stroke-width="1"/>
          <rect id="Rectángulo_28668" data-name="Rectángulo 28668" width="1.446" height="8.273" transform="translate(73.445 106.859) rotate(-174.15)" fill="#757575" stroke="#263238" stroke-linecap="round" stroke-linejoin="round" stroke-width="1"/>
          <rect id="Rectángulo_28669" data-name="Rectángulo 28669" width="1.446" height="3.893" transform="translate(73.537 105.936) rotate(-174.15)" fill="#eaccb2" stroke="#263238" stroke-miterlimit="10" stroke-width="1"/>
          <rect id="Rectángulo_28670" data-name="Rectángulo 28670" width="1.446" height="8.273" transform="translate(70.421 104.403) rotate(-174.15)" fill="#757575" stroke="#263238" stroke-linecap="round" stroke-linejoin="round" stroke-width="1"/>
          <rect id="Rectángulo_28671" data-name="Rectángulo 28671" width="1.446" height="3.893" transform="translate(70.453 104.104) rotate(-174.15)" fill="#eaccb2" stroke="#263238" stroke-miterlimit="10" stroke-width="1"/>
          <rect id="Rectángulo_28672" data-name="Rectángulo 28672" width="1.446" height="8.273" transform="translate(66.738 108.376) rotate(-174.15)" fill="#757575" stroke="#263238" stroke-linecap="round" stroke-linejoin="round" stroke-width="1"/>
          <rect id="Rectángulo_28673" data-name="Rectángulo 28673" width="1.446" height="3.893" transform="translate(66.764 108.071) rotate(-174.15)" fill="#eaccb2" stroke="#263238" stroke-miterlimit="10" stroke-width="1"/>
          <rect id="Rectángulo_28674" data-name="Rectángulo 28674" width="1.446" height="8.273" transform="translate(64.031 102.856) rotate(-174.15)" fill="#757575" stroke="#263238" stroke-linecap="round" stroke-linejoin="round" stroke-width="1"/>
          <rect id="Rectángulo_28675" data-name="Rectángulo 28675" width="1.446" height="3.893" transform="translate(64.161 101.618) rotate(-174.15)" fill="#eaccb2" stroke="#263238" stroke-miterlimit="10" stroke-width="1"/>
          <rect id="Rectángulo_28676" data-name="Rectángulo 28676" width="1.446" height="8.273" transform="translate(60.834 102.053) rotate(-174.15)" fill="#757575" stroke="#263238" stroke-linecap="round" stroke-linejoin="round" stroke-width="1"/>
          <rect id="Rectángulo_28677" data-name="Rectángulo 28677" width="1.446" height="3.893" transform="translate(61.157 98.941) rotate(-174.15)" fill="#eaccb2" stroke="#263238" stroke-miterlimit="10" stroke-width="1"/>
          <rect id="Rectángulo_28678" data-name="Rectángulo 28678" width="1.446" height="8.273" transform="translate(57.074 106.882) rotate(-174.15)" fill="#757575" stroke="#263238" stroke-linecap="round" stroke-linejoin="round" stroke-width="1"/>
          <rect id="Rectángulo_28679" data-name="Rectángulo 28679" width="1.446" height="3.893" transform="translate(57.424 103.468) rotate(-174.15)" fill="#eaccb2" stroke="#263238" stroke-miterlimit="10" stroke-width="1"/>
          <rect id="Rectángulo_28680" data-name="Rectángulo 28680" width="1.446" height="8.273" transform="translate(54.203 102.928) rotate(-174.15)" fill="#757575" stroke="#263238" stroke-linecap="round" stroke-linejoin="round" stroke-width="1"/>
          <rect id="Rectángulo_28681" data-name="Rectángulo 28681" width="1.446" height="3.893" transform="translate(54.361 101.38) rotate(-174.15)" fill="#eaccb2" stroke="#263238" stroke-miterlimit="10" stroke-width="1"/>
          <rect id="Rectángulo_28682" data-name="Rectángulo 28682" width="1.446" height="8.273" transform="translate(50.735 104.753) rotate(-174.15)" fill="#757575" stroke="#263238" stroke-linecap="round" stroke-linejoin="round" stroke-width="1"/>
          <rect id="Rectángulo_28683" data-name="Rectángulo 28683" width="1.446" height="3.893" transform="translate(50.871 103.503) rotate(-174.15)" fill="#eaccb2" stroke="#263238" stroke-miterlimit="10" stroke-width="1"/>
          <rect id="Rectángulo_28684" data-name="Rectángulo 28684" width="1.446" height="8.273" transform="translate(47.118 108.114) rotate(-174.15)" fill="#757575" stroke="#263238" stroke-linecap="round" stroke-linejoin="round" stroke-width="1"/>
          <rect id="Rectángulo_28685" data-name="Rectángulo 28685" width="1.446" height="3.893" transform="translate(47.129 108.107) rotate(-174.15)" fill="#eaccb2" stroke="#263238" stroke-miterlimit="10" stroke-width="1"/>
          <rect id="Rectángulo_28686" data-name="Rectángulo 28686" width="1.446" height="8.273" transform="translate(44.42 102.565) rotate(-174.15)" fill="#757575" stroke="#263238" stroke-linecap="round" stroke-linejoin="round" stroke-width="1"/>
          <rect id="Rectángulo_28687" data-name="Rectángulo 28687" width="1.446" height="3.893" transform="translate(44.512 101.629) rotate(-174.15)" fill="#eaccb2" stroke="#263238" stroke-miterlimit="10" stroke-width="1"/>
          <rect id="Rectángulo_28688" data-name="Rectángulo 28688" width="1.446" height="8.273" transform="translate(41.544 98.621) rotate(-174.15)" fill="#757575" stroke="#263238" stroke-linecap="round" stroke-linejoin="round" stroke-width="1"/>
          <rect id="Rectángulo_28689" data-name="Rectángulo 28689" width="1.446" height="3.893" transform="translate(41.647 97.686) rotate(-174.15)" fill="#eaccb2" stroke="#263238" stroke-miterlimit="10" stroke-width="1"/>
          <rect id="Rectángulo_28690" data-name="Rectángulo 28690" width="1.446" height="8.273" transform="translate(37.86 102.642) rotate(-174.15)" fill="#757575" stroke="#263238" stroke-linecap="round" stroke-linejoin="round" stroke-width="1"/>
          <rect id="Rectángulo_28691" data-name="Rectángulo 28691" width="1.446" height="3.893" transform="translate(38.177 99.548) rotate(-174.15)" fill="#eaccb2" stroke="#263238" stroke-miterlimit="10" stroke-width="1"/>
          <rect id="Rectángulo_28692" data-name="Rectángulo 28692" width="1.446" height="8.273" transform="translate(34.147 106.96) rotate(-174.15)" fill="#757575" stroke="#263238" stroke-linecap="round" stroke-linejoin="round" stroke-width="1"/>
          <rect id="Rectángulo_28693" data-name="Rectángulo 28693" width="1.446" height="3.893" transform="translate(34.524 103.235) rotate(-174.15)" fill="#eaccb2" stroke="#263238" stroke-miterlimit="10" stroke-width="1"/>
          <rect id="Rectángulo_28694" data-name="Rectángulo 28694" width="1.446" height="8.273" transform="translate(31.383 101.976) rotate(-174.15)" fill="#757575" stroke="#263238" stroke-linecap="round" stroke-linejoin="round" stroke-width="1"/>
          <rect id="Rectángulo_28695" data-name="Rectángulo 28695" width="1.446" height="3.893" transform="translate(31.507 100.743) rotate(-174.15)" fill="#eaccb2" stroke="#263238" stroke-miterlimit="10" stroke-width="1"/>
          <rect id="Rectángulo_28696" data-name="Rectángulo 28696" width="1.446" height="8.273" transform="translate(28.283 100.281) rotate(-174.15)" fill="#757575" stroke="#263238" stroke-linecap="round" stroke-linejoin="round" stroke-width="1"/>
          <rect id="Rectángulo_28697" data-name="Rectángulo 28697" width="1.446" height="3.893" transform="translate(28.633 96.865) rotate(-174.15)" fill="#eaccb2" stroke="#263238" stroke-miterlimit="10" stroke-width="1"/>
          <rect id="Rectángulo_28698" data-name="Rectángulo 28698" width="1.446" height="8.273" transform="translate(24.775 102.517) rotate(-174.15)" fill="#757575" stroke="#263238" stroke-linecap="round" stroke-linejoin="round" stroke-width="1"/>
          <rect id="Rectángulo_28699" data-name="Rectángulo 28699" width="1.446" height="3.893" transform="translate(24.78 102.509) rotate(-174.15)" fill="#eaccb2" stroke="#263238" stroke-miterlimit="10" stroke-width="1"/>
          <rect id="Rectángulo_28700" data-name="Rectángulo 28700" width="1.446" height="8.273" transform="translate(21.801 99.609) rotate(-174.15)" fill="#757575" stroke="#263238" stroke-linecap="round" stroke-linejoin="round" stroke-width="1"/>
          <rect id="Rectángulo_28701" data-name="Rectángulo 28701" width="1.446" height="3.893" transform="translate(21.866 98.995) rotate(-174.15)" fill="#eaccb2" stroke="#263238" stroke-miterlimit="10" stroke-width="1"/>
          <rect id="Rectángulo_28702" data-name="Rectángulo 28702" width="1.446" height="8.273" transform="translate(18.449 100.388) rotate(-174.15)" fill="#757575" stroke="#263238" stroke-linecap="round" stroke-linejoin="round" stroke-width="1"/>
          <rect id="Rectángulo_28703" data-name="Rectángulo 28703" width="1.446" height="3.893" transform="translate(18.481 100.077) rotate(-174.15)" fill="#eaccb2" stroke="#263238" stroke-miterlimit="10" stroke-width="1"/>
          <rect id="Rectángulo_28704" data-name="Rectángulo 28704" width="1.446" height="8.273" transform="translate(15.318 98.996) rotate(-174.15)" fill="#757575" stroke="#263238" stroke-linecap="round" stroke-linejoin="round" stroke-width="1"/>
          <rect id="Rectángulo_28705" data-name="Rectángulo 28705" width="1.446" height="3.893" transform="translate(15.733 94.974) rotate(-174.15)" fill="#eaccb2" stroke="#263238" stroke-miterlimit="10" stroke-width="1"/>
          <path id="Trazado_112396" data-name="Trazado 112396" d="M356.785,272.906l-65.706-6.739a.7.7,0,0,0-.761.621.685.685,0,0,0,.615.755l65.712,6.721a.683.683,0,1,0,.14-1.359Z" transform="translate(-269.385 -156.236)" fill="#263238"/>
          <path id="Trazado_112397" data-name="Trazado 112397" d="M348.352,280.581l-76.414-7.834a.7.7,0,0,0-.761.621.685.685,0,0,0,.621.755l76.408,7.834a.7.7,0,0,0,.755-.621.685.685,0,0,0-.609-.755Z" transform="translate(-261.45 -158.963)" fill="#263238"/>
          <path id="Trazado_112398" data-name="Trazado 112398" d="M315.383,285.781l-44.313-4.543a.693.693,0,0,0-.14,1.378l44.313,4.543a.693.693,0,0,0,.14-1.378Z" transform="translate(-261.092 -162.483)" fill="#263238"/>
          <path id="Trazado_112399" data-name="Trazado 112399" d="M349.216,195.545c-2.266-.182-3.051,3.431-3.051,3.431s-3.583-4.683-3.015-15.737c0,0-1.756-4.895-6.44-1.938s-9.549,13.372-8.39,24.73l-9.1-30.262c-3.15.667-9.549,4.9-7.863,25.339l-9.953-10.538a3.748,3.748,0,0,0-4.215,1.516c-1.522,2.383-.8,19.449.459,25.83s-1.95,19.2-1.95,19.2-3.431-14.52-9.637-18.2L262.433,170.2l-7.863,76.636,8.86.908,14.225-6.925c-.082,3.2-.158,6.148-.394,8.343l71.1,7.285,5.088-49.659C351.723,200.6,350.07,195.609,349.216,195.545Z" transform="translate(-254.568 -116.455)" fill="rgba(0,0,0,0.7)" opacity="0.2"/>
        </g>
        <path id="Trazado_112401" data-name="Trazado 112401" d="M361.72,88.008l-8.269,80.726-5.091,49.657-71.1-7.285-13.834-1.417-8.86-.908,7.853-76.636L267.929,78.4Z" transform="translate(-254.567 -78.4)" fill="none" stroke="#263238" stroke-linecap="round" stroke-linejoin="round" stroke-width="1"/>
        <path id="Trazado_112402" data-name="Trazado 112402" d="M376.453,337.841l-41.568,7.073s-7.236-38.435-11.551-44.5-3.513-8.548-5.621-12.629c-1.265-2.465-7.613-7.061-12.581-11.6h0c-.433-.394-.853-.788-1.259-1.171-.176-.158-.339-.328-.5-.486-.662-.656-1.277-1.294-1.821-1.92q-.3-.333-.585-.667a9.485,9.485,0,0,1-2.014-3.566.909.909,0,0,1-.035-.182,1.507,1.507,0,0,1-.035-.217c-.111-.908-.228-1.944-.345-3.068a5.8,5.8,0,0,0-.076-.691l-.035-.281c-.1-.937-.211-1.932-.339-2.953s-.269-2.184-.433-3.3c-.053-.387-.106-.773-.17-1.171h0c-.066-.433-.135-.866-.2-1.305l-.2-1.129a1.327,1.327,0,0,0-.035-.176l-.246-1.3a.585.585,0,0,1-.03-.146c-.082-.381-.158-.755-.246-1.136-.182-.849-.387-1.68-.585-2.488a30.868,30.868,0,0,0-1.552-4.45c-3-6.694.9-4.274-1.444-21.492,0,0,1.727-3.993,6.651-.8a13.206,13.206,0,0,1,1.1.8h0a13.842,13.842,0,0,1,2.617,2.8,16.171,16.171,0,0,1,2.26,4.683,20.262,20.262,0,0,1,.667,8.372s3.7,12.681,5.65,15.568,10.011-13.694,9.49-15.626a26.1,26.1,0,0,1-.415-2.625c-.035-.287-.07-.585-.112-.914s-.076-.656-.111-1a3.907,3.907,0,0,0-.066-.509v-.2c-.07-.662-.152-1.364-.228-2.09a4.587,4.587,0,0,0-.066-.585c-.035-.345-.07-.7-.106-1.054a1.483,1.483,0,0,1,0-.176,5.6,5.6,0,0,0-.066-.585c-.047-.41-.088-.826-.131-1.241s-.07-.714-.106-1.071c-.07-.673-.135-1.347-.2-2-.047-.486-.094-.966-.135-1.435a1.1,1.1,0,0,0-.03-.31c-.246-2.576-.439-4.683-.509-5.6,0,0-5.854-8.676-6.44-12.763s-.551-8.39,1.9-10.14c5.808-4.135,4.1,2.529,6.709,5.269s6.587,7.277,8.846,8.688c2.084,1.323,3.946,6.44,4.21,7.213-.3-1.124-3.282-12.178-3.343-14.4-.076-2.342-1.868-14.73,1.171-19.174s7.088-.995,7.465-.117.486,12.88,1.557,16.217,5.556,17.254,5.556,17.254.187-13.536,1.171-19.6,3.642-10.8,6.218-11.065,4.959,2.57,4.959,2.57-1.019,9.66-.726,11.891-.421,10.286.8,14.636c0,0-.14-11.539,1.651-13.015s3.331-2.184,4.338-1.171,1.223,7.828,2.248,11.938.9,9.695,1.569,16.106,3.326,15.31,2.8,20.4-2.149,17.7-3.454,25.11a158.459,158.459,0,0,1-4.637,17.563,36.389,36.389,0,0,1,1.223,10.246C364.6,305.779,376.453,337.841,376.453,337.841Z" transform="translate(-270.471 -120.419)" fill="#fff"/>
        <path id="Trazado_112403" data-name="Trazado 112403" d="M367.844,208.771c.8,2.47,3.46,10.737,4.783,14.865,0,0-5.808,4.266-5.667,8.237s-1.06,11.984-3.671,11.748-2.342-16.891-3.226-19.7c.533,1.206.872,2.184.942,2.377-.193-.722-3.3-12.189-3.36-14.461,0-.533-.123-1.6-.246-2.974h0s5.776-5.533,10.017-2.149h0a15.439,15.439,0,0,0,.427,2.052Z" transform="translate(-297.195 -131.139)" fill="#eaccb2" opacity="0.4"/>
        <path id="Trazado_112404" data-name="Trazado 112404" d="M396.439,211.9c-2.7,2.564-6.786,7.1-7.3,11.469,0,0,1.5,12.213.86,17.564l-5.269-16.516s.187-13.536,1.171-19.6a2.964,2.964,0,0,1,.088-.5,24.081,24.081,0,0,1,10.609-2.617,46.663,46.663,0,0,0-.228,6.481,35.345,35.345,0,0,1,.07,3.712Z" transform="translate(-308.525 -129.517)" fill="#eaccb2" opacity="0.4"/>
        <path id="Trazado_112405" data-name="Trazado 112405" d="M408.5,215.238h0c-.066.041-.222.17-.451.363a6.892,6.892,0,0,1,.459-.761Z" transform="translate(-318.192 -134.96)" fill="#eaccb2" opacity="0.4"/>
        <path id="Trazado_112406" data-name="Trazado 112406" d="M408.682,248.318s-3.478-13.044-3.513-23.547c-.03-3.887.421-7.429,1.68-9.824h0a6.888,6.888,0,0,1,.459-.761v.375a9.747,9.747,0,0,1,2.073-1.37c-.978,1.522-2.1,4.5-.8,9.367C410.62,230.116,408.84,239.383,408.682,248.318Z" transform="translate(-316.997 -134.276)" fill="#eaccb2" opacity="0.4"/>
        <path id="Trazado_112407" data-name="Trazado 112407" d="M316.31,289.825s.931,12.429-9.057,16.879h0c-.433-.394-.853-.788-1.259-1.171-.176-.158-.339-.328-.5-.486-.662-.656-1.276-1.294-1.821-1.92-.2-.228-.387-.451-.585-.667a9.484,9.484,0,0,1-2.014-3.566.906.906,0,0,1-.035-.181A1.507,1.507,0,0,1,301,298.5c-.111-.908-.228-1.944-.345-3.068a5.784,5.784,0,0,0-.076-.691l-.035-.281c-.1-.937-.211-1.932-.339-2.953s-.269-2.184-.433-3.3c-.058-.387-.112-.778-.17-1.171h0c-.066-.433-.135-.866-.2-1.305l-.2-1.136a1.326,1.326,0,0,0-.035-.176l-.246-1.3a.586.586,0,0,1-.03-.146c-.082-.381-.158-.755-.246-1.136-.187-.843-.394-1.674-.585-2.488,3.952-3.8,13.073-1.417,8.659-10.228,0,0,2.225-7.541-3.905-15.714h0c4.192,3.378,6.341,9.32,5.544,15.807,0,0,3.7,12.681,5.65,15.568s10.011-13.694,9.49-15.626a26.116,26.116,0,0,1-.415-2.625c-.035-.287-.07-.585-.111-.914s-.076-.656-.111-1a3.913,3.913,0,0,0-.066-.509v-.2q-.106-1-.228-2.09a4.6,4.6,0,0,0-.066-.585c-.035-.345-.07-.7-.106-1.054a1.464,1.464,0,0,1,0-.176,5.605,5.605,0,0,0-.066-.585c-.047-.41-.088-.826-.131-1.241s-.07-.714-.106-1.071c-.07-.673-.135-1.347-.2-2-.047-.486-.088-.972-.135-1.435a1.1,1.1,0,0,0-.03-.31c.158.767,3.127,14.9,4.824,18.19C328.254,274.91,320.857,292.752,316.31,289.825Z" transform="translate(-272.592 -150.924)" fill="#eaccb2" opacity="0.4"/>
        <path id="Trazado_112408" data-name="Trazado 112408" d="M408.049,314.629a158.093,158.093,0,0,1-4.637,17.564,36.388,36.388,0,0,1,1.223,10.246c-.082,1.3.726,4.584,1.932,8.682-.351-.9-4.1-10.573-4.022-13.946.076-3.544-.931-4.52-2.927-8.87s-4.982-3.872-4.982-3.872-1.171,10.849-3.887,3.717-3.249-15.427,3.618-44.231c0,0,1.036,3.61.17,14.344s1.7,13.979,1.7,13.979a100.252,100.252,0,0,0,9.127-21.277s-.89,12.523-1.68,18.226,2.816-6.61,5.334-14.215c2.342-7.137,2.453-9.853,1.552-14.935a37.041,37.041,0,0,1,.914,9.49C410.976,294.595,409.354,307.223,408.049,314.629Z" transform="translate(-310.24 -161.988)" fill="#eaccb2" opacity="0.4"/>
        <path id="Trazado_112409" data-name="Trazado 112409" d="M341.4,380.36c2.025,3.22,6.984,7.476,9.953,19.25s1.095,24.659,1.095,24.659Z" transform="translate(-290.562 -203.575)" fill="#eaccb2" opacity="0.4"/>
        <path id="Trazado_112410" data-name="Trazado 112410" d="M305.565,259.458s-10.37,5.269-11.188,14.051c-3-6.694.9-4.274-1.444-21.492,0,0,1.727-3.993,6.651-.8a13.2,13.2,0,0,1,1.1.8h0a13.841,13.841,0,0,1,2.617,2.8Z" transform="translate(-270.471 -149.526)" fill="rgba(0,0,0,0.7)" opacity="0.2"/>
        <path id="Trazado_112411" data-name="Trazado 112411" d="M334.88,344.893s-7.236-38.435-11.551-44.5-3.513-8.548-5.621-12.629-18.108-14.01-18.816-19.812-1.522-16.9-4.52-23.6.9-4.274-1.452-21.492c0,0,1.756-3.993,6.657-.8s7.511,9.572,6.651,16.639c0,0,3.7,12.667,5.655,15.562s10-13.694,9.478-15.632-2.067-18.419-2.307-21.428c0,0-5.854-8.682-6.44-12.769s-.551-8.39,1.9-10.134c5.808-4.135,4.1,2.529,6.709,5.269s6.587,7.271,8.84,8.688,4.221,7.336,4.221,7.336-3.308-12.142-3.372-14.49-1.868-14.73,1.171-19.168,7.1-1,7.471-.123.486,12.88,1.563,16.217l5.544,17.254s.193-13.536,1.206-19.6,3.642-10.8,6.218-11.065,4.959,2.57,4.959,2.57-1.019,9.66-.732,11.891-.415,10.28.808,14.636c0,0-.14-11.539,1.651-13.015s3.331-2.184,4.338-1.171,1.223,7.828,2.248,11.938.9,9.695,1.569,16.106,3.326,15.31,2.8,20.391-2.149,17.71-3.46,25.122a160.629,160.629,0,0,1-4.625,17.564,36.523,36.523,0,0,1,1.217,10.246c-.292,4.83,11.581,36.984,11.581,36.984" transform="translate(-270.466 -120.398)" fill="none" stroke="#263238" stroke-linecap="round" stroke-linejoin="round" stroke-width="1"/>
        <path id="Trazado_112412" data-name="Trazado 112412" d="M384.72,240.45c1.212,2.845,4.2,14.859,5.269,16.522a5.7,5.7,0,0,0,2.283,2.166" transform="translate(-308.521 -145.576)" fill="none" stroke="#263238" stroke-linecap="round" stroke-linejoin="round" stroke-width="1"/>
        <path id="Trazado_112413" data-name="Trazado 112413" d="M405.99,237.75s-.257,2.465,1.071,10.31,1.979,11.188,2.722,12.938" transform="translate(-317.329 -144.457)" fill="none" stroke="#263238" stroke-linecap="round" stroke-linejoin="round" stroke-width="1"/>
        <path id="Trazado_112414" data-name="Trazado 112414" d="M363.58,241c1.622,4.783,2.541,12.4,3.466,14.7s1.756,2.769,1.756,2.769" transform="translate(-299.757 -145.804)" fill="none" stroke="#263238" stroke-linecap="round" stroke-linejoin="round" stroke-width="1"/>
        <path id="Trazado_112415" data-name="Trazado 112415" d="M368.07,260.58a7.277,7.277,0,0,1,2.248,2.839" transform="translate(-301.618 -153.921)" fill="none" stroke="#263238" stroke-linecap="round" stroke-linejoin="round" stroke-width="1"/>
        <path id="Trazado_112416" data-name="Trazado 112416" d="M325.31,307.06s.884,6.341,4.857,5.855" transform="translate(-283.892 -173.189)" fill="none" stroke="#263238" stroke-linecap="round" stroke-linejoin="round" stroke-width="1"/>
        <path id="Trazado_112417" data-name="Trazado 112417" d="M341.035,280.36s1.03,7.541-.656,10.737" transform="translate(-290.139 -162.121)" fill="none" stroke="#263238" stroke-linecap="round" stroke-linejoin="round" stroke-width="1"/>
        <path id="Trazado_112418" data-name="Trazado 112418" d="M392.9,280.48s2.67,1.634.884,6.44-4.895,24.138-4.895,24.138" transform="translate(-310.249 -162.171)" fill="none" stroke="#263238" stroke-linecap="round" stroke-linejoin="round" stroke-width="1"/>
        <path id="Trazado_112419" data-name="Trazado 112419" d="M411.814,289.12c1.116,4.332,1.217,4.444-.585,9.765s-4.748,18.36-4.748,18.36" transform="translate(-317.541 -165.752)" fill="none" stroke="#263238" stroke-linecap="round" stroke-linejoin="round" stroke-width="1"/>
        <path id="Trazado_112420" data-name="Trazado 112420" d="M413.1,364.54s-1.756-3.513-.3-6.44" transform="translate(-319.92 -194.347)" fill="none" stroke="#263238" stroke-linecap="round" stroke-linejoin="round" stroke-width="1"/>
        <path id="Trazado_112421" data-name="Trazado 112421" d="M344.86,385.86A48.234,48.234,0,0,1,351.195,399" transform="translate(-291.997 -205.854)" fill="none" stroke="#263238" stroke-linecap="round" stroke-linejoin="round" stroke-width="1"/>
        <path id="Trazado_112422" data-name="Trazado 112422" d="M400.34,199.285l1.194-1.177.539-.158-.035.585-1.095,1.4Z" transform="translate(-314.996 -127.958)" fill="#757575" stroke="#263238" stroke-linecap="round" stroke-linejoin="round" stroke-width="1"/>
        <path id="Trazado_112423" data-name="Trazado 112423" d="M359.53,200.608l-1.944,4.4-52.223,69.634-5.814-3.712,7.876-9.906,46.907-58.839,4.139-2.629A1.481,1.481,0,0,1,359.53,200.608Z" transform="translate(-273.214 -128.626)" fill="#eaccb2"/>
        <g id="Grupo_60040" data-name="Grupo 60040" transform="translate(26.335 70.934)" clip-path="url(#clip-path-4)">
          <path id="Trazado_112424" data-name="Trazado 112424" d="M359.53,200.6l-1.944,4.4-52.223,69.634-5.814-3.712,7.876-9.906c3.63-.375,4.238,1.756,4.238,1.756l44.993-58.722a3.03,3.03,0,0,0-2.342-1.885l4.139-2.629A1.481,1.481,0,0,1,359.53,200.6Z" transform="translate(-299.549 -199.552)" fill="rgba(0,0,0,0.7)" opacity="0.3"/>
        </g>
        <path id="Trazado_112426" data-name="Trazado 112426" d="M359.53,200.608l-1.944,4.4-52.223,69.634-5.814-3.712,7.876-9.906,46.907-58.839,4.139-2.629A1.481,1.481,0,0,1,359.53,200.608Z" transform="translate(-273.214 -128.626)" fill="none" stroke="#263238" stroke-linecap="round" stroke-linejoin="round" stroke-width="1"/>
        <path id="Trazado_112427" data-name="Trazado 112427" d="M315.213,292.084a212.619,212.619,0,0,1-11.44,19.755l-4,1.036s-9.192,9.132-14.8,13.693a12.576,12.576,0,0,1-2.74-2.3S290.187,308.975,299,299.3a11.124,11.124,0,0,1,2.888,1.534,14.307,14.307,0,0,1,3.019,2.892l9.818-12.353Z" transform="translate(-266.033 -166.685)" fill="#eaccb2"/>
        <g id="Grupo_60041" data-name="Grupo 60041" transform="translate(16.192 124.685)" clip-path="url(#clip-path-5)">
          <path id="Trazado_112428" data-name="Trazado 112428" d="M317.155,292.07a212.785,212.785,0,0,1-11.44,19.755l-4,1.036s-9.192,9.132-14.8,13.7l.152-2.482c6.083-9.291,13.811-19.427,16.767-23.254a14.307,14.307,0,0,1,3.019,2.892L301.392,311l3.127-.585,12.148-19.074Z" transform="translate(-284.167 -291.356)" fill="rgba(0,0,0,0.7)" opacity="0.3"/>
        </g>
        <path id="Trazado_112430" data-name="Trazado 112430" d="M315.213,292.084a212.619,212.619,0,0,1-11.44,19.755l-4,1.036s-9.192,9.132-14.8,13.693a12.576,12.576,0,0,1-2.74-2.3S290.187,308.975,299,299.3a11.124,11.124,0,0,1,2.888,1.534,14.307,14.307,0,0,1,3.019,2.892l9.818-12.353Z" transform="translate(-266.033 -166.685)" fill="none" stroke="#263238" stroke-linecap="round" stroke-linejoin="round" stroke-width="1"/>
        <path id="Trazado_112431" data-name="Trazado 112431" d="M353.265,242.48l-16.311,15.807-2.606,2.529c1.786-4.59.919-11.709.808-12.547h0v-.2a26.092,26.092,0,0,1-.415-2.625c-.035-.287-.07-.585-.111-.914s-.076-.656-.112-1a3.912,3.912,0,0,0-.066-.509v-.2c-.07-.662-.152-1.364-.228-2.09a4.593,4.593,0,0,0-.066-.585c-.035-.345-.07-.7-.106-1.054a1.484,1.484,0,0,1,0-.176,5.616,5.616,0,0,0-.066-.585c-.047-.41-.088-.826-.131-1.241s-.07-.714-.106-1.071c-.07-.673-.135-1.347-.2-2-.047-.486-.094-.966-.135-1.435a1.1,1.1,0,0,0-.03-.31c-.246-2.576-.439-4.683-.509-5.6,0,0-5.854-8.676-6.44-12.763s-.551-8.39,1.9-10.14c5.808-4.135,4.1,2.529,6.709,5.269s6.587,7.277,8.846,8.688,4.151,7.289,4.151,7.289c1.622,4.777,2.541,12.4,3.466,14.695S353.265,242.48,353.265,242.48Z" transform="translate(-284.232 -129.826)" fill="#fff"/>
        <path id="Trazado_112432" data-name="Trazado 112432" d="M368.07,260.58a7.277,7.277,0,0,1,2.248,2.839" transform="translate(-301.618 -153.921)" fill="none" stroke="#263238" stroke-linecap="round" stroke-linejoin="round" stroke-width="1"/>
        <path id="Trazado_112433" data-name="Trazado 112433" d="M334.927,209c2.588,2.763,6.563,7.248,8.823,8.676-.316-.158-4.479-2.184-6.8.07-2.418,2.342-4.168,8.87-4.168,8.87s-5.855-8.676-6.44-12.763-.551-8.39,1.9-10.14C334.026,199.576,332.328,206.262,334.927,209Z" transform="translate(-284.19 -129.8)" fill="#eaccb2" opacity="0.4"/>
        <path id="Trazado_112434" data-name="Trazado 112434" d="M342.1,279.422l-2.606,2.529c1.786-4.59.919-11.709.808-12.547h0a.887.887,0,0,0,0-.2,26.1,26.1,0,0,1-.415-2.625c-.035-.287-.07-.585-.111-.914s-.076-.656-.111-1a3.914,3.914,0,0,0-.066-.509v-.2q-.106-1-.228-2.09a4.582,4.582,0,0,0-.066-.585c-.035-.345-.07-.7-.106-1.054a1.5,1.5,0,0,1,0-.176,5.6,5.6,0,0,0-.066-.585c-.047-.41-.088-.826-.131-1.241s-.07-.714-.106-1.071c-.07-.673-.135-1.347-.2-2-.047-.486-.088-.972-.135-1.435a1.1,1.1,0,0,0-.03-.31c.158.767,3.127,14.9,4.825,18.19C343.936,272.794,343.339,276,342.1,279.422Z" transform="translate(-289.375 -150.948)" fill="#eaccb2" opacity="0.4"/>
        <path id="Trazado_112435" data-name="Trazado 112435" d="M353.2,242.46s-.826-.475-1.756-2.769-1.844-9.917-3.466-14.7c0,0-1.985-5.854-4.244-7.295s-6.241-5.925-8.84-8.688-.9-9.427-6.709-5.269c-2.453,1.756-2.506,6.054-1.9,10.134s6.44,12.769,6.44,12.769c.24,3.009,1.786,19.5,2.307,21.428" transform="translate(-284.163 -129.806)" fill="none" stroke="#263238" stroke-linecap="round" stroke-linejoin="round" stroke-width="1"/>
        <path id="Trazado_112436" data-name="Trazado 112436" d="M341.035,280.36s1.03,7.541-.656,10.737" transform="translate(-290.139 -162.121)" fill="none" stroke="#263238" stroke-linecap="round" stroke-linejoin="round" stroke-width="1"/>
      </g>
      <g id="freepik--left-hand--inject-81" transform="translate(31.359 51.471)">
        <path id="Trazado_112437" data-name="Trazado 112437" d="M136.727,288.864s3.706,17.212-4.32,29.731-14.209,15.86-16.978,19.6-13.651,24.619-13.651,24.619L89.07,325.18l12.7-46.55Z" transform="translate(-57.901 -154.905)" fill="rgba(0,0,0,0.7)" opacity="0.2"/>
        <path id="Trazado_112438" data-name="Trazado 112438" d="M200.841,188.1l-78.78,33.154-8.121,3.419-15.3-36.363L63.1,103.873,150,67.3Z" transform="translate(-47.135 -67.3)" fill="#fff"/>
        <g id="Grupo_60042" data-name="Grupo 60042" transform="translate(15.965)" clip-path="url(#clip-path-6)">
          <path id="Trazado_112439" data-name="Trazado 112439" d="M146.019,94.067l-37.511,15.807a1.384,1.384,0,1,0,1.071,2.553l37.505-15.813a1.382,1.382,0,1,0-1.07-2.546Z" transform="translate(-81.572 -78.347)" fill="#263238"/>
          <path id="Trazado_112440" data-name="Trazado 112440" d="M147.367,109.79l-18.735,7.892a.693.693,0,1,0,.539,1.277l18.735-7.9a.691.691,0,1,0-.539-1.271Z" transform="translate(-90.09 -84.885)" fill="#263238"/>
          <path id="Trazado_112441" data-name="Trazado 112441" d="M180.464,192s.788,6.212-1.522,7.183c-2.113.89-4.895-2.441-7.324-1.423s-.515,9.835-2.857,10.819-5.164-2.634-7.189-1.756-.8,5.386-2.881,6.264c-1.721.722-4.18-2.881-6.148-3.671a1.493,1.493,0,0,0-1.171-.058c-2.061.866-1.036,10.334-2.816,11.077a3.347,3.347,0,0,1-1.581.263,11.158,11.158,0,0,0-2.008-.193,2.576,2.576,0,0,0-.749.193c-1.516.638-1.313,5.621-2.7,6.206s-2.756-.14-4.238.48-1.458,3.216-3.671,4.145l.937,2.219,53.925-22.693" transform="translate(-92.329 -118.993)" fill="#bfbfbf" stroke="#263238" stroke-miterlimit="10" stroke-width="1"/>
          <path id="Trazado_112442" data-name="Trazado 112442" d="M116.56,218.92l10.921,25.942L183.943,221.1" transform="translate(-85.261 -130.152)" fill="none" stroke="#263238" stroke-linecap="round" stroke-linejoin="round" stroke-width="1"/>
          <path id="Trazado_112443" data-name="Trazado 112443" d="M184.8,208.181s-.269-.328-.667-.722c-.7-.673-1.8-1.528-2.646-1.171s-.9,1.706-.878,3.173c0,1.756.176,3.688-.722,4.063-.761.322-1.44-.158-2.143-.685-.8-.585-1.622-1.253-2.611-.837-1.662.7-1.171,2.869-1.756,4.725a3.589,3.589,0,0,1-2.2,2.342c-1.435.585-2.892,0-4.266-.925-2.342-1.581-4.4-4.145-5.749-3.577-2.149.908.217,6.715-2.09,7.687-1.288.545-3.958-3.513-6.551-7.022-2.049-2.769-4.051-5.182-5.269-4.683-2.781,1.171,1.8,15.064-.217,15.913l-.066.03a2.155,2.155,0,0,1-2.008-.193c-.726-.41-1.323-1-2.125-.662-1.493.632-.621,6.077-2.26,6.768s-2.629-.31-4.479.469c-1.563.662-2.494,4.45-2.494,4.45l.937,2.219,53.925-22.7" transform="translate(-92.329 -124.881)" fill="#757575" stroke="#263238" stroke-linecap="round" stroke-linejoin="round" stroke-width="1"/>
          <path id="Trazado_112444" data-name="Trazado 112444" d="M187.984,241.171l-18.735,7.892a.693.693,0,1,0,.539,1.277l18.735-7.892a.693.693,0,0,0-.539-1.277Z" transform="translate(-106.927 -139.354)" fill="#263238"/>
          <rect id="Rectángulo_28706" data-name="Rectángulo 28706" width="2.699" height="2.699" rx="0.63" transform="translate(93.763 71.651) rotate(-22.82)" fill="#bfbfbf" stroke="#263238" stroke-miterlimit="10" stroke-width="1"/>
          <path id="Trazado_112445" data-name="Trazado 112445" d="M238.057,182.479l-7.494,3.157a.322.322,0,0,1-.41-.17.31.31,0,0,1,.164-.4l7.5-3.156a.311.311,0,0,1,.24.574Z" transform="translate(-132.341 -114.8)" fill="#263238"/>
          <path id="Trazado_112446" data-name="Trazado 112446" d="M236.67,186.247l-5.21,2.189a.311.311,0,0,1-.24-.574l5.21-2.189a.31.31,0,0,1,.4.164.316.316,0,0,1-.164.41Z" transform="translate(-132.716 -116.361)" fill="#263238"/>
          <rect id="Rectángulo_28707" data-name="Rectángulo 28707" width="2.699" height="2.699" rx="0.63" transform="translate(96.11 77.225) rotate(-22.82)" fill="#757575" stroke="#263238" stroke-linecap="round" stroke-linejoin="round" stroke-width="1"/>
          <path id="Trazado_112447" data-name="Trazado 112447" d="M242.055,191.985l-7.494,3.15a.316.316,0,1,1-.24-.585l7.494-3.156a.316.316,0,0,1,.24.585Z" transform="translate(-133.997 -118.732)" fill="#263238"/>
          <path id="Trazado_112448" data-name="Trazado 112448" d="M240.659,195.753l-5.2,2.2a.318.318,0,1,1-.246-.585l5.21-2.189a.316.316,0,1,1,.24.585Z" transform="translate(-134.363 -120.299)" fill="#263238"/>
          <path id="Trazado_112449" data-name="Trazado 112449" d="M221.1,231.61,160.21,257.23a.693.693,0,0,0,.539,1.277l60.888-25.626a.691.691,0,1,0-.539-1.271Z" transform="translate(-103.18 -135.384)" fill="#263238"/>
          <path id="Trazado_112450" data-name="Trazado 112450" d="M217.358,239.434l-70.8,29.794a.691.691,0,1,0,.539,1.271l70.794-29.8a.691.691,0,1,0-.533-1.271Z" transform="translate(-97.509 -138.624)" fill="#263238"/>
          <path id="Trazado_112451" data-name="Trazado 112451" d="M220.652,247.268,149.861,277.06a.691.691,0,1,0,.539,1.271l70.782-29.8a.691.691,0,1,0-.539-1.271Z" transform="translate(-98.877 -141.873)" fill="#263238"/>
          <path id="Trazado_112452" data-name="Trazado 112452" d="M223.938,255.078l-70.793,29.77a.691.691,0,1,0,.533,1.271l70.794-29.8a.691.691,0,1,0-.533-1.271Z" transform="translate(-100.23 -145.099)" fill="#263238"/>
          <path id="Trazado_112453" data-name="Trazado 112453" d="M197.506,284.311l-41.058,17.283a.691.691,0,1,0,.539,1.271l41.058-17.277a.693.693,0,0,0-.539-1.277Z" transform="translate(-101.608 -157.237)" fill="#263238"/>
          <path id="Trazado_112454" data-name="Trazado 112454" d="M155.1,131.7s.788,6.218-1.522,7.189c-2.113.89-4.9-2.441-7.324-1.423s-.515,9.83-2.857,10.819-5.17-2.634-7.189-1.786-.8,5.386-2.881,6.259c-1.721.726-4.18-2.875-6.148-3.665a1.493,1.493,0,0,0-1.171-.058c-2.061.866-1.036,10.328-2.816,11.077a3.267,3.267,0,0,1-1.581.257,11.815,11.815,0,0,0-2.008-.187,2.529,2.529,0,0,0-.749.193c-1.516.638-1.313,5.621-2.7,6.2s-2.756-.135-4.238.486-1.458,3.216-3.671,4.145l.937,2.219,53.949-22.693" transform="translate(-81.817 -93.996)" fill="#bfbfbf" stroke="#263238" stroke-miterlimit="10" stroke-width="1"/>
          <path id="Trazado_112455" data-name="Trazado 112455" d="M158.765,145.85s.492,3.009-.7,3.513c-.99.415-1.6-.164-2.64-.2a3.431,3.431,0,0,0-1.481.287c-.954.4-1.171,1.686-1.353,3.068-.211,1.706-.316,3.554-1.563,4.1a3.84,3.84,0,0,1-2.787-.187c-1.552-.539-3.179-1.393-4.754-.732a3.787,3.787,0,0,0-1.706,2.172c-.978,2.418-1.282,5.919-2.342,6.366-1.5.638-4.262-1.95-5.6-1.387s-.788,2.881-1.874,3.337-1.706-.89-3.61-.088-.978,3.624-3.671,4.76-3.875-.954-6.475.14-2.131,3.073-3.969,3.847-2.611-.585-3.923,0-1.628,2.629-1.645,2.756l.722,1.706L163.321,156.6" transform="translate(-81.993 -99.862)" fill="#eaccb2" stroke="#263238" stroke-miterlimit="10" stroke-width="1"/>
          <path id="Trazado_112456" data-name="Trazado 112456" d="M91.2,158.66,102.119,184.6l56.456-23.764" transform="translate(-74.748 -105.172)" fill="none" stroke="#263238" stroke-linecap="round" stroke-linejoin="round" stroke-width="1"/>
          <path id="Trazado_112457" data-name="Trazado 112457" d="M162.333,180.221,143.6,188.113a.692.692,0,1,0,.533,1.277l18.735-7.892a.693.693,0,1,0-.539-1.277Z" transform="translate(-96.293 -114.088)" fill="#263238"/>
          <rect id="Rectángulo_28708" data-name="Rectángulo 28708" width="2.699" height="2.699" rx="0.63" transform="translate(77.965 34.118) rotate(-22.82)" fill="#bfbfbf" stroke="#263238" stroke-miterlimit="10" stroke-width="1"/>
          <path id="Trazado_112458" data-name="Trazado 112458" d="M211.077,118.367l-7.494,3.156a.322.322,0,0,1-.41-.17.31.31,0,0,1,.17-.4l7.494-3.156a.31.31,0,0,1,.4.17.3.3,0,0,1-.164.4Z" transform="translate(-121.156 -88.222)" fill="#263238"/>
          <path id="Trazado_112459" data-name="Trazado 112459" d="M209.682,122.125l-5.21,2.189a.316.316,0,0,1-.24-.585l5.21-2.2a.31.31,0,0,1,.4.164.316.316,0,0,1-.164.427Z" transform="translate(-121.523 -89.772)" fill="#263238"/>
          <rect id="Rectángulo_28709" data-name="Rectángulo 28709" width="2.699" height="2.699" rx="0.63" transform="translate(80.318 39.692) rotate(-22.82)" fill="#eaccb2" stroke="#263238" stroke-miterlimit="10" stroke-width="1"/>
          <path id="Trazado_112460" data-name="Trazado 112460" d="M215.08,127.887l-7.494,3.156a.31.31,0,0,1-.4-.17.3.3,0,0,1,.164-.4l7.494-3.156a.316.316,0,1,1,.24.585Z" transform="translate(-122.817 -92.168)" fill="#263238"/>
          <path id="Trazado_112461" data-name="Trazado 112461" d="M213.678,131.649l-5.2,2.189a.318.318,0,1,1-.246-.585l5.21-2.189a.316.316,0,1,1,.24.585Z" transform="translate(-123.178 -93.723)" fill="#263238"/>
          <path id="Trazado_112462" data-name="Trazado 112462" d="M147.224,287.66l-8.12,3.419-15.3-36.363a9.01,9.01,0,0,0,2.56-5.017c.914-4.871.269-20.532,12.465-22.148s1.909,25.807,2.47,31.03C141.808,263.346,148.758,277.18,147.224,287.66Z" transform="translate(-88.263 -133.702)" fill="rgba(0,0,0,0.7)" opacity="0.2"/>
        </g>
        <path id="Trazado_112464" data-name="Trazado 112464" d="M200.841,188.1l-78.78,33.154-8.121,3.419-15.3-36.363L63.1,103.873,150,67.3Z" transform="translate(-47.135 -67.3)" fill="none" stroke="#263238" stroke-linecap="round" stroke-linejoin="round" stroke-width="1"/>
        <path id="Trazado_112465" data-name="Trazado 112465" d="M105.851,253.543c1.37-4.683,6.709-19.683,6.007-26.318a6.668,6.668,0,0,0-.375-1.616c-1.874-4.953-9.532-4.473-12.476-.369A39.431,39.431,0,0,0,92.918,242.8a15.31,15.31,0,0,1-2.342,6.944h0a17.525,17.525,0,0,1-1.552,2.2L71.567,210.527a23.623,23.623,0,0,0-4.572,5.1,8.442,8.442,0,0,0-1.347,3.554c-.357,4.086-4.982,20.895-6.885,27.921-.041.152-.082.3-.117.439-1.85,6.8,3.033,32.071,1.634,39.413s-2.26,7.172-2.465,12.388c-.146,3.807-5.591,15.374-11.709,27.253-3.513,6.809-7.213,13.706-10.275,19.32l44.682-1.856c.772-5.427,1.569-11.157,2.3-16.709a61.886,61.886,0,0,1,1.335-6.856h0c.984-3.981,2.184-7.582,2.927-9.689a90.019,90.019,0,0,0,2.342-9.42c5.2-5.5,12.01-14.151,13.987-20v-.041a7.285,7.285,0,0,0,.445-3.793,17.359,17.359,0,0,1-.357-3.2h0A88.433,88.433,0,0,1,105.851,253.543Z" transform="translate(-35.831 -126.674)" fill="#fff"/>
        <path id="Trazado_112466" data-name="Trazado 112466" d="M112.671,249.777a66.316,66.316,0,0,0-4.1,8.6c-1.042,3.117-2.207,3.56-5.334,6s-5.41-1.581-5.41-1.581,4.139-4.3,2.763-6.694-6.528-8.349-6.223-11.633-3.121-10.649-3.121-10.649,7.8-4.584,6.288-9.953c-.826-2.927-4.912-6.048-8.436-8.269a23.624,23.624,0,0,1,4.573-5.1l17.47,41.462a17.519,17.519,0,0,0,1.528-2.181Z" transform="translate(-57.914 -126.66)" fill="#eaccb2" opacity="0.4"/>
        <path id="Trazado_112467" data-name="Trazado 112467" d="M69.567,301.111c.106.351,2.646,8.741.5,12.236s-4.344,8.132-3.3,12.88c.832,3.793-6.194,17.493-13.355,26.287,6.1-11.879,11.545-23.448,11.709-27.253.2-5.216,1.066-5.058,2.465-12.388s-3.513-32.61-1.634-39.413c.035-.14.076-.287.117-.439,1.364,7.71,4.537,23.067,5.41,28C72.559,307.322,69.66,301.374,69.567,301.111Z" transform="translate(-43.123 -152.579)" fill="#eaccb2" opacity="0.4"/>
        <path id="Trazado_112468" data-name="Trazado 112468" d="M108.44,376.015c5.193-22.358,22.669-39.5,25.034-44.466-1.973,5.855-8.782,14.5-13.987,20a90.019,90.019,0,0,1-2.342,9.42c-.732,2.107-1.932,5.71-2.927,9.689h0C109.166,376.653,108.44,376.015,108.44,376.015Z" transform="translate(-65.93 -176.842)" fill="#eaccb2" opacity="0.4"/>
        <path id="Trazado_112469" data-name="Trazado 112469" d="M149.7,264.025a87.562,87.562,0,0,0-2.371,20.79c-.919-3.981-2.687-9.039-2.98-16.08-.5-11.945,6.27-7.634,3.929-13.542s-9.087,1.657-5.776-10.8c2.418-9.092,9.309-9.01,12.845-8.3a6.669,6.669,0,0,1,.375,1.616C156.407,244.34,151.068,259.339,149.7,264.025Z" transform="translate(-79.678 -137.154)" fill="#eaccb2" opacity="0.4"/>
        <path id="Trazado_112470" data-name="Trazado 112470" d="M47.44,333.606c5.6-10.238,11.048-20.772,14.964-32.13.469-1.634-.158-3.765.316-5.4,5.3-14.748-.714-30.1.275-45.215.837-5.954,2.74-11.945,4.678-17.956.9-4.338,1.229-9.2,2.664-13.565,1.475-3.29,2.927-7.113,6.072-8.782,5.972,13.682,11.92,27.429,17.47,41.462,2.512-1.452,2.927-4.683,3.337-7.406,1.347-6.516,2.711-12.488,5.176-17.974,2.506-4.408,8.887-6.288,12.8-2.687a6.136,6.136,0,0,1,1.792,4.233c-.761,7.564-3.138,15.222-5.533,22.294a58.607,58.607,0,0,0-2.307,9.244c.041,1.077.066,1.61.112,2.688-1.387,5.439-.112,10.228-.427,15.626-1.212,9.736-9,16.516-14.636,23.747-1.393,5.439-2.781,10.878-4.683,16.342-2.342,8.2-3.091,16.276-3.893,24.152" transform="translate(-40.643 -126.687)" fill="none" stroke="#263238" stroke-linecap="round" stroke-linejoin="round" stroke-width="1"/>
        <path id="Trazado_112471" data-name="Trazado 112471" d="M120.4,281.35a36.245,36.245,0,0,0-2.576,6.393c-.732,2.869-4.438,2.459-6.352,4.238" transform="translate(-67.186 -156.033)" fill="none" stroke="#263238" stroke-linecap="round" stroke-linejoin="round" stroke-width="1"/>
        <path id="Trazado_112472" data-name="Trazado 112472" d="M102.84,272.72a33.557,33.557,0,0,1,7.98,4.069,15.257,15.257,0,0,0,5.105,2.851" transform="translate(-63.609 -152.455)" fill="none" stroke="#263238" stroke-linecap="round" stroke-linejoin="round" stroke-width="1"/>
        <path id="Trazado_112473" data-name="Trazado 112473" d="M97.35,248.1s4.1,1.142,7.084-.293a26.68,26.68,0,0,1,.767-4.326" transform="translate(-61.333 -140.334)" fill="none" stroke="#263238" stroke-linecap="round" stroke-linejoin="round" stroke-width="1"/>
        <path id="Trazado_112474" data-name="Trazado 112474" d="M111.11,251.88s.041.585,2.113.585" transform="translate(-67.037 -143.816)" fill="none" stroke="#263238" stroke-linecap="round" stroke-linejoin="round" stroke-width="1"/>
        <path id="Trazado_112475" data-name="Trazado 112475" d="M122.783,365.72a27.786,27.786,0,0,0-6.393,10.117" transform="translate(-69.226 -191.007)" fill="none" stroke="#263238" stroke-linecap="round" stroke-linejoin="round" stroke-width="1"/>
        <path id="Trazado_112476" data-name="Trazado 112476" d="M74.356,275.92c-.187,3.513,3.935,15.971,5.182,22.166s1.721,10.573,1.721,10.573" transform="translate(-51.798 -153.782)" fill="none" stroke="#263238" stroke-linecap="round" stroke-linejoin="round" stroke-width="1"/>
      </g>
    </g>
  </g>
</svg>
