<svg xmlns="http://www.w3.org/2000/svg" width="436.36" height="62.745" viewBox="0 0 436.36 62.745">
  <path id="Trazado_911692" data-name="Trazado 911692" d="M-207.5-12h2.769l-.1.431a1.635,1.635,0,0,0-.479.158.868.868,0,0,0-.264.264,2.241,2.241,0,0,0-.237.549q-.119.374-.3,1.217l-1.5,6.82q-.114.519-.149.822a4.809,4.809,0,0,0-.035.549.686.686,0,0,0,.2.558,1.2,1.2,0,0,0,.664.2l-.1.431h-3.516l.1-.431a1.2,1.2,0,0,0,.5-.171.949.949,0,0,0,.281-.33,3,3,0,0,0,.211-.514q.1-.3.29-1.173l1.169-5.3q.246-1.1.563-2.188h-.123q-.272.519-1.23,2.109l-4,6.6h-.958l-.729-5.651q-.158-1.2-.352-3.217h-.176q-.3,1.969-.668,3.647l-.9,4.061a6.618,6.618,0,0,0-.185,1.371.686.686,0,0,0,.2.558,1.2,1.2,0,0,0,.664.2l-.1.431h-3.076l.1-.431a1.2,1.2,0,0,0,.5-.171.949.949,0,0,0,.281-.33,3,3,0,0,0,.211-.514q.1-.3.29-1.173l1.494-6.768q.088-.378.141-.721A4.56,4.56,0,0,0-216-10.8a.694.694,0,0,0-.207-.576,1.175,1.175,0,0,0-.655-.189l.1-.431h3.138l1,8.525Zm3.735,11.171a1,1,0,0,1,.272-.716.987.987,0,0,1,.7-.3.952.952,0,0,1,.712.264.908.908,0,0,1,.272.7.95.95,0,0,1-.29.7,1.046,1.046,0,0,1-.7.286,1.006,1.006,0,0,1-.391-.057.863.863,0,0,1-.308-.189.846.846,0,0,1-.2-.3A1.032,1.032,0,0,1-203.766-.826ZM-192.867-12a7.5,7.5,0,0,1,1.718.163,2.886,2.886,0,0,1,1.107.5,2.073,2.073,0,0,1,.65.857,3.122,3.122,0,0,1,.215,1.2,4.121,4.121,0,0,1-.624,2.285,3.7,3.7,0,0,1-1.692,1.424,6.492,6.492,0,0,1-2.562.457q-.9,0-1.494-.035l-.562,2.584q-.079.36-.11.554t-.053.417q-.022.224-.022.4a.864.864,0,0,0,.088.426.512.512,0,0,0,.264.224,2.334,2.334,0,0,0,.606.105l-.1.431h-3.612l.1-.431a1.2,1.2,0,0,0,.5-.171.949.949,0,0,0,.281-.33,3,3,0,0,0,.211-.514q.1-.3.29-1.173l1.494-6.768a6.872,6.872,0,0,0,.193-1.389.742.742,0,0,0-.2-.6,1.143,1.143,0,0,0-.659-.193l.1-.431Zm-1.617,6.126a5.53,5.53,0,0,0,1.718-.22,2.475,2.475,0,0,0,1.072-.681,3.261,3.261,0,0,0,.646-1.094,4.062,4.062,0,0,0,.229-1.389,1.934,1.934,0,0,0-.519-1.494,2.523,2.523,0,0,0-1.723-.475q-.545,0-1.143.026l-1.2,5.326Zm6.565,5.045a1,1,0,0,1,.272-.716.987.987,0,0,1,.7-.3.952.952,0,0,1,.712.264.908.908,0,0,1,.272.7.95.95,0,0,1-.29.7,1.046,1.046,0,0,1-.7.286,1.006,1.006,0,0,1-.391-.057.863.863,0,0,1-.308-.189.846.846,0,0,1-.2-.3A1.032,1.032,0,0,1-187.919-.826Zm17.367-6.328h-7.119l.246-1.415h7.128Zm-.633,3.647H-178.3l.246-1.406h7.128Zm8.068-8.06.1-.431h3.533l-.1.431a1.635,1.635,0,0,0-.479.158.868.868,0,0,0-.264.264,2.241,2.241,0,0,0-.237.549q-.119.374-.3,1.217l-1.1,4.922q-.114.5-.18.954a6.49,6.49,0,0,0-.066.936,2.023,2.023,0,0,0,.47,1.45,1.877,1.877,0,0,0,1.419.492,2.8,2.8,0,0,0,1.494-.369,2.647,2.647,0,0,0,.958-1.063,7.492,7.492,0,0,0,.606-1.8l1.222-5.528a6.929,6.929,0,0,0,.193-1.415.694.694,0,0,0-.207-.576,1.175,1.175,0,0,0-.655-.189l.1-.431h3.34l-.1.431a1.656,1.656,0,0,0-.479.163.877.877,0,0,0-.272.268,2.148,2.148,0,0,0-.233.554q-.114.378-.3,1.2l-1.143,5.265a7.306,7.306,0,0,1-.967,2.5,3.628,3.628,0,0,1-1.56,1.345,5.662,5.662,0,0,1-2.29.413,3.35,3.35,0,0,1-2.329-.734,2.743,2.743,0,0,1-.809-2.14,7.3,7.3,0,0,1,.1-1.129q.1-.637.286-1.437l.914-4.1a6.951,6.951,0,0,0,.2-1.415.706.706,0,0,0-.2-.567A1.136,1.136,0,0,0-163.116-11.566Zm12.709,5.994a6.3,6.3,0,0,0,.193-1.3.886.886,0,0,0-.114-.51.414.414,0,0,0-.36-.158.983.983,0,0,0-.576.224,6.308,6.308,0,0,0-.831.813L-152.6-7a8.725,8.725,0,0,1,1.345-1.2,2.143,2.143,0,0,1,1.213-.356,1.1,1.1,0,0,1,.875.365,1.391,1.391,0,0,1,.321.954,3.025,3.025,0,0,1-.211,1.037l.105.035a8.131,8.131,0,0,1,1.639-1.8,2.642,2.642,0,0,1,1.6-.584,1.636,1.636,0,0,1,1.257.47,1.837,1.837,0,0,1,.439,1.305,7.017,7.017,0,0,1-.255,1.573l-.571,2.3a6.607,6.607,0,0,0-.237,1.354.886.886,0,0,0,.114.51.414.414,0,0,0,.36.158.978.978,0,0,0,.563-.215,6.176,6.176,0,0,0,.844-.822l.5.492a7.951,7.951,0,0,1-1.318,1.182,2.266,2.266,0,0,1-1.283.374,1.133,1.133,0,0,1-.914-.409,1.565,1.565,0,0,1-.343-1.042,7.271,7.271,0,0,1,.29-1.679l.387-1.521q.211-.826.277-1.222a4.081,4.081,0,0,0,.066-.642,1.474,1.474,0,0,0-.2-.875.772.772,0,0,0-.659-.268,1.424,1.424,0,0,0-.8.294,4.535,4.535,0,0,0-.905.888,6.967,6.967,0,0,0-.769,1.151,5.738,5.738,0,0,0-.475,1.375L-150.17,0h-1.521Zm12.894-6.275-.4,1.705h-1.556l.4-1.705Zm-2.83,5.924a6.492,6.492,0,0,0,.2-1.318.634.634,0,0,0-.189-.536,1.426,1.426,0,0,0-.743-.158l.1-.466,2.145-.079h.519l-1.266,5.643a6.516,6.516,0,0,0-.193,1.3.886.886,0,0,0,.114.51.414.414,0,0,0,.36.158.978.978,0,0,0,.563-.215,6.176,6.176,0,0,0,.844-.822l.5.492a7.669,7.669,0,0,1-1.4,1.23,2.276,2.276,0,0,1-1.2.325,1.123,1.123,0,0,1-.914-.417,1.628,1.628,0,0,1-.343-1.068A7.7,7.7,0,0,1-141-3.05Zm9.721,3.683a7.75,7.75,0,0,1-1.6,1.8,2.61,2.61,0,0,1-1.6.571,1.746,1.746,0,0,1-1.5-.729,3.426,3.426,0,0,1-.532-2.048,7.34,7.34,0,0,1,.593-2.9,5.373,5.373,0,0,1,1.63-2.2,3.68,3.68,0,0,1,2.312-.8,4.189,4.189,0,0,1,.989.11,3.555,3.555,0,0,1,.927.382l.457-2.03q.07-.29.123-.642a4.215,4.215,0,0,0,.053-.615.689.689,0,0,0-.1-.4.542.542,0,0,0-.277-.2,2.776,2.776,0,0,0-.646-.088l.105-.457,2.206-.079h.519l-2.188,9.729a6.516,6.516,0,0,0-.193,1.3.886.886,0,0,0,.114.51.414.414,0,0,0,.36.158.978.978,0,0,0,.563-.215,6.176,6.176,0,0,0,.844-.822l.5.492a7.863,7.863,0,0,1-1.362,1.2,2.189,2.189,0,0,1-1.2.352,1.114,1.114,0,0,1-.87-.36,1.376,1.376,0,0,1-.325-.958,2.962,2.962,0,0,1,.2-1.028Zm.589-3.111a5.871,5.871,0,0,0,.132-1.2,1.434,1.434,0,0,0-.29-1,1.273,1.273,0,0,0-.967-.312,2.2,2.2,0,0,0-1.608.725,4.983,4.983,0,0,0-1.121,1.956,7.741,7.741,0,0,0-.409,2.452,2.909,2.909,0,0,0,.25,1.367.882.882,0,0,0,.839.453,1.417,1.417,0,0,0,.554-.119,2.234,2.234,0,0,0,.584-.382,4.561,4.561,0,0,0,.6-.642q.294-.378.541-.76a5.422,5.422,0,0,0,.457-.905,7.248,7.248,0,0,0,.36-1.261Zm11.241-2.619.809-.58.563.141-1.292,5.572a6.189,6.189,0,0,0-.193,1.3.886.886,0,0,0,.114.51.414.414,0,0,0,.36.158.978.978,0,0,0,.563-.215,6.176,6.176,0,0,0,.844-.822l.5.492a7.649,7.649,0,0,1-1.349,1.2,2.205,2.205,0,0,1-1.208.356,1.114,1.114,0,0,1-.87-.36,1.376,1.376,0,0,1-.325-.958,2.962,2.962,0,0,1,.2-1.028l-.114-.035a7.75,7.75,0,0,1-1.6,1.8,2.61,2.61,0,0,1-1.6.571,1.746,1.746,0,0,1-1.5-.729,3.426,3.426,0,0,1-.532-2.048,7.34,7.34,0,0,1,.593-2.9,5.373,5.373,0,0,1,1.63-2.2,3.68,3.68,0,0,1,2.312-.8,4.285,4.285,0,0,1,1.068.127A3.733,3.733,0,0,1-118.793-7.972Zm-.773,2.619a5.547,5.547,0,0,0,.105-.624q.026-.264.026-.571a1.437,1.437,0,0,0-.29-.993,1.289,1.289,0,0,0-.984-.316,2.233,2.233,0,0,0-1.626.729,4.924,4.924,0,0,0-1.125,1.956,7.777,7.777,0,0,0-.4,2.448,2.909,2.909,0,0,0,.25,1.367.882.882,0,0,0,.839.453,1.7,1.7,0,0,0,1.138-.5,6.972,6.972,0,0,0,1.151-1.428,6.229,6.229,0,0,0,.839-2.14Zm9.4,3.111a7.75,7.75,0,0,1-1.6,1.8,2.61,2.61,0,0,1-1.6.571,1.746,1.746,0,0,1-1.5-.729,3.426,3.426,0,0,1-.532-2.048,7.34,7.34,0,0,1,.593-2.9,5.373,5.373,0,0,1,1.63-2.2,3.68,3.68,0,0,1,2.312-.8,4.189,4.189,0,0,1,.989.11,3.555,3.555,0,0,1,.927.382l.457-2.03q.07-.29.123-.642a4.215,4.215,0,0,0,.053-.615.689.689,0,0,0-.1-.4.542.542,0,0,0-.277-.2,2.776,2.776,0,0,0-.646-.088l.105-.457,2.206-.079h.519l-2.188,9.729a6.516,6.516,0,0,0-.193,1.3.886.886,0,0,0,.114.51.414.414,0,0,0,.36.158.978.978,0,0,0,.563-.215A6.176,6.176,0,0,0-107-1.907l.5.492a7.863,7.863,0,0,1-1.362,1.2,2.189,2.189,0,0,1-1.2.352,1.114,1.114,0,0,1-.87-.36,1.376,1.376,0,0,1-.325-.958,2.962,2.962,0,0,1,.2-1.028Zm.589-3.111a5.871,5.871,0,0,0,.132-1.2,1.434,1.434,0,0,0-.29-1,1.273,1.273,0,0,0-.967-.312,2.2,2.2,0,0,0-1.608.725,4.983,4.983,0,0,0-1.121,1.956,7.741,7.741,0,0,0-.409,2.452,2.909,2.909,0,0,0,.25,1.367.882.882,0,0,0,.839.453,1.417,1.417,0,0,0,.554-.119,2.234,2.234,0,0,0,.584-.382,4.561,4.561,0,0,0,.6-.642q.294-.378.541-.76a5.422,5.422,0,0,0,.457-.905,7.248,7.248,0,0,0,.36-1.261Zm11.048,3.6a6.681,6.681,0,0,1-1.727,1.415,4.2,4.2,0,0,1-2.035.475,2.515,2.515,0,0,1-1.973-.778,3.127,3.127,0,0,1-.7-2.167,6.746,6.746,0,0,1,.338-2.017A5.894,5.894,0,0,1-103.6-6.754a4.786,4.786,0,0,1,1.644-1.327,4.567,4.567,0,0,1,2.039-.47,2.5,2.5,0,0,1,1.6.431,1.629,1.629,0,0,1,.532,1.345,2.4,2.4,0,0,1-1.4,2.241,9.106,9.106,0,0,1-4.162.747,5.828,5.828,0,0,0-.105,1.143,2.032,2.032,0,0,0,.36,1.34,1.48,1.48,0,0,0,1.178.417,3.044,3.044,0,0,0,1.463-.352A6.114,6.114,0,0,0-99.07-2.32ZM-103.2-4.535a9.416,9.416,0,0,0,2.127-.224,2.846,2.846,0,0,0,1.362-.686,1.707,1.707,0,0,0,.475-1.27,1.281,1.281,0,0,0-.25-.839.908.908,0,0,0-.743-.3,2.345,2.345,0,0,0-1.709.9A5.972,5.972,0,0,0-103.2-4.535Zm12.876-1.731a1.923,1.923,0,0,0-.514-1.187,1.833,1.833,0,0,0-1.314-.4,1.708,1.708,0,0,0-1.125.356,1.155,1.155,0,0,0-.431.936,1.336,1.336,0,0,0,.11.558,1.69,1.69,0,0,0,.444.532,7.729,7.729,0,0,0,1.037.712,7.428,7.428,0,0,1,.888.611A2.946,2.946,0,0,1-90.7-3.6a1.909,1.909,0,0,1,.281.576,2.664,2.664,0,0,1,.088.734,2.174,2.174,0,0,1-.417,1.34,2.476,2.476,0,0,1-1.134.831,4.562,4.562,0,0,1-1.63.272A9.266,9.266,0,0,1-94.948.04a11.435,11.435,0,0,1-1.564-.374l.422-1.916h.686a1.82,1.82,0,0,0,.475,1.274,1.937,1.937,0,0,0,1.4.431,2.047,2.047,0,0,0,1.305-.374,1.274,1.274,0,0,0,.47-1.059,1.614,1.614,0,0,0-.132-.681,1.692,1.692,0,0,0-.431-.549,7.072,7.072,0,0,0-.949-.659,7.706,7.706,0,0,1-1.068-.747,2.355,2.355,0,0,1-.576-.725,2.008,2.008,0,0,1-.193-.9,2.04,2.04,0,0,1,.374-1.217,2.359,2.359,0,0,1,1.068-.8,4.287,4.287,0,0,1,1.617-.281,10.517,10.517,0,0,1,1.49.1,6.954,6.954,0,0,1,1.34.334l-.4,1.846Zm13.649-1.705.809-.58.563.141L-76.6-2.839a6.189,6.189,0,0,0-.193,1.3.886.886,0,0,0,.114.51.414.414,0,0,0,.36.158.978.978,0,0,0,.563-.215,6.176,6.176,0,0,0,.844-.822l.5.492a7.649,7.649,0,0,1-1.349,1.2,2.205,2.205,0,0,1-1.208.356,1.114,1.114,0,0,1-.87-.36,1.376,1.376,0,0,1-.325-.958,2.962,2.962,0,0,1,.2-1.028l-.114-.035a7.75,7.75,0,0,1-1.6,1.8,2.61,2.61,0,0,1-1.6.571,1.746,1.746,0,0,1-1.5-.729A3.426,3.426,0,0,1-83.3-2.646a7.34,7.34,0,0,1,.593-2.9,5.373,5.373,0,0,1,1.63-2.2,3.68,3.68,0,0,1,2.312-.8,4.285,4.285,0,0,1,1.068.127A3.733,3.733,0,0,1-76.676-7.972Zm-.773,2.619a5.547,5.547,0,0,0,.105-.624q.026-.264.026-.571a1.437,1.437,0,0,0-.29-.993,1.289,1.289,0,0,0-.984-.316,2.233,2.233,0,0,0-1.626.729,4.924,4.924,0,0,0-1.125,1.956,7.777,7.777,0,0,0-.4,2.448,2.909,2.909,0,0,0,.25,1.367.882.882,0,0,0,.839.453,1.7,1.7,0,0,0,1.138-.5,6.972,6.972,0,0,0,1.151-1.428,6.229,6.229,0,0,0,.839-2.14Zm10.072-.193a6.217,6.217,0,0,0,.185-1.327.886.886,0,0,0-.114-.51.414.414,0,0,0-.36-.158.983.983,0,0,0-.576.224,6.308,6.308,0,0,0-.831.813l-.5-.492a8.58,8.58,0,0,1,1.34-1.191,2.154,2.154,0,0,1,1.217-.365,1.1,1.1,0,0,1,.866.36,1.387,1.387,0,0,1,.321.958,2.982,2.982,0,0,1-.2,1.037l.105.035q1.626-2.382,3.234-2.382a1.738,1.738,0,0,1,1.49.729,3.443,3.443,0,0,1,.532,2.057A7.35,7.35,0,0,1-61.255-2.9,5.434,5.434,0,0,1-62.877-.681,3.643,3.643,0,0,1-65.2.141a3.459,3.459,0,0,1-1.942-.51l-.4,1.925a5.173,5.173,0,0,0-.132,1.028.674.674,0,0,0,.2.549,1.506,1.506,0,0,0,.769.215l-.07.431H-69.5Zm.888,2.487q-.088.466-.11.712t-.022.483a1.419,1.419,0,0,0,.294,1,1.357,1.357,0,0,0,1.015.312,1.935,1.935,0,0,0,.826-.176,2.562,2.562,0,0,0,.716-.51,3.751,3.751,0,0,0,.611-.809,6.354,6.354,0,0,0,.488-1.1,8.019,8.019,0,0,0,.325-1.292,7.636,7.636,0,0,0,.11-1.244,2.847,2.847,0,0,0-.259-1.375.878.878,0,0,0-.822-.453,1.532,1.532,0,0,0-.883.3,4.687,4.687,0,0,0-.954.971,6.455,6.455,0,0,0-.809,1.318,7.012,7.012,0,0,0-.457,1.494Zm10.644-3.226A7.324,7.324,0,0,1-54.189-8a2.829,2.829,0,0,1,1.613-.545,5,5,0,0,1,1.072.1l-.422,1.969h-.905a2.034,2.034,0,0,0-.149-.571.633.633,0,0,0-.229-.281.641.641,0,0,0-.334-.079,1.2,1.2,0,0,0-.69.272,4.722,4.722,0,0,0-.839.853,6.756,6.756,0,0,0-.743,1.116,5.713,5.713,0,0,0-.461,1.362L-57.111,0h-1.521l1.274-5.572A8.229,8.229,0,0,0-57.2-6.39a4.147,4.147,0,0,0,.035-.483.886.886,0,0,0-.114-.51.414.414,0,0,0-.36-.158.983.983,0,0,0-.576.224,6.308,6.308,0,0,0-.831.813l-.5-.492a8.449,8.449,0,0,1,1.354-1.2,2.156,2.156,0,0,1,1.2-.356,1.1,1.1,0,0,1,.875.365,1.391,1.391,0,0,1,.321.954,2.675,2.675,0,0,1-.167.905Zm8.49,6.434a2.829,2.829,0,0,1-2.114-.765,3.005,3.005,0,0,1-.751-2.2,7.411,7.411,0,0,1,.211-1.626,6.088,6.088,0,0,1,.914-2.18,4.406,4.406,0,0,1,1.582-1.428,4.355,4.355,0,0,1,2.065-.5,2.836,2.836,0,0,1,2.145.769,3.054,3.054,0,0,1,.738,2.2,7.448,7.448,0,0,1-.356,2.18A5.971,5.971,0,0,1-43.9-1.441,4.014,4.014,0,0,1-45.378-.25,4.647,4.647,0,0,1-47.355.149Zm-1.327-2.584a2.142,2.142,0,0,0,.4,1.428,1.513,1.513,0,0,0,1.208.461,1.981,1.981,0,0,0,1.529-.773A5.561,5.561,0,0,0-44.49-3.485,9.31,9.31,0,0,0-44.1-5.933a2.317,2.317,0,0,0-.369-1.428,1.362,1.362,0,0,0-1.151-.479,2.077,2.077,0,0,0-1.6.765,5.416,5.416,0,0,0-1.072,2.188A9.48,9.48,0,0,0-48.683-2.435Zm13.236.193a7.75,7.75,0,0,1-1.6,1.8,2.61,2.61,0,0,1-1.6.571,1.746,1.746,0,0,1-1.5-.729,3.426,3.426,0,0,1-.532-2.048,7.34,7.34,0,0,1,.593-2.9,5.373,5.373,0,0,1,1.63-2.2,3.68,3.68,0,0,1,2.312-.8,4.189,4.189,0,0,1,.989.11,3.555,3.555,0,0,1,.927.382l.457-2.03q.07-.29.123-.642a4.215,4.215,0,0,0,.053-.615.689.689,0,0,0-.1-.4.542.542,0,0,0-.277-.2,2.776,2.776,0,0,0-.646-.088l.105-.457,2.206-.079h.519L-33.97-2.839a6.516,6.516,0,0,0-.193,1.3.886.886,0,0,0,.114.51.414.414,0,0,0,.36.158.978.978,0,0,0,.563-.215,6.176,6.176,0,0,0,.844-.822l.5.492a7.863,7.863,0,0,1-1.362,1.2,2.189,2.189,0,0,1-1.2.352,1.114,1.114,0,0,1-.87-.36,1.376,1.376,0,0,1-.325-.958,2.962,2.962,0,0,1,.2-1.028Zm.589-3.111a5.871,5.871,0,0,0,.132-1.2,1.434,1.434,0,0,0-.29-1,1.273,1.273,0,0,0-.967-.312,2.2,2.2,0,0,0-1.608.725,4.983,4.983,0,0,0-1.121,1.956,7.741,7.741,0,0,0-.409,2.452,2.909,2.909,0,0,0,.25,1.367.882.882,0,0,0,.839.453,1.417,1.417,0,0,0,.554-.119,2.234,2.234,0,0,0,.584-.382,4.561,4.561,0,0,0,.6-.642q.294-.378.541-.76a5.422,5.422,0,0,0,.457-.905,7.248,7.248,0,0,0,.36-1.261Zm11.619,2.514a6.3,6.3,0,0,0-.193,1.3.886.886,0,0,0,.114.51.414.414,0,0,0,.36.158.978.978,0,0,0,.563-.215,6.176,6.176,0,0,0,.844-.822l.5.492a7.454,7.454,0,0,1-1.362,1.2,2.218,2.218,0,0,1-1.2.352,1.114,1.114,0,0,1-.87-.36,1.376,1.376,0,0,1-.325-.958,2.973,2.973,0,0,1,.211-1.037L-24.7-2.25a8.117,8.117,0,0,1-1.648,1.8,2.643,2.643,0,0,1-1.6.58A1.636,1.636,0,0,1-29.2-.338a1.837,1.837,0,0,1-.439-1.305,7.017,7.017,0,0,1,.255-1.573l.571-2.3a6.607,6.607,0,0,0,.237-1.354.886.886,0,0,0-.114-.51.414.414,0,0,0-.36-.158.983.983,0,0,0-.576.224,6.308,6.308,0,0,0-.831.813l-.5-.492A11.423,11.423,0,0,1-29.83-8.033a2.694,2.694,0,0,1,.725-.4,2.4,2.4,0,0,1,.778-.119,1.11,1.11,0,0,1,.888.378,1.51,1.51,0,0,1,.325,1.02,7.059,7.059,0,0,1-.272,1.731L-27.773-3.9q-.149.58-.215.905t-.1.563a3.177,3.177,0,0,0-.031.4,1.474,1.474,0,0,0,.2.875.772.772,0,0,0,.659.268,1.424,1.424,0,0,0,.8-.294,4.535,4.535,0,0,0,.905-.888,6.967,6.967,0,0,0,.769-1.151,5.738,5.738,0,0,0,.475-1.375l.835-3.806h1.521Zm9.018-3.454a3.961,3.961,0,0,0-.11-.967.835.835,0,0,0-.3-.448.985.985,0,0,0-.584-.149,2.2,2.2,0,0,0-1.6.708,5.188,5.188,0,0,0-1.156,2,7.615,7.615,0,0,0-.448,2.492,2.1,2.1,0,0,0,.352,1.332,1.275,1.275,0,0,0,1.055.435,2.969,2.969,0,0,0,1.384-.3,5.183,5.183,0,0,0,1.235-.954l.536.536A5.833,5.833,0,0,1-15.517-.272a3.966,3.966,0,0,1-1.806.422,2.428,2.428,0,0,1-1.934-.756,3.249,3.249,0,0,1-.659-2.2,6.971,6.971,0,0,1,.352-2.065,6.046,6.046,0,0,1,1.028-1.978,4.368,4.368,0,0,1,1.582-1.274,4.522,4.522,0,0,1,1.934-.422,8.307,8.307,0,0,1,2.153.264L-13.3-6.293Zm6.627-5.555L-8-10.143H-9.554l.4-1.705Zm-2.83,5.924a6.492,6.492,0,0,0,.2-1.318.634.634,0,0,0-.189-.536,1.426,1.426,0,0,0-.743-.158l.1-.466,2.145-.079h.519L-9.659-2.839a6.516,6.516,0,0,0-.193,1.3.886.886,0,0,0,.114.51.414.414,0,0,0,.36.158.978.978,0,0,0,.563-.215,6.176,6.176,0,0,0,.844-.822l.5.492a7.669,7.669,0,0,1-1.4,1.23,2.276,2.276,0,0,1-1.2.325,1.123,1.123,0,0,1-.914-.417,1.628,1.628,0,0,1-.343-1.068,7.7,7.7,0,0,1,.246-1.705Zm7.471-.36A7.324,7.324,0,0,1-1.3-8,2.829,2.829,0,0,1,.316-8.543a5,5,0,0,1,1.072.1L.967-6.478H.062a2.034,2.034,0,0,0-.149-.571A.633.633,0,0,0-.316-7.33.641.641,0,0,0-.65-7.409a1.2,1.2,0,0,0-.69.272,4.721,4.721,0,0,0-.839.853,6.756,6.756,0,0,0-.743,1.116,5.713,5.713,0,0,0-.461,1.362L-4.219,0H-5.739l1.274-5.572a8.229,8.229,0,0,0,.158-.817,4.147,4.147,0,0,0,.035-.483.886.886,0,0,0-.114-.51.414.414,0,0,0-.36-.158.983.983,0,0,0-.576.224,6.308,6.308,0,0,0-.831.813L-6.653-7A8.449,8.449,0,0,1-5.3-8.2a2.156,2.156,0,0,1,1.2-.356,1.1,1.1,0,0,1,.875.365,1.391,1.391,0,0,1,.321.954,2.675,2.675,0,0,1-.167.905Zm17.279.659-2.408.492L13.588-3l-.967.668L11.25-4.658,9.861-2.329,8.895-3l1.67-2.136L8.139-5.625l.4-1.1,2.3.87-.2-2.672h1.213l-.2,2.672,2.312-.87Zm13.052-.668a3.961,3.961,0,0,0-.11-.967.835.835,0,0,0-.3-.448.985.985,0,0,0-.584-.149,2.2,2.2,0,0,0-1.6.708,5.188,5.188,0,0,0-1.156,2,7.615,7.615,0,0,0-.448,2.492,2.1,2.1,0,0,0,.352,1.332,1.275,1.275,0,0,0,1.055.435,2.969,2.969,0,0,0,1.384-.3,5.183,5.183,0,0,0,1.235-.954l.536.536A5.833,5.833,0,0,1,26.082-.272a3.966,3.966,0,0,1-1.806.422,2.428,2.428,0,0,1-1.934-.756,3.249,3.249,0,0,1-.659-2.2,6.971,6.971,0,0,1,.352-2.065,6.046,6.046,0,0,1,1.028-1.978,4.368,4.368,0,0,1,1.582-1.274,4.522,4.522,0,0,1,1.934-.422,8.307,8.307,0,0,1,2.153.264L28.3-6.293ZM32.871.149a2.829,2.829,0,0,1-2.114-.765,3.005,3.005,0,0,1-.751-2.2,7.411,7.411,0,0,1,.211-1.626,6.088,6.088,0,0,1,.914-2.18,4.406,4.406,0,0,1,1.582-1.428,4.355,4.355,0,0,1,2.065-.5,2.836,2.836,0,0,1,2.145.769,3.054,3.054,0,0,1,.738,2.2,7.448,7.448,0,0,1-.356,2.18,5.971,5.971,0,0,1-.976,1.951A4.014,4.014,0,0,1,34.849-.25,4.647,4.647,0,0,1,32.871.149ZM31.544-2.435a2.142,2.142,0,0,0,.4,1.428,1.513,1.513,0,0,0,1.208.461,1.981,1.981,0,0,0,1.529-.773,5.561,5.561,0,0,0,1.055-2.167,9.31,9.31,0,0,0,.387-2.448,2.317,2.317,0,0,0-.369-1.428A1.362,1.362,0,0,0,34.6-7.84a2.077,2.077,0,0,0-1.6.765,5.416,5.416,0,0,0-1.072,2.188A9.48,9.48,0,0,0,31.544-2.435ZM45.255-6.267a1.923,1.923,0,0,0-.514-1.187,1.833,1.833,0,0,0-1.314-.4A1.708,1.708,0,0,0,42.3-7.5a1.155,1.155,0,0,0-.431.936,1.336,1.336,0,0,0,.11.558,1.69,1.69,0,0,0,.444.532,7.729,7.729,0,0,0,1.037.712,7.428,7.428,0,0,1,.888.611,2.946,2.946,0,0,1,.527.549,1.909,1.909,0,0,1,.281.576,2.664,2.664,0,0,1,.088.734,2.174,2.174,0,0,1-.417,1.34,2.476,2.476,0,0,1-1.134.831,4.562,4.562,0,0,1-1.63.272A9.266,9.266,0,0,1,40.632.04a11.435,11.435,0,0,1-1.564-.374l.422-1.916h.686a1.82,1.82,0,0,0,.475,1.274,1.937,1.937,0,0,0,1.4.431,2.047,2.047,0,0,0,1.305-.374,1.274,1.274,0,0,0,.47-1.059,1.614,1.614,0,0,0-.132-.681,1.692,1.692,0,0,0-.431-.549,7.072,7.072,0,0,0-.949-.659,7.706,7.706,0,0,1-1.068-.747,2.355,2.355,0,0,1-.576-.725,2.008,2.008,0,0,1-.193-.9,2.04,2.04,0,0,1,.374-1.217,2.359,2.359,0,0,1,1.068-.8,4.287,4.287,0,0,1,1.617-.281,10.517,10.517,0,0,1,1.49.1,6.954,6.954,0,0,1,1.34.334l-.4,1.846Zm7.8,4.605A6.352,6.352,0,0,1,51.579-.3,2.765,2.765,0,0,1,50.1.141a1.631,1.631,0,0,1-1.837-1.854,5.538,5.538,0,0,1,.149-1.239l1.037-4.562H47.971l.132-.606a3.548,3.548,0,0,0,.787-.079,1.437,1.437,0,0,0,.448-.193,1.235,1.235,0,0,0,.33-.352,3.284,3.284,0,0,0,.29-.584q.141-.356.422-1.244h1.213L51.108-8.4H53.78l-.193.888H50.915L50.133-4.1q-.229.993-.29,1.428a5.241,5.241,0,0,0-.062.7q0,1.09.905,1.09a1.483,1.483,0,0,0,.822-.294,5.516,5.516,0,0,0,1.033-1.006ZM57.876.149a2.829,2.829,0,0,1-2.114-.765,3.005,3.005,0,0,1-.751-2.2,7.411,7.411,0,0,1,.211-1.626,6.088,6.088,0,0,1,.914-2.18,4.406,4.406,0,0,1,1.582-1.428,4.355,4.355,0,0,1,2.065-.5,2.836,2.836,0,0,1,2.145.769,3.054,3.054,0,0,1,.738,2.2,7.448,7.448,0,0,1-.356,2.18,5.971,5.971,0,0,1-.976,1.951A4.014,4.014,0,0,1,59.854-.25,4.647,4.647,0,0,1,57.876.149ZM56.549-2.435a2.142,2.142,0,0,0,.4,1.428,1.513,1.513,0,0,0,1.208.461,1.981,1.981,0,0,0,1.529-.773,5.561,5.561,0,0,0,1.055-2.167,9.31,9.31,0,0,0,.387-2.448,2.317,2.317,0,0,0-.369-1.428,1.362,1.362,0,0,0-1.151-.479,2.077,2.077,0,0,0-1.6.765A5.416,5.416,0,0,0,56.94-4.887,9.48,9.48,0,0,0,56.549-2.435Zm19.424-.4a6.3,6.3,0,0,0-.193,1.3.886.886,0,0,0,.114.51.414.414,0,0,0,.36.158.978.978,0,0,0,.563-.215,6.176,6.176,0,0,0,.844-.822l.5.492A7.454,7.454,0,0,1,76.8-.211a2.218,2.218,0,0,1-1.2.352,1.114,1.114,0,0,1-.87-.36,1.376,1.376,0,0,1-.325-.958,2.973,2.973,0,0,1,.211-1.037l-.105-.035a8.117,8.117,0,0,1-1.648,1.8,2.643,2.643,0,0,1-1.6.58,1.636,1.636,0,0,1-1.257-.47,1.837,1.837,0,0,1-.439-1.305,7.017,7.017,0,0,1,.255-1.573l.571-2.3a6.607,6.607,0,0,0,.237-1.354.886.886,0,0,0-.114-.51.414.414,0,0,0-.36-.158.983.983,0,0,0-.576.224,6.308,6.308,0,0,0-.831.813L68.256-7a11.423,11.423,0,0,1,1.125-1.037,2.694,2.694,0,0,1,.725-.4,2.4,2.4,0,0,1,.778-.119,1.11,1.11,0,0,1,.888.378,1.51,1.51,0,0,1,.325,1.02,7.059,7.059,0,0,1-.272,1.731L71.438-3.9q-.149.58-.215.905t-.1.563a3.177,3.177,0,0,0-.031.4,1.474,1.474,0,0,0,.2.875.772.772,0,0,0,.659.268,1.424,1.424,0,0,0,.8-.294,4.535,4.535,0,0,0,.905-.888,6.967,6.967,0,0,0,.769-1.151A5.738,5.738,0,0,0,74.9-4.605l.835-3.806h1.521Zm4.8-2.733a6.3,6.3,0,0,0,.193-1.3.886.886,0,0,0-.114-.51.414.414,0,0,0-.36-.158.983.983,0,0,0-.576.224,6.308,6.308,0,0,0-.831.813L78.583-7a8.725,8.725,0,0,1,1.345-1.2,2.143,2.143,0,0,1,1.213-.356,1.1,1.1,0,0,1,.875.365,1.391,1.391,0,0,1,.321.954A3.025,3.025,0,0,1,82.125-6.2l.105.035a8.131,8.131,0,0,1,1.639-1.8,2.642,2.642,0,0,1,1.6-.584,1.636,1.636,0,0,1,1.257.47,1.837,1.837,0,0,1,.439,1.305,7.017,7.017,0,0,1-.255,1.573l-.571,2.3a6.607,6.607,0,0,0-.237,1.354.886.886,0,0,0,.114.51.414.414,0,0,0,.36.158.978.978,0,0,0,.563-.215,6.176,6.176,0,0,0,.844-.822l.5.492A7.951,7.951,0,0,1,87.17-.233a2.266,2.266,0,0,1-1.283.374,1.133,1.133,0,0,1-.914-.409A1.565,1.565,0,0,1,84.63-1.31a7.271,7.271,0,0,1,.29-1.679l.387-1.521q.211-.826.277-1.222a4.081,4.081,0,0,0,.066-.642,1.474,1.474,0,0,0-.2-.875.772.772,0,0,0-.659-.268,1.424,1.424,0,0,0-.8.294,4.535,4.535,0,0,0-.905.888,6.967,6.967,0,0,0-.769,1.151,5.738,5.738,0,0,0-.475,1.375L81.009,0H79.488Zm12.894-6.275-.4,1.705H91.705l.4-1.705Zm-2.83,5.924a6.492,6.492,0,0,0,.2-1.318.634.634,0,0,0-.189-.536,1.426,1.426,0,0,0-.743-.158l.1-.466,2.145-.079h.519L91.6-2.839a6.516,6.516,0,0,0-.193,1.3.886.886,0,0,0,.114.51.414.414,0,0,0,.36.158.978.978,0,0,0,.563-.215,6.176,6.176,0,0,0,.844-.822l.5.492a7.669,7.669,0,0,1-1.4,1.23,2.276,2.276,0,0,1-1.2.325,1.123,1.123,0,0,1-.914-.417,1.628,1.628,0,0,1-.343-1.068,7.7,7.7,0,0,1,.246-1.705Zm9.677,4.263A6.352,6.352,0,0,1,99.04-.3a2.765,2.765,0,0,1-1.481.439,1.631,1.631,0,0,1-1.837-1.854,5.538,5.538,0,0,1,.149-1.239l1.037-4.562H95.432l.132-.606A3.548,3.548,0,0,0,96.35-8.2a1.437,1.437,0,0,0,.448-.193,1.235,1.235,0,0,0,.33-.352,3.284,3.284,0,0,0,.29-.584q.141-.356.422-1.244h1.213L98.569-8.4h2.672l-.193.888H98.376L97.594-4.1q-.229.993-.29,1.428a5.241,5.241,0,0,0-.062.7q0,1.09.905,1.09a1.483,1.483,0,0,0,.822-.294A5.516,5.516,0,0,0,100-2.188Zm8.543-6.311.809-.58.563.141-1.292,5.572a6.189,6.189,0,0,0-.193,1.3.886.886,0,0,0,.114.51.414.414,0,0,0,.36.158.978.978,0,0,0,.563-.215,6.176,6.176,0,0,0,.844-.822l.5.492a7.649,7.649,0,0,1-1.349,1.2,2.205,2.205,0,0,1-1.208.356,1.114,1.114,0,0,1-.87-.36,1.376,1.376,0,0,1-.325-.958,2.962,2.962,0,0,1,.2-1.028l-.114-.035a7.75,7.75,0,0,1-1.6,1.8,2.61,2.61,0,0,1-1.6.571,1.746,1.746,0,0,1-1.5-.729,3.426,3.426,0,0,1-.532-2.048,7.34,7.34,0,0,1,.593-2.9,5.373,5.373,0,0,1,1.63-2.2,3.68,3.68,0,0,1,2.312-.8,4.285,4.285,0,0,1,1.068.127A3.733,3.733,0,0,1,109.055-7.972Zm-.773,2.619a5.547,5.547,0,0,0,.105-.624q.026-.264.026-.571a1.437,1.437,0,0,0-.29-.993,1.289,1.289,0,0,0-.984-.316,2.233,2.233,0,0,0-1.626.729,4.924,4.924,0,0,0-1.125,1.956,7.777,7.777,0,0,0-.4,2.448,2.909,2.909,0,0,0,.25,1.367.882.882,0,0,0,.839.453,1.7,1.7,0,0,0,1.138-.5,6.972,6.972,0,0,0,1.151-1.428,6.229,6.229,0,0,0,.839-2.14Zm7.154-.932A7.324,7.324,0,0,1,117.092-8a2.829,2.829,0,0,1,1.613-.545,5,5,0,0,1,1.072.1l-.422,1.969h-.905a2.034,2.034,0,0,0-.149-.571.633.633,0,0,0-.229-.281.641.641,0,0,0-.334-.079,1.2,1.2,0,0,0-.69.272,4.722,4.722,0,0,0-.839.853,6.756,6.756,0,0,0-.743,1.116A5.713,5.713,0,0,0,115-3.806L114.17,0h-1.521l1.274-5.572a8.229,8.229,0,0,0,.158-.817,4.147,4.147,0,0,0,.035-.483.886.886,0,0,0-.114-.51.414.414,0,0,0-.36-.158.983.983,0,0,0-.576.224,6.308,6.308,0,0,0-.831.813l-.5-.492a8.449,8.449,0,0,1,1.354-1.2,2.156,2.156,0,0,1,1.2-.356,1.1,1.1,0,0,1,.875.365,1.391,1.391,0,0,1,.321.954,2.675,2.675,0,0,1-.167.905Zm9.624-5.563-.4,1.705H123.1l.4-1.705Zm-2.83,5.924a6.492,6.492,0,0,0,.2-1.318.634.634,0,0,0-.189-.536,1.426,1.426,0,0,0-.743-.158l.1-.466,2.145-.079h.519l-1.266,5.643a6.516,6.516,0,0,0-.193,1.3.886.886,0,0,0,.114.51.414.414,0,0,0,.36.158.978.978,0,0,0,.563-.215,6.176,6.176,0,0,0,.844-.822l.5.492a7.669,7.669,0,0,1-1.4,1.23,2.276,2.276,0,0,1-1.2.325,1.123,1.123,0,0,1-.914-.417,1.628,1.628,0,0,1-.343-1.068,7.7,7.7,0,0,1,.246-1.705Zm7.4,6.073a2.829,2.829,0,0,1-2.114-.765,3.005,3.005,0,0,1-.751-2.2,7.411,7.411,0,0,1,.211-1.626,6.088,6.088,0,0,1,.914-2.18,4.406,4.406,0,0,1,1.582-1.428,4.355,4.355,0,0,1,2.065-.5,2.836,2.836,0,0,1,2.145.769,3.054,3.054,0,0,1,.738,2.2,7.448,7.448,0,0,1-.356,2.18,5.971,5.971,0,0,1-.976,1.951A4.014,4.014,0,0,1,131.607-.25,4.647,4.647,0,0,1,129.63.149ZM128.3-2.435a2.142,2.142,0,0,0,.4,1.428,1.513,1.513,0,0,0,1.208.461,1.981,1.981,0,0,0,1.529-.773A5.561,5.561,0,0,0,132.5-3.485a9.31,9.31,0,0,0,.387-2.448,2.317,2.317,0,0,0-.369-1.428,1.362,1.362,0,0,0-1.151-.479,2.077,2.077,0,0,0-1.6.765,5.416,5.416,0,0,0-1.072,2.188A9.48,9.48,0,0,0,128.3-2.435Zm17.648.193a7.75,7.75,0,0,1-1.6,1.8,2.61,2.61,0,0,1-1.6.571,1.746,1.746,0,0,1-1.5-.729,3.426,3.426,0,0,1-.532-2.048,7.34,7.34,0,0,1,.593-2.9,5.373,5.373,0,0,1,1.63-2.2,3.68,3.68,0,0,1,2.312-.8,4.189,4.189,0,0,1,.989.11,3.555,3.555,0,0,1,.927.382l.457-2.03q.07-.29.123-.642a4.215,4.215,0,0,0,.053-.615.689.689,0,0,0-.1-.4.542.542,0,0,0-.277-.2,2.776,2.776,0,0,0-.646-.088l.105-.457,2.206-.079h.519l-2.188,9.729a6.516,6.516,0,0,0-.193,1.3.886.886,0,0,0,.114.51.414.414,0,0,0,.36.158.978.978,0,0,0,.563-.215,6.176,6.176,0,0,0,.844-.822l.5.492a7.863,7.863,0,0,1-1.362,1.2,2.189,2.189,0,0,1-1.2.352,1.114,1.114,0,0,1-.87-.36,1.376,1.376,0,0,1-.325-.958,2.962,2.962,0,0,1,.2-1.028Zm.589-3.111a5.871,5.871,0,0,0,.132-1.2,1.434,1.434,0,0,0-.29-1,1.273,1.273,0,0,0-.967-.312,2.2,2.2,0,0,0-1.608.725,4.983,4.983,0,0,0-1.121,1.956,7.741,7.741,0,0,0-.409,2.452,2.909,2.909,0,0,0,.25,1.367.882.882,0,0,0,.839.453,1.417,1.417,0,0,0,.554-.119,2.234,2.234,0,0,0,.584-.382,4.561,4.561,0,0,0,.6-.642q.294-.378.541-.76a5.422,5.422,0,0,0,.457-.905,7.248,7.248,0,0,0,.36-1.261Zm11.048,3.6a6.681,6.681,0,0,1-1.727,1.415,4.2,4.2,0,0,1-2.035.475,2.515,2.515,0,0,1-1.973-.778,3.127,3.127,0,0,1-.7-2.167,6.746,6.746,0,0,1,.338-2.017,5.894,5.894,0,0,1,1.024-1.934,4.786,4.786,0,0,1,1.644-1.327,4.567,4.567,0,0,1,2.039-.47,2.5,2.5,0,0,1,1.6.431,1.629,1.629,0,0,1,.532,1.345,2.4,2.4,0,0,1-1.4,2.241,9.106,9.106,0,0,1-4.162.747,5.828,5.828,0,0,0-.105,1.143,2.032,2.032,0,0,0,.36,1.34,1.48,1.48,0,0,0,1.178.417,3.044,3.044,0,0,0,1.463-.352,6.114,6.114,0,0,0,1.384-1.081Zm-4.676-2.786a9.416,9.416,0,0,0,2.127-.224,2.846,2.846,0,0,0,1.362-.686,1.707,1.707,0,0,0,.475-1.27,1.281,1.281,0,0,0-.25-.839.908.908,0,0,0-.743-.3,2.345,2.345,0,0,0-1.709.9A5.972,5.972,0,0,0,152.912-4.535Zm13.693-5.555q.105-.466.149-.743a3.294,3.294,0,0,0,.044-.514.689.689,0,0,0-.1-.4.542.542,0,0,0-.277-.2,2.776,2.776,0,0,0-.646-.088l.105-.457,2.215-.079h.519l-2.162,9.729a6.633,6.633,0,0,0-.193,1.3.886.886,0,0,0,.114.51.414.414,0,0,0,.36.158.978.978,0,0,0,.563-.215,6.176,6.176,0,0,0,.844-.822l.5.492a7.666,7.666,0,0,1-1.393,1.226,2.275,2.275,0,0,1-1.208.33,1.123,1.123,0,0,1-.914-.417,1.628,1.628,0,0,1-.343-1.068,8.612,8.612,0,0,1,.246-1.705Zm10.2,2.118.809-.58.563.141-1.292,5.572a6.189,6.189,0,0,0-.193,1.3.886.886,0,0,0,.114.51.414.414,0,0,0,.36.158.978.978,0,0,0,.563-.215,6.176,6.176,0,0,0,.844-.822l.5.492a7.649,7.649,0,0,1-1.349,1.2,2.205,2.205,0,0,1-1.208.356,1.114,1.114,0,0,1-.87-.36,1.376,1.376,0,0,1-.325-.958,2.962,2.962,0,0,1,.2-1.028l-.114-.035a7.75,7.75,0,0,1-1.6,1.8,2.61,2.61,0,0,1-1.6.571,1.746,1.746,0,0,1-1.5-.729,3.426,3.426,0,0,1-.532-2.048,7.34,7.34,0,0,1,.593-2.9,5.373,5.373,0,0,1,1.63-2.2,3.68,3.68,0,0,1,2.312-.8,4.285,4.285,0,0,1,1.068.127A3.733,3.733,0,0,1,176.81-7.972Zm-.773,2.619a5.547,5.547,0,0,0,.105-.624q.026-.264.026-.571a1.437,1.437,0,0,0-.29-.993,1.289,1.289,0,0,0-.984-.316,2.233,2.233,0,0,0-1.626.729,4.924,4.924,0,0,0-1.125,1.956,7.777,7.777,0,0,0-.4,2.448,2.909,2.909,0,0,0,.25,1.367.882.882,0,0,0,.839.453,1.7,1.7,0,0,0,1.138-.5,6.972,6.972,0,0,0,1.151-1.428,6.229,6.229,0,0,0,.839-2.14ZM195.75-12h2.769l-.1.431a1.635,1.635,0,0,0-.479.158.868.868,0,0,0-.264.264,2.241,2.241,0,0,0-.237.549q-.119.374-.3,1.217l-1.5,6.82q-.114.519-.149.822a4.809,4.809,0,0,0-.035.549.686.686,0,0,0,.2.558,1.2,1.2,0,0,0,.664.2l-.1.431H192.7l.1-.431a1.2,1.2,0,0,0,.5-.171.949.949,0,0,0,.281-.33,3,3,0,0,0,.211-.514q.1-.3.29-1.173l1.169-5.3q.246-1.1.563-2.188h-.123q-.272.519-1.23,2.109l-4,6.6H189.5l-.729-5.651q-.158-1.2-.352-3.217h-.176q-.3,1.969-.668,3.647l-.9,4.061a6.618,6.618,0,0,0-.185,1.371.686.686,0,0,0,.2.558,1.2,1.2,0,0,0,.664.2l-.1.431h-3.076l.1-.431a1.2,1.2,0,0,0,.5-.171.949.949,0,0,0,.281-.33,3,3,0,0,0,.211-.514q.1-.3.29-1.173l1.494-6.768q.088-.378.141-.721a4.56,4.56,0,0,0,.053-.694.694.694,0,0,0-.207-.576,1.175,1.175,0,0,0-.655-.189l.1-.431h3.138l1,8.525ZM199.485-.826a1,1,0,0,1,.272-.716.987.987,0,0,1,.7-.3.952.952,0,0,1,.712.264.908.908,0,0,1,.272.7.95.95,0,0,1-.29.7,1.046,1.046,0,0,1-.7.286,1.006,1.006,0,0,1-.391-.057.863.863,0,0,1-.308-.189.846.846,0,0,1-.2-.3A1.032,1.032,0,0,1,199.485-.826ZM210.384-12a7.5,7.5,0,0,1,1.718.163,2.886,2.886,0,0,1,1.107.5,2.073,2.073,0,0,1,.65.857,3.122,3.122,0,0,1,.215,1.2,4.121,4.121,0,0,1-.624,2.285,3.7,3.7,0,0,1-1.692,1.424,6.492,6.492,0,0,1-2.562.457q-.9,0-1.494-.035l-.562,2.584q-.079.36-.11.554t-.053.417q-.022.224-.022.4a.864.864,0,0,0,.088.426.512.512,0,0,0,.264.224,2.334,2.334,0,0,0,.606.105l-.1.431h-3.612l.1-.431a1.2,1.2,0,0,0,.5-.171.949.949,0,0,0,.281-.33,3,3,0,0,0,.211-.514q.1-.3.29-1.173l1.494-6.768a6.872,6.872,0,0,0,.193-1.389.742.742,0,0,0-.2-.6,1.143,1.143,0,0,0-.659-.193l.1-.431Zm-1.617,6.126a5.53,5.53,0,0,0,1.718-.22,2.475,2.475,0,0,0,1.072-.681,3.261,3.261,0,0,0,.646-1.094,4.062,4.062,0,0,0,.229-1.389,1.934,1.934,0,0,0-.519-1.494,2.523,2.523,0,0,0-1.723-.475q-.545,0-1.143.026l-1.2,5.326Zm6.565,5.045a1,1,0,0,1,.272-.716.987.987,0,0,1,.7-.3.952.952,0,0,1,.712.264.908.908,0,0,1,.272.7.95.95,0,0,1-.29.7,1.046,1.046,0,0,1-.7.286,1.006,1.006,0,0,1-.391-.057.863.863,0,0,1-.308-.189.846.846,0,0,1-.2-.3A1.032,1.032,0,0,1,215.332-.826ZM-81.013,13h2.769l-.1.431a1.635,1.635,0,0,0-.479.158.868.868,0,0,0-.264.264,2.241,2.241,0,0,0-.237.549q-.119.374-.3,1.217l-1.5,6.82q-.114.519-.149.822a4.809,4.809,0,0,0-.035.549.686.686,0,0,0,.2.558,1.2,1.2,0,0,0,.664.2l-.1.431h-3.516l.1-.431a1.2,1.2,0,0,0,.5-.171.949.949,0,0,0,.281-.33,3,3,0,0,0,.211-.514q.1-.3.29-1.173l1.169-5.3q.246-1.1.563-2.188h-.123q-.272.519-1.23,2.109l-4,6.6h-.958l-.729-5.651q-.158-1.2-.352-3.217h-.176q-.3,1.969-.668,3.647l-.9,4.061a6.618,6.618,0,0,0-.185,1.371.686.686,0,0,0,.2.558,1.2,1.2,0,0,0,.664.2l-.1.431H-92.58l.1-.431a1.2,1.2,0,0,0,.5-.171.949.949,0,0,0,.281-.33,3,3,0,0,0,.211-.514q.1-.3.29-1.173l1.494-6.768q.088-.378.141-.721a4.56,4.56,0,0,0,.053-.694.694.694,0,0,0-.207-.576,1.175,1.175,0,0,0-.655-.189l.1-.431h3.138l1,8.525Zm3.735,11.171a1,1,0,0,1,.272-.716.987.987,0,0,1,.7-.3.952.952,0,0,1,.712.264.908.908,0,0,1,.272.7.95.95,0,0,1-.29.7,1.046,1.046,0,0,1-.7.286,1.006,1.006,0,0,1-.391-.057.863.863,0,0,1-.308-.189.846.846,0,0,1-.2-.3A1.032,1.032,0,0,1-77.278,24.174ZM-66.379,13a7.5,7.5,0,0,1,1.718.163,2.886,2.886,0,0,1,1.107.5,2.073,2.073,0,0,1,.65.857,3.122,3.122,0,0,1,.215,1.2,4.121,4.121,0,0,1-.624,2.285A3.7,3.7,0,0,1-65,19.437a6.492,6.492,0,0,1-2.562.457q-.9,0-1.494-.035l-.562,2.584q-.079.36-.11.554t-.053.417q-.022.224-.022.4a.864.864,0,0,0,.088.426.512.512,0,0,0,.264.224,2.334,2.334,0,0,0,.606.105l-.1.431h-3.612l.1-.431a1.2,1.2,0,0,0,.5-.171.949.949,0,0,0,.281-.33,3,3,0,0,0,.211-.514q.1-.3.29-1.173l1.494-6.768a6.872,6.872,0,0,0,.193-1.389.742.742,0,0,0-.2-.6,1.143,1.143,0,0,0-.659-.193l.1-.431ZM-68,19.129a5.53,5.53,0,0,0,1.718-.22,2.475,2.475,0,0,0,1.072-.681,3.261,3.261,0,0,0,.646-1.094,4.062,4.062,0,0,0,.229-1.389,1.934,1.934,0,0,0-.519-1.494,2.523,2.523,0,0,0-1.723-.475q-.545,0-1.143.026l-1.2,5.326Zm6.565,5.045a1,1,0,0,1,.272-.716.987.987,0,0,1,.7-.3.952.952,0,0,1,.712.264.908.908,0,0,1,.272.7.95.95,0,0,1-.29.7,1.046,1.046,0,0,1-.7.286,1.006,1.006,0,0,1-.391-.057.863.863,0,0,1-.308-.189.846.846,0,0,1-.2-.3A1.032,1.032,0,0,1-61.431,24.174Zm17.367-6.328h-7.119l.246-1.415h7.128Zm-.633,3.647h-7.119l.246-1.406h7.128Zm14.335-9.308-.141,1.38h-.123a5.015,5.015,0,0,0-1.85.3,4.614,4.614,0,0,0-1.437.87,5.489,5.489,0,0,0-1.077,1.332,8.952,8.952,0,0,0-.76,1.7,4.078,4.078,0,0,1,1.274-.879,3.608,3.608,0,0,1,1.521-.281A2.98,2.98,0,0,1-31.487,17a2.924,2.924,0,0,1,.976.945A3.729,3.729,0,0,1-30,19.261a5.367,5.367,0,0,1,.07,1.5,5.683,5.683,0,0,1-.417,1.705,4.823,4.823,0,0,1-.9,1.419,4.1,4.1,0,0,1-1.336.962,3.874,3.874,0,0,1-1.731.325,3.32,3.32,0,0,1-1.169-.229,3.159,3.159,0,0,1-.918-.567,3.34,3.34,0,0,1-.672-.826,4.42,4.42,0,0,1-.426-1.011,5.641,5.641,0,0,1-.2-1.121,5.81,5.81,0,0,1,.026-1.151l.1-.765a13.532,13.532,0,0,1,.413-1.92,10.147,10.147,0,0,1,.686-1.74,7.718,7.718,0,0,1,.98-1.485,6.035,6.035,0,0,1,1.3-1.156,6.117,6.117,0,0,1,1.639-.751,7.041,7.041,0,0,1,2-.268Zm-2.927,5.766a2.538,2.538,0,0,0-.844.123,2.939,2.939,0,0,0-.751.369,3.3,3.3,0,0,0-.633.567,3.656,3.656,0,0,0-.479.7l-.079.615a6.607,6.607,0,0,0-.035.708,4.888,4.888,0,0,0,.062.769,4.228,4.228,0,0,0,.189.747,2.318,2.318,0,0,0,.338.637,1.679,1.679,0,0,0,.527.453,1.657,1.657,0,0,0,.747.193,2.112,2.112,0,0,0,1.107-.233,2.667,2.667,0,0,0,.826-.686,3.453,3.453,0,0,0,.545-.971,4.615,4.615,0,0,0,.264-1.1,4.389,4.389,0,0,0,0-.98,2.809,2.809,0,0,0-.264-.927,1.872,1.872,0,0,0-.576-.694A1.63,1.63,0,0,0-33.289,17.951Zm8.112-.141,1.046.009a3.772,3.772,0,0,0,1.033-.141,2.823,2.823,0,0,0,.892-.426,2.418,2.418,0,0,0,.655-.712,2.478,2.478,0,0,0,.33-1,2.919,2.919,0,0,0-.026-.883,1.657,1.657,0,0,0-.3-.69,1.47,1.47,0,0,0-.58-.453,2.177,2.177,0,0,0-.861-.171,2.739,2.739,0,0,0-.958.145,2.36,2.36,0,0,0-.778.448,2.478,2.478,0,0,0-.558.7,3,3,0,0,0-.308.91l-1.573.009a3.78,3.78,0,0,1,.461-1.477,3.915,3.915,0,0,1,.949-1.125,4.1,4.1,0,0,1,1.31-.708,4.7,4.7,0,0,1,1.534-.233,4.063,4.063,0,0,1,1.428.272,2.961,2.961,0,0,1,1.072.716,2.85,2.85,0,0,1,.642,1.116,3.721,3.721,0,0,1,.136,1.455,2.667,2.667,0,0,1-.264.971,3.548,3.548,0,0,1-.549.809,3.867,3.867,0,0,1-.751.642,6.088,6.088,0,0,1-.879.479,2.526,2.526,0,0,1,.769.483,2.617,2.617,0,0,1,.523.672,2.617,2.617,0,0,1,.277.813,3.774,3.774,0,0,1,.04.914,4.211,4.211,0,0,1-.453,1.6,4,4,0,0,1-.967,1.213,4.129,4.129,0,0,1-1.367.76,4.826,4.826,0,0,1-1.644.242,4.216,4.216,0,0,1-1.446-.272,3.287,3.287,0,0,1-1.125-.716,3,3,0,0,1-.712-1.112,3.594,3.594,0,0,1-.2-1.459l1.591.009a2.529,2.529,0,0,0,.083.9,1.838,1.838,0,0,0,.369.694,1.7,1.7,0,0,0,.633.453,2.466,2.466,0,0,0,.883.18,2.864,2.864,0,0,0,1.059-.154,2.529,2.529,0,0,0,.839-.492,2.49,2.49,0,0,0,.584-.782,3.1,3.1,0,0,0,.286-1.024,2.355,2.355,0,0,0-.07-.971,1.653,1.653,0,0,0-.413-.694,1.835,1.835,0,0,0-.7-.422,3.245,3.245,0,0,0-.949-.163l-1.23-.009Zm6.706,6.363a1,1,0,0,1,.272-.716.987.987,0,0,1,.7-.3.952.952,0,0,1,.712.264.908.908,0,0,1,.272.7.95.95,0,0,1-.29.7,1.046,1.046,0,0,1-.7.286,1.006,1.006,0,0,1-.391-.057.863.863,0,0,1-.308-.189.846.846,0,0,1-.2-.3A1.032,1.032,0,0,1-18.47,24.174ZM-5.893,12.186l-.141,1.38h-.123a5.015,5.015,0,0,0-1.85.3,4.614,4.614,0,0,0-1.437.87,5.489,5.489,0,0,0-1.077,1.332,8.952,8.952,0,0,0-.76,1.7,4.078,4.078,0,0,1,1.274-.879,3.608,3.608,0,0,1,1.521-.281A2.98,2.98,0,0,1-7.018,17a2.924,2.924,0,0,1,.976.945,3.729,3.729,0,0,1,.51,1.318,5.367,5.367,0,0,1,.07,1.5,5.683,5.683,0,0,1-.417,1.705,4.823,4.823,0,0,1-.9,1.419,4.1,4.1,0,0,1-1.336.962,3.874,3.874,0,0,1-1.731.325,3.32,3.32,0,0,1-1.169-.229,3.159,3.159,0,0,1-.918-.567,3.34,3.34,0,0,1-.672-.826,4.42,4.42,0,0,1-.426-1.011,5.641,5.641,0,0,1-.2-1.121,5.81,5.81,0,0,1,.026-1.151l.1-.765a13.532,13.532,0,0,1,.413-1.92,10.147,10.147,0,0,1,.686-1.74,7.718,7.718,0,0,1,.98-1.485,6.035,6.035,0,0,1,1.3-1.156,6.117,6.117,0,0,1,1.639-.751,7.041,7.041,0,0,1,2-.268ZM-8.82,17.951a2.538,2.538,0,0,0-.844.123,2.939,2.939,0,0,0-.751.369,3.3,3.3,0,0,0-.633.567,3.656,3.656,0,0,0-.479.7l-.079.615a6.607,6.607,0,0,0-.035.708,4.888,4.888,0,0,0,.062.769,4.228,4.228,0,0,0,.189.747,2.318,2.318,0,0,0,.338.637,1.679,1.679,0,0,0,.527.453,1.657,1.657,0,0,0,.747.193A2.112,2.112,0,0,0-8.67,23.6a2.667,2.667,0,0,0,.826-.686,3.453,3.453,0,0,0,.545-.971,4.615,4.615,0,0,0,.264-1.1,4.389,4.389,0,0,0,0-.98,2.81,2.81,0,0,0-.264-.927,1.872,1.872,0,0,0-.576-.694A1.63,1.63,0,0,0-8.82,17.951Zm8.112-.141,1.046.009a3.772,3.772,0,0,0,1.033-.141,2.823,2.823,0,0,0,.892-.426,2.418,2.418,0,0,0,.655-.712,2.478,2.478,0,0,0,.33-1,2.919,2.919,0,0,0-.026-.883,1.657,1.657,0,0,0-.3-.69,1.47,1.47,0,0,0-.58-.453,2.177,2.177,0,0,0-.861-.171,2.739,2.739,0,0,0-.958.145,2.36,2.36,0,0,0-.778.448,2.478,2.478,0,0,0-.558.7,3,3,0,0,0-.308.91l-1.573.009a3.78,3.78,0,0,1,.461-1.477,3.915,3.915,0,0,1,.949-1.125,4.1,4.1,0,0,1,1.31-.708,4.7,4.7,0,0,1,1.534-.233,4.063,4.063,0,0,1,1.428.272,2.961,2.961,0,0,1,1.072.716A2.85,2.85,0,0,1,4.7,14.124a3.721,3.721,0,0,1,.136,1.455,2.667,2.667,0,0,1-.264.971,3.548,3.548,0,0,1-.549.809A3.867,3.867,0,0,1,3.274,18a6.088,6.088,0,0,1-.879.479,2.526,2.526,0,0,1,.769.483,2.582,2.582,0,0,1,.8,1.485,3.774,3.774,0,0,1,.04.914,4.211,4.211,0,0,1-.453,1.6,4,4,0,0,1-.967,1.213,4.129,4.129,0,0,1-1.367.76,4.826,4.826,0,0,1-1.644.242A4.216,4.216,0,0,1-1.872,24.9,3.287,3.287,0,0,1-3,24.187a3,3,0,0,1-.712-1.112,3.594,3.594,0,0,1-.2-1.459l1.591.009a2.529,2.529,0,0,0,.083.9,1.838,1.838,0,0,0,.369.694,1.7,1.7,0,0,0,.633.453,2.466,2.466,0,0,0,.883.18,2.864,2.864,0,0,0,1.059-.154,2.529,2.529,0,0,0,.839-.492,2.49,2.49,0,0,0,.584-.782A3.1,3.1,0,0,0,2.421,21.4a2.355,2.355,0,0,0-.07-.971,1.653,1.653,0,0,0-.413-.694,1.835,1.835,0,0,0-.7-.422,3.245,3.245,0,0,0-.949-.163l-1.23-.009Zm8.314,5.836a5.668,5.668,0,0,0,1.934-.286,4.256,4.256,0,0,0,1.45-.848,4.852,4.852,0,0,0,1.037-1.349,9.1,9.1,0,0,0,.7-1.789,5.333,5.333,0,0,1-.6.549,3.886,3.886,0,0,1-1.419.7,2.941,2.941,0,0,1-.809.092,2.836,2.836,0,0,1-1.463-.391,2.933,2.933,0,0,1-.967-.967,3.853,3.853,0,0,1-.5-1.34,5.5,5.5,0,0,1-.066-1.5A5.833,5.833,0,0,1,7.321,14.8a5.009,5.009,0,0,1,.9-1.446,4.115,4.115,0,0,1,1.336-.989,3.809,3.809,0,0,1,1.745-.338,3.418,3.418,0,0,1,1.239.242,2.91,2.91,0,0,1,.923.6,3.228,3.228,0,0,1,.637.883,4.892,4.892,0,0,1,.382,1.077,6.229,6.229,0,0,1,.154,1.178,7.712,7.712,0,0,1-.048,1.2l-.079.589a13.423,13.423,0,0,1-.7,2.834,7.5,7.5,0,0,1-1.323,2.29,5.944,5.944,0,0,1-2.052,1.538,6.832,6.832,0,0,1-2.887.563h-.2l.141-1.371Zm2.628-4.271a2.358,2.358,0,0,0,.853-.119,2.96,2.96,0,0,0,.756-.382,3.7,3.7,0,0,0,.642-.571,4.09,4.09,0,0,0,.5-.694l.07-.642q.026-.325.022-.712a5.939,5.939,0,0,0-.062-.782,4.4,4.4,0,0,0-.18-.765,2.4,2.4,0,0,0-.334-.659,1.675,1.675,0,0,0-.523-.47,1.611,1.611,0,0,0-.751-.2,2.1,2.1,0,0,0-1.121.242,2.679,2.679,0,0,0-.831.708,3.621,3.621,0,0,0-.545.993,4.452,4.452,0,0,0-.255,1.107,4.39,4.39,0,0,0,0,.98,3.058,3.058,0,0,0,.255.945,1.905,1.905,0,0,0,.563.716A1.554,1.554,0,0,0,10.235,19.375Zm17.815,0-2.408.492L27.312,22l-.967.668-1.371-2.329-1.389,2.329L22.619,22l1.67-2.136-2.426-.492.4-1.1,2.3.87-.2-2.672h1.213l-.2,2.672,2.312-.87Zm10.09-1.564,1.046.009a3.772,3.772,0,0,0,1.033-.141,2.823,2.823,0,0,0,.892-.426,2.418,2.418,0,0,0,.655-.712,2.478,2.478,0,0,0,.33-1,2.919,2.919,0,0,0-.026-.883,1.657,1.657,0,0,0-.3-.69,1.47,1.47,0,0,0-.58-.453,2.177,2.177,0,0,0-.861-.171,2.739,2.739,0,0,0-.958.145,2.36,2.36,0,0,0-.778.448,2.478,2.478,0,0,0-.558.7,3,3,0,0,0-.308.91l-1.573.009a3.78,3.78,0,0,1,.461-1.477,3.915,3.915,0,0,1,.949-1.125,4.1,4.1,0,0,1,1.31-.708,4.7,4.7,0,0,1,1.534-.233,4.063,4.063,0,0,1,1.428.272,2.961,2.961,0,0,1,1.072.716,2.85,2.85,0,0,1,.642,1.116,3.721,3.721,0,0,1,.136,1.455,2.667,2.667,0,0,1-.264.971,3.548,3.548,0,0,1-.549.809,3.867,3.867,0,0,1-.751.642,6.088,6.088,0,0,1-.879.479,2.526,2.526,0,0,1,.769.483,2.582,2.582,0,0,1,.8,1.485,3.774,3.774,0,0,1,.04.914,4.211,4.211,0,0,1-.453,1.6,4,4,0,0,1-.967,1.213,4.129,4.129,0,0,1-1.367.76,4.826,4.826,0,0,1-1.644.242,4.216,4.216,0,0,1-1.446-.272,3.287,3.287,0,0,1-1.125-.716,3,3,0,0,1-.712-1.112,3.594,3.594,0,0,1-.2-1.459l1.591.009a2.529,2.529,0,0,0,.083.9,1.838,1.838,0,0,0,.369.694,1.7,1.7,0,0,0,.633.453,2.466,2.466,0,0,0,.883.18,2.864,2.864,0,0,0,1.059-.154A2.529,2.529,0,0,0,40.4,23.2a2.49,2.49,0,0,0,.584-.782,3.1,3.1,0,0,0,.286-1.024,2.355,2.355,0,0,0-.07-.971,1.653,1.653,0,0,0-.413-.694,1.835,1.835,0,0,0-.7-.422,3.245,3.245,0,0,0-.949-.163l-1.23-.009Zm15.117,1.723q-.105.694-.272,1.384a9.734,9.734,0,0,1-.422,1.327,6.4,6.4,0,0,1-.615,1.178,4.166,4.166,0,0,1-.857.94,3.637,3.637,0,0,1-1.143.615,4.319,4.319,0,0,1-1.463.2,3.416,3.416,0,0,1-1.336-.268,2.694,2.694,0,0,1-.923-.668,3.017,3.017,0,0,1-.571-.967,5.327,5.327,0,0,1-.281-1.169,7.947,7.947,0,0,1-.057-1.274q.022-.655.1-1.288l.29-1.951a13.964,13.964,0,0,1,.264-1.38A9.064,9.064,0,0,1,46.4,14.9a6.273,6.273,0,0,1,.624-1.16,4.082,4.082,0,0,1,.861-.918,3.742,3.742,0,0,1,1.134-.6,4.322,4.322,0,0,1,1.455-.193,3.567,3.567,0,0,1,1.34.259,2.644,2.644,0,0,1,.927.65,2.934,2.934,0,0,1,.571.949,5.172,5.172,0,0,1,.281,1.151,7.806,7.806,0,0,1,.057,1.266q-.022.655-.1,1.288ZM52.009,17.3q.044-.369.083-.8a7.592,7.592,0,0,0,.031-.857,4.582,4.582,0,0,0-.092-.835,2.29,2.29,0,0,0-.277-.725,1.5,1.5,0,0,0-.523-.519,1.73,1.73,0,0,0-.839-.215,2.452,2.452,0,0,0-.967.145,2.27,2.27,0,0,0-.738.457,2.952,2.952,0,0,0-.545.69,5.025,5.025,0,0,0-.387.844,7.479,7.479,0,0,0-.259.918q-.1.47-.163.91l-.369,2.487q-.044.352-.083.787a7.96,7.96,0,0,0-.031.879,4.876,4.876,0,0,0,.092.861,2.445,2.445,0,0,0,.277.751,1.591,1.591,0,0,0,.519.545,1.614,1.614,0,0,0,.835.229,2.238,2.238,0,0,0,.976-.149,2.377,2.377,0,0,0,.738-.479,2.984,2.984,0,0,0,.545-.716,5.462,5.462,0,0,0,.387-.875,7.5,7.5,0,0,0,.255-.936q.1-.475.158-.905Zm2.733,6.873a.983.983,0,0,1,.976-1.02.952.952,0,0,1,.712.264.908.908,0,0,1,.272.7.95.95,0,0,1-.29.7,1.046,1.046,0,0,1-.7.286,1.006,1.006,0,0,1-.391-.057.863.863,0,0,1-.308-.189.846.846,0,0,1-.2-.3A1.032,1.032,0,0,1,54.743,24.174Zm13.1-4.641q-.105.694-.272,1.384a9.734,9.734,0,0,1-.422,1.327,6.4,6.4,0,0,1-.615,1.178,4.166,4.166,0,0,1-.857.94,3.637,3.637,0,0,1-1.143.615,4.319,4.319,0,0,1-1.463.2,3.416,3.416,0,0,1-1.336-.268,2.694,2.694,0,0,1-.923-.668,3.017,3.017,0,0,1-.571-.967,5.327,5.327,0,0,1-.281-1.169A7.947,7.947,0,0,1,59.9,20.83q.022-.655.1-1.288l.29-1.951a13.964,13.964,0,0,1,.264-1.38,9.064,9.064,0,0,1,.426-1.314,6.273,6.273,0,0,1,.624-1.16,4.082,4.082,0,0,1,.861-.918,3.742,3.742,0,0,1,1.134-.6,4.322,4.322,0,0,1,1.455-.193,3.567,3.567,0,0,1,1.34.259,2.644,2.644,0,0,1,.927.65,2.934,2.934,0,0,1,.571.949,5.172,5.172,0,0,1,.281,1.151,7.806,7.806,0,0,1,.057,1.266q-.022.655-.1,1.288ZM66.59,17.3q.044-.369.083-.8a7.592,7.592,0,0,0,.031-.857,4.582,4.582,0,0,0-.092-.835,2.29,2.29,0,0,0-.277-.725,1.5,1.5,0,0,0-.523-.519,1.73,1.73,0,0,0-.839-.215,2.452,2.452,0,0,0-.967.145,2.27,2.27,0,0,0-.738.457,2.952,2.952,0,0,0-.545.69,5.025,5.025,0,0,0-.387.844,7.479,7.479,0,0,0-.259.918q-.1.47-.163.91l-.369,2.487q-.044.352-.083.787a7.96,7.96,0,0,0-.031.879,4.876,4.876,0,0,0,.092.861,2.445,2.445,0,0,0,.277.751,1.591,1.591,0,0,0,.519.545,1.614,1.614,0,0,0,.835.229,2.238,2.238,0,0,0,.976-.149,2.377,2.377,0,0,0,.738-.479,2.984,2.984,0,0,0,.545-.716,5.462,5.462,0,0,0,.387-.875,7.5,7.5,0,0,0,.255-.936q.1-.475.158-.905Zm11.145,2.232q-.105.694-.272,1.384a9.734,9.734,0,0,1-.422,1.327,6.4,6.4,0,0,1-.615,1.178,4.166,4.166,0,0,1-.857.94,3.637,3.637,0,0,1-1.143.615,4.319,4.319,0,0,1-1.463.2,3.416,3.416,0,0,1-1.336-.268,2.694,2.694,0,0,1-.923-.668,3.017,3.017,0,0,1-.571-.967,5.327,5.327,0,0,1-.281-1.169,7.947,7.947,0,0,1-.057-1.274q.022-.655.1-1.288l.29-1.951a13.964,13.964,0,0,1,.264-1.38,9.064,9.064,0,0,1,.426-1.314,6.273,6.273,0,0,1,.624-1.16,4.082,4.082,0,0,1,.861-.918,3.742,3.742,0,0,1,1.134-.6,4.322,4.322,0,0,1,1.455-.193,3.567,3.567,0,0,1,1.34.259,2.644,2.644,0,0,1,.927.65,2.934,2.934,0,0,1,.571.949,5.172,5.172,0,0,1,.281,1.151,7.806,7.806,0,0,1,.057,1.266q-.022.655-.1,1.288ZM76.487,17.3q.044-.369.083-.8a7.592,7.592,0,0,0,.031-.857,4.582,4.582,0,0,0-.092-.835,2.29,2.29,0,0,0-.277-.725,1.5,1.5,0,0,0-.523-.519,1.73,1.73,0,0,0-.839-.215,2.452,2.452,0,0,0-.967.145,2.27,2.27,0,0,0-.738.457,2.952,2.952,0,0,0-.545.69,5.025,5.025,0,0,0-.387.844,7.479,7.479,0,0,0-.259.918q-.1.47-.163.91l-.369,2.487q-.044.352-.083.787a7.96,7.96,0,0,0-.031.879,4.876,4.876,0,0,0,.092.861,2.445,2.445,0,0,0,.277.751,1.591,1.591,0,0,0,.519.545,1.614,1.614,0,0,0,.835.229,2.238,2.238,0,0,0,.976-.149,2.377,2.377,0,0,0,.738-.479,2.984,2.984,0,0,0,.545-.716,5.462,5.462,0,0,0,.387-.875,7.5,7.5,0,0,0,.255-.936q.1-.475.158-.905Zm11.145,2.232q-.105.694-.272,1.384a9.734,9.734,0,0,1-.422,1.327,6.4,6.4,0,0,1-.615,1.178,4.166,4.166,0,0,1-.857.94,3.637,3.637,0,0,1-1.143.615,4.319,4.319,0,0,1-1.463.2,3.416,3.416,0,0,1-1.336-.268,2.694,2.694,0,0,1-.923-.668,3.017,3.017,0,0,1-.571-.967,5.327,5.327,0,0,1-.281-1.169,7.947,7.947,0,0,1-.057-1.274q.022-.655.1-1.288l.29-1.951a13.964,13.964,0,0,1,.264-1.38,9.064,9.064,0,0,1,.426-1.314,6.273,6.273,0,0,1,.624-1.16,4.082,4.082,0,0,1,.861-.918,3.742,3.742,0,0,1,1.134-.6,4.322,4.322,0,0,1,1.455-.193,3.567,3.567,0,0,1,1.34.259,2.644,2.644,0,0,1,.927.65,2.934,2.934,0,0,1,.571.949,5.172,5.172,0,0,1,.281,1.151,7.806,7.806,0,0,1,.057,1.266q-.022.655-.1,1.288ZM86.383,17.3q.044-.369.083-.8a7.592,7.592,0,0,0,.031-.857,4.582,4.582,0,0,0-.092-.835,2.29,2.29,0,0,0-.277-.725,1.5,1.5,0,0,0-.523-.519,1.73,1.73,0,0,0-.839-.215,2.452,2.452,0,0,0-.967.145,2.27,2.27,0,0,0-.738.457,2.952,2.952,0,0,0-.545.69,5.025,5.025,0,0,0-.387.844,7.479,7.479,0,0,0-.259.918q-.1.47-.163.91l-.369,2.487q-.044.352-.083.787a7.96,7.96,0,0,0-.031.879,4.876,4.876,0,0,0,.092.861,2.445,2.445,0,0,0,.277.751,1.591,1.591,0,0,0,.519.545,1.614,1.614,0,0,0,.835.229,2.238,2.238,0,0,0,.976-.149,2.377,2.377,0,0,0,.738-.479,2.984,2.984,0,0,0,.545-.716,5.462,5.462,0,0,0,.387-.875,7.5,7.5,0,0,0,.255-.936q.1-.475.158-.905ZM-71.631,38h2.769l-.1.431a1.635,1.635,0,0,0-.479.158.868.868,0,0,0-.264.264,2.241,2.241,0,0,0-.237.549q-.119.374-.3,1.217l-1.5,6.82q-.114.519-.149.822a4.809,4.809,0,0,0-.035.549.686.686,0,0,0,.2.558,1.2,1.2,0,0,0,.664.2l-.1.431h-3.516l.1-.431a1.2,1.2,0,0,0,.5-.171.949.949,0,0,0,.281-.33,3,3,0,0,0,.211-.514q.1-.3.29-1.173l1.169-5.3q.246-1.1.563-2.188h-.123q-.272.519-1.23,2.109l-4,6.6h-.958l-.729-5.651q-.158-1.2-.352-3.217h-.176q-.3,1.969-.668,3.647l-.9,4.061a6.618,6.618,0,0,0-.185,1.371.686.686,0,0,0,.2.558,1.2,1.2,0,0,0,.664.2l-.1.431H-83.2l.1-.431a1.2,1.2,0,0,0,.5-.171.949.949,0,0,0,.281-.33,3,3,0,0,0,.211-.514q.1-.3.29-1.173l1.494-6.768q.088-.378.141-.721a4.56,4.56,0,0,0,.053-.694.694.694,0,0,0-.207-.576,1.175,1.175,0,0,0-.655-.189l.1-.431h3.138l1,8.525ZM-67.9,49.174a1,1,0,0,1,.272-.716.987.987,0,0,1,.7-.3.952.952,0,0,1,.712.264.908.908,0,0,1,.272.7.95.95,0,0,1-.29.7,1.046,1.046,0,0,1-.7.286,1.006,1.006,0,0,1-.391-.057.863.863,0,0,1-.308-.189.846.846,0,0,1-.2-.3A1.032,1.032,0,0,1-67.9,49.174ZM-57,38a7.5,7.5,0,0,1,1.718.163,2.886,2.886,0,0,1,1.107.5,2.073,2.073,0,0,1,.65.857,3.122,3.122,0,0,1,.215,1.2,4.121,4.121,0,0,1-.624,2.285,3.7,3.7,0,0,1-1.692,1.424,6.492,6.492,0,0,1-2.562.457q-.9,0-1.494-.035l-.562,2.584q-.079.36-.11.554t-.053.417q-.022.224-.022.4a.864.864,0,0,0,.088.426.512.512,0,0,0,.264.224,2.334,2.334,0,0,0,.606.105l-.1.431h-3.612l.1-.431a1.2,1.2,0,0,0,.5-.171.949.949,0,0,0,.281-.33,3,3,0,0,0,.211-.514q.1-.3.29-1.173l1.494-6.768a6.872,6.872,0,0,0,.193-1.389.742.742,0,0,0-.2-.6,1.143,1.143,0,0,0-.659-.193l.1-.431Zm-1.617,6.126a5.53,5.53,0,0,0,1.718-.22,2.475,2.475,0,0,0,1.072-.681,3.261,3.261,0,0,0,.646-1.094,4.062,4.062,0,0,0,.229-1.389,1.934,1.934,0,0,0-.519-1.494,2.523,2.523,0,0,0-1.723-.475q-.545,0-1.143.026l-1.2,5.326Zm6.565,5.045a1,1,0,0,1,.272-.716.987.987,0,0,1,.7-.3.952.952,0,0,1,.712.264.908.908,0,0,1,.272.7.95.95,0,0,1-.29.7,1.046,1.046,0,0,1-.7.286,1.006,1.006,0,0,1-.391-.057.863.863,0,0,1-.308-.189.846.846,0,0,1-.2-.3A1.032,1.032,0,0,1-52.049,49.174Zm17.367-6.328H-41.8l.246-1.415h7.128Zm-.633,3.647h-7.119l.246-1.406h7.128ZM-24.029,50h-1.6l1.881-10.793-3.4,1.2.272-1.547,4.746-1.714h.281Zm5.054-.826a1,1,0,0,1,.272-.716.987.987,0,0,1,.7-.3.952.952,0,0,1,.712.264.908.908,0,0,1,.272.7.95.95,0,0,1-.29.7,1.046,1.046,0,0,1-.7.286,1.006,1.006,0,0,1-.391-.057.863.863,0,0,1-.308-.189.846.846,0,0,1-.2-.3A1.032,1.032,0,0,1-18.976,49.174Zm6.293-.527a5.668,5.668,0,0,0,1.934-.286,4.256,4.256,0,0,0,1.45-.848,4.852,4.852,0,0,0,1.037-1.349,9.1,9.1,0,0,0,.7-1.789,5.333,5.333,0,0,1-.6.549,3.913,3.913,0,0,1-.677.426,3.9,3.9,0,0,1-.743.277,2.941,2.941,0,0,1-.809.092,2.836,2.836,0,0,1-1.463-.391,2.933,2.933,0,0,1-.967-.967,3.853,3.853,0,0,1-.5-1.34,5.5,5.5,0,0,1-.066-1.5,5.833,5.833,0,0,1,.417-1.718,5.009,5.009,0,0,1,.9-1.446,4.115,4.115,0,0,1,1.336-.989,3.809,3.809,0,0,1,1.745-.338,3.418,3.418,0,0,1,1.239.242,2.91,2.91,0,0,1,.923.6,3.228,3.228,0,0,1,.637.883,4.892,4.892,0,0,1,.382,1.077,6.229,6.229,0,0,1,.154,1.178A7.712,7.712,0,0,1-5.7,42.2l-.079.589a13.423,13.423,0,0,1-.7,2.834A7.5,7.5,0,0,1-7.8,47.917a5.944,5.944,0,0,1-2.052,1.538,6.832,6.832,0,0,1-2.887.563h-.2l.141-1.371Zm2.628-4.271a2.358,2.358,0,0,0,.853-.119,2.96,2.96,0,0,0,.756-.382A3.7,3.7,0,0,0-7.8,43.3a4.09,4.09,0,0,0,.5-.694l.07-.642q.026-.325.022-.712a5.939,5.939,0,0,0-.062-.782,4.4,4.4,0,0,0-.18-.765,2.4,2.4,0,0,0-.334-.659,1.675,1.675,0,0,0-.523-.47,1.611,1.611,0,0,0-.751-.2,2.1,2.1,0,0,0-1.121.242,2.679,2.679,0,0,0-.831.708,3.621,3.621,0,0,0-.545.993,4.452,4.452,0,0,0-.255,1.107,4.39,4.39,0,0,0,0,.98,3.058,3.058,0,0,0,.255.945,1.905,1.905,0,0,0,.563.716A1.554,1.554,0,0,0-10.055,44.375Zm14.071.158q-.105.694-.272,1.384a9.734,9.734,0,0,1-.422,1.327,6.4,6.4,0,0,1-.615,1.178,4.166,4.166,0,0,1-.857.94,3.637,3.637,0,0,1-1.143.615,4.319,4.319,0,0,1-1.463.2,3.416,3.416,0,0,1-1.336-.268,2.694,2.694,0,0,1-.923-.668,3.017,3.017,0,0,1-.571-.967A5.327,5.327,0,0,1-3.867,47.1a7.947,7.947,0,0,1-.057-1.274q.022-.655.1-1.288l.29-1.951a13.964,13.964,0,0,1,.264-1.38A9.064,9.064,0,0,1-2.843,39.9a6.273,6.273,0,0,1,.624-1.16,4.082,4.082,0,0,1,.861-.918,3.742,3.742,0,0,1,1.134-.6,4.322,4.322,0,0,1,1.455-.193,3.567,3.567,0,0,1,1.34.259,2.644,2.644,0,0,1,.927.65,2.934,2.934,0,0,1,.571.949,5.172,5.172,0,0,1,.281,1.151A7.806,7.806,0,0,1,4.408,41.3q-.022.655-.1,1.288ZM2.769,42.3q.044-.369.083-.8a7.592,7.592,0,0,0,.031-.857,4.582,4.582,0,0,0-.092-.835,2.29,2.29,0,0,0-.277-.725,1.5,1.5,0,0,0-.523-.519,1.73,1.73,0,0,0-.839-.215,2.452,2.452,0,0,0-.967.145,2.27,2.27,0,0,0-.738.457,2.952,2.952,0,0,0-.545.69,5.025,5.025,0,0,0-.387.844,7.479,7.479,0,0,0-.259.918q-.1.47-.163.91l-.369,2.487q-.044.352-.083.787a7.96,7.96,0,0,0-.031.879,4.876,4.876,0,0,0,.092.861,2.445,2.445,0,0,0,.277.751,1.591,1.591,0,0,0,.519.545,1.614,1.614,0,0,0,.835.229,2.238,2.238,0,0,0,.976-.149,2.377,2.377,0,0,0,.738-.479,2.984,2.984,0,0,0,.545-.716,5.462,5.462,0,0,0,.387-.875,7.5,7.5,0,0,0,.255-.936q.1-.475.158-.905ZM7.11,48.646a5.668,5.668,0,0,0,1.934-.286,4.256,4.256,0,0,0,1.45-.848,4.852,4.852,0,0,0,1.037-1.349,9.1,9.1,0,0,0,.7-1.789,5.333,5.333,0,0,1-.6.549,3.886,3.886,0,0,1-1.419.7,2.941,2.941,0,0,1-.809.092,2.836,2.836,0,0,1-1.463-.391,2.933,2.933,0,0,1-.967-.967,3.853,3.853,0,0,1-.5-1.34,5.5,5.5,0,0,1-.066-1.5A5.833,5.833,0,0,1,6.825,39.8a5.009,5.009,0,0,1,.9-1.446,4.115,4.115,0,0,1,1.336-.989,3.809,3.809,0,0,1,1.745-.338,3.418,3.418,0,0,1,1.239.242,2.91,2.91,0,0,1,.923.6,3.228,3.228,0,0,1,.637.883,4.892,4.892,0,0,1,.382,1.077,6.229,6.229,0,0,1,.154,1.178,7.712,7.712,0,0,1-.048,1.2l-.079.589a13.423,13.423,0,0,1-.7,2.834,7.5,7.5,0,0,1-1.323,2.29,5.944,5.944,0,0,1-2.052,1.538,6.832,6.832,0,0,1-2.887.563h-.2l.141-1.371Zm2.628-4.271a2.358,2.358,0,0,0,.853-.119,2.96,2.96,0,0,0,.756-.382,3.7,3.7,0,0,0,.642-.571,4.09,4.09,0,0,0,.5-.694l.07-.642q.026-.325.022-.712a5.939,5.939,0,0,0-.062-.782,4.4,4.4,0,0,0-.18-.765,2.4,2.4,0,0,0-.334-.659,1.675,1.675,0,0,0-.523-.47,1.611,1.611,0,0,0-.751-.2,2.1,2.1,0,0,0-1.121.242,2.679,2.679,0,0,0-.831.708,3.621,3.621,0,0,0-.545.993,4.452,4.452,0,0,0-.255,1.107,4.39,4.39,0,0,0,0,.98,3.058,3.058,0,0,0,.255.945,1.905,1.905,0,0,0,.563.716A1.554,1.554,0,0,0,9.738,44.375Zm5.66,4.8a.983.983,0,0,1,.976-1.02.952.952,0,0,1,.712.264.908.908,0,0,1,.272.7.95.95,0,0,1-.29.7,1.046,1.046,0,0,1-.7.286,1.006,1.006,0,0,1-.391-.057.863.863,0,0,1-.308-.189.846.846,0,0,1-.2-.3A1.032,1.032,0,0,1,15.4,49.174ZM24.926,50h-1.6l1.881-10.793-3.4,1.2.272-1.547,4.746-1.714h.281Zm14.66-11.795L32.634,50h-1.74l6.917-11.461h-6.68l.211-1.336h8.4Zm8.7,6.328q-.105.694-.272,1.384a9.734,9.734,0,0,1-.422,1.327,6.4,6.4,0,0,1-.615,1.178,4.166,4.166,0,0,1-.857.94,3.637,3.637,0,0,1-1.143.615,4.319,4.319,0,0,1-1.463.2,3.416,3.416,0,0,1-1.336-.268,2.694,2.694,0,0,1-.923-.668,3.017,3.017,0,0,1-.571-.967A5.327,5.327,0,0,1,40.4,47.1a7.947,7.947,0,0,1-.057-1.274q.022-.655.1-1.288l.29-1.951A13.964,13.964,0,0,1,41,41.211a9.064,9.064,0,0,1,.426-1.314,6.273,6.273,0,0,1,.624-1.16,4.082,4.082,0,0,1,.861-.918,3.742,3.742,0,0,1,1.134-.6,4.322,4.322,0,0,1,1.455-.193,3.567,3.567,0,0,1,1.34.259,2.644,2.644,0,0,1,.927.65,2.934,2.934,0,0,1,.571.949,5.172,5.172,0,0,1,.281,1.151,7.806,7.806,0,0,1,.057,1.266q-.022.655-.1,1.288ZM47.039,42.3q.044-.369.083-.8a7.592,7.592,0,0,0,.031-.857,4.582,4.582,0,0,0-.092-.835,2.29,2.29,0,0,0-.277-.725,1.5,1.5,0,0,0-.523-.519,1.73,1.73,0,0,0-.839-.215,2.452,2.452,0,0,0-.967.145,2.27,2.27,0,0,0-.738.457,2.952,2.952,0,0,0-.545.69,5.025,5.025,0,0,0-.387.844,7.479,7.479,0,0,0-.259.918q-.1.47-.163.91l-.369,2.487q-.044.352-.083.787a7.96,7.96,0,0,0-.031.879,4.876,4.876,0,0,0,.092.861,2.445,2.445,0,0,0,.277.751,1.591,1.591,0,0,0,.519.545,1.614,1.614,0,0,0,.835.229,2.238,2.238,0,0,0,.976-.149,2.377,2.377,0,0,0,.738-.479,2.984,2.984,0,0,0,.545-.716,5.462,5.462,0,0,0,.387-.875A7.5,7.5,0,0,0,46.5,45.7q.1-.475.158-.905Zm2.733,6.873a.983.983,0,0,1,.976-1.02.952.952,0,0,1,.712.264.908.908,0,0,1,.272.7.95.95,0,0,1-.29.7,1.046,1.046,0,0,1-.7.286,1.006,1.006,0,0,1-.391-.057.863.863,0,0,1-.308-.189.846.846,0,0,1-.2-.3A1.032,1.032,0,0,1,49.772,49.174Zm13.1-4.641q-.105.694-.272,1.384a9.734,9.734,0,0,1-.422,1.327,6.4,6.4,0,0,1-.615,1.178,4.166,4.166,0,0,1-.857.94,3.637,3.637,0,0,1-1.143.615,4.319,4.319,0,0,1-1.463.2,3.416,3.416,0,0,1-1.336-.268,2.694,2.694,0,0,1-.923-.668,3.017,3.017,0,0,1-.571-.967,5.327,5.327,0,0,1-.281-1.169,7.947,7.947,0,0,1-.057-1.274q.022-.655.1-1.288l.29-1.951a13.964,13.964,0,0,1,.264-1.38,9.064,9.064,0,0,1,.426-1.314,6.273,6.273,0,0,1,.624-1.16,4.082,4.082,0,0,1,.861-.918,3.742,3.742,0,0,1,1.134-.6,4.322,4.322,0,0,1,1.455-.193,3.567,3.567,0,0,1,1.34.259,2.644,2.644,0,0,1,.927.65,2.934,2.934,0,0,1,.571.949,5.172,5.172,0,0,1,.281,1.151,7.806,7.806,0,0,1,.057,1.266q-.022.655-.1,1.288ZM61.62,42.3q.044-.369.083-.8a7.592,7.592,0,0,0,.031-.857,4.582,4.582,0,0,0-.092-.835,2.29,2.29,0,0,0-.277-.725,1.5,1.5,0,0,0-.523-.519A1.73,1.73,0,0,0,60,38.354a2.452,2.452,0,0,0-.967.145,2.27,2.27,0,0,0-.738.457,2.952,2.952,0,0,0-.545.69,5.025,5.025,0,0,0-.387.844,7.479,7.479,0,0,0-.259.918q-.1.47-.163.91l-.369,2.487q-.044.352-.083.787a7.96,7.96,0,0,0-.031.879,4.876,4.876,0,0,0,.092.861,2.445,2.445,0,0,0,.277.751,1.591,1.591,0,0,0,.519.545,1.614,1.614,0,0,0,.835.229,2.238,2.238,0,0,0,.976-.149,2.377,2.377,0,0,0,.738-.479,2.984,2.984,0,0,0,.545-.716,5.462,5.462,0,0,0,.387-.875,7.5,7.5,0,0,0,.255-.936q.1-.475.158-.905Zm11.145,2.232q-.105.694-.272,1.384a9.734,9.734,0,0,1-.422,1.327,6.4,6.4,0,0,1-.615,1.178,4.166,4.166,0,0,1-.857.94,3.637,3.637,0,0,1-1.143.615,4.319,4.319,0,0,1-1.463.2,3.416,3.416,0,0,1-1.336-.268,2.694,2.694,0,0,1-.923-.668,3.017,3.017,0,0,1-.571-.967,5.327,5.327,0,0,1-.281-1.169,7.947,7.947,0,0,1-.057-1.274q.022-.655.1-1.288l.29-1.951a13.964,13.964,0,0,1,.264-1.38A9.064,9.064,0,0,1,65.9,39.9a6.273,6.273,0,0,1,.624-1.16,4.082,4.082,0,0,1,.861-.918,3.742,3.742,0,0,1,1.134-.6,4.322,4.322,0,0,1,1.455-.193,3.567,3.567,0,0,1,1.34.259,2.644,2.644,0,0,1,.927.65,2.934,2.934,0,0,1,.571.949,5.172,5.172,0,0,1,.281,1.151,7.806,7.806,0,0,1,.057,1.266q-.022.655-.1,1.288ZM71.517,42.3q.044-.369.083-.8a7.592,7.592,0,0,0,.031-.857,4.582,4.582,0,0,0-.092-.835,2.29,2.29,0,0,0-.277-.725,1.5,1.5,0,0,0-.523-.519,1.73,1.73,0,0,0-.839-.215,2.452,2.452,0,0,0-.967.145,2.27,2.27,0,0,0-.738.457,2.952,2.952,0,0,0-.545.69,5.025,5.025,0,0,0-.387.844,7.479,7.479,0,0,0-.259.918q-.1.47-.163.91l-.369,2.487q-.044.352-.083.787a7.96,7.96,0,0,0-.031.879,4.876,4.876,0,0,0,.092.861,2.445,2.445,0,0,0,.277.751,1.591,1.591,0,0,0,.519.545,1.614,1.614,0,0,0,.835.229,2.238,2.238,0,0,0,.976-.149,2.377,2.377,0,0,0,.738-.479,2.984,2.984,0,0,0,.545-.716,5.462,5.462,0,0,0,.387-.875,7.5,7.5,0,0,0,.255-.936q.1-.475.158-.905Zm11.145,2.232q-.105.694-.272,1.384a9.734,9.734,0,0,1-.422,1.327,6.4,6.4,0,0,1-.615,1.178,4.166,4.166,0,0,1-.857.94,3.637,3.637,0,0,1-1.143.615,4.319,4.319,0,0,1-1.463.2,3.416,3.416,0,0,1-1.336-.268,2.694,2.694,0,0,1-.923-.668,3.017,3.017,0,0,1-.571-.967,5.327,5.327,0,0,1-.281-1.169,7.947,7.947,0,0,1-.057-1.274q.022-.655.1-1.288l.29-1.951a13.964,13.964,0,0,1,.264-1.38A9.064,9.064,0,0,1,75.8,39.9a6.273,6.273,0,0,1,.624-1.16,4.082,4.082,0,0,1,.861-.918,3.742,3.742,0,0,1,1.134-.6,4.322,4.322,0,0,1,1.455-.193,3.567,3.567,0,0,1,1.34.259,2.644,2.644,0,0,1,.927.65,2.934,2.934,0,0,1,.571.949A5.172,5.172,0,0,1,83,40.038a7.806,7.806,0,0,1,.057,1.266q-.022.655-.1,1.288ZM81.413,42.3q.044-.369.083-.8a7.592,7.592,0,0,0,.031-.857,4.582,4.582,0,0,0-.092-.835,2.29,2.29,0,0,0-.277-.725,1.5,1.5,0,0,0-.523-.519,1.73,1.73,0,0,0-.839-.215,2.452,2.452,0,0,0-.967.145,2.27,2.27,0,0,0-.738.457,2.952,2.952,0,0,0-.545.69,5.025,5.025,0,0,0-.387.844,7.479,7.479,0,0,0-.259.918q-.1.47-.163.91l-.369,2.487q-.044.352-.083.787a7.96,7.96,0,0,0-.031.879,4.876,4.876,0,0,0,.092.861,2.445,2.445,0,0,0,.277.751,1.591,1.591,0,0,0,.519.545,1.614,1.614,0,0,0,.835.229,2.238,2.238,0,0,0,.976-.149,2.377,2.377,0,0,0,.738-.479,2.984,2.984,0,0,0,.545-.716,5.462,5.462,0,0,0,.387-.875,7.5,7.5,0,0,0,.255-.936q.1-.475.158-.905Z" transform="translate(219.067 12.568)" fill="#12263f"/>
</svg>
