<svg xmlns="http://www.w3.org/2000/svg" width="610" height="114" viewBox="0 0 610 114">
  <g id="Grupo_1118383" data-name="Grupo 1118383" transform="translate(-495 -11695)">
    <rect id="Rectángulo_406788" data-name="Rectángulo 406788" width="610" height="114" rx="12" transform="translate(495 11695)" fill="#feead4"/>
    <path id="Trazado_911670" data-name="Trazado 911670" d="M7.242-5.44a2.573,2.573,0,0,1,.681.756,4.011,4.011,0,0,1,.417,1.222l.2,1.02a8.166,8.166,0,0,0,.22.87,2.076,2.076,0,0,0,.294.615,1.177,1.177,0,0,0,.387.343,2.164,2.164,0,0,0,.628.185L9.984,0H7.55a13.536,13.536,0,0,1-.5-1.863L6.662-3.727a4.43,4.43,0,0,0-.233-.813,1.471,1.471,0,0,0-.325-.51.924.924,0,0,0-.439-.237,2.793,2.793,0,0,0-.611-.057h-1L3.437-2.558q-.079.343-.11.545t-.053.426q-.022.224-.022.4A.864.864,0,0,0,3.34-.76.512.512,0,0,0,3.6-.536a2.334,2.334,0,0,0,.606.105L4.113,0H.5L.6-.431A1.2,1.2,0,0,0,1.1-.6a.949.949,0,0,0,.281-.33,3,3,0,0,0,.211-.514q.1-.3.29-1.173L3.375-9.387a6.872,6.872,0,0,0,.193-1.389.742.742,0,0,0-.2-.6,1.143,1.143,0,0,0-.659-.193L2.8-12H6.715a8.567,8.567,0,0,1,1.521.11,3.561,3.561,0,0,1,1.006.33,2.213,2.213,0,0,1,.7.567,2.407,2.407,0,0,1,.422.782,3,3,0,0,1,.141.927,3.387,3.387,0,0,1-.826,2.3A5.124,5.124,0,0,1,7.242-5.537ZM5.256-6.1a4.861,4.861,0,0,0,2.013-.343A2.548,2.548,0,0,0,8.438-7.567a3.443,3.443,0,0,0,.431-1.687,2.907,2.907,0,0,0-.07-.672,1.769,1.769,0,0,0-.185-.488,1.347,1.347,0,0,0-.29-.343,1.659,1.659,0,0,0-.439-.259,2.477,2.477,0,0,0-.611-.158,7.21,7.21,0,0,0-.945-.048q-.466,0-.984.035L4.219-6.1ZM15.3.149a2.829,2.829,0,0,1-2.114-.765,3.005,3.005,0,0,1-.751-2.2,7.411,7.411,0,0,1,.211-1.626,6.088,6.088,0,0,1,.914-2.18,4.406,4.406,0,0,1,1.582-1.428,4.355,4.355,0,0,1,2.065-.5,2.836,2.836,0,0,1,2.145.769,3.054,3.054,0,0,1,.738,2.2,7.448,7.448,0,0,1-.356,2.18,5.971,5.971,0,0,1-.976,1.951A4.014,4.014,0,0,1,17.279-.25,4.647,4.647,0,0,1,15.3.149ZM13.975-2.435a2.142,2.142,0,0,0,.4,1.428,1.513,1.513,0,0,0,1.208.461,1.981,1.981,0,0,0,1.529-.773,5.561,5.561,0,0,0,1.055-2.167,9.31,9.31,0,0,0,.387-2.448,2.317,2.317,0,0,0-.369-1.428,1.362,1.362,0,0,0-1.151-.479,2.077,2.077,0,0,0-1.6.765,5.416,5.416,0,0,0-1.072,2.188A9.48,9.48,0,0,0,13.975-2.435Zm13.192.773A6.352,6.352,0,0,1,25.695-.3a2.765,2.765,0,0,1-1.481.439,1.631,1.631,0,0,1-1.837-1.854,5.538,5.538,0,0,1,.149-1.239l1.037-4.562H22.087l.132-.606a3.548,3.548,0,0,0,.787-.079,1.437,1.437,0,0,0,.448-.193,1.235,1.235,0,0,0,.33-.352,3.284,3.284,0,0,0,.29-.584q.141-.356.422-1.244h1.213L25.225-8.4H27.9l-.193.888H25.031L24.249-4.1q-.229.993-.29,1.428a5.241,5.241,0,0,0-.062.7q0,1.09.905,1.09a1.483,1.483,0,0,0,.822-.294,5.516,5.516,0,0,0,1.033-1.006ZM35.71-7.972l.809-.58.563.141L35.789-2.839a6.189,6.189,0,0,0-.193,1.3.886.886,0,0,0,.114.51.414.414,0,0,0,.36.158.978.978,0,0,0,.563-.215,6.176,6.176,0,0,0,.844-.822l.5.492a7.649,7.649,0,0,1-1.349,1.2A2.205,2.205,0,0,1,35.42.141a1.114,1.114,0,0,1-.87-.36,1.376,1.376,0,0,1-.325-.958,2.962,2.962,0,0,1,.2-1.028l-.114-.035a7.75,7.75,0,0,1-1.6,1.8,2.61,2.61,0,0,1-1.6.571,1.746,1.746,0,0,1-1.5-.729,3.426,3.426,0,0,1-.532-2.048,7.34,7.34,0,0,1,.593-2.9,5.373,5.373,0,0,1,1.63-2.2,3.68,3.68,0,0,1,2.312-.8,4.285,4.285,0,0,1,1.068.127A3.733,3.733,0,0,1,35.71-7.972Zm-.773,2.619a5.547,5.547,0,0,0,.105-.624q.026-.264.026-.571a1.437,1.437,0,0,0-.29-.993,1.289,1.289,0,0,0-.984-.316,2.233,2.233,0,0,0-1.626.729,4.924,4.924,0,0,0-1.125,1.956,7.777,7.777,0,0,0-.4,2.448,2.909,2.909,0,0,0,.25,1.367.882.882,0,0,0,.839.453,1.7,1.7,0,0,0,1.138-.5,6.972,6.972,0,0,0,1.151-1.428,6.229,6.229,0,0,0,.839-2.14Zm9.87-.94a3.961,3.961,0,0,0-.11-.967.835.835,0,0,0-.3-.448.985.985,0,0,0-.584-.149,2.2,2.2,0,0,0-1.6.708,5.188,5.188,0,0,0-1.156,2,7.615,7.615,0,0,0-.448,2.492,2.1,2.1,0,0,0,.352,1.332,1.275,1.275,0,0,0,1.055.435,2.969,2.969,0,0,0,1.384-.3,5.183,5.183,0,0,0,1.235-.954l.536.536A5.833,5.833,0,0,1,43.51-.272,3.966,3.966,0,0,1,41.7.149a2.428,2.428,0,0,1-1.934-.756,3.249,3.249,0,0,1-.659-2.2,6.971,6.971,0,0,1,.352-2.065,6.046,6.046,0,0,1,1.028-1.978,4.368,4.368,0,0,1,1.582-1.274,4.522,4.522,0,0,1,1.934-.422,8.307,8.307,0,0,1,2.153.264l-.431,1.986Zm6.627-5.555-.4,1.705H49.474l.4-1.705ZM48.6-5.924a6.492,6.492,0,0,0,.2-1.318.634.634,0,0,0-.189-.536,1.426,1.426,0,0,0-.743-.158l.1-.466,2.145-.079h.519L49.368-2.839a6.516,6.516,0,0,0-.193,1.3.886.886,0,0,0,.114.51.414.414,0,0,0,.36.158.978.978,0,0,0,.563-.215,6.176,6.176,0,0,0,.844-.822l.5.492a7.669,7.669,0,0,1-1.4,1.23,2.276,2.276,0,0,1-1.2.325,1.123,1.123,0,0,1-.914-.417A1.628,1.628,0,0,1,47.7-1.345a7.7,7.7,0,0,1,.246-1.705Zm4.271,1.143a6.928,6.928,0,0,1,.277-1.261,6.314,6.314,0,0,1,.505-1.169,5.524,5.524,0,0,1,.725-1.011,4.6,4.6,0,0,1,.932-.791,4.355,4.355,0,0,1,1.125-.51,4.245,4.245,0,0,1,1.314-.163,3.52,3.52,0,0,1,1.714.444,3.34,3.34,0,0,1,1.143,1.09A4.286,4.286,0,0,1,61.2-6.623a5.94,5.94,0,0,1,.066,1.753l-.018.2a6.6,6.6,0,0,1-.514,1.85,5.611,5.611,0,0,1-1.02,1.56A4.654,4.654,0,0,1,58.241-.189a4.188,4.188,0,0,1-1.885.365,3.538,3.538,0,0,1-1.7-.435,3.289,3.289,0,0,1-1.138-1.077,4.3,4.3,0,0,1-.6-1.512,5.743,5.743,0,0,1-.07-1.74Zm1.573.193a5.91,5.91,0,0,0-.04.765,4.8,4.8,0,0,0,.07.773,3.368,3.368,0,0,0,.207.716,2.081,2.081,0,0,0,.374.6,1.758,1.758,0,0,0,.571.417,2.051,2.051,0,0,0,.8.176,2.432,2.432,0,0,0,1.292-.286,3.16,3.16,0,0,0,.962-.822A4.336,4.336,0,0,0,59.322-3.4a5.842,5.842,0,0,0,.33-1.27l.026-.193a5.951,5.951,0,0,0,.04-.769,4.915,4.915,0,0,0-.07-.782,3.538,3.538,0,0,0-.207-.729,2.06,2.06,0,0,0-.378-.611,1.818,1.818,0,0,0-.58-.426,2.034,2.034,0,0,0-.8-.18,2.379,2.379,0,0,0-1.3.294,3.186,3.186,0,0,0-.954.839A4.419,4.419,0,0,0,54.8-6.06a6.165,6.165,0,0,0-.325,1.279Zm4.746-8.895h2.021L58.526-10.9H57.138Zm5.423,7.91a6.3,6.3,0,0,0,.193-1.3.886.886,0,0,0-.114-.51.414.414,0,0,0-.36-.158.983.983,0,0,0-.576.224,6.308,6.308,0,0,0-.831.813L62.429-7a8.725,8.725,0,0,1,1.345-1.2,2.143,2.143,0,0,1,1.213-.356,1.1,1.1,0,0,1,.875.365,1.391,1.391,0,0,1,.321.954A3.025,3.025,0,0,1,65.971-6.2l.105.035a8.131,8.131,0,0,1,1.639-1.8,2.642,2.642,0,0,1,1.6-.584,1.636,1.636,0,0,1,1.257.47,1.837,1.837,0,0,1,.439,1.305,7.017,7.017,0,0,1-.255,1.573l-.571,2.3a6.607,6.607,0,0,0-.237,1.354.886.886,0,0,0,.114.51.414.414,0,0,0,.36.158.978.978,0,0,0,.563-.215,6.176,6.176,0,0,0,.844-.822l.5.492A7.951,7.951,0,0,1,71.016-.233a2.266,2.266,0,0,1-1.283.374,1.133,1.133,0,0,1-.914-.409,1.565,1.565,0,0,1-.343-1.042,7.271,7.271,0,0,1,.29-1.679l.387-1.521q.211-.826.277-1.222a4.081,4.081,0,0,0,.066-.642,1.474,1.474,0,0,0-.2-.875.772.772,0,0,0-.659-.268,1.424,1.424,0,0,0-.8.294,4.535,4.535,0,0,0-.905.888,6.967,6.967,0,0,0-.769,1.151,5.738,5.738,0,0,0-.475,1.375L64.854,0H63.334ZM83.109-2.241a7.75,7.75,0,0,1-1.6,1.8,2.61,2.61,0,0,1-1.6.571,1.746,1.746,0,0,1-1.5-.729,3.426,3.426,0,0,1-.532-2.048,7.34,7.34,0,0,1,.593-2.9,5.373,5.373,0,0,1,1.63-2.2,3.68,3.68,0,0,1,2.312-.8,4.189,4.189,0,0,1,.989.11,3.555,3.555,0,0,1,.927.382l.457-2.03q.07-.29.123-.642a4.215,4.215,0,0,0,.053-.615.689.689,0,0,0-.1-.4.542.542,0,0,0-.277-.2,2.776,2.776,0,0,0-.646-.088l.105-.457,2.206-.079h.519L84.586-2.839a6.516,6.516,0,0,0-.193,1.3.886.886,0,0,0,.114.51.414.414,0,0,0,.36.158.978.978,0,0,0,.563-.215,6.176,6.176,0,0,0,.844-.822l.5.492a7.863,7.863,0,0,1-1.362,1.2,2.189,2.189,0,0,1-1.2.352,1.114,1.114,0,0,1-.87-.36,1.376,1.376,0,0,1-.325-.958,2.962,2.962,0,0,1,.2-1.028ZM83.7-5.353a5.871,5.871,0,0,0,.132-1.2,1.434,1.434,0,0,0-.29-1,1.273,1.273,0,0,0-.967-.312,2.2,2.2,0,0,0-1.608.725,4.983,4.983,0,0,0-1.121,1.956,7.741,7.741,0,0,0-.409,2.452,2.909,2.909,0,0,0,.25,1.367.882.882,0,0,0,.839.453,1.417,1.417,0,0,0,.554-.119,2.234,2.234,0,0,0,.584-.382,4.561,4.561,0,0,0,.6-.642q.294-.378.541-.76a5.422,5.422,0,0,0,.457-.905,7.248,7.248,0,0,0,.36-1.261Zm11.048,3.6A6.681,6.681,0,0,1,93.019-.334a4.2,4.2,0,0,1-2.035.475,2.515,2.515,0,0,1-1.973-.778,3.127,3.127,0,0,1-.7-2.167,6.746,6.746,0,0,1,.338-2.017,5.894,5.894,0,0,1,1.024-1.934,4.786,4.786,0,0,1,1.644-1.327,4.567,4.567,0,0,1,2.039-.47,2.5,2.5,0,0,1,1.6.431,1.629,1.629,0,0,1,.532,1.345,2.4,2.4,0,0,1-1.4,2.241,9.106,9.106,0,0,1-4.162.747,5.828,5.828,0,0,0-.105,1.143,2.032,2.032,0,0,0,.36,1.34,1.48,1.48,0,0,0,1.178.417,3.044,3.044,0,0,0,1.463-.352A6.114,6.114,0,0,0,94.2-2.32ZM90.07-4.535A9.416,9.416,0,0,0,92.2-4.759a2.846,2.846,0,0,0,1.362-.686,1.707,1.707,0,0,0,.475-1.27,1.281,1.281,0,0,0-.25-.839.908.908,0,0,0-.743-.3,2.345,2.345,0,0,0-1.709.9A5.972,5.972,0,0,0,90.07-4.535ZM103.14-5.546a6.217,6.217,0,0,0,.185-1.327.886.886,0,0,0-.114-.51.414.414,0,0,0-.36-.158.983.983,0,0,0-.576.224,6.308,6.308,0,0,0-.831.813l-.5-.492a8.58,8.58,0,0,1,1.34-1.191,2.154,2.154,0,0,1,1.217-.365,1.1,1.1,0,0,1,.866.36,1.387,1.387,0,0,1,.321.958,2.982,2.982,0,0,1-.2,1.037l.105.035q1.626-2.382,3.234-2.382a1.738,1.738,0,0,1,1.49.729,3.443,3.443,0,0,1,.532,2.057,7.35,7.35,0,0,1-.584,2.852A5.434,5.434,0,0,1,107.64-.681a3.643,3.643,0,0,1-2.32.822,3.459,3.459,0,0,1-1.942-.51l-.4,1.925a5.173,5.173,0,0,0-.132,1.028.674.674,0,0,0,.2.549,1.506,1.506,0,0,0,.769.215l-.07.431h-2.716Zm.888,2.487q-.088.466-.11.712t-.022.483a1.419,1.419,0,0,0,.294,1,1.357,1.357,0,0,0,1.015.312,1.935,1.935,0,0,0,.826-.176,2.562,2.562,0,0,0,.716-.51,3.751,3.751,0,0,0,.611-.809,6.354,6.354,0,0,0,.488-1.1,8.019,8.019,0,0,0,.325-1.292,7.636,7.636,0,0,0,.11-1.244,2.847,2.847,0,0,0-.259-1.375.878.878,0,0,0-.822-.453,1.532,1.532,0,0,0-.883.3,4.687,4.687,0,0,0-.954.971,6.455,6.455,0,0,0-.809,1.318,7.012,7.012,0,0,0-.457,1.494Zm10.644-3.226A7.324,7.324,0,0,1,116.328-8a2.829,2.829,0,0,1,1.613-.545,5,5,0,0,1,1.072.1l-.422,1.969h-.905a2.034,2.034,0,0,0-.149-.571.633.633,0,0,0-.229-.281.641.641,0,0,0-.334-.079,1.2,1.2,0,0,0-.69.272,4.722,4.722,0,0,0-.839.853,6.756,6.756,0,0,0-.743,1.116,5.713,5.713,0,0,0-.461,1.362L113.405,0h-1.521l1.274-5.572a8.229,8.229,0,0,0,.158-.817,4.147,4.147,0,0,0,.035-.483.886.886,0,0,0-.114-.51.414.414,0,0,0-.36-.158.983.983,0,0,0-.576.224,6.308,6.308,0,0,0-.831.813l-.5-.492a8.449,8.449,0,0,1,1.354-1.2,2.156,2.156,0,0,1,1.2-.356,1.1,1.1,0,0,1,.875.365,1.391,1.391,0,0,1,.321.954,2.675,2.675,0,0,1-.167.905Zm8.49,6.434a2.829,2.829,0,0,1-2.114-.765,3.005,3.005,0,0,1-.751-2.2,7.411,7.411,0,0,1,.211-1.626,6.088,6.088,0,0,1,.914-2.18A4.406,4.406,0,0,1,123-8.046a4.355,4.355,0,0,1,2.065-.5,2.836,2.836,0,0,1,2.145.769,3.054,3.054,0,0,1,.738,2.2,7.448,7.448,0,0,1-.356,2.18,5.971,5.971,0,0,1-.976,1.951A4.014,4.014,0,0,1,125.139-.25,4.647,4.647,0,0,1,123.161.149Zm-1.327-2.584a2.142,2.142,0,0,0,.4,1.428,1.513,1.513,0,0,0,1.208.461,1.981,1.981,0,0,0,1.529-.773,5.561,5.561,0,0,0,1.055-2.167,9.31,9.31,0,0,0,.387-2.448,2.317,2.317,0,0,0-.369-1.428,1.362,1.362,0,0,0-1.151-.479,2.077,2.077,0,0,0-1.6.765,5.416,5.416,0,0,0-1.072,2.188A9.48,9.48,0,0,0,121.834-2.435Zm13.236.193a7.75,7.75,0,0,1-1.6,1.8,2.61,2.61,0,0,1-1.6.571,1.746,1.746,0,0,1-1.5-.729,3.426,3.426,0,0,1-.532-2.048,7.34,7.34,0,0,1,.593-2.9,5.373,5.373,0,0,1,1.63-2.2,3.68,3.68,0,0,1,2.312-.8,4.189,4.189,0,0,1,.989.11,3.555,3.555,0,0,1,.927.382l.457-2.03q.07-.29.123-.642a4.215,4.215,0,0,0,.053-.615.689.689,0,0,0-.1-.4.542.542,0,0,0-.277-.2,2.776,2.776,0,0,0-.646-.088l.105-.457,2.206-.079h.519l-2.188,9.729a6.516,6.516,0,0,0-.193,1.3.886.886,0,0,0,.114.51.414.414,0,0,0,.36.158.978.978,0,0,0,.563-.215,6.176,6.176,0,0,0,.844-.822l.5.492a7.863,7.863,0,0,1-1.362,1.2,2.189,2.189,0,0,1-1.2.352,1.114,1.114,0,0,1-.87-.36,1.376,1.376,0,0,1-.325-.958,2.962,2.962,0,0,1,.2-1.028Zm.589-3.111a5.871,5.871,0,0,0,.132-1.2,1.434,1.434,0,0,0-.29-1,1.273,1.273,0,0,0-.967-.312,2.2,2.2,0,0,0-1.608.725,4.983,4.983,0,0,0-1.121,1.956,7.741,7.741,0,0,0-.409,2.452,2.909,2.909,0,0,0,.25,1.367.882.882,0,0,0,.839.453,1.417,1.417,0,0,0,.554-.119,2.234,2.234,0,0,0,.584-.382,4.561,4.561,0,0,0,.6-.642q.294-.378.541-.76a5.422,5.422,0,0,0,.457-.905,7.248,7.248,0,0,0,.36-1.261Zm11.619,2.514a6.3,6.3,0,0,0-.193,1.3.886.886,0,0,0,.114.51.414.414,0,0,0,.36.158.978.978,0,0,0,.563-.215,6.176,6.176,0,0,0,.844-.822l.5.492a7.454,7.454,0,0,1-1.362,1.2,2.218,2.218,0,0,1-1.2.352,1.114,1.114,0,0,1-.87-.36,1.376,1.376,0,0,1-.325-.958,2.973,2.973,0,0,1,.211-1.037l-.105-.035a8.117,8.117,0,0,1-1.648,1.8,2.643,2.643,0,0,1-1.6.58,1.636,1.636,0,0,1-1.257-.47,1.837,1.837,0,0,1-.439-1.305,7.017,7.017,0,0,1,.255-1.573l.571-2.3a6.607,6.607,0,0,0,.237-1.354.886.886,0,0,0-.114-.51.414.414,0,0,0-.36-.158.983.983,0,0,0-.576.224,6.308,6.308,0,0,0-.831.813l-.5-.492a11.423,11.423,0,0,1,1.125-1.037,2.694,2.694,0,0,1,.725-.4,2.4,2.4,0,0,1,.778-.119,1.11,1.11,0,0,1,.888.378,1.51,1.51,0,0,1,.325,1.02,7.059,7.059,0,0,1-.272,1.731L142.743-3.9q-.149.58-.215.905t-.1.563a3.177,3.177,0,0,0-.031.4,1.474,1.474,0,0,0,.2.875.772.772,0,0,0,.659.268,1.424,1.424,0,0,0,.8-.294,4.535,4.535,0,0,0,.905-.888,6.967,6.967,0,0,0,.769-1.151,5.738,5.738,0,0,0,.475-1.375l.835-3.806h1.521ZM156.3-6.293a3.961,3.961,0,0,0-.11-.967.835.835,0,0,0-.3-.448.985.985,0,0,0-.584-.149,2.2,2.2,0,0,0-1.6.708,5.188,5.188,0,0,0-1.156,2,7.615,7.615,0,0,0-.448,2.492,2.1,2.1,0,0,0,.352,1.332,1.275,1.275,0,0,0,1.055.435,2.969,2.969,0,0,0,1.384-.3,5.183,5.183,0,0,0,1.235-.954l.536.536A5.833,5.833,0,0,1,155-.272a3.966,3.966,0,0,1-1.806.422,2.428,2.428,0,0,1-1.934-.756,3.249,3.249,0,0,1-.659-2.2,6.971,6.971,0,0,1,.352-2.065,6.046,6.046,0,0,1,1.028-1.978,4.368,4.368,0,0,1,1.582-1.274,4.522,4.522,0,0,1,1.934-.422,8.307,8.307,0,0,1,2.153.264l-.431,1.986Zm7.77,4.632A6.352,6.352,0,0,1,162.593-.3a2.765,2.765,0,0,1-1.481.439,1.631,1.631,0,0,1-1.837-1.854,5.538,5.538,0,0,1,.149-1.239l1.037-4.562h-1.477l.132-.606A3.548,3.548,0,0,0,159.9-8.2a1.437,1.437,0,0,0,.448-.193,1.235,1.235,0,0,0,.33-.352,3.284,3.284,0,0,0,.29-.584q.141-.356.422-1.244h1.213L162.123-8.4h2.672l-.193.888H161.93l-.782,3.41q-.229.993-.29,1.428a5.241,5.241,0,0,0-.062.7q0,1.09.905,1.09a1.483,1.483,0,0,0,.822-.294,5.516,5.516,0,0,0,1.033-1.006ZM168.891.149a2.829,2.829,0,0,1-2.114-.765,3.005,3.005,0,0,1-.751-2.2,7.411,7.411,0,0,1,.211-1.626,6.088,6.088,0,0,1,.914-2.18,4.406,4.406,0,0,1,1.582-1.428,4.355,4.355,0,0,1,2.065-.5,2.836,2.836,0,0,1,2.145.769,3.054,3.054,0,0,1,.738,2.2,7.448,7.448,0,0,1-.356,2.18,5.971,5.971,0,0,1-.976,1.951A4.014,4.014,0,0,1,170.868-.25,4.647,4.647,0,0,1,168.891.149Zm-1.327-2.584a2.142,2.142,0,0,0,.4,1.428,1.513,1.513,0,0,0,1.208.461,1.981,1.981,0,0,0,1.529-.773,5.561,5.561,0,0,0,1.055-2.167,9.31,9.31,0,0,0,.387-2.448,2.317,2.317,0,0,0-.369-1.428,1.362,1.362,0,0,0-1.151-.479,2.077,2.077,0,0,0-1.6.765,5.416,5.416,0,0,0-1.072,2.188A9.48,9.48,0,0,0,167.563-2.435Zm13.711-3.832a1.923,1.923,0,0,0-.514-1.187,1.833,1.833,0,0,0-1.314-.4,1.708,1.708,0,0,0-1.125.356,1.155,1.155,0,0,0-.431.936,1.336,1.336,0,0,0,.11.558,1.69,1.69,0,0,0,.444.532,7.729,7.729,0,0,0,1.037.712,7.428,7.428,0,0,1,.888.611,2.946,2.946,0,0,1,.527.549,1.909,1.909,0,0,1,.281.576,2.664,2.664,0,0,1,.088.734,2.174,2.174,0,0,1-.417,1.34,2.476,2.476,0,0,1-1.134.831,4.562,4.562,0,0,1-1.63.272,9.266,9.266,0,0,1-1.433-.11,11.435,11.435,0,0,1-1.564-.374l.422-1.916h.686a1.82,1.82,0,0,0,.475,1.274,1.937,1.937,0,0,0,1.4.431,2.047,2.047,0,0,0,1.305-.374,1.274,1.274,0,0,0,.47-1.059,1.614,1.614,0,0,0-.132-.681,1.692,1.692,0,0,0-.431-.549,7.072,7.072,0,0,0-.949-.659,7.706,7.706,0,0,1-1.068-.747,2.355,2.355,0,0,1-.576-.725,2.008,2.008,0,0,1-.193-.9,2.04,2.04,0,0,1,.374-1.217,2.359,2.359,0,0,1,1.068-.8,4.287,4.287,0,0,1,1.617-.281,10.517,10.517,0,0,1,1.49.1,6.954,6.954,0,0,1,1.34.334l-.4,1.846ZM191.593.176a3.633,3.633,0,0,1-1.683-.4,3.257,3.257,0,0,1-1.147-1.015,4.036,4.036,0,0,1-.62-1.45,5.578,5.578,0,0,1-.1-1.705l.044-.378a6.643,6.643,0,0,1,.259-1.213,6.522,6.522,0,0,1,.488-1.16,5.636,5.636,0,0,1,.708-1.024,4.712,4.712,0,0,1,.914-.813,4.237,4.237,0,0,1,1.1-.532,3.83,3.83,0,0,1,1.27-.171,3.186,3.186,0,0,1,1.635.435,2.917,2.917,0,0,1,1.015,1.063,4.072,4.072,0,0,1,.47,1.481,6.512,6.512,0,0,1-.009,1.688l-.105.729h-6.205a3.9,3.9,0,0,0,0,1.107,2.822,2.822,0,0,0,.33,1,2.08,2.08,0,0,0,.69.729,2.049,2.049,0,0,0,1.081.3,2.809,2.809,0,0,0,1.45-.338,4.673,4.673,0,0,0,1.169-.927l.914.773a4.1,4.1,0,0,1-.721.8,4.3,4.3,0,0,1-.875.576,4.15,4.15,0,0,1-.993.343A4.847,4.847,0,0,1,191.593.176Zm1.143-8.534a2.145,2.145,0,0,0-1.077.211,2.836,2.836,0,0,0-.826.628,4.076,4.076,0,0,0-.611.888,6.921,6.921,0,0,0-.422,1.006l4.623.018.035-.158a3.249,3.249,0,0,0,.009-.923,2.214,2.214,0,0,0-.272-.822,1.741,1.741,0,0,0-.571-.6A1.711,1.711,0,0,0,192.735-8.358Zm7.4-1.16-.229,1.2a4.7,4.7,0,0,1,1.31-1.011,3.3,3.3,0,0,1,1.608-.36,2.718,2.718,0,0,1,1.27.3,2.134,2.134,0,0,1,.8.751,2.8,2.8,0,0,1,.378,1.094,5.411,5.411,0,0,1,.018,1.31L204.249,0h-1.591L203.7-6.258a3.339,3.339,0,0,0,.009-.8,1.645,1.645,0,0,0-.207-.646,1.164,1.164,0,0,0-.466-.439,1.707,1.707,0,0,0-.778-.171,2.3,2.3,0,0,0-.773.11,2.8,2.8,0,0,0-.672.325,3.271,3.271,0,0,0-.58.492,5.281,5.281,0,0,0-.488.6L198.571,0H196.98l1.652-9.51Zm19.591,4.808a8.54,8.54,0,0,1-.229,1.173,7.252,7.252,0,0,1-.409,1.143,5.816,5.816,0,0,1-.6,1.024,4.117,4.117,0,0,1-.8.826A3.59,3.59,0,0,1,216.681,0a3.378,3.378,0,0,1-1.226.18,4.035,4.035,0,0,1-1.4-.277,2.758,2.758,0,0,1-1.129-.839l-.853,4.588H210.48L212.766-9.51l1.441-.009-.176,1.063a3.959,3.959,0,0,1,1.27-.932,3.537,3.537,0,0,1,1.551-.3,3,3,0,0,1,1.125.229,2.545,2.545,0,0,1,.826.567,2.878,2.878,0,0,1,.554.826,4.663,4.663,0,0,1,.316,1,6.281,6.281,0,0,1,.119,1.085,8.812,8.812,0,0,1-.04,1.085ZM218.162-4.9q.035-.352.04-.738a5.106,5.106,0,0,0-.048-.765,3.332,3.332,0,0,0-.18-.716,2.074,2.074,0,0,0-.347-.6,1.623,1.623,0,0,0-.545-.422,1.928,1.928,0,0,0-.773-.176,2.383,2.383,0,0,0-1.354.347A3.843,3.843,0,0,0,213.926-7l-.8,4.562a2.1,2.1,0,0,0,.751.954,2.148,2.148,0,0,0,1.173.347,2.328,2.328,0,0,0,1.27-.3,3.059,3.059,0,0,0,.918-.839,4.252,4.252,0,0,0,.593-1.16,7.079,7.079,0,0,0,.3-1.266Zm8.754-3.164a6.329,6.329,0,0,0-.747-.079,2.631,2.631,0,0,0-1.393.36,3.153,3.153,0,0,0-1.015,1.02L222.592,0H221l1.652-9.51,1.538-.009-.237,1.107a3.836,3.836,0,0,1,1.028-.949,2.4,2.4,0,0,1,1.354-.343,1.841,1.841,0,0,1,.387.04q.185.04.369.092Zm.334,3.278a6.928,6.928,0,0,1,.277-1.261,6.314,6.314,0,0,1,.505-1.169,5.524,5.524,0,0,1,.725-1.011,4.6,4.6,0,0,1,.932-.791,4.355,4.355,0,0,1,1.125-.51,4.245,4.245,0,0,1,1.314-.163,3.52,3.52,0,0,1,1.714.444,3.34,3.34,0,0,1,1.143,1.09,4.286,4.286,0,0,1,.593,1.529,5.94,5.94,0,0,1,.066,1.753l-.018.2a6.6,6.6,0,0,1-.514,1.85,5.611,5.611,0,0,1-1.02,1.56,4.654,4.654,0,0,1-1.477,1.068,4.188,4.188,0,0,1-1.885.365,3.538,3.538,0,0,1-1.7-.435,3.289,3.289,0,0,1-1.138-1.077,4.3,4.3,0,0,1-.6-1.512,5.743,5.743,0,0,1-.07-1.74Zm1.573.193a5.91,5.91,0,0,0-.04.765,4.8,4.8,0,0,0,.07.773,3.368,3.368,0,0,0,.207.716,2.081,2.081,0,0,0,.374.6,1.758,1.758,0,0,0,.571.417,2.051,2.051,0,0,0,.8.176,2.432,2.432,0,0,0,1.292-.286,3.16,3.16,0,0,0,.962-.822A4.336,4.336,0,0,0,233.7-3.4a5.842,5.842,0,0,0,.33-1.27l.026-.193a5.951,5.951,0,0,0,.04-.769,4.915,4.915,0,0,0-.07-.782,3.538,3.538,0,0,0-.207-.729,2.06,2.06,0,0,0-.378-.611,1.818,1.818,0,0,0-.58-.426,2.034,2.034,0,0,0-.8-.18,2.379,2.379,0,0,0-1.3.294,3.186,3.186,0,0,0-.954.839,4.419,4.419,0,0,0-.633,1.165,6.165,6.165,0,0,0-.325,1.279Zm11.944,3.445a2.472,2.472,0,0,0,.831-.123,2.539,2.539,0,0,0,.725-.374,2.376,2.376,0,0,0,.558-.589,2.6,2.6,0,0,0,.347-.76l1.5-.009a3.264,3.264,0,0,1-.488,1.305,3.967,3.967,0,0,1-.936,1.015,4.254,4.254,0,0,1-1.235.65,4.006,4.006,0,0,1-1.384.211,3.508,3.508,0,0,1-1.7-.431,3.122,3.122,0,0,1-1.1-1.063,4.216,4.216,0,0,1-.558-1.5,6.117,6.117,0,0,1-.053-1.736l.044-.378a6.741,6.741,0,0,1,.483-1.833,5.221,5.221,0,0,1,.98-1.534,4.522,4.522,0,0,1,1.441-1.042,4.157,4.157,0,0,1,1.868-.356,3.54,3.54,0,0,1,1.349.281,3,3,0,0,1,1.024.725,3.24,3.24,0,0,1,.65,1.085,3.8,3.8,0,0,1,.22,1.362h-1.485a2.781,2.781,0,0,0-.114-.809,1.961,1.961,0,0,0-.347-.668,1.707,1.707,0,0,0-.576-.461,1.937,1.937,0,0,0-.8-.189,2.444,2.444,0,0,0-1.279.272,2.955,2.955,0,0,0-.932.791,4.02,4.02,0,0,0-.606,1.116,6.258,6.258,0,0,0-.312,1.257l-.044.369a7.54,7.54,0,0,0-.035,1.156,3.253,3.253,0,0,0,.229,1.09,1.974,1.974,0,0,0,.615.822A1.834,1.834,0,0,0,240.768-1.143ZM250.04.176a3.633,3.633,0,0,1-1.683-.4,3.257,3.257,0,0,1-1.147-1.015,4.036,4.036,0,0,1-.62-1.45,5.578,5.578,0,0,1-.1-1.705l.044-.378a6.643,6.643,0,0,1,.259-1.213,6.522,6.522,0,0,1,.488-1.16,5.636,5.636,0,0,1,.708-1.024,4.712,4.712,0,0,1,.914-.813,4.237,4.237,0,0,1,1.1-.532,3.83,3.83,0,0,1,1.27-.171,3.186,3.186,0,0,1,1.635.435,2.917,2.917,0,0,1,1.015,1.063,4.072,4.072,0,0,1,.47,1.481,6.512,6.512,0,0,1-.009,1.688l-.105.729h-6.205a3.9,3.9,0,0,0,0,1.107,2.822,2.822,0,0,0,.33,1,2.08,2.08,0,0,0,.69.729,2.049,2.049,0,0,0,1.081.3,2.809,2.809,0,0,0,1.45-.338,4.673,4.673,0,0,0,1.169-.927l.914.773a4.1,4.1,0,0,1-.721.8,4.3,4.3,0,0,1-.875.576,4.15,4.15,0,0,1-.993.343A4.847,4.847,0,0,1,250.04.176Zm1.143-8.534a2.145,2.145,0,0,0-1.077.211,2.836,2.836,0,0,0-.826.628,4.076,4.076,0,0,0-.611.888,6.921,6.921,0,0,0-.422,1.006l4.623.018.035-.158a3.249,3.249,0,0,0,.009-.923,2.214,2.214,0,0,0-.272-.822,1.741,1.741,0,0,0-.571-.6A1.711,1.711,0,0,0,251.183-8.358ZM261.3-2.575a1.073,1.073,0,0,0-.1-.672,1.283,1.283,0,0,0-.422-.448,2.389,2.389,0,0,0-.611-.286q-.338-.105-.655-.185-.527-.132-1.068-.325a4.041,4.041,0,0,1-.971-.5,2.4,2.4,0,0,1-.694-.751,1.97,1.97,0,0,1-.237-1.1,2.488,2.488,0,0,1,.378-1.239,3.094,3.094,0,0,1,.87-.9,3.938,3.938,0,0,1,1.173-.541,4.508,4.508,0,0,1,1.279-.171,4.051,4.051,0,0,1,1.261.211,3.055,3.055,0,0,1,1.033.584,2.658,2.658,0,0,1,.686.932,2.855,2.855,0,0,1,.229,1.252l-1.582-.009a1.635,1.635,0,0,0-.114-.668,1.419,1.419,0,0,0-.352-.51,1.6,1.6,0,0,0-.541-.325,2.115,2.115,0,0,0-.681-.123,2.649,2.649,0,0,0-.69.075,2.152,2.152,0,0,0-.637.264,1.714,1.714,0,0,0-.488.453,1.422,1.422,0,0,0-.25.65.908.908,0,0,0,.035.444.951.951,0,0,0,.211.334,1.244,1.244,0,0,0,.33.242,3.162,3.162,0,0,0,.4.171q.215.075.431.127t.4.105a10.134,10.134,0,0,1,1.085.347,4.013,4.013,0,0,1,.971.527,2.385,2.385,0,0,1,.681.782,2.081,2.081,0,0,1,.215,1.121,2.623,2.623,0,0,1-.4,1.3,3.051,3.051,0,0,1-.9.905,3.946,3.946,0,0,1-1.217.523,4.993,4.993,0,0,1-1.34.149,4.3,4.3,0,0,1-1.323-.22,3.44,3.44,0,0,1-1.107-.606,2.848,2.848,0,0,1-.756-.967,2.831,2.831,0,0,1-.259-1.318l1.591.009a1.872,1.872,0,0,0,.145.76,1.591,1.591,0,0,0,.4.554,1.664,1.664,0,0,0,.6.338,2.45,2.45,0,0,0,.769.114,3.221,3.221,0,0,0,.721-.066,2.539,2.539,0,0,0,.686-.242,1.75,1.75,0,0,0,.541-.439A1.3,1.3,0,0,0,261.3-2.575Zm3.647-2.206a6.928,6.928,0,0,1,.277-1.261,6.314,6.314,0,0,1,.505-1.169,5.524,5.524,0,0,1,.725-1.011,4.6,4.6,0,0,1,.932-.791,4.355,4.355,0,0,1,1.125-.51,4.245,4.245,0,0,1,1.314-.163,3.52,3.52,0,0,1,1.714.444,3.34,3.34,0,0,1,1.143,1.09,4.286,4.286,0,0,1,.593,1.529,5.94,5.94,0,0,1,.066,1.753l-.018.2a6.6,6.6,0,0,1-.514,1.85,5.611,5.611,0,0,1-1.02,1.56,4.654,4.654,0,0,1-1.477,1.068,4.188,4.188,0,0,1-1.885.365,3.538,3.538,0,0,1-1.7-.435,3.289,3.289,0,0,1-1.138-1.077,4.3,4.3,0,0,1-.6-1.512,5.743,5.743,0,0,1-.07-1.74Zm1.573.193a5.91,5.91,0,0,0-.04.765,4.8,4.8,0,0,0,.07.773,3.368,3.368,0,0,0,.207.716,2.081,2.081,0,0,0,.374.6,1.758,1.758,0,0,0,.571.417,2.051,2.051,0,0,0,.8.176,2.432,2.432,0,0,0,1.292-.286,3.16,3.16,0,0,0,.962-.822,4.336,4.336,0,0,0,.642-1.147,5.842,5.842,0,0,0,.33-1.27l.026-.193a5.951,5.951,0,0,0,.04-.769,4.915,4.915,0,0,0-.07-.782,3.538,3.538,0,0,0-.207-.729,2.06,2.06,0,0,0-.378-.611,1.818,1.818,0,0,0-.58-.426,2.034,2.034,0,0,0-.8-.18,2.379,2.379,0,0,0-1.3.294,3.186,3.186,0,0,0-.954.839,4.419,4.419,0,0,0-.633,1.165,6.165,6.165,0,0,0-.325,1.279Zm20.892-2.566h-7.33V-8.569h7.33Zm0,3.647h-7.33V-4.913h7.33Z" transform="translate(526 11756)" fill="#12263f"/>
    <path id="Trazado_911671" data-name="Trazado 911671" d="M5.453-10.664a8.305,8.305,0,0,1,1.914.18,3.833,3.833,0,0,1,1.371.648A2.866,2.866,0,0,1,9.7-8.59a4.813,4.813,0,0,1,.32,1.84,8.218,8.218,0,0,1-.242,2.016,7.2,7.2,0,0,1-.7,1.77A5.854,5.854,0,0,1,7.992-1.559a5.909,5.909,0,0,1-1.227.918,5.047,5.047,0,0,1-1.328.48A8.1,8.1,0,0,1,3.727,0H.445L.531-.383A1.066,1.066,0,0,0,.977-.535a.844.844,0,0,0,.25-.293,2.669,2.669,0,0,0,.188-.457q.086-.27.258-1.043L3-8.344A6.159,6.159,0,0,0,3.172-9.6a.617.617,0,0,0-.184-.512,1.045,1.045,0,0,0-.582-.168l.086-.383ZM2.711-.719q.227.023.867.023a4.766,4.766,0,0,0,2.148-.441A4.032,4.032,0,0,0,7.25-2.52,7,7,0,0,0,8.2-4.5a7.8,7.8,0,0,0,.3-2.2A3.506,3.506,0,0,0,7.738-9.16a2.93,2.93,0,0,0-2.262-.824q-.344,0-.742.023ZM13.742,0H12.289V-8.453h1.453Zm.016-11.977h1.75l-2.094,2.3-1.164,0Zm7.984,4.891.719-.516.5.125L21.813-2.523a5.5,5.5,0,0,0-.172,1.156.787.787,0,0,0,.1.453.368.368,0,0,0,.32.141.869.869,0,0,0,.5-.191,5.49,5.49,0,0,0,.75-.73l.445.438a6.8,6.8,0,0,1-1.2,1.066,1.96,1.96,0,0,1-1.074.316.991.991,0,0,1-.773-.32,1.223,1.223,0,0,1-.289-.852,2.633,2.633,0,0,1,.18-.914l-.1-.031a6.889,6.889,0,0,1-1.422,1.6,2.32,2.32,0,0,1-1.422.508,1.552,1.552,0,0,1-1.332-.648,3.046,3.046,0,0,1-.473-1.82,6.524,6.524,0,0,1,.527-2.582,4.776,4.776,0,0,1,1.449-1.953A3.271,3.271,0,0,1,19.883-7.6a3.809,3.809,0,0,1,.949.113A3.318,3.318,0,0,1,21.742-7.086Zm-.687,2.328a4.931,4.931,0,0,0,.094-.555q.023-.234.023-.508a1.277,1.277,0,0,0-.258-.883,1.145,1.145,0,0,0-.875-.281,1.985,1.985,0,0,0-1.445.648,4.377,4.377,0,0,0-1,1.738,6.913,6.913,0,0,0-.359,2.176,2.585,2.585,0,0,0,.223,1.215.784.784,0,0,0,.746.4,1.515,1.515,0,0,0,1.012-.445,6.2,6.2,0,0,0,1.023-1.27,5.537,5.537,0,0,0,.746-1.9Zm8.781-.812a1.71,1.71,0,0,0-.457-1.055,1.629,1.629,0,0,0-1.168-.359,1.519,1.519,0,0,0-1,.316,1.027,1.027,0,0,0-.383.832,1.188,1.188,0,0,0,.1.5,1.5,1.5,0,0,0,.395.473,6.87,6.87,0,0,0,.922.633,6.6,6.6,0,0,1,.789.543A2.619,2.619,0,0,1,29.5-3.2a1.7,1.7,0,0,1,.25.512,2.368,2.368,0,0,1,.078.652,1.933,1.933,0,0,1-.371,1.191,2.2,2.2,0,0,1-1.008.738A4.055,4.055,0,0,1,27,.133a8.237,8.237,0,0,1-1.273-.1A10.165,10.165,0,0,1,24.336-.3L24.711-2h.609a1.618,1.618,0,0,0,.422,1.133,1.722,1.722,0,0,0,1.242.383,1.82,1.82,0,0,0,1.16-.332,1.133,1.133,0,0,0,.418-.941,1.435,1.435,0,0,0-.117-.605,1.5,1.5,0,0,0-.383-.488,6.286,6.286,0,0,0-.844-.586A6.85,6.85,0,0,1,26.27-4.1a2.093,2.093,0,0,1-.512-.645,1.784,1.784,0,0,1-.172-.8,1.813,1.813,0,0,1,.332-1.082,2.1,2.1,0,0,1,.949-.715,3.811,3.811,0,0,1,1.438-.25,9.348,9.348,0,0,1,1.324.086,6.181,6.181,0,0,1,1.191.3L30.469-5.57Zm10.93,3.578a6.889,6.889,0,0,1-1.422,1.6,2.32,2.32,0,0,1-1.422.508A1.552,1.552,0,0,1,36.59-.531a3.046,3.046,0,0,1-.473-1.82,6.524,6.524,0,0,1,.527-2.582,4.776,4.776,0,0,1,1.449-1.953A3.271,3.271,0,0,1,40.148-7.6a3.723,3.723,0,0,1,.879.1,3.16,3.16,0,0,1,.824.34l.406-1.8q.063-.258.109-.57a3.747,3.747,0,0,0,.047-.547.612.612,0,0,0-.086-.355.482.482,0,0,0-.246-.176,2.467,2.467,0,0,0-.574-.078L41.6-11.1l1.961-.07h.461L42.078-2.523a5.792,5.792,0,0,0-.172,1.156.787.787,0,0,0,.1.453.368.368,0,0,0,.32.141.869.869,0,0,0,.5-.191,5.49,5.49,0,0,0,.75-.73l.445.438a6.989,6.989,0,0,1-1.211,1.07A1.946,1.946,0,0,1,41.75.125a.991.991,0,0,1-.773-.32,1.223,1.223,0,0,1-.289-.852,2.632,2.632,0,0,1,.18-.914Zm.523-2.766a5.219,5.219,0,0,0,.117-1.062,1.275,1.275,0,0,0-.258-.887,1.131,1.131,0,0,0-.859-.277,1.957,1.957,0,0,0-1.43.645,4.429,4.429,0,0,0-1,1.738,6.881,6.881,0,0,0-.363,2.18,2.585,2.585,0,0,0,.223,1.215.784.784,0,0,0,.746.4,1.26,1.26,0,0,0,.492-.105,1.985,1.985,0,0,0,.52-.34,4.055,4.055,0,0,0,.531-.57q.262-.336.48-.676a4.82,4.82,0,0,0,.406-.8,6.443,6.443,0,0,0,.32-1.121Zm9.82,3.2A5.939,5.939,0,0,1,49.574-.3a3.733,3.733,0,0,1-1.809.422,2.236,2.236,0,0,1-1.754-.691,2.78,2.78,0,0,1-.621-1.926,6,6,0,0,1,.3-1.793A5.239,5.239,0,0,1,46.6-6a4.254,4.254,0,0,1,1.461-1.18A4.06,4.06,0,0,1,49.875-7.6a2.22,2.22,0,0,1,1.418.383,1.448,1.448,0,0,1,.473,1.2A2.135,2.135,0,0,1,50.52-4.031a8.1,8.1,0,0,1-3.7.664,5.18,5.18,0,0,0-.094,1.016,1.806,1.806,0,0,0,.32,1.191,1.316,1.316,0,0,0,1.047.371,2.706,2.706,0,0,0,1.3-.312,5.434,5.434,0,0,0,1.23-.961ZM46.953-4.031a8.37,8.37,0,0,0,1.891-.2,2.53,2.53,0,0,0,1.211-.609,1.518,1.518,0,0,0,.422-1.129,1.138,1.138,0,0,0-.223-.746.807.807,0,0,0-.66-.27,2.084,2.084,0,0,0-1.52.8A5.309,5.309,0,0,0,46.953-4.031ZM55.2-8.969q.094-.414.133-.66a2.927,2.927,0,0,0,.039-.457.612.612,0,0,0-.086-.355.482.482,0,0,0-.246-.176,2.467,2.467,0,0,0-.574-.078l.094-.406,1.969-.07h.461L55.07-2.523A5.9,5.9,0,0,0,54.9-1.367a.787.787,0,0,0,.1.453.368.368,0,0,0,.32.141.869.869,0,0,0,.5-.191,5.49,5.49,0,0,0,.75-.73l.445.438a6.814,6.814,0,0,1-1.238,1.09A2.023,2.023,0,0,1,54.7.125a1,1,0,0,1-.812-.371,1.447,1.447,0,0,1-.3-.949A7.655,7.655,0,0,1,53.8-2.711ZM68.234-7.086l.719-.516.5.125L68.3-2.523a5.5,5.5,0,0,0-.172,1.156.787.787,0,0,0,.1.453.368.368,0,0,0,.32.141.869.869,0,0,0,.5-.191,5.49,5.49,0,0,0,.75-.73l.445.438a6.8,6.8,0,0,1-1.2,1.066,1.96,1.96,0,0,1-1.074.316A.991.991,0,0,1,67.2-.2a1.223,1.223,0,0,1-.289-.852,2.633,2.633,0,0,1,.18-.914l-.1-.031a6.889,6.889,0,0,1-1.422,1.6,2.32,2.32,0,0,1-1.422.508,1.552,1.552,0,0,1-1.332-.648,3.046,3.046,0,0,1-.473-1.82,6.524,6.524,0,0,1,.527-2.582A4.776,4.776,0,0,1,64.32-6.887,3.271,3.271,0,0,1,66.375-7.6a3.809,3.809,0,0,1,.949.113A3.318,3.318,0,0,1,68.234-7.086Zm-.687,2.328a4.931,4.931,0,0,0,.094-.555q.023-.234.023-.508a1.277,1.277,0,0,0-.258-.883,1.145,1.145,0,0,0-.875-.281,1.985,1.985,0,0,0-1.445.648,4.377,4.377,0,0,0-1,1.738,6.913,6.913,0,0,0-.359,2.176,2.585,2.585,0,0,0,.223,1.215.784.784,0,0,0,.746.4,1.515,1.515,0,0,0,1.012-.445A6.2,6.2,0,0,0,66.73-2.52a5.537,5.537,0,0,0,.746-1.9Zm5.352-3.7.047,1.063a3.08,3.08,0,0,1,2.531-1.219q2.68,0,2.7,3.023V0H76.734V-5.594a1.946,1.946,0,0,0-.418-1.352,1.675,1.675,0,0,0-1.277-.437,2.086,2.086,0,0,0-1.234.375,2.546,2.546,0,0,0-.828.984V0H71.531V-8.453Zm4.781-3.3a1.942,1.942,0,0,1-.48,1.367,1.561,1.561,0,0,1-1.2.523,1.76,1.76,0,0,1-.555-.078,2.993,2.993,0,0,1-.613-.32,2.656,2.656,0,0,0-.547-.293A1.338,1.338,0,0,0,73.9-10.6a.717.717,0,0,0-.547.246.892.892,0,0,0-.227.629l-.969-.055a2.039,2.039,0,0,1,.473-1.383,1.516,1.516,0,0,1,1.2-.547,1.457,1.457,0,0,1,.492.078,3.587,3.587,0,0,1,.594.3,3.494,3.494,0,0,0,.574.3,1.319,1.319,0,0,0,.441.07.7.7,0,0,0,.559-.266.932.932,0,0,0,.223-.617ZM82.672.133a2.515,2.515,0,0,1-1.879-.68A2.671,2.671,0,0,1,80.125-2.5a6.588,6.588,0,0,1,.188-1.445,5.411,5.411,0,0,1,.813-1.937,3.916,3.916,0,0,1,1.406-1.27,3.871,3.871,0,0,1,1.836-.441,2.521,2.521,0,0,1,1.906.684,2.715,2.715,0,0,1,.656,1.957,6.62,6.62,0,0,1-.316,1.938,5.308,5.308,0,0,1-.867,1.734A3.568,3.568,0,0,1,84.43-.223,4.131,4.131,0,0,1,82.672.133Zm-1.18-2.3a1.9,1.9,0,0,0,.355,1.27,1.345,1.345,0,0,0,1.074.41,1.761,1.761,0,0,0,1.359-.687A4.943,4.943,0,0,0,85.219-3.1a8.276,8.276,0,0,0,.344-2.176,2.059,2.059,0,0,0-.328-1.27,1.211,1.211,0,0,0-1.023-.426,1.846,1.846,0,0,0-1.418.68,4.814,4.814,0,0,0-.953,1.945A8.426,8.426,0,0,0,81.492-2.164Z" transform="translate(831 11744)" fill="#12263f"/>
    <path id="Trazado_911672" data-name="Trazado 911672" d="M5.453-10.664a8.305,8.305,0,0,1,1.914.18,3.833,3.833,0,0,1,1.371.648A2.866,2.866,0,0,1,9.7-8.59a4.813,4.813,0,0,1,.32,1.84,8.218,8.218,0,0,1-.242,2.016,7.2,7.2,0,0,1-.7,1.77A5.854,5.854,0,0,1,7.992-1.559a5.909,5.909,0,0,1-1.227.918,5.047,5.047,0,0,1-1.328.48A8.1,8.1,0,0,1,3.727,0H.445L.531-.383A1.066,1.066,0,0,0,.977-.535a.844.844,0,0,0,.25-.293,2.669,2.669,0,0,0,.188-.457q.086-.27.258-1.043L3-8.344A6.159,6.159,0,0,0,3.172-9.6a.617.617,0,0,0-.184-.512,1.045,1.045,0,0,0-.582-.168l.086-.383ZM2.711-.719q.227.023.867.023a4.766,4.766,0,0,0,2.148-.441A4.032,4.032,0,0,0,7.25-2.52,7,7,0,0,0,8.2-4.5a7.8,7.8,0,0,0,.3-2.2A3.506,3.506,0,0,0,7.738-9.16a2.93,2.93,0,0,0-2.262-.824q-.344,0-.742.023ZM13.742,0H12.289V-8.453h1.453Zm.016-11.977h1.75l-2.094,2.3-1.164,0Zm7.984,4.891.719-.516.5.125L21.813-2.523a5.5,5.5,0,0,0-.172,1.156.787.787,0,0,0,.1.453.368.368,0,0,0,.32.141.869.869,0,0,0,.5-.191,5.49,5.49,0,0,0,.75-.73l.445.438a6.8,6.8,0,0,1-1.2,1.066,1.96,1.96,0,0,1-1.074.316.991.991,0,0,1-.773-.32,1.223,1.223,0,0,1-.289-.852,2.633,2.633,0,0,1,.18-.914l-.1-.031a6.889,6.889,0,0,1-1.422,1.6,2.32,2.32,0,0,1-1.422.508,1.552,1.552,0,0,1-1.332-.648,3.046,3.046,0,0,1-.473-1.82,6.524,6.524,0,0,1,.527-2.582,4.776,4.776,0,0,1,1.449-1.953A3.271,3.271,0,0,1,19.883-7.6a3.809,3.809,0,0,1,.949.113A3.318,3.318,0,0,1,21.742-7.086Zm-.687,2.328a4.931,4.931,0,0,0,.094-.555q.023-.234.023-.508a1.277,1.277,0,0,0-.258-.883,1.145,1.145,0,0,0-.875-.281,1.985,1.985,0,0,0-1.445.648,4.377,4.377,0,0,0-1,1.738,6.913,6.913,0,0,0-.359,2.176,2.585,2.585,0,0,0,.223,1.215.784.784,0,0,0,.746.4,1.515,1.515,0,0,0,1.012-.445,6.2,6.2,0,0,0,1.023-1.27,5.537,5.537,0,0,0,.746-1.9Zm8.781-.812a1.71,1.71,0,0,0-.457-1.055,1.629,1.629,0,0,0-1.168-.359,1.519,1.519,0,0,0-1,.316,1.027,1.027,0,0,0-.383.832,1.188,1.188,0,0,0,.1.5,1.5,1.5,0,0,0,.395.473,6.87,6.87,0,0,0,.922.633,6.6,6.6,0,0,1,.789.543A2.619,2.619,0,0,1,29.5-3.2a1.7,1.7,0,0,1,.25.512,2.368,2.368,0,0,1,.078.652,1.933,1.933,0,0,1-.371,1.191,2.2,2.2,0,0,1-1.008.738A4.055,4.055,0,0,1,27,.133a8.237,8.237,0,0,1-1.273-.1A10.165,10.165,0,0,1,24.336-.3L24.711-2h.609a1.618,1.618,0,0,0,.422,1.133,1.722,1.722,0,0,0,1.242.383,1.82,1.82,0,0,0,1.16-.332,1.133,1.133,0,0,0,.418-.941,1.435,1.435,0,0,0-.117-.605,1.5,1.5,0,0,0-.383-.488,6.286,6.286,0,0,0-.844-.586A6.85,6.85,0,0,1,26.27-4.1a2.093,2.093,0,0,1-.512-.645,1.784,1.784,0,0,1-.172-.8,1.813,1.813,0,0,1,.332-1.082,2.1,2.1,0,0,1,.949-.715,3.811,3.811,0,0,1,1.438-.25,9.348,9.348,0,0,1,1.324.086,6.181,6.181,0,0,1,1.191.3L30.469-5.57Zm10.93,3.578a6.889,6.889,0,0,1-1.422,1.6,2.32,2.32,0,0,1-1.422.508A1.552,1.552,0,0,1,36.59-.531a3.046,3.046,0,0,1-.473-1.82,6.524,6.524,0,0,1,.527-2.582,4.776,4.776,0,0,1,1.449-1.953A3.271,3.271,0,0,1,40.148-7.6a3.723,3.723,0,0,1,.879.1,3.16,3.16,0,0,1,.824.34l.406-1.8q.063-.258.109-.57a3.747,3.747,0,0,0,.047-.547.612.612,0,0,0-.086-.355.482.482,0,0,0-.246-.176,2.467,2.467,0,0,0-.574-.078L41.6-11.1l1.961-.07h.461L42.078-2.523a5.792,5.792,0,0,0-.172,1.156.787.787,0,0,0,.1.453.368.368,0,0,0,.32.141.869.869,0,0,0,.5-.191,5.49,5.49,0,0,0,.75-.73l.445.438a6.989,6.989,0,0,1-1.211,1.07A1.946,1.946,0,0,1,41.75.125a.991.991,0,0,1-.773-.32,1.223,1.223,0,0,1-.289-.852,2.632,2.632,0,0,1,.18-.914Zm.523-2.766a5.219,5.219,0,0,0,.117-1.062,1.275,1.275,0,0,0-.258-.887,1.131,1.131,0,0,0-.859-.277,1.957,1.957,0,0,0-1.43.645,4.429,4.429,0,0,0-1,1.738,6.881,6.881,0,0,0-.363,2.18,2.585,2.585,0,0,0,.223,1.215.784.784,0,0,0,.746.4,1.26,1.26,0,0,0,.492-.105,1.985,1.985,0,0,0,.52-.34,4.055,4.055,0,0,0,.531-.57q.262-.336.48-.676a4.82,4.82,0,0,0,.406-.8,6.443,6.443,0,0,0,.32-1.121Zm9.82,3.2A5.939,5.939,0,0,1,49.574-.3a3.733,3.733,0,0,1-1.809.422,2.236,2.236,0,0,1-1.754-.691,2.78,2.78,0,0,1-.621-1.926,6,6,0,0,1,.3-1.793A5.239,5.239,0,0,1,46.6-6a4.254,4.254,0,0,1,1.461-1.18A4.06,4.06,0,0,1,49.875-7.6a2.22,2.22,0,0,1,1.418.383,1.448,1.448,0,0,1,.473,1.2A2.135,2.135,0,0,1,50.52-4.031a8.1,8.1,0,0,1-3.7.664,5.18,5.18,0,0,0-.094,1.016,1.806,1.806,0,0,0,.32,1.191,1.316,1.316,0,0,0,1.047.371,2.706,2.706,0,0,0,1.3-.312,5.434,5.434,0,0,0,1.23-.961ZM46.953-4.031a8.37,8.37,0,0,0,1.891-.2,2.53,2.53,0,0,0,1.211-.609,1.518,1.518,0,0,0,.422-1.129,1.138,1.138,0,0,0-.223-.746.807.807,0,0,0-.66-.27,2.084,2.084,0,0,0-1.52.8A5.309,5.309,0,0,0,46.953-4.031ZM59.25.133A.617.617,0,0,1,58.871.02a.8.8,0,0,1-.246-.32,1.775,1.775,0,0,1-.133-.488,4.5,4.5,0,0,1-.039-.617,8.929,8.929,0,0,1,.055-.953q.055-.508.141-1.023l.328-2.164q.031-.187.051-.355a2.383,2.383,0,0,0,.02-.246.89.89,0,0,0-.078-.4A.273.273,0,0,0,58.7-6.7a.7.7,0,0,0-.32.09,2.168,2.168,0,0,0-.348.23q-.176.141-.34.3t-.3.3l-.375-.437q.242-.25.516-.5a4.745,4.745,0,0,1,.578-.445,3.069,3.069,0,0,1,.641-.32,2.013,2.013,0,0,1,.688-.121,1.047,1.047,0,0,1,.484.1.765.765,0,0,1,.293.258,1,1,0,0,1,.145.352,1.891,1.891,0,0,1,.039.379q0,.109-.008.211a1.84,1.84,0,0,1-.023.188L59.93-3.289q-.07.445-.117.871a6.979,6.979,0,0,0-.047.754,2.916,2.916,0,0,0,.039.531q.039.2.148.2a1.469,1.469,0,0,0,.648-.207,4.7,4.7,0,0,0,.82-.57,7.864,7.864,0,0,0,.859-.859,7.46,7.46,0,0,0,.773-1.074,6.293,6.293,0,0,0,.559-1.219,4.031,4.031,0,0,0,.215-1.289.682.682,0,0,0-.121-.434.455.455,0,0,0-.379-.152.88.88,0,0,0-.605.254,4.317,4.317,0,0,0-.574.668l-.445-.4a3.672,3.672,0,0,1,.441-.539,3.657,3.657,0,0,1,.539-.453,2.859,2.859,0,0,1,.59-.312,1.648,1.648,0,0,1,.594-.117,1.014,1.014,0,0,1,.813.293,1.169,1.169,0,0,1,.25.785A3.3,3.3,0,0,1,64.8-5.7a7.08,7.08,0,0,1-.375,1.023,11.053,11.053,0,0,1-.578,1.105,11.651,11.651,0,0,1-.742,1.1,10.76,10.76,0,0,1-.867,1.008,6.965,6.965,0,0,1-.957.824,4.969,4.969,0,0,1-1.008.559A2.7,2.7,0,0,1,59.25.133ZM71.711-1.555A5.939,5.939,0,0,1,70.176-.3a3.733,3.733,0,0,1-1.809.422,2.236,2.236,0,0,1-1.754-.691,2.78,2.78,0,0,1-.621-1.926,6,6,0,0,1,.3-1.793A5.239,5.239,0,0,1,67.2-6a4.254,4.254,0,0,1,1.461-1.18A4.06,4.06,0,0,1,70.477-7.6a2.22,2.22,0,0,1,1.418.383,1.448,1.448,0,0,1,.473,1.2,2.135,2.135,0,0,1-1.246,1.992,8.1,8.1,0,0,1-3.7.664,5.18,5.18,0,0,0-.094,1.016,1.806,1.806,0,0,0,.32,1.191A1.316,1.316,0,0,0,68.7-.789,2.706,2.706,0,0,0,70-1.1a5.434,5.434,0,0,0,1.23-.961ZM67.555-4.031a8.37,8.37,0,0,0,1.891-.2,2.53,2.53,0,0,0,1.211-.609,1.518,1.518,0,0,0,.422-1.129,1.138,1.138,0,0,0-.223-.746.807.807,0,0,0-.66-.27,2.084,2.084,0,0,0-1.52.8A5.309,5.309,0,0,0,67.555-4.031Zm7.688-.922a5.6,5.6,0,0,0,.172-1.156.787.787,0,0,0-.1-.453.368.368,0,0,0-.32-.141.874.874,0,0,0-.512.2,5.607,5.607,0,0,0-.738.723L73.3-6.219a7.756,7.756,0,0,1,1.2-1.066A1.905,1.905,0,0,1,75.57-7.6a.982.982,0,0,1,.777.324,1.236,1.236,0,0,1,.285.848,2.689,2.689,0,0,1-.187.922l.094.031A7.228,7.228,0,0,1,78-7.074a2.348,2.348,0,0,1,1.426-.52,1.454,1.454,0,0,1,1.117.418,1.633,1.633,0,0,1,.391,1.16,6.238,6.238,0,0,1-.227,1.4L80.2-2.57a5.873,5.873,0,0,0-.211,1.2.787.787,0,0,0,.1.453.368.368,0,0,0,.32.141.869.869,0,0,0,.5-.191,5.49,5.49,0,0,0,.75-.73l.445.438A7.067,7.067,0,0,1,80.93-.207a2.015,2.015,0,0,1-1.141.332,1.007,1.007,0,0,1-.812-.363,1.391,1.391,0,0,1-.3-.926,6.463,6.463,0,0,1,.258-1.492l.344-1.352q.188-.734.246-1.086a3.628,3.628,0,0,0,.059-.57,1.31,1.31,0,0,0-.18-.777.687.687,0,0,0-.586-.238,1.266,1.266,0,0,0-.707.262,4.031,4.031,0,0,0-.8.789,6.193,6.193,0,0,0-.684,1.023A5.1,5.1,0,0,0,76.2-3.383L75.453,0H74.1ZM87.719-1.477A5.646,5.646,0,0,1,86.41-.266a2.458,2.458,0,0,1-1.316.391,1.45,1.45,0,0,1-1.633-1.648,4.923,4.923,0,0,1,.133-1.1l.922-4.055H83.2l.117-.539a3.154,3.154,0,0,0,.7-.07,1.277,1.277,0,0,0,.4-.172,1.1,1.1,0,0,0,.293-.312,2.919,2.919,0,0,0,.258-.52q.125-.316.375-1.105h1.078l-.43,1.93h2.375L88.2-6.68H85.82l-.7,3.031q-.2.883-.258,1.27a4.658,4.658,0,0,0-.055.621q0,.969.8.969a1.319,1.319,0,0,0,.73-.262,4.9,4.9,0,0,0,.918-.895Zm7.594-5.609.719-.516.5.125L95.383-2.523a5.5,5.5,0,0,0-.172,1.156.787.787,0,0,0,.1.453.368.368,0,0,0,.32.141.869.869,0,0,0,.5-.191,5.49,5.49,0,0,0,.75-.73l.445.438a6.8,6.8,0,0,1-1.2,1.066,1.96,1.96,0,0,1-1.074.316.991.991,0,0,1-.773-.32,1.223,1.223,0,0,1-.289-.852,2.633,2.633,0,0,1,.18-.914l-.1-.031a6.889,6.889,0,0,1-1.422,1.6,2.32,2.32,0,0,1-1.422.508,1.552,1.552,0,0,1-1.332-.648,3.046,3.046,0,0,1-.473-1.82,6.524,6.524,0,0,1,.527-2.582A4.776,4.776,0,0,1,91.4-6.887,3.271,3.271,0,0,1,93.453-7.6a3.809,3.809,0,0,1,.949.113A3.318,3.318,0,0,1,95.313-7.086Zm-.687,2.328a4.931,4.931,0,0,0,.094-.555q.023-.234.023-.508a1.277,1.277,0,0,0-.258-.883,1.145,1.145,0,0,0-.875-.281,1.985,1.985,0,0,0-1.445.648,4.377,4.377,0,0,0-1,1.738A6.913,6.913,0,0,0,90.8-2.422a2.585,2.585,0,0,0,.223,1.215.784.784,0,0,0,.746.4,1.515,1.515,0,0,0,1.012-.445,6.2,6.2,0,0,0,1.023-1.27,5.537,5.537,0,0,0,.746-1.9Zm8.781-.812a1.71,1.71,0,0,0-.457-1.055,1.629,1.629,0,0,0-1.168-.359,1.519,1.519,0,0,0-1,.316,1.027,1.027,0,0,0-.383.832,1.188,1.188,0,0,0,.1.5,1.5,1.5,0,0,0,.395.473,6.87,6.87,0,0,0,.922.633,6.6,6.6,0,0,1,.789.543,2.619,2.619,0,0,1,.469.488,1.7,1.7,0,0,1,.25.512,2.367,2.367,0,0,1,.078.652,1.933,1.933,0,0,1-.371,1.191,2.2,2.2,0,0,1-1.008.738,4.055,4.055,0,0,1-1.449.242A8.237,8.237,0,0,1,99.3.035,10.165,10.165,0,0,1,97.906-.3L98.281-2h.609a1.618,1.618,0,0,0,.422,1.133,1.722,1.722,0,0,0,1.242.383,1.82,1.82,0,0,0,1.16-.332,1.133,1.133,0,0,0,.418-.941,1.435,1.435,0,0,0-.117-.605,1.5,1.5,0,0,0-.383-.488,6.286,6.286,0,0,0-.844-.586A6.85,6.85,0,0,1,99.84-4.1a2.093,2.093,0,0,1-.512-.645,1.784,1.784,0,0,1-.172-.8,1.813,1.813,0,0,1,.332-1.082,2.1,2.1,0,0,1,.949-.715,3.811,3.811,0,0,1,1.438-.25,9.348,9.348,0,0,1,1.324.086,6.181,6.181,0,0,1,1.191.3l-.352,1.641Z" transform="translate(826 11769)" fill="#12263f"/>
    <path id="Trazado_911673" data-name="Trazado 911673" d="M3.047-6.391H4.133A2.387,2.387,0,0,0,5.742-6.93a1.8,1.8,0,0,0,.586-1.414,1.764,1.764,0,0,0-1.992-2,2.072,2.072,0,0,0-1.5.535,1.873,1.873,0,0,0-.559,1.418H.836a2.9,2.9,0,0,1,.988-2.246,3.6,3.6,0,0,1,2.512-.895,3.558,3.558,0,0,1,2.523.852,3.076,3.076,0,0,1,.914,2.367,2.5,2.5,0,0,1-.48,1.438A2.9,2.9,0,0,1,5.984-5.836a2.8,2.8,0,0,1,1.449.984,2.734,2.734,0,0,1,.512,1.68,3.1,3.1,0,0,1-1,2.43,3.745,3.745,0,0,1-2.6.9A3.844,3.844,0,0,1,1.738-.711,2.877,2.877,0,0,1,.734-3H2.188a1.859,1.859,0,0,0,.586,1.438,2.229,2.229,0,0,0,1.57.539,2.187,2.187,0,0,0,1.6-.547A2.108,2.108,0,0,0,6.5-3.141a1.912,1.912,0,0,0-.609-1.523,2.655,2.655,0,0,0-1.758-.547H3.047ZM15.6-11.383v1.227h-.266a3.805,3.805,0,0,0-2.687,1A4.161,4.161,0,0,0,11.492-6.43a3.085,3.085,0,0,1,2.453-1.031,2.95,2.95,0,0,1,2.371,1.047,4.038,4.038,0,0,1,.887,2.7A4.025,4.025,0,0,1,16.246-.9,3.3,3.3,0,0,1,13.68.156,3.247,3.247,0,0,1,11.031-1.1a4.97,4.97,0,0,1-1.016-3.23v-.555a7.488,7.488,0,0,1,1.34-4.8,4.921,4.921,0,0,1,3.988-1.7ZM13.7-6.258a2.306,2.306,0,0,0-1.367.445A2.32,2.32,0,0,0,11.469-4.7v.531A3.731,3.731,0,0,0,12.1-1.9a1.9,1.9,0,0,0,1.578.859,1.838,1.838,0,0,0,1.535-.719,2.982,2.982,0,0,0,.559-1.883,2.983,2.983,0,0,0-.566-1.895A1.816,1.816,0,0,0,13.7-6.258ZM26.047-4.852a6.61,6.61,0,0,1-.867,3.773A3.084,3.084,0,0,1,22.469.156a3.107,3.107,0,0,1-2.7-1.207,6.274,6.274,0,0,1-.906-3.605v-1.93a6.463,6.463,0,0,1,.867-3.727,3.108,3.108,0,0,1,2.719-1.219,3.136,3.136,0,0,1,2.7,1.176,6.237,6.237,0,0,1,.891,3.629ZM24.6-6.828A5.3,5.3,0,0,0,24.086-9.5a1.775,1.775,0,0,0-1.633-.84,1.751,1.751,0,0,0-1.617.836,5.171,5.171,0,0,0-.523,2.57v2.313A5.381,5.381,0,0,0,20.848-1.9a1.771,1.771,0,0,0,1.621.879,1.747,1.747,0,0,0,1.59-.828A5.186,5.186,0,0,0,24.6-4.461Z" transform="translate(977 11744)" fill="#12263f"/>
    <path id="Trazado_911486" data-name="Trazado 911486" d="M-3935.607,175h111.622" transform="translate(4757 11577)" fill="none" stroke="#707070" stroke-width="1"/>
    <path id="Trazado_911675" data-name="Trazado 911675" d="M7.7-6.359H1.188V-7.617H7.7Zm0,3.242H1.188v-1.25H7.7Z" transform="translate(947 11755)" fill="#12263f"/>
    <path id="Trazado_911487" data-name="Trazado 911487" d="M-3935.606,175h34.461" transform="translate(4910 11577)" fill="none" stroke="#707070" stroke-width="1"/>
    <path id="Trazado_911674" data-name="Trazado 911674" d="M5.7,0H4.242V-9.633L1.328-8.562V-9.875L5.469-11.43H5.7Zm4.9-5.7.578-5.672H17v1.336H12.4l-.344,3.1a3.671,3.671,0,0,1,1.9-.492A3.138,3.138,0,0,1,16.422-6.4a4.026,4.026,0,0,1,.914,2.777,3.886,3.886,0,0,1-.949,2.77A3.46,3.46,0,0,1,13.734.156,3.6,3.6,0,0,1,11.273-.68a3.337,3.337,0,0,1-1.086-2.312h1.367a2.3,2.3,0,0,0,.7,1.473,2.162,2.162,0,0,0,1.484.5,1.95,1.95,0,0,0,1.582-.687,2.874,2.874,0,0,0,.574-1.9,2.638,2.638,0,0,0-.621-1.832,2.113,2.113,0,0,0-1.652-.691,2.383,2.383,0,0,0-1.484.414l-.383.313Z" transform="translate(983 11771)" fill="#12263f"/>
    <path id="Trazado_911676" data-name="Trazado 911676" d="M7.7-6.359H1.188V-7.617H7.7Zm0,3.242H1.188v-1.25H7.7Z" transform="translate(1020 11755)" fill="#12263f"/>
    <path id="Trazado_911677" data-name="Trazado 911677" d="M8.4,0H.945V-1.039L4.883-5.414A9.354,9.354,0,0,0,6.09-7.027a2.693,2.693,0,0,0,.332-1.285,2.041,2.041,0,0,0-.539-1.461,1.885,1.885,0,0,0-1.437-.57A2.232,2.232,0,0,0,2.77-9.73a2.343,2.343,0,0,0-.6,1.707H.727a3.355,3.355,0,0,1,1.012-2.539,3.751,3.751,0,0,1,2.707-.969,3.6,3.6,0,0,1,2.508.832,2.838,2.838,0,0,1,.922,2.215q0,1.68-2.141,4L2.688-1.18H8.4Zm7.633-3.82h1.578v1.18H16.031V0H14.578V-2.641H9.4v-.852l5.094-7.883h1.539Zm-4.992,0h3.539V-9.4l-.172.313Z" transform="translate(1041 11754)" fill="#12263f"/>
  </g>
</svg>
