<svg xmlns="http://www.w3.org/2000/svg" width="610" height="162" viewBox="0 0 610 162">
  <g id="Grupo_1118385" data-name="Grupo 1118385" transform="translate(-495 -12177)">
    <rect id="Rectángulo_406788" data-name="Rectángulo 406788" width="610" height="162" rx="12" transform="translate(495 12177)" fill="#feead4"/>
    <path id="Trazado_911678" data-name="Trazado 911678" d="M3.437-2.558q-.114.519-.149.822a4.809,4.809,0,0,0-.035.549.686.686,0,0,0,.2.558,1.2,1.2,0,0,0,.664.2L4.017,0H.5L.6-.431A1.2,1.2,0,0,0,1.1-.6a.949.949,0,0,0,.281-.33,3,3,0,0,0,.211-.514q.1-.3.29-1.173L3.375-9.387A6.929,6.929,0,0,0,3.568-10.8a.694.694,0,0,0-.207-.576,1.175,1.175,0,0,0-.655-.189L2.8-12H6.319l-.1.431a1.635,1.635,0,0,0-.479.158.826.826,0,0,0-.259.264,2.493,2.493,0,0,0-.237.549q-.123.374-.308,1.217ZM9.22-5.572a6.3,6.3,0,0,0,.193-1.3.886.886,0,0,0-.114-.51.414.414,0,0,0-.36-.158.983.983,0,0,0-.576.224,6.308,6.308,0,0,0-.831.813L7.031-7A8.725,8.725,0,0,1,8.376-8.2a2.143,2.143,0,0,1,1.213-.356,1.1,1.1,0,0,1,.875.365,1.391,1.391,0,0,1,.321.954A3.025,3.025,0,0,1,10.573-6.2l.105.035a8.131,8.131,0,0,1,1.639-1.8,2.642,2.642,0,0,1,1.6-.584,1.636,1.636,0,0,1,1.257.47,1.837,1.837,0,0,1,.439,1.305,7.017,7.017,0,0,1-.255,1.573l-.571,2.3a6.607,6.607,0,0,0-.237,1.354.886.886,0,0,0,.114.51.414.414,0,0,0,.36.158.978.978,0,0,0,.563-.215,6.176,6.176,0,0,0,.844-.822l.5.492A7.951,7.951,0,0,1,15.618-.233a2.266,2.266,0,0,1-1.283.374,1.133,1.133,0,0,1-.914-.409,1.565,1.565,0,0,1-.343-1.042,7.271,7.271,0,0,1,.29-1.679l.387-1.521q.211-.826.277-1.222a4.082,4.082,0,0,0,.066-.642,1.474,1.474,0,0,0-.2-.875.772.772,0,0,0-.659-.268,1.424,1.424,0,0,0-.8.294,4.535,4.535,0,0,0-.905.888,6.967,6.967,0,0,0-.769,1.151,5.738,5.738,0,0,0-.475,1.375L9.457,0H7.937ZM20.276.149A.7.7,0,0,1,19.85.022a.9.9,0,0,1-.277-.36,2,2,0,0,1-.149-.549,5.066,5.066,0,0,1-.044-.694,10.045,10.045,0,0,1,.062-1.072q.062-.571.158-1.151l.369-2.435q.035-.211.057-.4a2.681,2.681,0,0,0,.022-.277,1,1,0,0,0-.088-.448.308.308,0,0,0-.3-.176.784.784,0,0,0-.36.1,2.439,2.439,0,0,0-.391.259q-.2.158-.382.338t-.343.338L17.763-7q.272-.281.58-.558a5.338,5.338,0,0,1,.65-.5,3.453,3.453,0,0,1,.721-.36,2.265,2.265,0,0,1,.773-.136,1.178,1.178,0,0,1,.545.11.861.861,0,0,1,.33.29,1.119,1.119,0,0,1,.163.4,2.128,2.128,0,0,1,.044.426q0,.123-.009.237a2.071,2.071,0,0,1-.026.211L21.041-3.7q-.079.5-.132.98a7.852,7.852,0,0,0-.053.848,3.28,3.28,0,0,0,.044.6q.044.229.167.229a1.653,1.653,0,0,0,.729-.233,5.293,5.293,0,0,0,.923-.642,8.847,8.847,0,0,0,.967-.967,8.392,8.392,0,0,0,.87-1.208,7.079,7.079,0,0,0,.628-1.371,4.535,4.535,0,0,0,.242-1.45.767.767,0,0,0-.136-.488.512.512,0,0,0-.426-.171.99.99,0,0,0-.681.286,4.856,4.856,0,0,0-.646.751l-.5-.448a4.131,4.131,0,0,1,.5-.606,4.114,4.114,0,0,1,.606-.51,3.216,3.216,0,0,1,.664-.352,1.854,1.854,0,0,1,.668-.132,1.141,1.141,0,0,1,.914.33,1.315,1.315,0,0,1,.281.883,3.709,3.709,0,0,1-.149.967,7.965,7.965,0,0,1-.422,1.151,12.435,12.435,0,0,1-.65,1.244,13.107,13.107,0,0,1-.835,1.239,12.1,12.1,0,0,1-.976,1.134,7.836,7.836,0,0,1-1.077.927,5.589,5.589,0,0,1-1.134.628A3.039,3.039,0,0,1,20.276.149Zm14.019-1.9A6.681,6.681,0,0,1,32.568-.334a4.2,4.2,0,0,1-2.035.475A2.515,2.515,0,0,1,28.56-.637a3.127,3.127,0,0,1-.7-2.167A6.746,6.746,0,0,1,28.2-4.821a5.894,5.894,0,0,1,1.024-1.934,4.786,4.786,0,0,1,1.644-1.327,4.567,4.567,0,0,1,2.039-.47,2.5,2.5,0,0,1,1.6.431,1.629,1.629,0,0,1,.532,1.345,2.4,2.4,0,0,1-1.4,2.241,9.106,9.106,0,0,1-4.162.747,5.828,5.828,0,0,0-.105,1.143,2.032,2.032,0,0,0,.36,1.34A1.48,1.48,0,0,0,30.9-.888a3.044,3.044,0,0,0,1.463-.352A6.114,6.114,0,0,0,33.75-2.32ZM29.619-4.535a9.416,9.416,0,0,0,2.127-.224,2.846,2.846,0,0,0,1.362-.686,1.707,1.707,0,0,0,.475-1.27,1.281,1.281,0,0,0-.25-.839.908.908,0,0,0-.743-.3,2.345,2.345,0,0,0-1.709.9A5.972,5.972,0,0,0,29.619-4.535Zm8.648-1.037a6.3,6.3,0,0,0,.193-1.3.886.886,0,0,0-.114-.51.414.414,0,0,0-.36-.158.983.983,0,0,0-.576.224,6.308,6.308,0,0,0-.831.813L36.079-7a8.725,8.725,0,0,1,1.345-1.2,2.143,2.143,0,0,1,1.213-.356,1.1,1.1,0,0,1,.875.365,1.391,1.391,0,0,1,.321.954A3.025,3.025,0,0,1,39.621-6.2l.105.035a8.131,8.131,0,0,1,1.639-1.8,2.642,2.642,0,0,1,1.6-.584,1.636,1.636,0,0,1,1.257.47,1.837,1.837,0,0,1,.439,1.305,7.017,7.017,0,0,1-.255,1.573l-.571,2.3A6.607,6.607,0,0,0,43.6-1.538a.886.886,0,0,0,.114.51.414.414,0,0,0,.36.158.978.978,0,0,0,.563-.215,6.176,6.176,0,0,0,.844-.822l.5.492A7.951,7.951,0,0,1,44.666-.233a2.266,2.266,0,0,1-1.283.374,1.133,1.133,0,0,1-.914-.409,1.565,1.565,0,0,1-.343-1.042,7.271,7.271,0,0,1,.29-1.679L42.8-4.509q.211-.826.277-1.222a4.081,4.081,0,0,0,.066-.642,1.474,1.474,0,0,0-.2-.875.772.772,0,0,0-.659-.268,1.424,1.424,0,0,0-.8.294,4.535,4.535,0,0,0-.905.888,6.967,6.967,0,0,0-.769,1.151,5.738,5.738,0,0,0-.475,1.375L38.5,0H36.984ZM52.3-1.661A6.352,6.352,0,0,1,50.832-.3a2.765,2.765,0,0,1-1.481.439,1.631,1.631,0,0,1-1.837-1.854,5.538,5.538,0,0,1,.149-1.239L48.7-7.515H47.224l.132-.606a3.548,3.548,0,0,0,.787-.079,1.437,1.437,0,0,0,.448-.193,1.235,1.235,0,0,0,.33-.352,3.284,3.284,0,0,0,.29-.584q.141-.356.422-1.244h1.213L50.361-8.4h2.672l-.193.888H50.168L49.386-4.1q-.229.993-.29,1.428a5.241,5.241,0,0,0-.062.7q0,1.09.905,1.09a1.483,1.483,0,0,0,.822-.294,5.516,5.516,0,0,0,1.033-1.006Zm8.543-6.311.809-.58.563.141L60.926-2.839a6.189,6.189,0,0,0-.193,1.3.886.886,0,0,0,.114.51.414.414,0,0,0,.36.158.978.978,0,0,0,.563-.215,6.176,6.176,0,0,0,.844-.822l.5.492a7.649,7.649,0,0,1-1.349,1.2,2.205,2.205,0,0,1-1.208.356,1.114,1.114,0,0,1-.87-.36,1.376,1.376,0,0,1-.325-.958,2.962,2.962,0,0,1,.2-1.028l-.114-.035a7.75,7.75,0,0,1-1.6,1.8,2.61,2.61,0,0,1-1.6.571,1.746,1.746,0,0,1-1.5-.729,3.426,3.426,0,0,1-.532-2.048,7.34,7.34,0,0,1,.593-2.9,5.373,5.373,0,0,1,1.63-2.2,3.68,3.68,0,0,1,2.312-.8,4.285,4.285,0,0,1,1.068.127A3.733,3.733,0,0,1,60.847-7.972Zm-.773,2.619a5.547,5.547,0,0,0,.105-.624q.026-.264.026-.571a1.437,1.437,0,0,0-.29-.993,1.289,1.289,0,0,0-.984-.316,2.233,2.233,0,0,0-1.626.729A4.924,4.924,0,0,0,56.18-5.172a7.777,7.777,0,0,0-.4,2.448,2.909,2.909,0,0,0,.25,1.367.882.882,0,0,0,.839.453A1.7,1.7,0,0,0,58-1.406a6.972,6.972,0,0,0,1.151-1.428,6.229,6.229,0,0,0,.839-2.14Zm7.154-.932A7.324,7.324,0,0,1,68.884-8,2.829,2.829,0,0,1,70.5-8.543a5,5,0,0,1,1.072.1l-.422,1.969h-.905a2.034,2.034,0,0,0-.149-.571.633.633,0,0,0-.229-.281.641.641,0,0,0-.334-.079,1.2,1.2,0,0,0-.69.272A4.722,4.722,0,0,0,68-6.284a6.756,6.756,0,0,0-.743,1.116A5.713,5.713,0,0,0,66.8-3.806L65.962,0H64.441l1.274-5.572a8.229,8.229,0,0,0,.158-.817,4.147,4.147,0,0,0,.035-.483.886.886,0,0,0-.114-.51.414.414,0,0,0-.36-.158.983.983,0,0,0-.576.224,6.308,6.308,0,0,0-.831.813L63.527-7a8.449,8.449,0,0,1,1.354-1.2,2.156,2.156,0,0,1,1.2-.356,1.1,1.1,0,0,1,.875.365,1.391,1.391,0,0,1,.321.954,2.675,2.675,0,0,1-.167.905Zm9.624-5.563-.4,1.705H74.892l.4-1.705Zm-2.83,5.924a6.492,6.492,0,0,0,.2-1.318.634.634,0,0,0-.189-.536,1.426,1.426,0,0,0-.743-.158l.1-.466,2.145-.079h.519L74.786-2.839a6.516,6.516,0,0,0-.193,1.3.886.886,0,0,0,.114.51.414.414,0,0,0,.36.158.978.978,0,0,0,.563-.215,6.176,6.176,0,0,0,.844-.822l.5.492a7.669,7.669,0,0,1-1.4,1.23,2.276,2.276,0,0,1-1.2.325,1.123,1.123,0,0,1-.914-.417,1.628,1.628,0,0,1-.343-1.068,7.7,7.7,0,0,1,.246-1.705Zm7.4,6.073a2.829,2.829,0,0,1-2.114-.765,3.005,3.005,0,0,1-.751-2.2,7.411,7.411,0,0,1,.211-1.626,6.088,6.088,0,0,1,.914-2.18,4.406,4.406,0,0,1,1.582-1.428,4.355,4.355,0,0,1,2.065-.5,2.836,2.836,0,0,1,2.145.769,3.054,3.054,0,0,1,.738,2.2,7.448,7.448,0,0,1-.356,2.18,5.971,5.971,0,0,1-.976,1.951A4.014,4.014,0,0,1,83.4-.25,4.647,4.647,0,0,1,81.422.149ZM80.095-2.435a2.142,2.142,0,0,0,.4,1.428A1.513,1.513,0,0,0,81.7-.545a1.981,1.981,0,0,0,1.529-.773,5.561,5.561,0,0,0,1.055-2.167,9.31,9.31,0,0,0,.387-2.448A2.317,2.317,0,0,0,84.3-7.361a1.362,1.362,0,0,0-1.151-.479,2.077,2.077,0,0,0-1.6.765,5.416,5.416,0,0,0-1.072,2.188A9.48,9.48,0,0,0,80.095-2.435ZM95.379.149A6.162,6.162,0,0,1,94.14,2.993a2.7,2.7,0,0,1-2.1.936,2.988,2.988,0,0,1-.58-.044l.149-.773a1.907,1.907,0,0,0,.413.026,1.129,1.129,0,0,0,.677-.2,1.827,1.827,0,0,0,.523-.7A6.756,6.756,0,0,0,93.665.844l1.89-8.358H94.069l.132-.606a5.537,5.537,0,0,0,.848-.1.961.961,0,0,0,.4-.185,1.026,1.026,0,0,0,.246-.321,4.956,4.956,0,0,0,.259-.725A4.678,4.678,0,0,1,97.4-11.826a3.777,3.777,0,0,1,2.474-.8,6.837,6.837,0,0,1,1.485.141l-.343,1.494h-.773a1.692,1.692,0,0,0-.321-.721.746.746,0,0,0-.584-.22,1.318,1.318,0,0,0-.848.277,2.168,2.168,0,0,0-.593.822,8.011,8.011,0,0,0-.457,1.468l-.22.958h2.259l-.193.888H97.014Zm11.074-12-.4,1.705h-1.556l.4-1.705Zm-2.83,5.924a6.492,6.492,0,0,0,.2-1.318.634.634,0,0,0-.189-.536,1.426,1.426,0,0,0-.743-.158l.1-.466,2.145-.079h.519l-1.266,5.643a6.516,6.516,0,0,0-.193,1.3.886.886,0,0,0,.114.51.414.414,0,0,0,.36.158.978.978,0,0,0,.563-.215,6.176,6.176,0,0,0,.844-.822l.5.492a7.669,7.669,0,0,1-1.4,1.23,2.276,2.276,0,0,1-1.2.325,1.123,1.123,0,0,1-.914-.417,1.628,1.628,0,0,1-.343-1.068,7.7,7.7,0,0,1,.246-1.705Zm5.968.352a6.3,6.3,0,0,0,.193-1.3.886.886,0,0,0-.114-.51.414.414,0,0,0-.36-.158.983.983,0,0,0-.576.224,6.308,6.308,0,0,0-.831.813L107.4-7a8.725,8.725,0,0,1,1.345-1.2,2.143,2.143,0,0,1,1.213-.356,1.1,1.1,0,0,1,.875.365,1.391,1.391,0,0,1,.321.954,3.025,3.025,0,0,1-.211,1.037l.105.035a8.131,8.131,0,0,1,1.639-1.8,2.642,2.642,0,0,1,1.6-.584,1.636,1.636,0,0,1,1.257.47,1.837,1.837,0,0,1,.439,1.305,7.017,7.017,0,0,1-.255,1.573l-.571,2.3a6.607,6.607,0,0,0-.237,1.354.886.886,0,0,0,.114.51.414.414,0,0,0,.36.158.978.978,0,0,0,.563-.215,6.176,6.176,0,0,0,.844-.822l.5.492a7.951,7.951,0,0,1-1.318,1.182,2.266,2.266,0,0,1-1.283.374,1.133,1.133,0,0,1-.914-.409,1.565,1.565,0,0,1-.343-1.042,7.271,7.271,0,0,1,.29-1.679l.387-1.521q.211-.826.277-1.222a4.081,4.081,0,0,0,.066-.642,1.474,1.474,0,0,0-.2-.875.772.772,0,0,0-.659-.268,1.424,1.424,0,0,0-.8.294,4.535,4.535,0,0,0-.905.888,6.967,6.967,0,0,0-.769,1.151,5.738,5.738,0,0,0-.475,1.375L109.828,0h-1.521Zm15.478-2.4.809-.58.563.141-1.292,5.572a6.189,6.189,0,0,0-.193,1.3.886.886,0,0,0,.114.51.414.414,0,0,0,.36.158.978.978,0,0,0,.563-.215,6.176,6.176,0,0,0,.844-.822l.5.492a7.649,7.649,0,0,1-1.349,1.2,2.205,2.205,0,0,1-1.208.356,1.114,1.114,0,0,1-.87-.36,1.376,1.376,0,0,1-.325-.958,2.962,2.962,0,0,1,.2-1.028l-.114-.035a7.75,7.75,0,0,1-1.6,1.8,2.61,2.61,0,0,1-1.6.571,1.746,1.746,0,0,1-1.5-.729,3.426,3.426,0,0,1-.532-2.048,7.34,7.34,0,0,1,.593-2.9,5.373,5.373,0,0,1,1.63-2.2,3.68,3.68,0,0,1,2.312-.8,4.285,4.285,0,0,1,1.068.127A3.733,3.733,0,0,1,125.068-7.972Zm-.773,2.619a5.547,5.547,0,0,0,.105-.624q.026-.264.026-.571a1.437,1.437,0,0,0-.29-.993,1.289,1.289,0,0,0-.984-.316,2.233,2.233,0,0,0-1.626.729A4.924,4.924,0,0,0,120.4-5.172a7.777,7.777,0,0,0-.4,2.448,2.909,2.909,0,0,0,.25,1.367.882.882,0,0,0,.839.453,1.7,1.7,0,0,0,1.138-.5,6.972,6.972,0,0,0,1.151-1.428,6.229,6.229,0,0,0,.839-2.14Zm6.284-4.737q.105-.466.149-.743a3.294,3.294,0,0,0,.044-.514.689.689,0,0,0-.1-.4.542.542,0,0,0-.277-.2,2.776,2.776,0,0,0-.646-.088l.105-.457,2.215-.079h.519L130.43-2.839a6.633,6.633,0,0,0-.193,1.3.886.886,0,0,0,.114.51.414.414,0,0,0,.36.158.978.978,0,0,0,.563-.215,6.176,6.176,0,0,0,.844-.822l.5.492a7.666,7.666,0,0,1-1.393,1.226,2.275,2.275,0,0,1-1.208.33,1.123,1.123,0,0,1-.914-.417,1.628,1.628,0,0,1-.343-1.068,8.612,8.612,0,0,1,.246-1.705ZM143.8-2.241a7.75,7.75,0,0,1-1.6,1.8,2.61,2.61,0,0,1-1.6.571A1.746,1.746,0,0,1,139.1-.6a3.426,3.426,0,0,1-.532-2.048,7.34,7.34,0,0,1,.593-2.9,5.373,5.373,0,0,1,1.63-2.2,3.68,3.68,0,0,1,2.312-.8,4.189,4.189,0,0,1,.989.11,3.555,3.555,0,0,1,.927.382l.457-2.03q.07-.29.123-.642a4.215,4.215,0,0,0,.053-.615.689.689,0,0,0-.1-.4.542.542,0,0,0-.277-.2,2.776,2.776,0,0,0-.646-.088l.105-.457,2.206-.079h.519l-2.188,9.729a6.516,6.516,0,0,0-.193,1.3.886.886,0,0,0,.114.51.414.414,0,0,0,.36.158.978.978,0,0,0,.563-.215,6.176,6.176,0,0,0,.844-.822l.5.492a7.863,7.863,0,0,1-1.362,1.2,2.189,2.189,0,0,1-1.2.352,1.114,1.114,0,0,1-.87-.36,1.376,1.376,0,0,1-.325-.958,2.962,2.962,0,0,1,.2-1.028Zm.589-3.111a5.871,5.871,0,0,0,.132-1.2,1.434,1.434,0,0,0-.29-1,1.273,1.273,0,0,0-.967-.312,2.2,2.2,0,0,0-1.608.725,4.983,4.983,0,0,0-1.121,1.956,7.741,7.741,0,0,0-.409,2.452,2.909,2.909,0,0,0,.25,1.367.882.882,0,0,0,.839.453,1.417,1.417,0,0,0,.554-.119,2.234,2.234,0,0,0,.584-.382,4.561,4.561,0,0,0,.6-.642q.294-.378.541-.76a5.422,5.422,0,0,0,.457-.905,7.248,7.248,0,0,0,.36-1.261Zm11.048,3.6a6.681,6.681,0,0,1-1.727,1.415,4.2,4.2,0,0,1-2.035.475A2.515,2.515,0,0,1,149.7-.637,3.127,3.127,0,0,1,149-2.8a6.746,6.746,0,0,1,.338-2.017,5.894,5.894,0,0,1,1.024-1.934,4.786,4.786,0,0,1,1.644-1.327,4.567,4.567,0,0,1,2.039-.47,2.5,2.5,0,0,1,1.6.431,1.629,1.629,0,0,1,.532,1.345,2.4,2.4,0,0,1-1.4,2.241,9.106,9.106,0,0,1-4.162.747,5.828,5.828,0,0,0-.105,1.143,2.032,2.032,0,0,0,.36,1.34,1.48,1.48,0,0,0,1.178.417,3.044,3.044,0,0,0,1.463-.352A6.114,6.114,0,0,0,154.89-2.32Zm-4.676-2.786a9.416,9.416,0,0,0,2.127-.224,2.846,2.846,0,0,0,1.362-.686,1.707,1.707,0,0,0,.475-1.27,1.281,1.281,0,0,0-.25-.839.908.908,0,0,0-.743-.3,2.345,2.345,0,0,0-1.709.9A5.972,5.972,0,0,0,150.759-4.535Zm13.069-1.011a6.217,6.217,0,0,0,.185-1.327.886.886,0,0,0-.114-.51.414.414,0,0,0-.36-.158.983.983,0,0,0-.576.224,6.308,6.308,0,0,0-.831.813l-.5-.492a8.58,8.58,0,0,1,1.34-1.191,2.154,2.154,0,0,1,1.217-.365,1.1,1.1,0,0,1,.866.36,1.387,1.387,0,0,1,.321.958,2.982,2.982,0,0,1-.2,1.037l.105.035q1.626-2.382,3.234-2.382a1.738,1.738,0,0,1,1.49.729,3.443,3.443,0,0,1,.532,2.057A7.35,7.35,0,0,1,169.95-2.9a5.434,5.434,0,0,1-1.622,2.224,3.643,3.643,0,0,1-2.32.822,3.459,3.459,0,0,1-1.942-.51l-.4,1.925a5.173,5.173,0,0,0-.132,1.028.674.674,0,0,0,.2.549,1.506,1.506,0,0,0,.769.215l-.07.431H161.71Zm.888,2.487q-.088.466-.11.712t-.022.483a1.419,1.419,0,0,0,.294,1,1.357,1.357,0,0,0,1.015.312,1.935,1.935,0,0,0,.826-.176,2.562,2.562,0,0,0,.716-.51,3.751,3.751,0,0,0,.611-.809,6.354,6.354,0,0,0,.488-1.1,8.019,8.019,0,0,0,.325-1.292,7.636,7.636,0,0,0,.11-1.244,2.847,2.847,0,0,0-.259-1.375.878.878,0,0,0-.822-.453,1.532,1.532,0,0,0-.883.3,4.687,4.687,0,0,0-.954.971,6.455,6.455,0,0,0-.809,1.318,7.012,7.012,0,0,0-.457,1.494Zm10.644-3.226A7.324,7.324,0,0,1,177.016-8a2.829,2.829,0,0,1,1.613-.545,5,5,0,0,1,1.072.1l-.422,1.969h-.905a2.034,2.034,0,0,0-.149-.571A.633.633,0,0,0,178-7.33a.641.641,0,0,0-.334-.079,1.2,1.2,0,0,0-.69.272,4.722,4.722,0,0,0-.839.853,6.756,6.756,0,0,0-.743,1.116,5.713,5.713,0,0,0-.461,1.362L174.094,0h-1.521l1.274-5.572a8.229,8.229,0,0,0,.158-.817,4.147,4.147,0,0,0,.035-.483.886.886,0,0,0-.114-.51.414.414,0,0,0-.36-.158.983.983,0,0,0-.576.224,6.308,6.308,0,0,0-.831.813l-.5-.492a8.449,8.449,0,0,1,1.354-1.2,2.156,2.156,0,0,1,1.2-.356,1.1,1.1,0,0,1,.875.365,1.391,1.391,0,0,1,.321.954,2.675,2.675,0,0,1-.167.905ZM183.85.149a2.829,2.829,0,0,1-2.114-.765,3.005,3.005,0,0,1-.751-2.2,7.411,7.411,0,0,1,.211-1.626,6.088,6.088,0,0,1,.914-2.18,4.406,4.406,0,0,1,1.582-1.428,4.355,4.355,0,0,1,2.065-.5,2.836,2.836,0,0,1,2.145.769,3.054,3.054,0,0,1,.738,2.2,7.448,7.448,0,0,1-.356,2.18,5.971,5.971,0,0,1-.976,1.951A4.014,4.014,0,0,1,185.827-.25,4.647,4.647,0,0,1,183.85.149Zm-1.327-2.584a2.142,2.142,0,0,0,.4,1.428,1.513,1.513,0,0,0,1.208.461,1.981,1.981,0,0,0,1.529-.773,5.561,5.561,0,0,0,1.055-2.167,9.31,9.31,0,0,0,.387-2.448,2.317,2.317,0,0,0-.369-1.428,1.362,1.362,0,0,0-1.151-.479,2.077,2.077,0,0,0-1.6.765,5.416,5.416,0,0,0-1.072,2.188A9.48,9.48,0,0,0,182.522-2.435Zm13.236.193a7.75,7.75,0,0,1-1.6,1.8,2.61,2.61,0,0,1-1.6.571,1.746,1.746,0,0,1-1.5-.729,3.426,3.426,0,0,1-.532-2.048,7.34,7.34,0,0,1,.593-2.9,5.373,5.373,0,0,1,1.63-2.2,3.68,3.68,0,0,1,2.312-.8,4.189,4.189,0,0,1,.989.11,3.555,3.555,0,0,1,.927.382l.457-2.03q.07-.29.123-.642a4.215,4.215,0,0,0,.053-.615.689.689,0,0,0-.1-.4.542.542,0,0,0-.277-.2,2.776,2.776,0,0,0-.646-.088l.105-.457,2.206-.079h.519l-2.188,9.729a6.516,6.516,0,0,0-.193,1.3.886.886,0,0,0,.114.51.414.414,0,0,0,.36.158.978.978,0,0,0,.563-.215,6.176,6.176,0,0,0,.844-.822l.5.492a7.863,7.863,0,0,1-1.362,1.2,2.189,2.189,0,0,1-1.2.352A1.114,1.114,0,0,1,196-.22a1.376,1.376,0,0,1-.325-.958,2.962,2.962,0,0,1,.2-1.028Zm.589-3.111a5.871,5.871,0,0,0,.132-1.2,1.434,1.434,0,0,0-.29-1,1.273,1.273,0,0,0-.967-.312,2.2,2.2,0,0,0-1.608.725,4.983,4.983,0,0,0-1.121,1.956,7.741,7.741,0,0,0-.409,2.452,2.909,2.909,0,0,0,.25,1.367.882.882,0,0,0,.839.453,1.417,1.417,0,0,0,.554-.119,2.234,2.234,0,0,0,.584-.382,4.561,4.561,0,0,0,.6-.642q.294-.378.541-.76a5.422,5.422,0,0,0,.457-.905,7.248,7.248,0,0,0,.36-1.261Zm11.619,2.514a6.3,6.3,0,0,0-.193,1.3.886.886,0,0,0,.114.51.414.414,0,0,0,.36.158.978.978,0,0,0,.563-.215,6.176,6.176,0,0,0,.844-.822l.5.492a7.454,7.454,0,0,1-1.362,1.2,2.218,2.218,0,0,1-1.2.352,1.114,1.114,0,0,1-.87-.36,1.376,1.376,0,0,1-.325-.958,2.973,2.973,0,0,1,.211-1.037l-.105-.035a8.117,8.117,0,0,1-1.648,1.8,2.643,2.643,0,0,1-1.6.58,1.636,1.636,0,0,1-1.257-.47,1.837,1.837,0,0,1-.439-1.305,7.017,7.017,0,0,1,.255-1.573l.571-2.3a6.607,6.607,0,0,0,.237-1.354.886.886,0,0,0-.114-.51.414.414,0,0,0-.36-.158.983.983,0,0,0-.576.224,6.308,6.308,0,0,0-.831.813L200.25-7a11.423,11.423,0,0,1,1.125-1.037,2.694,2.694,0,0,1,.725-.4,2.4,2.4,0,0,1,.778-.119,1.11,1.11,0,0,1,.888.378,1.51,1.51,0,0,1,.325,1.02,7.059,7.059,0,0,1-.272,1.731L203.432-3.9q-.149.58-.215.905t-.1.563a3.177,3.177,0,0,0-.031.4,1.474,1.474,0,0,0,.2.875.772.772,0,0,0,.659.268,1.424,1.424,0,0,0,.8-.294,4.535,4.535,0,0,0,.905-.888,6.967,6.967,0,0,0,.769-1.151,5.738,5.738,0,0,0,.475-1.375l.835-3.806h1.521Zm9.018-3.454a3.961,3.961,0,0,0-.11-.967.835.835,0,0,0-.3-.448.985.985,0,0,0-.584-.149,2.2,2.2,0,0,0-1.6.708,5.188,5.188,0,0,0-1.156,2,7.615,7.615,0,0,0-.448,2.492,2.1,2.1,0,0,0,.352,1.332,1.275,1.275,0,0,0,1.055.435,2.969,2.969,0,0,0,1.384-.3,5.183,5.183,0,0,0,1.235-.954l.536.536a5.833,5.833,0,0,1-1.666,1.336,3.966,3.966,0,0,1-1.806.422,2.428,2.428,0,0,1-1.934-.756,3.249,3.249,0,0,1-.659-2.2,6.971,6.971,0,0,1,.352-2.065,6.046,6.046,0,0,1,1.028-1.978,4.368,4.368,0,0,1,1.582-1.274,4.522,4.522,0,0,1,1.934-.422,8.307,8.307,0,0,1,2.153.264l-.431,1.986Zm7.77,4.632A6.352,6.352,0,0,1,223.282-.3,2.765,2.765,0,0,1,221.8.141a1.631,1.631,0,0,1-1.837-1.854,5.538,5.538,0,0,1,.149-1.239l1.037-4.562h-1.477l.132-.606a3.548,3.548,0,0,0,.787-.079,1.437,1.437,0,0,0,.448-.193,1.235,1.235,0,0,0,.33-.352,3.284,3.284,0,0,0,.29-.584q.141-.356.422-1.244h1.213L222.812-8.4h2.672l-.193.888h-2.672l-.782,3.41q-.229.993-.29,1.428a5.241,5.241,0,0,0-.062.7q0,1.09.905,1.09a1.483,1.483,0,0,0,.822-.294,5.516,5.516,0,0,0,1.033-1.006ZM229.579.149a2.829,2.829,0,0,1-2.114-.765,3.005,3.005,0,0,1-.751-2.2,7.411,7.411,0,0,1,.211-1.626,6.088,6.088,0,0,1,.914-2.18,4.406,4.406,0,0,1,1.582-1.428,4.355,4.355,0,0,1,2.065-.5,2.836,2.836,0,0,1,2.145.769,3.054,3.054,0,0,1,.738,2.2,7.448,7.448,0,0,1-.356,2.18,5.971,5.971,0,0,1-.976,1.951A4.014,4.014,0,0,1,231.557-.25,4.647,4.647,0,0,1,229.579.149Zm-1.327-2.584a2.142,2.142,0,0,0,.4,1.428,1.513,1.513,0,0,0,1.208.461,1.981,1.981,0,0,0,1.529-.773,5.561,5.561,0,0,0,1.055-2.167,9.31,9.31,0,0,0,.387-2.448,2.317,2.317,0,0,0-.369-1.428,1.362,1.362,0,0,0-1.151-.479,2.077,2.077,0,0,0-1.6.765,5.416,5.416,0,0,0-1.072,2.188A9.48,9.48,0,0,0,228.252-2.435Zm13.711-3.832a1.923,1.923,0,0,0-.514-1.187,1.833,1.833,0,0,0-1.314-.4,1.708,1.708,0,0,0-1.125.356,1.155,1.155,0,0,0-.431.936,1.336,1.336,0,0,0,.11.558,1.69,1.69,0,0,0,.444.532,7.729,7.729,0,0,0,1.037.712,7.428,7.428,0,0,1,.888.611,2.946,2.946,0,0,1,.527.549,1.909,1.909,0,0,1,.281.576,2.664,2.664,0,0,1,.088.734,2.174,2.174,0,0,1-.417,1.34,2.476,2.476,0,0,1-1.134.831,4.562,4.562,0,0,1-1.63.272A9.266,9.266,0,0,1,237.34.04a11.435,11.435,0,0,1-1.564-.374L236.2-2.25h.686a1.82,1.82,0,0,0,.475,1.274,1.937,1.937,0,0,0,1.4.431,2.047,2.047,0,0,0,1.305-.374,1.274,1.274,0,0,0,.47-1.059,1.614,1.614,0,0,0-.132-.681,1.692,1.692,0,0,0-.431-.549,7.072,7.072,0,0,0-.949-.659,7.706,7.706,0,0,1-1.068-.747,2.355,2.355,0,0,1-.576-.725,2.008,2.008,0,0,1-.193-.9,2.04,2.04,0,0,1,.374-1.217,2.359,2.359,0,0,1,1.068-.8,4.287,4.287,0,0,1,1.617-.281,10.517,10.517,0,0,1,1.49.1,6.954,6.954,0,0,1,1.34.334l-.4,1.846Zm12.208,4.605A6.352,6.352,0,0,1,252.7-.3a2.765,2.765,0,0,1-1.481.439,1.631,1.631,0,0,1-1.837-1.854,5.538,5.538,0,0,1,.149-1.239l1.037-4.562h-1.477l.132-.606a3.548,3.548,0,0,0,.787-.079,1.437,1.437,0,0,0,.448-.193,1.235,1.235,0,0,0,.33-.352,3.284,3.284,0,0,0,.29-.584q.141-.356.422-1.244h1.213L252.229-8.4H254.9l-.193.888h-2.672l-.782,3.41q-.229.993-.29,1.428a5.241,5.241,0,0,0-.062.7q0,1.09.905,1.09a1.483,1.483,0,0,0,.822-.294,5.516,5.516,0,0,0,1.033-1.006Zm8.35-.088a6.681,6.681,0,0,1-1.727,1.415,4.2,4.2,0,0,1-2.035.475,2.515,2.515,0,0,1-1.973-.778,3.127,3.127,0,0,1-.7-2.167,6.746,6.746,0,0,1,.338-2.017,5.894,5.894,0,0,1,1.024-1.934,4.786,4.786,0,0,1,1.644-1.327,4.567,4.567,0,0,1,2.039-.47,2.5,2.5,0,0,1,1.6.431,1.629,1.629,0,0,1,.532,1.345,2.4,2.4,0,0,1-1.4,2.241,9.106,9.106,0,0,1-4.162.747,5.828,5.828,0,0,0-.105,1.143,2.032,2.032,0,0,0,.36,1.34,1.48,1.48,0,0,0,1.178.417,3.044,3.044,0,0,0,1.463-.352,6.114,6.114,0,0,0,1.384-1.081Zm-4.676-2.786a9.416,9.416,0,0,0,2.127-.224,2.846,2.846,0,0,0,1.362-.686,1.707,1.707,0,0,0,.475-1.27,1.281,1.281,0,0,0-.25-.839.908.908,0,0,0-.743-.3,2.345,2.345,0,0,0-1.709.9A5.972,5.972,0,0,0,257.845-4.535ZM268-6.284A7.324,7.324,0,0,1,269.653-8a2.829,2.829,0,0,1,1.613-.545,5,5,0,0,1,1.072.1l-.422,1.969h-.905a2.034,2.034,0,0,0-.149-.571.633.633,0,0,0-.229-.281.641.641,0,0,0-.334-.079,1.2,1.2,0,0,0-.69.272,4.722,4.722,0,0,0-.839.853,6.756,6.756,0,0,0-.743,1.116,5.713,5.713,0,0,0-.461,1.362L266.73,0H265.21l1.274-5.572a8.229,8.229,0,0,0,.158-.817,4.147,4.147,0,0,0,.035-.483.886.886,0,0,0-.114-.51.414.414,0,0,0-.36-.158.983.983,0,0,0-.576.224,6.308,6.308,0,0,0-.831.813L264.3-7a8.449,8.449,0,0,1,1.354-1.2,2.156,2.156,0,0,1,1.2-.356,1.1,1.1,0,0,1,.875.365,1.391,1.391,0,0,1,.321.954,2.675,2.675,0,0,1-.167.905Zm8.525.114a7.08,7.08,0,0,1,1.608-1.789,2.723,2.723,0,0,1,1.617-.584,1.655,1.655,0,0,1,1.283.479,1.978,1.978,0,0,1,.439,1.384v.123a1.066,1.066,0,0,1-.009.132,6.432,6.432,0,0,1,1.507-1.6,2.7,2.7,0,0,1,1.56-.523,1.633,1.633,0,0,1,1.248.466,1.834,1.834,0,0,1,.439,1.31,7.017,7.017,0,0,1-.255,1.573l-.571,2.3a6.607,6.607,0,0,0-.237,1.354.886.886,0,0,0,.114.51.414.414,0,0,0,.36.158.978.978,0,0,0,.563-.215,6.176,6.176,0,0,0,.844-.822l.5.492a8.312,8.312,0,0,1-1.318,1.178,2.247,2.247,0,0,1-1.283.378,1.133,1.133,0,0,1-.914-.409,1.565,1.565,0,0,1-.343-1.042,7.271,7.271,0,0,1,.29-1.679l.387-1.521q.211-.826.277-1.222a4.081,4.081,0,0,0,.066-.642,1.474,1.474,0,0,0-.2-.875.772.772,0,0,0-.659-.268,1.461,1.461,0,0,0-.791.277,4.007,4.007,0,0,0-.888.861,7.144,7.144,0,0,0-.76,1.151,5.538,5.538,0,0,0-.47,1.384L280.125,0H278.6l1.011-4.465q.185-.817.25-1.208a4.134,4.134,0,0,0,.066-.672,1.414,1.414,0,0,0-.224-.9.86.86,0,0,0-.7-.268,1.443,1.443,0,0,0-.76.277,4.035,4.035,0,0,0-.91.888,6.443,6.443,0,0,0-.756,1.173,6.466,6.466,0,0,0-.457,1.371L275.291,0h-1.521l1.283-5.572a6.3,6.3,0,0,0,.193-1.3.886.886,0,0,0-.114-.51.414.414,0,0,0-.36-.158.983.983,0,0,0-.576.224,6.308,6.308,0,0,0-.831.813l-.5-.492A8.576,8.576,0,0,1,274.2-8.178a2.158,2.158,0,0,1,1.226-.374,1.1,1.1,0,0,1,.875.365,1.391,1.391,0,0,1,.321.954,2.962,2.962,0,0,1-.2,1.028Zm16.189-5.678-.4,1.705h-1.556l.4-1.705Zm-2.83,5.924a6.492,6.492,0,0,0,.2-1.318.634.634,0,0,0-.189-.536,1.426,1.426,0,0,0-.743-.158l.1-.466,2.145-.079h.519l-1.266,5.643a6.516,6.516,0,0,0-.193,1.3.886.886,0,0,0,.114.51.414.414,0,0,0,.36.158.978.978,0,0,0,.563-.215,6.176,6.176,0,0,0,.844-.822l.5.492a7.669,7.669,0,0,1-1.4,1.23,2.276,2.276,0,0,1-1.2.325,1.123,1.123,0,0,1-.914-.417,1.628,1.628,0,0,1-.343-1.068,7.7,7.7,0,0,1,.246-1.705Zm5.968.352a6.3,6.3,0,0,0,.193-1.3.886.886,0,0,0-.114-.51.414.414,0,0,0-.36-.158.983.983,0,0,0-.576.224,6.308,6.308,0,0,0-.831.813L293.66-7A8.725,8.725,0,0,1,295-8.2a2.143,2.143,0,0,1,1.213-.356,1.1,1.1,0,0,1,.875.365,1.391,1.391,0,0,1,.321.954A3.025,3.025,0,0,1,297.2-6.2l.105.035a8.131,8.131,0,0,1,1.639-1.8,2.642,2.642,0,0,1,1.6-.584,1.636,1.636,0,0,1,1.257.47,1.837,1.837,0,0,1,.439,1.305,7.017,7.017,0,0,1-.255,1.573l-.571,2.3a6.607,6.607,0,0,0-.237,1.354.886.886,0,0,0,.114.51.414.414,0,0,0,.36.158.978.978,0,0,0,.563-.215,6.176,6.176,0,0,0,.844-.822l.5.492a7.951,7.951,0,0,1-1.318,1.182,2.266,2.266,0,0,1-1.283.374,1.133,1.133,0,0,1-.914-.409,1.565,1.565,0,0,1-.343-1.042A7.271,7.271,0,0,1,300-2.988l.387-1.521q.211-.826.277-1.222a4.081,4.081,0,0,0,.066-.642,1.474,1.474,0,0,0-.2-.875.772.772,0,0,0-.659-.268,1.424,1.424,0,0,0-.8.294,4.535,4.535,0,0,0-.905.888,6.967,6.967,0,0,0-.769,1.151,5.738,5.738,0,0,0-.475,1.375L296.086,0h-1.521Zm15.478-2.4.809-.58.563.141-1.292,5.572a6.189,6.189,0,0,0-.193,1.3.886.886,0,0,0,.114.51.414.414,0,0,0,.36.158.978.978,0,0,0,.563-.215,6.176,6.176,0,0,0,.844-.822l.5.492a7.649,7.649,0,0,1-1.349,1.2,2.205,2.205,0,0,1-1.208.356,1.114,1.114,0,0,1-.87-.36,1.376,1.376,0,0,1-.325-.958,2.962,2.962,0,0,1,.2-1.028l-.114-.035a7.75,7.75,0,0,1-1.6,1.8,2.61,2.61,0,0,1-1.6.571,1.746,1.746,0,0,1-1.5-.729,3.426,3.426,0,0,1-.532-2.048,7.34,7.34,0,0,1,.593-2.9,5.373,5.373,0,0,1,1.63-2.2,3.68,3.68,0,0,1,2.312-.8,4.285,4.285,0,0,1,1.068.127A3.733,3.733,0,0,1,311.326-7.972Zm-.773,2.619a5.547,5.547,0,0,0,.105-.624q.026-.264.026-.571a1.437,1.437,0,0,0-.29-.993,1.289,1.289,0,0,0-.984-.316,2.233,2.233,0,0,0-1.626.729,4.924,4.924,0,0,0-1.125,1.956,7.777,7.777,0,0,0-.4,2.448,2.909,2.909,0,0,0,.25,1.367.882.882,0,0,0,.839.453,1.7,1.7,0,0,0,1.138-.5,6.972,6.972,0,0,0,1.151-1.428,6.229,6.229,0,0,0,.839-2.14Zm9.4,3.111a7.75,7.75,0,0,1-1.6,1.8,2.61,2.61,0,0,1-1.6.571,1.746,1.746,0,0,1-1.5-.729,3.426,3.426,0,0,1-.532-2.048,7.34,7.34,0,0,1,.593-2.9,5.373,5.373,0,0,1,1.63-2.2,3.68,3.68,0,0,1,2.312-.8,4.189,4.189,0,0,1,.989.11,3.555,3.555,0,0,1,.927.382l.457-2.03q.07-.29.123-.642a4.215,4.215,0,0,0,.053-.615.689.689,0,0,0-.1-.4.542.542,0,0,0-.277-.2,2.776,2.776,0,0,0-.646-.088l.105-.457,2.206-.079h.519l-2.188,9.729a6.516,6.516,0,0,0-.193,1.3.886.886,0,0,0,.114.51.414.414,0,0,0,.36.158.978.978,0,0,0,.563-.215,6.176,6.176,0,0,0,.844-.822l.5.492a7.863,7.863,0,0,1-1.362,1.2,2.189,2.189,0,0,1-1.2.352,1.114,1.114,0,0,1-.87-.36,1.376,1.376,0,0,1-.325-.958,2.962,2.962,0,0,1,.2-1.028Zm.589-3.111a5.871,5.871,0,0,0,.132-1.2,1.434,1.434,0,0,0-.29-1,1.273,1.273,0,0,0-.967-.312,2.2,2.2,0,0,0-1.608.725,4.983,4.983,0,0,0-1.121,1.956,7.741,7.741,0,0,0-.409,2.452,2.909,2.909,0,0,0,.25,1.367.882.882,0,0,0,.839.453,1.417,1.417,0,0,0,.554-.119,2.234,2.234,0,0,0,.584-.382,4.561,4.561,0,0,0,.6-.642q.294-.378.541-.76a5.422,5.422,0,0,0,.457-.905,7.248,7.248,0,0,0,.36-1.261Zm7.523,5.5a2.829,2.829,0,0,1-2.114-.765,3.005,3.005,0,0,1-.751-2.2,7.411,7.411,0,0,1,.211-1.626,6.088,6.088,0,0,1,.914-2.18,4.406,4.406,0,0,1,1.582-1.428,4.355,4.355,0,0,1,2.065-.5,2.836,2.836,0,0,1,2.145.769,3.054,3.054,0,0,1,.738,2.2,7.448,7.448,0,0,1-.356,2.18,5.971,5.971,0,0,1-.976,1.951A4.014,4.014,0,0,1,330.047-.25,4.647,4.647,0,0,1,328.069.149Zm-1.327-2.584a2.142,2.142,0,0,0,.4,1.428,1.513,1.513,0,0,0,1.208.461,1.981,1.981,0,0,0,1.529-.773,5.561,5.561,0,0,0,1.055-2.167,9.31,9.31,0,0,0,.387-2.448,2.317,2.317,0,0,0-.369-1.428A1.362,1.362,0,0,0,329.8-7.84a2.077,2.077,0,0,0-1.6.765,5.416,5.416,0,0,0-1.072,2.188A9.48,9.48,0,0,0,326.742-2.435Zm13.711-3.832a1.923,1.923,0,0,0-.514-1.187,1.833,1.833,0,0,0-1.314-.4A1.708,1.708,0,0,0,337.5-7.5a1.155,1.155,0,0,0-.431.936,1.336,1.336,0,0,0,.11.558,1.69,1.69,0,0,0,.444.532,7.729,7.729,0,0,0,1.037.712,7.428,7.428,0,0,1,.888.611,2.946,2.946,0,0,1,.527.549,1.909,1.909,0,0,1,.281.576,2.664,2.664,0,0,1,.088.734,2.174,2.174,0,0,1-.417,1.34,2.476,2.476,0,0,1-1.134.831,4.562,4.562,0,0,1-1.63.272A9.266,9.266,0,0,1,335.83.04a11.435,11.435,0,0,1-1.564-.374l.422-1.916h.686a1.82,1.82,0,0,0,.475,1.274,1.937,1.937,0,0,0,1.4.431,2.047,2.047,0,0,0,1.305-.374,1.274,1.274,0,0,0,.47-1.059,1.614,1.614,0,0,0-.132-.681,1.692,1.692,0,0,0-.431-.549,7.072,7.072,0,0,0-.949-.659,7.706,7.706,0,0,1-1.068-.747,2.355,2.355,0,0,1-.576-.725,2.008,2.008,0,0,1-.193-.9,2.04,2.04,0,0,1,.374-1.217,2.359,2.359,0,0,1,1.068-.8,4.287,4.287,0,0,1,1.617-.281,10.517,10.517,0,0,1,1.49.1,6.954,6.954,0,0,1,1.34.334l-.4,1.846Zm14.81-.888h-7.33V-8.569h7.33Zm0,3.647h-7.33V-4.913h7.33Z" transform="translate(515 12240)" fill="#12263f"/>
    <path id="Trazado_911679" data-name="Trazado 911679" d="M4.063-10.664l-.086.383a.973.973,0,0,0-.535.2.882.882,0,0,0-.27.457,3.16,3.16,0,0,0-.078.785q0,.117.023.7l.219,5.719v.625h.078L6.8-7.891a7.725,7.725,0,0,0,.445-.926A1.944,1.944,0,0,0,7.391-9.5q0-.656-.781-.781l.086-.383h3.2l-.086.383a.969.969,0,0,0-.4.16,2.066,2.066,0,0,0-.43.43,11.374,11.374,0,0,0-.738,1.16l-5,8.656H2.2L1.672-8.586a5.567,5.567,0,0,0-.113-.871,1.286,1.286,0,0,0-.258-.566.874.874,0,0,0-.559-.258l.086-.383ZM16.547-1.555A5.939,5.939,0,0,1,15.012-.3,3.733,3.733,0,0,1,13.2.125a2.236,2.236,0,0,1-1.754-.691,2.78,2.78,0,0,1-.621-1.926,6,6,0,0,1,.3-1.793A5.239,5.239,0,0,1,12.039-6,4.254,4.254,0,0,1,13.5-7.184,4.06,4.06,0,0,1,15.313-7.6a2.22,2.22,0,0,1,1.418.383,1.448,1.448,0,0,1,.473,1.2,2.135,2.135,0,0,1-1.246,1.992,8.1,8.1,0,0,1-3.7.664,5.18,5.18,0,0,0-.094,1.016,1.806,1.806,0,0,0,.32,1.191,1.316,1.316,0,0,0,1.047.371,2.706,2.706,0,0,0,1.3-.312,5.434,5.434,0,0,0,1.23-.961ZM12.391-4.031a8.37,8.37,0,0,0,1.891-.2,2.53,2.53,0,0,0,1.211-.609,1.518,1.518,0,0,0,.422-1.129,1.138,1.138,0,0,0-.223-.746.807.807,0,0,0-.66-.27,2.084,2.084,0,0,0-1.52.8A5.309,5.309,0,0,0,12.391-4.031Zm7.688-.922a5.6,5.6,0,0,0,.172-1.156.787.787,0,0,0-.1-.453.368.368,0,0,0-.32-.141.874.874,0,0,0-.512.2,5.607,5.607,0,0,0-.738.723l-.445-.437a7.756,7.756,0,0,1,1.2-1.066A1.905,1.905,0,0,1,20.406-7.6a.982.982,0,0,1,.777.324,1.236,1.236,0,0,1,.285.848,2.689,2.689,0,0,1-.187.922l.094.031a7.228,7.228,0,0,1,1.457-1.6,2.348,2.348,0,0,1,1.426-.52,1.454,1.454,0,0,1,1.117.418,1.633,1.633,0,0,1,.391,1.16,6.238,6.238,0,0,1-.227,1.4L25.031-2.57a5.873,5.873,0,0,0-.211,1.2.787.787,0,0,0,.1.453.368.368,0,0,0,.32.141.869.869,0,0,0,.5-.191,5.49,5.49,0,0,0,.75-.73l.445.438A7.067,7.067,0,0,1,25.766-.207a2.015,2.015,0,0,1-1.141.332,1.007,1.007,0,0,1-.812-.363,1.391,1.391,0,0,1-.3-.926,6.463,6.463,0,0,1,.258-1.492l.344-1.352q.188-.734.246-1.086a3.628,3.628,0,0,0,.059-.57,1.31,1.31,0,0,0-.18-.777.687.687,0,0,0-.586-.238,1.266,1.266,0,0,0-.707.262,4.031,4.031,0,0,0-.8.789,6.193,6.193,0,0,0-.684,1.023,5.1,5.1,0,0,0-.422,1.223L20.289,0H18.938ZM32.555-1.477A5.646,5.646,0,0,1,31.246-.266,2.458,2.458,0,0,1,29.93.125,1.45,1.45,0,0,1,28.3-1.523a4.923,4.923,0,0,1,.133-1.1l.922-4.055H28.039l.117-.539a3.154,3.154,0,0,0,.7-.07,1.277,1.277,0,0,0,.4-.172,1.1,1.1,0,0,0,.293-.312,2.919,2.919,0,0,0,.258-.52q.125-.316.375-1.105h1.078l-.43,1.93H33.2l-.172.789H30.656l-.7,3.031q-.2.883-.258,1.27a4.658,4.658,0,0,0-.055.621q0,.969.8.969a1.319,1.319,0,0,0,.73-.262,4.9,4.9,0,0,0,.918-.895Zm7.594-5.609.719-.516.5.125L40.219-2.523a5.5,5.5,0,0,0-.172,1.156.787.787,0,0,0,.1.453.368.368,0,0,0,.32.141.869.869,0,0,0,.5-.191,5.49,5.49,0,0,0,.75-.73l.445.438a6.8,6.8,0,0,1-1.2,1.066,1.96,1.96,0,0,1-1.074.316.991.991,0,0,1-.773-.32,1.223,1.223,0,0,1-.289-.852,2.632,2.632,0,0,1,.18-.914l-.1-.031a6.889,6.889,0,0,1-1.422,1.6,2.32,2.32,0,0,1-1.422.508A1.552,1.552,0,0,1,34.73-.531a3.046,3.046,0,0,1-.473-1.82,6.524,6.524,0,0,1,.527-2.582,4.776,4.776,0,0,1,1.449-1.953A3.271,3.271,0,0,1,38.289-7.6a3.809,3.809,0,0,1,.949.113A3.318,3.318,0,0,1,40.148-7.086Zm-.687,2.328a4.931,4.931,0,0,0,.094-.555q.023-.234.023-.508A1.277,1.277,0,0,0,39.32-6.7a1.145,1.145,0,0,0-.875-.281A1.985,1.985,0,0,0,37-6.336,4.377,4.377,0,0,0,36-4.6a6.913,6.913,0,0,0-.359,2.176,2.585,2.585,0,0,0,.223,1.215.784.784,0,0,0,.746.4,1.515,1.515,0,0,0,1.012-.445,6.2,6.2,0,0,0,1.023-1.27,5.537,5.537,0,0,0,.746-1.9Zm8.781-.812a1.71,1.71,0,0,0-.457-1.055,1.629,1.629,0,0,0-1.168-.359,1.519,1.519,0,0,0-1,.316,1.027,1.027,0,0,0-.383.832,1.188,1.188,0,0,0,.1.5,1.5,1.5,0,0,0,.395.473,6.87,6.87,0,0,0,.922.633,6.6,6.6,0,0,1,.789.543,2.618,2.618,0,0,1,.469.488,1.7,1.7,0,0,1,.25.512,2.368,2.368,0,0,1,.078.652,1.933,1.933,0,0,1-.371,1.191,2.2,2.2,0,0,1-1.008.738,4.055,4.055,0,0,1-1.449.242,8.237,8.237,0,0,1-1.273-.1A10.165,10.165,0,0,1,42.742-.3L43.117-2h.609a1.618,1.618,0,0,0,.422,1.133,1.722,1.722,0,0,0,1.242.383,1.82,1.82,0,0,0,1.16-.332,1.133,1.133,0,0,0,.418-.941,1.435,1.435,0,0,0-.117-.605,1.5,1.5,0,0,0-.383-.488,6.286,6.286,0,0,0-.844-.586,6.85,6.85,0,0,1-.949-.664,2.093,2.093,0,0,1-.512-.645,1.784,1.784,0,0,1-.172-.8,1.813,1.813,0,0,1,.332-1.082,2.1,2.1,0,0,1,.949-.715,3.811,3.811,0,0,1,1.438-.25,9.348,9.348,0,0,1,1.324.086,6.181,6.181,0,0,1,1.191.3L48.875-5.57Zm7.6.641a5.526,5.526,0,0,0,.164-1.18.787.787,0,0,0-.1-.453.368.368,0,0,0-.32-.141.874.874,0,0,0-.512.2,5.607,5.607,0,0,0-.738.723l-.445-.437a7.627,7.627,0,0,1,1.191-1.059A1.914,1.914,0,0,1,56.164-7.6a.979.979,0,0,1,.77.32,1.233,1.233,0,0,1,.285.852,2.651,2.651,0,0,1-.18.922l.094.031q1.445-2.117,2.875-2.117a1.544,1.544,0,0,1,1.324.648A3.061,3.061,0,0,1,61.8-5.117a6.533,6.533,0,0,1-.52,2.535A4.83,4.83,0,0,1,59.844-.605a3.238,3.238,0,0,1-2.062.73,3.075,3.075,0,0,1-1.727-.453L55.7,1.383a4.6,4.6,0,0,0-.117.914.6.6,0,0,0,.176.488,1.339,1.339,0,0,0,.684.191l-.062.383H53.961Zm.789,2.211q-.078.414-.1.633t-.02.43a1.262,1.262,0,0,0,.262.887,1.207,1.207,0,0,0,.9.277,1.72,1.72,0,0,0,.734-.156,2.277,2.277,0,0,0,.637-.453,3.334,3.334,0,0,0,.543-.719,5.648,5.648,0,0,0,.434-.98,7.128,7.128,0,0,0,.289-1.148,6.788,6.788,0,0,0,.1-1.105,2.531,2.531,0,0,0-.23-1.223.781.781,0,0,0-.73-.4,1.361,1.361,0,0,0-.785.27,4.166,4.166,0,0,0-.848.863A5.737,5.737,0,0,0,57.1-4.375,6.233,6.233,0,0,0,56.7-3.047Zm9.461-2.867a6.511,6.511,0,0,1,1.473-1.523A2.515,2.515,0,0,1,69-7.594a4.445,4.445,0,0,1,.953.086l-.375,1.75h-.8a1.808,1.808,0,0,0-.133-.508.563.563,0,0,0-.2-.25.569.569,0,0,0-.3-.07,1.067,1.067,0,0,0-.613.242,4.2,4.2,0,0,0-.746.758,6.006,6.006,0,0,0-.66.992,5.079,5.079,0,0,0-.41,1.211L64.969,0H63.617L64.75-4.953a7.316,7.316,0,0,0,.141-.727,3.686,3.686,0,0,0,.031-.43.787.787,0,0,0-.1-.453A.368.368,0,0,0,64.5-6.7a.874.874,0,0,0-.512.2,5.607,5.607,0,0,0-.738.723L62.8-6.219a7.51,7.51,0,0,1,1.2-1.066,1.916,1.916,0,0,1,1.07-.316.982.982,0,0,1,.777.324,1.236,1.236,0,0,1,.285.848,2.378,2.378,0,0,1-.148.8ZM73.641.133a2.515,2.515,0,0,1-1.879-.68A2.671,2.671,0,0,1,71.094-2.5a6.588,6.588,0,0,1,.188-1.445,5.411,5.411,0,0,1,.813-1.937A3.916,3.916,0,0,1,73.5-7.152a3.871,3.871,0,0,1,1.836-.441,2.521,2.521,0,0,1,1.906.684A2.715,2.715,0,0,1,77.9-4.953a6.62,6.62,0,0,1-.316,1.938,5.308,5.308,0,0,1-.867,1.734A3.568,3.568,0,0,1,75.4-.223,4.131,4.131,0,0,1,73.641.133Zm-1.18-2.3a1.9,1.9,0,0,0,.355,1.27,1.345,1.345,0,0,0,1.074.41,1.761,1.761,0,0,0,1.359-.687A4.943,4.943,0,0,0,76.188-3.1a8.276,8.276,0,0,0,.344-2.176,2.059,2.059,0,0,0-.328-1.27,1.211,1.211,0,0,0-1.023-.426,1.846,1.846,0,0,0-1.418.68,4.814,4.814,0,0,0-.953,1.945A8.426,8.426,0,0,0,72.461-2.164ZM82.578.016q-.227-1.367-.617-3.3-.414-2.062-.547-2.555a1.736,1.736,0,0,0-.344-.758.386.386,0,0,0-.273-.1.68.68,0,0,0-.469.2,3.826,3.826,0,0,0-.539.7l-.508-.336a4.379,4.379,0,0,1,1.008-1.137,1.769,1.769,0,0,1,1.047-.332,1.545,1.545,0,0,1,.547.086A1.032,1.032,0,0,1,82.2-7.3a1.285,1.285,0,0,1,.277.4,3.73,3.73,0,0,1,.211.578q.09.32.2.922.188,1.008.363,2.121t.3,2.066a17.972,17.972,0,0,0,1.285-2.141,11.426,11.426,0,0,0,.758-1.82,4.629,4.629,0,0,0,.23-1.258.637.637,0,0,0-.156-.5.918.918,0,0,0-.531-.156l.078-.383h2.055l.211.391A25.482,25.482,0,0,1,85.867-3.6,36.2,36.2,0,0,1,83.578.008a17.777,17.777,0,0,1-2.055,2.477,3.981,3.981,0,0,1-1.1.75,2.358,2.358,0,0,1-.9.172,3.044,3.044,0,0,1-.379-.027,1.413,1.413,0,0,1-.332-.074l.336-1.516h.617q0,.5.344.5a1.681,1.681,0,0,0,1.055-.566A11.873,11.873,0,0,0,82.578.016ZM94.25-1.555A5.939,5.939,0,0,1,92.715-.3a3.733,3.733,0,0,1-1.809.422,2.236,2.236,0,0,1-1.754-.691,2.78,2.78,0,0,1-.621-1.926,6,6,0,0,1,.3-1.793A5.239,5.239,0,0,1,89.742-6,4.254,4.254,0,0,1,91.2-7.184,4.06,4.06,0,0,1,93.016-7.6a2.22,2.22,0,0,1,1.418.383,1.448,1.448,0,0,1,.473,1.2A2.135,2.135,0,0,1,93.66-4.031a8.1,8.1,0,0,1-3.7.664,5.18,5.18,0,0,0-.094,1.016,1.806,1.806,0,0,0,.32,1.191,1.316,1.316,0,0,0,1.047.371,2.706,2.706,0,0,0,1.3-.312,5.434,5.434,0,0,0,1.23-.961ZM90.094-4.031a8.37,8.37,0,0,0,1.891-.2A2.53,2.53,0,0,0,93.2-4.84a1.518,1.518,0,0,0,.422-1.129,1.138,1.138,0,0,0-.223-.746.807.807,0,0,0-.66-.27,2.084,2.084,0,0,0-1.52.8A5.309,5.309,0,0,0,90.094-4.031Zm11.438-1.562a3.521,3.521,0,0,0-.1-.859.742.742,0,0,0-.266-.4.875.875,0,0,0-.52-.133,1.958,1.958,0,0,0-1.418.629A4.612,4.612,0,0,0,98.2-4.574a6.769,6.769,0,0,0-.4,2.215,1.863,1.863,0,0,0,.313,1.184,1.134,1.134,0,0,0,.938.387,2.639,2.639,0,0,0,1.23-.27,4.607,4.607,0,0,0,1.1-.848l.477.477a5.185,5.185,0,0,1-1.48,1.188,3.525,3.525,0,0,1-1.605.375,2.158,2.158,0,0,1-1.719-.672,2.888,2.888,0,0,1-.586-1.953,6.2,6.2,0,0,1,.313-1.836A5.375,5.375,0,0,1,97.7-6.086,3.883,3.883,0,0,1,99.1-7.219a4.019,4.019,0,0,1,1.719-.375,7.384,7.384,0,0,1,1.914.234l-.383,1.766Zm6.906,4.117a5.646,5.646,0,0,1-1.309,1.211,2.458,2.458,0,0,1-1.316.391,1.45,1.45,0,0,1-1.633-1.648,4.923,4.923,0,0,1,.133-1.1l.922-4.055h-1.312l.117-.539a3.154,3.154,0,0,0,.7-.07,1.277,1.277,0,0,0,.4-.172,1.1,1.1,0,0,0,.293-.312,2.919,2.919,0,0,0,.258-.52q.125-.316.375-1.105h1.078l-.43,1.93h2.375l-.172.789h-2.375l-.7,3.031q-.2.883-.258,1.27a4.658,4.658,0,0,0-.055.621q0,.969.8.969a1.319,1.319,0,0,0,.73-.262,4.9,4.9,0,0,0,.918-.895Zm7.594-5.609.719-.516.5.125L116.1-2.523a5.5,5.5,0,0,0-.172,1.156.787.787,0,0,0,.1.453.368.368,0,0,0,.32.141.869.869,0,0,0,.5-.191,5.49,5.49,0,0,0,.75-.73l.445.438a6.8,6.8,0,0,1-1.2,1.066,1.96,1.96,0,0,1-1.074.316A.991.991,0,0,1,115-.2a1.223,1.223,0,0,1-.289-.852,2.633,2.633,0,0,1,.18-.914l-.1-.031a6.889,6.889,0,0,1-1.422,1.6,2.32,2.32,0,0,1-1.422.508,1.552,1.552,0,0,1-1.332-.648,3.046,3.046,0,0,1-.473-1.82,6.524,6.524,0,0,1,.527-2.582,4.776,4.776,0,0,1,1.449-1.953,3.271,3.271,0,0,1,2.055-.715,3.809,3.809,0,0,1,.949.113A3.318,3.318,0,0,1,116.031-7.086Zm-.687,2.328a4.931,4.931,0,0,0,.094-.555q.023-.234.023-.508A1.277,1.277,0,0,0,115.2-6.7a1.145,1.145,0,0,0-.875-.281,1.985,1.985,0,0,0-1.445.648,4.377,4.377,0,0,0-1,1.738,6.913,6.913,0,0,0-.359,2.176,2.585,2.585,0,0,0,.223,1.215.784.784,0,0,0,.746.4A1.515,1.515,0,0,0,113.5-1.25a6.2,6.2,0,0,0,1.023-1.27,5.537,5.537,0,0,0,.746-1.9ZM123.7-1.992a6.889,6.889,0,0,1-1.422,1.6,2.32,2.32,0,0,1-1.422.508,1.552,1.552,0,0,1-1.332-.648,3.046,3.046,0,0,1-.473-1.82,6.524,6.524,0,0,1,.527-2.582,4.776,4.776,0,0,1,1.449-1.953,3.271,3.271,0,0,1,2.055-.715,3.723,3.723,0,0,1,.879.1,3.16,3.16,0,0,1,.824.34l.406-1.8q.062-.258.109-.57a3.747,3.747,0,0,0,.047-.547.612.612,0,0,0-.086-.355.482.482,0,0,0-.246-.176,2.467,2.467,0,0,0-.574-.078l.094-.406,1.961-.07h.461l-1.945,8.648a5.792,5.792,0,0,0-.172,1.156.787.787,0,0,0,.1.453.368.368,0,0,0,.32.141.869.869,0,0,0,.5-.191,5.49,5.49,0,0,0,.75-.73l.445.438a6.989,6.989,0,0,1-1.211,1.07,1.946,1.946,0,0,1-1.062.313.991.991,0,0,1-.773-.32,1.223,1.223,0,0,1-.289-.852,2.633,2.633,0,0,1,.18-.914Zm.523-2.766a5.219,5.219,0,0,0,.117-1.062,1.275,1.275,0,0,0-.258-.887,1.131,1.131,0,0,0-.859-.277,1.957,1.957,0,0,0-1.43.645,4.429,4.429,0,0,0-1,1.738,6.881,6.881,0,0,0-.363,2.18,2.585,2.585,0,0,0,.223,1.215.784.784,0,0,0,.746.4A1.26,1.26,0,0,0,121.9-.91a1.985,1.985,0,0,0,.52-.34,4.054,4.054,0,0,0,.531-.57q.262-.336.48-.676a4.82,4.82,0,0,0,.406-.8,6.442,6.442,0,0,0,.32-1.121Zm9.992-2.328.719-.516.5.125-1.148,4.953a5.5,5.5,0,0,0-.172,1.156.787.787,0,0,0,.1.453.368.368,0,0,0,.32.141.869.869,0,0,0,.5-.191,5.49,5.49,0,0,0,.75-.73l.445.438a6.8,6.8,0,0,1-1.2,1.066,1.96,1.96,0,0,1-1.074.316.991.991,0,0,1-.773-.32,1.223,1.223,0,0,1-.289-.852,2.632,2.632,0,0,1,.18-.914l-.1-.031a6.889,6.889,0,0,1-1.422,1.6,2.32,2.32,0,0,1-1.422.508A1.552,1.552,0,0,1,128.8-.531a3.046,3.046,0,0,1-.473-1.82,6.524,6.524,0,0,1,.527-2.582A4.776,4.776,0,0,1,130.3-6.887a3.271,3.271,0,0,1,2.055-.715,3.809,3.809,0,0,1,.949.113A3.318,3.318,0,0,1,134.219-7.086Zm-.687,2.328a4.931,4.931,0,0,0,.094-.555q.023-.234.023-.508a1.277,1.277,0,0,0-.258-.883,1.145,1.145,0,0,0-.875-.281,1.985,1.985,0,0,0-1.445.648,4.377,4.377,0,0,0-1,1.738,6.913,6.913,0,0,0-.359,2.176,2.585,2.585,0,0,0,.223,1.215.784.784,0,0,0,.746.4,1.515,1.515,0,0,0,1.012-.445,6.2,6.2,0,0,0,1.023-1.27,5.537,5.537,0,0,0,.746-1.9Zm8.781-.812a1.71,1.71,0,0,0-.457-1.055,1.629,1.629,0,0,0-1.168-.359,1.519,1.519,0,0,0-1,.316,1.027,1.027,0,0,0-.383.832,1.188,1.188,0,0,0,.1.5,1.5,1.5,0,0,0,.395.473,6.87,6.87,0,0,0,.922.633,6.6,6.6,0,0,1,.789.543,2.618,2.618,0,0,1,.469.488,1.7,1.7,0,0,1,.25.512,2.368,2.368,0,0,1,.078.652,1.933,1.933,0,0,1-.371,1.191,2.2,2.2,0,0,1-1.008.738,4.055,4.055,0,0,1-1.449.242,8.237,8.237,0,0,1-1.273-.1A10.165,10.165,0,0,1,136.813-.3l.375-1.7h.609a1.618,1.618,0,0,0,.422,1.133,1.722,1.722,0,0,0,1.242.383,1.82,1.82,0,0,0,1.16-.332,1.133,1.133,0,0,0,.418-.941,1.435,1.435,0,0,0-.117-.605,1.5,1.5,0,0,0-.383-.488,6.285,6.285,0,0,0-.844-.586,6.85,6.85,0,0,1-.949-.664,2.093,2.093,0,0,1-.512-.645,1.785,1.785,0,0,1-.172-.8,1.813,1.813,0,0,1,.332-1.082,2.1,2.1,0,0,1,.949-.715,3.811,3.811,0,0,1,1.438-.25,9.348,9.348,0,0,1,1.324.086,6.181,6.181,0,0,1,1.191.3l-.352,1.641Z" transform="translate(886 12226)" fill="#12263f"/>
    <path id="Trazado_911680" data-name="Trazado 911680" d="M6.438-4.836a2.287,2.287,0,0,1,.605.672,3.565,3.565,0,0,1,.371,1.086l.18.906a7.258,7.258,0,0,0,.2.773,1.846,1.846,0,0,0,.262.547,1.046,1.046,0,0,0,.344.3,1.923,1.923,0,0,0,.559.164L8.875,0H6.711a12.032,12.032,0,0,1-.445-1.656L5.922-3.312a3.938,3.938,0,0,0-.207-.723,1.307,1.307,0,0,0-.289-.453A.822.822,0,0,0,5.035-4.7a2.482,2.482,0,0,0-.543-.051H3.6L3.055-2.273q-.07.3-.1.484T2.91-1.41q-.02.2-.02.355a.768.768,0,0,0,.078.379.455.455,0,0,0,.234.2,2.075,2.075,0,0,0,.539.094L3.656,0H.445L.531-.383A1.066,1.066,0,0,0,.977-.535a.844.844,0,0,0,.25-.293,2.669,2.669,0,0,0,.188-.457q.086-.27.258-1.043L3-8.344a6.108,6.108,0,0,0,.172-1.234.659.659,0,0,0-.18-.531,1.016,1.016,0,0,0-.586-.172l.086-.383H5.969a7.615,7.615,0,0,1,1.352.1,3.165,3.165,0,0,1,.895.293,1.967,1.967,0,0,1,.621.5,2.14,2.14,0,0,1,.375.7,2.664,2.664,0,0,1,.125.824A3.01,3.01,0,0,1,8.6-6.2,4.555,4.555,0,0,1,6.438-4.922ZM4.672-5.422a4.321,4.321,0,0,0,1.789-.3,2.265,2.265,0,0,0,1.039-1,3.061,3.061,0,0,0,.383-1.5,2.584,2.584,0,0,0-.062-.6,1.572,1.572,0,0,0-.164-.434,1.2,1.2,0,0,0-.258-.3,1.474,1.474,0,0,0-.391-.23,2.2,2.2,0,0,0-.543-.141,6.409,6.409,0,0,0-.84-.043q-.414,0-.875.031l-1,4.523ZM13.6.133a2.515,2.515,0,0,1-1.879-.68A2.671,2.671,0,0,1,11.055-2.5a6.588,6.588,0,0,1,.188-1.445,5.411,5.411,0,0,1,.813-1.937,3.916,3.916,0,0,1,1.406-1.27A3.871,3.871,0,0,1,15.3-7.594,2.521,2.521,0,0,1,17.2-6.91a2.715,2.715,0,0,1,.656,1.957,6.62,6.62,0,0,1-.316,1.938,5.308,5.308,0,0,1-.867,1.734A3.568,3.568,0,0,1,15.359-.223,4.131,4.131,0,0,1,13.6.133Zm-1.18-2.3a1.9,1.9,0,0,0,.355,1.27,1.345,1.345,0,0,0,1.074.41,1.761,1.761,0,0,0,1.359-.687A4.943,4.943,0,0,0,16.148-3.1a8.276,8.276,0,0,0,.344-2.176,2.059,2.059,0,0,0-.328-1.27,1.21,1.21,0,0,0-1.023-.426,1.846,1.846,0,0,0-1.418.68,4.814,4.814,0,0,0-.953,1.945A8.426,8.426,0,0,0,12.422-2.164Zm11.727.688A5.646,5.646,0,0,1,22.84-.266a2.458,2.458,0,0,1-1.316.391,1.45,1.45,0,0,1-1.633-1.648,4.923,4.923,0,0,1,.133-1.1l.922-4.055H19.633l.117-.539a3.154,3.154,0,0,0,.7-.07,1.277,1.277,0,0,0,.4-.172,1.1,1.1,0,0,0,.293-.312,2.919,2.919,0,0,0,.258-.52q.125-.316.375-1.105h1.078l-.43,1.93H24.8l-.172.789H22.25l-.7,3.031q-.2.883-.258,1.27a4.658,4.658,0,0,0-.055.621q0,.969.8.969a1.319,1.319,0,0,0,.73-.262,4.9,4.9,0,0,0,.918-.895Zm7.594-5.609.719-.516.5.125L31.813-2.523a5.5,5.5,0,0,0-.172,1.156.787.787,0,0,0,.1.453.368.368,0,0,0,.32.141.869.869,0,0,0,.5-.191,5.49,5.49,0,0,0,.75-.73l.445.438a6.8,6.8,0,0,1-1.2,1.066,1.96,1.96,0,0,1-1.074.316.991.991,0,0,1-.773-.32,1.223,1.223,0,0,1-.289-.852,2.633,2.633,0,0,1,.18-.914l-.1-.031a6.889,6.889,0,0,1-1.422,1.6,2.32,2.32,0,0,1-1.422.508,1.552,1.552,0,0,1-1.332-.648,3.046,3.046,0,0,1-.473-1.82,6.524,6.524,0,0,1,.527-2.582,4.776,4.776,0,0,1,1.449-1.953A3.271,3.271,0,0,1,29.883-7.6a3.809,3.809,0,0,1,.949.113A3.318,3.318,0,0,1,31.742-7.086Zm-.687,2.328a4.931,4.931,0,0,0,.094-.555q.023-.234.023-.508a1.277,1.277,0,0,0-.258-.883,1.145,1.145,0,0,0-.875-.281,1.985,1.985,0,0,0-1.445.648,4.377,4.377,0,0,0-1,1.738,6.913,6.913,0,0,0-.359,2.176,2.585,2.585,0,0,0,.223,1.215.784.784,0,0,0,.746.4,1.515,1.515,0,0,0,1.012-.445,6.2,6.2,0,0,0,1.023-1.27,5.537,5.537,0,0,0,.746-1.9Zm8.773-.836a3.521,3.521,0,0,0-.1-.859.742.742,0,0,0-.266-.4.875.875,0,0,0-.52-.133,1.958,1.958,0,0,0-1.418.629A4.612,4.612,0,0,0,36.5-4.574a6.769,6.769,0,0,0-.4,2.215,1.863,1.863,0,0,0,.313,1.184,1.134,1.134,0,0,0,.938.387,2.639,2.639,0,0,0,1.23-.27,4.607,4.607,0,0,0,1.1-.848l.477.477a5.185,5.185,0,0,1-1.48,1.188A3.525,3.525,0,0,1,37.07.133a2.158,2.158,0,0,1-1.719-.672,2.888,2.888,0,0,1-.586-1.953,6.2,6.2,0,0,1,.313-1.836,5.374,5.374,0,0,1,.914-1.758A3.883,3.883,0,0,1,37.4-7.219a4.019,4.019,0,0,1,1.719-.375,7.384,7.384,0,0,1,1.914.234l-.383,1.766Zm5.891-4.937-.359,1.516H43.977l.359-1.516ZM43.2-5.266a5.771,5.771,0,0,0,.18-1.172.563.563,0,0,0-.168-.477,1.267,1.267,0,0,0-.66-.141l.086-.414,1.906-.07h.461L43.883-2.523a5.792,5.792,0,0,0-.172,1.156.787.787,0,0,0,.1.453.368.368,0,0,0,.32.141.869.869,0,0,0,.5-.191,5.49,5.49,0,0,0,.75-.73l.445.438A6.817,6.817,0,0,1,44.586-.164a2.023,2.023,0,0,1-1.07.289A1,1,0,0,1,42.7-.246a1.447,1.447,0,0,1-.3-.949,6.84,6.84,0,0,1,.219-1.516Zm3.883.961a4.993,4.993,0,0,1,.488-2.234A3.643,3.643,0,0,1,48.934-8.07a3.7,3.7,0,0,1,1.988-.539,3.565,3.565,0,0,1,2.793,1.2,4.6,4.6,0,0,1,1.066,3.18v.1a5.036,5.036,0,0,1-.473,2.215A3.589,3.589,0,0,1,52.957-.391a3.743,3.743,0,0,1-2.02.547,3.556,3.556,0,0,1-2.785-1.2A4.575,4.575,0,0,1,47.086-4.2Zm1.453.172a3.616,3.616,0,0,0,.652,2.258,2.088,2.088,0,0,0,1.746.852,2.075,2.075,0,0,0,1.75-.863A3.955,3.955,0,0,0,53.336-4.3a3.61,3.61,0,0,0-.66-2.254,2.1,2.1,0,0,0-1.754-.863A2.075,2.075,0,0,0,49.2-6.57,3.925,3.925,0,0,0,48.539-4.133Zm3.039-7.852h1.75l-2.094,2.3-1.164,0Zm6.055,7.031A5.6,5.6,0,0,0,57.8-6.109a.787.787,0,0,0-.1-.453.368.368,0,0,0-.32-.141.874.874,0,0,0-.512.2,5.607,5.607,0,0,0-.738.723l-.445-.437a7.756,7.756,0,0,1,1.2-1.066A1.905,1.905,0,0,1,57.961-7.6a.982.982,0,0,1,.777.324,1.236,1.236,0,0,1,.285.848,2.689,2.689,0,0,1-.187.922l.094.031a7.228,7.228,0,0,1,1.457-1.6,2.348,2.348,0,0,1,1.426-.52,1.454,1.454,0,0,1,1.117.418,1.633,1.633,0,0,1,.391,1.16,6.238,6.238,0,0,1-.227,1.4L62.586-2.57a5.873,5.873,0,0,0-.211,1.2.787.787,0,0,0,.1.453.368.368,0,0,0,.32.141.869.869,0,0,0,.5-.191,5.49,5.49,0,0,0,.75-.73l.445.438A7.067,7.067,0,0,1,63.32-.207,2.015,2.015,0,0,1,62.18.125a1.007,1.007,0,0,1-.812-.363,1.391,1.391,0,0,1-.3-.926,6.463,6.463,0,0,1,.258-1.492l.344-1.352q.188-.734.246-1.086a3.628,3.628,0,0,0,.059-.57,1.31,1.31,0,0,0-.18-.777A.687.687,0,0,0,61.2-6.68a1.266,1.266,0,0,0-.707.262,4.031,4.031,0,0,0-.8.789,6.192,6.192,0,0,0-.684,1.023,5.1,5.1,0,0,0-.422,1.223L57.844,0H56.492ZM74.109-1.992a6.889,6.889,0,0,1-1.422,1.6,2.32,2.32,0,0,1-1.422.508,1.552,1.552,0,0,1-1.332-.648,3.046,3.046,0,0,1-.473-1.82,6.524,6.524,0,0,1,.527-2.582,4.776,4.776,0,0,1,1.449-1.953A3.271,3.271,0,0,1,73.492-7.6a3.723,3.723,0,0,1,.879.1,3.16,3.16,0,0,1,.824.34l.406-1.8q.062-.258.109-.57a3.747,3.747,0,0,0,.047-.547.612.612,0,0,0-.086-.355.482.482,0,0,0-.246-.176,2.467,2.467,0,0,0-.574-.078l.094-.406,1.961-.07h.461L75.422-2.523a5.792,5.792,0,0,0-.172,1.156.787.787,0,0,0,.1.453.368.368,0,0,0,.32.141.869.869,0,0,0,.5-.191,5.49,5.49,0,0,0,.75-.73l.445.438a6.989,6.989,0,0,1-1.211,1.07,1.946,1.946,0,0,1-1.062.313A.991.991,0,0,1,74.32-.2a1.223,1.223,0,0,1-.289-.852,2.633,2.633,0,0,1,.18-.914Zm.523-2.766A5.219,5.219,0,0,0,74.75-5.82a1.275,1.275,0,0,0-.258-.887,1.131,1.131,0,0,0-.859-.277,1.957,1.957,0,0,0-1.43.645,4.429,4.429,0,0,0-1,1.738,6.881,6.881,0,0,0-.363,2.18,2.585,2.585,0,0,0,.223,1.215.784.784,0,0,0,.746.4A1.26,1.26,0,0,0,72.3-.91a1.985,1.985,0,0,0,.52-.34,4.054,4.054,0,0,0,.531-.57q.262-.336.48-.676a4.82,4.82,0,0,0,.406-.8,6.442,6.442,0,0,0,.32-1.121Zm9.82,3.2A5.939,5.939,0,0,1,82.918-.3a3.733,3.733,0,0,1-1.809.422,2.236,2.236,0,0,1-1.754-.691,2.78,2.78,0,0,1-.621-1.926,6,6,0,0,1,.3-1.793A5.239,5.239,0,0,1,79.945-6a4.254,4.254,0,0,1,1.461-1.18A4.06,4.06,0,0,1,83.219-7.6a2.22,2.22,0,0,1,1.418.383,1.448,1.448,0,0,1,.473,1.2,2.135,2.135,0,0,1-1.246,1.992,8.1,8.1,0,0,1-3.7.664,5.18,5.18,0,0,0-.094,1.016,1.806,1.806,0,0,0,.32,1.191,1.316,1.316,0,0,0,1.047.371,2.706,2.706,0,0,0,1.3-.312,5.434,5.434,0,0,0,1.23-.961ZM80.3-4.031a8.37,8.37,0,0,0,1.891-.2A2.53,2.53,0,0,0,83.4-4.84a1.518,1.518,0,0,0,.422-1.129,1.138,1.138,0,0,0-.223-.746.807.807,0,0,0-.66-.27,2.084,2.084,0,0,0-1.52.8A5.309,5.309,0,0,0,80.3-4.031ZM95.75-10.664a6.669,6.669,0,0,1,1.527.145,2.565,2.565,0,0,1,.984.445,1.843,1.843,0,0,1,.578.762,2.775,2.775,0,0,1,.191,1.07,3.663,3.663,0,0,1-.555,2.031,3.291,3.291,0,0,1-1.5,1.266,5.77,5.77,0,0,1-2.277.406q-.8,0-1.328-.031l-.5,2.3q-.07.32-.1.492t-.047.371q-.02.2-.02.355a.768.768,0,0,0,.078.379.455.455,0,0,0,.234.2,2.075,2.075,0,0,0,.539.094L93.469,0H90.258l.086-.383a1.066,1.066,0,0,0,.445-.152.844.844,0,0,0,.25-.293,2.668,2.668,0,0,0,.188-.457q.086-.27.258-1.043l1.328-6.016a6.108,6.108,0,0,0,.172-1.234.659.659,0,0,0-.18-.531,1.016,1.016,0,0,0-.586-.172l.086-.383ZM94.313-5.219a4.915,4.915,0,0,0,1.527-.2,2.2,2.2,0,0,0,.953-.605,2.9,2.9,0,0,0,.574-.973,3.61,3.61,0,0,0,.2-1.234,1.719,1.719,0,0,0-.461-1.328,2.243,2.243,0,0,0-1.531-.422q-.484,0-1.016.023L93.5-5.219Zm6.547,4.461a.905.905,0,0,1,.223-.625.848.848,0,0,1,.668-.25.874.874,0,0,1,.676.25.887.887,0,0,1,.23.625.839.839,0,0,1-.23.6.89.89,0,0,1-.676.242.863.863,0,0,1-.668-.242A.855.855,0,0,1,100.859-.758ZM108.6,0h-3.289l.086-.383a1.531,1.531,0,0,0,.461-.125.741.741,0,0,0,.262-.242,2.064,2.064,0,0,0,.227-.516q.113-.352.27-1.062l1.672-7.648H107.3a1.785,1.785,0,0,0-.773.141,1.7,1.7,0,0,0-.578.523,7.493,7.493,0,0,0-.7,1.281h-.75l.586-2.633h8.156l-.609,2.75h-.75q0-.758-.039-1.137a1.567,1.567,0,0,0-.148-.578.608.608,0,0,0-.27-.273,1.5,1.5,0,0,0-.566-.074H109.7l-1.7,7.7q-.07.3-.1.484t-.047.379q-.02.2-.02.355a.768.768,0,0,0,.078.379.455.455,0,0,0,.234.2,2.075,2.075,0,0,0,.539.094Zm5.992-.758a.905.905,0,0,1,.223-.625.848.848,0,0,1,.668-.25.874.874,0,0,1,.676.25.887.887,0,0,1,.23.625.839.839,0,0,1-.23.6.89.89,0,0,1-.676.242.863.863,0,0,1-.668-.242A.855.855,0,0,1,114.594-.758Z" transform="translate(895 12257)" fill="#12263f"/>
    <path id="Trazado_911681" data-name="Trazado 911681" d="M1.609-5.7l.578-5.672H8.016v1.336h-4.6l-.344,3.1a3.671,3.671,0,0,1,1.9-.492A3.138,3.138,0,0,1,7.438-6.4a4.026,4.026,0,0,1,.914,2.777A3.886,3.886,0,0,1,7.4-.855,3.46,3.46,0,0,1,4.75.156,3.6,3.6,0,0,1,2.289-.68,3.337,3.337,0,0,1,1.2-2.992H2.57a2.3,2.3,0,0,0,.7,1.473,2.162,2.162,0,0,0,1.484.5,1.95,1.95,0,0,0,1.582-.687,2.874,2.874,0,0,0,.574-1.9,2.638,2.638,0,0,0-.621-1.832,2.113,2.113,0,0,0-1.652-.691,2.383,2.383,0,0,0-1.484.414l-.383.313Zm15.219-2.7a2.641,2.641,0,0,1-.449,1.516,3.056,3.056,0,0,1-1.215,1.039,3.26,3.26,0,0,1,1.41,1.117,2.811,2.811,0,0,1,.52,1.664,2.972,2.972,0,0,1-1,2.352,3.827,3.827,0,0,1-2.621.875,3.81,3.81,0,0,1-2.629-.879A2.986,2.986,0,0,1,9.859-3.07a2.9,2.9,0,0,1,.5-1.664,3.136,3.136,0,0,1,1.395-1.125,2.981,2.981,0,0,1-1.2-1.039,2.679,2.679,0,0,1-.437-1.508,2.94,2.94,0,0,1,.922-2.281,3.458,3.458,0,0,1,2.43-.844,3.461,3.461,0,0,1,2.426.844A2.934,2.934,0,0,1,16.828-8.406Zm-1.18,5.3a2.1,2.1,0,0,0-.605-1.555,2.147,2.147,0,0,0-1.582-.6,2.11,2.11,0,0,0-1.566.594A2.12,2.12,0,0,0,11.3-3.1a2.019,2.019,0,0,0,.574,1.523,2.2,2.2,0,0,0,1.6.555,2.2,2.2,0,0,0,1.594-.559A2.014,2.014,0,0,0,15.648-3.1Zm-2.172-7.242a1.865,1.865,0,0,0-1.379.527,1.937,1.937,0,0,0-.527,1.434,1.928,1.928,0,0,0,.52,1.4,1.844,1.844,0,0,0,1.387.535,1.844,1.844,0,0,0,1.387-.535,1.928,1.928,0,0,0,.52-1.4A1.929,1.929,0,0,0,14.844-9.8,1.839,1.839,0,0,0,13.477-10.344ZM19.094-.758a.905.905,0,0,1,.223-.625.848.848,0,0,1,.668-.25.874.874,0,0,1,.676.25.887.887,0,0,1,.23.625.839.839,0,0,1-.23.6.89.89,0,0,1-.676.242.863.863,0,0,1-.668-.242A.855.855,0,0,1,19.094-.758ZM30.258-4.852a6.61,6.61,0,0,1-.867,3.773A3.084,3.084,0,0,1,26.68.156a3.107,3.107,0,0,1-2.7-1.207,6.274,6.274,0,0,1-.906-3.605v-1.93a6.463,6.463,0,0,1,.867-3.727,3.108,3.108,0,0,1,2.719-1.219,3.136,3.136,0,0,1,2.7,1.176,6.237,6.237,0,0,1,.891,3.629ZM28.813-6.828A5.3,5.3,0,0,0,28.3-9.5a1.775,1.775,0,0,0-1.633-.84,1.751,1.751,0,0,0-1.617.836,5.171,5.171,0,0,0-.523,2.57v2.313A5.381,5.381,0,0,0,25.059-1.9a1.771,1.771,0,0,0,1.621.879,1.747,1.747,0,0,0,1.59-.828,5.186,5.186,0,0,0,.543-2.609Zm10.43,1.977a6.61,6.61,0,0,1-.867,3.773A3.084,3.084,0,0,1,35.664.156a3.107,3.107,0,0,1-2.7-1.207,6.274,6.274,0,0,1-.906-3.605v-1.93a6.463,6.463,0,0,1,.867-3.727,3.108,3.108,0,0,1,2.719-1.219,3.136,3.136,0,0,1,2.7,1.176,6.237,6.237,0,0,1,.891,3.629ZM37.8-6.828A5.3,5.3,0,0,0,37.281-9.5a1.775,1.775,0,0,0-1.633-.84,1.751,1.751,0,0,0-1.617.836,5.171,5.171,0,0,0-.523,2.57v2.313A5.381,5.381,0,0,0,34.043-1.9a1.771,1.771,0,0,0,1.621.879,1.747,1.747,0,0,0,1.59-.828A5.186,5.186,0,0,0,37.8-4.461Zm10.43,1.977a6.61,6.61,0,0,1-.867,3.773A3.084,3.084,0,0,1,44.648.156a3.107,3.107,0,0,1-2.7-1.207,6.274,6.274,0,0,1-.906-3.605v-1.93a6.463,6.463,0,0,1,.867-3.727,3.108,3.108,0,0,1,2.719-1.219,3.136,3.136,0,0,1,2.7,1.176,6.237,6.237,0,0,1,.891,3.629ZM46.781-6.828A5.3,5.3,0,0,0,46.266-9.5a1.775,1.775,0,0,0-1.633-.84,1.751,1.751,0,0,0-1.617.836,5.171,5.171,0,0,0-.523,2.57v2.313A5.381,5.381,0,0,0,43.027-1.9a1.771,1.771,0,0,0,1.621.879,1.747,1.747,0,0,0,1.59-.828,5.186,5.186,0,0,0,.543-2.609Z" transform="translate(789 12283)" fill="#12263f"/>
    <path id="Trazado_911486" data-name="Trazado 911486" d="M-3935.606,175H-3778" transform="translate(4812 12059)" fill="none" stroke="#707070" stroke-width="1"/>
    <path id="Trazado_911487" data-name="Trazado 911487" d="M-3935.606,175h59.025" transform="translate(4722 12116)" fill="none" stroke="#707070" stroke-width="1"/>
    <path id="Trazado_911682" data-name="Trazado 911682" d="M5.7,0H4.242V-9.633L1.328-8.562V-9.875L5.469-11.43H5.7ZM16.828-8.406a2.641,2.641,0,0,1-.449,1.516,3.056,3.056,0,0,1-1.215,1.039,3.26,3.26,0,0,1,1.41,1.117,2.811,2.811,0,0,1,.52,1.664,2.972,2.972,0,0,1-1,2.352,3.827,3.827,0,0,1-2.621.875,3.81,3.81,0,0,1-2.629-.879A2.986,2.986,0,0,1,9.859-3.07a2.9,2.9,0,0,1,.5-1.664,3.136,3.136,0,0,1,1.395-1.125,2.981,2.981,0,0,1-1.2-1.039,2.679,2.679,0,0,1-.437-1.508,2.94,2.94,0,0,1,.922-2.281,3.458,3.458,0,0,1,2.43-.844,3.461,3.461,0,0,1,2.426.844A2.934,2.934,0,0,1,16.828-8.406Zm-1.18,5.3a2.1,2.1,0,0,0-.605-1.555,2.147,2.147,0,0,0-1.582-.6,2.11,2.11,0,0,0-1.566.594A2.12,2.12,0,0,0,11.3-3.1a2.019,2.019,0,0,0,.574,1.523,2.2,2.2,0,0,0,1.6.555,2.2,2.2,0,0,0,1.594-.559A2.014,2.014,0,0,0,15.648-3.1Zm-2.172-7.242a1.865,1.865,0,0,0-1.379.527,1.937,1.937,0,0,0-.527,1.434,1.928,1.928,0,0,0,.52,1.4,1.844,1.844,0,0,0,1.387.535,1.844,1.844,0,0,0,1.387-.535,1.928,1.928,0,0,0,.52-1.4A1.929,1.929,0,0,0,14.844-9.8,1.839,1.839,0,0,0,13.477-10.344Z" transform="translate(795 12310)" fill="#12263f"/>
    <path id="Trazado_911683" data-name="Trazado 911683" d="M7.7-6.359H1.188V-7.617H7.7Zm0,3.242H1.188v-1.25H7.7Z" transform="translate(857 12294)" fill="#12263f"/>
    <path id="Trazado_911684" data-name="Trazado 911684" d="M3.047-6.391H4.133A2.387,2.387,0,0,0,5.742-6.93a1.8,1.8,0,0,0,.586-1.414,1.764,1.764,0,0,0-1.992-2,2.072,2.072,0,0,0-1.5.535,1.873,1.873,0,0,0-.559,1.418H.836a2.9,2.9,0,0,1,.988-2.246,3.6,3.6,0,0,1,2.512-.895,3.558,3.558,0,0,1,2.523.852,3.076,3.076,0,0,1,.914,2.367,2.5,2.5,0,0,1-.48,1.438A2.9,2.9,0,0,1,5.984-5.836a2.8,2.8,0,0,1,1.449.984,2.734,2.734,0,0,1,.512,1.68,3.1,3.1,0,0,1-1,2.43,3.745,3.745,0,0,1-2.6.9A3.844,3.844,0,0,1,1.738-.711,2.877,2.877,0,0,1,.734-3H2.188a1.859,1.859,0,0,0,.586,1.438,2.229,2.229,0,0,0,1.57.539,2.187,2.187,0,0,0,1.6-.547A2.108,2.108,0,0,0,6.5-3.141a1.912,1.912,0,0,0-.609-1.523,2.655,2.655,0,0,0-1.758-.547H3.047ZM10.109-.758a.905.905,0,0,1,.223-.625A.848.848,0,0,1,11-1.633a.874.874,0,0,1,.676.25.887.887,0,0,1,.23.625.839.839,0,0,1-.23.6A.89.89,0,0,1,11,.086a.863.863,0,0,1-.668-.242A.855.855,0,0,1,10.109-.758ZM21.594,0H14.141V-1.039l3.938-4.375a9.354,9.354,0,0,0,1.207-1.613,2.693,2.693,0,0,0,.332-1.285,2.041,2.041,0,0,0-.539-1.461,1.885,1.885,0,0,0-1.437-.57,2.232,2.232,0,0,0-1.676.613,2.343,2.343,0,0,0-.6,1.707H13.922a3.355,3.355,0,0,1,1.012-2.539,3.751,3.751,0,0,1,2.707-.969,3.6,3.6,0,0,1,2.508.832,2.838,2.838,0,0,1,.922,2.215q0,1.68-2.141,4l-3.047,3.3h5.711Zm8.984,0H23.125V-1.039l3.938-4.375A9.354,9.354,0,0,0,28.27-7.027,2.693,2.693,0,0,0,28.6-8.312a2.041,2.041,0,0,0-.539-1.461,1.885,1.885,0,0,0-1.437-.57,2.232,2.232,0,0,0-1.676.613,2.343,2.343,0,0,0-.6,1.707H22.906a3.355,3.355,0,0,1,1.012-2.539,3.751,3.751,0,0,1,2.707-.969,3.6,3.6,0,0,1,2.508.832,2.838,2.838,0,0,1,.922,2.215q0,1.68-2.141,4l-3.047,3.3h5.711Zm8.984,0H32.109V-1.039l3.938-4.375a9.355,9.355,0,0,0,1.207-1.613,2.693,2.693,0,0,0,.332-1.285,2.041,2.041,0,0,0-.539-1.461,1.885,1.885,0,0,0-1.437-.57,2.232,2.232,0,0,0-1.676.613,2.343,2.343,0,0,0-.6,1.707H31.891A3.355,3.355,0,0,1,32.9-10.562a3.751,3.751,0,0,1,2.707-.969,3.6,3.6,0,0,1,2.508.832,2.838,2.838,0,0,1,.922,2.215q0,1.68-2.141,4l-3.047,3.3h5.711Z" transform="translate(877 12293)" fill="#12263f"/>
  </g>
</svg>
