<svg xmlns="http://www.w3.org/2000/svg" width="615.034" height="357.165" viewBox="0 0 615.034 357.165">
  <g id="Grupo_60194" data-name="Grupo 60194" transform="translate(-488.91 -4441)">
    <path id="Trazado_113450" data-name="Trazado 113450" d="M13.663,13.82v4.655H10.355V4.754H15.83a6.377,6.377,0,0,1,2.785.579A4.368,4.368,0,0,1,20.49,6.982a4.5,4.5,0,0,1,.664,2.427,3.97,3.97,0,0,1-1.437,3.209,5.963,5.963,0,0,1-3.944,1.2Zm0-2.553H15.83a2.044,2.044,0,0,0,1.466-.482,1.785,1.785,0,0,0,.5-1.357,2.207,2.207,0,0,0-.518-1.536,1.833,1.833,0,0,0-1.414-.584H13.663Zm15.276-.113-1.046-.075a1.879,1.879,0,0,0-1.922.943v6.454H22.795V8.279h2.978l.1,1.31a2.459,2.459,0,0,1,2.233-1.5,3.1,3.1,0,0,1,.886.113Zm.405,2.13a6.018,6.018,0,0,1,.593-2.718,4.246,4.246,0,0,1,1.706-1.833,5.137,5.137,0,0,1,2.61-.641,4.688,4.688,0,0,1,3.609,1.419,5.443,5.443,0,0,1,1.319,3.86v.113a5.28,5.28,0,0,1-1.324,3.784,4.7,4.7,0,0,1-3.586,1.4,4.755,4.755,0,0,1-3.5-1.306,5.1,5.1,0,0,1-1.423-3.539Zm3.176.2a3.794,3.794,0,0,0,.443,2.073,1.475,1.475,0,0,0,1.31.66q1.7,0,1.737-2.61v-.32q0-2.743-1.752-2.743-1.592,0-1.724,2.365Zm12,.546,1.7-5.748h3.4l-4.156,11.9-.179.433a3.157,3.157,0,0,1-3.132,1.979,4.977,4.977,0,0,1-1.309-.188V20.143h.415a2.172,2.172,0,0,0,1.023-.193,1.173,1.173,0,0,0,.523-.693l.255-.675-3.541-10.3h3.393Zm10.734,4.632a5.242,5.242,0,0,1-3.8-1.4A4.833,4.833,0,0,1,50,13.618V13.36a6.262,6.262,0,0,1,.579-2.761,4.241,4.241,0,0,1,1.692-1.852,5.107,5.107,0,0,1,2.638-.655A4.414,4.414,0,0,1,58.3,9.423a5.24,5.24,0,0,1,1.244,3.718v1.234H53.234a2.289,2.289,0,0,0,.744,1.351,2.219,2.219,0,0,0,1.489.49,2.854,2.854,0,0,0,2.356-1.056l1.447,1.715a4.053,4.053,0,0,1-1.682,1.306,5.685,5.685,0,0,1-2.337.486Zm-.358-8.123q-1.394,0-1.659,1.847h3.2v-.245a1.573,1.573,0,0,0-.386-1.183,1.537,1.537,0,0,0-1.159-.415Zm10.243,5.673a1.413,1.413,0,0,0,1.039-.359,1.331,1.331,0,0,0,.358-1.013h2.978a3.525,3.525,0,0,1-1.2,2.752,4.469,4.469,0,0,1-3.1,1.079A4.525,4.525,0,0,1,61.7,17.274a5.5,5.5,0,0,1-1.282-3.86v-.132a6.211,6.211,0,0,1,.57-2.728,4.149,4.149,0,0,1,1.64-1.819A4.9,4.9,0,0,1,65.178,8.1a4.413,4.413,0,0,1,3.157,1.1A3.911,3.911,0,0,1,69.5,12.193H66.53a1.743,1.743,0,0,0-.386-1.216,1.334,1.334,0,0,0-1.036-.424q-1.234,0-1.442,1.574A11.105,11.105,0,0,0,63.6,13.5a4.362,4.362,0,0,0,.368,2.13,1.273,1.273,0,0,0,1.168.58Zm10.027,0a1.413,1.413,0,0,0,1.036-.363,1.331,1.331,0,0,0,.358-1.013h2.978a3.525,3.525,0,0,1-1.2,2.756,4.469,4.469,0,0,1-3.1,1.079,4.525,4.525,0,0,1-3.506-1.394,5.5,5.5,0,0,1-1.282-3.86v-.132a6.211,6.211,0,0,1,.57-2.728,4.15,4.15,0,0,1,1.64-1.819A4.9,4.9,0,0,1,75.207,8.1a4.413,4.413,0,0,1,3.157,1.1,3.911,3.911,0,0,1,1.169,2.991H76.558a1.743,1.743,0,0,0-.386-1.216,1.334,1.334,0,0,0-1.036-.424q-1.234,0-1.442,1.574a11.106,11.106,0,0,0-.066,1.376A4.362,4.362,0,0,0,74,15.633a1.273,1.273,0,0,0,1.168.58Zm9.065,2.266H81.044V8.279h3.184ZM80.851,5.64a1.43,1.43,0,0,1,.494-1.119,2.074,2.074,0,0,1,2.545,0,1.43,1.43,0,0,1,.489,1.119,1.43,1.43,0,0,1-.49,1.118,2.074,2.074,0,0,1-2.545,0,1.43,1.43,0,0,1-.489-1.118Zm4.928,7.643a6.018,6.018,0,0,1,.593-2.718,4.246,4.246,0,0,1,1.708-1.836,5.137,5.137,0,0,1,2.61-.641A4.688,4.688,0,0,1,94.3,9.506a5.443,5.443,0,0,1,1.319,3.86v.113A5.28,5.28,0,0,1,94.3,17.263a4.7,4.7,0,0,1-3.586,1.4,4.755,4.755,0,0,1-3.5-1.3,5.1,5.1,0,0,1-1.423-3.539Zm3.176.2a3.794,3.794,0,0,0,.443,2.073,1.475,1.475,0,0,0,1.31.66q1.7,0,1.737-2.61v-.32q0-2.743-1.752-2.743-1.592,0-1.724,2.365ZM91.127,4h3.355L91.862,6.959H89.27Zm8.811,4.279.1,1.2a3.458,3.458,0,0,1,2.912-1.386,2.909,2.909,0,0,1,2.38.951,4.536,4.536,0,0,1,.815,2.865v6.569h-3.184V12.038a1.721,1.721,0,0,0-.313-1.136,1.439,1.439,0,0,0-1.131-.363,1.514,1.514,0,0,0-1.386.735v7.2H96.959V8.279ZM112.312,13.3a6.229,6.229,0,0,1,1.046-3.817,3.443,3.443,0,0,1,2.921-1.394,2.929,2.929,0,0,1,2.3,1.074V4h3.184V18.475H118.9l-.16-1.093a3.007,3.007,0,0,1-2.485,1.286,3.437,3.437,0,0,1-2.883-1.394,6.426,6.426,0,0,1-1.063-3.972Zm3.176.2q0,2.715,1.584,2.715a1.563,1.563,0,0,0,1.508-.886V11.445a1.521,1.521,0,0,0-1.489-.9q-1.47,0-1.592,2.375ZM128.5,18.668a5.242,5.242,0,0,1-3.8-1.4,4.833,4.833,0,0,1-1.448-3.642V13.36a6.262,6.262,0,0,1,.579-2.761,4.241,4.241,0,0,1,1.688-1.855,5.107,5.107,0,0,1,2.638-.655,4.414,4.414,0,0,1,3.393,1.334,5.24,5.24,0,0,1,1.244,3.718v1.234h-6.31a2.289,2.289,0,0,0,.744,1.351,2.22,2.22,0,0,0,1.489.49,2.854,2.854,0,0,0,2.356-1.056l1.447,1.715a4.053,4.053,0,0,1-1.682,1.306,5.685,5.685,0,0,1-2.34.486Zm-.358-8.123q-1.394,0-1.659,1.847h3.2v-.245a1.573,1.573,0,0,0-.386-1.183,1.537,1.537,0,0,0-1.159-.424Zm14.8,4.156,1.612-6.417h3.346l-3.327,10.191h-3.241l-3.326-10.2h3.355Zm10.711,3.967a5.242,5.242,0,0,1-3.8-1.4,4.833,4.833,0,0,1-1.447-3.642V13.36a6.262,6.262,0,0,1,.579-2.761,4.241,4.241,0,0,1,1.692-1.852,5.107,5.107,0,0,1,2.638-.655,4.414,4.414,0,0,1,3.393,1.334,5.24,5.24,0,0,1,1.244,3.718v1.234h-6.314a2.289,2.289,0,0,0,.744,1.351,2.22,2.22,0,0,0,1.489.49,2.854,2.854,0,0,0,2.356-1.056l1.447,1.715A4.053,4.053,0,0,1,156,18.184a5.685,5.685,0,0,1-2.337.483Zm-.358-8.123q-1.394,0-1.659,1.847h3.2v-.245a1.573,1.573,0,0,0-.386-1.183,1.537,1.537,0,0,0-1.156-.424Zm8.849-2.262.1,1.2a3.458,3.458,0,0,1,2.912-1.386,2.909,2.909,0,0,1,2.38.951,4.535,4.535,0,0,1,.815,2.865v6.565h-3.184V12.038a1.721,1.721,0,0,0-.311-1.136,1.439,1.439,0,0,0-1.131-.363,1.514,1.514,0,0,0-1.386.735v7.2h-3.176V8.279Zm11.667-2.535V8.279h1.677v2.205h-1.674v4.665a1.191,1.191,0,0,0,.207.8,1.112,1.112,0,0,0,.82.226,4.659,4.659,0,0,0,.791-.057V18.39a5.862,5.862,0,0,1-1.79.273,3.327,3.327,0,0,1-2.422-.772,3.167,3.167,0,0,1-.783-2.347v-5.06h-1.3V8.279h1.3V5.744Zm8.672,12.727a3.585,3.585,0,0,1-.3-.914,2.953,2.953,0,0,1-2.45,1.1,3.618,3.618,0,0,1-2.45-.868A2.774,2.774,0,0,1,176.28,15.6a2.852,2.852,0,0,1,1.226-2.509,6.242,6.242,0,0,1,3.562-.848h.98v-.539q0-1.411-1.216-1.411a.994.994,0,0,0-1.131,1.117h-3.176a2.847,2.847,0,0,1,1.255-2.4,5.287,5.287,0,0,1,3.209-.923,4.632,4.632,0,0,1,3.081.951,3.309,3.309,0,0,1,1.158,2.61v4.514a4.622,4.622,0,0,0,.433,2.149v.158ZM180.5,16.4a1.772,1.772,0,0,0,.985-.255,1.6,1.6,0,0,0,.561-.579V13.939h-.924q-1.659,0-1.659,1.489a.909.909,0,0,0,.29.7,1.061,1.061,0,0,0,.748.271Zm11.827-.791a.733.733,0,0,0-.424-.65,6.451,6.451,0,0,0-1.612-.509,7.348,7.348,0,0,1-1.96-.693,3.281,3.281,0,0,1-1.178-1.041,2.487,2.487,0,0,1-.405-1.4A2.818,2.818,0,0,1,187.908,9a4.775,4.775,0,0,1,3.035-.909A5.29,5.29,0,0,1,194.184,9a2.858,2.858,0,0,1,1.226,2.4h-3.184q0-1.226-1.291-1.226a1.28,1.28,0,0,0-.839.278.861.861,0,0,0-.34.693.79.79,0,0,0,.415.688,3.918,3.918,0,0,0,1.324.433,11.442,11.442,0,0,1,1.6.405,2.9,2.9,0,0,1,2.3,2.836,2.67,2.67,0,0,1-1.239,2.272,5.435,5.435,0,0,1-3.209.876,5.546,5.546,0,0,1-2.337-.471,3.908,3.908,0,0,1-1.6-1.282,2.9,2.9,0,0,1-.579-1.706h2.968a1.227,1.227,0,0,0,.471,1.032,1.939,1.939,0,0,0,1.158.325A1.525,1.525,0,0,0,192,16.3a.844.844,0,0,0,.331-.686Z" transform="translate(693.5 4437)" fill="#12263f"/>
    <g id="Grupo_60064" data-name="Grupo 60064" transform="translate(9909.5 13405)">
      <g id="Grupo_59960" data-name="Grupo 59960" transform="translate(-9613.801 -8745.029)">
        <rect id="Rectángulo_28422" data-name="Rectángulo 28422" width="534.227" height="289.164" transform="translate(272.52 -173.087)" fill="none" stroke="#b4b4b4" stroke-miterlimit="10" stroke-width="1"/>
        <line id="Línea_770" data-name="Línea 770" x2="534.227" transform="translate(272.52 67.883)" fill="#fff" stroke="#b4b4b4" stroke-miterlimit="10" stroke-width="1"/>
        <path id="Trazado_111542" data-name="Trazado 111542" d="M0,0H534.227" transform="translate(272.52 19.689)" fill="#fff" stroke="#b4b4b4" stroke-width="1"/>
        <line id="Línea_772" data-name="Línea 772" x2="534.227" transform="translate(272.52 -28.505)" fill="#fff" stroke="#b4b4b4" stroke-miterlimit="10" stroke-width="1"/>
        <line id="Línea_773" data-name="Línea 773" x2="534.227" transform="translate(272.52 -76.699)" fill="#fff" stroke="#b4b4b4" stroke-miterlimit="10" stroke-width="1"/>
        <line id="Línea_774" data-name="Línea 774" x2="534.227" transform="translate(272.52 -124.893)" fill="#fff" stroke="#b4b4b4" stroke-miterlimit="10" stroke-width="1"/>
        <line id="Línea_775" data-name="Línea 775" y2="289.164" transform="translate(717.709 -173.087)" fill="#fff" stroke="#b4b4b4" stroke-miterlimit="10" stroke-width="1"/>
        <line id="Línea_776" data-name="Línea 776" y2="289.164" transform="translate(628.671 -173.087)" fill="#fff" stroke="#b4b4b4" stroke-miterlimit="10" stroke-width="1"/>
        <line id="Línea_777" data-name="Línea 777" y2="289.164" transform="translate(539.633 -173.087)" fill="#fff" stroke="#b4b4b4" stroke-miterlimit="10" stroke-width="1"/>
        <line id="Línea_778" data-name="Línea 778" y2="289.164" transform="translate(450.595 -173.087)" fill="#fff" stroke="#b4b4b4" stroke-miterlimit="10" stroke-width="1"/>
        <line id="Línea_779" data-name="Línea 779" y2="289.164" transform="translate(361.558 -173.087)" fill="#fff" stroke="#b4b4b4" stroke-miterlimit="10" stroke-width="1"/>
      </g>
      <g id="Grupo_59959" data-name="Grupo 59959" transform="translate(-10062.814 -8776.927)">
        <g id="Grupo_59936" data-name="Grupo 59936" transform="translate(704.695 140.856)">
          <line id="Línea_748" data-name="Línea 748" x2="533.446" transform="translate(17.619 7.223)" fill="none" stroke="#000" stroke-miterlimit="10" stroke-width="1"/>
          <g id="Grupo_59935" data-name="Grupo 59935">
            <g id="Grupo_59934" data-name="Grupo 59934">
              <line id="Línea_749" data-name="Línea 749" y1="7.222" fill="none" stroke="#000" stroke-miterlimit="10" stroke-width="1"/>
              <line id="Línea_750" data-name="Línea 750" y1="7.222" transform="translate(105.724)" fill="none" stroke="#000" stroke-miterlimit="10" stroke-width="1"/>
              <line id="Línea_751" data-name="Línea 751" y1="7.222" transform="translate(195.447)" fill="none" stroke="#000" stroke-miterlimit="10" stroke-width="1"/>
              <line id="Línea_752" data-name="Línea 752" y1="7.222" transform="translate(284.171)" fill="none" stroke="#000" stroke-miterlimit="10" stroke-width="1"/>
              <line id="Línea_753" data-name="Línea 753" y1="7.222" transform="translate(372.894)" fill="none" stroke="#000" stroke-miterlimit="10" stroke-width="1"/>
              <line id="Línea_755" data-name="Línea 755" y1="7.222" transform="translate(463.341)" fill="none" stroke="#000" stroke-miterlimit="10" stroke-width="1"/>
              <line id="Línea_756" data-name="Línea 756" y1="7.222" transform="translate(551.065)" fill="none" stroke="#000" stroke-miterlimit="10" stroke-width="1"/>
            </g>
          </g>
        </g>
        <g id="Grupo_59940" data-name="Grupo 59940" transform="translate(635.815 -151.073)">
          <g id="Grupo_59937" data-name="Grupo 59937">
            <path id="Trazado_113448" data-name="Trazado 113448" d="M-5.02-13.22c-2.64,0-4.52,2.4-4.52,6.76C-9.5-2.16-7.78.22-5.24.22-2.36.22-.72-2.22-.72-6.64-.72-10.78-2.28-13.22-5.02-13.22Zm-.1,1.36c1.82,0,2.64,2.1,2.64,5.3,0,3.32-.86,5.42-2.66,5.42-1.6,0-2.64-1.92-2.64-5.3,0-3.54,1.12-5.42,2.66-5.42Z" transform="translate(76.571 304.031)"/>
            <path id="Trazado_113447" data-name="Trazado 113447" d="M-68.266-6.391h1.086a2.387,2.387,0,0,0,1.61-.539,1.8,1.8,0,0,0,.586-1.414,1.764,1.764,0,0,0-.5-1.5,1.764,1.764,0,0,0-1.5-.5,2.072,2.072,0,0,0-1.5.535,1.873,1.873,0,0,0-.559,1.418H-70.48a2.9,2.9,0,0,1,.988-2.246,3.6,3.6,0,0,1,2.512-.9,3.558,3.558,0,0,1,2.523.852,3.076,3.076,0,0,1,.914,2.367,2.5,2.5,0,0,1-.48,1.438,2.9,2.9,0,0,1-1.309,1.039,2.8,2.8,0,0,1,1.449.984,2.734,2.734,0,0,1,.512,1.68,3.1,3.1,0,0,1-1,2.43,3.745,3.745,0,0,1-2.6.9,3.844,3.844,0,0,1-2.6-.867,2.877,2.877,0,0,1-1-2.289h1.453a1.859,1.859,0,0,0,.586,1.438,2.229,2.229,0,0,0,1.57.539,2.187,2.187,0,0,0,1.6-.547,2.108,2.108,0,0,0,.555-1.57,1.912,1.912,0,0,0-.609-1.523,2.655,2.655,0,0,0-1.758-.547h-1.086ZM-61.2-.758a.905.905,0,0,1,.223-.625.848.848,0,0,1,.668-.25.874.874,0,0,1,.676.25.887.887,0,0,1,.23.625.839.839,0,0,1-.23.6.89.89,0,0,1-.676.242.863.863,0,0,1-.668-.242.855.855,0,0,1-.223-.6Zm11.164-4.094A6.61,6.61,0,0,1-50.9-1.079,3.084,3.084,0,0,1-53.617.156a3.107,3.107,0,0,1-2.7-1.207,6.274,6.274,0,0,1-.906-3.6v-1.93a6.463,6.463,0,0,1,.867-3.727,3.108,3.108,0,0,1,2.719-1.219,3.136,3.136,0,0,1,2.7,1.176,6.237,6.237,0,0,1,.891,3.629Zm-1.445-1.977A5.3,5.3,0,0,0-52-9.5a1.775,1.775,0,0,0-1.633-.84A1.751,1.751,0,0,0-55.25-9.5a5.171,5.171,0,0,0-.523,2.57v2.313A5.381,5.381,0,0,0-55.238-1.9a1.771,1.771,0,0,0,1.621.879,1.747,1.747,0,0,0,1.59-.828,5.186,5.186,0,0,0,.543-2.609Zm10.43,1.977a6.61,6.61,0,0,1-.867,3.773A3.084,3.084,0,0,1-44.633.156a3.107,3.107,0,0,1-2.7-1.207,6.274,6.274,0,0,1-.906-3.605v-1.93a6.463,6.463,0,0,1,.867-3.727,3.108,3.108,0,0,1,2.719-1.219,3.136,3.136,0,0,1,2.7,1.176,6.237,6.237,0,0,1,.891,3.629ZM-42.5-6.828A5.3,5.3,0,0,0-43.016-9.5a1.775,1.775,0,0,0-1.633-.84,1.751,1.751,0,0,0-1.617.836,5.171,5.171,0,0,0-.523,2.57v2.313A5.381,5.381,0,0,0-46.254-1.9a1.771,1.771,0,0,0,1.621.879,1.747,1.747,0,0,0,1.59-.828A5.186,5.186,0,0,0-42.5-4.461Zm10.43,1.977a6.61,6.61,0,0,1-.867,3.773A3.084,3.084,0,0,1-35.648.156a3.107,3.107,0,0,1-2.7-1.207,6.274,6.274,0,0,1-.906-3.6v-1.93a6.463,6.463,0,0,1,.867-3.727,3.108,3.108,0,0,1,2.719-1.219,3.136,3.136,0,0,1,2.7,1.176,6.237,6.237,0,0,1,.891,3.629Zm-1.445-1.977A5.3,5.3,0,0,0-34.031-9.5a1.775,1.775,0,0,0-1.633-.84,1.751,1.751,0,0,0-1.617.836,5.171,5.171,0,0,0-.523,2.57v2.313A5.381,5.381,0,0,0-37.27-1.9a1.771,1.771,0,0,0,1.621.879,1.747,1.747,0,0,0,1.59-.828,5.186,5.186,0,0,0,.543-2.609Zm3.477,6.07a.905.905,0,0,1,.223-.625.848.848,0,0,1,.668-.25.874.874,0,0,1,.676.25.887.887,0,0,1,.23.625.839.839,0,0,1-.23.6.89.89,0,0,1-.676.242.863.863,0,0,1-.668-.242.855.855,0,0,1-.224-.6Zm11.164-4.094a6.61,6.61,0,0,1-.867,3.773A3.084,3.084,0,0,1-22.453.156a3.107,3.107,0,0,1-2.7-1.207,6.274,6.274,0,0,1-.906-3.605v-1.93a6.463,6.463,0,0,1,.867-3.727,3.108,3.108,0,0,1,2.719-1.219,3.136,3.136,0,0,1,2.7,1.176,6.237,6.237,0,0,1,.891,3.629ZM-20.32-6.828A5.3,5.3,0,0,0-20.836-9.5a1.775,1.775,0,0,0-1.633-.84,1.751,1.751,0,0,0-1.617.836,5.171,5.171,0,0,0-.523,2.57v2.313A5.381,5.381,0,0,0-24.074-1.9a1.771,1.771,0,0,0,1.621.879,1.747,1.747,0,0,0,1.59-.828,5.186,5.186,0,0,0,.543-2.609ZM-9.89-4.851a6.61,6.61,0,0,1-.867,3.773A3.084,3.084,0,0,1-13.469.156a3.107,3.107,0,0,1-2.7-1.207,6.274,6.274,0,0,1-.906-3.605v-1.93a6.463,6.463,0,0,1,.867-3.727,3.108,3.108,0,0,1,2.719-1.219,3.136,3.136,0,0,1,2.7,1.176A6.237,6.237,0,0,1-9.9-6.727Zm-1.445-1.977A5.3,5.3,0,0,0-11.852-9.5a1.775,1.775,0,0,0-1.633-.84A1.751,1.751,0,0,0-15.1-9.5a5.171,5.171,0,0,0-.523,2.57v2.313A5.381,5.381,0,0,0-15.09-1.9a1.771,1.771,0,0,0,1.621.879,1.747,1.747,0,0,0,1.59-.828,5.186,5.186,0,0,0,.543-2.609ZM-.906-4.852a6.61,6.61,0,0,1-.867,3.773A3.084,3.084,0,0,1-4.484.156a3.107,3.107,0,0,1-2.7-1.207,6.274,6.274,0,0,1-.906-3.6v-1.93a6.463,6.463,0,0,1,.867-3.727A3.108,3.108,0,0,1-4.5-11.531a3.136,3.136,0,0,1,2.7,1.176A6.237,6.237,0,0,1-.906-6.727ZM-2.352-6.828A5.3,5.3,0,0,0-2.867-9.5,1.775,1.775,0,0,0-4.5-10.34,1.751,1.751,0,0,0-6.117-9.5a5.171,5.171,0,0,0-.523,2.57v2.313A5.381,5.381,0,0,0-6.1-1.9a1.771,1.771,0,0,0,1.621.879,1.747,1.747,0,0,0,1.59-.828,5.186,5.186,0,0,0,.543-2.609ZM-62.914,48h-7.453V46.961l3.938-4.375a9.354,9.354,0,0,0,1.207-1.613,2.693,2.693,0,0,0,.332-1.285,2.041,2.041,0,0,0-.539-1.461,1.885,1.885,0,0,0-1.437-.57,2.232,2.232,0,0,0-1.676.613,2.343,2.343,0,0,0-.6,1.707h-1.445a3.355,3.355,0,0,1,1.012-2.539,3.751,3.751,0,0,1,2.707-.969,3.6,3.6,0,0,1,2.508.832,2.838,2.838,0,0,1,.922,2.215q0,1.68-2.141,4l-3.047,3.3h5.711Zm1.711-.758a.905.905,0,0,1,.223-.625.848.848,0,0,1,.668-.25.874.874,0,0,1,.676.25.887.887,0,0,1,.23.625.839.839,0,0,1-.23.6.89.89,0,0,1-.676.242.863.863,0,0,1-.668-.242.855.855,0,0,1-.22-.6Zm4.7-4.945.578-5.672H-50.1v1.336h-4.6l-.344,3.1a3.671,3.671,0,0,1,1.9-.492A3.138,3.138,0,0,1-50.68,41.6a4.026,4.026,0,0,1,.914,2.777,3.886,3.886,0,0,1-.949,2.77,3.46,3.46,0,0,1-2.652,1.012,3.6,3.6,0,0,1-2.461-.836,3.337,3.337,0,0,1-1.086-2.312h1.367a2.3,2.3,0,0,0,.7,1.473,2.162,2.162,0,0,0,1.484.5,1.95,1.95,0,0,0,1.582-.687,2.874,2.874,0,0,0,.574-1.9,2.638,2.638,0,0,0-.621-1.832,2.113,2.113,0,0,0-1.652-.691,2.383,2.383,0,0,0-1.484.414l-.383.313Zm15.453.852a6.61,6.61,0,0,1-.867,3.773,3.084,3.084,0,0,1-2.711,1.234,3.107,3.107,0,0,1-2.7-1.207,6.274,6.274,0,0,1-.906-3.6v-1.93a6.463,6.463,0,0,1,.867-3.727,3.108,3.108,0,0,1,2.719-1.219,3.136,3.136,0,0,1,2.7,1.176,6.237,6.237,0,0,1,.891,3.629Zm-1.45-1.977a5.3,5.3,0,0,0-.516-2.676,1.775,1.775,0,0,0-1.633-.84,1.751,1.751,0,0,0-1.617.836,5.171,5.171,0,0,0-.523,2.57v2.313a5.381,5.381,0,0,0,.535,2.723,1.771,1.771,0,0,0,1.621.879,1.747,1.747,0,0,0,1.59-.828A5.186,5.186,0,0,0-42.5,43.54Zm10.43,1.977a6.61,6.61,0,0,1-.867,3.773,3.084,3.084,0,0,1-2.711,1.234,3.107,3.107,0,0,1-2.7-1.207,6.274,6.274,0,0,1-.906-3.6v-1.93a6.463,6.463,0,0,1,.867-3.727,3.108,3.108,0,0,1,2.719-1.219,3.136,3.136,0,0,1,2.7,1.176,6.237,6.237,0,0,1,.891,3.629Zm-1.445-1.977a5.3,5.3,0,0,0-.516-2.676,1.775,1.775,0,0,0-1.633-.84,1.751,1.751,0,0,0-1.617.836,5.171,5.171,0,0,0-.523,2.57v2.313A5.381,5.381,0,0,0-37.27,46.1a1.771,1.771,0,0,0,1.621.879,1.747,1.747,0,0,0,1.59-.828,5.186,5.186,0,0,0,.543-2.609Zm3.477,6.07a.905.905,0,0,1,.223-.625.848.848,0,0,1,.668-.25.874.874,0,0,1,.676.25.887.887,0,0,1,.23.625.839.839,0,0,1-.23.6.89.89,0,0,1-.676.242.863.863,0,0,1-.668-.242.855.855,0,0,1-.224-.6Zm11.164-4.094a6.61,6.61,0,0,1-.867,3.773,3.084,3.084,0,0,1-2.711,1.234,3.107,3.107,0,0,1-2.7-1.207,6.274,6.274,0,0,1-.906-3.605v-1.93a6.463,6.463,0,0,1,.867-3.727,3.108,3.108,0,0,1,2.719-1.219,3.136,3.136,0,0,1,2.7,1.176,6.237,6.237,0,0,1,.891,3.629Zm-1.445-1.977a5.3,5.3,0,0,0-.516-2.676,1.775,1.775,0,0,0-1.633-.84,1.751,1.751,0,0,0-1.617.836,5.171,5.171,0,0,0-.523,2.57v2.313a5.381,5.381,0,0,0,.535,2.723,1.771,1.771,0,0,0,1.621.879,1.747,1.747,0,0,0,1.59-.828,5.186,5.186,0,0,0,.543-2.609Zm10.43,1.977a6.61,6.61,0,0,1-.867,3.773,3.084,3.084,0,0,1-2.711,1.234,3.107,3.107,0,0,1-2.7-1.207,6.274,6.274,0,0,1-.906-3.605v-1.93a6.463,6.463,0,0,1,.867-3.727,3.108,3.108,0,0,1,2.719-1.219,3.136,3.136,0,0,1,2.7,1.176A6.237,6.237,0,0,1-9.9,41.272Zm-1.445-1.977a5.3,5.3,0,0,0-.516-2.676,1.775,1.775,0,0,0-1.633-.84,1.751,1.751,0,0,0-1.617.836,5.171,5.171,0,0,0-.523,2.57v2.313A5.381,5.381,0,0,0-15.09,46.1a1.771,1.771,0,0,0,1.621.879,1.747,1.747,0,0,0,1.59-.828,5.186,5.186,0,0,0,.543-2.609ZM-.9,43.148a6.61,6.61,0,0,1-.867,3.773,3.084,3.084,0,0,1-2.711,1.234,3.107,3.107,0,0,1-2.7-1.207,6.274,6.274,0,0,1-.906-3.605v-1.93a6.463,6.463,0,0,1,.867-3.727A3.108,3.108,0,0,1-4.5,36.469a3.136,3.136,0,0,1,2.7,1.176,6.237,6.237,0,0,1,.891,3.629Zm-1.445-1.977A5.3,5.3,0,0,0-2.867,38.5,1.775,1.775,0,0,0-4.5,37.66a1.751,1.751,0,0,0-1.617.836,5.171,5.171,0,0,0-.523,2.57v2.313A5.381,5.381,0,0,0-6.1,46.1a1.771,1.771,0,0,0,1.621.879,1.747,1.747,0,0,0,1.59-.828,5.186,5.186,0,0,0,.543-2.609ZM-62.914,96h-7.453V94.961l3.938-4.375a9.354,9.354,0,0,0,1.207-1.613,2.693,2.693,0,0,0,.332-1.285,2.041,2.041,0,0,0-.539-1.461,1.885,1.885,0,0,0-1.437-.57,2.232,2.232,0,0,0-1.676.613,2.343,2.343,0,0,0-.6,1.707h-1.445a3.355,3.355,0,0,1,1.012-2.539,3.751,3.751,0,0,1,2.707-.969,3.6,3.6,0,0,1,2.508.832,2.838,2.838,0,0,1,.922,2.215q0,1.68-2.141,4l-3.047,3.3h5.711Zm1.711-.758a.905.905,0,0,1,.223-.625.848.848,0,0,1,.668-.25.874.874,0,0,1,.676.25.887.887,0,0,1,.23.625.839.839,0,0,1-.23.6.89.89,0,0,1-.676.242.863.863,0,0,1-.668-.242.855.855,0,0,1-.22-.6Zm11.164-4.094a6.61,6.61,0,0,1-.867,3.773,3.084,3.084,0,0,1-2.711,1.234,3.107,3.107,0,0,1-2.7-1.207,6.274,6.274,0,0,1-.906-3.6v-1.93a6.463,6.463,0,0,1,.867-3.727,3.108,3.108,0,0,1,2.719-1.219,3.136,3.136,0,0,1,2.7,1.176,6.237,6.237,0,0,1,.891,3.629Zm-1.445-1.977A5.3,5.3,0,0,0-52,86.5a1.775,1.775,0,0,0-1.633-.84,1.751,1.751,0,0,0-1.617.836,5.171,5.171,0,0,0-.523,2.57v2.313a5.381,5.381,0,0,0,.535,2.723,1.771,1.771,0,0,0,1.621.879,1.747,1.747,0,0,0,1.59-.828,5.186,5.186,0,0,0,.543-2.609Zm10.43,1.977a6.61,6.61,0,0,1-.867,3.773,3.084,3.084,0,0,1-2.711,1.234,3.107,3.107,0,0,1-2.7-1.207,6.274,6.274,0,0,1-.906-3.605v-1.93a6.463,6.463,0,0,1,.867-3.727,3.108,3.108,0,0,1,2.719-1.219,3.136,3.136,0,0,1,2.7,1.176,6.237,6.237,0,0,1,.891,3.629ZM-42.5,89.172a5.3,5.3,0,0,0-.516-2.676,1.775,1.775,0,0,0-1.633-.84,1.751,1.751,0,0,0-1.617.836,5.171,5.171,0,0,0-.523,2.57v2.313a5.381,5.381,0,0,0,.535,2.723,1.771,1.771,0,0,0,1.621.879,1.747,1.747,0,0,0,1.59-.828A5.186,5.186,0,0,0-42.5,91.54Zm10.43,1.977a6.61,6.61,0,0,1-.867,3.773,3.084,3.084,0,0,1-2.711,1.234,3.107,3.107,0,0,1-2.7-1.207,6.274,6.274,0,0,1-.906-3.605v-1.93a6.463,6.463,0,0,1,.867-3.727,3.108,3.108,0,0,1,2.719-1.219,3.136,3.136,0,0,1,2.7,1.176,6.237,6.237,0,0,1,.891,3.629Zm-1.445-1.977a5.3,5.3,0,0,0-.516-2.676,1.775,1.775,0,0,0-1.633-.84,1.751,1.751,0,0,0-1.617.836,5.171,5.171,0,0,0-.523,2.57v2.313A5.381,5.381,0,0,0-37.27,94.1a1.771,1.771,0,0,0,1.621.879,1.747,1.747,0,0,0,1.59-.828,5.186,5.186,0,0,0,.543-2.609Zm3.477,6.07a.905.905,0,0,1,.223-.625.848.848,0,0,1,.668-.25.874.874,0,0,1,.676.25.887.887,0,0,1,.23.625.839.839,0,0,1-.23.6.89.89,0,0,1-.676.242.863.863,0,0,1-.668-.242.855.855,0,0,1-.224-.6Zm11.164-4.094a6.61,6.61,0,0,1-.867,3.773,3.084,3.084,0,0,1-2.711,1.234,3.107,3.107,0,0,1-2.7-1.207,6.274,6.274,0,0,1-.906-3.605v-1.93a6.463,6.463,0,0,1,.867-3.727,3.108,3.108,0,0,1,2.719-1.219,3.136,3.136,0,0,1,2.7,1.176,6.237,6.237,0,0,1,.891,3.629Zm-1.445-1.977a5.3,5.3,0,0,0-.516-2.676,1.775,1.775,0,0,0-1.633-.84,1.751,1.751,0,0,0-1.617.836,5.171,5.171,0,0,0-.523,2.57v2.313a5.381,5.381,0,0,0,.535,2.723,1.771,1.771,0,0,0,1.621.879,1.747,1.747,0,0,0,1.59-.828,5.186,5.186,0,0,0,.543-2.609Zm10.43,1.977a6.61,6.61,0,0,1-.867,3.773,3.084,3.084,0,0,1-2.711,1.234,3.107,3.107,0,0,1-2.7-1.207,6.274,6.274,0,0,1-.906-3.605v-1.93a6.463,6.463,0,0,1,.867-3.727,3.108,3.108,0,0,1,2.719-1.219,3.136,3.136,0,0,1,2.7,1.176A6.237,6.237,0,0,1-9.9,89.272Zm-1.445-1.977a5.3,5.3,0,0,0-.516-2.676,1.775,1.775,0,0,0-1.633-.84,1.751,1.751,0,0,0-1.617.836,5.171,5.171,0,0,0-.523,2.57v2.313A5.381,5.381,0,0,0-15.09,94.1a1.771,1.771,0,0,0,1.621.879,1.747,1.747,0,0,0,1.59-.828,5.186,5.186,0,0,0,.543-2.609ZM-.9,91.148a6.61,6.61,0,0,1-.867,3.773,3.084,3.084,0,0,1-2.711,1.234,3.107,3.107,0,0,1-2.7-1.207,6.274,6.274,0,0,1-.906-3.605v-1.93a6.463,6.463,0,0,1,.867-3.727A3.108,3.108,0,0,1-4.5,84.469a3.136,3.136,0,0,1,2.7,1.176,6.237,6.237,0,0,1,.891,3.629Zm-1.445-1.977A5.3,5.3,0,0,0-2.867,86.5,1.775,1.775,0,0,0-4.5,85.66a1.751,1.751,0,0,0-1.617.836,5.171,5.171,0,0,0-.523,2.57v2.313A5.381,5.381,0,0,0-6.105,94.1a1.771,1.771,0,0,0,1.621.879,1.747,1.747,0,0,0,1.59-.828,5.186,5.186,0,0,0,.543-2.609ZM-65.617,144H-67.07v-9.633l-2.914,1.07v-1.312l4.141-1.555h.227Zm4.414-.758a.905.905,0,0,1,.223-.625.848.848,0,0,1,.668-.25.874.874,0,0,1,.676.25.887.887,0,0,1,.23.625.839.839,0,0,1-.23.6.89.89,0,0,1-.676.242.863.863,0,0,1-.668-.242.855.855,0,0,1-.22-.6Zm4.7-4.945.578-5.672H-50.1v1.336h-4.6l-.344,3.1a3.671,3.671,0,0,1,1.9-.492A3.138,3.138,0,0,1-50.68,137.6a4.026,4.026,0,0,1,.914,2.777,3.886,3.886,0,0,1-.949,2.77,3.46,3.46,0,0,1-2.652,1.012,3.6,3.6,0,0,1-2.461-.836,3.337,3.337,0,0,1-1.086-2.312h1.367a2.3,2.3,0,0,0,.7,1.473,2.162,2.162,0,0,0,1.484.5,1.95,1.95,0,0,0,1.582-.687,2.874,2.874,0,0,0,.574-1.9,2.638,2.638,0,0,0-.621-1.832,2.113,2.113,0,0,0-1.652-.691,2.383,2.383,0,0,0-1.484.414l-.383.313Zm15.453.852a6.61,6.61,0,0,1-.867,3.773,3.084,3.084,0,0,1-2.711,1.234,3.107,3.107,0,0,1-2.7-1.207,6.274,6.274,0,0,1-.906-3.6v-1.93a6.463,6.463,0,0,1,.867-3.727,3.108,3.108,0,0,1,2.719-1.219,3.136,3.136,0,0,1,2.7,1.176,6.237,6.237,0,0,1,.891,3.629Zm-1.445-1.977a5.3,5.3,0,0,0-.516-2.676,1.775,1.775,0,0,0-1.633-.84,1.751,1.751,0,0,0-1.617.836,5.171,5.171,0,0,0-.523,2.57v2.313a5.381,5.381,0,0,0,.535,2.723,1.771,1.771,0,0,0,1.621.879,1.747,1.747,0,0,0,1.59-.828,5.186,5.186,0,0,0,.543-2.609Zm10.43,1.977a6.61,6.61,0,0,1-.867,3.773,3.084,3.084,0,0,1-2.711,1.234,3.107,3.107,0,0,1-2.7-1.207,6.274,6.274,0,0,1-.906-3.6v-1.93a6.463,6.463,0,0,1,.867-3.727,3.108,3.108,0,0,1,2.719-1.219,3.136,3.136,0,0,1,2.7,1.176,6.237,6.237,0,0,1,.891,3.629Zm-1.445-1.977a5.3,5.3,0,0,0-.516-2.676,1.775,1.775,0,0,0-1.633-.84,1.751,1.751,0,0,0-1.617.836,5.171,5.171,0,0,0-.523,2.57v2.313a5.381,5.381,0,0,0,.535,2.723,1.771,1.771,0,0,0,1.621.879,1.747,1.747,0,0,0,1.59-.828,5.186,5.186,0,0,0,.543-2.609Zm3.477,6.07a.9.9,0,0,1,.223-.625.848.848,0,0,1,.668-.25.874.874,0,0,1,.676.25.887.887,0,0,1,.23.625.839.839,0,0,1-.23.6.89.89,0,0,1-.676.242.863.863,0,0,1-.668-.242.855.855,0,0,1-.229-.6Zm11.164-4.094a6.61,6.61,0,0,1-.867,3.773,3.084,3.084,0,0,1-2.711,1.234,3.107,3.107,0,0,1-2.7-1.207,6.274,6.274,0,0,1-.906-3.6v-1.93a6.463,6.463,0,0,1,.867-3.727,3.108,3.108,0,0,1,2.719-1.219,3.136,3.136,0,0,1,2.7,1.176,6.237,6.237,0,0,1,.891,3.629Zm-1.445-1.977a5.3,5.3,0,0,0-.516-2.676,1.775,1.775,0,0,0-1.633-.84,1.751,1.751,0,0,0-1.617.836,5.171,5.171,0,0,0-.523,2.57v2.313a5.381,5.381,0,0,0,.535,2.723,1.771,1.771,0,0,0,1.621.879,1.747,1.747,0,0,0,1.59-.828,5.186,5.186,0,0,0,.543-2.609Zm10.43,1.977a6.61,6.61,0,0,1-.867,3.773,3.084,3.084,0,0,1-2.711,1.234,3.107,3.107,0,0,1-2.7-1.207,6.274,6.274,0,0,1-.906-3.6v-1.93a6.463,6.463,0,0,1,.867-3.727,3.108,3.108,0,0,1,2.719-1.219,3.136,3.136,0,0,1,2.7,1.176,6.237,6.237,0,0,1,.891,3.629Zm-1.445-1.977a5.3,5.3,0,0,0-.516-2.676,1.775,1.775,0,0,0-1.633-.84,1.751,1.751,0,0,0-1.617.836,5.171,5.171,0,0,0-.523,2.57v2.313a5.381,5.381,0,0,0,.535,2.723,1.771,1.771,0,0,0,1.621.879,1.747,1.747,0,0,0,1.59-.828,5.186,5.186,0,0,0,.543-2.609ZM-.9,139.148a6.61,6.61,0,0,1-.867,3.773,3.084,3.084,0,0,1-2.711,1.234,3.107,3.107,0,0,1-2.7-1.207,6.274,6.274,0,0,1-.906-3.6v-1.93a6.463,6.463,0,0,1,.867-3.727A3.108,3.108,0,0,1-4.5,132.469a3.136,3.136,0,0,1,2.7,1.176,6.237,6.237,0,0,1,.891,3.629Zm-1.445-1.977a5.3,5.3,0,0,0-.516-2.676,1.775,1.775,0,0,0-1.633-.84,1.751,1.751,0,0,0-1.617.836,5.171,5.171,0,0,0-.523,2.57v2.313A5.381,5.381,0,0,0-6.1,142.1a1.771,1.771,0,0,0,1.621.879,1.747,1.747,0,0,0,1.59-.828,5.186,5.186,0,0,0,.543-2.609ZM-65.617,192H-67.07v-9.633l-2.914,1.07v-1.312l4.141-1.555h.227Zm4.414-.758a.905.905,0,0,1,.223-.625.848.848,0,0,1,.668-.25.874.874,0,0,1,.676.25.887.887,0,0,1,.23.625.839.839,0,0,1-.23.6.89.89,0,0,1-.676.242.863.863,0,0,1-.668-.242.855.855,0,0,1-.22-.6Zm11.164-4.094a6.61,6.61,0,0,1-.867,3.773,3.084,3.084,0,0,1-2.711,1.234,3.107,3.107,0,0,1-2.7-1.207,6.274,6.274,0,0,1-.906-3.6v-1.93a6.463,6.463,0,0,1,.867-3.727,3.108,3.108,0,0,1,2.719-1.219,3.136,3.136,0,0,1,2.7,1.176,6.237,6.237,0,0,1,.891,3.629Zm-1.445-1.977A5.3,5.3,0,0,0-52,182.5a1.775,1.775,0,0,0-1.633-.84,1.751,1.751,0,0,0-1.617.836,5.171,5.171,0,0,0-.523,2.57v2.313a5.381,5.381,0,0,0,.535,2.723,1.771,1.771,0,0,0,1.621.879,1.747,1.747,0,0,0,1.59-.828,5.186,5.186,0,0,0,.543-2.609Zm10.43,1.977a6.61,6.61,0,0,1-.867,3.773,3.084,3.084,0,0,1-2.711,1.234,3.107,3.107,0,0,1-2.7-1.207,6.274,6.274,0,0,1-.906-3.6v-1.93a6.463,6.463,0,0,1,.867-3.727,3.108,3.108,0,0,1,2.719-1.219,3.136,3.136,0,0,1,2.7,1.176,6.237,6.237,0,0,1,.891,3.629Zm-1.445-1.977a5.3,5.3,0,0,0-.516-2.676,1.775,1.775,0,0,0-1.633-.84,1.751,1.751,0,0,0-1.617.836,5.171,5.171,0,0,0-.523,2.57v2.313a5.381,5.381,0,0,0,.535,2.723,1.771,1.771,0,0,0,1.621.879,1.747,1.747,0,0,0,1.59-.828,5.186,5.186,0,0,0,.543-2.609Zm10.43,1.977a6.61,6.61,0,0,1-.867,3.773,3.084,3.084,0,0,1-2.711,1.234,3.107,3.107,0,0,1-2.7-1.207,6.274,6.274,0,0,1-.906-3.6v-1.93a6.463,6.463,0,0,1,.867-3.727,3.108,3.108,0,0,1,2.719-1.219,3.136,3.136,0,0,1,2.7,1.176,6.237,6.237,0,0,1,.891,3.629Zm-1.445-1.977a5.3,5.3,0,0,0-.516-2.676,1.775,1.775,0,0,0-1.633-.84,1.751,1.751,0,0,0-1.617.836,5.171,5.171,0,0,0-.523,2.57v2.313a5.381,5.381,0,0,0,.535,2.723,1.771,1.771,0,0,0,1.621.879,1.747,1.747,0,0,0,1.59-.828,5.186,5.186,0,0,0,.543-2.609Zm3.477,6.07a.9.9,0,0,1,.223-.625.848.848,0,0,1,.668-.25.874.874,0,0,1,.676.25.887.887,0,0,1,.23.625.839.839,0,0,1-.23.6.89.89,0,0,1-.676.242.863.863,0,0,1-.668-.242.855.855,0,0,1-.225-.6Zm11.164-4.094a6.61,6.61,0,0,1-.867,3.773,3.084,3.084,0,0,1-2.711,1.234,3.107,3.107,0,0,1-2.7-1.207,6.274,6.274,0,0,1-.906-3.6v-1.93a6.463,6.463,0,0,1,.867-3.727,3.108,3.108,0,0,1,2.719-1.219,3.136,3.136,0,0,1,2.7,1.176,6.237,6.237,0,0,1,.891,3.629Zm-1.445-1.977a5.3,5.3,0,0,0-.516-2.676,1.775,1.775,0,0,0-1.633-.84,1.751,1.751,0,0,0-1.617.836,5.171,5.171,0,0,0-.523,2.57v2.313a5.381,5.381,0,0,0,.535,2.723,1.771,1.771,0,0,0,1.621.879,1.747,1.747,0,0,0,1.59-.828,5.186,5.186,0,0,0,.543-2.609Zm10.43,1.977a6.61,6.61,0,0,1-.867,3.773,3.084,3.084,0,0,1-2.711,1.234,3.107,3.107,0,0,1-2.7-1.207,6.274,6.274,0,0,1-.906-3.6v-1.93a6.463,6.463,0,0,1,.867-3.727,3.108,3.108,0,0,1,2.719-1.219,3.136,3.136,0,0,1,2.7,1.176,6.237,6.237,0,0,1,.891,3.629Zm-1.445-1.977a5.3,5.3,0,0,0-.516-2.676,1.775,1.775,0,0,0-1.633-.84,1.751,1.751,0,0,0-1.617.836,5.171,5.171,0,0,0-.523,2.57v2.313a5.381,5.381,0,0,0,.535,2.723,1.771,1.771,0,0,0,1.621.879,1.747,1.747,0,0,0,1.59-.828,5.186,5.186,0,0,0,.543-2.609ZM-.9,187.147a6.61,6.61,0,0,1-.867,3.773,3.084,3.084,0,0,1-2.711,1.234,3.107,3.107,0,0,1-2.7-1.207,6.274,6.274,0,0,1-.906-3.6v-1.93a6.463,6.463,0,0,1,.867-3.727,3.108,3.108,0,0,1,2.72-1.216,3.136,3.136,0,0,1,2.7,1.176,6.237,6.237,0,0,1,.891,3.629Zm-1.445-1.977a5.3,5.3,0,0,0-.516-2.676,1.775,1.775,0,0,0-1.633-.84,1.751,1.751,0,0,0-1.617.836,5.171,5.171,0,0,0-.523,2.57v2.313A5.381,5.381,0,0,0-6.1,190.1a1.771,1.771,0,0,0,1.621.879,1.747,1.747,0,0,0,1.59-.828,5.186,5.186,0,0,0,.543-2.609Zm-54.16,49.13.578-5.672h5.83v1.336h-4.6l-.344,3.1a3.671,3.671,0,0,1,1.9-.492A3.138,3.138,0,0,1-50.68,233.6a4.026,4.026,0,0,1,.914,2.777,3.886,3.886,0,0,1-.949,2.77,3.46,3.46,0,0,1-2.652,1.012,3.6,3.6,0,0,1-2.461-.836,3.337,3.337,0,0,1-1.086-2.312h1.367a2.3,2.3,0,0,0,.7,1.473,2.162,2.162,0,0,0,1.484.5,1.95,1.95,0,0,0,1.582-.687,2.874,2.874,0,0,0,.574-1.9,2.638,2.638,0,0,0-.621-1.832,2.113,2.113,0,0,0-1.652-.691,2.383,2.383,0,0,0-1.484.414l-.383.313Zm15.453.852a6.61,6.61,0,0,1-.867,3.773,3.084,3.084,0,0,1-2.711,1.234,3.107,3.107,0,0,1-2.7-1.207,6.274,6.274,0,0,1-.906-3.605v-1.93a6.463,6.463,0,0,1,.867-3.727,3.108,3.108,0,0,1,2.719-1.219,3.136,3.136,0,0,1,2.7,1.176,6.237,6.237,0,0,1,.891,3.629Zm-1.445-1.977a5.3,5.3,0,0,0-.516-2.676,1.775,1.775,0,0,0-1.633-.84,1.751,1.751,0,0,0-1.617.836,5.171,5.171,0,0,0-.523,2.57v2.313a5.381,5.381,0,0,0,.535,2.723,1.771,1.771,0,0,0,1.621.879,1.747,1.747,0,0,0,1.59-.828,5.186,5.186,0,0,0,.543-2.609Zm10.43,1.977a6.61,6.61,0,0,1-.867,3.773,3.084,3.084,0,0,1-2.711,1.234,3.107,3.107,0,0,1-2.7-1.207,6.274,6.274,0,0,1-.906-3.605v-1.93a6.463,6.463,0,0,1,.867-3.727,3.108,3.108,0,0,1,2.719-1.219,3.136,3.136,0,0,1,2.7,1.176,6.237,6.237,0,0,1,.891,3.629Zm-1.445-1.977a5.3,5.3,0,0,0-.516-2.676,1.775,1.775,0,0,0-1.633-.84,1.751,1.751,0,0,0-1.617.836,5.171,5.171,0,0,0-.523,2.57v2.313a5.381,5.381,0,0,0,.535,2.723,1.771,1.771,0,0,0,1.621.879,1.747,1.747,0,0,0,1.59-.828,5.186,5.186,0,0,0,.543-2.609Zm3.477,6.07a.9.9,0,0,1,.223-.625.848.848,0,0,1,.668-.25.874.874,0,0,1,.676.25.887.887,0,0,1,.23.625.839.839,0,0,1-.23.6.89.89,0,0,1-.676.242.863.863,0,0,1-.668-.242.855.855,0,0,1-.224-.6Zm11.164-4.094a6.61,6.61,0,0,1-.867,3.773,3.084,3.084,0,0,1-2.711,1.234,3.107,3.107,0,0,1-2.7-1.207,6.274,6.274,0,0,1-.906-3.605v-1.93a6.463,6.463,0,0,1,.867-3.727,3.108,3.108,0,0,1,2.719-1.219,3.136,3.136,0,0,1,2.7,1.176,6.237,6.237,0,0,1,.891,3.629Zm-1.445-1.977a5.3,5.3,0,0,0-.516-2.676,1.775,1.775,0,0,0-1.633-.84,1.751,1.751,0,0,0-1.617.836,5.171,5.171,0,0,0-.523,2.57v2.313a5.381,5.381,0,0,0,.535,2.723,1.771,1.771,0,0,0,1.621.879,1.747,1.747,0,0,0,1.59-.828,5.186,5.186,0,0,0,.543-2.609Zm10.43,1.977a6.61,6.61,0,0,1-.867,3.773,3.084,3.084,0,0,1-2.711,1.234,3.107,3.107,0,0,1-2.7-1.207,6.274,6.274,0,0,1-.906-3.605v-1.93a6.463,6.463,0,0,1,.867-3.727,3.108,3.108,0,0,1,2.719-1.219,3.136,3.136,0,0,1,2.7,1.176,6.237,6.237,0,0,1,.891,3.629Zm-1.445-1.977a5.3,5.3,0,0,0-.516-2.676,1.775,1.775,0,0,0-1.633-.84,1.751,1.751,0,0,0-1.617.836,5.171,5.171,0,0,0-.523,2.57v2.313a5.381,5.381,0,0,0,.535,2.723,1.771,1.771,0,0,0,1.621.879,1.747,1.747,0,0,0,1.59-.828,5.186,5.186,0,0,0,.543-2.609ZM-.9,235.151a6.61,6.61,0,0,1-.867,3.773,3.084,3.084,0,0,1-2.711,1.234,3.107,3.107,0,0,1-2.7-1.207,6.274,6.274,0,0,1-.906-3.605v-1.93a6.463,6.463,0,0,1,.867-3.727,3.108,3.108,0,0,1,2.721-1.22,3.136,3.136,0,0,1,2.7,1.176,6.237,6.237,0,0,1,.891,3.629Zm-1.445-1.977a5.3,5.3,0,0,0-.516-2.676,1.775,1.775,0,0,0-1.633-.84,1.751,1.751,0,0,0-1.617.836,5.171,5.171,0,0,0-.523,2.57v2.313A5.381,5.381,0,0,0-6.1,238.1a1.771,1.771,0,0,0,1.621.879,1.747,1.747,0,0,0,1.59-.828,5.186,5.186,0,0,0,.543-2.609Z" transform="translate(76.999 15)" fill="#12263f"/>
            <path id="Trazado_113449" data-name="Trazado 113449" d="M8.078,10.148a6.61,6.61,0,0,1-.867,3.773A3.084,3.084,0,0,1,4.5,15.156a3.107,3.107,0,0,1-2.7-1.207,6.274,6.274,0,0,1-.9-3.6V8.414a6.463,6.463,0,0,1,.867-3.727A3.108,3.108,0,0,1,4.484,3.469a3.136,3.136,0,0,1,2.7,1.176,6.237,6.237,0,0,1,.891,3.629ZM6.633,8.172A5.3,5.3,0,0,0,6.117,5.5a1.775,1.775,0,0,0-1.633-.84A1.751,1.751,0,0,0,2.867,5.5a5.171,5.171,0,0,0-.523,2.57v2.313A5.381,5.381,0,0,0,2.879,13.1a1.771,1.771,0,0,0,1.621.879,1.747,1.747,0,0,0,1.59-.828,5.186,5.186,0,0,0,.543-2.609ZM89.938,15H88.484V5.367L85.57,6.438V5.125L89.711,3.57h.227ZM184.8,15h-7.453V13.961l3.938-4.375A9.355,9.355,0,0,0,182.5,7.973a2.692,2.692,0,0,0,.332-1.285,2.041,2.041,0,0,0-.539-1.461,1.885,1.885,0,0,0-1.437-.57,2.232,2.232,0,0,0-1.676.613,2.343,2.343,0,0,0-.6,1.707h-1.445a3.355,3.355,0,0,1,1.012-2.539,3.751,3.751,0,0,1,2.707-.969,3.6,3.6,0,0,1,2.508.832,2.838,2.838,0,0,1,.922,2.215q0,1.68-2.141,4l-3.047,3.3h5.7Zm86.813-6.391H272.7a2.387,2.387,0,0,0,1.609-.539,1.8,1.8,0,0,0,.586-1.414,1.764,1.764,0,0,0-1.992-2,2.072,2.072,0,0,0-1.5.535,1.873,1.873,0,0,0-.559,1.418H269.4a2.9,2.9,0,0,1,.988-2.246,3.6,3.6,0,0,1,2.512-.9,3.558,3.558,0,0,1,2.523.852,3.076,3.076,0,0,1,.914,2.367,2.5,2.5,0,0,1-.48,1.438,2.9,2.9,0,0,1-1.309,1.039,2.8,2.8,0,0,1,1.449.984,2.734,2.734,0,0,1,.512,1.68,3.1,3.1,0,0,1-1,2.43,3.745,3.745,0,0,1-2.6.9,3.844,3.844,0,0,1-2.605-.867,2.877,2.877,0,0,1-1-2.289h1.453a1.859,1.859,0,0,0,.586,1.438,2.229,2.229,0,0,0,1.57.539,2.187,2.187,0,0,0,1.6-.547,2.108,2.108,0,0,0,.555-1.57,1.912,1.912,0,0,0-.609-1.523,2.655,2.655,0,0,0-1.758-.547h-1.086Zm92.2,2.57H365.4v1.18h-1.58V15h-1.453V12.359h-5.18v-.852l5.094-7.883h1.539Zm-4.992,0h3.539V5.6l-.172.313ZM446.586,9.3l.578-5.672h5.828V4.961h-4.6l-.344,3.1a3.671,3.671,0,0,1,1.9-.492A3.138,3.138,0,0,1,452.414,8.6a4.026,4.026,0,0,1,.914,2.777,3.886,3.886,0,0,1-.949,2.77,3.46,3.46,0,0,1-2.652,1.012,3.6,3.6,0,0,1-2.461-.836,3.337,3.337,0,0,1-1.086-2.312h1.367a2.3,2.3,0,0,0,.7,1.473,2.162,2.162,0,0,0,1.484.5,1.95,1.95,0,0,0,1.582-.687,2.874,2.874,0,0,0,.574-1.9,2.638,2.638,0,0,0-.621-1.832,2.113,2.113,0,0,0-1.652-.691,2.383,2.383,0,0,0-1.484.414l-.383.313Zm89.25-5.68V4.844h-.266a3.8,3.8,0,0,0-2.687,1,4.161,4.161,0,0,0-1.156,2.727A3.085,3.085,0,0,1,534.18,7.54a2.95,2.95,0,0,1,2.371,1.047,4.038,4.038,0,0,1,.887,2.7,4.025,4.025,0,0,1-.957,2.813,3.3,3.3,0,0,1-2.566,1.055,3.247,3.247,0,0,1-2.648-1.254,4.97,4.97,0,0,1-1.016-3.23v-.555a7.488,7.488,0,0,1,1.34-4.8,4.921,4.921,0,0,1,3.988-1.7Zm-1.9,5.125A2.429,2.429,0,0,0,531.7,10.3v.531a3.731,3.731,0,0,0,.633,2.266,1.9,1.9,0,0,0,1.578.859,1.837,1.837,0,0,0,1.535-.719,2.982,2.982,0,0,0,.559-1.883,2.983,2.983,0,0,0-.566-1.895,1.816,1.816,0,0,0-1.5-.717Z" transform="translate(84 306)" fill="#12263f"/>
          </g>
          <line id="Línea_757" data-name="Línea 757" y1="288.884" transform="translate(86.881 9.267)" fill="none" stroke="#000" stroke-miterlimit="10" stroke-width="1"/>
          <g id="Grupo_59939" data-name="Grupo 59939" transform="translate(86.881 9.267)">
            <g id="Grupo_59938" data-name="Grupo 59938">
              <line id="Línea_758" data-name="Línea 758" x2="13.777" transform="translate(0 288.884)" fill="none" stroke="#000" stroke-miterlimit="10" stroke-width="1"/>
              <line id="Línea_759" data-name="Línea 759" x2="13.777" transform="translate(0 193.107)" fill="none" stroke="#000" stroke-miterlimit="10" stroke-width="1"/>
              <line id="Línea_780" data-name="Línea 780" x2="13.777" transform="translate(0 240.885)" fill="none" stroke="#000" stroke-miterlimit="10" stroke-width="1"/>
              <line id="Línea_760" data-name="Línea 760" x2="13.777" transform="translate(0 145.33)" fill="none" stroke="#000" stroke-miterlimit="10" stroke-width="1"/>
              <line id="Línea_761" data-name="Línea 761" x2="13.777" transform="translate(0 97.554)" fill="none" stroke="#000" stroke-miterlimit="10" stroke-width="1"/>
              <line id="Línea_762" data-name="Línea 762" x2="13.777" transform="translate(0 48.777)" fill="none" stroke="#000" stroke-miterlimit="10" stroke-width="1"/>
              <line id="Línea_763" data-name="Línea 763" x2="13.777" fill="none" stroke="#000" stroke-miterlimit="10" stroke-width="1"/>
            </g>
          </g>
        </g>
      </g>
      <line id="Línea_781" data-name="Línea 781" x1="361" y2="109" transform="translate(-9254.5 -8883.5)" fill="none" stroke="#707070" stroke-linecap="round" stroke-width="5" stroke-dasharray="0 8"/>
      <circle id="Elipse_4367" data-name="Elipse 4367" cx="5" cy="5" r="5" transform="translate(-9255 -8789)" fill="#6595bf"/>
      <circle id="Elipse_4368" data-name="Elipse 4368" cx="5" cy="5" r="5" transform="translate(-9167 -8804)" fill="#6595bf"/>
      <circle id="Elipse_4369" data-name="Elipse 4369" cx="5" cy="5" r="5" transform="translate(-9079 -8826)" fill="#6595bf"/>
      <circle id="Elipse_4370" data-name="Elipse 4370" cx="5" cy="5" r="5" transform="translate(-8989 -8861)" fill="#6595bf"/>
      <circle id="Elipse_4371" data-name="Elipse 4371" cx="5" cy="5" r="5" transform="translate(-8900 -8893)" fill="#6595bf"/>
      <g id="Grupo_59961" data-name="Grupo 59961" transform="translate(5 148)">
        <rect id="Rectángulo_28423" data-name="Rectángulo 28423" width="228" height="33" transform="translate(-9307 -9031)" fill="#f2e9e4"/>
        <path id="Trazado_113446" data-name="Trazado 113446" d="M9.865,14.618,12.08,7.49h1.74L10,18.468q-.888,2.373-2.821,2.373l-.308-.026L6.262,20.7V19.382l.439.035a2.164,2.164,0,0,0,1.288-.334,2.417,2.417,0,0,0,.76-1.222l.36-.967L5.717,7.49H7.492Zm17.3-4.772h-7.33V8.431h7.33Zm0,3.647h-7.33V12.087h7.33ZM42.279,17H33.9V15.831l4.43-4.922a10.524,10.524,0,0,0,1.358-1.815,3.029,3.029,0,0,0,.374-1.446A2.3,2.3,0,0,0,39.449,6a2.12,2.12,0,0,0-1.617-.642,2.511,2.511,0,0,0-1.885.69,2.635,2.635,0,0,0-.672,1.92H33.648a3.774,3.774,0,0,1,1.138-2.856,4.219,4.219,0,0,1,3.045-1.09,4.054,4.054,0,0,1,2.821.936,3.193,3.193,0,0,1,1.038,2.5q0,1.89-2.408,4.5l-3.428,3.718h6.425ZM52.264,5.117,46.964,17H45.259L50.541,5.539H43.615V4.2h8.648Zm2.593,5.467.65-6.381h6.557V5.7H56.887L56.5,9.2a4.13,4.13,0,0,1,2.136-.554A3.531,3.531,0,0,1,61.413,9.8a4.53,4.53,0,0,1,1.028,3.125,4.372,4.372,0,0,1-1.068,3.116,3.892,3.892,0,0,1-2.984,1.138,4.045,4.045,0,0,1-2.769-.94,3.754,3.754,0,0,1-1.222-2.6h1.538a2.582,2.582,0,0,0,.782,1.657,2.432,2.432,0,0,0,1.67.558,2.194,2.194,0,0,0,1.78-.773,3.233,3.233,0,0,0,.646-2.136,2.968,2.968,0,0,0-.7-2.061,2.377,2.377,0,0,0-1.859-.778,2.681,2.681,0,0,0-1.67.466l-.431.352Zm9.563,5.563a1.018,1.018,0,0,1,.25-.7.954.954,0,0,1,.751-.281.983.983,0,0,1,.76.281,1,1,0,0,1,.259.7.944.944,0,0,1-.259.677,1,1,0,0,1-.76.272.9.9,0,0,1-1-.949Zm5.28-5.563L70.35,4.2h6.557V5.7H71.731l-.386,3.5a4.13,4.13,0,0,1,2.136-.554A3.531,3.531,0,0,1,76.258,9.8a4.53,4.53,0,0,1,1.028,3.125,4.372,4.372,0,0,1-1.068,3.116,3.892,3.892,0,0,1-2.984,1.138,4.045,4.045,0,0,1-2.769-.94,3.754,3.754,0,0,1-1.222-2.6h1.538a2.582,2.582,0,0,0,.782,1.657,2.432,2.432,0,0,0,1.67.558,2.194,2.194,0,0,0,1.78-.773,3.233,3.233,0,0,0,.646-2.136,2.968,2.968,0,0,0-.7-2.061A2.377,2.377,0,0,0,73.1,10.1a2.681,2.681,0,0,0-1.67.466l-.43.352Zm17.385.958a7.436,7.436,0,0,1-.976,4.245,4.054,4.054,0,0,1-6.082.031,7.058,7.058,0,0,1-1.02-4.056V9.591A7.271,7.271,0,0,1,79.984,5.4a4.127,4.127,0,0,1,6.1-.048,7.017,7.017,0,0,1,1,4.083ZM85.46,9.318a5.958,5.958,0,0,0-.58-3.01,2,2,0,0,0-1.837-.945,1.97,1.97,0,0,0-1.819.94,5.817,5.817,0,0,0-.589,2.9v2.6a6.053,6.053,0,0,0,.6,3.063,1.993,1.993,0,0,0,1.824.989,1.966,1.966,0,0,0,1.789-.932,5.834,5.834,0,0,0,.611-2.936Zm11.733,2.224a7.436,7.436,0,0,1-.976,4.245,4.054,4.054,0,0,1-6.082.031,7.058,7.058,0,0,1-1.02-4.056V9.591A7.271,7.271,0,0,1,90.092,5.4a4.127,4.127,0,0,1,6.1-.048,7.017,7.017,0,0,1,1,4.083ZM95.567,9.318a5.958,5.958,0,0,0-.58-3.01,2,2,0,0,0-1.837-.945,1.97,1.97,0,0,0-1.819.94,5.817,5.817,0,0,0-.589,2.9v2.6a6.053,6.053,0,0,0,.6,3.063,1.993,1.993,0,0,0,1.824.989,1.966,1.966,0,0,0,1.789-.932,5.834,5.834,0,0,0,.611-2.936Zm7.066,1.644,2.109-3.472h1.9l-3.111,4.7L106.738,17h-1.881l-2.2-3.56-2.2,3.56h-1.89l3.208-4.808L98.67,7.49h1.881Zm14.845-.826h3.568v1.538h-3.568v4.043h-1.635V11.674h-3.568V10.136h3.568V6.4h1.635ZM132.657,17h-1.635V6.163l-3.278,1.2V5.891L132.4,4.142h.255Zm4.966-.853a1.018,1.018,0,0,1,.25-.7.954.954,0,0,1,.751-.281.983.983,0,0,1,.76.281,1,1,0,0,1,.259.7.944.944,0,0,1-.259.677,1,1,0,0,1-.76.272.9.9,0,0,1-1-.949Zm12.92.853h-8.385V15.831l4.43-4.922a10.524,10.524,0,0,0,1.358-1.815,3.029,3.029,0,0,0,.374-1.446A2.3,2.3,0,0,0,147.713,6a2.12,2.12,0,0,0-1.617-.642,2.511,2.511,0,0,0-1.885.69,2.635,2.635,0,0,0-.672,1.92h-1.626a3.774,3.774,0,0,1,1.138-2.856,4.219,4.219,0,0,1,3.045-1.09,4.054,4.054,0,0,1,2.821.936,3.193,3.193,0,0,1,1.037,2.492q0,1.89-2.408,4.5l-3.428,3.718h6.425Zm8.587-4.3H160.9v1.327H159.13V17H157.5V14.029h-5.827v-.958L157.4,4.2h1.731Zm-5.616,0H157.5V6.427l-.193.352Zm17.121-7.585L165.335,17H163.63l5.282-11.461h-6.926V4.2h8.648Zm2.048,11.03a1.018,1.018,0,0,1,.25-.7.954.954,0,0,1,.751-.281.983.983,0,0,1,.76.281,1,1,0,0,1,.259.7.944.944,0,0,1-.259.677,1,1,0,0,1-.76.272.9.9,0,0,1-1-.949Zm12.56-4.6a7.436,7.436,0,0,1-.976,4.245,4.054,4.054,0,0,1-6.082.031,7.058,7.058,0,0,1-1.02-4.056V9.591a7.271,7.271,0,0,1,.976-4.192,4.127,4.127,0,0,1,6.1-.048,7.017,7.017,0,0,1,1,4.083Zm-1.626-2.224a5.958,5.958,0,0,0-.58-3.01,2,2,0,0,0-1.837-.945,1.97,1.97,0,0,0-1.819.94,5.817,5.817,0,0,0-.589,2.892v2.6a6.053,6.053,0,0,0,.6,3.063,1.993,1.993,0,0,0,1.824.989,1.966,1.966,0,0,0,1.789-.932,5.834,5.834,0,0,0,.611-2.936ZM195.35,11.54a7.436,7.436,0,0,1-.976,4.245,4.054,4.054,0,0,1-6.082.031,7.058,7.058,0,0,1-1.02-4.056V9.591a7.271,7.271,0,0,1,.976-4.192,4.127,4.127,0,0,1,6.1-.048,7.017,7.017,0,0,1,1,4.083Zm-1.626-2.224a5.958,5.958,0,0,0-.58-3.01,2,2,0,0,0-1.837-.945,1.97,1.97,0,0,0-1.819.94,5.817,5.817,0,0,0-.588,2.9v2.6a6.053,6.053,0,0,0,.6,3.063,1.993,1.993,0,0,0,1.824.989,1.966,1.966,0,0,0,1.789-.932,5.834,5.834,0,0,0,.611-2.936Zm11.733,2.224a7.436,7.436,0,0,1-.976,4.245,4.054,4.054,0,0,1-6.082.031,7.058,7.058,0,0,1-1.02-4.056V9.591a7.271,7.271,0,0,1,.976-4.192,4.127,4.127,0,0,1,6.1-.048,7.017,7.017,0,0,1,1,4.083Zm-1.626-2.224a5.958,5.958,0,0,0-.58-3.01,2,2,0,0,0-1.837-.945,1.97,1.97,0,0,0-1.819.94,5.817,5.817,0,0,0-.589,2.892v2.6a6.053,6.053,0,0,0,.6,3.063,1.993,1.993,0,0,0,1.824.989,1.966,1.966,0,0,0,1.789-.932,5.834,5.834,0,0,0,.611-2.936Z" transform="translate(-9299 -9026)" fill="#00223d"/>
      </g>
    </g>
  </g>
</svg>
