<svg xmlns="http://www.w3.org/2000/svg" width="334" height="63" viewBox="0 0 334 63">
  <g id="Grupo_1118508" data-name="Grupo 1118508" transform="translate(-633 -15146)">
    <rect id="Rectángulo_406816" data-name="Rectángulo 406816" width="334" height="63" rx="12" transform="translate(633 15146)" fill="#feead4"/>
    <path id="Trazado_911700" data-name="Trazado 911700" d="M3.047-6.391H4.133A2.387,2.387,0,0,0,5.742-6.93a1.8,1.8,0,0,0,.586-1.414,1.764,1.764,0,0,0-1.992-2,2.072,2.072,0,0,0-1.5.535,1.873,1.873,0,0,0-.559,1.418H.836a2.9,2.9,0,0,1,.988-2.246,3.6,3.6,0,0,1,2.512-.895,3.558,3.558,0,0,1,2.523.852,3.076,3.076,0,0,1,.914,2.367,2.5,2.5,0,0,1-.48,1.438A2.9,2.9,0,0,1,5.984-5.836a2.8,2.8,0,0,1,1.449.984,2.734,2.734,0,0,1,.512,1.68,3.1,3.1,0,0,1-1,2.43,3.745,3.745,0,0,1-2.6.9A3.844,3.844,0,0,1,1.738-.711,2.877,2.877,0,0,1,.734-3H2.188a1.859,1.859,0,0,0,.586,1.438,2.229,2.229,0,0,0,1.57.539,2.187,2.187,0,0,0,1.6-.547A2.108,2.108,0,0,0,6.5-3.141a1.912,1.912,0,0,0-.609-1.523,2.655,2.655,0,0,0-1.758-.547H3.047ZM10.109-.758a.905.905,0,0,1,.223-.625A.848.848,0,0,1,11-1.633a.874.874,0,0,1,.676.25.887.887,0,0,1,.23.625.839.839,0,0,1-.23.6A.89.89,0,0,1,11,.086a.863.863,0,0,1-.668-.242A.855.855,0,0,1,10.109-.758ZM21.594,0H14.141V-1.039l3.938-4.375a9.354,9.354,0,0,0,1.207-1.613,2.693,2.693,0,0,0,.332-1.285,2.041,2.041,0,0,0-.539-1.461,1.885,1.885,0,0,0-1.437-.57,2.232,2.232,0,0,0-1.676.613,2.343,2.343,0,0,0-.6,1.707H13.922a3.355,3.355,0,0,1,1.012-2.539,3.751,3.751,0,0,1,2.707-.969,3.6,3.6,0,0,1,2.508.832,2.838,2.838,0,0,1,.922,2.215q0,1.68-2.141,4l-3.047,3.3h5.711Zm8.984,0H23.125V-1.039l3.938-4.375A9.354,9.354,0,0,0,28.27-7.027,2.693,2.693,0,0,0,28.6-8.312a2.041,2.041,0,0,0-.539-1.461,1.885,1.885,0,0,0-1.437-.57,2.232,2.232,0,0,0-1.676.613,2.343,2.343,0,0,0-.6,1.707H22.906a3.355,3.355,0,0,1,1.012-2.539,3.751,3.751,0,0,1,2.707-.969,3.6,3.6,0,0,1,2.508.832,2.838,2.838,0,0,1,.922,2.215q0,1.68-2.141,4l-3.047,3.3h5.711Zm8.984,0H32.109V-1.039l3.938-4.375a9.355,9.355,0,0,0,1.207-1.613,2.693,2.693,0,0,0,.332-1.285,2.041,2.041,0,0,0-.539-1.461,1.885,1.885,0,0,0-1.437-.57,2.232,2.232,0,0,0-1.676.613,2.343,2.343,0,0,0-.6,1.707H31.891A3.355,3.355,0,0,1,32.9-10.562a3.751,3.751,0,0,1,2.707-.969,3.6,3.6,0,0,1,2.508.832,2.838,2.838,0,0,1,.922,2.215q0,1.68-2.141,4l-3.047,3.3h5.711Zm9.9-10.664-.086.383a1.043,1.043,0,0,0-.535.23.646.646,0,0,0-.2.512A4.073,4.073,0,0,0,48.9-8.281l.648,1.891,1.445-1.828q.336-.422.523-.691a2.44,2.44,0,0,0,.27-.477,1.008,1.008,0,0,0,.082-.363.539.539,0,0,0-.125-.359.6.6,0,0,0-.43-.172l.086-.383h2.914l-.086.383a1.4,1.4,0,0,0-.441.227,3.848,3.848,0,0,0-.492.469q-.285.313-1.059,1.234L49.906-5.57,51.047-2.4q.258.719.422,1.1a3.4,3.4,0,0,0,.289.559.926.926,0,0,0,.211.207,1.445,1.445,0,0,0,.367.152L52.258,0H49.1l.078-.383a.959.959,0,0,0,.551-.246.671.671,0,0,0,.191-.5,3.266,3.266,0,0,0-.187-1.023l-.812-2.383L47.141-2.3a6.787,6.787,0,0,0-.578.816,1.15,1.15,0,0,0-.18.543.506.506,0,0,0,.145.418.811.811,0,0,0,.41.145L46.852,0H43.945l.078-.383a1.508,1.508,0,0,0,.441-.227,3.838,3.838,0,0,0,.516-.5q.316-.355,1.105-1.293l2.477-2.945L47.406-8.562a9.7,9.7,0,0,0-.453-1.113,1.36,1.36,0,0,0-.324-.434.936.936,0,0,0-.41-.172l.086-.383Zm17.219.1L61.969,0H60.453l4.7-10.187H58.992v-1.187H66.68ZM74.422-3.82H76v1.18H74.422V0H72.969V-2.641h-5.18v-.852l5.094-7.883h1.539Zm-4.992,0h3.539V-9.4l-.172.313ZM77.484-.758a.905.905,0,0,1,.223-.625.848.848,0,0,1,.668-.25.874.874,0,0,1,.676.25.887.887,0,0,1,.23.625.839.839,0,0,1-.23.6.89.89,0,0,1-.676.242.863.863,0,0,1-.668-.242A.855.855,0,0,1,77.484-.758Zm9.7-10.625v1.227h-.266a3.805,3.805,0,0,0-2.687,1A4.161,4.161,0,0,0,83.078-6.43a3.085,3.085,0,0,1,2.453-1.031A2.95,2.95,0,0,1,87.9-6.414a4.038,4.038,0,0,1,.887,2.7A4.025,4.025,0,0,1,87.832-.9,3.3,3.3,0,0,1,85.266.156,3.247,3.247,0,0,1,82.617-1.1,4.97,4.97,0,0,1,81.6-4.328v-.555a7.488,7.488,0,0,1,1.34-4.8,4.921,4.921,0,0,1,3.988-1.7Zm-1.9,5.125a2.306,2.306,0,0,0-1.367.445A2.32,2.32,0,0,0,83.055-4.7v.531A3.731,3.731,0,0,0,83.688-1.9a1.9,1.9,0,0,0,1.578.859A1.838,1.838,0,0,0,86.8-1.758a2.982,2.982,0,0,0,.559-1.883,2.983,2.983,0,0,0-.566-1.895A1.816,1.816,0,0,0,85.289-6.258ZM95.25,0H93.8V-9.633l-2.914,1.07V-9.875l4.141-1.555h.227Zm10.336-3.82h1.578v1.18h-1.578V0h-1.453V-2.641h-5.18v-.852l5.094-7.883h1.539Zm-4.992,0h3.539V-9.4l-.172.313Zm18.594-2.539h-6.516V-7.617h6.516Zm0,3.242h-6.516v-1.25h6.516ZM132.625,0h-7.453V-1.039l3.938-4.375a9.355,9.355,0,0,0,1.207-1.613,2.692,2.692,0,0,0,.332-1.285,2.041,2.041,0,0,0-.539-1.461,1.885,1.885,0,0,0-1.437-.57A2.232,2.232,0,0,0,127-9.73a2.343,2.343,0,0,0-.6,1.707h-1.445a3.355,3.355,0,0,1,1.012-2.539,3.751,3.751,0,0,1,2.707-.969,3.6,3.6,0,0,1,2.508.832,2.838,2.838,0,0,1,.922,2.215q0,1.68-2.141,4l-3.047,3.3h5.711Zm7.633-3.82h1.578v1.18h-1.578V0H138.8V-2.641h-5.18v-.852l5.094-7.883h1.539Zm-4.992,0H138.8V-9.4l-.172.313Zm15.008-1.031a6.61,6.61,0,0,1-.867,3.773A3.084,3.084,0,0,1,146.7.156,3.107,3.107,0,0,1,144-1.051a6.274,6.274,0,0,1-.906-3.605v-1.93a6.463,6.463,0,0,1,.867-3.727,3.108,3.108,0,0,1,2.719-1.219,3.136,3.136,0,0,1,2.7,1.176,6.237,6.237,0,0,1,.891,3.629Zm-1.445-1.977a5.3,5.3,0,0,0-.516-2.676,1.775,1.775,0,0,0-1.633-.84,1.751,1.751,0,0,0-1.617.836,5.171,5.171,0,0,0-.523,2.57v2.313a5.381,5.381,0,0,0,.535,2.723,1.771,1.771,0,0,0,1.621.879,1.747,1.747,0,0,0,1.59-.828,5.186,5.186,0,0,0,.543-2.609ZM152.3-.758a.905.905,0,0,1,.223-.625.848.848,0,0,1,.668-.25.874.874,0,0,1,.676.25.887.887,0,0,1,.23.625.839.839,0,0,1-.23.6.89.89,0,0,1-.676.242.863.863,0,0,1-.668-.242A.855.855,0,0,1,152.3-.758ZM162.438-3.82h1.578v1.18h-1.578V0h-1.453V-2.641H155.8v-.852l5.094-7.883h1.539Zm-4.992,0h3.539V-9.4l-.172.313Zm15.008-1.031a6.61,6.61,0,0,1-.867,3.773A3.084,3.084,0,0,1,168.875.156a3.107,3.107,0,0,1-2.7-1.207,6.274,6.274,0,0,1-.906-3.605v-1.93a6.463,6.463,0,0,1,.867-3.727,3.108,3.108,0,0,1,2.719-1.219,3.136,3.136,0,0,1,2.7,1.176,6.237,6.237,0,0,1,.891,3.629Zm-1.445-1.977a5.3,5.3,0,0,0-.516-2.676,1.775,1.775,0,0,0-1.633-.84,1.751,1.751,0,0,0-1.617.836,5.171,5.171,0,0,0-.523,2.57v2.313a5.381,5.381,0,0,0,.535,2.723,1.771,1.771,0,0,0,1.621.879,1.747,1.747,0,0,0,1.59-.828,5.186,5.186,0,0,0,.543-2.609ZM174.969-5.7l.578-5.672h5.828v1.336h-4.6l-.344,3.1a3.671,3.671,0,0,1,1.9-.492A3.138,3.138,0,0,1,180.8-6.4a4.026,4.026,0,0,1,.914,2.777,3.886,3.886,0,0,1-.949,2.77A3.46,3.46,0,0,1,178.109.156a3.6,3.6,0,0,1-2.461-.836,3.337,3.337,0,0,1-1.086-2.312h1.367a2.3,2.3,0,0,0,.7,1.473,2.162,2.162,0,0,0,1.484.5,1.95,1.95,0,0,0,1.582-.687,2.874,2.874,0,0,0,.574-1.9,2.638,2.638,0,0,0-.621-1.832,2.113,2.113,0,0,0-1.652-.691,2.383,2.383,0,0,0-1.484.414l-.383.313Zm8.5,4.945a.905.905,0,0,1,.223-.625.848.848,0,0,1,.668-.25.874.874,0,0,1,.676.25.887.887,0,0,1,.23.625.839.839,0,0,1-.23.6.89.89,0,0,1-.676.242.863.863,0,0,1-.668-.242A.855.855,0,0,1,183.469-.758ZM194.953,0H187.5V-1.039l3.938-4.375a9.355,9.355,0,0,0,1.207-1.613,2.692,2.692,0,0,0,.332-1.285,2.041,2.041,0,0,0-.539-1.461,1.885,1.885,0,0,0-1.437-.57,2.232,2.232,0,0,0-1.676.613,2.343,2.343,0,0,0-.6,1.707h-1.445a3.355,3.355,0,0,1,1.012-2.539A3.751,3.751,0,0,1,191-11.531a3.6,3.6,0,0,1,2.508.832,2.838,2.838,0,0,1,.922,2.215q0,1.68-2.141,4l-3.047,3.3h5.711Zm8.875-10.562L199.117,0H197.6l4.7-10.187h-6.156v-1.187h7.688Zm8.539,2.156a2.641,2.641,0,0,1-.449,1.516A3.057,3.057,0,0,1,210.7-5.852a3.26,3.26,0,0,1,1.41,1.117,2.811,2.811,0,0,1,.52,1.664,2.972,2.972,0,0,1-1,2.352,3.827,3.827,0,0,1-2.621.875,3.81,3.81,0,0,1-2.629-.879A2.986,2.986,0,0,1,205.4-3.07a2.9,2.9,0,0,1,.5-1.664A3.136,3.136,0,0,1,207.3-5.859,2.981,2.981,0,0,1,206.1-6.9a2.679,2.679,0,0,1-.437-1.508,2.94,2.94,0,0,1,.922-2.281,3.458,3.458,0,0,1,2.43-.844,3.461,3.461,0,0,1,2.426.844A2.934,2.934,0,0,1,212.367-8.406Zm-1.18,5.3a2.1,2.1,0,0,0-.605-1.555,2.147,2.147,0,0,0-1.582-.6,2.11,2.11,0,0,0-1.566.594,2.12,2.12,0,0,0-.59,1.563,2.019,2.019,0,0,0,.574,1.523,2.2,2.2,0,0,0,1.6.555,2.2,2.2,0,0,0,1.594-.559A2.014,2.014,0,0,0,211.188-3.1Zm-2.172-7.242a1.865,1.865,0,0,0-1.379.527,1.937,1.937,0,0,0-.527,1.434,1.928,1.928,0,0,0,.52,1.4,1.844,1.844,0,0,0,1.387.535A1.844,1.844,0,0,0,210.4-6.98a1.928,1.928,0,0,0,.52-1.4,1.929,1.929,0,0,0-.539-1.414A1.839,1.839,0,0,0,209.016-10.344Z" transform="translate(698 15184)" fill="#12263f"/>
  </g>
</svg>
