<svg xmlns="http://www.w3.org/2000/svg" width="289" height="57" viewBox="0 0 289 57">
  <g id="Grupo_1118393" data-name="Grupo 1118393" transform="translate(-436 -3916)">
    <rect id="Rectángulo_406788" data-name="Rectángulo 406788" width="289" height="57" rx="12" transform="translate(436 3916)" fill="#feead4"/>
    <path id="Trazado_911695" data-name="Trazado 911695" d="M9.448,0H1.063V-1.169l4.43-4.922A10.524,10.524,0,0,0,6.851-7.906a3.029,3.029,0,0,0,.374-1.446A2.3,2.3,0,0,0,6.618-11,2.12,2.12,0,0,0,5-11.637a2.511,2.511,0,0,0-1.885.69,2.635,2.635,0,0,0-.672,1.92H.817a3.774,3.774,0,0,1,1.138-2.856A4.219,4.219,0,0,1,5-12.973a4.054,4.054,0,0,1,2.821.936A3.193,3.193,0,0,1,8.859-9.545q0,1.89-2.408,4.5L3.023-1.327H9.448Zm1.925-.853a1.018,1.018,0,0,1,.25-.7.954.954,0,0,1,.751-.281.983.983,0,0,1,.76.281,1,1,0,0,1,.259.7.944.944,0,0,1-.259.677,1,1,0,0,1-.76.272.971.971,0,0,1-.751-.272A.962.962,0,0,1,11.373-.853ZM22.772-4.3h1.775v1.327H22.772V0H21.138V-2.971H15.311v-.958l5.73-8.868h1.731Zm-5.616,0h3.981v-6.275l-.193.352ZM31.359,0H29.725V-10.837l-3.278,1.2v-1.477L31.1-12.858h.255ZM44.385-11.883,39.085,0H37.38l5.282-11.461H35.736V-12.8h8.648ZM55.644-12l-.1.431a1.174,1.174,0,0,0-.6.259.727.727,0,0,0-.224.576,4.582,4.582,0,0,0,.29,1.415l.729,2.127,1.626-2.057q.378-.475.589-.778a2.745,2.745,0,0,0,.3-.536,1.134,1.134,0,0,0,.092-.409.607.607,0,0,0-.141-.4.674.674,0,0,0-.483-.193l.1-.431H61.1l-.1.431a1.569,1.569,0,0,0-.5.255,4.329,4.329,0,0,0-.554.527q-.321.352-1.191,1.389L56.145-6.267,57.428-2.7q.29.809.475,1.235a3.827,3.827,0,0,0,.325.628,1.042,1.042,0,0,0,.237.233,1.626,1.626,0,0,0,.413.171L58.79,0H55.239l.088-.431a1.079,1.079,0,0,0,.62-.277.755.755,0,0,0,.215-.558,3.674,3.674,0,0,0-.211-1.151L55.037-5.1l-2,2.5a7.635,7.635,0,0,0-.65.918,1.293,1.293,0,0,0-.2.611.569.569,0,0,0,.163.47.912.912,0,0,0,.461.163l-.1.431h-3.27l.088-.431a1.7,1.7,0,0,0,.5-.255,4.318,4.318,0,0,0,.58-.567q.356-.4,1.244-1.455l2.786-3.313-1.3-3.612a10.911,10.911,0,0,0-.51-1.252,1.53,1.53,0,0,0-.365-.488A1.053,1.053,0,0,0,52-11.566l.1-.431Zm19.371.114L69.715,0H68.01l5.282-11.461H66.366V-12.8h8.648ZM83.725-4.3H85.5v1.327H83.725V0H82.09V-2.971H76.263v-.958l5.73-8.868h1.731Zm-5.616,0H82.09v-6.275l-.193.352ZM87.17-.853a1.018,1.018,0,0,1,.25-.7.954.954,0,0,1,.751-.281.983.983,0,0,1,.76.281,1,1,0,0,1,.259.7.944.944,0,0,1-.259.677,1,1,0,0,1-.76.272.971.971,0,0,1-.751-.272A.962.962,0,0,1,87.17-.853ZM98.086-12.806v1.38h-.3A4.281,4.281,0,0,0,94.764-10.3a4.681,4.681,0,0,0-1.3,3.067,3.471,3.471,0,0,1,2.76-1.16A3.319,3.319,0,0,1,98.89-7.216a4.543,4.543,0,0,1,1,3.041,4.528,4.528,0,0,1-1.077,3.164A3.707,3.707,0,0,1,95.924.176a3.653,3.653,0,0,1-2.979-1.411A5.591,5.591,0,0,1,91.8-4.869v-.624a8.424,8.424,0,0,1,1.507-5.4A5.536,5.536,0,0,1,97.8-12.806ZM95.95-7.04a2.594,2.594,0,0,0-1.538.5,2.61,2.61,0,0,0-.976,1.257v.6a4.2,4.2,0,0,0,.712,2.549,2.133,2.133,0,0,0,1.775.967,2.067,2.067,0,0,0,1.727-.809A3.355,3.355,0,0,0,98.279-4.1a3.356,3.356,0,0,0-.637-2.131A2.042,2.042,0,0,0,95.95-7.04ZM107.156,0h-1.635V-10.837l-3.278,1.2v-1.477l4.658-1.749h.255Zm11.628-4.3h1.775v1.327h-1.775V0h-1.635V-2.971h-5.827v-.958l5.73-8.868h1.731Zm-5.616,0h3.981v-6.275l-.193.352Zm20.918-2.856h-7.33V-8.569h7.33Zm0,3.647h-7.33V-4.913h7.33ZM146.162,0h-1.635V-10.837l-3.278,1.2v-1.477l4.658-1.749h.255Zm12.524-9.457a2.972,2.972,0,0,1-.505,1.705,3.439,3.439,0,0,1-1.367,1.169A3.668,3.668,0,0,1,158.4-5.326a3.163,3.163,0,0,1,.584,1.872,3.344,3.344,0,0,1-1.121,2.646,4.305,4.305,0,0,1-2.949.984,4.286,4.286,0,0,1-2.958-.989,3.36,3.36,0,0,1-1.112-2.641,3.257,3.257,0,0,1,.567-1.872,3.528,3.528,0,0,1,1.569-1.266,3.354,3.354,0,0,1-1.345-1.169,3.014,3.014,0,0,1-.492-1.7,3.308,3.308,0,0,1,1.037-2.566,3.89,3.89,0,0,1,2.733-.949,3.894,3.894,0,0,1,2.729.949A3.3,3.3,0,0,1,158.687-9.457Zm-1.327,5.968a2.359,2.359,0,0,0-.681-1.749,2.416,2.416,0,0,0-1.78-.677,2.373,2.373,0,0,0-1.762.668,2.385,2.385,0,0,0-.664,1.758,2.271,2.271,0,0,0,.646,1.714,2.48,2.48,0,0,0,1.8.624,2.472,2.472,0,0,0,1.793-.628A2.266,2.266,0,0,0,157.359-3.489Zm-2.443-8.147a2.1,2.1,0,0,0-1.551.593,2.179,2.179,0,0,0-.593,1.613,2.169,2.169,0,0,0,.584,1.578,2.074,2.074,0,0,0,1.56.6,2.074,2.074,0,0,0,1.56-.6,2.169,2.169,0,0,0,.584-1.578,2.17,2.17,0,0,0-.606-1.591A2.068,2.068,0,0,0,154.916-11.637Zm14.142,6.179a7.436,7.436,0,0,1-.976,4.245,3.47,3.47,0,0,1-3.05,1.389A3.5,3.5,0,0,1,162-1.182a7.058,7.058,0,0,1-1.02-4.056V-7.409a7.271,7.271,0,0,1,.976-4.192,3.5,3.5,0,0,1,3.059-1.371,3.528,3.528,0,0,1,3.041,1.323,7.017,7.017,0,0,1,1,4.083Zm-1.626-2.224a5.958,5.958,0,0,0-.58-3.01,2,2,0,0,0-1.837-.945,1.97,1.97,0,0,0-1.819.94,5.817,5.817,0,0,0-.589,2.892v2.6a6.053,6.053,0,0,0,.6,3.063,1.993,1.993,0,0,0,1.824.989,1.966,1.966,0,0,0,1.789-.932,5.834,5.834,0,0,0,.611-2.936Zm3.911,6.829a1.018,1.018,0,0,1,.25-.7.954.954,0,0,1,.751-.281.983.983,0,0,1,.76.281,1,1,0,0,1,.259.7.944.944,0,0,1-.259.677,1,1,0,0,1-.76.272.971.971,0,0,1-.751-.272A.962.962,0,0,1,171.343-.853Zm6.9-6.337h1.222a2.685,2.685,0,0,0,1.811-.606,2.026,2.026,0,0,0,.659-1.591,1.985,1.985,0,0,0-2.241-2.25,2.331,2.331,0,0,0-1.683.6,2.107,2.107,0,0,0-.628,1.6h-1.626a3.264,3.264,0,0,1,1.112-2.527,4.05,4.05,0,0,1,2.826-1.006,4,4,0,0,1,2.839.958,3.461,3.461,0,0,1,1.028,2.663,2.809,2.809,0,0,1-.541,1.617,3.264,3.264,0,0,1-1.472,1.169,3.145,3.145,0,0,1,1.63,1.107,3.076,3.076,0,0,1,.576,1.89,3.491,3.491,0,0,1-1.125,2.733A4.213,4.213,0,0,1,179.7.176,4.324,4.324,0,0,1,176.77-.8a3.236,3.236,0,0,1-1.129-2.575h1.635a2.092,2.092,0,0,0,.659,1.617,2.507,2.507,0,0,0,1.767.606,2.46,2.46,0,0,0,1.8-.615,2.371,2.371,0,0,0,.624-1.767,2.151,2.151,0,0,0-.686-1.714,2.987,2.987,0,0,0-1.978-.615h-1.222ZM191.329,0h-1.635V-10.837l-3.278,1.2v-1.477l4.658-1.749h.255Zm11.628-4.3h1.775v1.327h-1.775V0h-1.635V-2.971H195.5v-.958l5.73-8.868h1.731Zm-5.616,0h3.981v-6.275l-.193.352ZM206.4-.853a1.018,1.018,0,0,1,.25-.7.954.954,0,0,1,.751-.281.983.983,0,0,1,.76.281,1,1,0,0,1,.259.7.944.944,0,0,1-.259.677A1,1,0,0,1,207.4.1a.971.971,0,0,1-.751-.272A.962.962,0,0,1,206.4-.853ZM219.322,0h-8.385V-1.169l4.43-4.922a10.524,10.524,0,0,0,1.358-1.815,3.029,3.029,0,0,0,.374-1.446A2.3,2.3,0,0,0,216.492-11a2.12,2.12,0,0,0-1.617-.642,2.511,2.511,0,0,0-1.885.69,2.635,2.635,0,0,0-.672,1.92h-1.626a3.774,3.774,0,0,1,1.138-2.856,4.219,4.219,0,0,1,3.045-1.09,4.054,4.054,0,0,1,2.821.936,3.193,3.193,0,0,1,1.037,2.492q0,1.89-2.408,4.5L212.9-1.327h6.425Zm8.1-12.806v1.38h-.3A4.281,4.281,0,0,0,224.1-10.3a4.681,4.681,0,0,0-1.3,3.067,3.471,3.471,0,0,1,2.76-1.16,3.319,3.319,0,0,1,2.667,1.178,4.543,4.543,0,0,1,1,3.041,4.528,4.528,0,0,1-1.077,3.164A3.707,3.707,0,0,1,225.264.176a3.653,3.653,0,0,1-2.979-1.411,5.591,5.591,0,0,1-1.143-3.634v-.624a8.424,8.424,0,0,1,1.507-5.4,5.536,5.536,0,0,1,4.487-1.912ZM225.29-7.04a2.594,2.594,0,0,0-1.538.5,2.61,2.61,0,0,0-.976,1.257v.6a4.2,4.2,0,0,0,.712,2.549,2.133,2.133,0,0,0,1.775.967,2.067,2.067,0,0,0,1.727-.809,3.355,3.355,0,0,0,.628-2.118,3.356,3.356,0,0,0-.637-2.131A2.042,2.042,0,0,0,225.29-7.04Zm6.609.624.65-6.381h6.557v1.5H233.93L233.543-7.8a4.13,4.13,0,0,1,2.136-.554A3.531,3.531,0,0,1,238.456-7.2a4.53,4.53,0,0,1,1.028,3.125,4.372,4.372,0,0,1-1.068,3.116A3.892,3.892,0,0,1,235.433.176a4.045,4.045,0,0,1-2.769-.94,3.754,3.754,0,0,1-1.222-2.6h1.538a2.582,2.582,0,0,0,.782,1.657,2.432,2.432,0,0,0,1.67.558,2.194,2.194,0,0,0,1.78-.773,3.233,3.233,0,0,0,.646-2.136,2.968,2.968,0,0,0-.7-2.061A2.377,2.377,0,0,0,235.3-6.9a2.681,2.681,0,0,0-1.67.466l-.431.352Z" transform="translate(467 3951)" fill="#12263f"/>
  </g>
</svg>
