<svg xmlns="http://www.w3.org/2000/svg" xmlns:xlink="http://www.w3.org/1999/xlink" width="113" height="113" viewBox="0 0 113 113">
  <defs>
    <filter id="Trazado_896985" x="0" y="0" width="113" height="113" filterUnits="userSpaceOnUse">
      <feOffset dy="3" input="SourceAlpha"/>
      <feGaussianBlur stdDeviation="3" result="blur"/>
      <feFlood flood-opacity="0.161"/>
      <feComposite operator="in" in2="blur"/>
      <feComposite in="SourceGraphic"/>
    </filter>
  </defs>
  <g id="Grupo_1118480" data-name="Grupo 1118480" transform="translate(-581 -19809)">
    <g id="Grupo_1118452" data-name="Grupo 1118452" transform="translate(-10 16963)">
      <g id="Grupo_1118440" data-name="Grupo 1118440" transform="translate(351.5 683)">
        <g id="Grupo_1111318" data-name="Grupo 1111318" transform="translate(-92.281 -1683)">
          <g id="Grupo_1109826" data-name="Grupo 1109826" transform="translate(340.781 3852)">
            <g id="Grupo_1098742" data-name="Grupo 1098742">
              <g transform="matrix(1, 0, 0, 1, -9, -6)" filter="url(#Trazado_896985)">
                <g id="Trazado_896985-2" data-name="Trazado 896985" transform="translate(9 6)" fill="#e2dacc" opacity="0.859">
                  <path d="M 47.49993515014648 93.5 C 41.28932189941406 93.5 35.26528167724609 92.28397369384766 29.59514808654785 89.88571929931641 C 24.1176815032959 87.56894683837891 19.1981086730957 84.25197601318359 14.97306823730469 80.02693176269531 C 10.74802875518799 75.80189514160156 7.431055068969727 70.88231658935547 5.11428165435791 65.40485382080078 C 2.716028451919556 59.73471832275391 1.500001788139343 53.71067810058594 1.500001788139343 47.50006484985352 C 1.500001788139343 41.28932189941406 2.716028451919556 35.26528167724609 5.11428165435791 29.59514617919922 C 7.431055068969727 24.11767959594727 10.74802875518799 19.19810676574707 14.97306823730469 14.97306632995605 C 19.1981086730957 10.74802684783936 24.1176815032959 7.431053161621094 29.59514808654785 5.114280223846436 C 35.26528167724609 2.716026782989502 41.28932189941406 1.5 47.49993515014648 1.5 C 53.71054840087891 1.5 59.73458862304688 2.716026782989502 65.40472412109375 5.114280223846436 C 70.88218688964844 7.431053161621094 75.80176544189453 10.74802684783936 80.02680206298828 14.97306632995605 C 84.25183868408203 19.19810676574707 87.56881713867188 24.11767959594727 89.88558959960938 29.59514617919922 C 92.28384399414062 35.26528167724609 93.49987030029297 41.28932189941406 93.49987030029297 47.49993515014648 C 93.49987030029297 53.71067810058594 92.28384399414062 59.73471832275391 89.88558959960938 65.40485382080078 C 87.56881713867188 70.88231658935547 84.25183868408203 75.80189514160156 80.02680206298828 80.02693176269531 C 75.80176544189453 84.25197601318359 70.88218688964844 87.56894683837891 65.40472412109375 89.88571929931641 C 59.73458862304688 92.28397369384766 53.71054840087891 93.5 47.49993515014648 93.5 Z" stroke="none"/>
                  <path d="M 47.49993515014648 3 C 41.49116516113281 3 35.66371917724609 4.176155090332031 30.17947387695312 6.495796203613281 C 24.88081359863281 8.7369384765625 20.12149047851562 11.94596862792969 16.03372192382812 16.03372192382812 C 11.94596862792969 20.12149047851562 8.7369384765625 24.88081359863281 6.495796203613281 30.17947387695312 C 4.1761474609375 35.66372299194336 3 41.49116897583008 3 47.50006103515625 C 3 53.50883102416992 4.1761474609375 59.33627700805664 6.495796203613281 64.82052612304688 C 8.7369384765625 70.11918640136719 11.94596862792969 74.87850952148438 16.03372192382812 78.96627807617188 C 20.12149047851562 83.05403137207031 24.88081359863281 86.2630615234375 30.17947387695312 88.50419616699219 C 35.66371917724609 90.82384490966797 41.49116516113281 92 47.49993515014648 92 C 53.50870513916016 92 59.33615112304688 90.82384490966797 64.82039642333984 88.50419616699219 C 70.11905670166016 86.2630615234375 74.87837982177734 83.05403137207031 78.96614837646484 78.96627807617188 C 83.05390167236328 74.87850952148438 86.26293182373047 70.11918640136719 88.50407409667969 64.82052612304688 C 90.82372283935547 59.33627700805664 91.99987030029297 53.50883102416992 91.99987030029297 47.49993896484375 C 91.99987030029297 41.49116897583008 90.82372283935547 35.66372299194336 88.50407409667969 30.17947387695312 C 86.26293182373047 24.88081359863281 83.05390167236328 20.12149047851562 78.96614837646484 16.03372192382812 C 74.87837982177734 11.94596862792969 70.11905670166016 8.7369384765625 64.82039642333984 6.495796203613281 C 59.33615112304688 4.176155090332031 53.50870513916016 3 47.49993515014648 3 M 47.49993515014648 0 C 73.73342895507812 0 94.99987030029297 21.26644897460938 94.99987030029297 47.49993896484375 L 94.99987030029297 47.50006103515625 C 94.99987030029297 73.73355102539062 73.73342895507812 95 47.49993515014648 95 C 21.26644134521484 95 0 73.73355102539062 0 47.50006103515625 L 0 47.49993896484375 C 0 21.26644897460938 21.26644134521484 0 47.49993515014648 0 Z" stroke="none" fill="#fff"/>
                </g>
              </g>
              <g id="Rectángulo_400907" data-name="Rectángulo 400907" transform="translate(0 0)" fill="none" stroke="#fff" stroke-width="3">
                <rect width="95" height="95" rx="47.5" stroke="none"/>
                <rect x="1.5" y="1.5" width="92" height="92" rx="46" fill="none"/>
              </g>
            </g>
          </g>
        </g>
      </g>
    </g>
    <g id="salario" transform="translate(600.89 19830.752)">
      <g id="Grupo_1118476" data-name="Grupo 1118476" transform="translate(8.698 0.907)">
        <g id="Grupo_1118460" data-name="Grupo 1118460" transform="translate(11.913)">
          <g id="Grupo_1118459" data-name="Grupo 1118459">
            <g id="Grupo_1118458" data-name="Grupo 1118458">
              <g id="Grupo_1118455" data-name="Grupo 1118455">
                <g id="Grupo_1118454" data-name="Grupo 1118454">
                  <path id="Trazado_911569" data-name="Trazado 911569" d="M138.415,18.052s5.893-7.648,4.2-9.842c-.577-.748-1.07.268-2.264.268-1.4,0-1.4-.918-2.807-.918s-1.4.918-2.806.918-1.4-.918-2.806-.918-1.4.918-2.806.918c-1.2,0-1.686-1.029-2.268-.281-1.7,2.182,4.111,9.855,4.111,9.855-25.645,16.859-17.376,39.786-2.235,39.786h12.008C155.928,57.838,164.145,34.966,138.415,18.052Z" transform="translate(-114.473 -7.559)" fill="#eabc6b"/>
                </g>
              </g>
              <g id="Grupo_1118456" data-name="Grupo 1118456" transform="translate(15.488)">
                <path id="Trazado_911570" data-name="Trazado 911570" d="M251.869,18.052s5.893-7.648,4.2-9.842c-.577-.748-1.07.268-2.264.268-1.4,0-1.4-.918-2.807-.918s-1.4.918-2.806.918c-.069,0-.132,0-.195-.008-.564,2.417-3.1,6.182-4.558,8.2.573.84.985,1.385.985,1.385q-.513.337-1.007.678c24.5,16.841,16.3,39.108,1.319,39.108H254.2c15.187,0,23.4-22.871-2.326-39.786Z" transform="translate(-243.415 -7.559)" fill="#e8ae4d"/>
              </g>
              <g id="Grupo_1118457" data-name="Grupo 1118457" transform="translate(13.238 8.91)">
                <path id="Trazado_911571" data-name="Trazado 911571" d="M236.483,86.041a20.5,20.5,0,0,1-10.232,0,2.184,2.184,0,0,1-1.439-2.86l.014-.041a2.016,2.016,0,0,1,2.379-1.344,16.658,16.658,0,0,0,8.322,0,2.016,2.016,0,0,1,2.379,1.344l.014.041A2.185,2.185,0,0,1,236.483,86.041Z" transform="translate(-224.683 -81.738)" fill="#ffe07d"/>
              </g>
            </g>
          </g>
        </g>
        <g id="Grupo_1118475" data-name="Grupo 1118475" transform="translate(0 34.12)">
          <g id="Grupo_1118474" data-name="Grupo 1118474">
            <g id="Grupo_1118473" data-name="Grupo 1118473">
              <g id="Grupo_1118472" data-name="Grupo 1118472">
                <g id="Grupo_1118471" data-name="Grupo 1118471">
                  <g id="Grupo_1118470" data-name="Grupo 1118470">
                    <g id="Grupo_1118469" data-name="Grupo 1118469">
                      <g id="Grupo_1118468" data-name="Grupo 1118468">
                        <g id="Grupo_1118467" data-name="Grupo 1118467">
                          <g id="Grupo_1118466" data-name="Grupo 1118466">
                            <g id="Grupo_1118465" data-name="Grupo 1118465" transform="translate(4.755 3.156)">
                              <g id="Grupo_1118464" data-name="Grupo 1118464">
                                <g id="Grupo_1118461" data-name="Grupo 1118461">
                                  <path id="Trazado_911572" data-name="Trazado 911572" d="M54.883,334.833l13.04,4.854a9.923,9.923,0,0,0,3.461.623H84.824a9.924,9.924,0,0,0,5.311-1.541l16.827-10.663a2.953,2.953,0,0,0,.481-3.87c-.914-1.343-2.426-1.577-4.089-.79L86.971,330.66,86.99,328a4.758,4.758,0,0,0-4.068-4.24l-9.977-1.149c-2.3-.326-3.451-1.1-5.458-2.271A17.881,17.881,0,0,0,58.46,317.9H54.883v16.937Z" transform="translate(-54.883 -317.896)" fill="#ffddce"/>
                                </g>
                                <g id="Grupo_1118462" data-name="Grupo 1118462">
                                  <path id="Trazado_911573" data-name="Trazado 911573" d="M54.883,334.833l13.04,4.854a9.923,9.923,0,0,0,3.461.623H84.824a9.924,9.924,0,0,0,5.311-1.541l16.827-10.663a2.953,2.953,0,0,0,.481-3.87c-.914-1.343-2.426-1.577-4.089-.79L86.971,330.66,86.99,328a4.758,4.758,0,0,0-4.068-4.24l-9.977-1.149c-2.3-.326-3.451-1.1-5.458-2.271A17.881,17.881,0,0,0,58.46,317.9H54.883v16.937Z" transform="translate(-54.883 -317.896)" fill="#ffddce"/>
                                </g>
                                <path id="Trazado_911574" data-name="Trazado 911574" d="M107.444,361.6c-.914-1.343-2.426-1.577-4.089-.79l-4.506,1.984.392.621a2.954,2.954,0,0,1-.481,3.87l-9.8,6.213a9.922,9.922,0,0,1-4.13.9H71.386a9.923,9.923,0,0,1-3.461-.623l-13.04-4.854V372.2l13.04,4.854a9.923,9.923,0,0,0,3.461.623H84.825a9.924,9.924,0,0,0,5.311-1.541l16.827-10.663A2.954,2.954,0,0,0,107.444,361.6Z" transform="translate(-54.884 -355.26)" fill="#ffcbbe"/>
                                <g id="Grupo_1118463" data-name="Grupo 1118463" transform="translate(30.884 7.368)">
                                  <path id="Trazado_911575" data-name="Trazado 911575" d="M312,379.236v.064l.042-.019Z" transform="translate(-312.004 -379.236)" fill="#f5dbcc"/>
                                </g>
                              </g>
                            </g>
                            <path id="Trazado_911576" data-name="Trazado 911576" d="M22.856,314.31a1.713,1.713,0,0,1-1.713,1.713H17.008A1.713,1.713,0,0,1,15.3,314.31V293.333a1.713,1.713,0,0,1,1.713-1.713h4.135a1.713,1.713,0,0,1,1.713,1.713Z" transform="translate(-15.295 -291.62)" fill="#407093"/>
                          </g>
                        </g>
                      </g>
                    </g>
                  </g>
                </g>
              </g>
            </g>
          </g>
        </g>
      </g>
      <g id="Grupo_1118477" data-name="Grupo 1118477" transform="translate(7.797 -0.001)">
        <path id="Trazado_911577" data-name="Trazado 911577" d="M66.757,44.016c-1.147-1.686-3.093-2.1-5.207-1.1l-1.12.493a18.526,18.526,0,0,0,1.106-11.928,28.776,28.776,0,0,0-7.251-13.112.9.9,0,1,0-1.328,1.217,27.01,27.01,0,0,1,6.82,12.285,16.152,16.152,0,0,1-2.114,12.756L46.452,49.561l.009-1.266a.879.879,0,0,0,0-.1,5.645,5.645,0,0,0-4.838-5.042l-.023,0-9.965-1.147c-3.832-.545-4.819-2.842-10.008-4.151a19.391,19.391,0,0,1,1.429-9.529c1.973-4.891,5.832-9.642,11.183-13.778,1.994,1.414,10.891,1.59,12.882-.234,1.02.775,1.994,1.573,2.9,2.381a.9.9,0,1,0,1.2-1.345c-.994-.886-2.063-1.759-3.185-2.6a3.206,3.206,0,0,0-1.076-3.2c2.82-4.277,3.64-7.077,2.507-8.544A1.575,1.575,0,0,0,47.3.674,1.445,1.445,0,0,1,45.576.612a3.238,3.238,0,0,0-3.793,0,1.452,1.452,0,0,1-1.82,0,3.238,3.238,0,0,0-3.793,0A1.434,1.434,0,0,1,34.446.67a1.571,1.571,0,0,0-2.163.322c-1.108,1.426-.367,4.137,2.263,8.269a2.933,2.933,0,0,0-.458.306,6.081,6.081,0,0,0-5.238-1.98,6.6,6.6,0,0,1-4.481-1.059.9.9,0,0,0-1,1.5A8.388,8.388,0,0,0,29.05,9.377a4.4,4.4,0,0,1,4.022,1.759q-.017.058-.031.116a15.458,15.458,0,0,0-2.856.311,8.458,8.458,0,0,0-5.861,3.753.9.9,0,1,0,1.555.91c1.642-2.807,5.651-3.15,7.244-3.172.007.02.015.039.022.059-5.682,4.383-9.638,9.272-11.763,14.539a21.378,21.378,0,0,0-1.607,9.834,18.742,18.742,0,0,0-2.615-.2v-.545a2.617,2.617,0,0,0-2.614-2.614H10.411A2.617,2.617,0,0,0,7.8,36.739V57.716a2.617,2.617,0,0,0,2.614,2.614h4.135a2.617,2.617,0,0,0,2.614-2.614V57.46l9.019,3.357a10.791,10.791,0,0,0,3.776.68H43.394a10.808,10.808,0,0,0,5.793-1.681C67.115,48.451,66.026,49.158,66.13,49.066a3.863,3.863,0,0,0,.627-5.05Zm-21.33-30.77a19.522,19.522,0,0,1-9.791,0c-1.414-.357-1-2.879.515-2.5a17.565,17.565,0,0,0,8.76,0C46.405,10.374,46.864,12.884,45.428,13.247ZM33.623,2.273l.021.01a3.2,3.2,0,0,0,3.513-.163c1.535-1,1.7.606,3.716.606a3.129,3.129,0,0,0,1.9-.606,1.453,1.453,0,0,1,1.82,0,3.213,3.213,0,0,0,3.528.161c.185.668-.234,2.66-2.9,6.636-1.326-.023-3.251,1.28-8.7.068-2.665-4.028-3.077-6.039-2.891-6.712Zm31.36,45.4-16.76,10.62a9.009,9.009,0,0,1-4.829,1.4H29.955a8.993,8.993,0,0,1-3.147-.567l-9.648-3.591v-9.7a.9.9,0,1,0-1.8,0V57.717a.813.813,0,0,1-.812.812H10.411a.813.813,0,0,1-.812-.812V36.74a.813.813,0,0,1,.812-.812h4.135a.813.813,0,0,1,.812.812v4.888a.9.9,0,1,0,1.8,0V39.086c7.451.057,9.126,3.984,14.231,4.706l.023,0,9.964,1.147a3.848,3.848,0,0,1,3.282,3.39l-.012,1.713H35.354a.9.9,0,1,0,0,1.8H45.541a.932.932,0,0,0,.36-.075l16.386-7.215c1.178-.524,2.253-.6,2.981.472A2.057,2.057,0,0,1,64.983,47.675Z" transform="translate(-7.797 0.001)"/>
        <path id="Trazado_911578" data-name="Trazado 911578" d="M244.977,177.54a.9.9,0,0,0,.9-.9v-1.493a5.277,5.277,0,0,0,4.325-4.366,4.62,4.62,0,0,0-3.183-5.284c-.412-.146-.792-.285-1.142-.42v-5.743a3.7,3.7,0,0,1,1.752.769.9.9,0,0,0,1.216-1.329,5.582,5.582,0,0,0-2.968-1.26v-1.281a.9.9,0,1,0-1.8,0v1.354a6.634,6.634,0,0,0-.668.163,4.355,4.355,0,0,0-2.981,3.419,3.809,3.809,0,0,0,1.238,3.755,10.912,10.912,0,0,0,2.411,1.362v7.123a4.784,4.784,0,0,1-2.8-.971.9.9,0,1,0-.986,1.507,6.6,6.6,0,0,0,3.787,1.265v1.43A.9.9,0,0,0,244.977,177.54Zm-2.2-14.034a2.03,2.03,0,0,1-.579-2,2.577,2.577,0,0,1,1.73-2.028c.05-.015.1-.028.149-.041V164.3A7.6,7.6,0,0,1,242.777,163.506Zm3.643,3.688a2.835,2.835,0,0,1,2.007,3.288,3.508,3.508,0,0,1-2.548,2.824V167c.175.064.354.129.542.2Z" transform="translate(-212.005 -136.674)"/>
      </g>
    </g>
  </g>
</svg>
