<svg xmlns="http://www.w3.org/2000/svg" width="400" height="364.698" viewBox="0 0 400 364.698">
  <g id="Grupo_1118342" data-name="Grupo 1118342" transform="translate(-915 -1916.913)">
    <path id="Trazado_112664" data-name="Trazado 112664" d="M316.156,63.193c-20.6,11.783-35.133,31.6-52.742,47.511a169.67,169.67,0,0,1-77.348,39.656c-23.6,5.108-48.267,5.184-71.012,13.219-44.377,15.57-74.77,61.778-75.535,108.761s25.965,92.53,65.253,118.288A156.392,156.392,0,0,0,148.2,410.408c28.892,8.129,59.531,7.771,89.386,4.664,51.572-5.372,105.636-34.661,138.144-75.95a296.228,296.228,0,0,0,36.483-59.909,298.789,298.789,0,0,0,26.928-111.556c1.369-33.046,0-69.681-26.22-93.767S346.89,45.6,316.156,63.193Z" transform="translate(875.497 1864.498)" fill="#feead4"/>
    <g id="Finance-pana" transform="translate(950.777 1943.245)">
      <g id="freepik--background-complete--inject-122" transform="translate(1.068 0)">
        <path id="Trazado_108074" data-name="Trazado 108074" d="M589.206,87.742a15.875,15.875,0,1,1-17.978-13.391,15.875,15.875,0,0,1,17.978,13.391Z" transform="translate(-309.587 -45.219)" fill="#fd9826"/>
        <path id="Trazado_108075" data-name="Trazado 108075" d="M587.412,90.213a12.1,12.1,0,1,1-13.712-10.2,12.1,12.1,0,0,1,13.712,10.2Z" transform="translate(-311.522 -47.148)" fill="#fed6a8"/>
        <path id="Trazado_108076" data-name="Trazado 108076" d="M587.25,89.6a7.245,7.245,0,0,1-.529-1.389,12.409,12.409,0,0,0-3.81-5.417,11.989,11.989,0,0,0-2.645-1.627,10.885,10.885,0,0,0-1.571-.589,11.9,11.9,0,0,0-1.713-.364,12.492,12.492,0,0,0-1.806-.106,13.709,13.709,0,0,0-1.859.185,12.468,12.468,0,0,0-1.805.469,11.028,11.028,0,0,0-1.666.721,11.246,11.246,0,0,0-1.482.932,10.723,10.723,0,0,0-1.277,1.084,12.028,12.028,0,0,0-1.918,2.448,12.458,12.458,0,0,0-1.118,2.48,12.956,12.956,0,0,0-.6,3.909,7.09,7.09,0,0,1,0,1.488,3.535,3.535,0,0,1-.344-1.468,11.242,11.242,0,0,1,.331-4.114,12.272,12.272,0,0,1,3.058-5.345,11.9,11.9,0,0,1,1.323-1.19,12.141,12.141,0,0,1,3.373-1.818,14.474,14.474,0,0,1,1.945-.509,13.886,13.886,0,0,1,1.984-.192,11.845,11.845,0,0,1,1.951.132,11.175,11.175,0,0,1,1.846.413,11.352,11.352,0,0,1,1.68.661,12.232,12.232,0,0,1,2.778,1.818,12.431,12.431,0,0,1,1.971,2.137,11.242,11.242,0,0,1,1.736,3.75,3.58,3.58,0,0,1,.17,1.5Z" transform="translate(-311.419 -46.912)" fill="#e0e0e0"/>
        <path id="Trazado_108077" data-name="Trazado 108077" d="M581.27,100.738l.331,2.084-1.859.3-.324-2.024a8.963,8.963,0,0,1-4.862-.767l.661-2.428a7.6,7.6,0,0,0,3.81.744l-.5-3.1c-2.143-.172-4.551-.489-4.981-3.148-.311-1.984.846-3.885,3.724-4.69l-.324-2.066,1.852-.3.324,2.031a8.467,8.467,0,0,1,3.968.529l-.562,2.428a7.852,7.852,0,0,0-3-.509l.5,3.162c2.143.152,4.517.476,4.935,3.1C585.275,98.026,584.131,99.925,581.27,100.738ZM578.1,92.8l-.423-2.645c-.946.377-1.251.979-1.151,1.594s.714.952,1.57,1.075ZM582,96.771c-.1-.661-.694-.919-1.542-1.075l.413,2.562c.893-.331,1.23-.873,1.131-1.468Z" transform="translate(-314.961 -48.995)" fill="#2c597c"/>
        <path id="Trazado_108078" data-name="Trazado 108078" d="M502.558,86.887A27.549,27.549,0,1,1,471.344,63.65a27.549,27.549,0,0,1,31.213,23.237Z" transform="translate(-272.387 -41.552)" fill="#fed6a8"/>
        <path id="Trazado_108079" data-name="Trazado 108079" d="M499.433,91.172a20.968,20.968,0,1,1-8.235-13.79A20.968,20.968,0,0,1,499.433,91.172Z" transform="translate(-275.751 -44.898)" fill="#fd9826"/>
        <path id="Trazado_108080" data-name="Trazado 108080" d="M499.157,90.13a13.353,13.353,0,0,1-.909-2.421,22.37,22.37,0,0,0-3.306-6.019,21.6,21.6,0,0,0-3.306-3.373,21.242,21.242,0,0,0-4.583-2.838,19.788,19.788,0,0,0-2.746-1.012,19.539,19.539,0,0,0-2.97-.661,20.564,20.564,0,0,0-3.141-.185,20.3,20.3,0,0,0-6.365,1.131,19.764,19.764,0,0,0-2.871,1.283,20.142,20.142,0,0,0-2.573,1.614,20.768,20.768,0,0,0-2.223,1.892,21.033,21.033,0,0,0-3.306,4.246,21.825,21.825,0,0,0-1.938,4.306,22.483,22.483,0,0,0-1.045,6.793,16.328,16.328,0,0,1,0,2.58,5.925,5.925,0,0,1-.6-2.547,19.441,19.441,0,0,1,.579-7.15,21.06,21.06,0,0,1,5.29-9.258,19.29,19.29,0,0,1,2.348-2.077,21.166,21.166,0,0,1,2.705-1.76A20.5,20.5,0,0,1,471.3,73.3a23.484,23.484,0,0,1,3.38-.893,23.08,23.08,0,0,1,3.479-.324,21.164,21.164,0,0,1,3.389.218,20.774,20.774,0,0,1,3.195.721,21.027,21.027,0,0,1,2.917,1.137,21.469,21.469,0,0,1,4.828,3.162,21.215,21.215,0,0,1,3.347,3.72,19.388,19.388,0,0,1,3.01,6.509A6.032,6.032,0,0,1,499.157,90.13Z" transform="translate(-275.575 -44.505)" fill="#e0e0e0"/>
        <path id="Trazado_108081" data-name="Trazado 108081" d="M488.763,109.476l.579,3.611-3.224.509-.562-3.512a15.2,15.2,0,0,1-8.44-1.323l1.138-4.22a13.225,13.225,0,0,0,6.613,1.323L484,100.48c-3.72-.3-7.9-.853-8.645-5.464-.542-3.42,1.468-6.747,6.469-8.143l-.579-3.578,3.228-.516.562,3.512a14.777,14.777,0,0,1,6.861.919l-.932,4.226a13.4,13.4,0,0,0-5.2-.893l.873,5.484c3.72.265,7.839.827,8.566,5.373C495.711,104.753,493.728,108.06,488.763,109.476Zm-5.51-13.738-.727-4.577c-1.647.661-2.176,1.707-1.984,2.772s1.224,1.561,2.712,1.806Zm6.793,6.885c-.179-1.131-1.217-1.594-2.679-1.859l.714,4.451c1.562-.608,2.131-1.561,1.966-2.593Z" transform="translate(-281.704 -48.128)" fill="#2c597c"/>
        <path id="Trazado_108082" data-name="Trazado 108082" d="M146.207,233.826a15.875,15.875,0,1,1-17.985-13.381,15.875,15.875,0,0,1,17.985,13.381Z" transform="translate(-103.157 -15.071)" fill="#fd9826"/>
        <path id="Trazado_108083" data-name="Trazado 108083" d="M144.4,236.295a12.1,12.1,0,1,1-13.7-10.2A12.1,12.1,0,0,1,144.4,236.295Z" transform="translate(-105.09 -16.997)" fill="#fed6a8"/>
        <path id="Trazado_108084" data-name="Trazado 108084" d="M144.238,235.7a7.017,7.017,0,0,1-.522-1.4,12.847,12.847,0,0,0-1.919-3.466,12.438,12.438,0,0,0-1.9-1.945,12.01,12.01,0,0,0-2.645-1.634,10.575,10.575,0,0,0-1.57-.579,10.924,10.924,0,0,0-1.714-.364,11.615,11.615,0,0,0-1.806-.106,12.706,12.706,0,0,0-1.859.179,11.747,11.747,0,0,0-4.955,2.124,11.414,11.414,0,0,0-1.276,1.091,12,12,0,0,0-1.918,2.441,12.646,12.646,0,0,0-1.118,2.48,12.97,12.97,0,0,0-.6,3.916,6.612,6.612,0,0,1,0,1.488,3.578,3.578,0,0,1-.344-1.468,11.241,11.241,0,0,1,.331-4.121,12.228,12.228,0,0,1,1.075-2.645,12.565,12.565,0,0,1,1.984-2.645,11.243,11.243,0,0,1,1.323-1.2,12.619,12.619,0,0,1,3.373-1.813,13.4,13.4,0,0,1,1.952-.516,13.68,13.68,0,0,1,1.984-.185,12.677,12.677,0,0,1,1.984.126,11.8,11.8,0,0,1,1.839.413,12.35,12.35,0,0,1,6.389,4.629,11.241,11.241,0,0,1,1.736,3.75,3.612,3.612,0,0,1,.179,1.442Z" transform="translate(-104.985 -16.782)" fill="#e0e0e0"/>
        <path id="Trazado_108085" data-name="Trazado 108085" d="M138.271,246.838l.331,2.077-1.859.3-.324-2.024a8.9,8.9,0,0,1-4.862-.744l.661-2.434a7.54,7.54,0,0,0,3.816.744l-.5-3.1c-2.137-.165-4.55-.483-4.974-3.141-.317-1.984.84-3.889,3.724-4.69l-.331-2.066,1.859-.3.324,2.024a8.448,8.448,0,0,1,3.968.529l-.562,2.434a7.588,7.588,0,0,0-3-.509l.5,3.155c2.143.152,4.517.476,4.935,3.1C142.268,244.119,141.124,246.018,138.271,246.838ZM135.1,238.9l-.423-2.645c-.946.384-1.25.979-1.151,1.594s.714.946,1.57,1.075Zm3.916,3.968c-.106-.661-.7-.909-1.547-1.065l.413,2.562c.9-.331,1.23-.879,1.137-1.475Z" transform="translate(-108.532 -18.856)" fill="#2c597c"/>
        <path id="Trazado_108086" data-name="Trazado 108086" d="M113.143,178.192a10.325,10.325,0,1,1,3.2-14.228,10.325,10.325,0,0,1-3.2,14.228Z" transform="translate(-97.286 5.625)" fill="#f5f5f5"/>
        <path id="Trazado_108087" data-name="Trazado 108087" d="M113.085,177.367a7.872,7.872,0,1,1,2.448-10.848,7.872,7.872,0,0,1-2.448,10.848Z" transform="translate(-98.544 4.374)" fill="#ebebeb"/>
        <path id="Trazado_108088" data-name="Trazado 108088" d="M115.064,177.1a7.144,7.144,0,0,1,.661-.661,8.254,8.254,0,0,0,1.554-2.057,7.738,7.738,0,0,0,.926-3.644,6.806,6.806,0,0,0-.066-1.091,7.408,7.408,0,0,0-.238-1.111,7.706,7.706,0,0,0-.413-1.1,7.542,7.542,0,0,0-1.356-1.984,7.009,7.009,0,0,0-.866-.794,7.167,7.167,0,0,0-.946-.661,6.747,6.747,0,0,0-.965-.516,7.941,7.941,0,0,0-1.984-.5,8.768,8.768,0,0,0-1.766,0,8.243,8.243,0,0,0-2.487.661,4.954,4.954,0,0,1-.893.384,3.455,3.455,0,0,1,.787-.6,7.236,7.236,0,0,1,2.533-.886,7.837,7.837,0,0,1,1.872-.073,7.936,7.936,0,0,1,2.11.476,7.367,7.367,0,0,1,1.075.489,7.547,7.547,0,0,1,1.025.661,8.149,8.149,0,0,1,1.76,1.879,8.525,8.525,0,0,1,.661,1.144,8.38,8.38,0,0,1,.443,1.19,7.935,7.935,0,0,1,.238,1.2,7.084,7.084,0,0,1,.053,1.177,8.018,8.018,0,0,1-.344,2.13,7.878,7.878,0,0,1-.767,1.714,7.274,7.274,0,0,1-1.773,2.024,2.4,2.4,0,0,1-.827.542Z" transform="translate(-100.312 4.51)" fill="#e0e0e0"/>
        <path id="Trazado_108089" data-name="Trazado 108089" d="M106.72,175.983l-1.151.744-.661-1.025,1.118-.727a5.728,5.728,0,0,1-.84-3.089l1.614-.248a4.948,4.948,0,0,0,.569,2.467l1.714-1.118c-.463-1.323-.909-2.838.555-3.79,1.084-.708,2.533-.529,3.77.972l1.137-.744.661,1.025-1.118.727a5.556,5.556,0,0,1,.734,2.487l-1.6.311a4.994,4.994,0,0,0-.483-1.919l-1.747,1.137c.476,1.323.909,2.81-.536,3.75C109.394,177.644,107.96,177.464,106.72,175.983Zm3.863-3.968,1.455-.952c-.476-.463-.909-.483-1.25-.265s-.357.661-.2,1.21Zm-1.323,3.373c.357-.238.357-.661.225-1.2l-1.415.926c.45.436.866.483,1.19.271Z" transform="translate(-99.867 2.359)" fill="#e0e0e0"/>
        <path id="Trazado_108090" data-name="Trazado 108090" d="M531.893,49.4a10.305,10.305,0,1,1,4.546-6.447,10.305,10.305,0,0,1-4.546,6.447Z" transform="translate(-295.511 -30.383)" fill="#f5f5f5"/>
        <path id="Trazado_108091" data-name="Trazado 108091" d="M531.811,48.569a7.872,7.872,0,1,1,2.44-10.841,7.872,7.872,0,0,1-2.44,10.841Z" transform="translate(-296.752 -31.631)" fill="#ebebeb"/>
        <path id="Trazado_108092" data-name="Trazado 108092" d="M533.791,48.316a7.143,7.143,0,0,1,.661-.661,8.26,8.26,0,0,0,1.554-2.057,7.581,7.581,0,0,0,.661-1.641,8,8,0,0,0,.278-1.984,7.665,7.665,0,0,0-.046-1.131,7.408,7.408,0,0,0-.237-1.109,7.283,7.283,0,0,0-.413-1.1,8,8,0,0,0-.6-1.058,8.154,8.154,0,0,0-.737-.949,7.074,7.074,0,0,0-.873-.8,6.749,6.749,0,0,0-.946-.661,7.493,7.493,0,0,0-.985-.476,7.654,7.654,0,0,0-1.984-.489,7.892,7.892,0,0,0-1.766,0,8.261,8.261,0,0,0-2.487.661,4.409,4.409,0,0,1-.893.384,3.455,3.455,0,0,1,.787-.6,7.236,7.236,0,0,1,2.534-.854,7.528,7.528,0,0,1,1.872-.066,7.9,7.9,0,0,1,2.11.469,7.348,7.348,0,0,1,1.075.489,8.03,8.03,0,0,1,2.785,2.52,8.585,8.585,0,0,1,.661,1.144,8.369,8.369,0,0,1,.437,1.19,7.187,7.187,0,0,1,.238,1.2,7.1,7.1,0,0,1,.053,1.177,8.025,8.025,0,0,1-.344,2.13,7.889,7.889,0,0,1-.78,1.753,7.274,7.274,0,0,1-1.766,1.984,2.454,2.454,0,0,1-.846.529Z" transform="translate(-298.534 -31.51)" fill="#e0e0e0"/>
        <path id="Trazado_108093" data-name="Trazado 108093" d="M525.433,47.183l-1.151.754-.661-1.025,1.118-.727a5.786,5.786,0,0,1-.866-3.1l1.614-.248a5.014,5.014,0,0,0,.569,2.467l1.714-1.118c-.463-1.323-.909-2.838.555-3.79,1.084-.708,2.534-.529,3.77.972l1.164-.708.661,1.025-1.118.727a5.567,5.567,0,0,1,.727,2.494l-1.594.3a5.05,5.05,0,0,0-.489-1.912L529.7,44.435c.476,1.323.909,2.81-.536,3.75C528.1,48.845,526.676,48.665,525.433,47.183Zm3.863-3.968,1.455-.946c-.476-.469-.909-.489-1.25-.271s-.337.648-.205,1.21Zm-1.322,3.373c.357-.238.357-.661.225-1.2l-1.415.919a.984.984,0,0,0,1.19.3Z" transform="translate(-298.073 -33.644)" fill="#e0e0e0"/>
      </g>
      <g id="freepik--Device--inject-122" transform="translate(11.553 23.864)">
        <path id="Trazado_108095" data-name="Trazado 108095" d="M536.083,134.64H284.257A7.858,7.858,0,0,0,276.4,142.5V320.373a7.858,7.858,0,0,0,7.858,7.858h96.651S387.06,347.243,368,357.084H458.37s-21.5-7.381-15.987-28.852h93.7a7.858,7.858,0,0,0,7.858-7.858V142.5a7.857,7.857,0,0,0-7.858-7.865Z" transform="translate(-224.86 -89.549)" fill="#263238"/>
        <path id="Trazado_108096" data-name="Trazado 108096" d="M479.453,398.232c3.426,4.9-1.932,10.259-6.832,6.833a1.689,1.689,0,0,1-.413-.423c-3.42-4.9,1.938-10.25,6.833-6.826a1.774,1.774,0,0,1,.413.417Z" transform="translate(-290.786 -178.283)" fill="#455a64"/>
        <path id="Trazado_108097" data-name="Trazado 108097" d="M289.383,139.57H535.439a6.416,6.416,0,0,1,6.416,6.416V297.364H283V145.986a6.416,6.416,0,0,1,6.383-6.416Z" transform="translate(-227.095 -91.218)" fill="#fff"/>
        <rect id="Rectángulo_26914" data-name="Rectángulo 26914" width="8.493" height="94.825" transform="translate(77.806 83.97)" fill="#d9a171"/>
        <rect id="Rectángulo_26915" data-name="Rectángulo 26915" width="8.493" height="62.619" transform="translate(94.196 116.176)" fill="#d9a171"/>
        <rect id="Rectángulo_26916" data-name="Rectángulo 26916" width="8.493" height="83.52" transform="translate(110.587 95.757)" fill="#d9a171"/>
        <rect id="Rectángulo_26917" data-name="Rectángulo 26917" width="8.493" height="91.161" transform="translate(126.984 87.634)" fill="#d9a171"/>
        <rect id="Rectángulo_26918" data-name="Rectángulo 26918" width="8.493" height="60.688" transform="translate(143.374 118.107)" fill="#d9a171"/>
        <rect id="Rectángulo_26919" data-name="Rectángulo 26919" width="8.493" height="48.788" transform="translate(159.766 130.007)" fill="#d9a171"/>
        <rect id="Rectángulo_26920" data-name="Rectángulo 26920" width="8.493" height="85.088" transform="translate(176.156 93.706)" fill="#d9a171"/>
        <rect id="Rectángulo_26921" data-name="Rectángulo 26921" width="8.493" height="69.75" transform="translate(192.546 109.045)" fill="#d9a171"/>
        <rect id="Rectángulo_26922" data-name="Rectángulo 26922" width="8.493" height="82.006" transform="translate(208.944 96.789)" fill="#d9a171"/>
        <rect id="Rectángulo_26923" data-name="Rectángulo 26923" width="8.493" height="55.872" transform="translate(225.334 122.923)" fill="#d9a171"/>
        <rect id="Rectángulo_26924" data-name="Rectángulo 26924" width="8.493" height="85.088" transform="translate(258.03 93.706)" fill="#d9a171"/>
        <rect id="Rectángulo_26925" data-name="Rectángulo 26925" width="8.493" height="29.116" transform="translate(292.841 148.454)" fill="#d9a171"/>
        <rect id="Rectángulo_26926" data-name="Rectángulo 26926" width="8.493" height="55.872" transform="translate(275.868 122.923)" fill="#d9a171"/>
        <rect id="Rectángulo_26927" data-name="Rectángulo 26927" width="8.493" height="66.502" transform="translate(241.725 112.293)" fill="#d9a171"/>
        <path id="Trazado_108098" data-name="Trazado 108098" d="M544.421,210.7a5.294,5.294,0,0,1-.744-.119l-2.163-.443a33.819,33.819,0,0,0-3.532-.562,43.642,43.642,0,0,0-4.861-.4,56.291,56.291,0,0,0-13.295,1.137,58.687,58.687,0,0,0-16.483,6.244,67.294,67.294,0,0,0-16.7,13.295c-5.2,5.7-9.588,12.746-14.069,20.2s-9.141,15.457-15.815,22.363a41.4,41.4,0,0,1-11.648,8.711,24.276,24.276,0,0,1-7.183,2.2,23.017,23.017,0,0,1-7.614-.258,31.069,31.069,0,0,1-13.262-6.952,61.736,61.736,0,0,1-9.822-10.722c-5.7-7.673-9.754-15.941-14.082-23.475s-8.679-14.625-14.068-20.148a38.266,38.266,0,0,0-8.7-6.839,36.58,36.58,0,0,0-4.7-2.282,38.253,38.253,0,0,0-4.794-1.422,34.891,34.891,0,0,0-17.429.489,39.315,39.315,0,0,0-11.966,5.755,43.577,43.577,0,0,0-6.282,5.636l-1.475,1.633a4.629,4.629,0,0,1-.529.542,3.779,3.779,0,0,1,.45-.6l1.4-1.72a40.875,40.875,0,0,1,6.211-5.8A39.026,39.026,0,0,1,343.3,211.2a35.223,35.223,0,0,1,17.72-.661,36.768,36.768,0,0,1,18.613,10.649c5.431,5.6,9.955,12.693,14.268,20.26s8.427,15.788,14.069,23.363a61.253,61.253,0,0,0,9.683,10.58,30.149,30.149,0,0,0,12.842,6.747,22.141,22.141,0,0,0,7.274.248,23.589,23.589,0,0,0,6.912-2.11,40.572,40.572,0,0,0,11.407-8.526c6.581-6.766,11.185-14.757,15.736-22.158s8.943-14.548,14.235-20.28a68.028,68.028,0,0,1,16.953-13.348,58.56,58.56,0,0,1,16.708-6.171,55.05,55.05,0,0,1,13.414-.992,40.915,40.915,0,0,1,4.888.5,29.867,29.867,0,0,1,3.532.661l2.143.536A4.717,4.717,0,0,1,544.421,210.7Z" transform="translate(-240.705 -114.634)" fill="#263238"/>
        <path id="Trazado_108099" data-name="Trazado 108099" d="M301.82,284.949c-.192,0-.35-27.04-.35-60.39s.159-60.39.35-60.39.35,27.029.35,60.39S302,284.949,301.82,284.949Z" transform="translate(-233.348 -99.547)" fill="#263238"/>
        <path id="Trazado_108100" data-name="Trazado 108100" d="M537.537,346.591c0,.192-50.931.344-113.769.344S310,346.786,310,346.591s50.932-.35,113.769-.35S537.537,346.4,537.537,346.591Z" transform="translate(-236.236 -161.188)" fill="#263238"/>
        <path id="Trazado_108101" data-name="Trazado 108101" d="M327.97,357.87c0,.192-2.818.35-6.3.35s-6.3-.159-6.3-.35,2.818-.35,6.3-.35S327.97,357.679,327.97,357.87Z" transform="translate(-238.054 -165.007)" fill="#263238"/>
        <path id="Trazado_108102" data-name="Trazado 108102" d="M358.291,358.444c0,.2-3.373.35-7.528.35s-7.534-.152-7.534-.35,3.373-.344,7.534-.344S358.291,358.252,358.291,358.444Z" transform="translate(-247.486 -165.204)" fill="#263238"/>
        <path id="Trazado_108103" data-name="Trazado 108103" d="M385.291,358.444c0,.2-3.373.35-7.528.35s-7.533-.152-7.533-.35,3.373-.344,7.533-.344S385.291,358.252,385.291,358.444Z" transform="translate(-256.627 -165.204)" fill="#263238"/>
        <path id="Trazado_108104" data-name="Trazado 108104" d="M412.211,358.444c0,.2-3.373.35-7.527.35s-7.533-.152-7.533-.35,3.373-.344,7.533-.344S412.211,358.252,412.211,358.444Z" transform="translate(-265.741 -165.204)" fill="#263238"/>
        <path id="Trazado_108105" data-name="Trazado 108105" d="M439.161,358.444c0,.2-3.367.35-7.527.35s-7.533-.152-7.533-.35,3.373-.344,7.533-.344S439.161,358.252,439.161,358.444Z" transform="translate(-274.865 -165.204)" fill="#263238"/>
        <path id="Trazado_108106" data-name="Trazado 108106" d="M466.121,358.444c0,.2-3.373.35-7.534.35s-7.528-.152-7.528-.35,3.367-.344,7.528-.344S466.121,358.252,466.121,358.444Z" transform="translate(-283.992 -165.204)" fill="#263238"/>
        <path id="Trazado_108107" data-name="Trazado 108107" d="M493.071,358.444c0,.2-3.373.35-7.534.35s-7.527-.152-7.527-.35,3.367-.344,7.527-.344S493.071,358.252,493.071,358.444Z" transform="translate(-293.116 -165.204)" fill="#263238"/>
        <path id="Trazado_108108" data-name="Trazado 108108" d="M520.021,358.444c0,.2-3.373.35-7.534.35s-7.527-.152-7.527-.35,3.373-.344,7.527-.344S520.021,358.252,520.021,358.444Z" transform="translate(-302.24 -165.204)" fill="#263238"/>
        <path id="Trazado_108109" data-name="Trazado 108109" d="M546.971,358.444c0,.2-3.373.35-7.528.35s-7.533-.152-7.533-.35,3.373-.344,7.533-.344S546.971,358.252,546.971,358.444Z" transform="translate(-311.365 -165.204)" fill="#263238"/>
        <path id="Trazado_108110" data-name="Trazado 108110" d="M573.921,358.444c0,.2-3.373.35-7.527.35s-7.534-.152-7.534-.35,3.373-.344,7.534-.344S573.921,358.252,573.921,358.444Z" transform="translate(-320.489 -165.204)" fill="#263238"/>
        <path id="Trazado_108111" data-name="Trazado 108111" d="M598.991,358.454c0,.2-3.373.35-7.534.35s-7.527-.152-7.527-.35,3.373-.344,7.527-.344S598.991,358.262,598.991,358.454Z" transform="translate(-328.977 -165.207)" fill="#263238"/>
        <path id="Trazado_108112" data-name="Trazado 108112" d="M624.061,358.464c0,.192-3.373.35-7.534.35s-7.527-.159-7.527-.35,3.367-.344,7.527-.344S624.061,358.269,624.061,358.464Z" transform="translate(-337.464 -165.21)" fill="#263238"/>
        <path id="Trazado_108113" data-name="Trazado 108113" d="M649.121,358.47c0,.192-3.373.35-7.528.35s-7.534-.159-7.534-.35,3.373-.35,7.534-.35S649.121,358.279,649.121,358.47Z" transform="translate(-345.948 -165.21)" fill="#263238"/>
        <path id="Trazado_108114" data-name="Trazado 108114" d="M431.293,259.963c0-.145,1.045.218,1.375,1.641a3.492,3.492,0,0,1-.265,2.448,2.116,2.116,0,0,1-1.24,1.045,2.276,2.276,0,0,1-1.727-.2,2.893,2.893,0,0,1-1.475-2.705,3.029,3.029,0,0,1,1.184-2.19,1.938,1.938,0,0,1,1.621-.4c.4.119.529.311.5.35a1.893,1.893,0,0,0-1.693.562,2.494,2.494,0,0,0-.744,1.706,2.1,2.1,0,0,0,1.061,1.838,1.257,1.257,0,0,0,1.76-.45,3.1,3.1,0,0,0,.357-1.885A4.127,4.127,0,0,0,431.293,259.963Z" transform="translate(-276.171 -131.841)" fill="#263238"/>
        <path id="Trazado_108115" data-name="Trazado 108115" d="M600.4,212.842c0-.053.271-.139.744,0a2.857,2.857,0,0,1,1.514,1.323,3.764,3.764,0,0,1,.37,2.976,3.129,3.129,0,0,1-2.9,2.322,2.474,2.474,0,0,1-1.846-.959,3.967,3.967,0,0,1-.78-1.653,3.77,3.77,0,0,1,.476-2.957c1.045-1.475,2.335-1.405,2.289-1.323.06.139-1.018.344-1.713,1.634a3.306,3.306,0,0,0-.205,2.4c.225.873.9,1.872,1.813,1.879a2.335,2.335,0,0,0,2.044-1.647,3.255,3.255,0,0,0-.139-2.388A3.426,3.426,0,0,0,600.4,212.842Z" transform="translate(-333.529 -115.921)" fill="#263238"/>
        <rect id="Rectángulo_26928" data-name="Rectángulo 26928" width="170.395" height="132.613" transform="translate(0.132 0.225)" fill="#fff"/>
        <path id="Trazado_108116" data-name="Trazado 108116" d="M369.007,199.308c0-1.323-.06-52.585-.159-132.613l.159.159H198.632l.192-.192V199.275l-.172-.172,170.395.172-170.395.172h-.172V66.47H369.225v.159C369.073,146.723,369.013,197.985,369.007,199.308Z" transform="translate(-198.48 -66.47)" fill="#263238"/>
        <rect id="Rectángulo_26929" data-name="Rectángulo 26929" width="27.582" height="1.534" transform="translate(8.447 17.648)" fill="#263238"/>
        <rect id="Rectángulo_26930" data-name="Rectángulo 26930" width="13.632" height="1.534" transform="translate(8.447 21.239)" fill="#263238"/>
        <rect id="Rectángulo_26931" data-name="Rectángulo 26931" width="4.994" height="1.442" transform="translate(24.169 113.782)" fill="#263238"/>
        <rect id="Rectángulo_26932" data-name="Rectángulo 26932" width="6.389" height="1.442" transform="translate(35.473 121.48)" fill="#263238"/>
        <rect id="Rectángulo_26933" data-name="Rectángulo 26933" width="6.389" height="1.442" transform="translate(57.718 121.48)" fill="#263238"/>
        <rect id="Rectángulo_26934" data-name="Rectángulo 26934" width="6.389" height="1.442" transform="translate(79.962 121.48)" fill="#263238"/>
        <rect id="Rectángulo_26935" data-name="Rectángulo 26935" width="6.389" height="1.442" transform="translate(102.206 121.48)" fill="#263238"/>
        <rect id="Rectángulo_26936" data-name="Rectángulo 26936" width="6.389" height="1.442" transform="translate(124.451 121.48)" fill="#263238"/>
        <rect id="Rectángulo_26937" data-name="Rectángulo 26937" width="6.389" height="1.442" transform="translate(146.695 121.48)" fill="#263238"/>
        <rect id="Rectángulo_26938" data-name="Rectángulo 26938" width="4.994" height="1.442" transform="translate(24.169 94.554)" fill="#263238"/>
        <rect id="Rectángulo_26939" data-name="Rectángulo 26939" width="4.994" height="1.442" transform="translate(24.169 58.359)" fill="#263238"/>
        <rect id="Rectángulo_26940" data-name="Rectángulo 26940" width="4.994" height="1.442" transform="translate(24.169 40.169)" fill="#263238"/>
        <rect id="Rectángulo_26941" data-name="Rectángulo 26941" width="4.994" height="1.442" transform="translate(24.427 76.456)" fill="#263238"/>
        <path id="Trazado_108117" data-name="Trazado 108117" d="M367.562,197.828h-2.11l-6.046.033-22.235.06-73.361.046H246.26v-.172c0-24.533.046-46.123.06-61.587,0-7.726.04-13.887.053-18.19h0c0,4.273,0,10.464.053,18.19,0,15.465.033,37.041.06,61.587l-.172-.172h17.5l73.361.053,22.235.053,6.046.033h1.57Z" transform="translate(-214.656 -82.605)" fill="#263238"/>
        <path id="Trazado_108118" data-name="Trazado 108118" d="M371.517,183.064c0,.093-26.352.172-58.869.172s-58.868-.083-58.868-.172,26.346-.172,58.868-.172S371.517,182.963,371.517,183.064Z" transform="translate(-217.202 -105.885)" fill="#263238"/>
        <path id="Trazado_108119" data-name="Trazado 108119" d="M371.517,155.7c0,.093-26.352.172-58.869.172s-58.868-.083-58.868-.172,26.346-.172,58.868-.172S371.517,155.609,371.517,155.7Z" transform="translate(-217.202 -96.622)" fill="#263238"/>
        <path id="Trazado_108120" data-name="Trazado 108120" d="M371.517,128.2c0,.1-26.352.172-58.869.172s-58.868-.073-58.868-.172,26.346-.172,58.868-.172S371.517,128.109,371.517,128.2Z" transform="translate(-217.202 -87.312)" fill="#263238"/>
        <path id="Trazado_108121" data-name="Trazado 108121" d="M371.517,210.422c0,.093-26.352.172-58.869.172s-58.868-.083-58.868-.172,26.346-.172,58.868-.172S371.517,210.329,371.517,210.422Z" transform="translate(-217.202 -115.147)" fill="#263238"/>
        <path id="Trazado_108122" data-name="Trazado 108122" d="M255.66,193.249V177.2l10.007-15.551,6.793,5.212L286.4,145.208l8.222,5.786,11.437-19.976,9.258,7.573L329.3,112.107l15.015,29.613,12.1-14.817,14.294-4.094v70.437Z" transform="translate(-217.839 -81.921)" fill="#455a64"/>
        <path id="Trazado_108123" data-name="Trazado 108123" d="M372.165,119.622a1.842,1.842,0,0,1-.248,0h-3.644l-10.974.046.073-.04-11.761,15.425-.046.053h-29.5l.145-.083-12.376,20.6c-4.216,7.011-8.295,13.792-12.151,20.194l-.126.218-.145-.2L275.458,153.92h.231l-14.5,22.674-4.041,6.27c-.463.714-.82,1.263-1.075,1.641s-.377.555-.377.555.112-.2.344-.579l1.032-1.661c.919-1.461,2.262-3.6,3.968-6.317l14.42-22.731.112-.172.126.165,15.987,21.887h-.278l12.111-20.188,12.389-20.6.046-.083h.132l29.434.033-.106.053,11.833-15.306v-.04h.046l10.974.046h3.649Z" transform="translate(-217.852 -84.434)" fill="#263238"/>
        <path id="Trazado_108124" data-name="Trazado 108124" d="M291.843,178.634a1.131,1.131,0,1,1-1.131-1.084A1.111,1.111,0,0,1,291.843,178.634Z" transform="translate(-229.323 -104.077)" fill="#263238"/>
        <path id="Trazado_108125" data-name="Trazado 108125" d="M343.2,149.444a1.131,1.131,0,1,1-1.124-1.084,1.1,1.1,0,0,1,1.124,1.084Z" transform="translate(-246.711 -94.194)" fill="#263238"/>
        <ellipse id="Elipse_4249" data-name="Elipse 4249" cx="1.131" cy="1.084" rx="1.131" ry="1.084" transform="translate(120.628 49.436)" fill="#263238"/>
        <path id="Trazado_108126" data-name="Trazado 108126" d="M208.1,74.383a1.323,1.323,0,1,1-1.323-1.323,1.323,1.323,0,0,1,1.323,1.323Z" transform="translate(-200.84 -68.701)" fill="#263238"/>
        <path id="Trazado_108127" data-name="Trazado 108127" d="M213.856,74.383a1.323,1.323,0,1,1-1.323-1.323A1.323,1.323,0,0,1,213.856,74.383Z" transform="translate(-202.79 -68.701)" fill="#263238"/>
        <path id="Trazado_108128" data-name="Trazado 108128" d="M219.645,74.383a1.323,1.323,0,1,1-1.323-1.323A1.323,1.323,0,0,1,219.645,74.383Z" transform="translate(-204.75 -68.701)" fill="#263238"/>
        <path id="Trazado_108129" data-name="Trazado 108129" d="M369.044,82.782c0,.093-38.072.172-85.028.172S199,82.868,199,82.782s38.066-.172,85.036-.172S369.044,82.684,369.044,82.782Z" transform="translate(-198.656 -71.935)" fill="#263238"/>
      </g>
      <g id="freepik--Character--inject-122" transform="translate(33.936 78.571)">
        <path id="Trazado_108144" data-name="Trazado 108144" d="M246.15,462.37l-1.137,4.789s-7.838,10.179-10.25,9.677c-1.588-.324.364-2.976,3.306-10.708l.661-3.188Z" transform="translate(-232.954 -255.212)" fill="#455a64"/>
        <path id="Trazado_108145" data-name="Trazado 108145" d="M234.569,477.227a.966.966,0,0,0,.413.4,1.456,1.456,0,0,0,1.5-.212,44.882,44.882,0,0,0,3.9-3.691c1.449-1.522,2.645-2.99,3.525-4.068l1-1.289c.1-.126.192-.238.271-.35a.808.808,0,0,1,.106-.119.808.808,0,0,1-.106.119l-.248.37c-.218.317-.549.767-.965,1.323a49.946,49.946,0,0,1-3.506,4.1,38.631,38.631,0,0,1-3.968,3.684,1.819,1.819,0,0,1-.886.324,1.322,1.322,0,0,1-.694-.152.834.834,0,0,1-.331-.3.442.442,0,0,1-.007-.139Z" transform="translate(-233.081 -257.084)" fill="#263238"/>
        <path id="Trazado_108146" data-name="Trazado 108146" d="M236.24,476.954a1.24,1.24,0,0,1,.661-.073,3.357,3.357,0,0,1,1.475.509,2.691,2.691,0,0,1,1.075,1.137,1.375,1.375,0,0,1,.172.628,3.568,3.568,0,0,0-.258-.579,2.872,2.872,0,0,0-1.058-1.058,3.652,3.652,0,0,0-1.415-.536,6.173,6.173,0,0,0-.651-.03Z" transform="translate(-233.647 -260.119)" fill="#263238"/>
        <path id="Trazado_108147" data-name="Trazado 108147" d="M247.311,470.954a.716.716,0,0,1-.1-.231,5.187,5.187,0,0,1-.152-.661,3.6,3.6,0,0,1,.364-2.183,3.389,3.389,0,0,1,1.588-1.535,2.292,2.292,0,0,1,.661-.2.763.763,0,0,1,.248,0,5.293,5.293,0,0,0-.853.3,3.472,3.472,0,0,0-1.5,1.514,3.75,3.75,0,0,0-.39,2.1C247.225,470.609,247.334,470.947,247.311,470.954Z" transform="translate(-237.297 -256.486)" fill="#263238"/>
        <path id="Trazado_108148" data-name="Trazado 108148" d="M251.16,463.6s-.145.661-.291,1.528a5.246,5.246,0,0,1-.413,1.508s.126-.661.271-1.534a4.959,4.959,0,0,1,.43-1.5Z" transform="translate(-238.461 -255.628)" fill="#263238"/>
        <path id="Trazado_108149" data-name="Trazado 108149" d="M239.89,469.035a1.88,1.88,0,0,1,1.005,0,1.76,1.76,0,0,1,.909.43c0,.04-.413-.172-.939-.291S239.9,469.081,239.89,469.035Z" transform="translate(-234.883 -257.445)" fill="#263238"/>
        <path id="Trazado_108150" data-name="Trazado 108150" d="M239.65,470.273a1.263,1.263,0,0,1,.846,0,1.2,1.2,0,0,1,.744.413c0,.033-.337-.172-.774-.271S239.657,470.319,239.65,470.273Z" transform="translate(-234.801 -257.862)" fill="#263238"/>
        <path id="Trazado_108151" data-name="Trazado 108151" d="M238.7,471.788a1.074,1.074,0,0,1,.879-.112,1.052,1.052,0,0,1,.744.483,3.4,3.4,0,0,0-.774-.344,3.448,3.448,0,0,0-.846-.027Z" transform="translate(-234.48 -258.347)" fill="#263238"/>
        <path id="Trazado_108152" data-name="Trazado 108152" d="M240.71,467.539a9.257,9.257,0,0,0,.919-.311,7.5,7.5,0,0,0,.946-.456c.165-.1.344-.212.516-.331a.641.641,0,0,0,.331-.476c-.007-.185-.238-.291-.413-.248a1.136,1.136,0,0,0-.483.324c-.291.271-.536.529-.734.754a6.577,6.577,0,0,1-.661.734.959.959,0,0,1,.132-.225c.093-.139.238-.337.43-.579a10.228,10.228,0,0,1,.721-.78,1.231,1.231,0,0,1,.542-.364.456.456,0,0,1,.589.37.788.788,0,0,1-.384.6,5.4,5.4,0,0,1-.542.331,5.938,5.938,0,0,1-.972.436,5.29,5.29,0,0,1-.694.192C240.8,467.546,240.71,467.552,240.71,467.539Z" transform="translate(-235.16 -256.293)" fill="#263238"/>
        <path id="Trazado_108153" data-name="Trazado 108153" d="M240.6,467.088a8.6,8.6,0,0,1-.145-.873,3.777,3.777,0,0,0-.265-.909,1.985,1.985,0,0,0-.291-.463c-.119-.132-.3-.248-.45-.165s-.165.3-.145.483a2.267,2.267,0,0,0,.152.522,3.175,3.175,0,0,0,.509.787,6.61,6.61,0,0,0,.661.615c0,.02-.083,0-.2-.119a3.608,3.608,0,0,1-.5-.423,3.025,3.025,0,0,1-.555-.807,2.432,2.432,0,0,1-.172-.562.6.6,0,0,1,.218-.615.516.516,0,0,1,.615.192,2.033,2.033,0,0,1,.311.5,3.506,3.506,0,0,1,.248.946c.033.271.046.5.053.661A.841.841,0,0,1,240.6,467.088Z" transform="translate(-234.64 -255.942)" fill="#263238"/>
        <path id="Trazado_108154" data-name="Trazado 108154" d="M302.821,462.385l.033-6.389-11.939-.146-.165,9.359.744.06c3.306.225,16.795.9,19.011.258C312.974,464.8,302.821,462.385,302.821,462.385Z" transform="translate(-252.101 -253.004)" fill="#455a64"/>
        <path id="Trazado_108155" data-name="Trazado 108155" d="M290.5,469.57h.2l.6.046,2.17.119c1.839.093,4.381.179,7.183.218s5.345,0,7.183,0l2.176-.06H300.66c-2.8,0-5.338-.112-7.176-.172l-2.176-.083h-.589Z" transform="translate(-252.017 -257.649)" fill="#263238"/>
        <path id="Trazado_108156" data-name="Trazado 108156" d="M314.865,469.423a5.288,5.288,0,0,1,.413-1.032,5.076,5.076,0,0,1,.754-.82,1.57,1.57,0,0,0-.873.744A1.6,1.6,0,0,0,314.865,469.423Z" transform="translate(-260.263 -256.973)" fill="#263238"/>
        <path id="Trazado_108157" data-name="Trazado 108157" d="M309.566,467.091a1.542,1.542,0,0,0,.377-.456c.172-.271.3-.509.265-.536s-.2.185-.384.456S309.527,467.065,309.566,467.091Z" transform="translate(-258.469 -256.473)" fill="#263238"/>
        <path id="Trazado_108158" data-name="Trazado 108158" d="M308.108,466.46c0,.033.218-.093.423-.271s.357-.357.331-.39-.218.1-.423.278S308.082,466.433,308.108,466.46Z" transform="translate(-257.978 -256.371)" fill="#263238"/>
        <path id="Trazado_108159" data-name="Trazado 108159" d="M307.21,465.047a1.427,1.427,0,0,0,.622.093,1.464,1.464,0,0,0,.661-.06,1.415,1.415,0,0,0-.661-.083,1.458,1.458,0,0,0-.622.05Z" transform="translate(-257.674 -256.096)" fill="#263238"/>
        <path id="Trazado_108160" data-name="Trazado 108160" d="M306.9,463.88a1.323,1.323,0,0,0,.694.212,1.2,1.2,0,0,0,.721-.093,4.082,4.082,0,0,0-.688-.04A3.75,3.75,0,0,0,306.9,463.88Z" transform="translate(-257.569 -255.723)" fill="#263238"/>
        <path id="Trazado_108161" data-name="Trazado 108161" d="M310.2,465.461a2.333,2.333,0,0,0,.767,0,3.966,3.966,0,0,0,.82-.165,2.124,2.124,0,0,0,.47-.192.414.414,0,0,0,.2-.231.3.3,0,0,0-.112-.311,1.416,1.416,0,0,0-1.753.39,1.36,1.36,0,0,0-.258.509.413.413,0,0,0,0,.2,2.149,2.149,0,0,1,.357-.661,1.389,1.389,0,0,1,.661-.413,1.171,1.171,0,0,1,.919.073c.119.093.073.231-.066.311a1.974,1.974,0,0,1-.436.179,5.135,5.135,0,0,1-.794.2A3.788,3.788,0,0,1,310.2,465.461Z" transform="translate(-258.686 -255.902)" fill="#263238"/>
        <path id="Trazado_108162" data-name="Trazado 108162" d="M309.979,465.322a.744.744,0,0,0,.093-.536,1.23,1.23,0,0,0-.2-.562.78.78,0,0,0-.661-.4.318.318,0,0,0-.248.357.887.887,0,0,0,.126.344,2.36,2.36,0,0,0,.357.469,1.151,1.151,0,0,0,.436.317,4.009,4.009,0,0,1-.357-.39,2.447,2.447,0,0,1-.317-.463c-.106-.165-.172-.456,0-.489s.39.179.5.331a1.282,1.282,0,0,1,.212.5A3.237,3.237,0,0,1,309.979,465.322Z" transform="translate(-258.267 -255.702)" fill="#263238"/>
        <path id="Trazado_108163" data-name="Trazado 108163" d="M290.94,464.574s.337,0,.879.04a3.75,3.75,0,0,1,3.1,2.54c.179.516.192.86.218.86a.775.775,0,0,0,0-.248,2.836,2.836,0,0,0-.119-.661,3.631,3.631,0,0,0-3.188-2.606,3.509,3.509,0,0,0-.661,0,.661.661,0,0,0-.231.076Z" transform="translate(-252.167 -255.928)" fill="#263238"/>
        <path id="Trazado_108164" data-name="Trazado 108164" d="M292.82,457.12a19.943,19.943,0,0,0-.139,2.454,20.921,20.921,0,0,0,0,2.461,21.052,21.052,0,0,0,.132-2.461A21.785,21.785,0,0,0,292.82,457.12Z" transform="translate(-252.743 -253.434)" fill="#263238"/>
        <path id="Trazado_108165" data-name="Trazado 108165" d="M299.61,468.185a7.126,7.126,0,0,0,1.747.192,6.47,6.47,0,0,0,1.752-.119c0-.04-.787,0-1.747,0S299.617,468.138,299.61,468.185Z" transform="translate(-255.102 -257.176)" fill="#263238"/>
        <path id="Trazado_108166" data-name="Trazado 108166" d="M296.067,468.137c-.033,0,.06.165.139.344s.119.337.159.337.066-.185,0-.4S296.093,468.105,296.067,468.137Z" transform="translate(-253.899 -257.162)" fill="#263238"/>
        <path id="Trazado_108167" data-name="Trazado 108167" d="M294.75,466.457a.744.744,0,0,0,.172.278c.126.126.248.2.271.179s-.046-.152-.165-.278S294.783,466.423,294.75,466.457Z" transform="translate(-253.456 -256.593)" fill="#263238"/>
        <path id="Trazado_108168" data-name="Trazado 108168" d="M292.85,465.636c0,.04.165.04.344.106s.3.159.331.132-.066-.192-.284-.271S292.837,465.6,292.85,465.636Z" transform="translate(-252.813 -256.295)" fill="#263238"/>
        <path id="Trazado_108169" data-name="Trazado 108169" d="M291.49,465.285c0,.033.053.1.152.139s.192.04.2,0-.053-.1-.145-.139S291.51,465.245,291.49,465.285Z" transform="translate(-252.352 -256.188)" fill="#263238"/>
        <path id="Trazado_108170" data-name="Trazado 108170" d="M291.129,280.76l-4.59,119.927-18.639.39L271,297.17,250.04,401.87H232.32L255.146,281Z" transform="translate(-232.32 -193.727)" fill="#263238"/>
        <path id="Trazado_108171" data-name="Trazado 108171" d="M294.924,287.36a11.768,11.768,0,0,1-.212,1.984c-.172,1.21-.436,2.893-.744,4.729a20.364,20.364,0,0,1-.529,2.606,3.72,3.72,0,0,1-1.217,1.833,2.856,2.856,0,0,1-1.356.6,1.09,1.09,0,0,1-.542,0,3.554,3.554,0,0,0,1.747-.774,3.612,3.612,0,0,0,1.075-1.747,23.3,23.3,0,0,0,.5-2.562c.311-1.846.608-3.512.84-4.716a12.566,12.566,0,0,1,.443-1.952Z" transform="translate(-251.957 -195.961)" fill="#455a64"/>
        <path id="Trazado_108172" data-name="Trazado 108172" d="M291.3,288.063a1.087,1.087,0,0,0,0,.536.662.662,0,0,0,.311.4.562.562,0,0,0,.734-.661.616.616,0,0,0-.357-.357c-.3-.132-.516,0-.536-.046s.172-.271.608-.179a.84.84,0,0,1,.569.476.849.849,0,0,1-1.164,1.025.833.833,0,0,1-.4-.628C291.021,288.2,291.285,288.023,291.3,288.063Z" transform="translate(-252.207 -196.089)" fill="#455a64"/>
        <path id="Trazado_108173" data-name="Trazado 108173" d="M276.158,289.127a3.512,3.512,0,0,1,.357-3.306c.083.04-.185.744-.271,1.653A14.728,14.728,0,0,1,276.158,289.127Z" transform="translate(-247.075 -195.44)" fill="#455a64"/>
        <path id="Trazado_108174" data-name="Trazado 108174" d="M279.522,288.822a2.893,2.893,0,0,1-.271-1.76,2.964,2.964,0,0,1,.516-1.713c.083,0-.126.787-.185,1.736a16.492,16.492,0,0,1-.06,1.737Z" transform="translate(-248.197 -195.281)" fill="#455a64"/>
        <path id="Trazado_108175" data-name="Trazado 108175" d="M308.8,289.495a10.216,10.216,0,0,1,.106-1.8,11.115,11.115,0,0,1,.083-1.806,3.366,3.366,0,0,1,.248,1.818A3.419,3.419,0,0,1,308.8,289.495Z" transform="translate(-258.21 -195.463)" fill="#455a64"/>
        <path id="Trazado_108176" data-name="Trazado 108176" d="M312.471,289.257c-.093-.04.2-.827.265-1.833s-.106-1.819,0-1.846a3.89,3.89,0,0,1-.248,3.677Z" transform="translate(-259.449 -195.358)" fill="#455a64"/>
        <path id="Trazado_108177" data-name="Trazado 108177" d="M281.036,189.908l11.509-.919c.073-1.323,0-6.535,0-6.535s4.789-.744,4.849-5.53-.774-15.775-.774-15.775h0a16.635,16.635,0,0,0-16.761,2.084l-.708.549Z" transform="translate(-248.175 -152.767)" fill="#ffbe9d"/>
        <path id="Trazado_108178" data-name="Trazado 108178" d="M296.147,193.093a11.076,11.076,0,0,1-6.237-1.773s1.475,3.446,6.251,3.016Z" transform="translate(-251.818 -163.446)" fill="#eb996e"/>
        <path id="Trazado_108179" data-name="Trazado 108179" d="M301.98,172.871a.661.661,0,1,1-.226-.455A.661.661,0,0,1,301.98,172.871Z" transform="translate(-255.446 -156.991)" fill="#263238"/>
        <path id="Trazado_108180" data-name="Trazado 108180" d="M302.733,171.631c-.083.083-.6-.3-1.323-.3s-1.276.37-1.356.284.046-.2.284-.377a1.918,1.918,0,0,1,1.085-.331,1.8,1.8,0,0,1,1.065.344C302.7,171.446,302.776,171.631,302.733,171.631Z" transform="translate(-255.244 -156.536)" fill="#263238"/>
        <path id="Trazado_108181" data-name="Trazado 108181" d="M290.749,173.135a.661.661,0,1,1-.226-.455.661.661,0,0,1,.226.455Z" transform="translate(-251.645 -157.08)" fill="#263238"/>
        <path id="Trazado_108182" data-name="Trazado 108182" d="M291.807,171.864c-.083.093-.6-.291-1.323-.291s-1.276.37-1.356.278.046-.2.284-.37a1.818,1.818,0,0,1,1.085-.331,1.8,1.8,0,0,1,1.065.344C291.774,171.666,291.853,171.824,291.807,171.864Z" transform="translate(-251.545 -156.617)" fill="#263238"/>
        <path id="Trazado_108183" data-name="Trazado 108183" d="M297.058,177.345a5.063,5.063,0,0,1,1.19-.218c.192,0,.37-.053.4-.185a.933.933,0,0,0-.126-.555q-.258-.661-.555-1.428a24.531,24.531,0,0,1-1.24-3.737,24.95,24.95,0,0,1,1.548,3.631c.185.5.357.979.529,1.435a1.09,1.09,0,0,1,.093.744.476.476,0,0,1-.311.278,1.182,1.182,0,0,1-.317.046,4.853,4.853,0,0,1-1.2-.007Z" transform="translate(-254.124 -156.641)" fill="#263238"/>
        <path id="Trazado_108184" data-name="Trazado 108184" d="M293.921,181.25c.119,0,.119.787.8,1.356s1.534.483,1.541.589-.192.159-.549.165a1.984,1.984,0,0,1-1.283-.443,1.779,1.779,0,0,1-.661-1.144C293.749,181.442,293.835,181.243,293.921,181.25Z" transform="translate(-253.123 -160.037)" fill="#263238"/>
        <path id="Trazado_108185" data-name="Trazado 108185" d="M291.762,167.6c-.073.2-.807.1-1.666.2s-1.561.344-1.68.159c-.046-.083.073-.271.35-.463a2.93,2.93,0,0,1,2.553-.284C291.636,167.338,291.795,167.5,291.762,167.6Z" transform="translate(-251.308 -155.226)" fill="#263238"/>
        <path id="Trazado_108186" data-name="Trazado 108186" d="M302.415,168.426c-.126.165-.661,0-1.24,0s-1.124.112-1.24-.066,0-.248.258-.413a1.694,1.694,0,0,1,1.012-.271,1.766,1.766,0,0,1,.992.331C302.4,168.167,302.475,168.34,302.415,168.426Z" transform="translate(-255.195 -155.441)" fill="#263238"/>
        <path id="Trazado_108187" data-name="Trazado 108187" d="M278.37,173.264c-.083-.033-3.306-.972-3.182,2.3a2.462,2.462,0,0,0,3.373,2.4C278.568,177.866,278.37,173.264,278.37,173.264Z" transform="translate(-246.832 -157.283)" fill="#ffbe9d"/>
        <path id="Trazado_108188" data-name="Trazado 108188" d="M278,177.291a1.051,1.051,0,0,1-.145.083.569.569,0,0,1-.43,0,1.405,1.405,0,0,1-.661-1.24,1.864,1.864,0,0,1,.132-.827.661.661,0,0,1,.413-.45.3.3,0,0,1,.344.145c.046.093,0,.159.046.165s.066-.06.04-.192a.391.391,0,0,0-.139-.205.457.457,0,0,0-.317-.073.794.794,0,0,0-.579.529,1.89,1.89,0,0,0-.172.919,1.468,1.468,0,0,0,.88,1.382.608.608,0,0,0,.516-.1C278,177.371,278.009,177.3,278,177.291Z" transform="translate(-247.285 -157.817)" fill="#eb996e"/>
        <path id="Trazado_108189" data-name="Trazado 108189" d="M296.513,153.426a5.06,5.06,0,0,0-7.858-1.514,4.955,4.955,0,0,0-8.143-1.058c-.919,1.045-1.4,2.454-2.467,3.306-.932.76-2.19,1.012-3.129,1.76a3.611,3.611,0,0,0,1.289,6.3,3.885,3.885,0,0,0,1.912,5.29l.476-.2a6.813,6.813,0,0,0,.992-7.514,1.482,1.482,0,0,0,.172,0,3.81,3.81,0,0,0,4.974-1.137,4.239,4.239,0,0,0,4.564.192,1.746,1.746,0,0,1,.661-.311,1.628,1.628,0,0,1,.853.258,4.021,4.021,0,0,0,2.322.463,2.223,2.223,0,0,0,1.736-1.24h.06a2.562,2.562,0,0,0,1.912-1.852,3.8,3.8,0,0,0-.324-2.738Z" transform="translate(-246.283 -149.178)" fill="#263238"/>
        <path id="Trazado_108190" data-name="Trazado 108190" d="M295.073,226.3l.423-21.563c-3.83-3.763-5.874-4.888-11.205-5.517l-1.449-.165-.456-3.554-13.07-.744.661,4.22h0a31.679,31.679,0,0,0-5.074.972c-5.08.972-8.738,4.669-9.754,8.09-.84,2.81-6.2,23.654-6.2,23.654l-1.091,6.29,12-4.352V254.8h36.38C296.363,250.834,295.073,226.3,295.073,226.3Z" transform="translate(-237.58 -164.609)" fill="#d9a171"/>
        <g id="Grupo_59710" data-name="Grupo 59710" transform="translate(10.274 30.144)" opacity="0.2">
          <path id="Trazado_108191" data-name="Trazado 108191" d="M295.073,226.3l.423-21.563c-3.83-3.763-5.874-4.888-11.205-5.517l-1.449-.165-.456-3.554-13.07-.744.661,4.22h0a31.679,31.679,0,0,0-5.074.972c-5.08.972-8.738,4.669-9.754,8.09-.84,2.81-6.2,23.654-6.2,23.654l-1.091,6.29,12-4.352V254.8h36.38C296.363,250.834,295.073,226.3,295.073,226.3Z" transform="translate(-247.854 -194.753)"/>
        </g>
        <path id="Trazado_108192" data-name="Trazado 108192" d="M253.31,249.747l17.945-2.547,3.413,6.112-16.681,7.522a7.273,7.273,0,0,1-2.963.661h0a7.2,7.2,0,0,1-6.661-4.5l-.542-1.323Z" transform="translate(-237.568 -182.365)" fill="#d9a171"/>
        <g id="Grupo_59711" data-name="Grupo 59711" transform="translate(10.253 64.835)" opacity="0.2">
          <path id="Trazado_108193" data-name="Trazado 108193" d="M253.31,249.747l17.945-2.547,3.413,6.112-16.681,7.522a7.273,7.273,0,0,1-2.963.661h0a7.2,7.2,0,0,1-6.661-4.5l-.542-1.323Z" transform="translate(-247.821 -247.2)"/>
        </g>
        <path id="Trazado_108194" data-name="Trazado 108194" d="M310.148,203.49a13.23,13.23,0,0,1,7.2,6.613c1.389,3.188,3.433,18.52,3.433,18.52l2.573,4.968a8.342,8.342,0,0,1,.939,3.856v.76a8.367,8.367,0,0,1-1.879,5.29h0a8.368,8.368,0,0,1-5.755,3.058c-2.573.231-5.682.331-6.343-.423a31.478,31.478,0,0,1-2.93-4.941l7.494-3.968-3.228-5.951Z" transform="translate(-257.735 -167.566)" fill="#d9a171"/>
        <g id="Grupo_59712" data-name="Grupo 59712" transform="translate(49.654 35.924)" opacity="0.2">
          <path id="Trazado_108195" data-name="Trazado 108195" d="M310.148,203.49a13.23,13.23,0,0,1,7.2,6.613c1.389,3.188,3.433,18.52,3.433,18.52l2.573,4.968a8.342,8.342,0,0,1,.939,3.856v.76a8.367,8.367,0,0,1-1.879,5.29h0a8.368,8.368,0,0,1-5.755,3.058c-2.573.231-5.682.331-6.343-.423a31.478,31.478,0,0,1-2.93-4.941l7.494-3.968-3.228-5.951Z" transform="translate(-307.389 -203.49)"/>
        </g>
        <path id="Trazado_108196" data-name="Trazado 108196" d="M261.776,260.225a2.4,2.4,0,0,1,.291-.165l.86-.413,3.224-1.509,10.994-5.021-.073.231-2.1-3.77-1.323-2.342.159.083-13.149,1.29-3.9.35-1.058.083a1.211,1.211,0,0,1-.37,0,2.112,2.112,0,0,1,.364-.066l1.051-.132,3.9-.45,13.147-1.4h.106l.053.093,1.323,2.342,2.1,3.77.083.152-.159.073-11.04,4.915-3.261,1.416-.886.37A1.815,1.815,0,0,1,261.776,260.225Z" transform="translate(-240.107 -182.297)" fill="#263238"/>
        <path id="Trazado_108197" data-name="Trazado 108197" d="M269.815,241.037c-.093,0-.165-3.208-.165-7.163s.073-7.163.165-7.163.165,3.208.165,7.163S269.881,241.037,269.815,241.037Z" transform="translate(-244.958 -175.427)" fill="#263238"/>
        <path id="Trazado_108198" data-name="Trazado 108198" d="M314.36,255.565a2.7,2.7,0,0,1,.542-.083,5.078,5.078,0,0,1,1.515.083,1.786,1.786,0,0,1,.946.542,2.4,2.4,0,0,1,.5,1.137,2.645,2.645,0,0,1-.119,1.369,2.554,2.554,0,0,1-.909,1.164,6.748,6.748,0,0,1-2.6.926,11.975,11.975,0,0,1-2.232.218,4.022,4.022,0,0,1-2.018-.35,10.794,10.794,0,0,0,2.018.119,13.226,13.226,0,0,0,2.17-.284,6.709,6.709,0,0,0,2.467-.893,2.269,2.269,0,0,0,.919-2.216,2.232,2.232,0,0,0-.4-1.018,1.621,1.621,0,0,0-.8-.489,6.193,6.193,0,0,0-1.455-.185A2.358,2.358,0,0,1,314.36,255.565Z" transform="translate(-258.614 -185.16)" fill="#263238"/>
        <path id="Trazado_108199" data-name="Trazado 108199" d="M317.321,266.949A3.737,3.737,0,0,1,316,267.1a8.136,8.136,0,0,1-3.1-.509,6.681,6.681,0,0,1-1.542-.827,3.613,3.613,0,0,1-.952-1.075,2.84,2.84,0,0,1-.463-1.223c.053,0,.225.45.661,1.1a3.87,3.87,0,0,0,.939.959,7.047,7.047,0,0,0,1.482.754,9.442,9.442,0,0,0,2.983.589A9.27,9.27,0,0,1,317.321,266.949Z" transform="translate(-258.598 -187.872)" fill="#263238"/>
        <path id="Trazado_108200" data-name="Trazado 108200" d="M323.141,245.229a6.771,6.771,0,0,1-.886,1.065c-.579.628-1.389,1.488-2.3,2.421s-1.747,1.773-2.368,2.362a5.882,5.882,0,0,1-1.045.909,5.739,5.739,0,0,1,.88-1.075c.579-.661,1.389-1.494,2.3-2.428a30.836,30.836,0,0,1,3.426-3.261Z" transform="translate(-260.833 -181.696)" fill="#263238"/>
        <path id="Trazado_108201" data-name="Trazado 108201" d="M314.061,235.976a50.851,50.851,0,0,1,0-8.195,50.865,50.865,0,0,1,0,8.195Z" transform="translate(-259.931 -175.79)" fill="#263238"/>
        <path id="Trazado_108202" data-name="Trazado 108202" d="M299.731,207.6c0,.093-8.077.172-18.038.172s-18.038-.083-18.038-.172,8.077-.172,18.038-.172S299.731,207.5,299.731,207.6Z" transform="translate(-242.929 -168.9)" fill="#fafafa"/>
        <path id="Trazado_108203" data-name="Trazado 108203" d="M293.842,201.32a56.741,56.741,0,0,1-6.224.139,54.592,54.592,0,0,1-6.218-.212,57.677,57.677,0,0,1,6.218-.132,57.665,57.665,0,0,1,6.224.2Z" transform="translate(-248.936 -166.751)" fill="#263238"/>
        <path id="Trazado_108204" data-name="Trazado 108204" d="M301.71,218.619c0,.093-9.8.172-21.9.172s-21.9-.083-21.9-.172,9.809-.179,21.9-.179S301.71,218.519,301.71,218.619Z" transform="translate(-240.981 -172.628)" fill="#fafafa"/>
        <path id="Trazado_108205" data-name="Trazado 108205" d="M301.946,229.912c0,.1-10.58.172-23.673.172s-23.673-.073-23.673-.172,10.58-.172,23.673-.172S301.946,229.839,301.946,229.912Z" transform="translate(-239.863 -176.454)" fill="#fafafa"/>
        <path id="Trazado_108206" data-name="Trazado 108206" d="M301.885,240.964c0,.093-11.185.172-24.983.172s-24.983-.083-24.983-.172,11.185-.172,24.983-.172S301.885,240.863,301.885,240.964Z" transform="translate(-238.956 -180.195)" fill="#fafafa"/>
        <path id="Trazado_108207" data-name="Trazado 108207" d="M304.131,258.912c0,.093-12.429.172-27.781.172s-27.781-.083-27.781-.172,12.429-.172,27.781-.172S304.131,258.806,304.131,258.912Z" transform="translate(-237.822 -186.271)" fill="#fafafa"/>
        <path id="Trazado_108208" data-name="Trazado 108208" d="M301.771,271.482c0,.093-8.2.172-18.315.172s-18.315-.083-18.315-.172,8.2-.172,18.315-.172S301.771,271.384,301.771,271.482Z" transform="translate(-243.431 -190.527)" fill="#fafafa"/>
        <path id="Trazado_108209" data-name="Trazado 108209" d="M299.5,241.693l-.39-.291a8.956,8.956,0,0,0-7.064-1.633h0a12.3,12.3,0,0,0-5.5,2.58l-3.076,2.533,3.267,5.86,2.232-3.115s2.077,2.818,2.448,2.52a4.775,4.775,0,0,0,.813-1.184l-1.481-2.077,3.558.744,5.193-2.375-2.232-2.818,2.232.744Z" transform="translate(-249.637 -179.794)" fill="#ffbe9d"/>
        <path id="Trazado_108210" data-name="Trazado 108210" d="M293.563,240.6,282.14,254.427l.879.946,18.534-2.824,9.194-13.831-.853-.767Z" transform="translate(-249.187 -179.233)" fill="#263238"/>
        <path id="Trazado_108211" data-name="Trazado 108211" d="M308.665,247.47h0a1.76,1.76,0,0,0-1.647,1.124,3.856,3.856,0,0,1-1.124,1.793,4,4,0,0,1-3,.443c-.747-.364-3.744-3.062-4.266-2.765s-.972.972-.45,1.571,3.306,2.4,2.772,3-6.37-2.038-7.274-1.806-1.422.78-.9,1.144,4.491,1.859,4.716,2.381c0,0-5.993-1.57-6.218-1.2s-.6.972,0,1.2,5.768,1.571,6.218,1.8a10.884,10.884,0,0,0,2.309.661,24.776,24.776,0,0,1,2.414.761,5.238,5.238,0,0,0,3.724-.1l.608-.248a2.381,2.381,0,0,0,1.475-2.348l-.119-2.038.661-1.687Z" transform="translate(-252.171 -182.456)" fill="#ffbe9d"/>
        <path id="Trazado_108212" data-name="Trazado 108212" d="M311.261,239.3a1.441,1.441,0,0,1-.344.083l-.992.172-3.651.589-5.424.827-3.2.483a6.152,6.152,0,0,0-3.1,1.256,20.352,20.352,0,0,0-2.256,2.6c-.708.873-1.382,1.72-2.031,2.527l-3.444,4.268-2.348,2.871-.661.767a1.539,1.539,0,0,1-.248.248,2.166,2.166,0,0,1,.192-.291l.6-.807,2.262-2.924,3.393-4.319,1.984-2.54a20.592,20.592,0,0,1,2.3-2.645,6.462,6.462,0,0,1,3.261-1.323l3.208-.463,5.437-.76,3.671-.483,1-.112a1.178,1.178,0,0,1,.392-.023Z" transform="translate(-249.667 -179.687)" fill="#455a64"/>
        <path id="Trazado_108213" data-name="Trazado 108213" d="M312.015,243.88a1.666,1.666,0,0,0-.516.413.536.536,0,0,0,0,.622.579.579,0,0,0,.767,0,.727.727,0,0,0,.291-.443.529.529,0,0,0-.152-.5.413.413,0,0,0-.5,0" transform="translate(-259.093 -181.241)" fill="#fafafa"/>
      </g>
      <g id="freepik--speech-bubble--inject-122" transform="translate(0 79.959)">
        <path id="Trazado_108214" data-name="Trazado 108214" d="M213.766,181.427l-3.36-5.951a15.875,15.875,0,1,0-3.8,4.226h0Z" transform="translate(-181.014 -151.277)" fill="#cdb9f8"/>
        <path id="Trazado_108215" data-name="Trazado 108215" d="M196.727,171.285a2.1,2.1,0,1,1,.516,1.639,2.092,2.092,0,0,1-.516-1.639Zm2.957,0c0-.909-.35-1.323-.873-1.323s-.873.45-.873,1.323.357,1.323.873,1.323.873-.41.873-1.323Zm4.114-2.243h1.418l-5.715,8.487h-1.422Zm-1.375,6.247a2.1,2.1,0,1,1,.511,1.631,2.089,2.089,0,0,1-.511-1.631Zm2.943,0c0-.9-.35-1.323-.873-1.323s-.873.436-.873,1.323.357,1.323.873,1.323S205.366,176.185,205.366,175.289Z" transform="translate(-186.332 -157.273)" fill="#fff"/>
      </g>
    </g>
  </g>
</svg>
