<svg xmlns="http://www.w3.org/2000/svg" xmlns:xlink="http://www.w3.org/1999/xlink" width="113" height="113" viewBox="0 0 113 113">
  <defs>
    <filter id="Trazado_896985" x="0" y="0" width="113" height="113" filterUnits="userSpaceOnUse">
      <feOffset dy="3" input="SourceAlpha"/>
      <feGaussianBlur stdDeviation="3" result="blur"/>
      <feFlood flood-opacity="0.161"/>
      <feComposite operator="in" in2="blur"/>
      <feComposite in="SourceGraphic"/>
    </filter>
  </defs>
  <g id="Grupo_1118485" data-name="Grupo 1118485" transform="translate(-481 -20193)">
    <g id="Grupo_1118481" data-name="Grupo 1118481" transform="translate(-100 384)">
      <g id="Grupo_1118452" data-name="Grupo 1118452" transform="translate(-10 16963)">
        <g id="Grupo_1118440" data-name="Grupo 1118440" transform="translate(351.5 683)">
          <g id="Grupo_1111318" data-name="Grupo 1111318" transform="translate(-92.281 -1683)">
            <g id="Grupo_1109826" data-name="Grupo 1109826" transform="translate(340.781 3852)">
              <g id="Grupo_1098742" data-name="Grupo 1098742">
                <g transform="matrix(1, 0, 0, 1, -9, -6)" filter="url(#Trazado_896985)">
                  <g id="Trazado_896985-2" data-name="Trazado 896985" transform="translate(9 6)" fill="#e2dacc" opacity="0.859">
                    <path d="M 47.49993515014648 93.5 C 41.28932189941406 93.5 35.26528167724609 92.28397369384766 29.59514808654785 89.88571929931641 C 24.1176815032959 87.56894683837891 19.1981086730957 84.25197601318359 14.97306823730469 80.02693176269531 C 10.74802875518799 75.80189514160156 7.431055068969727 70.88231658935547 5.11428165435791 65.40485382080078 C 2.716028451919556 59.73471832275391 1.500001788139343 53.71067810058594 1.500001788139343 47.50006484985352 C 1.500001788139343 41.28932189941406 2.716028451919556 35.26528167724609 5.11428165435791 29.59514617919922 C 7.431055068969727 24.11767959594727 10.74802875518799 19.19810676574707 14.97306823730469 14.97306632995605 C 19.1981086730957 10.74802684783936 24.1176815032959 7.431053161621094 29.59514808654785 5.114280223846436 C 35.26528167724609 2.716026782989502 41.28932189941406 1.5 47.49993515014648 1.5 C 53.71054840087891 1.5 59.73458862304688 2.716026782989502 65.40472412109375 5.114280223846436 C 70.88218688964844 7.431053161621094 75.80176544189453 10.74802684783936 80.02680206298828 14.97306632995605 C 84.25183868408203 19.19810676574707 87.56881713867188 24.11767959594727 89.88558959960938 29.59514617919922 C 92.28384399414062 35.26528167724609 93.49987030029297 41.28932189941406 93.49987030029297 47.49993515014648 C 93.49987030029297 53.71067810058594 92.28384399414062 59.73471832275391 89.88558959960938 65.40485382080078 C 87.56881713867188 70.88231658935547 84.25183868408203 75.80189514160156 80.02680206298828 80.02693176269531 C 75.80176544189453 84.25197601318359 70.88218688964844 87.56894683837891 65.40472412109375 89.88571929931641 C 59.73458862304688 92.28397369384766 53.71054840087891 93.5 47.49993515014648 93.5 Z" stroke="none"/>
                    <path d="M 47.49993515014648 3 C 41.49116516113281 3 35.66371917724609 4.176155090332031 30.17947387695312 6.495796203613281 C 24.88081359863281 8.7369384765625 20.12149047851562 11.94596862792969 16.03372192382812 16.03372192382812 C 11.94596862792969 20.12149047851562 8.7369384765625 24.88081359863281 6.495796203613281 30.17947387695312 C 4.1761474609375 35.66372299194336 3 41.49116897583008 3 47.50006103515625 C 3 53.50883102416992 4.1761474609375 59.33627700805664 6.495796203613281 64.82052612304688 C 8.7369384765625 70.11918640136719 11.94596862792969 74.87850952148438 16.03372192382812 78.96627807617188 C 20.12149047851562 83.05403137207031 24.88081359863281 86.2630615234375 30.17947387695312 88.50419616699219 C 35.66371917724609 90.82384490966797 41.49116516113281 92 47.49993515014648 92 C 53.50870513916016 92 59.33615112304688 90.82384490966797 64.82039642333984 88.50419616699219 C 70.11905670166016 86.2630615234375 74.87837982177734 83.05403137207031 78.96614837646484 78.96627807617188 C 83.05390167236328 74.87850952148438 86.26293182373047 70.11918640136719 88.50407409667969 64.82052612304688 C 90.82372283935547 59.33627700805664 91.99987030029297 53.50883102416992 91.99987030029297 47.49993896484375 C 91.99987030029297 41.49116897583008 90.82372283935547 35.66372299194336 88.50407409667969 30.17947387695312 C 86.26293182373047 24.88081359863281 83.05390167236328 20.12149047851562 78.96614837646484 16.03372192382812 C 74.87837982177734 11.94596862792969 70.11905670166016 8.7369384765625 64.82039642333984 6.495796203613281 C 59.33615112304688 4.176155090332031 53.50870513916016 3 47.49993515014648 3 M 47.49993515014648 0 C 73.73342895507812 0 94.99987030029297 21.26644897460938 94.99987030029297 47.49993896484375 L 94.99987030029297 47.50006103515625 C 94.99987030029297 73.73355102539062 73.73342895507812 95 47.49993515014648 95 C 21.26644134521484 95 0 73.73355102539062 0 47.50006103515625 L 0 47.49993896484375 C 0 21.26644897460938 21.26644134521484 0 47.49993515014648 0 Z" stroke="none" fill="#fff"/>
                  </g>
                </g>
                <g id="Rect치ngulo_400907" data-name="Rect치ngulo 400907" transform="translate(0 0)" fill="none" stroke="#fff" stroke-width="3">
                  <rect width="95" height="95" rx="47.5" stroke="none"/>
                  <rect x="1.5" y="1.5" width="92" height="92" rx="46" fill="none"/>
                </g>
              </g>
            </g>
          </g>
        </g>
      </g>
    </g>
    <g id="estado-financiero" transform="translate(504.995 20213.5)">
      <path id="Trazado_911621" data-name="Trazado 911621" d="M100.025,11h28.138l6.1,6.1V55.6H100.025Z" transform="translate(-84.418 -5.332)" fill="#cfe8ff" fill-rule="evenodd"/>
      <path id="Trazado_911622" data-name="Trazado 911622" d="M395.143,53.878l1.322,1.322V93.69h-1.322Z" transform="translate(-346.615 -43.426)" fill="#b6dbff" fill-rule="evenodd"/>
      <path id="Trazado_911623" data-name="Trazado 911623" d="M11.045,344.19H46.3v17.49H11.045Z" transform="translate(-5.364 -301.353)" fill="#2dd62d"/>
      <path id="Trazado_911624" data-name="Trazado 911624" d="M61.627,360.6a1.769,1.769,0,0,0,1.562,2.186v2.91h-30.4v-2.91a1.769,1.769,0,0,0,1.562-2.186Z" transform="translate(-24.682 -315.936)" fill="#29b933" fill-rule="evenodd"/>
      <path id="Trazado_911625" data-name="Trazado 911625" d="M34.975,365.933H61a2.186,2.186,0,0,0,2.186,2.186v8.266A2.186,2.186,0,0,0,61,378.572H34.975a2.186,2.186,0,0,0-2.186-2.186v-8.266A2.186,2.186,0,0,0,34.975,365.933Z" transform="translate(-24.682 -320.67)" fill="#96ff96" fill-rule="evenodd"/>
      <circle id="Elipse_13528" data-name="Elipse 13528" cx="6.298" cy="6.298" r="6.298" transform="translate(16.56 57.429) rotate(-85.927)" fill="#29b933"/>
      <path id="Trazado_911626" data-name="Trazado 911626" d="M118.98,366.123a5.925,5.925,0,1,1-6.286,5.914A6.3,6.3,0,0,1,118.98,366.123Z" transform="translate(-95.673 -320.839)" fill="#2dd62d" fill-rule="evenodd"/>
      <path id="Trazado_911627" data-name="Trazado 911627" d="M319.724,344.19h.817v17.49h-.817Z" transform="translate(-279.609 -301.353)" fill="#29b933"/>
      <path id="Trazado_911628" data-name="Trazado 911628" d="M352.266,11l6.1,6.1h-6.1Z" transform="translate(-308.521 -5.332)" fill="#4eb1fc" fill-rule="evenodd"/>
      <path id="Trazado_911629" data-name="Trazado 911629" d="M145.557,174.511h4.059v15.256h-4.059Z" transform="translate(-124.87 -150.602)" fill="#4eb1fc"/>
      <path id="Trazado_911630" data-name="Trazado 911630" d="M81.832,238.53h4.059v8.115H81.832Z" transform="translate(-68.254 -207.479)" fill="#fdc72e"/>
      <path id="Trazado_911631" data-name="Trazado 911631" d="M209.282,185.03h4.059v14.083h-4.059Z" transform="translate(-181.487 -159.947)" fill="#2dd62d"/>
      <path id="Trazado_911632" data-name="Trazado 911632" d="M273.007,135.8h4.059v19.575h-4.059Z" transform="translate(-238.103 -116.205)" fill="#f89b00"/>
      <path id="Trazado_911633" data-name="Trazado 911633" d="M18.106,270.182h4.059v4.584H18.106Z" transform="translate(-11.637 -235.6)" fill="#fb545c"/>
      <path id="Trazado_911634" data-name="Trazado 911634" d="M298.6,135.8h1.2v19.575h-1.2Z" transform="translate(-260.842 -116.205)" fill="#e68207"/>
      <path id="Trazado_911635" data-name="Trazado 911635" d="M234.875,185.03h1.2v14.083h-1.2Z" transform="translate(-204.225 -159.947)" fill="#29b933"/>
      <path id="Trazado_911636" data-name="Trazado 911636" d="M171.15,174.511h1.2v15.256h-1.2Z" transform="translate(-147.609 -150.602)" fill="#2a92fa"/>
      <path id="Trazado_911637" data-name="Trazado 911637" d="M107.424,238.53h1.2v8.115h-1.2Z" transform="translate(-90.991 -207.479)" fill="#f9ac00"/>
      <path id="Trazado_911638" data-name="Trazado 911638" d="M43.7,270.182h1.2v4.584H43.7Z" transform="translate(-34.374 -235.6)" fill="#e8333c"/>
      <g id="Grupo_1118483" data-name="Grupo 1118483" transform="translate(39.364 31.361)">
        <path id="Trazado_911639" data-name="Trazado 911639" d="M324.886,306.736c3.973,1.566,7.356,7.152,8.582,11.908,2.057,7.977-2.508,9.632-9.992,9.763-7.484-.131-12.049-1.785-9.992-9.763,1.226-4.756,4.609-10.341,8.582-11.908h2.819Z" transform="translate(-312.991 -299.438)" fill="#d19458" fill-rule="evenodd"/>
        <path id="Trazado_911640" data-name="Trazado 911640" d="M322.259,328.37c-6.752-.3-10.717-2.191-8.775-9.726,1.226-4.756,4.609-10.341,8.582-11.908h.385c3.973,1.566,7.356,7.152,8.582,11.908C332.976,326.179,329.011,328.073,322.259,328.37Z" transform="translate(-312.99 -299.438)" fill="#e6b17c" fill-rule="evenodd"/>
        <path id="Trazado_911641" data-name="Trazado 911641" d="M355,249.574l-2.036.006c-4.607-6.309-3.521-8.556-1.381-7.891a3.8,3.8,0,0,1,1.36.807c.6.491,1.072.72,1.581,0,1.108-1.572,2.1-1.572,3.208,0,.509.723.985.494,1.581,0a3.8,3.8,0,0,1,1.36-.807c2.14-.666,3.225,1.581-1.381,7.891l-2.036-.006c-.425,0-.776,0-1.127,0s-.7,0-1.127,0Z" transform="translate(-345.645 -241.314)" fill="#d19458" fill-rule="evenodd"/>
        <path id="Trazado_911642" data-name="Trazado 911642" d="M355,249.575h-.375l-.933,0-.732,0c-4.6-6.306-3.518-8.552-1.379-7.887a3.8,3.8,0,0,1,1.36.806c.6.491,1.072.72,1.581,0,1.108-1.572,2.1-1.572,3.208,0,.509.723.985.494,1.581,0a6.222,6.222,0,0,1,.561-.428c.583.956.022,3.349-3.014,7.508l-.732,0-.933,0H355Z" transform="translate(-345.645 -241.315)" fill="#e6b17c" fill-rule="evenodd"/>
      </g>
      <rect id="Rect치ngulo_406838" data-name="Rect치ngulo 406838" width="10.532" height="2.338" rx="1.169" transform="translate(44.584 38.456)" fill="#96602a"/>
      <g id="Grupo_1118484" data-name="Grupo 1118484" transform="translate(5.008 5)">
        <path id="Trazado_911643" data-name="Trazado 911643" d="M367.167,304.913h-6.216a1.169,1.169,0,0,0,0,2.338h6.216a1.169,1.169,0,0,0,0-2.338Z" transform="translate(-320.206 -271.457)" fill="#ab733a" fill-rule="evenodd"/>
        <path id="Trazado_911644" data-name="Trazado 911644" d="M7.137,38.5h2.72V35.251H7.137ZM5.8,39.166V34.581a.671.671,0,0,1,.672-.669h4.058a.666.666,0,0,1,.667.669v4.584a.666.666,0,0,1-.667.669H6.47a.671.671,0,0,1-.672-.669ZM38.292,20.26h-2.72V38.5h2.72Zm.672-1.338a.666.666,0,0,1,.667.669V39.166a.666.666,0,0,1-.667.669H34.906a.671.671,0,0,1-.672-.669V19.591a.671.671,0,0,1,.672-.669Zm-7.778,6.83h-2.72V38.5h2.72Zm.667-1.338a.671.671,0,0,1,.672.669V39.166a.671.671,0,0,1-.672.669H27.794a.666.666,0,0,1-.667-.669V25.083a.666.666,0,0,1,.667-.669ZM16.968,31.72h-2.72V38.5h2.72Zm.667-1.338a.671.671,0,0,1,.672.669v8.115a.671.671,0,0,1-.672.669H13.576a.669.669,0,0,1-.667-.669V31.051a.669.669,0,0,1,.667-.669Zm6.44-5.8h-2.72V38.5h2.72Zm.672-1.338a.666.666,0,0,1,.667.669V39.166a.666.666,0,0,1-.667.669H20.688a.671.671,0,0,1-.672-.669V23.909a.671.671,0,0,1,.672-.669h4.058ZM8.814,32.873a.67.67,0,0,1-.473-1.143L21.854,18.214a.673.673,0,0,1,.736-.143l6.6,2.8,7.956-7.955-.376.055a.669.669,0,0,1-.193-1.325l2.376-.348a.67.67,0,0,1,.57.189.7.7,0,0,1,.188.57l-.349,2.373A.668.668,0,0,1,38.7,15a.641.641,0,0,1-.1-.007.669.669,0,0,1-.564-.76l.054-.374-8.273,8.274a.672.672,0,0,1-.736.143l-6.6-2.8-13.2,13.2a.663.663,0,0,1-.473.2ZM52.306,52.616a2.983,2.983,0,0,0-1.785-1.061V54.4c.941-.1,1.688-.485,1.833-.991a.981.981,0,0,0-.048-.8Zm-3.123-2.779V46.908a2.519,2.519,0,0,0-1.4.628,1.163,1.163,0,0,0-.349.878,1.257,1.257,0,0,0,.543.9,3.608,3.608,0,0,0,1.209.526Zm4.295,2.132a2.327,2.327,0,0,1,.167,1.819c-.366,1.233-1.742,1.843-3.123,1.959v.914a.669.669,0,1,1-1.338,0v-.953a3.552,3.552,0,0,1-3.22-2.46.671.671,0,0,1,1.306-.3,2.215,2.215,0,0,0,1.914,1.4V51.221a5.471,5.471,0,0,1-2.026-.852,2.607,2.607,0,0,1-1.064-1.857,2.484,2.484,0,0,1,.726-1.9,3.875,3.875,0,0,1,2.365-1.047v-.936a.669.669,0,1,1,1.338,0v.933a5.3,5.3,0,0,1,.822.157,3.082,3.082,0,0,1,2.376,2.164.67.67,0,0,1-1.306.3c-.172-.746-1.053-1.067-1.43-1.171a3.809,3.809,0,0,0-.462-.1v3.263c.108.028.22.056.328.087a4.121,4.121,0,0,1,2.629,1.713Zm5.714-1.234c.753,2.918.613,5-.43,6.375-1.279,1.678-4.026,2.465-8.912,2.552-4.886-.087-7.633-.874-8.912-2.552-1.043-1.372-1.183-3.457-.43-6.375a21.749,21.749,0,0,1,5.074-9.279c.059.005.113.009.172.009h8.192c.059,0,.118,0,.172-.009a21.693,21.693,0,0,1,5.074,9.279Zm-31.811,6.5h8.353a2.87,2.87,0,0,1,2.107-2.108V48.038a2.871,2.871,0,0,1-2.107-2.108H27.38a6.962,6.962,0,0,1,0,11.3Zm-8.144-11.3H10.878a2.863,2.863,0,0,1-2.107,2.108v7.088a2.861,2.861,0,0,1,2.107,2.108h8.359a6.962,6.962,0,0,1,0-11.3Zm9.7,5.652a5.631,5.631,0,1,1-5.633-5.631A5.638,5.638,0,0,1,28.939,51.582ZM40.27,59.661V58.38a5.345,5.345,0,0,1-.4-.46A5.465,5.465,0,0,1,39,56.179a.674.674,0,0,1-.484.207A1.521,1.521,0,0,0,36.991,57.9a.666.666,0,0,1-.667.669H10.287A.669.669,0,0,1,9.62,57.9,1.521,1.521,0,0,0,8.1,56.386a.67.67,0,0,1-.667-.669V47.448a.669.669,0,0,1,.667-.669A1.522,1.522,0,0,0,9.62,45.261a.669.669,0,0,1,.667-.669H36.325a.666.666,0,0,1,.667.669,1.522,1.522,0,0,0,1.521,1.518.666.666,0,0,1,.667.669v3.068l.032-.116a22.6,22.6,0,0,1,1.059-3.123V43.5H6.347V59.661Zm5.951-21.874h7.257c2.193-3.348,2.274-4.939,1.962-5.353-.183-.241-.693-.1-.844-.058a3.072,3.072,0,0,0-1.1.658l-.032.026a1.974,1.974,0,0,1-1.489.6,1.571,1.571,0,0,1-1.064-.733c-.409-.578-.785-.9-1.059-.9s-.65.318-1.054.9a1.592,1.592,0,0,1-1.07.733,1.979,1.979,0,0,1-1.489-.6l-.027-.026a3.121,3.121,0,0,0-1.1-.658c-.156-.047-.667-.184-.849.058-.306.414-.231,2,1.962,5.353ZM44.415,11.1h3.822L44.415,7.285V11.1Zm9.53,29.02a.5.5,0,0,0,0-1H45.753a.5.5,0,1,0,0,1Zm5.881,17.8C57.853,60.515,53.682,60.932,49.86,61h-.022c-2.919-.051-6.037-.308-8.23-1.582v.914a.67.67,0,0,1-.672.669H5.675a.666.666,0,0,1-.667-.669v-17.5a.666.666,0,0,1,.667-.669H40.937a.671.671,0,0,1,.672.669v1.734a20.317,20.317,0,0,1,2.736-3.761,1.837,1.837,0,0,1,.457-2.753c-1.919-3.054-2.478-5.267-1.613-6.422a1.991,1.991,0,0,1,2.317-.534,4.363,4.363,0,0,1,1.553.9l.032.025a1.476,1.476,0,0,0,.452.3.6.6,0,0,0,.156-.173,3.524,3.524,0,0,1,1.484-1.33V12.444H43.748a.671.671,0,0,1-.672-.67V6.339h-26.8V21.523a.669.669,0,1,1-1.338,0V5.67a.659.659,0,0,1,.2-.474.667.667,0,0,1,.473-.2h28.14a.676.676,0,0,1,.473.2l6.1,6.1a.657.657,0,0,1,.2.473v19.05A3.551,3.551,0,0,1,52,32.155a.84.84,0,0,0,.156.173,1.536,1.536,0,0,0,.457-.3L52.639,32a4.348,4.348,0,0,1,1.559-.9,1.983,1.983,0,0,1,2.311.534c.865,1.156.306,3.368-1.613,6.421a1.837,1.837,0,0,1,.457,2.754A23.089,23.089,0,0,1,60.492,50.4c.86,3.341.64,5.8-.667,7.52ZM24.9,53.087a1.69,1.69,0,0,0-.919-.592v1.56c.521-.1.876-.321.941-.543a.517.517,0,0,0-.022-.425Zm-2.258-2.339V49.142a1.423,1.423,0,0,0-.677.347.649.649,0,0,0-.2.483.742.742,0,0,0,.317.506,1.893,1.893,0,0,0,.559.269Zm3.429,1.692a3.106,3.106,0,0,0-1.994-1.317l-.1-.025V49.138l.091.023c.236.065.79.263.887.7a.67.67,0,0,0,1.306-.3,2.391,2.391,0,0,0-1.833-1.69,3.84,3.84,0,0,0-.452-.1v-.5a.669.669,0,1,0-1.338,0v.507a2.917,2.917,0,0,0-1.645.782,1.959,1.959,0,0,0-.564,1.508,2.037,2.037,0,0,0,.828,1.466,3.841,3.841,0,0,0,1.381.607V54a1.26,1.26,0,0,1-.994-.811.671.671,0,0,0-1.306.3,2.671,2.671,0,0,0,2.3,1.878v.523a.669.669,0,1,0,1.338,0v-.485A2.467,2.467,0,0,0,26.2,53.887a1.843,1.843,0,0,0-.134-1.448Zm-14.175-.188a.669.669,0,1,1,0-1.338h1.322a.669.669,0,0,1,0,1.338Zm23.5-.669a.669.669,0,0,1-.667.669H33.395a.669.669,0,0,1,0-1.338h1.328A.669.669,0,0,1,35.389,51.582Z" transform="translate(-5.008 -5)" fill="#021047" fill-rule="evenodd"/>
      </g>
    </g>
  </g>
</svg>
