<svg xmlns="http://www.w3.org/2000/svg" width="400" height="84" viewBox="0 0 400 84">
  <g id="Grupo_1118512" data-name="Grupo 1118512" transform="translate(-180 -22565)">
    <g id="Grupo_1118411" data-name="Grupo 1118411" transform="translate(-453 6664)">
      <rect id="Rectángulo_406818" data-name="Rectángulo 406818" width="400" height="84" rx="12" transform="translate(633 15901)" fill="#feead4"/>
    </g>
    <path id="Trazado_911736" data-name="Trazado 911736" d="M8.4,0H.945V-1.039L4.883-5.414A9.354,9.354,0,0,0,6.09-7.027a2.693,2.693,0,0,0,.332-1.285,2.041,2.041,0,0,0-.539-1.461,1.885,1.885,0,0,0-1.437-.57A2.232,2.232,0,0,0,2.77-9.73a2.343,2.343,0,0,0-.6,1.707H.727a3.355,3.355,0,0,1,1.012-2.539,3.751,3.751,0,0,1,2.707-.969,3.6,3.6,0,0,1,2.508.832,2.838,2.838,0,0,1,.922,2.215q0,1.68-2.141,4L2.688-1.18H8.4Zm1.711-.758a.905.905,0,0,1,.223-.625A.848.848,0,0,1,11-1.633a.874.874,0,0,1,.676.25.887.887,0,0,1,.23.625.839.839,0,0,1-.23.6A.89.89,0,0,1,11,.086a.863.863,0,0,1-.668-.242A.855.855,0,0,1,10.109-.758ZM14.8-5.7l.578-5.672h5.828v1.336h-4.6l-.344,3.1a3.671,3.671,0,0,1,1.9-.492A3.138,3.138,0,0,1,20.633-6.4a4.026,4.026,0,0,1,.914,2.777A3.886,3.886,0,0,1,20.6-.855,3.46,3.46,0,0,1,17.945.156,3.6,3.6,0,0,1,15.484-.68,3.337,3.337,0,0,1,14.4-2.992h1.367a2.3,2.3,0,0,0,.7,1.473,2.162,2.162,0,0,0,1.484.5,1.95,1.95,0,0,0,1.582-.687,2.874,2.874,0,0,0,.574-1.9,2.638,2.638,0,0,0-.621-1.832,2.113,2.113,0,0,0-1.652-.691,2.383,2.383,0,0,0-1.484.414l-.383.313Zm15.453.852a6.61,6.61,0,0,1-.867,3.773A3.084,3.084,0,0,1,26.68.156a3.107,3.107,0,0,1-2.7-1.207,6.274,6.274,0,0,1-.906-3.605v-1.93a6.463,6.463,0,0,1,.867-3.727,3.108,3.108,0,0,1,2.719-1.219,3.136,3.136,0,0,1,2.7,1.176,6.237,6.237,0,0,1,.891,3.629ZM28.813-6.828A5.3,5.3,0,0,0,28.3-9.5a1.775,1.775,0,0,0-1.633-.84,1.751,1.751,0,0,0-1.617.836,5.171,5.171,0,0,0-.523,2.57v2.313A5.381,5.381,0,0,0,25.059-1.9a1.771,1.771,0,0,0,1.621.879,1.747,1.747,0,0,0,1.59-.828,5.186,5.186,0,0,0,.543-2.609ZM39.563,0H32.109V-1.039l3.938-4.375a9.355,9.355,0,0,0,1.207-1.613,2.693,2.693,0,0,0,.332-1.285,2.041,2.041,0,0,0-.539-1.461,1.885,1.885,0,0,0-1.437-.57,2.232,2.232,0,0,0-1.676.613,2.343,2.343,0,0,0-.6,1.707H31.891A3.355,3.355,0,0,1,32.9-10.562a3.751,3.751,0,0,1,2.707-.969,3.6,3.6,0,0,1,2.508.832,2.838,2.838,0,0,1,.922,2.215q0,1.68-2.141,4l-3.047,3.3h5.711Zm1.711-.758a.905.905,0,0,1,.223-.625.848.848,0,0,1,.668-.25.874.874,0,0,1,.676.25.887.887,0,0,1,.23.625.839.839,0,0,1-.23.6.89.89,0,0,1-.676.242A.863.863,0,0,1,41.5-.156.855.855,0,0,1,41.273-.758Zm4.7-4.945.578-5.672h5.828v1.336h-4.6l-.344,3.1a3.671,3.671,0,0,1,1.9-.492A3.138,3.138,0,0,1,51.8-6.4a4.026,4.026,0,0,1,.914,2.777,3.886,3.886,0,0,1-.949,2.77A3.46,3.46,0,0,1,49.109.156,3.6,3.6,0,0,1,46.648-.68a3.337,3.337,0,0,1-1.086-2.312H46.93a2.3,2.3,0,0,0,.7,1.473,2.162,2.162,0,0,0,1.484.5,1.95,1.95,0,0,0,1.582-.687,2.874,2.874,0,0,0,.574-1.9,2.638,2.638,0,0,0-.621-1.832,2.113,2.113,0,0,0-1.652-.691,2.383,2.383,0,0,0-1.484.414l-.383.313ZM59.828-5a3.536,3.536,0,0,1-1.082.867,2.936,2.936,0,0,1-1.379.328,3.031,3.031,0,0,1-1.715-.484,3.149,3.149,0,0,1-1.129-1.363,4.648,4.648,0,0,1-.4-1.941,4.735,4.735,0,0,1,.434-2.055,3.185,3.185,0,0,1,1.23-1.4,3.509,3.509,0,0,1,1.859-.484,3.177,3.177,0,0,1,2.66,1.262,5.5,5.5,0,0,1,.973,3.441v.422q0,3.32-1.312,4.848A5.043,5.043,0,0,1,56.008.008h-.281V-1.219h.3a3.979,3.979,0,0,0,2.75-.932A4,4,0,0,0,59.828-5ZM57.6-5a2.232,2.232,0,0,0,1.34-.445,2.625,2.625,0,0,0,.895-1.1v-.578a3.977,3.977,0,0,0-.617-2.312,1.842,1.842,0,0,0-1.562-.891,1.856,1.856,0,0,0-1.531.73,3.013,3.013,0,0,0-.578,1.926,3.136,3.136,0,0,0,.559,1.918A1.769,1.769,0,0,0,57.6-5Zm11.344-6.383v1.227H68.68a3.805,3.805,0,0,0-2.687,1A4.161,4.161,0,0,0,64.836-6.43a3.085,3.085,0,0,1,2.453-1.031A2.95,2.95,0,0,1,69.66-6.414a4.038,4.038,0,0,1,.887,2.7A4.025,4.025,0,0,1,69.59-.9,3.3,3.3,0,0,1,67.023.156,3.247,3.247,0,0,1,64.375-1.1a4.97,4.97,0,0,1-1.016-3.23v-.555a7.488,7.488,0,0,1,1.34-4.8,4.921,4.921,0,0,1,3.988-1.7Zm-1.9,5.125a2.306,2.306,0,0,0-1.367.445A2.32,2.32,0,0,0,64.813-4.7v.531A3.731,3.731,0,0,0,65.445-1.9a1.9,1.9,0,0,0,1.578.859,1.838,1.838,0,0,0,1.535-.719,2.982,2.982,0,0,0,.559-1.883,2.983,2.983,0,0,0-.566-1.895A1.816,1.816,0,0,0,67.047-6.258Zm5.391,5.5a.905.905,0,0,1,.223-.625.848.848,0,0,1,.668-.25.874.874,0,0,1,.676.25.887.887,0,0,1,.23.625.839.839,0,0,1-.23.6.89.89,0,0,1-.676.242.863.863,0,0,1-.668-.242A.855.855,0,0,1,72.438-.758ZM82.57-3.82h1.578v1.18H82.57V0H81.117V-2.641h-5.18v-.852l5.094-7.883H82.57Zm-4.992,0h3.539V-9.4l-.172.313ZM86.117-5.7l.578-5.672h5.828v1.336h-4.6l-.344,3.1a3.671,3.671,0,0,1,1.9-.492A3.138,3.138,0,0,1,91.945-6.4a4.026,4.026,0,0,1,.914,2.777,3.886,3.886,0,0,1-.949,2.77A3.46,3.46,0,0,1,89.258.156,3.6,3.6,0,0,1,86.8-.68a3.337,3.337,0,0,1-1.086-2.312h1.367a2.3,2.3,0,0,0,.7,1.473,2.162,2.162,0,0,0,1.484.5,1.95,1.95,0,0,0,1.582-.687,2.874,2.874,0,0,0,.574-1.9,2.638,2.638,0,0,0-.621-1.832,2.113,2.113,0,0,0-1.652-.691,2.383,2.383,0,0,0-1.484.414l-.383.313Zm15.664-4.859L97.07,0H95.555l4.7-10.187H94.094v-1.187h7.688Zm10.008-.1-.086.383a1.043,1.043,0,0,0-.535.23.646.646,0,0,0-.2.512,4.073,4.073,0,0,0,.258,1.258l.648,1.891,1.445-1.828q.336-.422.523-.691a2.44,2.44,0,0,0,.27-.477,1.008,1.008,0,0,0,.082-.363.539.539,0,0,0-.125-.359.6.6,0,0,0-.43-.172l.086-.383h2.914l-.086.383a1.4,1.4,0,0,0-.441.227,3.848,3.848,0,0,0-.492.469q-.285.313-1.059,1.234L112.234-5.57,113.375-2.4q.258.719.422,1.1a3.4,3.4,0,0,0,.289.559.926.926,0,0,0,.211.207,1.445,1.445,0,0,0,.367.152L114.586,0H111.43l.078-.383a.959.959,0,0,0,.551-.246.671.671,0,0,0,.191-.5,3.266,3.266,0,0,0-.187-1.023l-.812-2.383L109.469-2.3a6.787,6.787,0,0,0-.578.816,1.15,1.15,0,0,0-.18.543.506.506,0,0,0,.145.418.811.811,0,0,0,.41.145L109.18,0h-2.906l.078-.383a1.508,1.508,0,0,0,.441-.227,3.838,3.838,0,0,0,.516-.5q.316-.355,1.105-1.293l2.477-2.945-1.156-3.211a9.7,9.7,0,0,0-.453-1.113,1.36,1.36,0,0,0-.324-.434.936.936,0,0,0-.41-.172l.086-.383ZM129.117,0h-7.453V-1.039L125.6-5.414a9.354,9.354,0,0,0,1.207-1.613,2.693,2.693,0,0,0,.332-1.285,2.041,2.041,0,0,0-.539-1.461,1.885,1.885,0,0,0-1.437-.57,2.232,2.232,0,0,0-1.676.613,2.343,2.343,0,0,0-.6,1.707h-1.445a3.355,3.355,0,0,1,1.012-2.539,3.751,3.751,0,0,1,2.707-.969,3.6,3.6,0,0,1,2.508.832,2.838,2.838,0,0,1,.922,2.215q0,1.68-2.141,4l-3.047,3.3h5.711Zm8.664-4.852a6.61,6.61,0,0,1-.867,3.773A3.084,3.084,0,0,1,134.2.156a3.107,3.107,0,0,1-2.7-1.207,6.274,6.274,0,0,1-.906-3.605v-1.93a6.463,6.463,0,0,1,.867-3.727,3.108,3.108,0,0,1,2.719-1.219,3.136,3.136,0,0,1,2.7,1.176,6.237,6.237,0,0,1,.891,3.629Zm-1.445-1.977A5.3,5.3,0,0,0,135.82-9.5a1.775,1.775,0,0,0-1.633-.84,1.751,1.751,0,0,0-1.617.836,5.171,5.171,0,0,0-.523,2.57v2.313a5.381,5.381,0,0,0,.535,2.723,1.771,1.771,0,0,0,1.621.879,1.747,1.747,0,0,0,1.59-.828,5.186,5.186,0,0,0,.543-2.609Zm3.172-2.359a2.308,2.308,0,0,1,.652-1.687,2.247,2.247,0,0,1,1.676-.664,2.234,2.234,0,0,1,1.684.668,2.388,2.388,0,0,1,.645,1.73v.555a2.278,2.278,0,0,1-.652,1.684,2.249,2.249,0,0,1-1.66.652,2.3,2.3,0,0,1-1.68-.652,2.326,2.326,0,0,1-.664-1.738Zm1.078.6a1.478,1.478,0,0,0,.344,1.006,1.16,1.16,0,0,0,.922.4,1.137,1.137,0,0,0,.895-.384,1.527,1.527,0,0,0,.34-1.049v-.572a1.515,1.515,0,0,0-.336-1.01,1.132,1.132,0,0,0-.914-.4,1.132,1.132,0,0,0-.914.4,1.563,1.563,0,0,0-.336,1.041Zm4.461,5.8a2.3,2.3,0,0,1,.652-1.684,2.254,2.254,0,0,1,1.676-.66,2.274,2.274,0,0,1,1.68.656,2.355,2.355,0,0,1,.656,1.742v.555A2.3,2.3,0,0,1,149.059-.5a2.244,2.244,0,0,1-1.668.66,2.3,2.3,0,0,1-1.68-.652,2.326,2.326,0,0,1-.664-1.738Zm1.078.606a1.49,1.49,0,0,0,.344,1.014,1.16,1.16,0,0,0,.922.4,1.129,1.129,0,0,0,.9-.388,1.553,1.553,0,0,0,.336-1.053v-.579a1.485,1.485,0,0,0-.34-1.01,1.144,1.144,0,0,0-.91-.392,1.156,1.156,0,0,0-.9.388,1.508,1.508,0,0,0-.348,1.045ZM142.18-.859l-.82-.516,5.555-8.891.82.516Zm19.891-5.5h-6.516V-7.617h6.516Zm0,3.242h-6.516v-1.25h6.516ZM168.719-5.7l.578-5.672h5.828v1.336h-4.6l-.344,3.1a3.671,3.671,0,0,1,1.9-.492A3.138,3.138,0,0,1,174.547-6.4a4.026,4.026,0,0,1,.914,2.777,3.886,3.886,0,0,1-.949,2.77A3.46,3.46,0,0,1,171.859.156,3.6,3.6,0,0,1,169.4-.68a3.337,3.337,0,0,1-1.086-2.312h1.367a2.3,2.3,0,0,0,.7,1.473,2.162,2.162,0,0,0,1.484.5,1.95,1.95,0,0,0,1.582-.687,2.874,2.874,0,0,0,.574-1.9,2.638,2.638,0,0,0-.621-1.832,2.113,2.113,0,0,0-1.652-.691,2.383,2.383,0,0,0-1.484.414l-.383.313Zm15.453.852a6.61,6.61,0,0,1-.867,3.773A3.084,3.084,0,0,1,180.594.156a3.107,3.107,0,0,1-2.7-1.207,6.274,6.274,0,0,1-.906-3.605v-1.93a6.463,6.463,0,0,1,.867-3.727,3.108,3.108,0,0,1,2.719-1.219,3.136,3.136,0,0,1,2.7,1.176,6.237,6.237,0,0,1,.891,3.629Zm-1.445-1.977a5.3,5.3,0,0,0-.516-2.676,1.775,1.775,0,0,0-1.633-.84,1.751,1.751,0,0,0-1.617.836,5.171,5.171,0,0,0-.523,2.57v2.313a5.381,5.381,0,0,0,.535,2.723,1.771,1.771,0,0,0,1.621.879,1.747,1.747,0,0,0,1.59-.828,5.186,5.186,0,0,0,.543-2.609Zm10.43,1.977a6.61,6.61,0,0,1-.867,3.773A3.084,3.084,0,0,1,189.578.156a3.107,3.107,0,0,1-2.7-1.207,6.274,6.274,0,0,1-.906-3.605v-1.93a6.463,6.463,0,0,1,.867-3.727,3.108,3.108,0,0,1,2.719-1.219,3.136,3.136,0,0,1,2.7,1.176,6.237,6.237,0,0,1,.891,3.629Zm-1.445-1.977A5.3,5.3,0,0,0,191.2-9.5a1.775,1.775,0,0,0-1.633-.84,1.751,1.751,0,0,0-1.617.836,5.171,5.171,0,0,0-.523,2.57v2.313a5.381,5.381,0,0,0,.535,2.723,1.771,1.771,0,0,0,1.621.879,1.747,1.747,0,0,0,1.59-.828,5.186,5.186,0,0,0,.543-2.609Zm3.477,6.07a.905.905,0,0,1,.223-.625.848.848,0,0,1,.668-.25.874.874,0,0,1,.676.25.887.887,0,0,1,.23.625.839.839,0,0,1-.23.6.89.89,0,0,1-.676.242.863.863,0,0,1-.668-.242A.855.855,0,0,1,195.188-.758Zm4.7-4.945.578-5.672h5.828v1.336h-4.6l-.344,3.1a3.671,3.671,0,0,1,1.9-.492A3.138,3.138,0,0,1,205.711-6.4a4.026,4.026,0,0,1,.914,2.777,3.886,3.886,0,0,1-.949,2.77A3.46,3.46,0,0,1,203.023.156a3.6,3.6,0,0,1-2.461-.836,3.337,3.337,0,0,1-1.086-2.312h1.367a2.3,2.3,0,0,0,.7,1.473,2.162,2.162,0,0,0,1.484.5,1.95,1.95,0,0,0,1.582-.687,2.874,2.874,0,0,0,.574-1.9,2.638,2.638,0,0,0-.621-1.832,2.113,2.113,0,0,0-1.652-.691,2.383,2.383,0,0,0-1.484.414l-.383.313ZM212.953,0H211.5V-9.633l-2.914,1.07V-9.875l4.141-1.555h.227Zm9.773-5a3.536,3.536,0,0,1-1.082.867,2.936,2.936,0,0,1-1.379.328,3.031,3.031,0,0,1-1.715-.484,3.149,3.149,0,0,1-1.129-1.363,4.648,4.648,0,0,1-.4-1.941,4.735,4.735,0,0,1,.434-2.055,3.185,3.185,0,0,1,1.23-1.4,3.509,3.509,0,0,1,1.859-.484,3.177,3.177,0,0,1,2.66,1.262,5.5,5.5,0,0,1,.973,3.441v.422q0,3.32-1.312,4.848A5.043,5.043,0,0,1,218.906.008h-.281V-1.219h.3a3.979,3.979,0,0,0,2.75-.932A4,4,0,0,0,222.727-5ZM220.5-5a2.232,2.232,0,0,0,1.34-.445,2.625,2.625,0,0,0,.895-1.1v-.578a3.977,3.977,0,0,0-.617-2.312,1.842,1.842,0,0,0-1.562-.891,1.856,1.856,0,0,0-1.531.73,3.013,3.013,0,0,0-.578,1.926A3.136,3.136,0,0,0,219-5.754,1.769,1.769,0,0,0,220.5-5Zm5.852,4.242a.905.905,0,0,1,.223-.625.848.848,0,0,1,.668-.25.874.874,0,0,1,.676.25.887.887,0,0,1,.23.625.839.839,0,0,1-.23.6.89.89,0,0,1-.676.242.863.863,0,0,1-.668-.242A.855.855,0,0,1,226.352-.758ZM237.836,0h-7.453V-1.039l3.938-4.375a9.355,9.355,0,0,0,1.207-1.613,2.692,2.692,0,0,0,.332-1.285,2.041,2.041,0,0,0-.539-1.461,1.885,1.885,0,0,0-1.437-.57,2.232,2.232,0,0,0-1.676.613,2.343,2.343,0,0,0-.6,1.707h-1.445a3.355,3.355,0,0,1,1.012-2.539,3.751,3.751,0,0,1,2.707-.969,3.6,3.6,0,0,1,2.508.832,2.838,2.838,0,0,1,.922,2.215q0,1.68-2.141,4l-3.047,3.3h5.711Zm7.07-5a3.536,3.536,0,0,1-1.082.867,2.936,2.936,0,0,1-1.379.328,3.031,3.031,0,0,1-1.715-.484A3.149,3.149,0,0,1,239.6-5.652a4.648,4.648,0,0,1-.4-1.941,4.735,4.735,0,0,1,.434-2.055,3.185,3.185,0,0,1,1.23-1.4,3.509,3.509,0,0,1,1.859-.484,3.177,3.177,0,0,1,2.66,1.262,5.5,5.5,0,0,1,.973,3.441v.422q0,3.32-1.312,4.848A5.043,5.043,0,0,1,241.086.008H240.8V-1.219h.3a3.979,3.979,0,0,0,2.75-.932A4,4,0,0,0,244.906-5ZM242.68-5a2.232,2.232,0,0,0,1.34-.445,2.625,2.625,0,0,0,.895-1.1v-.578a3.977,3.977,0,0,0-.617-2.312,1.842,1.842,0,0,0-1.562-.891,1.856,1.856,0,0,0-1.531.73,3.013,3.013,0,0,0-.578,1.926,3.136,3.136,0,0,0,.559,1.918A1.769,1.769,0,0,0,242.68-5ZM253.1,0h-1.453V-9.633l-2.914,1.07V-9.875l4.141-1.555h.227Z" transform="translate(252 22613)" fill="#12263f"/>
  </g>
</svg>
