<svg xmlns="http://www.w3.org/2000/svg" width="610" height="158" viewBox="0 0 610 158">
  <g id="Grupo_1118510" data-name="Grupo 1118510" transform="translate(-495 -21289)">
    <rect id="Rectángulo_406818" data-name="Rectángulo 406818" width="610" height="158" rx="12" transform="translate(495 21289)" fill="#feead4"/>
    <path id="Trazado_911713" data-name="Trazado 911713" d="M6.438-4.836a2.287,2.287,0,0,1,.605.672,3.565,3.565,0,0,1,.371,1.086l.18.906a7.258,7.258,0,0,0,.2.773,1.846,1.846,0,0,0,.262.547,1.046,1.046,0,0,0,.344.3,1.923,1.923,0,0,0,.559.164L8.875,0H6.711a12.032,12.032,0,0,1-.445-1.656L5.922-3.312a3.938,3.938,0,0,0-.207-.723,1.307,1.307,0,0,0-.289-.453A.822.822,0,0,0,5.035-4.7a2.482,2.482,0,0,0-.543-.051H3.6L3.055-2.273q-.07.3-.1.484T2.91-1.41q-.02.2-.02.355a.768.768,0,0,0,.078.379.455.455,0,0,0,.234.2,2.075,2.075,0,0,0,.539.094L3.656,0H.445L.531-.383A1.066,1.066,0,0,0,.977-.535a.844.844,0,0,0,.25-.293,2.669,2.669,0,0,0,.188-.457q.086-.27.258-1.043L3-8.344a6.108,6.108,0,0,0,.172-1.234.659.659,0,0,0-.18-.531,1.016,1.016,0,0,0-.586-.172l.086-.383H5.969a7.615,7.615,0,0,1,1.352.1,3.165,3.165,0,0,1,.895.293,1.967,1.967,0,0,1,.621.5,2.14,2.14,0,0,1,.375.7,2.664,2.664,0,0,1,.125.824A3.01,3.01,0,0,1,8.6-6.2,4.555,4.555,0,0,1,6.438-4.922ZM4.672-5.422a4.321,4.321,0,0,0,1.789-.3,2.265,2.265,0,0,0,1.039-1,3.061,3.061,0,0,0,.383-1.5,2.584,2.584,0,0,0-.062-.6,1.572,1.572,0,0,0-.164-.434,1.2,1.2,0,0,0-.258-.3,1.474,1.474,0,0,0-.391-.23,2.2,2.2,0,0,0-.543-.141,6.409,6.409,0,0,0-.84-.043q-.414,0-.875.031l-1,4.523ZM13.6.133a2.515,2.515,0,0,1-1.879-.68A2.671,2.671,0,0,1,11.055-2.5a6.588,6.588,0,0,1,.188-1.445,5.411,5.411,0,0,1,.813-1.937,3.916,3.916,0,0,1,1.406-1.27A3.871,3.871,0,0,1,15.3-7.594,2.521,2.521,0,0,1,17.2-6.91a2.715,2.715,0,0,1,.656,1.957,6.62,6.62,0,0,1-.316,1.938,5.308,5.308,0,0,1-.867,1.734A3.568,3.568,0,0,1,15.359-.223,4.131,4.131,0,0,1,13.6.133Zm-1.18-2.3a1.9,1.9,0,0,0,.355,1.27,1.345,1.345,0,0,0,1.074.41,1.761,1.761,0,0,0,1.359-.687A4.943,4.943,0,0,0,16.148-3.1a8.276,8.276,0,0,0,.344-2.176,2.059,2.059,0,0,0-.328-1.27,1.21,1.21,0,0,0-1.023-.426,1.846,1.846,0,0,0-1.418.68,4.814,4.814,0,0,0-.953,1.945A8.426,8.426,0,0,0,12.422-2.164Zm11.727.688A5.646,5.646,0,0,1,22.84-.266a2.458,2.458,0,0,1-1.316.391,1.45,1.45,0,0,1-1.633-1.648,4.923,4.923,0,0,1,.133-1.1l.922-4.055H19.633l.117-.539a3.154,3.154,0,0,0,.7-.07,1.277,1.277,0,0,0,.4-.172,1.1,1.1,0,0,0,.293-.312,2.919,2.919,0,0,0,.258-.52q.125-.316.375-1.105h1.078l-.43,1.93H24.8l-.172.789H22.25l-.7,3.031q-.2.883-.258,1.27a4.658,4.658,0,0,0-.055.621q0,.969.8.969a1.319,1.319,0,0,0,.73-.262,4.9,4.9,0,0,0,.918-.895Zm7.594-5.609.719-.516.5.125L31.813-2.523a5.5,5.5,0,0,0-.172,1.156.787.787,0,0,0,.1.453.368.368,0,0,0,.32.141.869.869,0,0,0,.5-.191,5.49,5.49,0,0,0,.75-.73l.445.438a6.8,6.8,0,0,1-1.2,1.066,1.96,1.96,0,0,1-1.074.316.991.991,0,0,1-.773-.32,1.223,1.223,0,0,1-.289-.852,2.633,2.633,0,0,1,.18-.914l-.1-.031a6.889,6.889,0,0,1-1.422,1.6,2.32,2.32,0,0,1-1.422.508,1.552,1.552,0,0,1-1.332-.648,3.046,3.046,0,0,1-.473-1.82,6.524,6.524,0,0,1,.527-2.582,4.776,4.776,0,0,1,1.449-1.953A3.271,3.271,0,0,1,29.883-7.6a3.809,3.809,0,0,1,.949.113A3.318,3.318,0,0,1,31.742-7.086Zm-.687,2.328a4.931,4.931,0,0,0,.094-.555q.023-.234.023-.508a1.277,1.277,0,0,0-.258-.883,1.145,1.145,0,0,0-.875-.281,1.985,1.985,0,0,0-1.445.648,4.377,4.377,0,0,0-1,1.738,6.913,6.913,0,0,0-.359,2.176,2.585,2.585,0,0,0,.223,1.215.784.784,0,0,0,.746.4,1.515,1.515,0,0,0,1.012-.445,6.2,6.2,0,0,0,1.023-1.27,5.537,5.537,0,0,0,.746-1.9Zm8.773-.836a3.521,3.521,0,0,0-.1-.859.742.742,0,0,0-.266-.4.875.875,0,0,0-.52-.133,1.958,1.958,0,0,0-1.418.629A4.612,4.612,0,0,0,36.5-4.574a6.769,6.769,0,0,0-.4,2.215,1.863,1.863,0,0,0,.313,1.184,1.134,1.134,0,0,0,.938.387,2.639,2.639,0,0,0,1.23-.27,4.607,4.607,0,0,0,1.1-.848l.477.477a5.185,5.185,0,0,1-1.48,1.188A3.525,3.525,0,0,1,37.07.133a2.158,2.158,0,0,1-1.719-.672,2.888,2.888,0,0,1-.586-1.953,6.2,6.2,0,0,1,.313-1.836,5.374,5.374,0,0,1,.914-1.758A3.883,3.883,0,0,1,37.4-7.219a4.019,4.019,0,0,1,1.719-.375,7.384,7.384,0,0,1,1.914.234l-.383,1.766Zm5.891-4.937-.359,1.516H43.977l.359-1.516ZM43.2-5.266a5.771,5.771,0,0,0,.18-1.172.563.563,0,0,0-.168-.477,1.267,1.267,0,0,0-.66-.141l.086-.414,1.906-.07h.461L43.883-2.523a5.792,5.792,0,0,0-.172,1.156.787.787,0,0,0,.1.453.368.368,0,0,0,.32.141.869.869,0,0,0,.5-.191,5.49,5.49,0,0,0,.75-.73l.445.438A6.817,6.817,0,0,1,44.586-.164a2.023,2.023,0,0,1-1.07.289A1,1,0,0,1,42.7-.246a1.447,1.447,0,0,1-.3-.949,6.84,6.84,0,0,1,.219-1.516Zm3.883.961a4.993,4.993,0,0,1,.488-2.234A3.643,3.643,0,0,1,48.934-8.07a3.7,3.7,0,0,1,1.988-.539,3.565,3.565,0,0,1,2.793,1.2,4.6,4.6,0,0,1,1.066,3.18v.1a5.036,5.036,0,0,1-.473,2.215A3.589,3.589,0,0,1,52.957-.391a3.743,3.743,0,0,1-2.02.547,3.556,3.556,0,0,1-2.785-1.2A4.575,4.575,0,0,1,47.086-4.2Zm1.453.172a3.616,3.616,0,0,0,.652,2.258,2.088,2.088,0,0,0,1.746.852,2.075,2.075,0,0,0,1.75-.863A3.955,3.955,0,0,0,53.336-4.3a3.61,3.61,0,0,0-.66-2.254,2.1,2.1,0,0,0-1.754-.863A2.075,2.075,0,0,0,49.2-6.57,3.925,3.925,0,0,0,48.539-4.133Zm3.039-7.852h1.75l-2.094,2.3-1.164,0Zm6.055,7.031A5.6,5.6,0,0,0,57.8-6.109a.787.787,0,0,0-.1-.453.368.368,0,0,0-.32-.141.874.874,0,0,0-.512.2,5.607,5.607,0,0,0-.738.723l-.445-.437a7.756,7.756,0,0,1,1.2-1.066A1.905,1.905,0,0,1,57.961-7.6a.982.982,0,0,1,.777.324,1.236,1.236,0,0,1,.285.848,2.689,2.689,0,0,1-.187.922l.094.031a7.228,7.228,0,0,1,1.457-1.6,2.348,2.348,0,0,1,1.426-.52,1.454,1.454,0,0,1,1.117.418,1.633,1.633,0,0,1,.391,1.16,6.238,6.238,0,0,1-.227,1.4L62.586-2.57a5.873,5.873,0,0,0-.211,1.2.787.787,0,0,0,.1.453.368.368,0,0,0,.32.141.869.869,0,0,0,.5-.191,5.49,5.49,0,0,0,.75-.73l.445.438A7.067,7.067,0,0,1,63.32-.207,2.015,2.015,0,0,1,62.18.125a1.007,1.007,0,0,1-.812-.363,1.391,1.391,0,0,1-.3-.926,6.463,6.463,0,0,1,.258-1.492l.344-1.352q.188-.734.246-1.086a3.628,3.628,0,0,0,.059-.57,1.31,1.31,0,0,0-.18-.777A.687.687,0,0,0,61.2-6.68a1.266,1.266,0,0,0-.707.262,4.031,4.031,0,0,0-.8.789,6.192,6.192,0,0,0-.684,1.023,5.1,5.1,0,0,0-.422,1.223L57.844,0H56.492ZM74.109-1.992a6.889,6.889,0,0,1-1.422,1.6,2.32,2.32,0,0,1-1.422.508,1.552,1.552,0,0,1-1.332-.648,3.046,3.046,0,0,1-.473-1.82,6.524,6.524,0,0,1,.527-2.582,4.776,4.776,0,0,1,1.449-1.953A3.271,3.271,0,0,1,73.492-7.6a3.723,3.723,0,0,1,.879.1,3.16,3.16,0,0,1,.824.34l.406-1.8q.062-.258.109-.57a3.747,3.747,0,0,0,.047-.547.612.612,0,0,0-.086-.355.482.482,0,0,0-.246-.176,2.467,2.467,0,0,0-.574-.078l.094-.406,1.961-.07h.461L75.422-2.523a5.792,5.792,0,0,0-.172,1.156.787.787,0,0,0,.1.453.368.368,0,0,0,.32.141.869.869,0,0,0,.5-.191,5.49,5.49,0,0,0,.75-.73l.445.438a6.989,6.989,0,0,1-1.211,1.07,1.946,1.946,0,0,1-1.062.313A.991.991,0,0,1,74.32-.2a1.223,1.223,0,0,1-.289-.852,2.633,2.633,0,0,1,.18-.914Zm.523-2.766A5.219,5.219,0,0,0,74.75-5.82a1.275,1.275,0,0,0-.258-.887,1.131,1.131,0,0,0-.859-.277,1.957,1.957,0,0,0-1.43.645,4.429,4.429,0,0,0-1,1.738,6.881,6.881,0,0,0-.363,2.18,2.585,2.585,0,0,0,.223,1.215.784.784,0,0,0,.746.4A1.26,1.26,0,0,0,72.3-.91a1.985,1.985,0,0,0,.52-.34,4.054,4.054,0,0,0,.531-.57q.262-.336.48-.676a4.82,4.82,0,0,0,.406-.8,6.442,6.442,0,0,0,.32-1.121Zm9.82,3.2A5.939,5.939,0,0,1,82.918-.3a3.733,3.733,0,0,1-1.809.422,2.236,2.236,0,0,1-1.754-.691,2.78,2.78,0,0,1-.621-1.926,6,6,0,0,1,.3-1.793A5.239,5.239,0,0,1,79.945-6a4.254,4.254,0,0,1,1.461-1.18A4.06,4.06,0,0,1,83.219-7.6a2.22,2.22,0,0,1,1.418.383,1.448,1.448,0,0,1,.473,1.2,2.135,2.135,0,0,1-1.246,1.992,8.1,8.1,0,0,1-3.7.664,5.18,5.18,0,0,0-.094,1.016,1.806,1.806,0,0,0,.32,1.191,1.316,1.316,0,0,0,1.047.371,2.706,2.706,0,0,0,1.3-.312,5.434,5.434,0,0,0,1.23-.961ZM80.3-4.031a8.37,8.37,0,0,0,1.891-.2A2.53,2.53,0,0,0,83.4-4.84a1.518,1.518,0,0,0,.422-1.129,1.138,1.138,0,0,0-.223-.746.807.807,0,0,0-.66-.27,2.084,2.084,0,0,0-1.52.8A5.309,5.309,0,0,0,80.3-4.031Zm11.656-.9a5.526,5.526,0,0,0,.164-1.18.787.787,0,0,0-.1-.453A.368.368,0,0,0,91.7-6.7a.874.874,0,0,0-.512.2,5.607,5.607,0,0,0-.738.723L90-6.219a7.627,7.627,0,0,1,1.191-1.059A1.914,1.914,0,0,1,92.273-7.6a.979.979,0,0,1,.77.32,1.233,1.233,0,0,1,.285.852,2.651,2.651,0,0,1-.18.922l.094.031q1.445-2.117,2.875-2.117a1.544,1.544,0,0,1,1.324.648,3.061,3.061,0,0,1,.473,1.828,6.533,6.533,0,0,1-.52,2.535A4.83,4.83,0,0,1,95.953-.605a3.238,3.238,0,0,1-2.062.73,3.075,3.075,0,0,1-1.727-.453L91.8,1.383a4.6,4.6,0,0,0-.117.914.6.6,0,0,0,.176.488,1.339,1.339,0,0,0,.684.191l-.062.383H90.07Zm.789,2.211q-.078.414-.1.633t-.02.43a1.262,1.262,0,0,0,.262.887,1.207,1.207,0,0,0,.9.277,1.72,1.72,0,0,0,.734-.156A2.277,2.277,0,0,0,95.16-1.1,3.334,3.334,0,0,0,95.7-1.82a5.647,5.647,0,0,0,.434-.98,7.128,7.128,0,0,0,.289-1.148,6.788,6.788,0,0,0,.1-1.105,2.531,2.531,0,0,0-.23-1.223.781.781,0,0,0-.73-.4,1.361,1.361,0,0,0-.785.27,4.166,4.166,0,0,0-.848.863,5.738,5.738,0,0,0-.719,1.172A6.233,6.233,0,0,0,92.8-3.047ZM102.2-5.586a6.511,6.511,0,0,1,1.473-1.523,2.515,2.515,0,0,1,1.434-.484,4.445,4.445,0,0,1,.953.086l-.375,1.75h-.8a1.808,1.808,0,0,0-.133-.508.563.563,0,0,0-.2-.25.569.569,0,0,0-.3-.07,1.067,1.067,0,0,0-.613.242,4.2,4.2,0,0,0-.746.758,6.006,6.006,0,0,0-.66.992,5.079,5.079,0,0,0-.41,1.211L101.078,0H99.727l1.133-4.953A7.316,7.316,0,0,0,101-5.68a3.686,3.686,0,0,0,.031-.43.787.787,0,0,0-.1-.453.368.368,0,0,0-.32-.141.874.874,0,0,0-.512.2,5.607,5.607,0,0,0-.738.723l-.445-.437a7.51,7.51,0,0,1,1.2-1.066,1.916,1.916,0,0,1,1.07-.316.982.982,0,0,1,.777.324,1.236,1.236,0,0,1,.285.848,2.378,2.378,0,0,1-.148.8ZM109.75.133a2.515,2.515,0,0,1-1.879-.68A2.671,2.671,0,0,1,107.2-2.5a6.588,6.588,0,0,1,.188-1.445,5.411,5.411,0,0,1,.813-1.937,3.916,3.916,0,0,1,1.406-1.27,3.871,3.871,0,0,1,1.836-.441,2.521,2.521,0,0,1,1.906.684,2.715,2.715,0,0,1,.656,1.957,6.62,6.62,0,0,1-.316,1.938,5.308,5.308,0,0,1-.867,1.734,3.568,3.568,0,0,1-1.316,1.059A4.131,4.131,0,0,1,109.75.133Zm-1.18-2.3a1.9,1.9,0,0,0,.355,1.27A1.345,1.345,0,0,0,110-.484a1.761,1.761,0,0,0,1.359-.687A4.943,4.943,0,0,0,112.3-3.1a8.276,8.276,0,0,0,.344-2.176,2.059,2.059,0,0,0-.328-1.27,1.211,1.211,0,0,0-1.023-.426,1.846,1.846,0,0,0-1.418.68,4.814,4.814,0,0,0-.953,1.945A8.426,8.426,0,0,0,108.57-2.164Zm9.078,2.3A.617.617,0,0,1,117.27.02a.8.8,0,0,1-.246-.32,1.775,1.775,0,0,1-.133-.488,4.5,4.5,0,0,1-.039-.617,8.928,8.928,0,0,1,.055-.953q.055-.508.141-1.023l.328-2.164q.031-.187.051-.355a2.382,2.382,0,0,0,.02-.246.89.89,0,0,0-.078-.4A.273.273,0,0,0,117.1-6.7a.7.7,0,0,0-.32.09,2.168,2.168,0,0,0-.348.23q-.176.141-.34.3t-.3.3l-.375-.437q.242-.25.516-.5a4.744,4.744,0,0,1,.578-.445,3.069,3.069,0,0,1,.641-.32,2.013,2.013,0,0,1,.688-.121,1.047,1.047,0,0,1,.484.1.765.765,0,0,1,.293.258,1,1,0,0,1,.145.352,1.891,1.891,0,0,1,.039.379q0,.109-.008.211a1.842,1.842,0,0,1-.023.188l-.437,2.828q-.07.445-.117.871a6.979,6.979,0,0,0-.047.754,2.916,2.916,0,0,0,.039.531q.039.2.148.2A1.469,1.469,0,0,0,119-1.137a4.7,4.7,0,0,0,.82-.57,7.864,7.864,0,0,0,.859-.859,7.459,7.459,0,0,0,.773-1.074,6.293,6.293,0,0,0,.559-1.219,4.031,4.031,0,0,0,.215-1.289.682.682,0,0,0-.121-.434.455.455,0,0,0-.379-.152.88.88,0,0,0-.605.254,4.316,4.316,0,0,0-.574.668l-.445-.4a3.672,3.672,0,0,1,.441-.539,3.657,3.657,0,0,1,.539-.453,2.859,2.859,0,0,1,.59-.312,1.648,1.648,0,0,1,.594-.117,1.014,1.014,0,0,1,.813.293,1.169,1.169,0,0,1,.25.785,3.3,3.3,0,0,1-.133.859,7.08,7.08,0,0,1-.375,1.023,11.053,11.053,0,0,1-.578,1.105,11.651,11.651,0,0,1-.742,1.1,10.761,10.761,0,0,1-.867,1.008,6.965,6.965,0,0,1-.957.824,4.968,4.968,0,0,1-1.008.559A2.7,2.7,0,0,1,117.648.133Zm12.461-1.687A5.939,5.939,0,0,1,128.574-.3a3.733,3.733,0,0,1-1.809.422,2.236,2.236,0,0,1-1.754-.691,2.78,2.78,0,0,1-.621-1.926,6,6,0,0,1,.3-1.793A5.239,5.239,0,0,1,125.6-6a4.254,4.254,0,0,1,1.461-1.18,4.06,4.06,0,0,1,1.813-.418,2.22,2.22,0,0,1,1.418.383,1.448,1.448,0,0,1,.473,1.2,2.135,2.135,0,0,1-1.246,1.992,8.1,8.1,0,0,1-3.7.664,5.18,5.18,0,0,0-.094,1.016,1.806,1.806,0,0,0,.32,1.191,1.316,1.316,0,0,0,1.047.371,2.706,2.706,0,0,0,1.3-.312,5.434,5.434,0,0,0,1.23-.961Zm-4.156-2.477a8.37,8.37,0,0,0,1.891-.2,2.53,2.53,0,0,0,1.211-.609,1.518,1.518,0,0,0,.422-1.129,1.138,1.138,0,0,0-.223-.746.807.807,0,0,0-.66-.27,2.084,2.084,0,0,0-1.52.8A5.309,5.309,0,0,0,125.953-4.031Zm12.094,2.477A5.939,5.939,0,0,1,136.512-.3,3.733,3.733,0,0,1,134.7.125a2.236,2.236,0,0,1-1.754-.691,2.78,2.78,0,0,1-.621-1.926,6,6,0,0,1,.3-1.793A5.239,5.239,0,0,1,133.539-6,4.254,4.254,0,0,1,135-7.184a4.06,4.06,0,0,1,1.813-.418,2.22,2.22,0,0,1,1.418.383,1.448,1.448,0,0,1,.473,1.2,2.135,2.135,0,0,1-1.246,1.992,8.1,8.1,0,0,1-3.7.664,5.18,5.18,0,0,0-.094,1.016,1.806,1.806,0,0,0,.32,1.191,1.316,1.316,0,0,0,1.047.371,2.706,2.706,0,0,0,1.3-.312,5.434,5.434,0,0,0,1.23-.961Zm-4.156-2.477a8.37,8.37,0,0,0,1.891-.2,2.53,2.53,0,0,0,1.211-.609,1.518,1.518,0,0,0,.422-1.129,1.138,1.138,0,0,0-.223-.746.807.807,0,0,0-.66-.27,2.084,2.084,0,0,0-1.52.8A5.309,5.309,0,0,0,133.891-4.031Zm11.023,2.039a6.889,6.889,0,0,1-1.422,1.6,2.32,2.32,0,0,1-1.422.508,1.552,1.552,0,0,1-1.332-.648,3.046,3.046,0,0,1-.473-1.82,6.524,6.524,0,0,1,.527-2.582,4.776,4.776,0,0,1,1.449-1.953A3.271,3.271,0,0,1,144.3-7.6a3.723,3.723,0,0,1,.879.1,3.16,3.16,0,0,1,.824.34l.406-1.8q.063-.258.109-.57a3.747,3.747,0,0,0,.047-.547.612.612,0,0,0-.086-.355.482.482,0,0,0-.246-.176,2.467,2.467,0,0,0-.574-.078l.094-.406,1.961-.07h.461l-1.945,8.648a5.793,5.793,0,0,0-.172,1.156.787.787,0,0,0,.1.453.368.368,0,0,0,.32.141.869.869,0,0,0,.5-.191,5.49,5.49,0,0,0,.75-.73l.445.438a6.99,6.99,0,0,1-1.211,1.07A1.946,1.946,0,0,1,145.9.125a.991.991,0,0,1-.773-.32,1.223,1.223,0,0,1-.289-.852,2.632,2.632,0,0,1,.18-.914Zm.523-2.766a5.219,5.219,0,0,0,.117-1.062,1.275,1.275,0,0,0-.258-.887,1.131,1.131,0,0,0-.859-.277,1.957,1.957,0,0,0-1.43.645,4.429,4.429,0,0,0-1,1.738,6.881,6.881,0,0,0-.363,2.18,2.585,2.585,0,0,0,.223,1.215.784.784,0,0,0,.746.4,1.26,1.26,0,0,0,.492-.105,1.985,1.985,0,0,0,.52-.34,4.055,4.055,0,0,0,.531-.57q.262-.336.48-.676a4.82,4.82,0,0,0,.406-.8,6.443,6.443,0,0,0,.32-1.121ZM152.125.133a2.515,2.515,0,0,1-1.879-.68,2.671,2.671,0,0,1-.668-1.953,6.588,6.588,0,0,1,.188-1.445,5.411,5.411,0,0,1,.813-1.937,3.916,3.916,0,0,1,1.406-1.27,3.871,3.871,0,0,1,1.836-.441,2.521,2.521,0,0,1,1.906.684,2.715,2.715,0,0,1,.656,1.957,6.62,6.62,0,0,1-.316,1.938,5.308,5.308,0,0,1-.867,1.734,3.568,3.568,0,0,1-1.316,1.059A4.131,4.131,0,0,1,152.125.133Zm-1.18-2.3a1.9,1.9,0,0,0,.355,1.27,1.345,1.345,0,0,0,1.074.41,1.761,1.761,0,0,0,1.359-.687,4.943,4.943,0,0,0,.938-1.926,8.276,8.276,0,0,0,.344-2.176,2.059,2.059,0,0,0-.328-1.27,1.21,1.21,0,0,0-1.023-.426,1.846,1.846,0,0,0-1.418.68,4.814,4.814,0,0,0-.953,1.945A8.427,8.427,0,0,0,150.945-2.164Zm9.766-3.422a6.511,6.511,0,0,1,1.473-1.523,2.515,2.515,0,0,1,1.434-.484,4.445,4.445,0,0,1,.953.086l-.375,1.75h-.8a1.808,1.808,0,0,0-.133-.508.563.563,0,0,0-.2-.25.569.569,0,0,0-.3-.07,1.067,1.067,0,0,0-.613.242,4.2,4.2,0,0,0-.746.758,6.005,6.005,0,0,0-.66.992,5.079,5.079,0,0,0-.41,1.211L159.586,0h-1.352l1.133-4.953a7.312,7.312,0,0,0,.141-.727,3.687,3.687,0,0,0,.031-.43.787.787,0,0,0-.1-.453.368.368,0,0,0-.32-.141.874.874,0,0,0-.512.2,5.607,5.607,0,0,0-.738.723l-.445-.437a7.51,7.51,0,0,1,1.2-1.066A1.916,1.916,0,0,1,159.7-7.6a.982.982,0,0,1,.777.324,1.236,1.236,0,0,1,.285.848,2.378,2.378,0,0,1-.148.8Zm10.68,4.031A5.939,5.939,0,0,1,169.855-.3a3.733,3.733,0,0,1-1.809.422,2.236,2.236,0,0,1-1.754-.691,2.78,2.78,0,0,1-.621-1.926,6,6,0,0,1,.3-1.793A5.239,5.239,0,0,1,166.883-6a4.254,4.254,0,0,1,1.461-1.18,4.06,4.06,0,0,1,1.813-.418,2.22,2.22,0,0,1,1.418.383,1.448,1.448,0,0,1,.473,1.2A2.135,2.135,0,0,1,170.8-4.031a8.1,8.1,0,0,1-3.7.664,5.18,5.18,0,0,0-.094,1.016,1.806,1.806,0,0,0,.32,1.191,1.316,1.316,0,0,0,1.047.371,2.706,2.706,0,0,0,1.3-.312,5.434,5.434,0,0,0,1.23-.961Zm-4.156-2.477a8.37,8.37,0,0,0,1.891-.2,2.53,2.53,0,0,0,1.211-.609,1.518,1.518,0,0,0,.422-1.129,1.138,1.138,0,0,0-.223-.746.807.807,0,0,0-.66-.27,2.084,2.084,0,0,0-1.52.8A5.309,5.309,0,0,0,167.234-4.031ZM178.68-5.57a1.71,1.71,0,0,0-.457-1.055,1.629,1.629,0,0,0-1.168-.359,1.519,1.519,0,0,0-1,.316,1.027,1.027,0,0,0-.383.832,1.188,1.188,0,0,0,.1.5,1.5,1.5,0,0,0,.395.473,6.87,6.87,0,0,0,.922.633,6.6,6.6,0,0,1,.789.543,2.618,2.618,0,0,1,.469.488,1.7,1.7,0,0,1,.25.512,2.368,2.368,0,0,1,.078.652A1.933,1.933,0,0,1,178.3-.848a2.2,2.2,0,0,1-1.008.738,4.055,4.055,0,0,1-1.449.242,8.237,8.237,0,0,1-1.273-.1A10.165,10.165,0,0,1,173.18-.3l.375-1.7h.609a1.618,1.618,0,0,0,.422,1.133,1.722,1.722,0,0,0,1.242.383,1.82,1.82,0,0,0,1.16-.332,1.133,1.133,0,0,0,.418-.941,1.435,1.435,0,0,0-.117-.605,1.5,1.5,0,0,0-.383-.488,6.285,6.285,0,0,0-.844-.586,6.85,6.85,0,0,1-.949-.664,2.093,2.093,0,0,1-.512-.645,1.785,1.785,0,0,1-.172-.8,1.813,1.813,0,0,1,.332-1.082,2.1,2.1,0,0,1,.949-.715,3.811,3.811,0,0,1,1.438-.25,9.348,9.348,0,0,1,1.324.086,6.181,6.181,0,0,1,1.191.3l-.352,1.641Zm13.164-.789h-6.516V-7.617h6.516Zm0,3.242h-6.516v-1.25h6.516Z" transform="translate(542.606 21334)" fill="#12263f"/>
    <path id="Trazado_911715" data-name="Trazado 911715" d="M5.938-10.664a6.669,6.669,0,0,1,1.527.145,2.565,2.565,0,0,1,.984.445,1.843,1.843,0,0,1,.578.762,2.775,2.775,0,0,1,.191,1.07,3.663,3.663,0,0,1-.555,2.031,3.291,3.291,0,0,1-1.5,1.266,5.77,5.77,0,0,1-2.277.406q-.8,0-1.328-.031l-.5,2.3q-.07.32-.1.492T2.91-1.41q-.02.2-.02.355a.768.768,0,0,0,.078.379.455.455,0,0,0,.234.2,2.075,2.075,0,0,0,.539.094L3.656,0H.445L.531-.383A1.066,1.066,0,0,0,.977-.535a.844.844,0,0,0,.25-.293,2.669,2.669,0,0,0,.188-.457q.086-.27.258-1.043L3-8.344a6.108,6.108,0,0,0,.172-1.234.659.659,0,0,0-.18-.531,1.016,1.016,0,0,0-.586-.172l.086-.383ZM4.5-5.219a4.915,4.915,0,0,0,1.527-.2A2.2,2.2,0,0,0,6.98-6.02a2.9,2.9,0,0,0,.574-.973,3.61,3.61,0,0,0,.2-1.234A1.719,1.719,0,0,0,7.3-9.555a2.243,2.243,0,0,0-1.531-.422q-.484,0-1.016.023L3.688-5.219Zm8.117-3.75q.094-.414.133-.66a2.928,2.928,0,0,0,.039-.457.612.612,0,0,0-.086-.355.482.482,0,0,0-.246-.176,2.467,2.467,0,0,0-.574-.078l.094-.406,1.969-.07h.461L12.484-2.523a5.9,5.9,0,0,0-.172,1.156.787.787,0,0,0,.1.453.368.368,0,0,0,.32.141.869.869,0,0,0,.5-.191,5.49,5.49,0,0,0,.75-.73l.445.438a6.814,6.814,0,0,1-1.238,1.09,2.023,2.023,0,0,1-1.074.293A1,1,0,0,1,11.3-.246,1.447,1.447,0,0,1,11-1.2a7.655,7.655,0,0,1,.219-1.516Zm9.07,1.883.719-.516.5.125L21.758-2.523a5.5,5.5,0,0,0-.172,1.156.787.787,0,0,0,.1.453.368.368,0,0,0,.32.141.869.869,0,0,0,.5-.191,5.49,5.49,0,0,0,.75-.73l.445.438A6.8,6.8,0,0,1,22.5-.191,1.96,1.96,0,0,1,21.43.125a.991.991,0,0,1-.773-.32,1.223,1.223,0,0,1-.289-.852,2.633,2.633,0,0,1,.18-.914l-.1-.031a6.889,6.889,0,0,1-1.422,1.6A2.32,2.32,0,0,1,17.6.117,1.552,1.552,0,0,1,16.27-.531a3.046,3.046,0,0,1-.473-1.82,6.524,6.524,0,0,1,.527-2.582,4.776,4.776,0,0,1,1.449-1.953A3.271,3.271,0,0,1,19.828-7.6a3.809,3.809,0,0,1,.949.113A3.318,3.318,0,0,1,21.688-7.086ZM21-4.758a4.931,4.931,0,0,0,.094-.555q.023-.234.023-.508a1.277,1.277,0,0,0-.258-.883,1.145,1.145,0,0,0-.875-.281,1.985,1.985,0,0,0-1.445.648,4.377,4.377,0,0,0-1,1.738,6.913,6.913,0,0,0-.359,2.176A2.585,2.585,0,0,0,17.4-1.207a.784.784,0,0,0,.746.4A1.515,1.515,0,0,0,19.16-1.25a6.2,6.2,0,0,0,1.023-1.27,5.537,5.537,0,0,0,.746-1.9ZM30.367-2.2,29.891,0H24.234l-.148-.383L28.359-5.3q.906-1.039,1.328-1.477l-.047-.055H27.813a2.319,2.319,0,0,0-.594.055,1.22,1.22,0,0,0-.375.191,2.2,2.2,0,0,0-.4.406,5.142,5.142,0,0,0-.48.77h-.7l.461-2.055h5.555l.148.391L27.7-2.8Q26.617-1.555,25.82-.687l.047.055h1.766a3.85,3.85,0,0,0,.719-.051,1.075,1.075,0,0,0,.438-.191,1.862,1.862,0,0,0,.387-.426,7.1,7.1,0,0,0,.5-.895ZM35.031.133a2.515,2.515,0,0,1-1.879-.68A2.671,2.671,0,0,1,32.484-2.5a6.588,6.588,0,0,1,.188-1.445,5.411,5.411,0,0,1,.813-1.937,3.916,3.916,0,0,1,1.406-1.27,3.871,3.871,0,0,1,1.836-.441,2.521,2.521,0,0,1,1.906.684,2.715,2.715,0,0,1,.656,1.957,6.62,6.62,0,0,1-.316,1.938,5.308,5.308,0,0,1-.867,1.734A3.568,3.568,0,0,1,36.789-.223,4.131,4.131,0,0,1,35.031.133Zm-1.18-2.3a1.9,1.9,0,0,0,.355,1.27,1.345,1.345,0,0,0,1.074.41,1.761,1.761,0,0,0,1.359-.687A4.943,4.943,0,0,0,37.578-3.1a8.276,8.276,0,0,0,.344-2.176,2.059,2.059,0,0,0-.328-1.27,1.21,1.21,0,0,0-1.023-.426,1.846,1.846,0,0,0-1.418.68A4.814,4.814,0,0,0,34.2-4.344,8.426,8.426,0,0,0,33.852-2.164Zm15.727.172a6.889,6.889,0,0,1-1.422,1.6,2.32,2.32,0,0,1-1.422.508A1.552,1.552,0,0,1,45.4-.531a3.046,3.046,0,0,1-.473-1.82,6.524,6.524,0,0,1,.527-2.582,4.776,4.776,0,0,1,1.449-1.953A3.271,3.271,0,0,1,48.961-7.6a3.723,3.723,0,0,1,.879.1,3.16,3.16,0,0,1,.824.34l.406-1.8q.063-.258.109-.57a3.747,3.747,0,0,0,.047-.547.612.612,0,0,0-.086-.355.482.482,0,0,0-.246-.176,2.467,2.467,0,0,0-.574-.078l.094-.406,1.961-.07h.461L50.891-2.523a5.792,5.792,0,0,0-.172,1.156.787.787,0,0,0,.1.453.368.368,0,0,0,.32.141.869.869,0,0,0,.5-.191,5.49,5.49,0,0,0,.75-.73l.445.438a6.989,6.989,0,0,1-1.211,1.07,1.946,1.946,0,0,1-1.062.313.991.991,0,0,1-.773-.32,1.223,1.223,0,0,1-.289-.852,2.632,2.632,0,0,1,.18-.914ZM50.1-4.758a5.219,5.219,0,0,0,.117-1.062,1.275,1.275,0,0,0-.258-.887,1.131,1.131,0,0,0-.859-.277,1.957,1.957,0,0,0-1.43.645,4.429,4.429,0,0,0-1,1.738,6.881,6.881,0,0,0-.363,2.18,2.585,2.585,0,0,0,.223,1.215.784.784,0,0,0,.746.4,1.26,1.26,0,0,0,.492-.105,1.985,1.985,0,0,0,.52-.34,4.055,4.055,0,0,0,.531-.57q.262-.336.48-.676a4.82,4.82,0,0,0,.406-.8,6.443,6.443,0,0,0,.32-1.121Zm9.82,3.2A5.939,5.939,0,0,1,58.387-.3a3.733,3.733,0,0,1-1.809.422,2.236,2.236,0,0,1-1.754-.691A2.78,2.78,0,0,1,54.2-2.492a6,6,0,0,1,.3-1.793A5.239,5.239,0,0,1,55.414-6a4.254,4.254,0,0,1,1.461-1.18A4.06,4.06,0,0,1,58.688-7.6a2.22,2.22,0,0,1,1.418.383,1.448,1.448,0,0,1,.473,1.2,2.135,2.135,0,0,1-1.246,1.992,8.1,8.1,0,0,1-3.7.664,5.18,5.18,0,0,0-.094,1.016,1.806,1.806,0,0,0,.32,1.191,1.316,1.316,0,0,0,1.047.371,2.706,2.706,0,0,0,1.3-.312,5.434,5.434,0,0,0,1.23-.961ZM55.766-4.031a8.37,8.37,0,0,0,1.891-.2,2.53,2.53,0,0,0,1.211-.609,1.518,1.518,0,0,0,.422-1.129,1.138,1.138,0,0,0-.223-.746.807.807,0,0,0-.66-.27,2.084,2.084,0,0,0-1.52.8A5.309,5.309,0,0,0,55.766-4.031Zm11.656-.9a5.526,5.526,0,0,0,.164-1.18.787.787,0,0,0-.1-.453.368.368,0,0,0-.32-.141.874.874,0,0,0-.512.2,5.607,5.607,0,0,0-.738.723l-.445-.437A7.627,7.627,0,0,1,66.66-7.277,1.914,1.914,0,0,1,67.742-7.6a.979.979,0,0,1,.77.32,1.233,1.233,0,0,1,.285.852,2.651,2.651,0,0,1-.18.922l.094.031q1.445-2.117,2.875-2.117a1.544,1.544,0,0,1,1.324.648,3.061,3.061,0,0,1,.473,1.828,6.533,6.533,0,0,1-.52,2.535A4.83,4.83,0,0,1,71.422-.605a3.238,3.238,0,0,1-2.062.73,3.075,3.075,0,0,1-1.727-.453l-.359,1.711a4.6,4.6,0,0,0-.117.914.6.6,0,0,0,.176.488,1.339,1.339,0,0,0,.684.191l-.062.383H65.539Zm.789,2.211q-.078.414-.1.633t-.02.43a1.262,1.262,0,0,0,.262.887,1.207,1.207,0,0,0,.9.277,1.72,1.72,0,0,0,.734-.156,2.277,2.277,0,0,0,.637-.453,3.334,3.334,0,0,0,.543-.719,5.647,5.647,0,0,0,.434-.98,7.128,7.128,0,0,0,.289-1.148,6.788,6.788,0,0,0,.1-1.105,2.531,2.531,0,0,0-.23-1.223.781.781,0,0,0-.73-.4,1.361,1.361,0,0,0-.785.27,4.166,4.166,0,0,0-.848.863,5.738,5.738,0,0,0-.719,1.172,6.233,6.233,0,0,0-.406,1.328Zm9.461-2.867a6.511,6.511,0,0,1,1.473-1.523,2.515,2.515,0,0,1,1.434-.484,4.445,4.445,0,0,1,.953.086l-.375,1.75h-.8a1.808,1.808,0,0,0-.133-.508.563.563,0,0,0-.2-.25.569.569,0,0,0-.3-.07,1.067,1.067,0,0,0-.613.242,4.2,4.2,0,0,0-.746.758,6.006,6.006,0,0,0-.66.992,5.079,5.079,0,0,0-.41,1.211L76.547,0H75.2l1.133-4.953a7.316,7.316,0,0,0,.141-.727,3.686,3.686,0,0,0,.031-.43.787.787,0,0,0-.1-.453.368.368,0,0,0-.32-.141.874.874,0,0,0-.512.2,5.607,5.607,0,0,0-.738.723l-.445-.437a7.51,7.51,0,0,1,1.2-1.066,1.916,1.916,0,0,1,1.07-.316.982.982,0,0,1,.777.324,1.236,1.236,0,0,1,.285.848,2.378,2.378,0,0,1-.148.8ZM85.219.133a2.515,2.515,0,0,1-1.879-.68A2.671,2.671,0,0,1,82.672-2.5a6.588,6.588,0,0,1,.188-1.445,5.411,5.411,0,0,1,.813-1.937,3.916,3.916,0,0,1,1.406-1.27,3.871,3.871,0,0,1,1.836-.441,2.521,2.521,0,0,1,1.906.684,2.715,2.715,0,0,1,.656,1.957,6.62,6.62,0,0,1-.316,1.938,5.308,5.308,0,0,1-.867,1.734A3.568,3.568,0,0,1,86.977-.223,4.131,4.131,0,0,1,85.219.133Zm-1.18-2.3a1.9,1.9,0,0,0,.355,1.27,1.345,1.345,0,0,0,1.074.41,1.761,1.761,0,0,0,1.359-.687A4.943,4.943,0,0,0,87.766-3.1a8.276,8.276,0,0,0,.344-2.176,2.059,2.059,0,0,0-.328-1.27,1.211,1.211,0,0,0-1.023-.426,1.846,1.846,0,0,0-1.418.68,4.814,4.814,0,0,0-.953,1.945A8.426,8.426,0,0,0,84.039-2.164Zm9.078,2.3A.617.617,0,0,1,92.738.02a.8.8,0,0,1-.246-.32,1.775,1.775,0,0,1-.133-.488,4.5,4.5,0,0,1-.039-.617,8.928,8.928,0,0,1,.055-.953q.055-.508.141-1.023l.328-2.164q.031-.187.051-.355a2.382,2.382,0,0,0,.02-.246.89.89,0,0,0-.078-.4A.273.273,0,0,0,92.57-6.7a.7.7,0,0,0-.32.09,2.168,2.168,0,0,0-.348.23q-.176.141-.34.3t-.3.3l-.375-.437q.242-.25.516-.5a4.744,4.744,0,0,1,.578-.445,3.069,3.069,0,0,1,.641-.32A2.013,2.013,0,0,1,93.3-7.6a1.047,1.047,0,0,1,.484.1.765.765,0,0,1,.293.258,1,1,0,0,1,.145.352,1.891,1.891,0,0,1,.039.379q0,.109-.008.211a1.842,1.842,0,0,1-.023.188L93.8-3.289q-.07.445-.117.871a6.979,6.979,0,0,0-.047.754,2.916,2.916,0,0,0,.039.531q.039.2.148.2a1.469,1.469,0,0,0,.648-.207,4.7,4.7,0,0,0,.82-.57,7.864,7.864,0,0,0,.859-.859,7.459,7.459,0,0,0,.773-1.074,6.293,6.293,0,0,0,.559-1.219A4.031,4.031,0,0,0,97.7-6.148a.682.682,0,0,0-.121-.434.455.455,0,0,0-.379-.152.88.88,0,0,0-.605.254,4.316,4.316,0,0,0-.574.668l-.445-.4a3.672,3.672,0,0,1,.441-.539,3.657,3.657,0,0,1,.539-.453,2.859,2.859,0,0,1,.59-.312,1.648,1.648,0,0,1,.594-.117,1.014,1.014,0,0,1,.813.293,1.169,1.169,0,0,1,.25.785,3.3,3.3,0,0,1-.133.859,7.08,7.08,0,0,1-.375,1.023,11.053,11.053,0,0,1-.578,1.105,11.651,11.651,0,0,1-.742,1.1A10.761,10.761,0,0,1,96.1-1.457a6.965,6.965,0,0,1-.957.824,4.968,4.968,0,0,1-1.008.559A2.7,2.7,0,0,1,93.117.133Zm12.461-1.687A5.939,5.939,0,0,1,104.043-.3a3.733,3.733,0,0,1-1.809.422,2.236,2.236,0,0,1-1.754-.691,2.78,2.78,0,0,1-.621-1.926,6,6,0,0,1,.3-1.793A5.239,5.239,0,0,1,101.07-6a4.254,4.254,0,0,1,1.461-1.18,4.06,4.06,0,0,1,1.813-.418,2.22,2.22,0,0,1,1.418.383,1.448,1.448,0,0,1,.473,1.2,2.135,2.135,0,0,1-1.246,1.992,8.1,8.1,0,0,1-3.7.664,5.18,5.18,0,0,0-.094,1.016,1.806,1.806,0,0,0,.32,1.191,1.316,1.316,0,0,0,1.047.371,2.706,2.706,0,0,0,1.3-.312,5.434,5.434,0,0,0,1.23-.961Zm-4.156-2.477a8.37,8.37,0,0,0,1.891-.2,2.53,2.53,0,0,0,1.211-.609,1.518,1.518,0,0,0,.422-1.129,1.138,1.138,0,0,0-.223-.746.807.807,0,0,0-.66-.27,2.084,2.084,0,0,0-1.52.8A5.309,5.309,0,0,0,101.422-4.031Zm12.094,2.477A5.939,5.939,0,0,1,111.98-.3a3.733,3.733,0,0,1-1.809.422,2.236,2.236,0,0,1-1.754-.691,2.78,2.78,0,0,1-.621-1.926,6,6,0,0,1,.3-1.793A5.239,5.239,0,0,1,109.008-6a4.254,4.254,0,0,1,1.461-1.18,4.06,4.06,0,0,1,1.813-.418,2.22,2.22,0,0,1,1.418.383,1.448,1.448,0,0,1,.473,1.2,2.135,2.135,0,0,1-1.246,1.992,8.1,8.1,0,0,1-3.7.664,5.18,5.18,0,0,0-.094,1.016,1.806,1.806,0,0,0,.32,1.191,1.316,1.316,0,0,0,1.047.371,2.706,2.706,0,0,0,1.3-.312,5.434,5.434,0,0,0,1.23-.961Zm-4.156-2.477a8.37,8.37,0,0,0,1.891-.2,2.53,2.53,0,0,0,1.211-.609,1.518,1.518,0,0,0,.422-1.129,1.138,1.138,0,0,0-.223-.746.807.807,0,0,0-.66-.27,2.084,2.084,0,0,0-1.52.8A5.309,5.309,0,0,0,109.359-4.031Zm11.023,2.039a6.889,6.889,0,0,1-1.422,1.6,2.32,2.32,0,0,1-1.422.508,1.552,1.552,0,0,1-1.332-.648,3.046,3.046,0,0,1-.473-1.82,6.524,6.524,0,0,1,.527-2.582,4.776,4.776,0,0,1,1.449-1.953,3.271,3.271,0,0,1,2.055-.715,3.723,3.723,0,0,1,.879.1,3.16,3.16,0,0,1,.824.34l.406-1.8q.062-.258.109-.57a3.747,3.747,0,0,0,.047-.547.612.612,0,0,0-.086-.355.482.482,0,0,0-.246-.176,2.467,2.467,0,0,0-.574-.078l.094-.406,1.961-.07h.461L121.7-2.523a5.792,5.792,0,0,0-.172,1.156.787.787,0,0,0,.1.453.368.368,0,0,0,.32.141.869.869,0,0,0,.5-.191,5.49,5.49,0,0,0,.75-.73l.445.438a6.989,6.989,0,0,1-1.211,1.07,1.946,1.946,0,0,1-1.062.313.991.991,0,0,1-.773-.32,1.223,1.223,0,0,1-.289-.852,2.633,2.633,0,0,1,.18-.914Zm.523-2.766a5.219,5.219,0,0,0,.117-1.062,1.275,1.275,0,0,0-.258-.887,1.131,1.131,0,0,0-.859-.277,1.957,1.957,0,0,0-1.43.645,4.429,4.429,0,0,0-1,1.738,6.881,6.881,0,0,0-.363,2.18,2.585,2.585,0,0,0,.223,1.215.784.784,0,0,0,.746.4,1.26,1.26,0,0,0,.492-.105,1.985,1.985,0,0,0,.52-.34,4.054,4.054,0,0,0,.531-.57q.262-.336.48-.676a4.82,4.82,0,0,0,.406-.8,6.442,6.442,0,0,0,.32-1.121ZM127.594.133a2.515,2.515,0,0,1-1.879-.68,2.671,2.671,0,0,1-.668-1.953,6.588,6.588,0,0,1,.188-1.445,5.411,5.411,0,0,1,.813-1.937,3.916,3.916,0,0,1,1.406-1.27,3.871,3.871,0,0,1,1.836-.441,2.521,2.521,0,0,1,1.906.684,2.715,2.715,0,0,1,.656,1.957,6.62,6.62,0,0,1-.316,1.938,5.308,5.308,0,0,1-.867,1.734,3.568,3.568,0,0,1-1.316,1.059A4.131,4.131,0,0,1,127.594.133Zm-1.18-2.3a1.9,1.9,0,0,0,.355,1.27,1.345,1.345,0,0,0,1.074.41,1.761,1.761,0,0,0,1.359-.687,4.943,4.943,0,0,0,.938-1.926,8.276,8.276,0,0,0,.344-2.176,2.059,2.059,0,0,0-.328-1.27,1.21,1.21,0,0,0-1.023-.426,1.846,1.846,0,0,0-1.418.68,4.814,4.814,0,0,0-.953,1.945A8.426,8.426,0,0,0,126.414-2.164Zm9.766-3.422a6.511,6.511,0,0,1,1.473-1.523,2.515,2.515,0,0,1,1.434-.484,4.445,4.445,0,0,1,.953.086l-.375,1.75h-.8a1.808,1.808,0,0,0-.133-.508.563.563,0,0,0-.2-.25.569.569,0,0,0-.3-.07,1.067,1.067,0,0,0-.613.242,4.2,4.2,0,0,0-.746.758,6.005,6.005,0,0,0-.66.992,5.079,5.079,0,0,0-.41,1.211L135.055,0H133.7l1.133-4.953a7.312,7.312,0,0,0,.141-.727,3.687,3.687,0,0,0,.031-.43.787.787,0,0,0-.1-.453.368.368,0,0,0-.32-.141.874.874,0,0,0-.512.2,5.607,5.607,0,0,0-.738.723l-.445-.437a7.51,7.51,0,0,1,1.2-1.066,1.916,1.916,0,0,1,1.07-.316.982.982,0,0,1,.777.324,1.236,1.236,0,0,1,.285.848,2.378,2.378,0,0,1-.148.8Zm10.68,4.031A5.939,5.939,0,0,1,145.324-.3a3.733,3.733,0,0,1-1.809.422,2.236,2.236,0,0,1-1.754-.691,2.78,2.78,0,0,1-.621-1.926,6,6,0,0,1,.3-1.793A5.239,5.239,0,0,1,142.352-6a4.254,4.254,0,0,1,1.461-1.18,4.06,4.06,0,0,1,1.813-.418,2.22,2.22,0,0,1,1.418.383,1.448,1.448,0,0,1,.473,1.2,2.135,2.135,0,0,1-1.246,1.992,8.1,8.1,0,0,1-3.7.664,5.18,5.18,0,0,0-.094,1.016,1.806,1.806,0,0,0,.32,1.191,1.316,1.316,0,0,0,1.047.371,2.706,2.706,0,0,0,1.3-.312,5.434,5.434,0,0,0,1.23-.961ZM142.7-4.031a8.37,8.37,0,0,0,1.891-.2A2.53,2.53,0,0,0,145.8-4.84a1.518,1.518,0,0,0,.422-1.129A1.138,1.138,0,0,0,146-6.715a.807.807,0,0,0-.66-.27,2.084,2.084,0,0,0-1.52.8A5.309,5.309,0,0,0,142.7-4.031ZM154.148-5.57a1.71,1.71,0,0,0-.457-1.055,1.629,1.629,0,0,0-1.168-.359,1.519,1.519,0,0,0-1,.316,1.027,1.027,0,0,0-.383.832,1.188,1.188,0,0,0,.1.5,1.5,1.5,0,0,0,.395.473,6.87,6.87,0,0,0,.922.633,6.6,6.6,0,0,1,.789.543,2.618,2.618,0,0,1,.469.488,1.7,1.7,0,0,1,.25.512,2.368,2.368,0,0,1,.078.652,1.933,1.933,0,0,1-.371,1.191,2.2,2.2,0,0,1-1.008.738,4.055,4.055,0,0,1-1.449.242,8.237,8.237,0,0,1-1.273-.1A10.165,10.165,0,0,1,148.648-.3l.375-1.7h.609a1.618,1.618,0,0,0,.422,1.133,1.722,1.722,0,0,0,1.242.383,1.82,1.82,0,0,0,1.16-.332,1.133,1.133,0,0,0,.418-.941,1.435,1.435,0,0,0-.117-.605,1.5,1.5,0,0,0-.383-.488,6.285,6.285,0,0,0-.844-.586,6.85,6.85,0,0,1-.949-.664,2.093,2.093,0,0,1-.512-.645,1.785,1.785,0,0,1-.172-.8,1.813,1.813,0,0,1,.332-1.082,2.1,2.1,0,0,1,.949-.715,3.811,3.811,0,0,1,1.438-.25,9.348,9.348,0,0,1,1.324.086,6.181,6.181,0,0,1,1.191.3l-.352,1.641Z" transform="translate(752 21345.5)" fill="#12263f"/>
    <path id="Trazado_911499" data-name="Trazado 911499" d="M-3935.606,175H-3764.8" transform="translate(4679.795 21153.5)" fill="none" stroke="#707070" stroke-width="1"/>
    <path id="Trazado_911714" data-name="Trazado 911714" d="M5.453-10.664a8.305,8.305,0,0,1,1.914.18,3.833,3.833,0,0,1,1.371.648A2.866,2.866,0,0,1,9.7-8.59a4.813,4.813,0,0,1,.32,1.84,8.218,8.218,0,0,1-.242,2.016,7.2,7.2,0,0,1-.7,1.77A5.854,5.854,0,0,1,7.992-1.559a5.909,5.909,0,0,1-1.227.918,5.047,5.047,0,0,1-1.328.48A8.1,8.1,0,0,1,3.727,0H.445L.531-.383A1.066,1.066,0,0,0,.977-.535a.844.844,0,0,0,.25-.293,2.669,2.669,0,0,0,.188-.457q.086-.27.258-1.043L3-8.344A6.159,6.159,0,0,0,3.172-9.6a.617.617,0,0,0-.184-.512,1.045,1.045,0,0,0-.582-.168l.086-.383ZM2.711-.719q.227.023.867.023a4.766,4.766,0,0,0,2.148-.441A4.032,4.032,0,0,0,7.25-2.52,7,7,0,0,0,8.2-4.5a7.8,7.8,0,0,0,.3-2.2A3.506,3.506,0,0,0,7.738-9.16a2.93,2.93,0,0,0-2.262-.824q-.344,0-.742.023ZM13.742,0H12.289V-8.453h1.453Zm.016-11.977h1.75l-2.094,2.3-1.164,0Zm7.984,4.891.719-.516.5.125L21.813-2.523a5.5,5.5,0,0,0-.172,1.156.787.787,0,0,0,.1.453.368.368,0,0,0,.32.141.869.869,0,0,0,.5-.191,5.49,5.49,0,0,0,.75-.73l.445.438a6.8,6.8,0,0,1-1.2,1.066,1.96,1.96,0,0,1-1.074.316.991.991,0,0,1-.773-.32,1.223,1.223,0,0,1-.289-.852,2.633,2.633,0,0,1,.18-.914l-.1-.031a6.889,6.889,0,0,1-1.422,1.6,2.32,2.32,0,0,1-1.422.508,1.552,1.552,0,0,1-1.332-.648,3.046,3.046,0,0,1-.473-1.82,6.524,6.524,0,0,1,.527-2.582,4.776,4.776,0,0,1,1.449-1.953A3.271,3.271,0,0,1,19.883-7.6a3.809,3.809,0,0,1,.949.113A3.318,3.318,0,0,1,21.742-7.086Zm-.687,2.328a4.931,4.931,0,0,0,.094-.555q.023-.234.023-.508a1.277,1.277,0,0,0-.258-.883,1.145,1.145,0,0,0-.875-.281,1.985,1.985,0,0,0-1.445.648,4.377,4.377,0,0,0-1,1.738,6.913,6.913,0,0,0-.359,2.176,2.585,2.585,0,0,0,.223,1.215.784.784,0,0,0,.746.4,1.515,1.515,0,0,0,1.012-.445,6.2,6.2,0,0,0,1.023-1.27,5.537,5.537,0,0,0,.746-1.9Zm8.781-.812a1.71,1.71,0,0,0-.457-1.055,1.629,1.629,0,0,0-1.168-.359,1.519,1.519,0,0,0-1,.316,1.027,1.027,0,0,0-.383.832,1.188,1.188,0,0,0,.1.5,1.5,1.5,0,0,0,.395.473,6.87,6.87,0,0,0,.922.633,6.6,6.6,0,0,1,.789.543A2.619,2.619,0,0,1,29.5-3.2a1.7,1.7,0,0,1,.25.512,2.368,2.368,0,0,1,.078.652,1.933,1.933,0,0,1-.371,1.191,2.2,2.2,0,0,1-1.008.738A4.055,4.055,0,0,1,27,.133a8.237,8.237,0,0,1-1.273-.1A10.165,10.165,0,0,1,24.336-.3L24.711-2h.609a1.618,1.618,0,0,0,.422,1.133,1.722,1.722,0,0,0,1.242.383,1.82,1.82,0,0,0,1.16-.332,1.133,1.133,0,0,0,.418-.941,1.435,1.435,0,0,0-.117-.605,1.5,1.5,0,0,0-.383-.488,6.286,6.286,0,0,0-.844-.586A6.85,6.85,0,0,1,26.27-4.1a2.093,2.093,0,0,1-.512-.645,1.784,1.784,0,0,1-.172-.8,1.813,1.813,0,0,1,.332-1.082,2.1,2.1,0,0,1,.949-.715,3.811,3.811,0,0,1,1.438-.25,9.348,9.348,0,0,1,1.324.086,6.181,6.181,0,0,1,1.191.3L30.469-5.57Zm10.93,3.578a6.889,6.889,0,0,1-1.422,1.6,2.32,2.32,0,0,1-1.422.508A1.552,1.552,0,0,1,36.59-.531a3.046,3.046,0,0,1-.473-1.82,6.524,6.524,0,0,1,.527-2.582,4.776,4.776,0,0,1,1.449-1.953A3.271,3.271,0,0,1,40.148-7.6a3.723,3.723,0,0,1,.879.1,3.16,3.16,0,0,1,.824.34l.406-1.8q.063-.258.109-.57a3.747,3.747,0,0,0,.047-.547.612.612,0,0,0-.086-.355.482.482,0,0,0-.246-.176,2.467,2.467,0,0,0-.574-.078L41.6-11.1l1.961-.07h.461L42.078-2.523a5.792,5.792,0,0,0-.172,1.156.787.787,0,0,0,.1.453.368.368,0,0,0,.32.141.869.869,0,0,0,.5-.191,5.49,5.49,0,0,0,.75-.73l.445.438a6.989,6.989,0,0,1-1.211,1.07A1.946,1.946,0,0,1,41.75.125a.991.991,0,0,1-.773-.32,1.223,1.223,0,0,1-.289-.852,2.632,2.632,0,0,1,.18-.914Zm.523-2.766a5.219,5.219,0,0,0,.117-1.062,1.275,1.275,0,0,0-.258-.887,1.131,1.131,0,0,0-.859-.277,1.957,1.957,0,0,0-1.43.645,4.429,4.429,0,0,0-1,1.738,6.881,6.881,0,0,0-.363,2.18,2.585,2.585,0,0,0,.223,1.215.784.784,0,0,0,.746.4,1.26,1.26,0,0,0,.492-.105,1.985,1.985,0,0,0,.52-.34,4.055,4.055,0,0,0,.531-.57q.262-.336.48-.676a4.82,4.82,0,0,0,.406-.8,6.443,6.443,0,0,0,.32-1.121Zm9.82,3.2A5.939,5.939,0,0,1,49.574-.3a3.733,3.733,0,0,1-1.809.422,2.236,2.236,0,0,1-1.754-.691,2.78,2.78,0,0,1-.621-1.926,6,6,0,0,1,.3-1.793A5.239,5.239,0,0,1,46.6-6a4.254,4.254,0,0,1,1.461-1.18A4.06,4.06,0,0,1,49.875-7.6a2.22,2.22,0,0,1,1.418.383,1.448,1.448,0,0,1,.473,1.2A2.135,2.135,0,0,1,50.52-4.031a8.1,8.1,0,0,1-3.7.664,5.18,5.18,0,0,0-.094,1.016,1.806,1.806,0,0,0,.32,1.191,1.316,1.316,0,0,0,1.047.371,2.706,2.706,0,0,0,1.3-.312,5.434,5.434,0,0,0,1.23-.961ZM46.953-4.031a8.37,8.37,0,0,0,1.891-.2,2.53,2.53,0,0,0,1.211-.609,1.518,1.518,0,0,0,.422-1.129,1.138,1.138,0,0,0-.223-.746.807.807,0,0,0-.66-.27,2.084,2.084,0,0,0-1.52.8A5.309,5.309,0,0,0,46.953-4.031ZM55.2-8.969q.094-.414.133-.66a2.927,2.927,0,0,0,.039-.457.612.612,0,0,0-.086-.355.482.482,0,0,0-.246-.176,2.467,2.467,0,0,0-.574-.078l.094-.406,1.969-.07h.461L55.07-2.523A5.9,5.9,0,0,0,54.9-1.367a.787.787,0,0,0,.1.453.368.368,0,0,0,.32.141.869.869,0,0,0,.5-.191,5.49,5.49,0,0,0,.75-.73l.445.438a6.814,6.814,0,0,1-1.238,1.09A2.023,2.023,0,0,1,54.7.125a1,1,0,0,1-.812-.371,1.447,1.447,0,0,1-.3-.949A7.655,7.655,0,0,1,53.8-2.711ZM68.234-7.086l.719-.516.5.125L68.3-2.523a5.5,5.5,0,0,0-.172,1.156.787.787,0,0,0,.1.453.368.368,0,0,0,.32.141.869.869,0,0,0,.5-.191,5.49,5.49,0,0,0,.75-.73l.445.438a6.8,6.8,0,0,1-1.2,1.066,1.96,1.96,0,0,1-1.074.316A.991.991,0,0,1,67.2-.2a1.223,1.223,0,0,1-.289-.852,2.633,2.633,0,0,1,.18-.914l-.1-.031a6.889,6.889,0,0,1-1.422,1.6,2.32,2.32,0,0,1-1.422.508,1.552,1.552,0,0,1-1.332-.648,3.046,3.046,0,0,1-.473-1.82,6.524,6.524,0,0,1,.527-2.582A4.776,4.776,0,0,1,64.32-6.887,3.271,3.271,0,0,1,66.375-7.6a3.809,3.809,0,0,1,.949.113A3.318,3.318,0,0,1,68.234-7.086Zm-.687,2.328a4.931,4.931,0,0,0,.094-.555q.023-.234.023-.508a1.277,1.277,0,0,0-.258-.883,1.145,1.145,0,0,0-.875-.281,1.985,1.985,0,0,0-1.445.648,4.377,4.377,0,0,0-1,1.738,6.913,6.913,0,0,0-.359,2.176,2.585,2.585,0,0,0,.223,1.215.784.784,0,0,0,.746.4,1.515,1.515,0,0,0,1.012-.445A6.2,6.2,0,0,0,66.73-2.52a5.537,5.537,0,0,0,.746-1.9Zm5.352-3.7.047,1.063a3.08,3.08,0,0,1,2.531-1.219q2.68,0,2.7,3.023V0H76.734V-5.594a1.946,1.946,0,0,0-.418-1.352,1.675,1.675,0,0,0-1.277-.437,2.086,2.086,0,0,0-1.234.375,2.546,2.546,0,0,0-.828.984V0H71.531V-8.453Zm4.781-3.3a1.942,1.942,0,0,1-.48,1.367,1.561,1.561,0,0,1-1.2.523,1.76,1.76,0,0,1-.555-.078,2.993,2.993,0,0,1-.613-.32,2.656,2.656,0,0,0-.547-.293A1.338,1.338,0,0,0,73.9-10.6a.717.717,0,0,0-.547.246.892.892,0,0,0-.227.629l-.969-.055a2.039,2.039,0,0,1,.473-1.383,1.516,1.516,0,0,1,1.2-.547,1.457,1.457,0,0,1,.492.078,3.587,3.587,0,0,1,.594.3,3.494,3.494,0,0,0,.574.3,1.319,1.319,0,0,0,.441.07.7.7,0,0,0,.559-.266.932.932,0,0,0,.223-.617ZM82.672.133a2.515,2.515,0,0,1-1.879-.68A2.671,2.671,0,0,1,80.125-2.5a6.588,6.588,0,0,1,.188-1.445,5.411,5.411,0,0,1,.813-1.937,3.916,3.916,0,0,1,1.406-1.27,3.871,3.871,0,0,1,1.836-.441,2.521,2.521,0,0,1,1.906.684,2.715,2.715,0,0,1,.656,1.957,6.62,6.62,0,0,1-.316,1.938,5.308,5.308,0,0,1-.867,1.734A3.568,3.568,0,0,1,84.43-.223,4.131,4.131,0,0,1,82.672.133Zm-1.18-2.3a1.9,1.9,0,0,0,.355,1.27,1.345,1.345,0,0,0,1.074.41,1.761,1.761,0,0,0,1.359-.687A4.943,4.943,0,0,0,85.219-3.1a8.276,8.276,0,0,0,.344-2.176,2.059,2.059,0,0,0-.328-1.27,1.211,1.211,0,0,0-1.023-.426,1.846,1.846,0,0,0-1.418.68,4.814,4.814,0,0,0-.953,1.945A8.426,8.426,0,0,0,81.492-2.164Z" transform="translate(777 21320)" fill="#12263f"/>
    <path id="Trazado_911717" data-name="Trazado 911717" d="M7.7-6.359H1.188V-7.617H7.7Zm0,3.242H1.188v-1.25H7.7Z" transform="translate(926.606 21334)" fill="#12263f"/>
    <path id="Trazado_911718" data-name="Trazado 911718" d="M6.617-11.383v1.227H6.352a3.805,3.805,0,0,0-2.687,1A4.161,4.161,0,0,0,2.508-6.43,3.085,3.085,0,0,1,4.961-7.461,2.95,2.95,0,0,1,7.332-6.414a4.038,4.038,0,0,1,.887,2.7A4.025,4.025,0,0,1,7.262-.9,3.3,3.3,0,0,1,4.7.156,3.247,3.247,0,0,1,2.047-1.1a4.97,4.97,0,0,1-1.016-3.23v-.555a7.488,7.488,0,0,1,1.34-4.8,4.921,4.921,0,0,1,3.988-1.7Zm-1.9,5.125a2.306,2.306,0,0,0-1.367.445A2.32,2.32,0,0,0,2.484-4.7v.531A3.731,3.731,0,0,0,3.117-1.9,1.9,1.9,0,0,0,4.7-1.039,1.838,1.838,0,0,0,6.23-1.758a2.982,2.982,0,0,0,.559-1.883,2.983,2.983,0,0,0-.566-1.895A1.816,1.816,0,0,0,4.719-6.258ZM17.063-4.852A6.61,6.61,0,0,1,16.2-1.078,3.084,3.084,0,0,1,13.484.156a3.107,3.107,0,0,1-2.7-1.207,6.274,6.274,0,0,1-.906-3.605v-1.93a6.463,6.463,0,0,1,.867-3.727,3.108,3.108,0,0,1,2.719-1.219,3.136,3.136,0,0,1,2.7,1.176,6.237,6.237,0,0,1,.891,3.629ZM15.617-6.828A5.3,5.3,0,0,0,15.1-9.5a1.775,1.775,0,0,0-1.633-.84,1.751,1.751,0,0,0-1.617.836,5.171,5.171,0,0,0-.523,2.57v2.313A5.381,5.381,0,0,0,11.863-1.9a1.771,1.771,0,0,0,1.621.879,1.747,1.747,0,0,0,1.59-.828,5.186,5.186,0,0,0,.543-2.609Z" transform="translate(953.5 21345.5)" fill="#12263f"/>
    <path id="Trazado_911509" data-name="Trazado 911509" d="M-3935.606,175h48.217" transform="translate(4876.795 21153.5)" fill="none" stroke="#707070" stroke-width="1"/>
    <path id="Trazado_911716" data-name="Trazado 911716" d="M3.047-6.391H4.133A2.387,2.387,0,0,0,5.742-6.93a1.8,1.8,0,0,0,.586-1.414,1.764,1.764,0,0,0-1.992-2,2.072,2.072,0,0,0-1.5.535,1.873,1.873,0,0,0-.559,1.418H.836a2.9,2.9,0,0,1,.988-2.246,3.6,3.6,0,0,1,2.512-.895,3.558,3.558,0,0,1,2.523.852,3.076,3.076,0,0,1,.914,2.367,2.5,2.5,0,0,1-.48,1.438A2.9,2.9,0,0,1,5.984-5.836a2.8,2.8,0,0,1,1.449.984,2.734,2.734,0,0,1,.512,1.68,3.1,3.1,0,0,1-1,2.43,3.745,3.745,0,0,1-2.6.9A3.844,3.844,0,0,1,1.738-.711,2.877,2.877,0,0,1,.734-3H2.188a1.859,1.859,0,0,0,.586,1.438,2.229,2.229,0,0,0,1.57.539,2.187,2.187,0,0,0,1.6-.547A2.108,2.108,0,0,0,6.5-3.141a1.912,1.912,0,0,0-.609-1.523,2.655,2.655,0,0,0-1.758-.547H3.047ZM15.6-11.383v1.227h-.266a3.805,3.805,0,0,0-2.687,1A4.161,4.161,0,0,0,11.492-6.43a3.085,3.085,0,0,1,2.453-1.031,2.95,2.95,0,0,1,2.371,1.047,4.038,4.038,0,0,1,.887,2.7A4.025,4.025,0,0,1,16.246-.9,3.3,3.3,0,0,1,13.68.156,3.247,3.247,0,0,1,11.031-1.1a4.97,4.97,0,0,1-1.016-3.23v-.555a7.488,7.488,0,0,1,1.34-4.8,4.921,4.921,0,0,1,3.988-1.7ZM13.7-6.258a2.306,2.306,0,0,0-1.367.445A2.32,2.32,0,0,0,11.469-4.7v.531A3.731,3.731,0,0,0,12.1-1.9a1.9,1.9,0,0,0,1.578.859,1.838,1.838,0,0,0,1.535-.719,2.982,2.982,0,0,0,.559-1.883,2.983,2.983,0,0,0-.566-1.895A1.816,1.816,0,0,0,13.7-6.258ZM26.047-4.852a6.61,6.61,0,0,1-.867,3.773A3.084,3.084,0,0,1,22.469.156a3.107,3.107,0,0,1-2.7-1.207,6.274,6.274,0,0,1-.906-3.605v-1.93a6.463,6.463,0,0,1,.867-3.727,3.108,3.108,0,0,1,2.719-1.219,3.136,3.136,0,0,1,2.7,1.176,6.237,6.237,0,0,1,.891,3.629ZM24.6-6.828A5.3,5.3,0,0,0,24.086-9.5a1.775,1.775,0,0,0-1.633-.84,1.751,1.751,0,0,0-1.617.836,5.171,5.171,0,0,0-.523,2.57v2.313A5.381,5.381,0,0,0,20.848-1.9a1.771,1.771,0,0,0,1.621.879,1.747,1.747,0,0,0,1.59-.828A5.186,5.186,0,0,0,24.6-4.461Z" transform="translate(949 21320)" fill="#12263f"/>
    <path id="Trazado_911719" data-name="Trazado 911719" d="M7.7-6.359H1.188V-7.617H7.7Zm0,3.242H1.188v-1.25H7.7Z" transform="translate(1000 21334)" fill="#12263f"/>
    <path id="Trazado_911720" data-name="Trazado 911720" d="M6.617-11.383v1.227H6.352a3.805,3.805,0,0,0-2.687,1A4.161,4.161,0,0,0,2.508-6.43,3.085,3.085,0,0,1,4.961-7.461,2.95,2.95,0,0,1,7.332-6.414a4.038,4.038,0,0,1,.887,2.7A4.025,4.025,0,0,1,7.262-.9,3.3,3.3,0,0,1,4.7.156,3.247,3.247,0,0,1,2.047-1.1a4.97,4.97,0,0,1-1.016-3.23v-.555a7.488,7.488,0,0,1,1.34-4.8,4.921,4.921,0,0,1,3.988-1.7Zm-1.9,5.125a2.306,2.306,0,0,0-1.367.445A2.32,2.32,0,0,0,2.484-4.7v.531A3.731,3.731,0,0,0,3.117-1.9,1.9,1.9,0,0,0,4.7-1.039,1.838,1.838,0,0,0,6.23-1.758a2.982,2.982,0,0,0,.559-1.883,2.983,2.983,0,0,0-.566-1.895A1.816,1.816,0,0,0,4.719-6.258Z" transform="translate(1018 21333)" fill="#12263f"/>
    <path id="Trazado_911723" data-name="Trazado 911723" d="M6.617-11.383v1.227H6.352a3.805,3.805,0,0,0-2.687,1A4.161,4.161,0,0,0,2.508-6.43,3.085,3.085,0,0,1,4.961-7.461,2.95,2.95,0,0,1,7.332-6.414a4.038,4.038,0,0,1,.887,2.7A4.025,4.025,0,0,1,7.262-.9,3.3,3.3,0,0,1,4.7.156,3.247,3.247,0,0,1,2.047-1.1a4.97,4.97,0,0,1-1.016-3.23v-.555a7.488,7.488,0,0,1,1.34-4.8,4.921,4.921,0,0,1,3.988-1.7Zm-1.9,5.125a2.306,2.306,0,0,0-1.367.445A2.32,2.32,0,0,0,2.484-4.7v.531A3.731,3.731,0,0,0,3.117-1.9,1.9,1.9,0,0,0,4.7-1.039,1.838,1.838,0,0,0,6.23-1.758a2.982,2.982,0,0,0,.559-1.883,2.983,2.983,0,0,0-.566-1.895A1.816,1.816,0,0,0,4.719-6.258Z" transform="translate(819 21416.5)" fill="#12263f"/>
    <path id="Trazado_911510" data-name="Trazado 911510" d="M-3935.606,175H-3764.8" transform="translate(4679.795 21224.5)" fill="none" stroke="#707070" stroke-width="1"/>
    <path id="Trazado_911722" data-name="Trazado 911722" d="M5.7,0H4.242V-9.633L1.328-8.562V-9.875L5.469-11.43H5.7Zm4.414-.758a.905.905,0,0,1,.223-.625A.848.848,0,0,1,11-1.633a.874.874,0,0,1,.676.25.887.887,0,0,1,.23.625.839.839,0,0,1-.23.6A.89.89,0,0,1,11,.086a.863.863,0,0,1-.668-.242A.855.855,0,0,1,10.109-.758ZM19.68-5a3.536,3.536,0,0,1-1.082.867,2.936,2.936,0,0,1-1.379.328A3.031,3.031,0,0,1,15.5-4.289a3.149,3.149,0,0,1-1.129-1.363,4.648,4.648,0,0,1-.4-1.941,4.735,4.735,0,0,1,.434-2.055,3.185,3.185,0,0,1,1.23-1.4,3.509,3.509,0,0,1,1.859-.484,3.177,3.177,0,0,1,2.66,1.262,5.5,5.5,0,0,1,.973,3.441v.422q0,3.32-1.312,4.848A5.043,5.043,0,0,1,15.859.008h-.281V-1.219h.3a3.979,3.979,0,0,0,2.75-.932A4,4,0,0,0,19.68-5ZM17.453-5a2.232,2.232,0,0,0,1.34-.445,2.625,2.625,0,0,0,.895-1.1v-.578a3.977,3.977,0,0,0-.617-2.312,1.842,1.842,0,0,0-1.562-.891,1.856,1.856,0,0,0-1.531.73A3.013,3.013,0,0,0,15.4-7.672a3.136,3.136,0,0,0,.559,1.918A1.769,1.769,0,0,0,17.453-5ZM28.8-11.383v1.227h-.266a3.805,3.805,0,0,0-2.687,1A4.161,4.161,0,0,0,24.688-6.43a3.085,3.085,0,0,1,2.453-1.031,2.95,2.95,0,0,1,2.371,1.047,4.038,4.038,0,0,1,.887,2.7A4.025,4.025,0,0,1,29.441-.9,3.3,3.3,0,0,1,26.875.156,3.247,3.247,0,0,1,24.227-1.1a4.97,4.97,0,0,1-1.016-3.23v-.555a7.488,7.488,0,0,1,1.34-4.8,4.921,4.921,0,0,1,3.988-1.7ZM26.9-6.258a2.306,2.306,0,0,0-1.367.445A2.32,2.32,0,0,0,24.664-4.7v.531A3.731,3.731,0,0,0,25.3-1.9a1.9,1.9,0,0,0,1.578.859,1.838,1.838,0,0,0,1.535-.719,2.982,2.982,0,0,0,.559-1.883A2.983,2.983,0,0,0,28.4-5.535,1.816,1.816,0,0,0,26.9-6.258ZM39.563,0H32.109V-1.039l3.938-4.375a9.355,9.355,0,0,0,1.207-1.613,2.693,2.693,0,0,0,.332-1.285,2.041,2.041,0,0,0-.539-1.461,1.885,1.885,0,0,0-1.437-.57,2.232,2.232,0,0,0-1.676.613,2.343,2.343,0,0,0-.6,1.707H31.891A3.355,3.355,0,0,1,32.9-10.562a3.751,3.751,0,0,1,2.707-.969,3.6,3.6,0,0,1,2.508.832,2.838,2.838,0,0,1,.922,2.215q0,1.68-2.141,4l-3.047,3.3h5.711Zm1.711-.758a.905.905,0,0,1,.223-.625.848.848,0,0,1,.668-.25.874.874,0,0,1,.676.25.887.887,0,0,1,.23.625.839.839,0,0,1-.23.6.89.89,0,0,1-.676.242A.863.863,0,0,1,41.5-.156.855.855,0,0,1,41.273-.758ZM52.758,0H45.3V-1.039l3.938-4.375a9.355,9.355,0,0,0,1.207-1.613,2.693,2.693,0,0,0,.332-1.285,2.041,2.041,0,0,0-.539-1.461,1.885,1.885,0,0,0-1.437-.57,2.232,2.232,0,0,0-1.676.613,2.343,2.343,0,0,0-.6,1.707H45.086A3.355,3.355,0,0,1,46.1-10.562a3.751,3.751,0,0,1,2.707-.969,3.6,3.6,0,0,1,2.508.832,2.838,2.838,0,0,1,.922,2.215q0,1.68-2.141,4l-3.047,3.3h5.711Zm8.664-4.852a6.61,6.61,0,0,1-.867,3.773A3.084,3.084,0,0,1,57.844.156a3.107,3.107,0,0,1-2.7-1.207,6.274,6.274,0,0,1-.906-3.605v-1.93a6.463,6.463,0,0,1,.867-3.727,3.108,3.108,0,0,1,2.719-1.219,3.136,3.136,0,0,1,2.7,1.176,6.237,6.237,0,0,1,.891,3.629ZM59.977-6.828A5.3,5.3,0,0,0,59.461-9.5a1.775,1.775,0,0,0-1.633-.84,1.751,1.751,0,0,0-1.617.836,5.171,5.171,0,0,0-.523,2.57v2.313A5.381,5.381,0,0,0,56.223-1.9a1.771,1.771,0,0,0,1.621.879,1.747,1.747,0,0,0,1.59-.828,5.186,5.186,0,0,0,.543-2.609ZM70.727,0H63.273V-1.039l3.938-4.375a9.354,9.354,0,0,0,1.207-1.613,2.693,2.693,0,0,0,.332-1.285,2.041,2.041,0,0,0-.539-1.461,1.885,1.885,0,0,0-1.437-.57A2.232,2.232,0,0,0,65.1-9.73a2.343,2.343,0,0,0-.6,1.707H63.055a3.355,3.355,0,0,1,1.012-2.539,3.751,3.751,0,0,1,2.707-.969,3.6,3.6,0,0,1,2.508.832A2.838,2.838,0,0,1,70.2-8.484q0,1.68-2.141,4l-3.047,3.3h5.711Zm1.711-.758a.905.905,0,0,1,.223-.625.848.848,0,0,1,.668-.25.874.874,0,0,1,.676.25.887.887,0,0,1,.23.625.839.839,0,0,1-.23.6.89.89,0,0,1-.676.242.863.863,0,0,1-.668-.242A.855.855,0,0,1,72.438-.758Zm4.7-4.945.578-5.672h5.828v1.336h-4.6l-.344,3.1a3.671,3.671,0,0,1,1.9-.492A3.138,3.138,0,0,1,82.961-6.4a4.026,4.026,0,0,1,.914,2.777,3.886,3.886,0,0,1-.949,2.77A3.46,3.46,0,0,1,80.273.156,3.6,3.6,0,0,1,77.813-.68a3.337,3.337,0,0,1-1.086-2.312h1.367a2.3,2.3,0,0,0,.7,1.473,2.162,2.162,0,0,0,1.484.5,1.95,1.95,0,0,0,1.582-.687,2.874,2.874,0,0,0,.574-1.9,2.638,2.638,0,0,0-.621-1.832,2.113,2.113,0,0,0-1.652-.691,2.383,2.383,0,0,0-1.484.414l-.383.313Zm15.453.852a6.61,6.61,0,0,1-.867,3.773A3.084,3.084,0,0,1,89.008.156a3.107,3.107,0,0,1-2.7-1.207,6.274,6.274,0,0,1-.906-3.605v-1.93a6.463,6.463,0,0,1,.867-3.727,3.108,3.108,0,0,1,2.719-1.219,3.136,3.136,0,0,1,2.7,1.176,6.237,6.237,0,0,1,.891,3.629ZM91.141-6.828A5.3,5.3,0,0,0,90.625-9.5a1.775,1.775,0,0,0-1.633-.84,1.751,1.751,0,0,0-1.617.836,5.171,5.171,0,0,0-.523,2.57v2.313A5.381,5.381,0,0,0,87.387-1.9a1.771,1.771,0,0,0,1.621.879,1.747,1.747,0,0,0,1.59-.828,5.186,5.186,0,0,0,.543-2.609Zm10.43,1.977a6.61,6.61,0,0,1-.867,3.773A3.084,3.084,0,0,1,97.992.156a3.107,3.107,0,0,1-2.7-1.207,6.274,6.274,0,0,1-.906-3.605v-1.93a6.463,6.463,0,0,1,.867-3.727,3.108,3.108,0,0,1,2.719-1.219,3.136,3.136,0,0,1,2.7,1.176,6.237,6.237,0,0,1,.891,3.629Zm-1.445-1.977A5.3,5.3,0,0,0,99.609-9.5a1.775,1.775,0,0,0-1.633-.84,1.751,1.751,0,0,0-1.617.836,5.171,5.171,0,0,0-.523,2.57v2.313A5.381,5.381,0,0,0,96.371-1.9a1.771,1.771,0,0,0,1.621.879,1.747,1.747,0,0,0,1.59-.828,5.186,5.186,0,0,0,.543-2.609Z" transform="translate(773 21391)" fill="#12263f"/>
    <path id="Trazado_911724" data-name="Trazado 911724" d="M7.7-6.359H1.188V-7.617H7.7Zm0,3.242H1.188v-1.25H7.7Z" transform="translate(926.606 21405)" fill="#12263f"/>
    <path id="Trazado_911725" data-name="Trazado 911725" d="M3.047-6.391H4.133A2.387,2.387,0,0,0,5.742-6.93a1.8,1.8,0,0,0,.586-1.414,1.764,1.764,0,0,0-1.992-2,2.072,2.072,0,0,0-1.5.535,1.873,1.873,0,0,0-.559,1.418H.836a2.9,2.9,0,0,1,.988-2.246,3.6,3.6,0,0,1,2.512-.895,3.558,3.558,0,0,1,2.523.852,3.076,3.076,0,0,1,.914,2.367,2.5,2.5,0,0,1-.48,1.438A2.9,2.9,0,0,1,5.984-5.836a2.8,2.8,0,0,1,1.449.984,2.734,2.734,0,0,1,.512,1.68,3.1,3.1,0,0,1-1,2.43,3.745,3.745,0,0,1-2.6.9A3.844,3.844,0,0,1,1.738-.711,2.877,2.877,0,0,1,.734-3H2.188a1.859,1.859,0,0,0,.586,1.438,2.229,2.229,0,0,0,1.57.539,2.187,2.187,0,0,0,1.6-.547A2.108,2.108,0,0,0,6.5-3.141a1.912,1.912,0,0,0-.609-1.523,2.655,2.655,0,0,0-1.758-.547H3.047ZM17.383,0H9.93V-1.039l3.938-4.375a9.354,9.354,0,0,0,1.207-1.613,2.693,2.693,0,0,0,.332-1.285,2.041,2.041,0,0,0-.539-1.461,1.885,1.885,0,0,0-1.437-.57,2.232,2.232,0,0,0-1.676.613,2.343,2.343,0,0,0-.6,1.707H9.711a3.355,3.355,0,0,1,1.012-2.539,3.751,3.751,0,0,1,2.707-.969,3.6,3.6,0,0,1,2.508.832,2.838,2.838,0,0,1,.922,2.215q0,1.68-2.141,4l-3.047,3.3h5.711Zm8.875-10.562L21.547,0H20.031l4.7-10.187H18.57v-1.187h7.688Zm1.82,9.8a.905.905,0,0,1,.223-.625.848.848,0,0,1,.668-.25.874.874,0,0,1,.676.25.887.887,0,0,1,.23.625.839.839,0,0,1-.23.6.89.89,0,0,1-.676.242A.863.863,0,0,1,28.3-.156.855.855,0,0,1,28.078-.758ZM39.242-4.852a6.61,6.61,0,0,1-.867,3.773A3.084,3.084,0,0,1,35.664.156a3.107,3.107,0,0,1-2.7-1.207,6.274,6.274,0,0,1-.906-3.605v-1.93a6.463,6.463,0,0,1,.867-3.727,3.108,3.108,0,0,1,2.719-1.219,3.136,3.136,0,0,1,2.7,1.176,6.237,6.237,0,0,1,.891,3.629ZM37.8-6.828A5.3,5.3,0,0,0,37.281-9.5a1.775,1.775,0,0,0-1.633-.84,1.751,1.751,0,0,0-1.617.836,5.171,5.171,0,0,0-.523,2.57v2.313A5.381,5.381,0,0,0,34.043-1.9a1.771,1.771,0,0,0,1.621.879,1.747,1.747,0,0,0,1.59-.828A5.186,5.186,0,0,0,37.8-4.461Zm5.4.438h1.086a2.387,2.387,0,0,0,1.609-.539,1.8,1.8,0,0,0,.586-1.414,1.764,1.764,0,0,0-1.992-2,2.072,2.072,0,0,0-1.5.535,1.873,1.873,0,0,0-.559,1.418H40.984a2.9,2.9,0,0,1,.988-2.246,3.6,3.6,0,0,1,2.512-.895,3.558,3.558,0,0,1,2.523.852,3.076,3.076,0,0,1,.914,2.367,2.5,2.5,0,0,1-.48,1.438,2.9,2.9,0,0,1-1.309,1.039,2.8,2.8,0,0,1,1.449.984,2.734,2.734,0,0,1,.512,1.68,3.1,3.1,0,0,1-1,2.43,3.745,3.745,0,0,1-2.6.9,3.844,3.844,0,0,1-2.605-.867,2.877,2.877,0,0,1-1-2.289h1.453a1.859,1.859,0,0,0,.586,1.438,2.229,2.229,0,0,0,1.57.539,2.187,2.187,0,0,0,1.6-.547,2.108,2.108,0,0,0,.555-1.57,1.912,1.912,0,0,0-.609-1.523,2.655,2.655,0,0,0-1.758-.547H43.2Zm8.984,0h1.086a2.387,2.387,0,0,0,1.609-.539,1.8,1.8,0,0,0,.586-1.414,1.764,1.764,0,0,0-1.992-2,2.072,2.072,0,0,0-1.5.535,1.873,1.873,0,0,0-.559,1.418H49.969a2.9,2.9,0,0,1,.988-2.246,3.6,3.6,0,0,1,2.512-.895,3.558,3.558,0,0,1,2.523.852,3.076,3.076,0,0,1,.914,2.367,2.5,2.5,0,0,1-.48,1.438,2.9,2.9,0,0,1-1.309,1.039,2.8,2.8,0,0,1,1.449.984,2.734,2.734,0,0,1,.512,1.68,3.1,3.1,0,0,1-1,2.43,3.745,3.745,0,0,1-2.6.9,3.844,3.844,0,0,1-2.605-.867,2.877,2.877,0,0,1-1-2.289H51.32a1.859,1.859,0,0,0,.586,1.438,2.229,2.229,0,0,0,1.57.539,2.187,2.187,0,0,0,1.6-.547,2.108,2.108,0,0,0,.555-1.57,1.912,1.912,0,0,0-.609-1.523,2.655,2.655,0,0,0-1.758-.547H52.18ZM59.242-.758a.905.905,0,0,1,.223-.625.848.848,0,0,1,.668-.25.874.874,0,0,1,.676.25.887.887,0,0,1,.23.625.839.839,0,0,1-.23.6.89.89,0,0,1-.676.242.863.863,0,0,1-.668-.242A.855.855,0,0,1,59.242-.758Zm11.375-9.8L65.906,0H64.391l4.7-10.187H62.93v-1.187h7.688Zm2.3,4.859.578-5.672h5.828v1.336h-4.6l-.344,3.1a3.671,3.671,0,0,1,1.9-.492A3.138,3.138,0,0,1,78.75-6.4a4.026,4.026,0,0,1,.914,2.777,3.886,3.886,0,0,1-.949,2.77A3.46,3.46,0,0,1,76.063.156,3.6,3.6,0,0,1,73.6-.68a3.337,3.337,0,0,1-1.086-2.312h1.367a2.3,2.3,0,0,0,.7,1.473,2.162,2.162,0,0,0,1.484.5,1.95,1.95,0,0,0,1.582-.687,2.874,2.874,0,0,0,.574-1.9A2.638,2.638,0,0,0,77.6-5.441a2.113,2.113,0,0,0-1.652-.691,2.383,2.383,0,0,0-1.484.414l-.383.313Zm15.453.852a6.61,6.61,0,0,1-.867,3.773A3.084,3.084,0,0,1,84.8.156a3.107,3.107,0,0,1-2.7-1.207A6.274,6.274,0,0,1,81.2-4.656v-1.93a6.463,6.463,0,0,1,.867-3.727,3.108,3.108,0,0,1,2.719-1.219,3.136,3.136,0,0,1,2.7,1.176,6.237,6.237,0,0,1,.891,3.629ZM86.93-6.828A5.3,5.3,0,0,0,86.414-9.5a1.775,1.775,0,0,0-1.633-.84,1.751,1.751,0,0,0-1.617.836,5.171,5.171,0,0,0-.523,2.57v2.313A5.381,5.381,0,0,0,83.176-1.9a1.771,1.771,0,0,0,1.621.879,1.747,1.747,0,0,0,1.59-.828,5.186,5.186,0,0,0,.543-2.609Z" transform="translate(949 21404)" fill="#12263f"/>
    <path id="Trazado_911721" data-name="Trazado 911721" d="M3.055-2.273a5.8,5.8,0,0,0-.164,1.219.768.768,0,0,0,.078.379.455.455,0,0,0,.234.2,2.075,2.075,0,0,0,.539.094L3.656,0H.445L.531-.383A1.066,1.066,0,0,0,.977-.535a.844.844,0,0,0,.25-.293,2.669,2.669,0,0,0,.188-.457q.086-.27.258-1.043L3-8.344a6.108,6.108,0,0,0,.172-1.234.659.659,0,0,0-.18-.531,1.016,1.016,0,0,0-.586-.172l.086-.383H9.539L9-8.266H8.25a7.35,7.35,0,0,0-.1-.949,1.178,1.178,0,0,0-.187-.5.6.6,0,0,0-.293-.207,1.816,1.816,0,0,0-.516-.055H4.75l-.93,4.25H5.281a1.5,1.5,0,0,0,.57-.094,1.074,1.074,0,0,0,.422-.34A4.931,4.931,0,0,0,6.758-7h.711L6.711-3.7H6.023a5.528,5.528,0,0,0-.051-.988.4.4,0,0,0-.2-.273A1.452,1.452,0,0,0,5.2-5.039H3.672Zm11.133-8.258-.359,1.516H12.445l.359-1.516ZM11.672-5.266a5.771,5.771,0,0,0,.18-1.172.563.563,0,0,0-.168-.477,1.267,1.267,0,0,0-.66-.141l.086-.414,1.906-.07h.461L12.352-2.523a5.792,5.792,0,0,0-.172,1.156.787.787,0,0,0,.1.453.368.368,0,0,0,.32.141.869.869,0,0,0,.5-.191,5.49,5.49,0,0,0,.75-.73l.445.438A6.817,6.817,0,0,1,13.055-.164a2.023,2.023,0,0,1-1.07.289,1,1,0,0,1-.812-.371,1.447,1.447,0,0,1-.3-.949,6.84,6.84,0,0,1,.219-1.516Zm5.3.313a5.6,5.6,0,0,0,.172-1.156.787.787,0,0,0-.1-.453.368.368,0,0,0-.32-.141.874.874,0,0,0-.512.2,5.607,5.607,0,0,0-.738.723l-.445-.437a7.756,7.756,0,0,1,1.2-1.066A1.905,1.905,0,0,1,17.3-7.6a.982.982,0,0,1,.777.324,1.236,1.236,0,0,1,.285.848,2.689,2.689,0,0,1-.187.922l.094.031a7.228,7.228,0,0,1,1.457-1.6,2.348,2.348,0,0,1,1.426-.52,1.454,1.454,0,0,1,1.117.418,1.633,1.633,0,0,1,.391,1.16,6.238,6.238,0,0,1-.227,1.4L21.93-2.57a5.873,5.873,0,0,0-.211,1.2.787.787,0,0,0,.1.453.368.368,0,0,0,.32.141.869.869,0,0,0,.5-.191,5.49,5.49,0,0,0,.75-.73l.445.438A7.067,7.067,0,0,1,22.664-.207a2.015,2.015,0,0,1-1.141.332,1.007,1.007,0,0,1-.812-.363,1.391,1.391,0,0,1-.3-.926,6.463,6.463,0,0,1,.258-1.492l.344-1.352q.188-.734.246-1.086a3.628,3.628,0,0,0,.059-.57,1.31,1.31,0,0,0-.18-.777.687.687,0,0,0-.586-.238,1.266,1.266,0,0,0-.707.262,4.031,4.031,0,0,0-.8.789,6.193,6.193,0,0,0-.684,1.023,5.1,5.1,0,0,0-.422,1.223L17.188,0H15.836ZM30.734-7.086l.719-.516.5.125L30.8-2.523a5.5,5.5,0,0,0-.172,1.156.787.787,0,0,0,.1.453.368.368,0,0,0,.32.141.869.869,0,0,0,.5-.191,5.49,5.49,0,0,0,.75-.73l.445.438a6.8,6.8,0,0,1-1.2,1.066,1.96,1.96,0,0,1-1.074.316A.991.991,0,0,1,29.7-.2a1.223,1.223,0,0,1-.289-.852,2.633,2.633,0,0,1,.18-.914l-.1-.031a6.889,6.889,0,0,1-1.422,1.6,2.32,2.32,0,0,1-1.422.508,1.552,1.552,0,0,1-1.332-.648,3.046,3.046,0,0,1-.473-1.82,6.524,6.524,0,0,1,.527-2.582A4.776,4.776,0,0,1,26.82-6.887,3.271,3.271,0,0,1,28.875-7.6a3.809,3.809,0,0,1,.949.113A3.318,3.318,0,0,1,30.734-7.086Zm-.687,2.328a4.931,4.931,0,0,0,.094-.555q.023-.234.023-.508a1.277,1.277,0,0,0-.258-.883,1.145,1.145,0,0,0-.875-.281,1.985,1.985,0,0,0-1.445.648,4.377,4.377,0,0,0-1,1.738,6.913,6.913,0,0,0-.359,2.176,2.585,2.585,0,0,0,.223,1.215.784.784,0,0,0,.746.4,1.515,1.515,0,0,0,1.012-.445A6.2,6.2,0,0,0,29.23-2.52a5.537,5.537,0,0,0,.746-1.9Zm5.023-.2a5.6,5.6,0,0,0,.172-1.156.787.787,0,0,0-.1-.453.368.368,0,0,0-.32-.141.874.874,0,0,0-.512.2,5.607,5.607,0,0,0-.738.723l-.445-.437a7.756,7.756,0,0,1,1.2-1.066A1.905,1.905,0,0,1,35.4-7.6a.982.982,0,0,1,.777.324,1.236,1.236,0,0,1,.285.848,2.689,2.689,0,0,1-.187.922l.094.031a7.228,7.228,0,0,1,1.457-1.6,2.348,2.348,0,0,1,1.426-.52,1.454,1.454,0,0,1,1.117.418,1.633,1.633,0,0,1,.391,1.16,6.238,6.238,0,0,1-.227,1.4L40.023-2.57a5.873,5.873,0,0,0-.211,1.2.787.787,0,0,0,.1.453.368.368,0,0,0,.32.141.869.869,0,0,0,.5-.191,5.49,5.49,0,0,0,.75-.73l.445.438A7.068,7.068,0,0,1,40.758-.207a2.015,2.015,0,0,1-1.141.332A1.007,1.007,0,0,1,38.8-.238a1.391,1.391,0,0,1-.3-.926,6.463,6.463,0,0,1,.258-1.492L39.1-4.008q.188-.734.246-1.086a3.628,3.628,0,0,0,.059-.57,1.31,1.31,0,0,0-.18-.777.687.687,0,0,0-.586-.238,1.266,1.266,0,0,0-.707.262,4.031,4.031,0,0,0-.8.789,6.192,6.192,0,0,0-.684,1.023,5.1,5.1,0,0,0-.422,1.223L35.281,0H33.93ZM48-5.594a3.521,3.521,0,0,0-.1-.859.742.742,0,0,0-.266-.4.875.875,0,0,0-.52-.133,1.958,1.958,0,0,0-1.418.629,4.612,4.612,0,0,0-1.027,1.781,6.769,6.769,0,0,0-.4,2.215,1.863,1.863,0,0,0,.313,1.184,1.134,1.134,0,0,0,.938.387,2.639,2.639,0,0,0,1.23-.27,4.607,4.607,0,0,0,1.1-.848l.477.477a5.185,5.185,0,0,1-1.48,1.188,3.525,3.525,0,0,1-1.605.375,2.158,2.158,0,0,1-1.719-.672,2.888,2.888,0,0,1-.586-1.953,6.2,6.2,0,0,1,.313-1.836,5.374,5.374,0,0,1,.914-1.758A3.883,3.883,0,0,1,45.57-7.219a4.019,4.019,0,0,1,1.719-.375,7.384,7.384,0,0,1,1.914.234L48.82-5.594Zm5.891-4.937-.359,1.516H52.148l.359-1.516ZM51.375-5.266a5.771,5.771,0,0,0,.18-1.172.563.563,0,0,0-.168-.477,1.267,1.267,0,0,0-.66-.141l.086-.414,1.906-.07h.461L52.055-2.523a5.792,5.792,0,0,0-.172,1.156.787.787,0,0,0,.1.453.368.368,0,0,0,.32.141.869.869,0,0,0,.5-.191,5.49,5.49,0,0,0,.75-.73L54-1.258A6.817,6.817,0,0,1,52.758-.164a2.023,2.023,0,0,1-1.07.289,1,1,0,0,1-.812-.371,1.447,1.447,0,0,1-.3-.949,6.84,6.84,0,0,1,.219-1.516Zm9.883-1.82.719-.516.5.125L61.328-2.523a5.5,5.5,0,0,0-.172,1.156.787.787,0,0,0,.1.453.368.368,0,0,0,.32.141.869.869,0,0,0,.5-.191,5.49,5.49,0,0,0,.75-.73l.445.438a6.8,6.8,0,0,1-1.2,1.066A1.96,1.96,0,0,1,61,.125a.991.991,0,0,1-.773-.32,1.223,1.223,0,0,1-.289-.852,2.632,2.632,0,0,1,.18-.914l-.1-.031a6.889,6.889,0,0,1-1.422,1.6,2.32,2.32,0,0,1-1.422.508A1.552,1.552,0,0,1,55.84-.531a3.046,3.046,0,0,1-.473-1.82,6.524,6.524,0,0,1,.527-2.582,4.776,4.776,0,0,1,1.449-1.953A3.271,3.271,0,0,1,59.4-7.6a3.809,3.809,0,0,1,.949.113A3.318,3.318,0,0,1,61.258-7.086ZM60.57-4.758a4.931,4.931,0,0,0,.094-.555q.023-.234.023-.508A1.277,1.277,0,0,0,60.43-6.7a1.145,1.145,0,0,0-.875-.281,1.985,1.985,0,0,0-1.445.648,4.377,4.377,0,0,0-1,1.738,6.913,6.913,0,0,0-.359,2.176,2.585,2.585,0,0,0,.223,1.215.784.784,0,0,0,.746.4A1.515,1.515,0,0,0,58.73-1.25a6.2,6.2,0,0,0,1.023-1.27,5.537,5.537,0,0,0,.746-1.9Zm8.773-.836a3.521,3.521,0,0,0-.1-.859.742.742,0,0,0-.266-.4.875.875,0,0,0-.52-.133,1.958,1.958,0,0,0-1.418.629,4.612,4.612,0,0,0-1.027,1.781,6.769,6.769,0,0,0-.4,2.215,1.863,1.863,0,0,0,.313,1.184,1.134,1.134,0,0,0,.938.387,2.639,2.639,0,0,0,1.23-.27,4.607,4.607,0,0,0,1.1-.848l.477.477a5.185,5.185,0,0,1-1.48,1.188,3.525,3.525,0,0,1-1.605.375,2.158,2.158,0,0,1-1.719-.672,2.888,2.888,0,0,1-.586-1.953,6.2,6.2,0,0,1,.313-1.836,5.375,5.375,0,0,1,.914-1.758,3.883,3.883,0,0,1,1.406-1.133,4.019,4.019,0,0,1,1.719-.375,7.384,7.384,0,0,1,1.914.234l-.383,1.766Zm5.891-4.937-.359,1.516H73.492l.359-1.516ZM72.719-5.266a5.771,5.771,0,0,0,.18-1.172.563.563,0,0,0-.168-.477,1.267,1.267,0,0,0-.66-.141l.086-.414,1.906-.07h.461L73.4-2.523a5.792,5.792,0,0,0-.172,1.156.787.787,0,0,0,.1.453.368.368,0,0,0,.32.141.869.869,0,0,0,.5-.191,5.49,5.49,0,0,0,.75-.73l.445.438A6.817,6.817,0,0,1,74.1-.164a2.023,2.023,0,0,1-1.07.289,1,1,0,0,1-.812-.371,1.447,1.447,0,0,1-.3-.949,6.84,6.84,0,0,1,.219-1.516ZM76.6-4.3a4.993,4.993,0,0,1,.488-2.234A3.643,3.643,0,0,1,78.449-8.07a3.7,3.7,0,0,1,1.988-.539,3.565,3.565,0,0,1,2.793,1.2A4.6,4.6,0,0,1,84.3-4.234v.1a5.036,5.036,0,0,1-.473,2.215A3.589,3.589,0,0,1,82.473-.391a3.743,3.743,0,0,1-2.02.547,3.556,3.556,0,0,1-2.785-1.2A4.575,4.575,0,0,1,76.6-4.2Zm1.453.172a3.616,3.616,0,0,0,.652,2.258,2.088,2.088,0,0,0,1.746.852,2.075,2.075,0,0,0,1.75-.863A3.955,3.955,0,0,0,82.852-4.3a3.61,3.61,0,0,0-.66-2.254,2.1,2.1,0,0,0-1.754-.863,2.075,2.075,0,0,0-1.727.852A3.925,3.925,0,0,0,78.055-4.133Zm3.039-7.852h1.75l-2.094,2.3-1.164,0Zm6.055,7.031a5.6,5.6,0,0,0,.172-1.156.787.787,0,0,0-.1-.453A.368.368,0,0,0,86.9-6.7a.874.874,0,0,0-.512.2,5.607,5.607,0,0,0-.738.723L85.2-6.219a7.756,7.756,0,0,1,1.2-1.066A1.905,1.905,0,0,1,87.477-7.6a.982.982,0,0,1,.777.324,1.236,1.236,0,0,1,.285.848,2.689,2.689,0,0,1-.187.922l.094.031a7.228,7.228,0,0,1,1.457-1.6,2.348,2.348,0,0,1,1.426-.52,1.454,1.454,0,0,1,1.117.418,1.633,1.633,0,0,1,.391,1.16,6.238,6.238,0,0,1-.227,1.4L92.1-2.57a5.873,5.873,0,0,0-.211,1.2.787.787,0,0,0,.1.453.368.368,0,0,0,.32.141.869.869,0,0,0,.5-.191,5.49,5.49,0,0,0,.75-.73l.445.438A7.067,7.067,0,0,1,92.836-.207,2.015,2.015,0,0,1,91.7.125a1.007,1.007,0,0,1-.812-.363,1.391,1.391,0,0,1-.3-.926,6.463,6.463,0,0,1,.258-1.492l.344-1.352q.188-.734.246-1.086a3.628,3.628,0,0,0,.059-.57,1.31,1.31,0,0,0-.18-.777.687.687,0,0,0-.586-.238,1.266,1.266,0,0,0-.707.262,4.031,4.031,0,0,0-.8.789,6.193,6.193,0,0,0-.684,1.023A5.1,5.1,0,0,0,88.1-3.383L87.359,0H86.008Zm16.891-.641a3.521,3.521,0,0,0-.1-.859.742.742,0,0,0-.266-.4.875.875,0,0,0-.52-.133,1.958,1.958,0,0,0-1.418.629,4.612,4.612,0,0,0-1.027,1.781,6.769,6.769,0,0,0-.4,2.215,1.863,1.863,0,0,0,.313,1.184,1.134,1.134,0,0,0,.938.387,2.639,2.639,0,0,0,1.23-.27,4.607,4.607,0,0,0,1.1-.848l.477.477a5.185,5.185,0,0,1-1.48,1.188,3.525,3.525,0,0,1-1.605.375,2.158,2.158,0,0,1-1.719-.672,2.888,2.888,0,0,1-.586-1.953,6.2,6.2,0,0,1,.313-1.836,5.375,5.375,0,0,1,.914-1.758,3.883,3.883,0,0,1,1.406-1.133,4.019,4.019,0,0,1,1.719-.375,7.384,7.384,0,0,1,1.914.234l-.383,1.766ZM108.922.133a2.515,2.515,0,0,1-1.879-.68,2.671,2.671,0,0,1-.668-1.953,6.588,6.588,0,0,1,.188-1.445,5.411,5.411,0,0,1,.813-1.937,3.916,3.916,0,0,1,1.406-1.27,3.871,3.871,0,0,1,1.836-.441,2.521,2.521,0,0,1,1.906.684,2.715,2.715,0,0,1,.656,1.957,6.62,6.62,0,0,1-.316,1.938A5.308,5.308,0,0,1,112-1.281,3.568,3.568,0,0,1,110.68-.223,4.131,4.131,0,0,1,108.922.133Zm-1.18-2.3a1.9,1.9,0,0,0,.355,1.27,1.345,1.345,0,0,0,1.074.41,1.761,1.761,0,0,0,1.359-.687,4.943,4.943,0,0,0,.938-1.926,8.276,8.276,0,0,0,.344-2.176,2.059,2.059,0,0,0-.328-1.27,1.211,1.211,0,0,0-1.023-.426,1.846,1.846,0,0,0-1.418.68,4.814,4.814,0,0,0-.953,1.945A8.426,8.426,0,0,0,107.742-2.164Zm8.43-2.789a5.6,5.6,0,0,0,.172-1.156.787.787,0,0,0-.1-.453.368.368,0,0,0-.32-.141.874.874,0,0,0-.512.2,5.607,5.607,0,0,0-.738.723l-.445-.437a7.756,7.756,0,0,1,1.2-1.066A1.905,1.905,0,0,1,116.5-7.6a.982.982,0,0,1,.777.324,1.236,1.236,0,0,1,.285.848,2.689,2.689,0,0,1-.187.922l.094.031a7.228,7.228,0,0,1,1.457-1.6,2.348,2.348,0,0,1,1.426-.52,1.454,1.454,0,0,1,1.117.418,1.633,1.633,0,0,1,.391,1.16,6.238,6.238,0,0,1-.227,1.4l-.508,2.047a5.873,5.873,0,0,0-.211,1.2.787.787,0,0,0,.1.453.368.368,0,0,0,.32.141.869.869,0,0,0,.5-.191,5.49,5.49,0,0,0,.75-.73l.445.438a7.067,7.067,0,0,1-1.172,1.051,2.015,2.015,0,0,1-1.141.332,1.007,1.007,0,0,1-.812-.363,1.391,1.391,0,0,1-.3-.926,6.463,6.463,0,0,1,.258-1.492l.344-1.352q.188-.734.246-1.086a3.628,3.628,0,0,0,.059-.57,1.31,1.31,0,0,0-.18-.777.687.687,0,0,0-.586-.238,1.266,1.266,0,0,0-.707.262,4.031,4.031,0,0,0-.8.789,6.193,6.193,0,0,0-.684,1.023,5.1,5.1,0,0,0-.422,1.223L116.383,0h-1.352Zm13.148.023a5.526,5.526,0,0,0,.164-1.18.787.787,0,0,0-.1-.453.368.368,0,0,0-.32-.141.874.874,0,0,0-.512.2,5.607,5.607,0,0,0-.738.723l-.445-.437a7.627,7.627,0,0,1,1.191-1.059,1.914,1.914,0,0,1,1.082-.324.979.979,0,0,1,.77.32,1.233,1.233,0,0,1,.285.852,2.651,2.651,0,0,1-.18.922l.094.031q1.445-2.117,2.875-2.117a1.544,1.544,0,0,1,1.324.648,3.061,3.061,0,0,1,.473,1.828,6.533,6.533,0,0,1-.52,2.535A4.83,4.83,0,0,1,133.32-.605a3.238,3.238,0,0,1-2.062.73,3.075,3.075,0,0,1-1.727-.453l-.359,1.711a4.6,4.6,0,0,0-.117.914.6.6,0,0,0,.176.488,1.339,1.339,0,0,0,.684.191l-.062.383h-2.414Zm.789,2.211q-.078.414-.1.633t-.02.43a1.262,1.262,0,0,0,.262.887,1.207,1.207,0,0,0,.9.277,1.72,1.72,0,0,0,.734-.156,2.277,2.277,0,0,0,.637-.453,3.334,3.334,0,0,0,.543-.719,5.649,5.649,0,0,0,.434-.98,7.128,7.128,0,0,0,.289-1.148,6.787,6.787,0,0,0,.1-1.105,2.531,2.531,0,0,0-.23-1.223.781.781,0,0,0-.73-.4,1.361,1.361,0,0,0-.785.27,4.166,4.166,0,0,0-.848.863,5.737,5.737,0,0,0-.719,1.172,6.233,6.233,0,0,0-.406,1.328Zm9.461-2.867a6.511,6.511,0,0,1,1.473-1.523,2.515,2.515,0,0,1,1.434-.484,4.445,4.445,0,0,1,.953.086l-.375,1.75h-.8a1.808,1.808,0,0,0-.133-.508.563.563,0,0,0-.2-.25.569.569,0,0,0-.3-.07,1.067,1.067,0,0,0-.613.242,4.2,4.2,0,0,0-.746.758,6.005,6.005,0,0,0-.66.992,5.079,5.079,0,0,0-.41,1.211L138.445,0h-1.352l1.133-4.953a7.312,7.312,0,0,0,.141-.727,3.687,3.687,0,0,0,.031-.43.787.787,0,0,0-.1-.453.368.368,0,0,0-.32-.141.874.874,0,0,0-.512.2,5.607,5.607,0,0,0-.738.723l-.445-.437a7.51,7.51,0,0,1,1.2-1.066,1.916,1.916,0,0,1,1.07-.316.982.982,0,0,1,.777.324,1.236,1.236,0,0,1,.285.848,2.378,2.378,0,0,1-.148.8ZM147.117.133a2.515,2.515,0,0,1-1.879-.68A2.671,2.671,0,0,1,144.57-2.5a6.588,6.588,0,0,1,.188-1.445,5.411,5.411,0,0,1,.813-1.937,3.916,3.916,0,0,1,1.406-1.27,3.871,3.871,0,0,1,1.836-.441,2.521,2.521,0,0,1,1.906.684,2.715,2.715,0,0,1,.656,1.957,6.62,6.62,0,0,1-.316,1.938,5.308,5.308,0,0,1-.867,1.734,3.568,3.568,0,0,1-1.316,1.059A4.131,4.131,0,0,1,147.117.133Zm-1.18-2.3a1.9,1.9,0,0,0,.355,1.27,1.345,1.345,0,0,0,1.074.41,1.761,1.761,0,0,0,1.359-.687,4.943,4.943,0,0,0,.938-1.926,8.276,8.276,0,0,0,.344-2.176,2.059,2.059,0,0,0-.328-1.27,1.21,1.21,0,0,0-1.023-.426,1.846,1.846,0,0,0-1.418.68,4.814,4.814,0,0,0-.953,1.945A8.427,8.427,0,0,0,145.938-2.164Zm9.078,2.3a.617.617,0,0,1-.379-.113.8.8,0,0,1-.246-.32,1.776,1.776,0,0,1-.133-.488,4.5,4.5,0,0,1-.039-.617,8.93,8.93,0,0,1,.055-.953q.055-.508.141-1.023l.328-2.164q.031-.187.051-.355a2.384,2.384,0,0,0,.02-.246.89.89,0,0,0-.078-.4.273.273,0,0,0-.266-.156.7.7,0,0,0-.32.09,2.168,2.168,0,0,0-.348.23q-.176.141-.34.3t-.3.3l-.375-.437q.242-.25.516-.5a4.745,4.745,0,0,1,.578-.445,3.07,3.07,0,0,1,.641-.32A2.013,2.013,0,0,1,155.2-7.6a1.047,1.047,0,0,1,.484.1.765.765,0,0,1,.293.258,1,1,0,0,1,.145.352,1.891,1.891,0,0,1,.039.379q0,.109-.008.211a1.838,1.838,0,0,1-.023.188L155.7-3.289q-.07.445-.117.871a6.979,6.979,0,0,0-.047.754,2.915,2.915,0,0,0,.039.531q.039.2.148.2a1.469,1.469,0,0,0,.648-.207,4.7,4.7,0,0,0,.82-.57,7.864,7.864,0,0,0,.859-.859,7.46,7.46,0,0,0,.773-1.074,6.293,6.293,0,0,0,.559-1.219,4.031,4.031,0,0,0,.215-1.289.682.682,0,0,0-.121-.434.455.455,0,0,0-.379-.152.88.88,0,0,0-.605.254,4.317,4.317,0,0,0-.574.668l-.445-.4a3.672,3.672,0,0,1,.441-.539,3.657,3.657,0,0,1,.539-.453,2.859,2.859,0,0,1,.59-.312,1.648,1.648,0,0,1,.594-.117,1.014,1.014,0,0,1,.813.293,1.169,1.169,0,0,1,.25.785,3.3,3.3,0,0,1-.133.859,7.081,7.081,0,0,1-.375,1.023,11.053,11.053,0,0,1-.578,1.105,11.651,11.651,0,0,1-.742,1.1A10.758,10.758,0,0,1,158-1.457a6.965,6.965,0,0,1-.957.824,4.969,4.969,0,0,1-1.008.559A2.7,2.7,0,0,1,155.016.133Zm12.461-1.687A5.939,5.939,0,0,1,165.941-.3a3.733,3.733,0,0,1-1.809.422,2.236,2.236,0,0,1-1.754-.691,2.78,2.78,0,0,1-.621-1.926,6,6,0,0,1,.3-1.793A5.239,5.239,0,0,1,162.969-6a4.254,4.254,0,0,1,1.461-1.18,4.06,4.06,0,0,1,1.813-.418,2.22,2.22,0,0,1,1.418.383,1.448,1.448,0,0,1,.473,1.2,2.135,2.135,0,0,1-1.246,1.992,8.1,8.1,0,0,1-3.7.664,5.18,5.18,0,0,0-.094,1.016,1.806,1.806,0,0,0,.32,1.191,1.316,1.316,0,0,0,1.047.371,2.706,2.706,0,0,0,1.3-.312,5.434,5.434,0,0,0,1.23-.961ZM163.32-4.031a8.37,8.37,0,0,0,1.891-.2,2.53,2.53,0,0,0,1.211-.609,1.518,1.518,0,0,0,.422-1.129,1.138,1.138,0,0,0-.223-.746.807.807,0,0,0-.66-.27,2.084,2.084,0,0,0-1.52.8A5.309,5.309,0,0,0,163.32-4.031Zm12.094,2.477A5.939,5.939,0,0,1,173.879-.3a3.733,3.733,0,0,1-1.809.422,2.236,2.236,0,0,1-1.754-.691,2.78,2.78,0,0,1-.621-1.926,6,6,0,0,1,.3-1.793A5.239,5.239,0,0,1,170.906-6a4.254,4.254,0,0,1,1.461-1.18A4.06,4.06,0,0,1,174.18-7.6a2.22,2.22,0,0,1,1.418.383,1.448,1.448,0,0,1,.473,1.2,2.135,2.135,0,0,1-1.246,1.992,8.1,8.1,0,0,1-3.7.664,5.18,5.18,0,0,0-.094,1.016,1.806,1.806,0,0,0,.32,1.191,1.316,1.316,0,0,0,1.047.371,2.706,2.706,0,0,0,1.3-.312,5.434,5.434,0,0,0,1.23-.961Zm-4.156-2.477a8.37,8.37,0,0,0,1.891-.2,2.53,2.53,0,0,0,1.211-.609,1.518,1.518,0,0,0,.422-1.129,1.138,1.138,0,0,0-.223-.746.807.807,0,0,0-.66-.27,2.084,2.084,0,0,0-1.52.8A5.309,5.309,0,0,0,171.258-4.031Zm11.023,2.039a6.889,6.889,0,0,1-1.422,1.6,2.32,2.32,0,0,1-1.422.508,1.552,1.552,0,0,1-1.332-.648,3.046,3.046,0,0,1-.473-1.82,6.524,6.524,0,0,1,.527-2.582,4.776,4.776,0,0,1,1.449-1.953,3.271,3.271,0,0,1,2.055-.715,3.723,3.723,0,0,1,.879.1,3.16,3.16,0,0,1,.824.34l.406-1.8q.063-.258.109-.57a3.747,3.747,0,0,0,.047-.547.612.612,0,0,0-.086-.355.482.482,0,0,0-.246-.176,2.467,2.467,0,0,0-.574-.078l.094-.406,1.961-.07h.461l-1.945,8.648a5.793,5.793,0,0,0-.172,1.156.787.787,0,0,0,.1.453.368.368,0,0,0,.32.141.869.869,0,0,0,.5-.191,5.49,5.49,0,0,0,.75-.73l.445.438a6.99,6.99,0,0,1-1.211,1.07,1.946,1.946,0,0,1-1.062.313.991.991,0,0,1-.773-.32,1.223,1.223,0,0,1-.289-.852,2.632,2.632,0,0,1,.18-.914Zm.523-2.766a5.219,5.219,0,0,0,.117-1.062,1.275,1.275,0,0,0-.258-.887,1.131,1.131,0,0,0-.859-.277,1.957,1.957,0,0,0-1.43.645,4.429,4.429,0,0,0-1,1.738,6.881,6.881,0,0,0-.363,2.18,2.585,2.585,0,0,0,.223,1.215.784.784,0,0,0,.746.4,1.26,1.26,0,0,0,.492-.105,1.985,1.985,0,0,0,.52-.34,4.055,4.055,0,0,0,.531-.57q.262-.336.48-.676a4.82,4.82,0,0,0,.406-.8,6.443,6.443,0,0,0,.32-1.121ZM189.492.133a2.515,2.515,0,0,1-1.879-.68,2.671,2.671,0,0,1-.668-1.953,6.588,6.588,0,0,1,.188-1.445,5.411,5.411,0,0,1,.813-1.937,3.916,3.916,0,0,1,1.406-1.27,3.871,3.871,0,0,1,1.836-.441,2.521,2.521,0,0,1,1.906.684,2.715,2.715,0,0,1,.656,1.957,6.62,6.62,0,0,1-.316,1.938,5.308,5.308,0,0,1-.867,1.734A3.568,3.568,0,0,1,191.25-.223,4.131,4.131,0,0,1,189.492.133Zm-1.18-2.3a1.9,1.9,0,0,0,.355,1.27,1.345,1.345,0,0,0,1.074.41,1.761,1.761,0,0,0,1.359-.687,4.943,4.943,0,0,0,.938-1.926,8.276,8.276,0,0,0,.344-2.176,2.059,2.059,0,0,0-.328-1.27,1.21,1.21,0,0,0-1.023-.426,1.846,1.846,0,0,0-1.418.68,4.814,4.814,0,0,0-.953,1.945A8.427,8.427,0,0,0,188.313-2.164Zm9.766-3.422a6.511,6.511,0,0,1,1.473-1.523,2.515,2.515,0,0,1,1.434-.484,4.445,4.445,0,0,1,.953.086l-.375,1.75h-.8a1.808,1.808,0,0,0-.133-.508.563.563,0,0,0-.2-.25.569.569,0,0,0-.3-.07,1.067,1.067,0,0,0-.613.242,4.2,4.2,0,0,0-.746.758,6.005,6.005,0,0,0-.66.992,5.079,5.079,0,0,0-.41,1.211L196.953,0H195.6l1.133-4.953a7.312,7.312,0,0,0,.141-.727,3.687,3.687,0,0,0,.031-.43.787.787,0,0,0-.1-.453.368.368,0,0,0-.32-.141.874.874,0,0,0-.512.2,5.607,5.607,0,0,0-.738.723l-.445-.437a7.51,7.51,0,0,1,1.2-1.066,1.916,1.916,0,0,1,1.07-.316.982.982,0,0,1,.777.324,1.236,1.236,0,0,1,.285.848,2.378,2.378,0,0,1-.148.8Zm10.68,4.031A5.939,5.939,0,0,1,207.223-.3a3.733,3.733,0,0,1-1.809.422,2.236,2.236,0,0,1-1.754-.691,2.78,2.78,0,0,1-.621-1.926,6,6,0,0,1,.3-1.793A5.239,5.239,0,0,1,204.25-6a4.254,4.254,0,0,1,1.461-1.18,4.06,4.06,0,0,1,1.813-.418,2.22,2.22,0,0,1,1.418.383,1.448,1.448,0,0,1,.473,1.2,2.135,2.135,0,0,1-1.246,1.992,8.1,8.1,0,0,1-3.7.664,5.18,5.18,0,0,0-.094,1.016,1.806,1.806,0,0,0,.32,1.191,1.316,1.316,0,0,0,1.047.371,2.706,2.706,0,0,0,1.3-.312,5.434,5.434,0,0,0,1.23-.961ZM204.6-4.031a8.37,8.37,0,0,0,1.891-.2A2.53,2.53,0,0,0,207.7-4.84a1.518,1.518,0,0,0,.422-1.129,1.138,1.138,0,0,0-.223-.746.807.807,0,0,0-.66-.27,2.084,2.084,0,0,0-1.52.8A5.309,5.309,0,0,0,204.6-4.031ZM216.047-5.57a1.71,1.71,0,0,0-.457-1.055,1.629,1.629,0,0,0-1.168-.359,1.519,1.519,0,0,0-1,.316,1.027,1.027,0,0,0-.383.832,1.188,1.188,0,0,0,.1.5,1.5,1.5,0,0,0,.395.473,6.87,6.87,0,0,0,.922.633,6.6,6.6,0,0,1,.789.543,2.618,2.618,0,0,1,.469.488,1.7,1.7,0,0,1,.25.512,2.368,2.368,0,0,1,.078.652,1.933,1.933,0,0,1-.371,1.191,2.2,2.2,0,0,1-1.008.738,4.055,4.055,0,0,1-1.449.242,8.237,8.237,0,0,1-1.273-.1A10.165,10.165,0,0,1,210.547-.3l.375-1.7h.609a1.618,1.618,0,0,0,.422,1.133,1.722,1.722,0,0,0,1.242.383,1.82,1.82,0,0,0,1.16-.332,1.133,1.133,0,0,0,.418-.941,1.435,1.435,0,0,0-.117-.605,1.5,1.5,0,0,0-.383-.488,6.285,6.285,0,0,0-.844-.586,6.85,6.85,0,0,1-.949-.664,2.093,2.093,0,0,1-.512-.645,1.785,1.785,0,0,1-.172-.8,1.813,1.813,0,0,1,.332-1.082,2.1,2.1,0,0,1,.949-.715,3.811,3.811,0,0,1,1.438-.25,9.348,9.348,0,0,1,1.324.086,6.181,6.181,0,0,1,1.191.3L216.68-5.57Zm9.2-.789h-6.516V-7.617h6.516Zm0,3.242h-6.516v-1.25h6.516Z" transform="translate(511 21404)" fill="#12263f"/>
  </g>
</svg>
