<svg xmlns="http://www.w3.org/2000/svg" width="505" height="158" viewBox="0 0 505 158">
  <g id="Grupo_1118511" data-name="Grupo 1118511" transform="translate(-495 -22261)">
    <rect id="Rectángulo_406830" data-name="Rectángulo 406830" width="505" height="158" rx="12" transform="translate(495 22261)" fill="#feead4"/>
    <path id="Trazado_911727" data-name="Trazado 911727" d="M2.7-4.453,1.93,0H.461L2.438-11.375l3.977.008a4.4,4.4,0,0,1,1.414.25,3.087,3.087,0,0,1,1.1.668,2.723,2.723,0,0,1,.68,1.063,3.341,3.341,0,0,1,.156,1.434,3.813,3.813,0,0,1-.453,1.563,3.465,3.465,0,0,1-.961,1.1,4.012,4.012,0,0,1-1.344.641,6.052,6.052,0,0,1-1.6.207ZM2.914-5.68l2.531.008a3.765,3.765,0,0,0,1.039-.141,2.683,2.683,0,0,0,.871-.422,2.351,2.351,0,0,0,.629-.707,2.575,2.575,0,0,0,.32-1,2.27,2.27,0,0,0-.047-.891,1.672,1.672,0,0,0-.359-.68,1.713,1.713,0,0,0-.637-.441,2.489,2.489,0,0,0-.879-.176l-2.7-.008ZM15.164,0a1.894,1.894,0,0,1-.055-.445,4.326,4.326,0,0,1,.023-.445A4.514,4.514,0,0,1,14-.121a2.923,2.923,0,0,1-1.336.277,2.882,2.882,0,0,1-.992-.184,2.357,2.357,0,0,1-.8-.5,2.161,2.161,0,0,1-.516-.766,2.276,2.276,0,0,1-.148-.992,2.59,2.59,0,0,1,.426-1.352,2.918,2.918,0,0,1,.957-.879,4.286,4.286,0,0,1,1.281-.477,6.93,6.93,0,0,1,1.4-.145l1.477.008.094-.672a2,2,0,0,0-.031-.668,1.255,1.255,0,0,0-.25-.52,1.192,1.192,0,0,0-.465-.34,1.774,1.774,0,0,0-.66-.129,2.374,2.374,0,0,0-.648.074,2.086,2.086,0,0,0-.59.25,1.75,1.75,0,0,0-.465.422,1.435,1.435,0,0,0-.266.59l-1.422.008a2.191,2.191,0,0,1,.41-1.105A3.079,3.079,0,0,1,12.309-8a3.834,3.834,0,0,1,1.105-.469,4.48,4.48,0,0,1,1.164-.145,3.457,3.457,0,0,1,1.16.215,2.426,2.426,0,0,1,.879.566,2.225,2.225,0,0,1,.527.887,2.906,2.906,0,0,1,.105,1.176L16.6-1.844a6.4,6.4,0,0,0-.082.859,3.046,3.046,0,0,0,.1.852L16.6,0ZM12.945-1.094a2.431,2.431,0,0,0,.691-.082,2.611,2.611,0,0,0,.629-.262,3.1,3.1,0,0,0,.551-.406,3.444,3.444,0,0,0,.457-.516l.3-1.742-1.07-.008a7.38,7.38,0,0,0-.9.059,3.3,3.3,0,0,0-.891.234,2.033,2.033,0,0,0-.707.492,1.443,1.443,0,0,0-.355.832,1.331,1.331,0,0,0,.043.574,1.146,1.146,0,0,0,.254.438,1.128,1.128,0,0,0,.426.281A1.686,1.686,0,0,0,12.945-1.094Zm6.016-3.148A8.588,8.588,0,0,1,19.172-5.3a6.072,6.072,0,0,1,.371-1.023,5.46,5.46,0,0,1,.543-.918,3.562,3.562,0,0,1,.719-.734,3.278,3.278,0,0,1,.91-.484,3.089,3.089,0,0,1,1.105-.16,3.125,3.125,0,0,1,1.254.281,2.386,2.386,0,0,1,.965.828l.281-.945h1.3L25.211-.18a4.566,4.566,0,0,1-.441,1.445,3.855,3.855,0,0,1-.848,1.125,3.6,3.6,0,0,1-1.2.719,4.01,4.01,0,0,1-1.5.227,3.793,3.793,0,0,1-.836-.109,3.9,3.9,0,0,1-.789-.285,3.4,3.4,0,0,1-.7-.457,2.966,2.966,0,0,1-.559-.625l.8-.867a2.817,2.817,0,0,0,.863.84,2.284,2.284,0,0,0,1.16.324,2.63,2.63,0,0,0,.98-.145,2.349,2.349,0,0,0,.773-.457,2.549,2.549,0,0,0,.555-.719,3.415,3.415,0,0,0,.324-.93l.156-.75a3.508,3.508,0,0,1-1.1.758,3.119,3.119,0,0,1-1.312.242,2.548,2.548,0,0,1-.98-.207,2.325,2.325,0,0,1-.73-.508,2.692,2.692,0,0,1-.5-.734,4.176,4.176,0,0,1-.3-.887,5.3,5.3,0,0,1-.117-.953,7.08,7.08,0,0,1,.031-.945Zm1.406.164a5.577,5.577,0,0,0-.043.645,4.8,4.8,0,0,0,.039.672,3.3,3.3,0,0,0,.145.633,1.739,1.739,0,0,0,.289.535,1.373,1.373,0,0,0,.473.375,1.684,1.684,0,0,0,.684.156A2.129,2.129,0,0,0,23.2-1.4a3.542,3.542,0,0,0,.934-.906L24.8-6.187a1.925,1.925,0,0,0-.656-.871A1.861,1.861,0,0,0,23.1-7.391a2.088,2.088,0,0,0-1.133.266,2.623,2.623,0,0,0-.8.738,3.778,3.778,0,0,0-.516,1.023,5.942,5.942,0,0,0-.258,1.121Zm7.352-.172a6.158,6.158,0,0,1,.246-1.121,5.613,5.613,0,0,1,.449-1.039,4.91,4.91,0,0,1,.645-.9,4.089,4.089,0,0,1,.828-.7,3.871,3.871,0,0,1,1-.453,3.774,3.774,0,0,1,1.168-.145,3.129,3.129,0,0,1,1.523.395,2.969,2.969,0,0,1,1.016.969,3.81,3.81,0,0,1,.527,1.359,5.28,5.28,0,0,1,.059,1.559l-.016.18A5.871,5.871,0,0,1,34.707-2.5,4.987,4.987,0,0,1,33.8-1.117a4.137,4.137,0,0,1-1.312.949,3.723,3.723,0,0,1-1.676.324A3.145,3.145,0,0,1,29.3-.23a2.923,2.923,0,0,1-1.012-.957,3.823,3.823,0,0,1-.531-1.344A5.1,5.1,0,0,1,27.7-4.078Zm1.4.172a5.254,5.254,0,0,0-.035.68,4.271,4.271,0,0,0,.063.688,2.994,2.994,0,0,0,.184.637,1.85,1.85,0,0,0,.332.531,1.563,1.563,0,0,0,.508.371,1.823,1.823,0,0,0,.707.156,2.162,2.162,0,0,0,1.148-.254A2.809,2.809,0,0,0,32.879-2a3.854,3.854,0,0,0,.57-1.02,5.193,5.193,0,0,0,.293-1.129l.023-.172A5.29,5.29,0,0,0,33.8-5a4.369,4.369,0,0,0-.062-.7,3.145,3.145,0,0,0-.184-.648,1.831,1.831,0,0,0-.336-.543A1.616,1.616,0,0,0,32.7-7.27a1.808,1.808,0,0,0-.711-.16,2.115,2.115,0,0,0-1.152.262,2.832,2.832,0,0,0-.848.746,3.928,3.928,0,0,0-.562,1.035,5.48,5.48,0,0,0-.289,1.137ZM47.711-6.359H41.383L41.6-7.617h6.336Zm-.562,3.242H40.82l.219-1.25h6.336Z" transform="translate(609 22306)" fill="#12263f"/>
    <path id="Trazado_911728" data-name="Trazado 911728" d="M5.7,0H4.242V-9.633L1.328-8.562V-9.875L5.469-11.43H5.7ZM16.82-5.086H10.3v-1.18H16.82Zm2.344.469a12.079,12.079,0,0,1,.473-3.391,9.85,9.85,0,0,1,1.41-2.953,6,6,0,0,1,1.945-1.875l.3.953a6.222,6.222,0,0,0-1.871,2.672,11.583,11.583,0,0,0-.8,4.023l-.008.664a11.643,11.643,0,0,0,1.1,5.234,6.252,6.252,0,0,0,1.578,2.078l-.3.883a6.192,6.192,0,0,1-1.984-1.937A10.859,10.859,0,0,1,19.164-4.617ZM29.289,0H27.836V-9.633l-2.914,1.07V-9.875l4.141-1.555h.227Zm8.523-6.1h3.172v1.367H37.813v3.594H36.359V-4.734H33.188V-6.1h3.172v-3.32h1.453ZM47.344,0H45.891V-9.633l-2.914,1.07V-9.875l4.141-1.555h.227Zm4.109-9.187a2.308,2.308,0,0,1,.652-1.687,2.247,2.247,0,0,1,1.676-.664,2.234,2.234,0,0,1,1.684.668,2.388,2.388,0,0,1,.645,1.73v.555A2.278,2.278,0,0,1,55.457-6.9a2.249,2.249,0,0,1-1.66.652,2.3,2.3,0,0,1-1.68-.652,2.326,2.326,0,0,1-.664-1.738Zm1.078.6a1.478,1.478,0,0,0,.344,1.006,1.16,1.16,0,0,0,.922.4,1.137,1.137,0,0,0,.895-.384,1.527,1.527,0,0,0,.34-1.049v-.572A1.515,1.515,0,0,0,54.7-10.2a1.132,1.132,0,0,0-.914-.4,1.132,1.132,0,0,0-.914.4,1.563,1.563,0,0,0-.336,1.041Zm4.461,5.8a2.3,2.3,0,0,1,.652-1.684,2.254,2.254,0,0,1,1.676-.66A2.274,2.274,0,0,1,61-4.477a2.355,2.355,0,0,1,.656,1.742v.555A2.3,2.3,0,0,1,61-.5a2.244,2.244,0,0,1-1.668.66,2.3,2.3,0,0,1-1.68-.652,2.326,2.326,0,0,1-.664-1.738Zm1.078.606a1.49,1.49,0,0,0,.344,1.014,1.16,1.16,0,0,0,.922.4,1.129,1.129,0,0,0,.9-.388,1.553,1.553,0,0,0,.336-1.053v-.579a1.485,1.485,0,0,0-.34-1.01,1.144,1.144,0,0,0-.91-.392,1.156,1.156,0,0,0-.9.388,1.508,1.508,0,0,0-.348,1.045ZM54.125-.859l-.82-.516,5.555-8.891.82.516Zm12.656-3.68a12.084,12.084,0,0,1-.457,3.34,9.876,9.876,0,0,1-1.4,2.949,6.127,6.127,0,0,1-1.973,1.922l-.3-.883A6.281,6.281,0,0,0,64.582-.074a12.387,12.387,0,0,0,.746-4.309v-.25a12.861,12.861,0,0,0-.344-3.051,10.3,10.3,0,0,0-.957-2.527,5.838,5.838,0,0,0-1.379-1.742l.3-.883a6.1,6.1,0,0,1,1.965,1.906,9.9,9.9,0,0,1,1.4,2.945A12.363,12.363,0,0,1,66.781-4.539Z" transform="translate(676 22317.5)" fill="#12263f"/>
    <path id="Trazado_911511" data-name="Trazado 911511" d="M-3935.606,175H-3813.3" transform="translate(4603.795 22125.5)" fill="none" stroke="#707070" stroke-width="1"/>
    <path id="Trazado_911726" data-name="Trazado 911726" d="M4.063-10.664l-.086.383a.973.973,0,0,0-.535.2.882.882,0,0,0-.27.457,3.16,3.16,0,0,0-.078.785q0,.117.023.7l.219,5.719v.625h.078L6.8-7.891a7.725,7.725,0,0,0,.445-.926A1.944,1.944,0,0,0,7.391-9.5q0-.656-.781-.781l.086-.383h3.2l-.086.383a.969.969,0,0,0-.4.16,2.066,2.066,0,0,0-.43.43,11.374,11.374,0,0,0-.738,1.16l-5,8.656H2.2L1.672-8.586a5.567,5.567,0,0,0-.113-.871,1.286,1.286,0,0,0-.258-.566.874.874,0,0,0-.559-.258l.086-.383Zm11.883,0a6.669,6.669,0,0,1,1.527.145,2.565,2.565,0,0,1,.984.445,1.843,1.843,0,0,1,.578.762,2.775,2.775,0,0,1,.191,1.07,3.663,3.663,0,0,1-.555,2.031,3.291,3.291,0,0,1-1.5,1.266,5.77,5.77,0,0,1-2.277.406q-.8,0-1.328-.031l-.5,2.3q-.07.32-.1.492t-.047.371q-.02.2-.02.355a.768.768,0,0,0,.078.379.455.455,0,0,0,.234.2,2.075,2.075,0,0,0,.539.094L13.664,0H10.453l.086-.383a1.066,1.066,0,0,0,.445-.152.844.844,0,0,0,.25-.293,2.669,2.669,0,0,0,.188-.457q.086-.27.258-1.043l1.328-6.016a6.108,6.108,0,0,0,.172-1.234.659.659,0,0,0-.18-.531,1.016,1.016,0,0,0-.586-.172l.086-.383ZM14.508-5.219a4.915,4.915,0,0,0,1.527-.2,2.2,2.2,0,0,0,.953-.605,2.9,2.9,0,0,0,.574-.973,3.61,3.61,0,0,0,.2-1.234A1.719,1.719,0,0,0,17.3-9.555a2.243,2.243,0,0,0-1.531-.422q-.484,0-1.016.023L13.7-5.219ZM27.227-5l-2.141.438,1.484,1.9-.859.594-1.219-2.07L23.258-2.07,22.4-2.664l1.484-1.9L21.727-5l.352-.977,2.047.773-.18-2.375h1.078L24.844-5.2,26.9-5.977Zm6.211-5.531-.359,1.516H31.7l.359-1.516ZM30.922-5.266a5.771,5.771,0,0,0,.18-1.172.563.563,0,0,0-.168-.477,1.267,1.267,0,0,0-.66-.141l.086-.414,1.906-.07h.461L31.6-2.523a5.792,5.792,0,0,0-.172,1.156.787.787,0,0,0,.1.453.368.368,0,0,0,.32.141.869.869,0,0,0,.5-.191,5.49,5.49,0,0,0,.75-.73l.445.438A6.817,6.817,0,0,1,32.3-.164a2.023,2.023,0,0,1-1.07.289,1,1,0,0,1-.812-.371,1.447,1.447,0,0,1-.3-.949,6.84,6.84,0,0,1,.219-1.516Zm3.992-3.922a2.308,2.308,0,0,1,.652-1.687,2.247,2.247,0,0,1,1.676-.664,2.234,2.234,0,0,1,1.684.668,2.388,2.388,0,0,1,.645,1.73v.555A2.278,2.278,0,0,1,38.918-6.9a2.249,2.249,0,0,1-1.66.652,2.3,2.3,0,0,1-1.68-.652,2.326,2.326,0,0,1-.664-1.738Zm1.078.6a1.478,1.478,0,0,0,.344,1.006,1.16,1.16,0,0,0,.922.4,1.137,1.137,0,0,0,.895-.384,1.527,1.527,0,0,0,.34-1.049v-.572a1.515,1.515,0,0,0-.336-1.01,1.132,1.132,0,0,0-.914-.4,1.132,1.132,0,0,0-.914.4,1.563,1.563,0,0,0-.336,1.041Zm4.461,5.8a2.3,2.3,0,0,1,.652-1.684,2.254,2.254,0,0,1,1.676-.66,2.274,2.274,0,0,1,1.68.656,2.355,2.355,0,0,1,.656,1.742v.555A2.3,2.3,0,0,1,44.465-.5,2.244,2.244,0,0,1,42.8.164a2.3,2.3,0,0,1-1.68-.652,2.326,2.326,0,0,1-.664-1.738Zm1.078.606a1.49,1.49,0,0,0,.344,1.014,1.16,1.16,0,0,0,.922.4,1.129,1.129,0,0,0,.9-.388,1.553,1.553,0,0,0,.336-1.053v-.579a1.485,1.485,0,0,0-.34-1.01,1.144,1.144,0,0,0-.91-.392,1.156,1.156,0,0,0-.9.388,1.508,1.508,0,0,0-.348,1.045ZM37.586-.859l-.82-.516,5.555-8.891.82.516Z" transform="translate(701 22292)" fill="#12263f"/>
    <path id="Trazado_911729" data-name="Trazado 911729" d="M7.836-5.086H1.313v-1.18H7.836Zm3.438.133a5.6,5.6,0,0,0,.172-1.156.787.787,0,0,0-.1-.453.368.368,0,0,0-.32-.141.874.874,0,0,0-.512.2,5.607,5.607,0,0,0-.738.723l-.445-.437a7.756,7.756,0,0,1,1.2-1.066A1.905,1.905,0,0,1,11.6-7.6a.982.982,0,0,1,.777.324,1.236,1.236,0,0,1,.285.848,2.689,2.689,0,0,1-.187.922l.094.031a7.228,7.228,0,0,1,1.457-1.6,2.348,2.348,0,0,1,1.426-.52,1.454,1.454,0,0,1,1.117.418,1.633,1.633,0,0,1,.391,1.16,6.238,6.238,0,0,1-.227,1.4L16.227-2.57a5.873,5.873,0,0,0-.211,1.2.787.787,0,0,0,.1.453.368.368,0,0,0,.32.141.869.869,0,0,0,.5-.191,5.49,5.49,0,0,0,.75-.73l.445.438A7.067,7.067,0,0,1,16.961-.207,2.015,2.015,0,0,1,15.82.125a1.007,1.007,0,0,1-.812-.363,1.391,1.391,0,0,1-.3-.926,6.463,6.463,0,0,1,.258-1.492L15.3-4.008q.187-.734.246-1.086a3.628,3.628,0,0,0,.059-.57,1.31,1.31,0,0,0-.18-.777.687.687,0,0,0-.586-.238,1.266,1.266,0,0,0-.707.262,4.031,4.031,0,0,0-.8.789,6.193,6.193,0,0,0-.684,1.023,5.1,5.1,0,0,0-.422,1.223L11.484,0H10.133Z" transform="translate(749 22315)" fill="#12263f"/>
    <path id="Trazado_911733" data-name="Trazado 911733" d="M2.7-4.453,1.93,0H.461L2.438-11.375l3.977.008a4.4,4.4,0,0,1,1.414.25,3.087,3.087,0,0,1,1.1.668,2.723,2.723,0,0,1,.68,1.063,3.341,3.341,0,0,1,.156,1.434,3.813,3.813,0,0,1-.453,1.563,3.465,3.465,0,0,1-.961,1.1,4.012,4.012,0,0,1-1.344.641,6.052,6.052,0,0,1-1.6.207ZM2.914-5.68l2.531.008a3.765,3.765,0,0,0,1.039-.141,2.683,2.683,0,0,0,.871-.422,2.351,2.351,0,0,0,.629-.707,2.575,2.575,0,0,0,.32-1,2.27,2.27,0,0,0-.047-.891,1.672,1.672,0,0,0-.359-.68,1.713,1.713,0,0,0-.637-.441,2.489,2.489,0,0,0-.879-.176l-2.7-.008ZM15.164,0a1.894,1.894,0,0,1-.055-.445,4.326,4.326,0,0,1,.023-.445A4.514,4.514,0,0,1,14-.121a2.923,2.923,0,0,1-1.336.277,2.882,2.882,0,0,1-.992-.184,2.357,2.357,0,0,1-.8-.5,2.161,2.161,0,0,1-.516-.766,2.276,2.276,0,0,1-.148-.992,2.59,2.59,0,0,1,.426-1.352,2.918,2.918,0,0,1,.957-.879,4.286,4.286,0,0,1,1.281-.477,6.93,6.93,0,0,1,1.4-.145l1.477.008.094-.672a2,2,0,0,0-.031-.668,1.255,1.255,0,0,0-.25-.52,1.192,1.192,0,0,0-.465-.34,1.774,1.774,0,0,0-.66-.129,2.374,2.374,0,0,0-.648.074,2.086,2.086,0,0,0-.59.25,1.75,1.75,0,0,0-.465.422,1.435,1.435,0,0,0-.266.59l-1.422.008a2.191,2.191,0,0,1,.41-1.105A3.079,3.079,0,0,1,12.309-8a3.834,3.834,0,0,1,1.105-.469,4.48,4.48,0,0,1,1.164-.145,3.457,3.457,0,0,1,1.16.215,2.426,2.426,0,0,1,.879.566,2.225,2.225,0,0,1,.527.887,2.906,2.906,0,0,1,.105,1.176L16.6-1.844a6.4,6.4,0,0,0-.082.859,3.046,3.046,0,0,0,.1.852L16.6,0ZM12.945-1.094a2.431,2.431,0,0,0,.691-.082,2.611,2.611,0,0,0,.629-.262,3.1,3.1,0,0,0,.551-.406,3.444,3.444,0,0,0,.457-.516l.3-1.742-1.07-.008a7.38,7.38,0,0,0-.9.059,3.3,3.3,0,0,0-.891.234,2.033,2.033,0,0,0-.707.492,1.443,1.443,0,0,0-.355.832,1.331,1.331,0,0,0,.043.574,1.146,1.146,0,0,0,.254.438,1.128,1.128,0,0,0,.426.281A1.686,1.686,0,0,0,12.945-1.094Zm6.016-3.148A8.588,8.588,0,0,1,19.172-5.3a6.072,6.072,0,0,1,.371-1.023,5.46,5.46,0,0,1,.543-.918,3.562,3.562,0,0,1,.719-.734,3.278,3.278,0,0,1,.91-.484,3.089,3.089,0,0,1,1.105-.16,3.125,3.125,0,0,1,1.254.281,2.386,2.386,0,0,1,.965.828l.281-.945h1.3L25.211-.18a4.566,4.566,0,0,1-.441,1.445,3.855,3.855,0,0,1-.848,1.125,3.6,3.6,0,0,1-1.2.719,4.01,4.01,0,0,1-1.5.227,3.793,3.793,0,0,1-.836-.109,3.9,3.9,0,0,1-.789-.285,3.4,3.4,0,0,1-.7-.457,2.966,2.966,0,0,1-.559-.625l.8-.867a2.817,2.817,0,0,0,.863.84,2.284,2.284,0,0,0,1.16.324,2.63,2.63,0,0,0,.98-.145,2.349,2.349,0,0,0,.773-.457,2.549,2.549,0,0,0,.555-.719,3.415,3.415,0,0,0,.324-.93l.156-.75a3.508,3.508,0,0,1-1.1.758,3.119,3.119,0,0,1-1.312.242,2.548,2.548,0,0,1-.98-.207,2.325,2.325,0,0,1-.73-.508,2.692,2.692,0,0,1-.5-.734,4.176,4.176,0,0,1-.3-.887,5.3,5.3,0,0,1-.117-.953,7.08,7.08,0,0,1,.031-.945Zm1.406.164a5.577,5.577,0,0,0-.043.645,4.8,4.8,0,0,0,.039.672,3.3,3.3,0,0,0,.145.633,1.739,1.739,0,0,0,.289.535,1.373,1.373,0,0,0,.473.375,1.684,1.684,0,0,0,.684.156A2.129,2.129,0,0,0,23.2-1.4a3.542,3.542,0,0,0,.934-.906L24.8-6.187a1.925,1.925,0,0,0-.656-.871A1.861,1.861,0,0,0,23.1-7.391a2.088,2.088,0,0,0-1.133.266,2.623,2.623,0,0,0-.8.738,3.778,3.778,0,0,0-.516,1.023,5.942,5.942,0,0,0-.258,1.121Zm7.352-.172a6.158,6.158,0,0,1,.246-1.121,5.613,5.613,0,0,1,.449-1.039,4.91,4.91,0,0,1,.645-.9,4.089,4.089,0,0,1,.828-.7,3.871,3.871,0,0,1,1-.453,3.774,3.774,0,0,1,1.168-.145,3.129,3.129,0,0,1,1.523.395,2.969,2.969,0,0,1,1.016.969,3.81,3.81,0,0,1,.527,1.359,5.28,5.28,0,0,1,.059,1.559l-.016.18A5.871,5.871,0,0,1,34.707-2.5,4.987,4.987,0,0,1,33.8-1.117a4.137,4.137,0,0,1-1.312.949,3.723,3.723,0,0,1-1.676.324A3.145,3.145,0,0,1,29.3-.23a2.923,2.923,0,0,1-1.012-.957,3.823,3.823,0,0,1-.531-1.344A5.1,5.1,0,0,1,27.7-4.078Zm1.4.172a5.254,5.254,0,0,0-.035.68,4.271,4.271,0,0,0,.063.688,2.994,2.994,0,0,0,.184.637,1.85,1.85,0,0,0,.332.531,1.563,1.563,0,0,0,.508.371,1.823,1.823,0,0,0,.707.156,2.162,2.162,0,0,0,1.148-.254A2.809,2.809,0,0,0,32.879-2a3.854,3.854,0,0,0,.57-1.02,5.193,5.193,0,0,0,.293-1.129l.023-.172A5.29,5.29,0,0,0,33.8-5a4.369,4.369,0,0,0-.062-.7,3.145,3.145,0,0,0-.184-.648,1.831,1.831,0,0,0-.336-.543A1.616,1.616,0,0,0,32.7-7.27a1.808,1.808,0,0,0-.711-.16,2.115,2.115,0,0,0-1.152.262,2.832,2.832,0,0,0-.848.746,3.928,3.928,0,0,0-.562,1.035,5.48,5.48,0,0,0-.289,1.137ZM47.711-6.359H41.383L41.6-7.617h6.336Zm-.562,3.242H40.82l.219-1.25h6.336Z" transform="translate(609 22369)" fill="#12263f"/>
    <path id="Trazado_911731" data-name="Trazado 911731" d="M5.7,0H4.242V-9.633L1.328-8.562V-9.875L5.469-11.43H5.7ZM16.82-5.086H10.3v-1.18H16.82Zm2.344.469a12.079,12.079,0,0,1,.473-3.391,9.85,9.85,0,0,1,1.41-2.953,6,6,0,0,1,1.945-1.875l.3.953a6.222,6.222,0,0,0-1.871,2.672,11.583,11.583,0,0,0-.8,4.023l-.008.664a11.643,11.643,0,0,0,1.1,5.234,6.252,6.252,0,0,0,1.578,2.078l-.3.883a6.192,6.192,0,0,1-1.984-1.937A10.859,10.859,0,0,1,19.164-4.617ZM29.289,0H27.836V-9.633l-2.914,1.07V-9.875l4.141-1.555h.227Zm8.523-6.1h3.172v1.367H37.813v3.594H36.359V-4.734H33.188V-6.1h3.172v-3.32h1.453ZM50.047,0H42.594V-1.039l3.938-4.375a9.355,9.355,0,0,0,1.207-1.613,2.693,2.693,0,0,0,.332-1.285,2.041,2.041,0,0,0-.539-1.461,1.885,1.885,0,0,0-1.437-.57,2.232,2.232,0,0,0-1.676.613,2.343,2.343,0,0,0-.6,1.707H42.375a3.355,3.355,0,0,1,1.012-2.539,3.751,3.751,0,0,1,2.707-.969A3.6,3.6,0,0,1,48.6-10.7a2.838,2.838,0,0,1,.922,2.215q0,1.68-2.141,4l-3.047,3.3h5.711Zm8.664-4.852a6.61,6.61,0,0,1-.867,3.773A3.084,3.084,0,0,1,55.133.156a3.107,3.107,0,0,1-2.7-1.207,6.274,6.274,0,0,1-.906-3.605v-1.93a6.463,6.463,0,0,1,.867-3.727,3.108,3.108,0,0,1,2.719-1.219,3.136,3.136,0,0,1,2.7,1.176,6.237,6.237,0,0,1,.891,3.629ZM57.266-6.828A5.3,5.3,0,0,0,56.75-9.5a1.775,1.775,0,0,0-1.633-.84,1.751,1.751,0,0,0-1.617.836,5.171,5.171,0,0,0-.523,2.57v2.313A5.381,5.381,0,0,0,53.512-1.9a1.771,1.771,0,0,0,1.621.879,1.747,1.747,0,0,0,1.59-.828,5.186,5.186,0,0,0,.543-2.609Zm3.172-2.359a2.308,2.308,0,0,1,.652-1.687,2.247,2.247,0,0,1,1.676-.664,2.234,2.234,0,0,1,1.684.668,2.388,2.388,0,0,1,.645,1.73v.555A2.278,2.278,0,0,1,64.441-6.9a2.249,2.249,0,0,1-1.66.652A2.3,2.3,0,0,1,61.1-6.9a2.326,2.326,0,0,1-.664-1.738Zm1.078.6a1.478,1.478,0,0,0,.344,1.006,1.16,1.16,0,0,0,.922.4,1.137,1.137,0,0,0,.895-.384,1.527,1.527,0,0,0,.34-1.049v-.572a1.515,1.515,0,0,0-.336-1.01,1.132,1.132,0,0,0-.914-.4,1.132,1.132,0,0,0-.914.4,1.563,1.563,0,0,0-.336,1.041Zm4.461,5.8a2.3,2.3,0,0,1,.652-1.684,2.254,2.254,0,0,1,1.676-.66,2.274,2.274,0,0,1,1.68.656,2.355,2.355,0,0,1,.656,1.742v.555A2.3,2.3,0,0,1,69.988-.5a2.244,2.244,0,0,1-1.668.66,2.3,2.3,0,0,1-1.68-.652,2.326,2.326,0,0,1-.664-1.738Zm1.078.606A1.49,1.49,0,0,0,67.4-1.169a1.16,1.16,0,0,0,.922.4,1.129,1.129,0,0,0,.9-.388,1.553,1.553,0,0,0,.336-1.053v-.579a1.485,1.485,0,0,0-.34-1.01A1.144,1.144,0,0,0,68.3-4.2a1.156,1.156,0,0,0-.9.388,1.508,1.508,0,0,0-.348,1.045ZM63.109-.859l-.82-.516,5.555-8.891.82.516Zm12.656-3.68a12.084,12.084,0,0,1-.457,3.34,9.876,9.876,0,0,1-1.4,2.949,6.127,6.127,0,0,1-1.973,1.922l-.3-.883A6.281,6.281,0,0,0,73.566-.074a12.387,12.387,0,0,0,.746-4.309v-.25a12.861,12.861,0,0,0-.344-3.051,10.3,10.3,0,0,0-.957-2.527,5.838,5.838,0,0,0-1.379-1.742l.3-.883A6.1,6.1,0,0,1,73.9-10.93a9.9,9.9,0,0,1,1.4,2.945A12.363,12.363,0,0,1,75.766-4.539Z" transform="translate(690.495 22380.5)" fill="#12263f"/>
    <path id="Trazado_911512" data-name="Trazado 911512" d="M-3935.606,175h164.394" transform="translate(4603.795 22188.5)" fill="none" stroke="#707070" stroke-width="1"/>
    <path id="Trazado_911730" data-name="Trazado 911730" d="M8.4,0H.945V-1.039L4.883-5.414A9.354,9.354,0,0,0,6.09-7.027a2.693,2.693,0,0,0,.332-1.285,2.041,2.041,0,0,0-.539-1.461,1.885,1.885,0,0,0-1.437-.57A2.232,2.232,0,0,0,2.77-9.73a2.343,2.343,0,0,0-.6,1.707H.727a3.355,3.355,0,0,1,1.012-2.539,3.751,3.751,0,0,1,2.707-.969,3.6,3.6,0,0,1,2.508.832,2.838,2.838,0,0,1,.922,2.215q0,1.68-2.141,4L2.688-1.18H8.4Zm1.711-.758a.905.905,0,0,1,.223-.625A.848.848,0,0,1,11-1.633a.874.874,0,0,1,.676.25.887.887,0,0,1,.23.625.839.839,0,0,1-.23.6A.89.89,0,0,1,11,.086a.863.863,0,0,1-.668-.242A.855.855,0,0,1,10.109-.758ZM14.8-5.7l.578-5.672h5.828v1.336h-4.6l-.344,3.1a3.671,3.671,0,0,1,1.9-.492A3.138,3.138,0,0,1,20.633-6.4a4.026,4.026,0,0,1,.914,2.777A3.886,3.886,0,0,1,20.6-.855,3.46,3.46,0,0,1,17.945.156,3.6,3.6,0,0,1,15.484-.68,3.337,3.337,0,0,1,14.4-2.992h1.367a2.3,2.3,0,0,0,.7,1.473,2.162,2.162,0,0,0,1.484.5,1.95,1.95,0,0,0,1.582-.687,2.874,2.874,0,0,0,.574-1.9,2.638,2.638,0,0,0-.621-1.832,2.113,2.113,0,0,0-1.652-.691,2.383,2.383,0,0,0-1.484.414l-.383.313Zm15.453.852a6.61,6.61,0,0,1-.867,3.773A3.084,3.084,0,0,1,26.68.156a3.107,3.107,0,0,1-2.7-1.207,6.274,6.274,0,0,1-.906-3.605v-1.93a6.463,6.463,0,0,1,.867-3.727,3.108,3.108,0,0,1,2.719-1.219,3.136,3.136,0,0,1,2.7,1.176,6.237,6.237,0,0,1,.891,3.629ZM28.813-6.828A5.3,5.3,0,0,0,28.3-9.5a1.775,1.775,0,0,0-1.633-.84,1.751,1.751,0,0,0-1.617.836,5.171,5.171,0,0,0-.523,2.57v2.313A5.381,5.381,0,0,0,25.059-1.9a1.771,1.771,0,0,0,1.621.879,1.747,1.747,0,0,0,1.59-.828,5.186,5.186,0,0,0,.543-2.609ZM39.563,0H32.109V-1.039l3.938-4.375a9.355,9.355,0,0,0,1.207-1.613,2.693,2.693,0,0,0,.332-1.285,2.041,2.041,0,0,0-.539-1.461,1.885,1.885,0,0,0-1.437-.57,2.232,2.232,0,0,0-1.676.613,2.343,2.343,0,0,0-.6,1.707H31.891A3.355,3.355,0,0,1,32.9-10.562a3.751,3.751,0,0,1,2.707-.969,3.6,3.6,0,0,1,2.508.832,2.838,2.838,0,0,1,.922,2.215q0,1.68-2.141,4l-3.047,3.3h5.711Zm1.711-.758a.905.905,0,0,1,.223-.625.848.848,0,0,1,.668-.25.874.874,0,0,1,.676.25.887.887,0,0,1,.23.625.839.839,0,0,1-.23.6.89.89,0,0,1-.676.242A.863.863,0,0,1,41.5-.156.855.855,0,0,1,41.273-.758Zm4.7-4.945.578-5.672h5.828v1.336h-4.6l-.344,3.1a3.671,3.671,0,0,1,1.9-.492A3.138,3.138,0,0,1,51.8-6.4a4.026,4.026,0,0,1,.914,2.777,3.886,3.886,0,0,1-.949,2.77A3.46,3.46,0,0,1,49.109.156,3.6,3.6,0,0,1,46.648-.68a3.337,3.337,0,0,1-1.086-2.312H46.93a2.3,2.3,0,0,0,.7,1.473,2.162,2.162,0,0,0,1.484.5,1.95,1.95,0,0,0,1.582-.687,2.874,2.874,0,0,0,.574-1.9,2.638,2.638,0,0,0-.621-1.832,2.113,2.113,0,0,0-1.652-.691,2.383,2.383,0,0,0-1.484.414l-.383.313ZM59.828-5a3.536,3.536,0,0,1-1.082.867,2.936,2.936,0,0,1-1.379.328,3.031,3.031,0,0,1-1.715-.484,3.149,3.149,0,0,1-1.129-1.363,4.648,4.648,0,0,1-.4-1.941,4.735,4.735,0,0,1,.434-2.055,3.185,3.185,0,0,1,1.23-1.4,3.509,3.509,0,0,1,1.859-.484,3.177,3.177,0,0,1,2.66,1.262,5.5,5.5,0,0,1,.973,3.441v.422q0,3.32-1.312,4.848A5.043,5.043,0,0,1,56.008.008h-.281V-1.219h.3a3.979,3.979,0,0,0,2.75-.932A4,4,0,0,0,59.828-5ZM57.6-5a2.232,2.232,0,0,0,1.34-.445,2.625,2.625,0,0,0,.895-1.1v-.578a3.977,3.977,0,0,0-.617-2.312,1.842,1.842,0,0,0-1.562-.891,1.856,1.856,0,0,0-1.531.73,3.013,3.013,0,0,0-.578,1.926,3.136,3.136,0,0,0,.559,1.918A1.769,1.769,0,0,0,57.6-5Zm11.344-6.383v1.227H68.68a3.805,3.805,0,0,0-2.687,1A4.161,4.161,0,0,0,64.836-6.43a3.085,3.085,0,0,1,2.453-1.031A2.95,2.95,0,0,1,69.66-6.414a4.038,4.038,0,0,1,.887,2.7A4.025,4.025,0,0,1,69.59-.9,3.3,3.3,0,0,1,67.023.156,3.247,3.247,0,0,1,64.375-1.1a4.97,4.97,0,0,1-1.016-3.23v-.555a7.488,7.488,0,0,1,1.34-4.8,4.921,4.921,0,0,1,3.988-1.7Zm-1.9,5.125a2.306,2.306,0,0,0-1.367.445A2.32,2.32,0,0,0,64.813-4.7v.531A3.731,3.731,0,0,0,65.445-1.9a1.9,1.9,0,0,0,1.578.859,1.838,1.838,0,0,0,1.535-.719,2.982,2.982,0,0,0,.559-1.883,2.983,2.983,0,0,0-.566-1.895A1.816,1.816,0,0,0,67.047-6.258Zm5.391,5.5a.905.905,0,0,1,.223-.625.848.848,0,0,1,.668-.25.874.874,0,0,1,.676.25.887.887,0,0,1,.23.625.839.839,0,0,1-.23.6.89.89,0,0,1-.676.242.863.863,0,0,1-.668-.242A.855.855,0,0,1,72.438-.758ZM82.57-3.82h1.578v1.18H82.57V0H81.117V-2.641h-5.18v-.852l5.094-7.883H82.57Zm-4.992,0h3.539V-9.4l-.172.313ZM86.117-5.7l.578-5.672h5.828v1.336h-4.6l-.344,3.1a3.671,3.671,0,0,1,1.9-.492A3.138,3.138,0,0,1,91.945-6.4a4.026,4.026,0,0,1,.914,2.777,3.886,3.886,0,0,1-.949,2.77A3.46,3.46,0,0,1,89.258.156,3.6,3.6,0,0,1,86.8-.68a3.337,3.337,0,0,1-1.086-2.312h1.367a2.3,2.3,0,0,0,.7,1.473,2.162,2.162,0,0,0,1.484.5,1.95,1.95,0,0,0,1.582-.687,2.874,2.874,0,0,0,.574-1.9,2.638,2.638,0,0,0-.621-1.832,2.113,2.113,0,0,0-1.652-.691,2.383,2.383,0,0,0-1.484.414l-.383.313Zm15.664-4.859L97.07,0H95.555l4.7-10.187H94.094v-1.187h7.688ZM109.773-5l-2.141.438,1.484,1.9-.859.594-1.219-2.07L105.8-2.07l-.859-.594,1.484-1.9L104.273-5l.352-.977,2.047.773-.18-2.375h1.078l-.18,2.375,2.055-.773Zm10.2,5h-7.453V-1.039l3.938-4.375a9.354,9.354,0,0,0,1.207-1.613,2.693,2.693,0,0,0,.332-1.285,2.041,2.041,0,0,0-.539-1.461,1.885,1.885,0,0,0-1.437-.57,2.232,2.232,0,0,0-1.676.613,2.343,2.343,0,0,0-.6,1.707H112.3a3.355,3.355,0,0,1,1.012-2.539,3.751,3.751,0,0,1,2.707-.969,3.6,3.6,0,0,1,2.508.832,2.838,2.838,0,0,1,.922,2.215q0,1.68-2.141,4l-3.047,3.3h5.711Zm8.664-4.852a6.61,6.61,0,0,1-.867,3.773A3.084,3.084,0,0,1,125.055.156a3.107,3.107,0,0,1-2.7-1.207,6.274,6.274,0,0,1-.906-3.605v-1.93a6.463,6.463,0,0,1,.867-3.727,3.108,3.108,0,0,1,2.719-1.219,3.136,3.136,0,0,1,2.7,1.176,6.237,6.237,0,0,1,.891,3.629Zm-1.445-1.977a5.3,5.3,0,0,0-.516-2.676,1.775,1.775,0,0,0-1.633-.84,1.751,1.751,0,0,0-1.617.836,5.171,5.171,0,0,0-.523,2.57v2.313a5.381,5.381,0,0,0,.535,2.723,1.771,1.771,0,0,0,1.621.879,1.747,1.747,0,0,0,1.59-.828,5.186,5.186,0,0,0,.543-2.609Zm3.172-2.359a2.308,2.308,0,0,1,.652-1.687,2.247,2.247,0,0,1,1.676-.664,2.234,2.234,0,0,1,1.684.668,2.388,2.388,0,0,1,.645,1.73v.555a2.278,2.278,0,0,1-.652,1.684,2.249,2.249,0,0,1-1.66.652,2.3,2.3,0,0,1-1.68-.652,2.326,2.326,0,0,1-.664-1.738Zm1.078.6a1.478,1.478,0,0,0,.344,1.006,1.16,1.16,0,0,0,.922.4,1.137,1.137,0,0,0,.895-.384,1.527,1.527,0,0,0,.34-1.049v-.572a1.515,1.515,0,0,0-.336-1.01,1.132,1.132,0,0,0-.914-.4,1.132,1.132,0,0,0-.914.4,1.563,1.563,0,0,0-.336,1.041Zm4.461,5.8a2.3,2.3,0,0,1,.652-1.684,2.254,2.254,0,0,1,1.676-.66,2.274,2.274,0,0,1,1.68.656,2.355,2.355,0,0,1,.656,1.742v.555A2.3,2.3,0,0,1,139.91-.5a2.244,2.244,0,0,1-1.668.66,2.3,2.3,0,0,1-1.68-.652,2.326,2.326,0,0,1-.664-1.738Zm1.078.606a1.49,1.49,0,0,0,.344,1.014,1.16,1.16,0,0,0,.922.4,1.129,1.129,0,0,0,.9-.388,1.553,1.553,0,0,0,.336-1.053v-.579a1.485,1.485,0,0,0-.34-1.01,1.144,1.144,0,0,0-.91-.392,1.156,1.156,0,0,0-.9.388,1.508,1.508,0,0,0-.348,1.045ZM133.031-.859l-.82-.516,5.555-8.891.82.516Z" transform="translate(678 22355)" fill="#12263f"/>
    <path id="Trazado_911732" data-name="Trazado 911732" d="M7.836-5.086H1.313v-1.18H7.836ZM10.75-5.7l.578-5.672h5.828v1.336h-4.6l-.344,3.1a3.671,3.671,0,0,1,1.9-.492A3.138,3.138,0,0,1,16.578-6.4a4.026,4.026,0,0,1,.914,2.777,3.886,3.886,0,0,1-.949,2.77A3.46,3.46,0,0,1,13.891.156,3.6,3.6,0,0,1,11.43-.68a3.337,3.337,0,0,1-1.086-2.312h1.367a2.3,2.3,0,0,0,.7,1.473,2.162,2.162,0,0,0,1.484.5,1.95,1.95,0,0,0,1.582-.687,2.874,2.874,0,0,0,.574-1.9,2.638,2.638,0,0,0-.621-1.832,2.113,2.113,0,0,0-1.652-.691,2.383,2.383,0,0,0-1.484.414l-.383.313Z" transform="translate(772.495 22378)" fill="#12263f"/>
    <path id="Trazado_911735" data-name="Trazado 911735" d="M7.766-6.359H1.438l.219-1.258H7.992ZM7.2-3.117H.875l.219-1.25H7.43Z" transform="translate(845 22369)" fill="#12263f"/>
    <path id="Trazado_911734" data-name="Trazado 911734" d="M7.844-8.406a2.641,2.641,0,0,1-.449,1.516A3.057,3.057,0,0,1,6.18-5.852,3.26,3.26,0,0,1,7.59-4.734a2.811,2.811,0,0,1,.52,1.664,2.972,2.972,0,0,1-1,2.352A3.827,3.827,0,0,1,4.492.156,3.81,3.81,0,0,1,1.863-.723,2.986,2.986,0,0,1,.875-3.07a2.9,2.9,0,0,1,.5-1.664A3.136,3.136,0,0,1,2.773-5.859,2.981,2.981,0,0,1,1.578-6.9a2.679,2.679,0,0,1-.437-1.508,2.94,2.94,0,0,1,.922-2.281,3.458,3.458,0,0,1,2.43-.844,3.461,3.461,0,0,1,2.426.844A2.934,2.934,0,0,1,7.844-8.406ZM6.664-3.1a2.1,2.1,0,0,0-.605-1.555,2.147,2.147,0,0,0-1.582-.6,2.11,2.11,0,0,0-1.566.594A2.12,2.12,0,0,0,2.32-3.1a2.019,2.019,0,0,0,.574,1.523,2.2,2.2,0,0,0,1.6.555,2.2,2.2,0,0,0,1.594-.559A2.014,2.014,0,0,0,6.664-3.1ZM4.492-10.344a1.865,1.865,0,0,0-1.379.527,1.937,1.937,0,0,0-.527,1.434,1.928,1.928,0,0,0,.52,1.4,1.844,1.844,0,0,0,1.387.535A1.844,1.844,0,0,0,5.879-6.98a1.928,1.928,0,0,0,.52-1.4A1.929,1.929,0,0,0,5.859-9.8,1.839,1.839,0,0,0,4.492-10.344Zm7.539,3.953h1.086a2.387,2.387,0,0,0,1.609-.539,1.8,1.8,0,0,0,.586-1.414,1.764,1.764,0,0,0-1.992-2,2.072,2.072,0,0,0-1.5.535,1.873,1.873,0,0,0-.559,1.418H9.82a2.9,2.9,0,0,1,.988-2.246,3.6,3.6,0,0,1,2.512-.895,3.558,3.558,0,0,1,2.523.852,3.076,3.076,0,0,1,.914,2.367,2.5,2.5,0,0,1-.48,1.438,2.9,2.9,0,0,1-1.309,1.039,2.8,2.8,0,0,1,1.449.984,2.734,2.734,0,0,1,.512,1.68,3.1,3.1,0,0,1-1,2.43,3.745,3.745,0,0,1-2.6.9,3.844,3.844,0,0,1-2.605-.867A2.877,2.877,0,0,1,9.719-3h1.453a1.859,1.859,0,0,0,.586,1.438,2.229,2.229,0,0,0,1.57.539,2.187,2.187,0,0,0,1.6-.547,2.108,2.108,0,0,0,.555-1.57,1.912,1.912,0,0,0-.609-1.523,2.655,2.655,0,0,0-1.758-.547H12.031Zm12.555-4.992v1.227H24.32a3.805,3.805,0,0,0-2.687,1A4.161,4.161,0,0,0,20.477-6.43,3.085,3.085,0,0,1,22.93-7.461,2.95,2.95,0,0,1,25.3-6.414a4.038,4.038,0,0,1,.887,2.7A4.025,4.025,0,0,1,25.23-.9,3.3,3.3,0,0,1,22.664.156,3.247,3.247,0,0,1,20.016-1.1,4.97,4.97,0,0,1,19-4.328v-.555a7.488,7.488,0,0,1,1.34-4.8,4.921,4.921,0,0,1,3.988-1.7Zm-1.9,5.125a2.306,2.306,0,0,0-1.367.445A2.32,2.32,0,0,0,20.453-4.7v.531A3.731,3.731,0,0,0,21.086-1.9a1.9,1.9,0,0,0,1.578.859A1.838,1.838,0,0,0,24.2-1.758a2.982,2.982,0,0,0,.559-1.883,2.983,2.983,0,0,0-.566-1.895A1.816,1.816,0,0,0,22.688-6.258Zm5.391,5.5a.905.905,0,0,1,.223-.625.848.848,0,0,1,.668-.25.874.874,0,0,1,.676.25.887.887,0,0,1,.23.625.839.839,0,0,1-.23.6.89.89,0,0,1-.676.242A.863.863,0,0,1,28.3-.156.855.855,0,0,1,28.078-.758Zm10.93-7.648a2.641,2.641,0,0,1-.449,1.516,3.057,3.057,0,0,1-1.215,1.039,3.26,3.26,0,0,1,1.41,1.117,2.811,2.811,0,0,1,.52,1.664,2.972,2.972,0,0,1-1,2.352,3.827,3.827,0,0,1-2.621.875,3.81,3.81,0,0,1-2.629-.879,2.986,2.986,0,0,1-.988-2.348,2.9,2.9,0,0,1,.5-1.664,3.136,3.136,0,0,1,1.395-1.125,2.981,2.981,0,0,1-1.2-1.039A2.679,2.679,0,0,1,32.3-8.406a2.94,2.94,0,0,1,.922-2.281,3.458,3.458,0,0,1,2.43-.844,3.461,3.461,0,0,1,2.426.844A2.934,2.934,0,0,1,39.008-8.406Zm-1.18,5.3a2.1,2.1,0,0,0-.605-1.555,2.147,2.147,0,0,0-1.582-.6,2.11,2.11,0,0,0-1.566.594,2.12,2.12,0,0,0-.59,1.563,2.019,2.019,0,0,0,.574,1.523,2.2,2.2,0,0,0,1.6.555,2.2,2.2,0,0,0,1.594-.559A2.014,2.014,0,0,0,37.828-3.1Zm-2.172-7.242a1.865,1.865,0,0,0-1.379.527,1.937,1.937,0,0,0-.527,1.434,1.928,1.928,0,0,0,.52,1.4,1.844,1.844,0,0,0,1.387.535,1.844,1.844,0,0,0,1.387-.535,1.928,1.928,0,0,0,.52-1.4A1.929,1.929,0,0,0,37.023-9.8,1.839,1.839,0,0,0,35.656-10.344ZM45.844,0H44.391V-9.633l-2.914,1.07V-9.875l4.141-1.555h.227ZM57.422-10.562,52.711,0H51.2l4.7-10.187H49.734v-1.187h7.688Zm1.82,9.8a.905.905,0,0,1,.223-.625.848.848,0,0,1,.668-.25.874.874,0,0,1,.676.25.887.887,0,0,1,.23.625.839.839,0,0,1-.23.6.89.89,0,0,1-.676.242.863.863,0,0,1-.668-.242A.855.855,0,0,1,59.242-.758ZM69.375-3.82h1.578v1.18H69.375V0H67.922V-2.641h-5.18v-.852l5.094-7.883h1.539Zm-4.992,0h3.539V-9.4l-.172.313ZM77.93-11.383v1.227h-.266a3.805,3.805,0,0,0-2.687,1A4.161,4.161,0,0,0,73.82-6.43a3.085,3.085,0,0,1,2.453-1.031,2.95,2.95,0,0,1,2.371,1.047,4.038,4.038,0,0,1,.887,2.7A4.025,4.025,0,0,1,78.574-.9,3.3,3.3,0,0,1,76.008.156,3.247,3.247,0,0,1,73.359-1.1a4.97,4.97,0,0,1-1.016-3.23v-.555a7.488,7.488,0,0,1,1.34-4.8,4.921,4.921,0,0,1,3.988-1.7Zm-1.9,5.125a2.306,2.306,0,0,0-1.367.445A2.32,2.32,0,0,0,73.8-4.7v.531A3.731,3.731,0,0,0,74.43-1.9a1.9,1.9,0,0,0,1.578.859,1.838,1.838,0,0,0,1.535-.719A2.982,2.982,0,0,0,78.1-3.641a2.983,2.983,0,0,0-.566-1.895A1.816,1.816,0,0,0,76.031-6.258ZM85.992,0H84.539V-9.633l-2.914,1.07V-9.875l4.141-1.555h.227Z" transform="translate(864 22369)" fill="#12263f"/>
  </g>
</svg>
