<svg xmlns="http://www.w3.org/2000/svg" xmlns:xlink="http://www.w3.org/1999/xlink" width="113" height="113" viewBox="0 0 113 113">
  <defs>
    <filter id="Trazado_896985" x="0" y="0" width="113" height="113" filterUnits="userSpaceOnUse">
      <feOffset dy="3" input="SourceAlpha"/>
      <feGaussianBlur stdDeviation="3" result="blur"/>
      <feFlood flood-opacity="0.161"/>
      <feComposite operator="in" in2="blur"/>
      <feComposite in="SourceGraphic"/>
    </filter>
    <clipPath id="clip-path">
      <path id="path4434" d="M0-682.665H54.521v54.521H0Z" transform="translate(0 682.665)"/>
    </clipPath>
  </defs>
  <g id="Grupo_1118451" data-name="Grupo 1118451" transform="translate(-271 -2846)">
    <g id="Grupo_1113447" data-name="Grupo 1113447" transform="translate(31.5 683)">
      <g id="Grupo_1111318" data-name="Grupo 1111318" transform="translate(-92.281 -1683)">
        <g id="Grupo_1109826" data-name="Grupo 1109826" transform="translate(340.781 3852)">
          <g id="Grupo_1098742" data-name="Grupo 1098742">
            <g transform="matrix(1, 0, 0, 1, -9, -6)" filter="url(#Trazado_896985)">
              <g id="Trazado_896985-2" data-name="Trazado 896985" transform="translate(9 6)" fill="#e2dacc" opacity="0.859">
                <path d="M 47.49993515014648 93.5 C 41.28932189941406 93.5 35.26528167724609 92.28397369384766 29.59514808654785 89.88571929931641 C 24.1176815032959 87.56894683837891 19.1981086730957 84.25197601318359 14.97306823730469 80.02693176269531 C 10.74802875518799 75.80189514160156 7.431055068969727 70.88231658935547 5.11428165435791 65.40485382080078 C 2.716028451919556 59.73471832275391 1.500001788139343 53.71067810058594 1.500001788139343 47.50006484985352 C 1.500001788139343 41.28932189941406 2.716028451919556 35.26528167724609 5.11428165435791 29.59514617919922 C 7.431055068969727 24.11767959594727 10.74802875518799 19.19810676574707 14.97306823730469 14.97306632995605 C 19.1981086730957 10.74802684783936 24.1176815032959 7.431053161621094 29.59514808654785 5.114280223846436 C 35.26528167724609 2.716026782989502 41.28932189941406 1.5 47.49993515014648 1.5 C 53.71054840087891 1.5 59.73458862304688 2.716026782989502 65.40472412109375 5.114280223846436 C 70.88218688964844 7.431053161621094 75.80176544189453 10.74802684783936 80.02680206298828 14.97306632995605 C 84.25183868408203 19.19810676574707 87.56881713867188 24.11767959594727 89.88558959960938 29.59514617919922 C 92.28384399414062 35.26528167724609 93.49987030029297 41.28932189941406 93.49987030029297 47.49993515014648 C 93.49987030029297 53.71067810058594 92.28384399414062 59.73471832275391 89.88558959960938 65.40485382080078 C 87.56881713867188 70.88231658935547 84.25183868408203 75.80189514160156 80.02680206298828 80.02693176269531 C 75.80176544189453 84.25197601318359 70.88218688964844 87.56894683837891 65.40472412109375 89.88571929931641 C 59.73458862304688 92.28397369384766 53.71054840087891 93.5 47.49993515014648 93.5 Z" stroke="none"/>
                <path d="M 47.49993515014648 3 C 41.49116516113281 3 35.66371917724609 4.176155090332031 30.17947387695312 6.495796203613281 C 24.88081359863281 8.7369384765625 20.12149047851562 11.94596862792969 16.03372192382812 16.03372192382812 C 11.94596862792969 20.12149047851562 8.7369384765625 24.88081359863281 6.495796203613281 30.17947387695312 C 4.1761474609375 35.66372299194336 3 41.49116897583008 3 47.50006103515625 C 3 53.50883102416992 4.1761474609375 59.33627700805664 6.495796203613281 64.82052612304688 C 8.7369384765625 70.11918640136719 11.94596862792969 74.87850952148438 16.03372192382812 78.96627807617188 C 20.12149047851562 83.05403137207031 24.88081359863281 86.2630615234375 30.17947387695312 88.50419616699219 C 35.66371917724609 90.82384490966797 41.49116516113281 92 47.49993515014648 92 C 53.50870513916016 92 59.33615112304688 90.82384490966797 64.82039642333984 88.50419616699219 C 70.11905670166016 86.2630615234375 74.87837982177734 83.05403137207031 78.96614837646484 78.96627807617188 C 83.05390167236328 74.87850952148438 86.26293182373047 70.11918640136719 88.50407409667969 64.82052612304688 C 90.82372283935547 59.33627700805664 91.99987030029297 53.50883102416992 91.99987030029297 47.49993896484375 C 91.99987030029297 41.49116897583008 90.82372283935547 35.66372299194336 88.50407409667969 30.17947387695312 C 86.26293182373047 24.88081359863281 83.05390167236328 20.12149047851562 78.96614837646484 16.03372192382812 C 74.87837982177734 11.94596862792969 70.11905670166016 8.7369384765625 64.82039642333984 6.495796203613281 C 59.33615112304688 4.176155090332031 53.50870513916016 3 47.49993515014648 3 M 47.49993515014648 0 C 73.73342895507812 0 94.99987030029297 21.26644897460938 94.99987030029297 47.49993896484375 L 94.99987030029297 47.50006103515625 C 94.99987030029297 73.73355102539062 73.73342895507812 95 47.49993515014648 95 C 21.26644134521484 95 0 73.73355102539062 0 47.50006103515625 L 0 47.49993896484375 C 0 21.26644897460938 21.26644134521484 0 47.49993515014648 0 Z" stroke="none" fill="#fff"/>
              </g>
            </g>
            <g id="Rectángulo_400907" data-name="Rectángulo 400907" transform="translate(0 0)" fill="none" stroke="#fff" stroke-width="3">
              <rect width="95" height="95" rx="47.5" stroke="none"/>
              <rect x="1.5" y="1.5" width="92" height="92" rx="46" fill="none"/>
            </g>
          </g>
        </g>
      </g>
    </g>
    <g id="g4428" transform="translate(300 3554.665)">
      <g id="g4430" transform="translate(0 -682.665)">
        <g id="g4432" clip-path="url(#clip-path)">
          <g id="g4438" transform="translate(29.807 0.933)">
            <path id="path4440" d="M-260.52-273.982h-9.364a1.063,1.063,0,0,1-1.038-.833,15.065,15.065,0,0,0-3.7-6.991q-.34-.369-.708-.712a15.24,15.24,0,0,0-6.981-3.763,1.064,1.064,0,0,1-.824-1.036v-9.38a1.067,1.067,0,0,1,1.222-1.054,26.291,26.291,0,0,1,5.315,1.335A26.533,26.533,0,0,1-260.768-280.5a26.232,26.232,0,0,1,1.3,5.3,1.066,1.066,0,0,1-1.054,1.216" transform="translate(283.133 297.763)" fill="#98d5b9"/>
          </g>
          <g id="g4442" transform="translate(1.037 0.933)">
            <path id="path4444" d="M-272.774-12.272V-2.9a1.064,1.064,0,0,1-.827,1.037,15.068,15.068,0,0,0-6.85,3.615q-.511.468-.978.984a15.078,15.078,0,0,0-3.556,6.873,1.064,1.064,0,0,1-1.039.835h-9.361a1.066,1.066,0,0,1-1.054-1.217,26.23,26.23,0,0,1,1.3-5.3A26.533,26.533,0,0,1-279.31-11.991,26.29,26.29,0,0,1-274-13.326a1.067,1.067,0,0,1,1.222,1.054" transform="translate(296.45 13.337)" fill="#fd9468"/>
          </g>
          <g id="g4446" transform="translate(29.807 29.808)">
            <path id="path4448" d="M-272.666-14.011a26.24,26.24,0,0,1-1.3,5.3A26.533,26.533,0,0,1-289.8,7.208a26.29,26.29,0,0,1-5.315,1.335,1.067,1.067,0,0,1-1.221-1.054v-9.38a1.064,1.064,0,0,1,.824-1.036,15.24,15.24,0,0,0,6.981-3.763q.367-.343.708-.712a15.063,15.063,0,0,0,3.7-6.991,1.063,1.063,0,0,1,1.038-.833h9.364a1.066,1.066,0,0,1,1.054,1.216" transform="translate(296.333 15.227)" fill="#fe646f"/>
          </g>
          <g id="g4450" transform="translate(1.037 29.808)">
            <path id="path4452" d="M-272.774-153.736v9.372A1.067,1.067,0,0,1-274-143.31a26.289,26.289,0,0,1-5.315-1.335,26.533,26.533,0,0,1-15.827-15.915,26.236,26.236,0,0,1-1.3-5.3,1.066,1.066,0,0,1,1.054-1.216h9.361a1.063,1.063,0,0,1,1.039.835,15.078,15.078,0,0,0,3.556,6.873q.466.514.978.984a15.068,15.068,0,0,0,6.85,3.615,1.064,1.064,0,0,1,.827,1.037" transform="translate(296.45 167.08)" fill="#fee45a"/>
          </g>
          <g id="g4454" transform="translate(36.182 36.182)">
            <path id="path4456" d="M-184.209-1.681a26.533,26.533,0,0,1-15.827,15.915,6.1,6.1,0,0,1-.162-1.4V4.244a6.045,6.045,0,0,1,1.43-3.909,6.139,6.139,0,0,1,.708-.712,6.049,6.049,0,0,1,3.933-1.449h8.594a6.041,6.041,0,0,1,1.325.146" transform="translate(200.198 1.827)" fill="#fd4755"/>
          </g>
          <g id="g4458" transform="translate(39.377 39.377)">
            <path id="path4460" d="M-132.137-165.275h-8.593a2.876,2.876,0,0,1-2.876-2.876v-8.593a2.876,2.876,0,0,1,2.876-2.876h8.593a2.876,2.876,0,0,1,2.876,2.876v8.593a2.876,2.876,0,0,1-2.876,2.876" transform="translate(143.606 179.621)" fill="#918291"/>
          </g>
          <g id="g4462" transform="translate(43.077 42.254)">
            <path id="path4464" d="M-80.031-40.016A3.473,3.473,0,0,1-83.5-36.543a3.473,3.473,0,0,1-3.473-3.473A3.473,3.473,0,0,1-83.5-43.489a3.473,3.473,0,0,1,3.473,3.473" transform="translate(86.977 43.489)" fill="#ffcebf"/>
          </g>
          <g id="g4466" transform="translate(41.465 49.2)">
            <path id="path4468" d="M-9.085-52.105H-.492a2.872,2.872,0,0,0,.789-.11,5.137,5.137,0,0,0-5.085-4.412,5.137,5.137,0,0,0-5.085,4.412,2.871,2.871,0,0,0,.789.11" transform="translate(9.873 56.628)" fill="#8ac9fe"/>
          </g>
          <g id="g4470" transform="translate(2.35 36.182)">
            <path id="path4472" d="M-184.209-69.942v8.594a6.093,6.093,0,0,1-.162,1.4A26.533,26.533,0,0,1-200.2-75.867a6.04,6.04,0,0,1,1.325-.146h8.594a6.038,6.038,0,0,1,3.79,1.333,6.061,6.061,0,0,1,.978.984,6.04,6.04,0,0,1,1.3,3.754" transform="translate(200.198 76.013)" fill="#fedf30"/>
          </g>
          <g id="g4474" transform="translate(0.799 39.377)">
            <path id="path4476" d="M-132.137-165.275h-8.593a2.876,2.876,0,0,1-2.876-2.876v-8.593a2.876,2.876,0,0,1,2.876-2.876h8.593a2.876,2.876,0,0,1,2.876,2.876v8.593a2.876,2.876,0,0,1-2.876,2.876" transform="translate(143.606 179.621)" fill="#918291"/>
          </g>
          <g id="g4478" transform="translate(4.498 42.254)">
            <path id="path4480" d="M-80.031-40.016A3.473,3.473,0,0,1-83.5-36.543a3.473,3.473,0,0,1-3.473-3.473A3.473,3.473,0,0,1-83.5-43.489a3.473,3.473,0,0,1,3.473,3.473" transform="translate(86.977 43.489)" fill="#ffcebf"/>
          </g>
          <g id="g4482" transform="translate(2.886 49.2)">
            <path id="path4484" d="M-9.085-52.105H-.492a2.872,2.872,0,0,0,.789-.11,5.137,5.137,0,0,0-5.085-4.412,5.137,5.137,0,0,0-5.085,4.412,2.871,2.871,0,0,0,.789.11" transform="translate(9.873 56.628)" fill="#8ac9fe"/>
          </g>
          <g id="g4486" transform="translate(36.182 2.279)">
            <path id="path4488" d="M-184.209-183.352a6.041,6.041,0,0,1-1.325.146h-8.594a6.049,6.049,0,0,1-3.933-1.449,6.139,6.139,0,0,1-.708-.712,6.045,6.045,0,0,1-1.43-3.909v-8.594a6.1,6.1,0,0,1,.162-1.4,26.533,26.533,0,0,1,15.827,15.915" transform="translate(200.198 199.266)" fill="#57be92"/>
          </g>
          <g id="g4490" transform="translate(39.377 0.799)">
            <path id="path4492" d="M-132.137-165.275h-8.593a2.876,2.876,0,0,1-2.876-2.876v-8.593a2.876,2.876,0,0,1,2.876-2.876h8.593a2.876,2.876,0,0,1,2.876,2.876v8.593a2.876,2.876,0,0,1-2.876,2.876" transform="translate(143.606 179.621)" fill="#918291"/>
          </g>
          <g id="g4494" transform="translate(43.077 3.675)">
            <path id="path4496" d="M-80.031-40.016A3.473,3.473,0,0,1-83.5-36.543a3.473,3.473,0,0,1-3.473-3.473A3.473,3.473,0,0,1-83.5-43.489a3.473,3.473,0,0,1,3.473,3.473" transform="translate(86.977 43.489)" fill="#ffcebf"/>
          </g>
          <g id="g4498" transform="translate(41.465 10.622)">
            <path id="path4500" d="M-9.085-52.105H-.492a2.876,2.876,0,0,0,.789-.11,5.137,5.137,0,0,0-5.085-4.412,5.137,5.137,0,0,0-5.085,4.412,2.875,2.875,0,0,0,.789.11" transform="translate(9.873 56.628)" fill="#8ac9fe"/>
          </g>
          <g id="g4502" transform="translate(2.35 2.279)">
            <path id="path4504" d="M-184.209-16.084V-7.49a6.04,6.04,0,0,1-1.3,3.754,6.06,6.06,0,0,1-.978.984,6.037,6.037,0,0,1-3.79,1.333h-8.593a6.04,6.04,0,0,1-1.325-.146A26.533,26.533,0,0,1-184.371-17.48a6.094,6.094,0,0,1,.162,1.4" transform="translate(200.198 17.48)" fill="#fe7d43"/>
          </g>
          <g id="g4506" transform="translate(0.799 0.799)">
            <path id="path4508" d="M-132.137-165.275h-8.593a2.876,2.876,0,0,1-2.876-2.876v-8.593a2.876,2.876,0,0,1,2.876-2.876h8.593a2.876,2.876,0,0,1,2.876,2.876v8.593a2.876,2.876,0,0,1-2.876,2.876" transform="translate(143.606 179.621)" fill="#918291"/>
          </g>
          <g id="g4510" transform="translate(4.498 3.675)">
            <path id="path4512" d="M-80.031-40.016A3.473,3.473,0,0,1-83.5-36.543a3.473,3.473,0,0,1-3.473-3.473A3.473,3.473,0,0,1-83.5-43.489a3.473,3.473,0,0,1,3.473,3.473" transform="translate(86.977 43.489)" fill="#ffcebf"/>
          </g>
          <g id="g4514" transform="translate(2.886 10.622)">
            <path id="path4516" d="M-9.085-52.105H-.492a2.876,2.876,0,0,0,.789-.11,5.137,5.137,0,0,0-5.085-4.412,5.137,5.137,0,0,0-5.085,4.412,2.875,2.875,0,0,0,.789.11" transform="translate(9.873 56.628)" fill="#8ac9fe"/>
          </g>
          <g id="g4518" transform="translate(23.627 19.331)">
            <path id="path4520" d="M-82.569,5.557a.8.8,0,0,1-.309-.062.8.8,0,0,1-.427-1.045l5.859-13.962A.8.8,0,0,1-76.4-9.94a.8.8,0,0,1,.427,1.045L-81.832,5.067A.8.8,0,0,1-82.569,5.557Z" transform="translate(83.368 10.003)"/>
          </g>
          <g id="g4522" transform="translate(19.916 18.681)">
            <path id="path4524" d="M-71.447-40.056a3.62,3.62,0,0,1-3.388-3.807,3.62,3.62,0,0,1,3.388-3.807,3.62,3.62,0,0,1,3.388,3.807A3.62,3.62,0,0,1-71.447-40.056Zm0-6.017a2.036,2.036,0,0,0-1.79,2.21,2.036,2.036,0,0,0,1.79,2.21,2.036,2.036,0,0,0,1.79-2.21A2.036,2.036,0,0,0-71.447-46.073Z" transform="translate(74.834 47.671)"/>
          </g>
          <g id="g4526" transform="translate(27.83 28.226)">
            <path id="path4528" d="M-71.447-47.669a3.62,3.62,0,0,1,3.388,3.807,3.62,3.62,0,0,1-3.388,3.807,3.62,3.62,0,0,1-3.388-3.807A3.62,3.62,0,0,1-71.447-47.669Zm0,6.017a2.036,2.036,0,0,0,1.79-2.21,2.036,2.036,0,0,0-1.79-2.21,2.036,2.036,0,0,0-1.79,2.21A2.036,2.036,0,0,0-71.447-41.652Z" transform="translate(74.834 47.669)"/>
          </g>
          <g id="g4530" transform="translate(29.008 0.133)">
            <path id="path4532" d="M-266.627-200.75h-9.365a1.851,1.851,0,0,1-1.818-1.458A14.454,14.454,0,0,0-288.6-213.07a1.855,1.855,0,0,1-1.441-1.814v-9.381a1.866,1.866,0,0,1,.643-1.41,1.854,1.854,0,0,1,1.477-.437,27.037,27.037,0,0,1,8.616,2.748.8.8,0,0,1,.343,1.076.8.8,0,0,1-1.076.343,25.443,25.443,0,0,0-8.108-2.586.255.255,0,0,0-.2.061.267.267,0,0,0-.093.2v9.381a.264.264,0,0,0,.206.258,16.06,16.06,0,0,1,11.985,12.07.264.264,0,0,0,.259.208h9.365a.267.267,0,0,0,.2-.092.256.256,0,0,0,.062-.2,25.554,25.554,0,0,0-1.264-5.155.8.8,0,0,1,.482-1.022.8.8,0,0,1,1.022.482,27.155,27.155,0,0,1,1.343,5.478,1.855,1.855,0,0,1-.441,1.471A1.866,1.866,0,0,1-266.627-200.75Z" transform="translate(290.038 226.129)"/>
          </g>
          <g id="g4534" transform="translate(0.237 0.133)">
            <path id="path4536" d="M-175.4-18.155h-9.362a1.866,1.866,0,0,1-1.407-.64,1.855,1.855,0,0,1-.441-1.471,27.04,27.04,0,0,1,2.7-8.619l.04-.08a.8.8,0,0,1,1.079-.343.8.8,0,0,1,.342,1.074l-.037.074a25.447,25.447,0,0,0-2.542,8.111.256.256,0,0,0,.062.2.266.266,0,0,0,.2.092h9.362a.264.264,0,0,0,.259-.209,15.982,15.982,0,0,1,11.986-12.078.264.264,0,0,0,.206-.258v-9.372a.267.267,0,0,0-.093-.2.255.255,0,0,0-.205-.061,25.434,25.434,0,0,0-8.108,2.587.8.8,0,0,1-1.076-.343.8.8,0,0,1,.343-1.076,27.028,27.028,0,0,1,8.616-2.749,1.854,1.854,0,0,1,1.477.436,1.866,1.866,0,0,1,.643,1.41V-32.3a1.853,1.853,0,0,1-1.447,1.815,14.378,14.378,0,0,0-10.783,10.865A1.851,1.851,0,0,1-175.4-18.155Z" transform="translate(186.63 43.534)"/>
          </g>
          <g id="g4538" transform="translate(29.008 29.009)">
            <path id="path4540" d="M-271.658-104.474a1.855,1.855,0,0,1-1.216-.455,1.866,1.866,0,0,1-.643-1.41v-9.381a1.855,1.855,0,0,1,1.441-1.814A14.454,14.454,0,0,0-261.289-128.4a1.852,1.852,0,0,1,1.818-1.458h9.365a1.866,1.866,0,0,1,1.407.64,1.855,1.855,0,0,1,.441,1.471,27.011,27.011,0,0,1-2.692,8.6.8.8,0,0,1-.157.223.8.8,0,0,1-1.129,0,.8.8,0,0,1-.175-.865q.013-.033.03-.066a25.419,25.419,0,0,0,2.542-8.111.256.256,0,0,0-.062-.2.267.267,0,0,0-.2-.092h-9.365a.264.264,0,0,0-.259.208,16.06,16.06,0,0,1-11.985,12.07.264.264,0,0,0-.206.258v9.381a.267.267,0,0,0,.093.2.255.255,0,0,0,.2.061,25.442,25.442,0,0,0,8.108-2.586.8.8,0,0,1,1.076.343.8.8,0,0,1-.343,1.076,27.035,27.035,0,0,1-8.616,2.748A1.851,1.851,0,0,1-271.658-104.474Z" transform="translate(273.518 129.853)"/>
          </g>
          <g id="g4542" transform="translate(0.11 29.009)">
            <path id="path4544" d="M-6.062-70.525a1.851,1.851,0,0,1-.261-.018,27.043,27.043,0,0,1-8.614-2.747.8.8,0,0,1-.344-1.076A.8.8,0,0,1-14.2-74.71,25.449,25.449,0,0,0-6.1-72.125a.255.255,0,0,0,.205-.061.266.266,0,0,0,.093-.2v-9.372a.264.264,0,0,0-.206-.258,16.058,16.058,0,0,1-12.03-12.286h-9.881a25.526,25.526,0,0,0,1.424,5.782.8.8,0,0,1-.468,1.028.8.8,0,0,1-1.028-.468A27.142,27.142,0,0,1-29.6-95.033a.8.8,0,0,1,.206-.611.8.8,0,0,1,.59-.26h11.435a.8.8,0,0,1,.788.671A14.435,14.435,0,0,0-5.65-83.577,1.853,1.853,0,0,1-4.2-81.762v9.372a1.866,1.866,0,0,1-.643,1.41A1.856,1.856,0,0,1-6.062-70.525Z" transform="translate(29.605 95.904)"/>
          </g>
          <g id="g4546" transform="translate(38.579 38.579)">
            <path id="path4548" d="M-141.338-173.678h-8.593a3.679,3.679,0,0,1-3.675-3.675v-8.593a3.679,3.679,0,0,1,3.675-3.675h8.593a3.679,3.679,0,0,1,3.675,3.675v8.593A3.679,3.679,0,0,1-141.338-173.678Zm-8.593-14.346a2.08,2.08,0,0,0-2.078,2.078v8.593a2.08,2.08,0,0,0,2.078,2.078h8.593a2.08,2.08,0,0,0,2.078-2.078v-8.593a2.08,2.08,0,0,0-2.078-2.078Z" transform="translate(153.606 189.621)"/>
          </g>
          <g id="g4550" transform="translate(42.278 41.455)">
            <path id="path4552" d="M-92.705-53.489a4.277,4.277,0,0,1,4.272,4.272,4.277,4.277,0,0,1-4.272,4.272,4.277,4.277,0,0,1-4.272-4.272A4.277,4.277,0,0,1-92.705-53.489Zm0,6.947a2.678,2.678,0,0,0,2.675-2.675,2.678,2.678,0,0,0-2.675-2.675,2.678,2.678,0,0,0-2.675,2.675A2.678,2.678,0,0,0-92.705-46.543Z" transform="translate(96.977 53.489)"/>
          </g>
          <g id="g4554" transform="translate(40.666 48.401)">
            <path id="path4556" d="M-126.373-59.237a.8.8,0,0,1-.79-.687,4.354,4.354,0,0,0-4.294-3.725,4.354,4.354,0,0,0-4.294,3.725.8.8,0,0,1-.9.679.8.8,0,0,1-.679-.9,5.959,5.959,0,0,1,5.876-5.1,5.959,5.959,0,0,1,5.876,5.1.8.8,0,0,1-.679.9A.806.806,0,0,1-126.373-59.237Z" transform="translate(137.341 65.247)"/>
          </g>
          <g id="g4558" transform="translate(0 38.579)">
            <path id="path4560" d="M-141.338-173.678h-8.593a3.679,3.679,0,0,1-3.675-3.675v-8.593a3.679,3.679,0,0,1,3.675-3.675h8.593a3.679,3.679,0,0,1,3.675,3.675v8.593A3.679,3.679,0,0,1-141.338-173.678Zm-8.593-14.346a2.08,2.08,0,0,0-2.078,2.078v8.593a2.08,2.08,0,0,0,2.078,2.078h8.593a2.08,2.08,0,0,0,2.078-2.078v-8.593a2.08,2.08,0,0,0-2.078-2.078Z" transform="translate(153.606 189.621)"/>
          </g>
          <g id="g4562" transform="translate(3.7 41.455)">
            <path id="path4564" d="M-92.705-53.489a4.277,4.277,0,0,1,4.272,4.272,4.277,4.277,0,0,1-4.272,4.272,4.277,4.277,0,0,1-4.272-4.272A4.277,4.277,0,0,1-92.705-53.489Zm0,6.947a2.678,2.678,0,0,0,2.675-2.675,2.678,2.678,0,0,0-2.675-2.675,2.678,2.678,0,0,0-2.675,2.675A2.678,2.678,0,0,0-92.705-46.543Z" transform="translate(96.977 53.489)"/>
          </g>
          <g id="g4566" transform="translate(2.088 48.402)">
            <path id="path4568" d="M-9.694-60.508h-8.593a3.673,3.673,0,0,1-1.008-.141.8.8,0,0,1-.572-.88,5.959,5.959,0,0,1,5.876-5.1,5.959,5.959,0,0,1,5.876,5.1.8.8,0,0,1-.572.88A3.675,3.675,0,0,1-9.694-60.508Zm-8.4-1.6h8.2a4.361,4.361,0,0,0-4.1-2.925A4.361,4.361,0,0,0-18.092-62.105Z" transform="translate(19.874 66.628)"/>
          </g>
          <g id="g4570" transform="translate(38.579 0)">
            <path id="path4572" d="M-141.338-173.678h-8.593a3.679,3.679,0,0,1-3.675-3.675v-8.593a3.679,3.679,0,0,1,3.675-3.675h8.593a3.679,3.679,0,0,1,3.675,3.675v8.593A3.679,3.679,0,0,1-141.338-173.678Zm-8.593-14.346a2.08,2.08,0,0,0-2.078,2.078v8.593a2.08,2.08,0,0,0,2.078,2.078h8.593a2.08,2.08,0,0,0,2.078-2.078v-8.593a2.08,2.08,0,0,0-2.078-2.078Z" transform="translate(153.606 189.621)"/>
          </g>
          <g id="g4574" transform="translate(42.278 2.876)">
            <path id="path4576" d="M-92.705-53.489a4.277,4.277,0,0,1,4.272,4.272,4.277,4.277,0,0,1-4.272,4.272,4.277,4.277,0,0,1-4.272-4.272A4.277,4.277,0,0,1-92.705-53.489Zm0,6.947a2.678,2.678,0,0,0,2.675-2.675,2.678,2.678,0,0,0-2.675-2.675,2.678,2.678,0,0,0-2.675,2.675A2.678,2.678,0,0,0-92.705-46.543Z" transform="translate(96.977 53.489)"/>
          </g>
          <g id="g4578" transform="translate(40.666 9.823)">
            <path id="path4580" d="M-126.373-59.237a.8.8,0,0,1-.79-.687,4.354,4.354,0,0,0-4.294-3.725,4.354,4.354,0,0,0-4.294,3.725.8.8,0,0,1-.9.679.8.8,0,0,1-.679-.9,5.959,5.959,0,0,1,5.876-5.1,5.959,5.959,0,0,1,5.876,5.1.8.8,0,0,1-.679.9A.806.806,0,0,1-126.373-59.237Z" transform="translate(137.341 65.247)"/>
          </g>
          <g id="g4582" transform="translate(0 0)">
            <path id="path4584" d="M-141.338-173.678h-8.593a3.679,3.679,0,0,1-3.675-3.675v-8.593a3.679,3.679,0,0,1,3.675-3.675h8.593a3.679,3.679,0,0,1,3.675,3.675v8.593A3.679,3.679,0,0,1-141.338-173.678Zm-8.593-14.346a2.08,2.08,0,0,0-2.078,2.078v8.593a2.08,2.08,0,0,0,2.078,2.078h8.593a2.08,2.08,0,0,0,2.078-2.078v-8.593a2.08,2.08,0,0,0-2.078-2.078Z" transform="translate(153.606 189.621)"/>
          </g>
          <g id="g4586" transform="translate(3.7 2.876)">
            <path id="path4588" d="M-92.705-53.489a4.277,4.277,0,0,1,4.272,4.272,4.277,4.277,0,0,1-4.272,4.272,4.277,4.277,0,0,1-4.272-4.272A4.277,4.277,0,0,1-92.705-53.489Zm0,6.947a2.678,2.678,0,0,0,2.675-2.675,2.678,2.678,0,0,0-2.675-2.675,2.678,2.678,0,0,0-2.675,2.675A2.678,2.678,0,0,0-92.705-46.543Z" transform="translate(96.977 53.489)"/>
          </g>
          <g id="g4590" transform="translate(2.088 9.823)">
            <path id="path4592" d="M-126.373-59.237a.8.8,0,0,1-.79-.687,4.354,4.354,0,0,0-4.294-3.725,4.354,4.354,0,0,0-4.294,3.725.8.8,0,0,1-.9.679.8.8,0,0,1-.679-.9,5.959,5.959,0,0,1,5.876-5.1,5.959,5.959,0,0,1,5.876,5.1.8.8,0,0,1-.679.9A.806.806,0,0,1-126.373-59.237Z" transform="translate(137.341 65.247)"/>
          </g>
        </g>
      </g>
    </g>
  </g>
</svg>
