<svg xmlns="http://www.w3.org/2000/svg" xmlns:xlink="http://www.w3.org/1999/xlink" width="113" height="113" viewBox="0 0 113 113">
  <defs>
    <filter id="Trazado_896985" x="0" y="0" width="113" height="113" filterUnits="userSpaceOnUse">
      <feOffset dy="3" input="SourceAlpha"/>
      <feGaussianBlur stdDeviation="3" result="blur"/>
      <feFlood flood-opacity="0.161"/>
      <feComposite operator="in" in2="blur"/>
      <feComposite in="SourceGraphic"/>
    </filter>
  </defs>
  <g id="Grupo_1118449" data-name="Grupo 1118449" transform="translate(-896 -2846)">
    <g id="Grupo_1118446" data-name="Grupo 1118446" transform="translate(656.5 683)">
      <g id="Grupo_1111318" data-name="Grupo 1111318" transform="translate(-92.281 -1683)">
        <g id="Grupo_1109826" data-name="Grupo 1109826" transform="translate(340.781 3852)">
          <g id="Grupo_1098742" data-name="Grupo 1098742">
            <g transform="matrix(1, 0, 0, 1, -9, -6)" filter="url(#Trazado_896985)">
              <g id="Trazado_896985-2" data-name="Trazado 896985" transform="translate(9 6)" fill="#e2dacc" opacity="0.859">
                <path d="M 47.49993515014648 93.5 C 41.28932189941406 93.5 35.26528167724609 92.28397369384766 29.59514808654785 89.88571929931641 C 24.1176815032959 87.56894683837891 19.1981086730957 84.25197601318359 14.97306823730469 80.02693176269531 C 10.74802875518799 75.80189514160156 7.431055068969727 70.88231658935547 5.11428165435791 65.40485382080078 C 2.716028451919556 59.73471832275391 1.500001788139343 53.71067810058594 1.500001788139343 47.50006484985352 C 1.500001788139343 41.28932189941406 2.716028451919556 35.26528167724609 5.11428165435791 29.59514617919922 C 7.431055068969727 24.11767959594727 10.74802875518799 19.19810676574707 14.97306823730469 14.97306632995605 C 19.1981086730957 10.74802684783936 24.1176815032959 7.431053161621094 29.59514808654785 5.114280223846436 C 35.26528167724609 2.716026782989502 41.28932189941406 1.5 47.49993515014648 1.5 C 53.71054840087891 1.5 59.73458862304688 2.716026782989502 65.40472412109375 5.114280223846436 C 70.88218688964844 7.431053161621094 75.80176544189453 10.74802684783936 80.02680206298828 14.97306632995605 C 84.25183868408203 19.19810676574707 87.56881713867188 24.11767959594727 89.88558959960938 29.59514617919922 C 92.28384399414062 35.26528167724609 93.49987030029297 41.28932189941406 93.49987030029297 47.49993515014648 C 93.49987030029297 53.71067810058594 92.28384399414062 59.73471832275391 89.88558959960938 65.40485382080078 C 87.56881713867188 70.88231658935547 84.25183868408203 75.80189514160156 80.02680206298828 80.02693176269531 C 75.80176544189453 84.25197601318359 70.88218688964844 87.56894683837891 65.40472412109375 89.88571929931641 C 59.73458862304688 92.28397369384766 53.71054840087891 93.5 47.49993515014648 93.5 Z" stroke="none"/>
                <path d="M 47.49993515014648 3 C 41.49116516113281 3 35.66371917724609 4.176155090332031 30.17947387695312 6.495796203613281 C 24.88081359863281 8.7369384765625 20.12149047851562 11.94596862792969 16.03372192382812 16.03372192382812 C 11.94596862792969 20.12149047851562 8.7369384765625 24.88081359863281 6.495796203613281 30.17947387695312 C 4.1761474609375 35.66372299194336 3 41.49116897583008 3 47.50006103515625 C 3 53.50883102416992 4.1761474609375 59.33627700805664 6.495796203613281 64.82052612304688 C 8.7369384765625 70.11918640136719 11.94596862792969 74.87850952148438 16.03372192382812 78.96627807617188 C 20.12149047851562 83.05403137207031 24.88081359863281 86.2630615234375 30.17947387695312 88.50419616699219 C 35.66371917724609 90.82384490966797 41.49116516113281 92 47.49993515014648 92 C 53.50870513916016 92 59.33615112304688 90.82384490966797 64.82039642333984 88.50419616699219 C 70.11905670166016 86.2630615234375 74.87837982177734 83.05403137207031 78.96614837646484 78.96627807617188 C 83.05390167236328 74.87850952148438 86.26293182373047 70.11918640136719 88.50407409667969 64.82052612304688 C 90.82372283935547 59.33627700805664 91.99987030029297 53.50883102416992 91.99987030029297 47.49993896484375 C 91.99987030029297 41.49116897583008 90.82372283935547 35.66372299194336 88.50407409667969 30.17947387695312 C 86.26293182373047 24.88081359863281 83.05390167236328 20.12149047851562 78.96614837646484 16.03372192382812 C 74.87837982177734 11.94596862792969 70.11905670166016 8.7369384765625 64.82039642333984 6.495796203613281 C 59.33615112304688 4.176155090332031 53.50870513916016 3 47.49993515014648 3 M 47.49993515014648 0 C 73.73342895507812 0 94.99987030029297 21.26644897460938 94.99987030029297 47.49993896484375 L 94.99987030029297 47.50006103515625 C 94.99987030029297 73.73355102539062 73.73342895507812 95 47.49993515014648 95 C 21.26644134521484 95 0 73.73355102539062 0 47.50006103515625 L 0 47.49993896484375 C 0 21.26644897460938 21.26644134521484 0 47.49993515014648 0 Z" stroke="none" fill="#fff"/>
              </g>
            </g>
            <g id="Rectángulo_400907" data-name="Rectángulo 400907" transform="translate(0 0)" fill="none" stroke="#fff" stroke-width="3">
              <rect width="95" height="95" rx="47.5" stroke="none"/>
              <rect x="1.5" y="1.5" width="92" height="92" rx="46" fill="none"/>
            </g>
          </g>
        </g>
      </g>
    </g>
    <g id="economico" transform="translate(909 2856)">
      <path id="Trazado_911545" data-name="Trazado 911545" d="M89.915,44.948a20.958,20.958,0,0,1-41.915,0q0-.921.079-1.822a20.958,20.958,0,0,1,41.836,1.822Z" transform="translate(-28.355 -7.08)" fill="#9ce6ed"/>
      <path id="Trazado_911546" data-name="Trazado 911546" d="M245.869,85.984a20.943,20.943,0,0,1-9.957,17.841l-4.622-5.085v-7.29h-3.645L224,85.984l3.645-2.734H232.2l2.734-3.645-1.822-4.556,5.7-4.75A20.908,20.908,0,0,1,245.869,85.984Z" transform="translate(-184.309 -48.115)" fill="#02c26a"/>
      <rect id="Rectángulo_406834" data-name="Rectángulo 406834" width="8" height="9" transform="translate(47.672 59.671)" fill="#4367e0"/>
      <rect id="Rectángulo_406835" data-name="Rectángulo 406835" width="7" height="16" transform="translate(55.672 52.671)" fill="#4976f2"/>
      <rect id="Rectángulo_406836" data-name="Rectángulo 406836" width="7" height="25" transform="translate(62.672 43.671)" fill="#548aff"/>
      <path id="Trazado_911547" data-name="Trazado 911547" d="M115.361,25.7l-6.488,6.488v5.467L103.406,41.3l-3.645-3.645H95.205V34.014l-4.215-2.53a20.975,20.975,0,0,1,24.371-5.78Z" transform="translate(-66.449 -7.08)" fill="#02c26a"/>
      <path id="Trazado_911548" data-name="Trazado 911548" d="M66.224,200.2l-3.645,2.734v10.857A20.966,20.966,0,0,1,48,193.822q0-.921.079-1.822h5.389l2.734,3.645h7.29Z" transform="translate(-28.355 -155.954)" fill="#02c26a"/>
      <path id="Trazado_911549" data-name="Trazado 911549" d="M33.112,257.822c0-1.006-2.04-1.822-4.556-1.822S24,256.816,24,257.822V280.6c0,1.007,2.04,1.822,4.556,1.822s4.556-.816,4.556-1.822Z" transform="translate(-7.089 -212.664)" fill="#ffc431"/>
      <ellipse id="Elipse_13522" data-name="Elipse 13522" cx="4.5" cy="1.5" rx="4.5" ry="1.5" transform="translate(16.672 43.671)" fill="#ffd873"/>
      <path id="Trazado_911550" data-name="Trazado 911550" d="M113.112,337.822c0-1.006-2.04-1.822-4.556-1.822s-4.556.816-4.556,1.822V351.49c0,1.007,2.04,1.822,4.556,1.822s4.556-.816,4.556-1.822Z" transform="translate(-77.977 -283.552)" fill="#ffc431"/>
      <ellipse id="Elipse_13523" data-name="Elipse 13523" cx="4.5" cy="1.5" rx="4.5" ry="1.5" transform="translate(25.672 52.671)" fill="#ffd873"/>
      <path id="Trazado_911551" data-name="Trazado 911551" d="M193.112,377.822c0-1.006-2.04-1.822-4.556-1.822s-4.556.816-4.556,1.822v9.112c0,1.007,2.04,1.822,4.556,1.822s4.556-.816,4.556-1.822Z" transform="translate(-148.865 -318.996)" fill="#ffc431"/>
      <ellipse id="Elipse_13524" data-name="Elipse 13524" cx="5" cy="2" rx="5" ry="2" transform="translate(34.672 56.671)" fill="#ffd873"/>
      <path id="Trazado_911552" data-name="Trazado 911552" d="M69.761,248h-7.29a.911.911,0,0,0-.911.911v8.2H55.181a.911.911,0,0,0-.911.911V264.4H47.892a.911.911,0,0,0-.911.911v8.2H45.158V264.4c0-.512-.248-1.471-1.907-2.135a10.879,10.879,0,0,0-7.12,0l-.085.035v-2.457c0-.512-.248-1.471-1.907-2.135a9.888,9.888,0,0,0-3.56-.6,9.888,9.888,0,0,0-3.56.6l-.085.035v-7.013c0-.512-.248-1.471-1.907-2.135a9.887,9.887,0,0,0-3.56-.6,9.887,9.887,0,0,0-3.56.6c-1.659.664-1.907,1.622-1.907,2.135v22.78c0,.512.248,1.471,1.907,2.135a9.887,9.887,0,0,0,3.56.6,9.887,9.887,0,0,0,3.56-.6,4.388,4.388,0,0,0,1-.54,4.388,4.388,0,0,0,1,.54,9.887,9.887,0,0,0,3.56.6,9.887,9.887,0,0,0,3.56-.6,4.388,4.388,0,0,0,1-.54,4.388,4.388,0,0,0,1,.54,10.878,10.878,0,0,0,7.12,0,4.953,4.953,0,0,0,.648-.312H69.761a.911.911,0,0,0,.911-.911V248.911A.911.911,0,0,0,69.761,248ZM17.822,266.5l.085.035a9.887,9.887,0,0,0,3.56.6,9.887,9.887,0,0,0,3.56-.6l.085-.035v2.422c-.158.282-1.419.946-3.645.946s-3.487-.664-3.645-.946Zm0-4.556.085.035a9.888,9.888,0,0,0,3.56.6,9.888,9.888,0,0,0,3.56-.6l.085-.035v2.422c-.158.282-1.419.946-3.645.946s-3.487-.664-3.645-.946Zm0-4.556.085.035a9.888,9.888,0,0,0,3.56.6,9.888,9.888,0,0,0,3.56-.6l.085-.035v2.422c-.158.282-1.419.946-3.645.946s-3.487-.664-3.645-.946Zm0-4.556.085.035a9.887,9.887,0,0,0,3.56.6,9.887,9.887,0,0,0,3.56-.6l.085-.035v2.422c-.158.282-1.419.946-3.645.946s-3.487-.664-3.645-.946Zm12.757,12.48c-2.226,0-3.487-.664-3.645-.946v-2.422l.085.035a9.888,9.888,0,0,0,3.56.6,9.888,9.888,0,0,0,3.56-.6l.085-.035v2.422C34.066,264.649,32.8,265.313,30.579,265.313ZM26.934,266.5l.085.035a9.887,9.887,0,0,0,3.56.6,9.887,9.887,0,0,0,3.56-.6l.085-.035v2.422c-.158.282-1.419.946-3.645.946s-3.487-.664-3.645-.946Zm9.112,0,.085.035a10.879,10.879,0,0,0,7.12,0l.085-.035v2.422c-.158.282-1.419.946-3.645.946s-3.487-.664-3.645-.946Zm3.645-3.01c2.144,0,3.39.615,3.621.912-.237.3-1.484.91-3.621.91s-3.384-.611-3.621-.91C36.3,264.105,37.547,263.49,39.691,263.49Zm-9.112-4.556c2.144,0,3.39.615,3.621.912-.237.3-1.484.91-3.621.91s-3.387-.613-3.622-.911C27.192,259.547,28.44,258.934,30.579,258.934Zm-9.112-9.112c2.144,0,3.39.615,3.621.912-.237.3-1.484.91-3.621.91s-3.384-.611-3.621-.91C18.077,250.438,19.323,249.822,21.467,249.822Zm0,24.6c-2.222,0-3.483-.661-3.645-.944v-2.423l.085.035a9.888,9.888,0,0,0,3.56.6,9.888,9.888,0,0,0,3.56-.6l.085-.035v2.423C24.95,273.763,23.689,274.425,21.467,274.425Zm9.112,0c-2.226,0-3.487-.664-3.645-.946v-2.422l.085.035a9.888,9.888,0,0,0,3.56.6,9.888,9.888,0,0,0,3.56-.6l.085-.035v2.423C34.062,273.763,32.8,274.425,30.579,274.425Zm9.112,0c-2.222,0-3.483-.661-3.645-.944v-2.423l.085.035a10.879,10.879,0,0,0,7.12,0l.085-.035v2.423C43.174,273.763,41.913,274.425,39.691,274.425Zm9.112-8.2H54.27v7.29H48.8Zm7.29-7.29H61.56v14.579H56.093Zm7.29,14.579V249.822h5.467v23.691Z" transform="translate(0 -205.575)"/>
      <rect id="Rectángulo_406837" data-name="Rectángulo 406837" width="2" height="2" transform="translate(39.672 52.671)"/>
      <path id="Trazado_911553" data-name="Trazado 911553" d="M256,180.046v1.822h4.556a.911.911,0,0,0,.644-.267l18.491-18.491v1.445h1.822v-3.645A.911.911,0,0,0,280.6,160h-3.645v1.822H278.4l-18.224,18.224Z" transform="translate(-212.664 -127.599)"/>
      <path id="Trazado_911554" data-name="Trazado 911554" d="M76.69,21.788A21.869,21.869,0,0,0,40,37.869a22.15,22.15,0,0,0,.184,2.851l1.807-.235a20.323,20.323,0,0,1-.169-2.616c0-.305.008-.609.022-.911h4.079l2.46,3.28a.911.911,0,0,0,.729.365h6.774l2.045,3.409-2.987,2.241a.911.911,0,0,0-.365.729v2.734H56.4V47.436l3.28-2.46a.911.911,0,0,0,.235-1.2l-2.734-4.556a.911.911,0,0,0-.781-.442H49.568l-2.46-3.28a.911.911,0,0,0-.729-.365H42.01A19.951,19.951,0,0,1,46.027,25.6l3.085,1.851v3.129a.911.911,0,0,0,.911.911H54.2l3.378,3.378a.911.911,0,0,0,1.15.114L64.2,31.337a.911.911,0,0,0,.406-.758v-5.09l5.776-5.776a20,20,0,0,1,3.972,2.467l-4.864,4.053a.911.911,0,0,0-.263,1.038l1.632,4.081L68.7,34.224H64.6a.911.911,0,0,0-.547.182L60.411,37.14a.911.911,0,0,0-.211,1.234l3.645,5.467a.911.911,0,0,0,.758.406h2.734v5.467h1.822V43.336a.911.911,0,0,0-.911-.911H65.09l-2.9-4.344,2.712-2.034h4.252a.911.911,0,0,0,.729-.365l2.734-3.645a.911.911,0,0,0,.117-.885L71.161,27.21,75.739,23.4a19.972,19.972,0,0,1,6.1,12.728l1.816-.156A21.8,21.8,0,0,0,76.69,21.788ZM63.047,24.467a.911.911,0,0,0-.267.644v4.98l-4.44,2.96-3.117-3.117a.911.911,0,0,0-.644-.267H50.934V26.934a.911.911,0,0,0-.442-.781l-3.266-1.96a20.038,20.038,0,0,1,21.324-5.228Z" transform="translate(-21.266 0)"/>
    </g>
  </g>
</svg>
