<svg xmlns="http://www.w3.org/2000/svg" xmlns:xlink="http://www.w3.org/1999/xlink" width="113" height="113" viewBox="0 0 113 113">
  <defs>
    <filter id="Trazado_896985" x="0" y="0" width="113" height="113" filterUnits="userSpaceOnUse">
      <feOffset dy="3" input="SourceAlpha"/>
      <feGaussianBlur stdDeviation="3" result="blur"/>
      <feFlood flood-opacity="0.161"/>
      <feComposite operator="in" in2="blur"/>
      <feComposite in="SourceGraphic"/>
    </filter>
  </defs>
  <g id="Grupo_1118448" data-name="Grupo 1118448" transform="translate(-1211 -2846)">
    <g id="Grupo_1118447" data-name="Grupo 1118447" transform="translate(971.5 683)">
      <g id="Grupo_1111318" data-name="Grupo 1111318" transform="translate(-92.281 -1683)">
        <g id="Grupo_1109826" data-name="Grupo 1109826" transform="translate(340.781 3852)">
          <g id="Grupo_1098742" data-name="Grupo 1098742">
            <g transform="matrix(1, 0, 0, 1, -9, -6)" filter="url(#Trazado_896985)">
              <g id="Trazado_896985-2" data-name="Trazado 896985" transform="translate(9 6)" fill="#e2dacc" opacity="0.859">
                <path d="M 47.49993515014648 93.5 C 41.28932189941406 93.5 35.26528167724609 92.28397369384766 29.59514808654785 89.88571929931641 C 24.1176815032959 87.56894683837891 19.1981086730957 84.25197601318359 14.97306823730469 80.02693176269531 C 10.74802875518799 75.80189514160156 7.431055068969727 70.88231658935547 5.11428165435791 65.40485382080078 C 2.716028451919556 59.73471832275391 1.500001788139343 53.71067810058594 1.500001788139343 47.50006484985352 C 1.500001788139343 41.28932189941406 2.716028451919556 35.26528167724609 5.11428165435791 29.59514617919922 C 7.431055068969727 24.11767959594727 10.74802875518799 19.19810676574707 14.97306823730469 14.97306632995605 C 19.1981086730957 10.74802684783936 24.1176815032959 7.431053161621094 29.59514808654785 5.114280223846436 C 35.26528167724609 2.716026782989502 41.28932189941406 1.5 47.49993515014648 1.5 C 53.71054840087891 1.5 59.73458862304688 2.716026782989502 65.40472412109375 5.114280223846436 C 70.88218688964844 7.431053161621094 75.80176544189453 10.74802684783936 80.02680206298828 14.97306632995605 C 84.25183868408203 19.19810676574707 87.56881713867188 24.11767959594727 89.88558959960938 29.59514617919922 C 92.28384399414062 35.26528167724609 93.49987030029297 41.28932189941406 93.49987030029297 47.49993515014648 C 93.49987030029297 53.71067810058594 92.28384399414062 59.73471832275391 89.88558959960938 65.40485382080078 C 87.56881713867188 70.88231658935547 84.25183868408203 75.80189514160156 80.02680206298828 80.02693176269531 C 75.80176544189453 84.25197601318359 70.88218688964844 87.56894683837891 65.40472412109375 89.88571929931641 C 59.73458862304688 92.28397369384766 53.71054840087891 93.5 47.49993515014648 93.5 Z" stroke="none"/>
                <path d="M 47.49993515014648 3 C 41.49116516113281 3 35.66371917724609 4.176155090332031 30.17947387695312 6.495796203613281 C 24.88081359863281 8.7369384765625 20.12149047851562 11.94596862792969 16.03372192382812 16.03372192382812 C 11.94596862792969 20.12149047851562 8.7369384765625 24.88081359863281 6.495796203613281 30.17947387695312 C 4.1761474609375 35.66372299194336 3 41.49116897583008 3 47.50006103515625 C 3 53.50883102416992 4.1761474609375 59.33627700805664 6.495796203613281 64.82052612304688 C 8.7369384765625 70.11918640136719 11.94596862792969 74.87850952148438 16.03372192382812 78.96627807617188 C 20.12149047851562 83.05403137207031 24.88081359863281 86.2630615234375 30.17947387695312 88.50419616699219 C 35.66371917724609 90.82384490966797 41.49116516113281 92 47.49993515014648 92 C 53.50870513916016 92 59.33615112304688 90.82384490966797 64.82039642333984 88.50419616699219 C 70.11905670166016 86.2630615234375 74.87837982177734 83.05403137207031 78.96614837646484 78.96627807617188 C 83.05390167236328 74.87850952148438 86.26293182373047 70.11918640136719 88.50407409667969 64.82052612304688 C 90.82372283935547 59.33627700805664 91.99987030029297 53.50883102416992 91.99987030029297 47.49993896484375 C 91.99987030029297 41.49116897583008 90.82372283935547 35.66372299194336 88.50407409667969 30.17947387695312 C 86.26293182373047 24.88081359863281 83.05390167236328 20.12149047851562 78.96614837646484 16.03372192382812 C 74.87837982177734 11.94596862792969 70.11905670166016 8.7369384765625 64.82039642333984 6.495796203613281 C 59.33615112304688 4.176155090332031 53.50870513916016 3 47.49993515014648 3 M 47.49993515014648 0 C 73.73342895507812 0 94.99987030029297 21.26644897460938 94.99987030029297 47.49993896484375 L 94.99987030029297 47.50006103515625 C 94.99987030029297 73.73355102539062 73.73342895507812 95 47.49993515014648 95 C 21.26644134521484 95 0 73.73355102539062 0 47.50006103515625 L 0 47.49993896484375 C 0 21.26644897460938 21.26644134521484 0 47.49993515014648 0 Z" stroke="none" fill="#fff"/>
              </g>
            </g>
            <g id="Rectángulo_400907" data-name="Rectángulo 400907" transform="translate(0 0)" fill="none" stroke="#fff" stroke-width="3">
              <rect width="95" height="95" rx="47.5" stroke="none"/>
              <rect x="1.5" y="1.5" width="92" height="92" rx="46" fill="none"/>
            </g>
          </g>
        </g>
      </g>
    </g>
    <g id="ventas" transform="translate(1239.397 2871)">
      <path id="Trazado_911555" data-name="Trazado 911555" d="M241.382,166.3H233.5V138.767a3.146,3.146,0,0,1,3.146-3.146h1.595a3.145,3.145,0,0,1,3.146,3.146Zm0,0" transform="translate(-205.212 -119.448)" fill="#abebf4"/>
      <path id="Trazado_911556" data-name="Trazado 911556" d="M241.382,280.238a42.853,42.853,0,0,1-7.886,2.809v10.619h7.886Zm0,0" transform="translate(-205.212 -246.819)" fill="#8ed7e8"/>
      <path id="Trazado_911557" data-name="Trazado 911557" d="M146.527,220.593h-7.886v-20.58a2.743,2.743,0,0,1,2.743-2.743h2.4a2.744,2.744,0,0,1,2.743,2.743Zm0,0" transform="translate(-121.668 -173.745)" fill="#b2e59c"/>
      <path id="Trazado_911558" data-name="Trazado 911558" d="M336.241,98.286h-7.886V66.52a3.126,3.126,0,0,1,3.126-3.126h1.634a3.126,3.126,0,0,1,3.126,3.126Zm0,0" transform="translate(-288.759 -55.835)" fill="#ffde55"/>
      <path id="Trazado_911559" data-name="Trazado 911559" d="M336.238,218.594a51.457,51.457,0,0,1-7.886,5.572v10.811h7.886Zm0,0" transform="translate(-288.756 -192.526)" fill="#ffcd00"/>
      <path id="Trazado_911560" data-name="Trazado 911560" d="M109.477,244.262l15.856-8.417a2.652,2.652,0,0,1,3.842,2.871,7.682,7.682,0,0,1-2.63,4.56l-1.625,1.317a1.1,1.1,0,0,0,.694,1.959l6.516,0a10.314,10.314,0,0,0,5.937-1.877l7.283-5.121A3.423,3.423,0,0,1,149.493,245l-9.539,7.839a10.312,10.312,0,0,1-4.095,2.049l-20.909,5.119Zm0,0" transform="translate(-95.982 -207.442)" fill="#ffe2d9"/>
      <path id="Trazado_911561" data-name="Trazado 911561" d="M118.261,304.373c-6-1.762-5.558-9.979-5.558-9.979l-3.227,1.713,5.473,15.747,15.937-3.9C127.53,307.019,122.128,305.507,118.261,304.373Zm0,0" transform="translate(-95.982 -259.287)" fill="#ffcfc2"/>
      <path id="Trazado_911562" data-name="Trazado 911562" d="M22.748,308.758l5.925,15.813a4.619,4.619,0,0,1-3.3,6.125L19.7,331.983a4.619,4.619,0,0,1-5.494-3.342L11.159,316.9a4.758,4.758,0,0,1,3.3-5.772Zm0,0" transform="translate(-9.253 -271.938)" fill="#8ed7e8"/>
      <path id="Trazado_911563" data-name="Trazado 911563" d="M28.673,337.506l-.924-2.466a15.281,15.281,0,0,0-7.008-1.241,4.634,4.634,0,0,1-4.838-4.773,31.979,31.979,0,0,1,.716-5.582l-2.162.618a4.758,4.758,0,0,0-3.3,5.772l3.052,11.741a4.62,4.62,0,0,0,5.494,3.343l5.666-1.287A4.619,4.619,0,0,0,28.673,337.506Zm0,0" transform="translate(-9.253 -284.874)" fill="#7ac1dd"/>
      <path id="Trazado_911564" data-name="Trazado 911564" d="M77.079,429.367a2.629,2.629,0,1,1-2.629-2.629A2.629,2.629,0,0,1,77.079,429.367Zm0,0" transform="translate(-62.816 -375.849)" fill="#ffeb99"/>
      <path id="Trazado_911565" data-name="Trazado 911565" d="M40.723,7.5H33.572a1.857,1.857,0,0,0,0,3.714h2.545l-7.459,7.18-3.537-1.829a1.857,1.857,0,0,0-2.171.341L8.526,31.441a1.857,1.857,0,0,0,2.636,2.616L24.626,20.49,28.134,22.3a1.858,1.858,0,0,0,2.141-.312l8.592-8.27v2.849a1.857,1.857,0,1,0,3.714,0V9.357s0,0,0-.006A1.72,1.72,0,0,0,40.723,7.5Zm0,0" transform="translate(-6.595 -6.606)" fill="#97f7e5"/>
      <path id="Trazado_911566" data-name="Trazado 911566" d="M57.067,81.127c-2.806-2.793-6.049-.179-6.049-.179v-14.7a.894.894,0,1,0-1.789,0V82.206a48.746,48.746,0,0,1-6.1,4.184V59.915a2.234,2.234,0,0,1,2.232-2.232H47a2.234,2.234,0,0,1,2.232,2.232v2.668a.894.894,0,0,0,1.789,0V59.915A4.025,4.025,0,0,0,47,55.895H45.364a4.025,4.025,0,0,0-4.021,4.02V87.1a9.391,9.391,0,0,1-1.637.3V68.548a4.045,4.045,0,0,0-4.04-4.041H34.072a4.045,4.045,0,0,0-4.04,4.041V77.66l-1.637.869V75.5a3.642,3.642,0,0,0-3.638-3.638h-2.4A3.641,3.641,0,0,0,18.72,75.5v8.168l-2.92,1.55L7.6,87.558a5.652,5.652,0,0,0-3.917,6.857L4.6,97.944a.894.894,0,0,0,1.731-.45l-.917-3.529a3.841,3.841,0,0,1,2.678-4.687l7.5-2.143,5.635,15.04a4.006,4.006,0,0,1-2.663,4.939L12.895,108.4a3.708,3.708,0,0,1-4.43-2.7l-1.15-4.426a.895.895,0,0,0-1.731.45l1.151,4.426a5.485,5.485,0,0,0,5.314,4.13,43.866,43.866,0,0,0,6.909-1.427,5.512,5.512,0,0,0,4.172-6.514l19.6-4.8a11.279,11.279,0,0,0,4.45-2.227l9.539-7.838A4.242,4.242,0,0,0,57.067,81.127Zm-23-14.831h1.595a2.254,2.254,0,0,1,2.251,2.252v18.9l-5.644,0c-.518,0-.159-.347-.131-.37l1.625-1.316a8.5,8.5,0,0,0,2.943-5.077,3.546,3.546,0,0,0-4.891-3.959V68.548A2.254,2.254,0,0,1,34.072,66.3ZM20.509,75.5a1.851,1.851,0,0,1,1.848-1.849h2.4A1.851,1.851,0,0,1,26.606,75.5v3.982l-6.1,3.237ZM55.585,86.1l-9.539,7.838a9.475,9.475,0,0,1-3.74,1.871L22.56,100.643l-5.31-14.172,15.163-8.049a1.757,1.757,0,0,1,2.547,1.9,6.76,6.76,0,0,1-2.317,4.044l-1.625,1.317a2,2,0,0,0,1.256,3.549l6.517,0h0a11.152,11.152,0,0,0,6.448-2.04l7.282-5.121a2.52,2.52,0,0,1,3.264.3A2.483,2.483,0,0,1,55.585,86.1Zm0,0" transform="translate(-2.642 -49.229)"/>
      <path id="Trazado_911567" data-name="Trazado 911567" d="M71.367,422.762a3.524,3.524,0,1,0-3.524,3.524A3.528,3.528,0,0,0,71.367,422.762Zm-5.258,0a1.735,1.735,0,1,1,1.735,1.735A1.737,1.737,0,0,1,66.109,422.762Zm0,0" transform="translate(-56.211 -369.243)"/>
      <path id="Trazado_911568" data-name="Trazado 911568" d="M5.2,28.082l13-13.1,2.924,1.513a2.751,2.751,0,0,0,3.172-.462l7.077-6.812s-.195,3.5,2.752,3.5a2.755,2.755,0,0,0,2.751-2.752V2.751c0-.008,0-.017,0-.026A2.6,2.6,0,0,0,34.128,0H26.976a2.754,2.754,0,0,0-2.751,2.751C24.225,5.775,27.3,5.5,27.3,5.5l-5.4,5.2L18.937,9.165a2.741,2.741,0,0,0-3.217.505L1.3,24.205A2.754,2.754,0,0,0,1.311,28.1,2.713,2.713,0,0,0,5.2,28.082ZM2.565,25.465,16.99,10.93a.813.813,0,0,1,1.125-.177l3.536,1.829a.894.894,0,0,0,1.031-.15l7.459-7.18a.894.894,0,0,0-.62-1.539H26.976a.963.963,0,0,1,0-1.925h7.152a.841.841,0,0,1,.962.957c0,.008,0,.016,0,.024v7.2a.962.962,0,1,1-1.925,0V7.116a.894.894,0,0,0-1.515-.644l-8.592,8.27a.962.962,0,0,1-1.11.162L18.442,13.09a.9.9,0,0,0-1.046.164L3.932,26.821a.922.922,0,0,1-1.361.005A.964.964,0,0,1,2.565,25.465Zm0,0" transform="translate(0)"/>
    </g>
  </g>
</svg>
