<svg xmlns="http://www.w3.org/2000/svg" width="295" height="80" viewBox="0 0 295 80">
  <g id="Grupo_1118350" data-name="Grupo 1118350" transform="translate(-810 -3916)">
    <rect id="Rectángulo_406789" data-name="Rectángulo 406789" width="295" height="80" rx="12" transform="translate(810 3916)" fill="#feead4"/>
    <path id="Trazado_911666" data-name="Trazado 911666" d="M1.169-5.194A13.589,13.589,0,0,1,1.7-9.009a11.081,11.081,0,0,1,1.586-3.322A6.749,6.749,0,0,1,5.476-14.44l.334,1.072a7,7,0,0,0-2.1,3.006,13.031,13.031,0,0,0-.9,4.526l-.009.747A13.1,13.1,0,0,0,4.034.8,7.033,7.033,0,0,0,5.81,3.138l-.334.993a6.966,6.966,0,0,1-2.232-2.18A12.217,12.217,0,0,1,1.169-5.194Zm12.674.123-5.106,6.1h7.919V2.364h-9.9V1.107l5.353-6.293L6.759-11.531V-12.8h9.22v1.336H8.728l5.115,6.17ZM25.444.018q-.255-1.538-.694-3.709-.466-2.32-.615-2.874a1.953,1.953,0,0,0-.387-.853.435.435,0,0,0-.308-.114.765.765,0,0,0-.527.229,4.3,4.3,0,0,0-.606.791l-.571-.378a4.926,4.926,0,0,1,1.134-1.279,1.99,1.99,0,0,1,1.178-.374,1.739,1.739,0,0,1,.615.1,1.161,1.161,0,0,1,.352.233,1.446,1.446,0,0,1,.312.453,4.2,4.2,0,0,1,.237.65q.1.36.224,1.037Q26-4.939,26.2-3.687t.338,2.325A20.219,20.219,0,0,0,27.98-3.771a12.854,12.854,0,0,0,.853-2.048,5.208,5.208,0,0,0,.259-1.415.717.717,0,0,0-.176-.562,1.033,1.033,0,0,0-.6-.176l.088-.431h2.312l.237.439a28.667,28.667,0,0,1-1.811,3.911A40.723,40.723,0,0,1,26.569.009a20,20,0,0,1-2.312,2.786,4.478,4.478,0,0,1-1.239.844,2.653,2.653,0,0,1-1.011.193,3.424,3.424,0,0,1-.426-.031,1.59,1.59,0,0,1-.374-.083l.378-1.705h.694q0,.563.387.563a1.892,1.892,0,0,0,1.187-.637A13.357,13.357,0,0,0,25.444.018ZM36.2-5.106a13.6,13.6,0,0,1-.514,3.757,11.11,11.11,0,0,1-1.573,3.318A6.893,6.893,0,0,1,31.9,4.131l-.343-.993A7.066,7.066,0,0,0,33.728-.083a13.935,13.935,0,0,0,.839-4.847v-.281a14.469,14.469,0,0,0-.387-3.432A11.583,11.583,0,0,0,33.1-11.487a6.567,6.567,0,0,0-1.551-1.96l.343-.993a6.866,6.866,0,0,1,2.21,2.145,11.134,11.134,0,0,1,1.573,3.313A13.909,13.909,0,0,1,36.2-5.106Zm2.443-.088a13.589,13.589,0,0,1,.532-3.814,11.081,11.081,0,0,1,1.586-3.322,6.749,6.749,0,0,1,2.188-2.109l.334,1.072a7,7,0,0,0-2.1,3.006,13.031,13.031,0,0,0-.9,4.526l-.009.747A13.1,13.1,0,0,0,41.511.8a7.033,7.033,0,0,0,1.775,2.338l-.334.993a6.966,6.966,0,0,1-2.232-2.18A12.217,12.217,0,0,1,38.646-5.194Zm12.674.123-5.106,6.1h7.919V2.364h-9.9V1.107l5.353-6.293-5.353-6.346V-12.8h9.22v1.336H46.2l5.115,6.17Zm11.5,1.1q-.132-.694-.272-1.336t-.29-1.2a3.784,3.784,0,0,0-.246-.725.627.627,0,0,0-.207-.237.531.531,0,0,0-.277-.066.673.673,0,0,0-.334.083,1.27,1.27,0,0,0-.325.29,7.1,7.1,0,0,0-.466.646l-.571-.378a5.564,5.564,0,0,1,1.063-1.248,1.854,1.854,0,0,1,1.2-.413,1.683,1.683,0,0,1,.479.062,1.055,1.055,0,0,1,.365.189,1.255,1.255,0,0,1,.281.33,2.706,2.706,0,0,1,.237.549,7.343,7.343,0,0,1,.215.861q.1.514.18,1.068h.088q.844-1.187,1.279-1.736a6.854,6.854,0,0,1,.734-.817,1.977,1.977,0,0,1,.576-.378,2.028,2.028,0,0,1,.734-.11,1.843,1.843,0,0,1,.677.105l-.352,1.591h-.615q-.053-.369-.308-.369a.581.581,0,0,0-.167.026.82.82,0,0,0-.215.114,2.89,2.89,0,0,0-.374.343q-.246.255-.554.624t-.633.773l-.6.747q.158.844.3,1.459t.25,1.024q.11.409.193.646a1.207,1.207,0,0,0,.18.356.6.6,0,0,0,.2.167.534.534,0,0,0,.233.048.721.721,0,0,0,.461-.185,4.117,4.117,0,0,0,.646-.835l.571.378A5.414,5.414,0,0,1,66.045-.233a1.911,1.911,0,0,1-1.182.374A1.384,1.384,0,0,1,64.222,0a1.216,1.216,0,0,1-.457-.435,3.1,3.1,0,0,1-.343-.932,14.077,14.077,0,0,1-.334-1.723H63q-.932,1.31-1.384,1.881a7.814,7.814,0,0,1-.747.844A1.89,1.89,0,0,1,60.3.022a2.028,2.028,0,0,1-.734.11,1.843,1.843,0,0,1-.677-.105l.352-1.591h.615q.053.369.308.369a.6.6,0,0,0,.259-.066,1.768,1.768,0,0,0,.391-.316q.255-.25.7-.787T62.815-3.973ZM77.651,0H69.267V-1.169L73.7-6.091a10.524,10.524,0,0,0,1.358-1.815,3.029,3.029,0,0,0,.374-1.446A2.3,2.3,0,0,0,74.821-11a2.12,2.12,0,0,0-1.617-.642,2.511,2.511,0,0,0-1.885.69,2.635,2.635,0,0,0-.672,1.92H69.021a3.774,3.774,0,0,1,1.138-2.856,4.219,4.219,0,0,1,3.045-1.09,4.054,4.054,0,0,1,2.821.936,3.193,3.193,0,0,1,1.037,2.492q0,1.89-2.408,4.5L71.227-1.327h6.425Zm5.643-5.106a13.6,13.6,0,0,1-.514,3.757,11.11,11.11,0,0,1-1.573,3.318,6.893,6.893,0,0,1-2.219,2.162l-.343-.993A7.066,7.066,0,0,0,80.82-.083a13.935,13.935,0,0,0,.839-4.847v-.281a14.469,14.469,0,0,0-.387-3.432A11.583,11.583,0,0,0,80.2-11.487a6.567,6.567,0,0,0-1.551-1.96l.343-.993A6.866,6.866,0,0,1,81.2-12.3a11.134,11.134,0,0,1,1.573,3.313A13.909,13.909,0,0,1,83.294-5.106Zm10.09-.615H86.045V-7.049h7.339Zm7.093.527a13.589,13.589,0,0,1,.532-3.814,11.081,11.081,0,0,1,1.586-3.322,6.749,6.749,0,0,1,2.188-2.109l.334,1.072a7,7,0,0,0-2.1,3.006,13.031,13.031,0,0,0-.9,4.526l-.009.747A13.1,13.1,0,0,0,103.342.8a7.033,7.033,0,0,0,1.775,2.338l-.334.993a6.966,6.966,0,0,1-2.232-2.18A12.217,12.217,0,0,1,100.477-5.194Zm12.674.123-5.106,6.1h7.919V2.364h-9.9V1.107l5.353-6.293-5.353-6.346V-12.8h9.22v1.336h-7.251l5.115,6.17Zm11.5,1.1q-.132-.694-.272-1.336t-.29-1.2a3.784,3.784,0,0,0-.246-.725.627.627,0,0,0-.207-.237.531.531,0,0,0-.277-.066.673.673,0,0,0-.334.083,1.27,1.27,0,0,0-.325.29,7.1,7.1,0,0,0-.466.646l-.571-.378a5.564,5.564,0,0,1,1.063-1.248,1.854,1.854,0,0,1,1.2-.413,1.683,1.683,0,0,1,.479.062,1.055,1.055,0,0,1,.365.189,1.255,1.255,0,0,1,.281.33,2.706,2.706,0,0,1,.237.549,7.343,7.343,0,0,1,.215.861q.1.514.18,1.068h.088q.844-1.187,1.279-1.736a6.854,6.854,0,0,1,.734-.817,1.977,1.977,0,0,1,.576-.378,2.028,2.028,0,0,1,.734-.11,1.843,1.843,0,0,1,.677.105l-.352,1.591H128.8q-.053-.369-.308-.369a.581.581,0,0,0-.167.026.82.82,0,0,0-.215.114,2.89,2.89,0,0,0-.374.343q-.246.255-.554.624t-.633.773l-.6.747q.158.844.3,1.459t.25,1.024q.11.409.193.646a1.207,1.207,0,0,0,.18.356.6.6,0,0,0,.2.167.534.534,0,0,0,.233.048.721.721,0,0,0,.461-.185,4.117,4.117,0,0,0,.646-.835l.571.378a5.414,5.414,0,0,1-1.112,1.288,1.911,1.911,0,0,1-1.182.374A1.384,1.384,0,0,1,126.053,0a1.216,1.216,0,0,1-.457-.435,3.1,3.1,0,0,1-.343-.932,14.077,14.077,0,0,1-.334-1.723h-.088q-.932,1.31-1.384,1.881a7.814,7.814,0,0,1-.747.844,1.89,1.89,0,0,1-.571.382,2.028,2.028,0,0,1-.734.11,1.843,1.843,0,0,1-.677-.105l.352-1.591h.615q.053.369.308.369a.6.6,0,0,0,.259-.066,1.768,1.768,0,0,0,.391-.316q.255-.25.7-.787T124.646-3.973Zm10.371-1.134a13.6,13.6,0,0,1-.514,3.757,11.11,11.11,0,0,1-1.573,3.318,6.893,6.893,0,0,1-2.219,2.162l-.343-.993a7.066,7.066,0,0,0,2.175-3.221,13.935,13.935,0,0,0,.839-4.847v-.281A14.469,14.469,0,0,0,133-8.644a11.583,11.583,0,0,0-1.077-2.843,6.567,6.567,0,0,0-1.551-1.96l.343-.993a6.866,6.866,0,0,1,2.21,2.145,11.134,11.134,0,0,1,1.573,3.313A13.909,13.909,0,0,1,135.018-5.106Zm2.443-.088a13.589,13.589,0,0,1,.532-3.814,11.081,11.081,0,0,1,1.586-3.322,6.749,6.749,0,0,1,2.188-2.109l.334,1.072a7,7,0,0,0-2.1,3.006,13.031,13.031,0,0,0-.9,4.526l-.009.747A13.1,13.1,0,0,0,140.326.8,7.033,7.033,0,0,0,142.1,3.138l-.334.993a6.966,6.966,0,0,1-2.232-2.18A12.217,12.217,0,0,1,137.461-5.194Zm12.674.123-5.106,6.1h7.919V2.364h-9.9V1.107L148.4-5.186l-5.353-6.346V-12.8h9.22v1.336H145.02l5.115,6.17Zm11.5,1.1q-.132-.694-.272-1.336t-.29-1.2a3.784,3.784,0,0,0-.246-.725.627.627,0,0,0-.207-.237.531.531,0,0,0-.277-.066.673.673,0,0,0-.334.083,1.27,1.27,0,0,0-.325.29,7.1,7.1,0,0,0-.466.646l-.571-.378a5.564,5.564,0,0,1,1.063-1.248,1.854,1.854,0,0,1,1.2-.413,1.683,1.683,0,0,1,.479.062,1.055,1.055,0,0,1,.365.189,1.255,1.255,0,0,1,.281.33,2.706,2.706,0,0,1,.237.549,7.343,7.343,0,0,1,.215.861q.1.514.18,1.068h.088q.844-1.187,1.279-1.736a6.854,6.854,0,0,1,.734-.817,1.977,1.977,0,0,1,.576-.378,2.028,2.028,0,0,1,.734-.11,1.843,1.843,0,0,1,.677.105L166.4-6.838h-.615q-.053-.369-.308-.369a.581.581,0,0,0-.167.026.82.82,0,0,0-.215.114,2.89,2.89,0,0,0-.374.343q-.246.255-.554.624t-.633.773l-.6.747q.158.844.3,1.459t.25,1.024q.11.409.193.646a1.207,1.207,0,0,0,.18.356.6.6,0,0,0,.2.167.534.534,0,0,0,.233.048.721.721,0,0,0,.461-.185A4.117,4.117,0,0,0,165.4-1.9l.571.378a5.414,5.414,0,0,1-1.112,1.288,1.911,1.911,0,0,1-1.182.374A1.384,1.384,0,0,1,163.037,0a1.216,1.216,0,0,1-.457-.435,3.1,3.1,0,0,1-.343-.932,14.077,14.077,0,0,1-.334-1.723h-.088q-.932,1.31-1.384,1.881a7.814,7.814,0,0,1-.747.844,1.89,1.89,0,0,1-.571.382,2.028,2.028,0,0,1-.734.11A1.843,1.843,0,0,1,157.7.026l.352-1.591h.615q.053.369.308.369a.6.6,0,0,0,.259-.066,1.768,1.768,0,0,0,.391-.316q.255-.25.7-.787T161.631-3.973Zm9.686,3.99q-.255-1.538-.694-3.709-.466-2.32-.615-2.874a1.953,1.953,0,0,0-.387-.853.435.435,0,0,0-.308-.114.765.765,0,0,0-.527.229,4.3,4.3,0,0,0-.606.791l-.571-.378a4.926,4.926,0,0,1,1.134-1.279,1.99,1.99,0,0,1,1.178-.374,1.739,1.739,0,0,1,.615.1,1.161,1.161,0,0,1,.352.233,1.446,1.446,0,0,1,.312.453,4.2,4.2,0,0,1,.237.65q.1.36.224,1.037.211,1.134.409,2.386t.338,2.325a20.219,20.219,0,0,0,1.446-2.408,12.854,12.854,0,0,0,.853-2.048,5.208,5.208,0,0,0,.259-1.415.717.717,0,0,0-.176-.562,1.033,1.033,0,0,0-.6-.176l.088-.431h2.312l.237.439a28.667,28.667,0,0,1-1.811,3.911A40.723,40.723,0,0,1,172.441.009a20,20,0,0,1-2.312,2.786,4.478,4.478,0,0,1-1.239.844,2.653,2.653,0,0,1-1.011.193,3.424,3.424,0,0,1-.426-.031,1.59,1.59,0,0,1-.374-.083l.378-1.705h.694q0,.563.387.563a1.892,1.892,0,0,0,1.187-.637A13.357,13.357,0,0,0,171.316.018Zm10.758-5.124a13.6,13.6,0,0,1-.514,3.757,11.11,11.11,0,0,1-1.573,3.318,6.893,6.893,0,0,1-2.219,2.162l-.343-.993A7.066,7.066,0,0,0,179.6-.083a13.935,13.935,0,0,0,.839-4.847v-.281a14.469,14.469,0,0,0-.387-3.432,11.583,11.583,0,0,0-1.077-2.843,6.567,6.567,0,0,0-1.551-1.96l.343-.993a6.866,6.866,0,0,1,2.21,2.145,11.134,11.134,0,0,1,1.573,3.313A13.909,13.909,0,0,1,182.074-5.106Z" transform="translate(889 3944)" fill="#12263f"/>
    <path id="Trazado_911668" data-name="Trazado 911668" d="M6.3,0H.709V-.779L3.662-4.061a7.016,7.016,0,0,0,.905-1.21,2.019,2.019,0,0,0,.249-.964,1.531,1.531,0,0,0-.4-1.1,1.414,1.414,0,0,0-1.078-.428,1.674,1.674,0,0,0-1.257.46,1.757,1.757,0,0,0-.448,1.28H.545a2.516,2.516,0,0,1,.759-1.9,2.813,2.813,0,0,1,2.03-.727,2.7,2.7,0,0,1,1.881.624,2.129,2.129,0,0,1,.691,1.661,4.88,4.88,0,0,1-1.605,3L2.016-.885H6.3Z" transform="translate(1002 3970)" fill="#12263f"/>
    <path id="Trazado_911667" data-name="Trazado 911667" d="M2.4-5.572a6.3,6.3,0,0,0,.193-1.3.886.886,0,0,0-.114-.51.414.414,0,0,0-.36-.158.983.983,0,0,0-.576.224A6.308,6.308,0,0,0,.712-6.5L.211-7A8.725,8.725,0,0,1,1.556-8.2a2.143,2.143,0,0,1,1.213-.356,1.1,1.1,0,0,1,.875.365,1.391,1.391,0,0,1,.321.954A3.025,3.025,0,0,1,3.753-6.2l.105.035A8.131,8.131,0,0,1,5.5-7.958a2.642,2.642,0,0,1,1.6-.584,1.636,1.636,0,0,1,1.257.47A1.837,1.837,0,0,1,8.8-6.768a7.017,7.017,0,0,1-.255,1.573l-.571,2.3a6.607,6.607,0,0,0-.237,1.354.886.886,0,0,0,.114.51.414.414,0,0,0,.36.158.978.978,0,0,0,.563-.215,6.176,6.176,0,0,0,.844-.822l.5.492A7.951,7.951,0,0,1,8.8-.233,2.266,2.266,0,0,1,7.515.141,1.133,1.133,0,0,1,6.6-.268,1.565,1.565,0,0,1,6.258-1.31a7.271,7.271,0,0,1,.29-1.679l.387-1.521q.211-.826.277-1.222a4.082,4.082,0,0,0,.066-.642,1.474,1.474,0,0,0-.2-.875.772.772,0,0,0-.659-.268,1.424,1.424,0,0,0-.8.294,4.535,4.535,0,0,0-.905.888,6.967,6.967,0,0,0-.769,1.151,5.738,5.738,0,0,0-.475,1.375L2.637,0H1.116Zm15.618.5-5.106,6.1H20.83V2.364h-9.9V1.107l5.353-6.293-5.353-6.346V-12.8h9.22v1.336H12.9l5.115,6.17Zm11.5,1.1q-.132-.694-.272-1.336t-.29-1.2a3.784,3.784,0,0,0-.246-.725.627.627,0,0,0-.207-.237.531.531,0,0,0-.277-.066.673.673,0,0,0-.334.083,1.27,1.27,0,0,0-.325.29,7.1,7.1,0,0,0-.466.646l-.571-.378a5.564,5.564,0,0,1,1.063-1.248,1.854,1.854,0,0,1,1.2-.413,1.683,1.683,0,0,1,.479.062,1.055,1.055,0,0,1,.365.189,1.255,1.255,0,0,1,.281.33,2.706,2.706,0,0,1,.237.549,7.343,7.343,0,0,1,.215.861q.1.514.18,1.068h.088q.844-1.187,1.279-1.736a6.854,6.854,0,0,1,.734-.817,1.977,1.977,0,0,1,.576-.378,2.028,2.028,0,0,1,.734-.11,1.843,1.843,0,0,1,.677.105l-.352,1.591h-.615q-.053-.369-.308-.369a.581.581,0,0,0-.167.026.82.82,0,0,0-.215.114,2.89,2.89,0,0,0-.374.343q-.246.255-.554.624t-.633.773l-.6.747q.158.844.3,1.459t.25,1.024q.11.409.193.646a1.207,1.207,0,0,0,.18.356.6.6,0,0,0,.2.167.534.534,0,0,0,.233.048.721.721,0,0,0,.461-.185,4.117,4.117,0,0,0,.646-.835l.571.378A5.414,5.414,0,0,1,32.744-.233a1.911,1.911,0,0,1-1.182.374A1.384,1.384,0,0,1,30.92,0a1.216,1.216,0,0,1-.457-.435,3.1,3.1,0,0,1-.343-.932,14.077,14.077,0,0,1-.334-1.723H29.7q-.932,1.31-1.384,1.881a7.814,7.814,0,0,1-.747.844A1.89,1.89,0,0,1,27,.022a2.028,2.028,0,0,1-.734.11,1.843,1.843,0,0,1-.677-.105l.352-1.591h.615q.053.369.308.369a.6.6,0,0,0,.259-.066,1.768,1.768,0,0,0,.391-.316q.255-.25.7-.787T29.514-3.973ZM44.35,0H35.965V-1.169l4.43-4.922a10.524,10.524,0,0,0,1.358-1.815,3.029,3.029,0,0,0,.374-1.446A2.3,2.3,0,0,0,41.52-11a2.12,2.12,0,0,0-1.617-.642,2.511,2.511,0,0,0-1.885.69,2.635,2.635,0,0,0-.672,1.92H35.719a3.774,3.774,0,0,1,1.138-2.856,4.219,4.219,0,0,1,3.045-1.09,4.054,4.054,0,0,1,2.821.936,3.193,3.193,0,0,1,1.037,2.492q0,1.89-2.408,4.5L37.925-1.327H44.35Zm9.475-5.722H46.485V-7.049h7.339Zm2.637.527a13.589,13.589,0,0,1,.532-3.814,11.081,11.081,0,0,1,1.586-3.322,6.749,6.749,0,0,1,2.188-2.109l.334,1.072A7,7,0,0,0,59-10.362a13.031,13.031,0,0,0-.9,4.526l-.009.747A13.1,13.1,0,0,0,59.326.8,7.033,7.033,0,0,0,61.1,3.138l-.334.993a6.966,6.966,0,0,1-2.232-2.18A12.217,12.217,0,0,1,56.461-5.194Zm12.674.123-5.106,6.1h7.919V2.364h-9.9V1.107L67.4-5.186l-5.353-6.346V-12.8h9.22v1.336H64.02l5.115,6.17Zm11.5,1.1q-.132-.694-.272-1.336t-.29-1.2a3.784,3.784,0,0,0-.246-.725.627.627,0,0,0-.207-.237.531.531,0,0,0-.277-.066A.673.673,0,0,0,79-7.449a1.27,1.27,0,0,0-.325.29,7.1,7.1,0,0,0-.466.646l-.571-.378a5.564,5.564,0,0,1,1.063-1.248,1.854,1.854,0,0,1,1.2-.413,1.683,1.683,0,0,1,.479.062,1.055,1.055,0,0,1,.365.189,1.255,1.255,0,0,1,.281.33,2.706,2.706,0,0,1,.237.549,7.343,7.343,0,0,1,.215.861q.1.514.18,1.068h.088Q82.6-6.68,83.035-7.229a6.854,6.854,0,0,1,.734-.817,1.977,1.977,0,0,1,.576-.378,2.028,2.028,0,0,1,.734-.11,1.843,1.843,0,0,1,.677.105L85.4-6.838h-.615q-.053-.369-.308-.369a.581.581,0,0,0-.167.026.82.82,0,0,0-.215.114,2.89,2.89,0,0,0-.374.343q-.246.255-.554.624t-.633.773l-.6.747q.158.844.3,1.459T82.49-2.1q.11.409.193.646a1.207,1.207,0,0,0,.18.356.6.6,0,0,0,.2.167.534.534,0,0,0,.233.048.721.721,0,0,0,.461-.185A4.117,4.117,0,0,0,84.4-1.9l.571.378A5.414,5.414,0,0,1,83.861-.233a1.911,1.911,0,0,1-1.182.374A1.384,1.384,0,0,1,82.037,0a1.216,1.216,0,0,1-.457-.435,3.1,3.1,0,0,1-.343-.932A14.077,14.077,0,0,1,80.9-3.085h-.088q-.932,1.31-1.384,1.881a7.814,7.814,0,0,1-.747.844,1.89,1.89,0,0,1-.571.382,2.028,2.028,0,0,1-.734.11A1.843,1.843,0,0,1,76.7.026l.352-1.591h.615q.053.369.308.369a.6.6,0,0,0,.259-.066,1.768,1.768,0,0,0,.391-.316q.255-.25.7-.787T80.631-3.973ZM91-5.106a13.6,13.6,0,0,1-.514,3.757,11.11,11.11,0,0,1-1.573,3.318A6.893,6.893,0,0,1,86.7,4.131l-.343-.993A7.066,7.066,0,0,0,88.528-.083a13.935,13.935,0,0,0,.839-4.847v-.281a14.469,14.469,0,0,0-.387-3.432A11.583,11.583,0,0,0,87.9-11.487a6.567,6.567,0,0,0-1.551-1.96l.343-.993a6.866,6.866,0,0,1,2.21,2.145,11.134,11.134,0,0,1,1.573,3.313A13.909,13.909,0,0,1,91-5.106Z" transform="translate(906 3981)" fill="#12263f"/>
    <path id="Trazado_911475" data-name="Trazado 911475" d="M-4183.234-7697.922h196.563" transform="translate(5068 11653.922)" fill="none" stroke="#000" stroke-width="0.5"/>
    <path id="Trazado_911669" data-name="Trazado 911669" d="M9.281-4.649a5.654,5.654,0,0,1-1,3.5A3.2,3.2,0,0,1,5.59.176,3.315,3.315,0,0,1,2.8-1.1L2.725,0H1.23V-13.5H2.856v5.036A3.3,3.3,0,0,1,5.572-9.686a3.221,3.221,0,0,1,2.72,1.31A5.824,5.824,0,0,1,9.281-4.79ZM7.655-4.834A4.394,4.394,0,0,0,7.014-7.4a2.124,2.124,0,0,0-1.846-.905A2.387,2.387,0,0,0,2.856-6.812V-2.7A2.454,2.454,0,0,0,5.186-1.2,2.112,2.112,0,0,0,7-2.109,4.672,4.672,0,0,0,7.655-4.834Zm11.109-2.32h-7.33V-8.569h7.33Zm0,3.647h-7.33V-4.913h7.33Z" transform="translate(845 3960)" fill="#12263f"/>
  </g>
</svg>
